<?xml version="1.0" encoding="UTF-8"?>
<svg id="a" xmlns="http://www.w3.org/2000/svg" xmlns:xlink="http://www.w3.org/1999/xlink" version="1.1" viewBox="0 0 748.2 800">
  <!-- Generator: Adobe Illustrator 30.2.1, SVG Export Plug-In . SVG Version: 2.1.1 Build 1)  -->
  <defs>
    <style>
      .st0 {
        fill: none;
      }

      .st1 {
        fill: #ffdf44;
      }

      .st2 {
        fill: #49a258;
      }

      .st3 {
        fill: #c54b4f;
      }

      .st4 {
        clip-path: url(#clippath-1);
      }

      .st5 {
        fill: #5c97c4;
      }

      .st6 {
        fill: #e36b2e;
      }

      .st7 {
        clip-path: url(#clippath);
      }
    </style>
    <clipPath id="clippath">
      <rect class="st0" y="0" width="748.2" height="800"/>
    </clipPath>
    <clipPath id="clippath-1">
      <rect class="st0" y="0" width="748.2" height="800"/>
    </clipPath>
  </defs>
  <g class="st7">
    <g class="st4">
      <g>
        <path class="st6" d="M261.8,231c.1,0,.3,0,.4,0,.1.2.3.4.5.5,2.5,2,4.6,4.3,7.8,5.6.2,0,4.3,2.7,5.6,1.9-.4.2-.8.5-1.2.9.7,1.8,1.9,3.1,2.9,4.8,2.9,5.2,3.9,10.9,4.7,16.8,1,6.9.7,13.6-.7,20.5-2.1,9.9-4,19.5-5.4,29.7-.9,6.5-2.6,12.5-2.9,19.1-.1,2.5-.5,5-.3,7.6l.3,6.2c.8,16.6,6.5,22.3,5.3,34.2-.7,6.7-2,13.1-4,19.5-.6,1.9-1.8,3.7-1.4,5.7-.8-.2-.7,1-1,1.7-2.3,5.6-6.5,10.4-11.8,13.4-2.7,1.6-5.6,2.4-8.4,3.2-.9-1.2-2.4.9-7.6-.4-1.7-.4-3.6,0-5.2-.5l-4.6-1.3c-1.4-.4-2.4-2-3.9-1.8-.1,0-.3,0-.4,0-.8-1.6-2.7-2.3-4.2-3.4-1.1-.8-1.5-2.2-2.6-3.1-1.3-1.1-1.8-3-2.8-4.4-6.3-8.2-9.6-18.8-9.6-29.4s-.3-2.4-.1-3.7c.5-3.9,1.2-7.6,3.4-11,1.4-2.1,2.2-4.7,3.6-7,2.2-3.8,3.1-12,3.3-16.5.1-2.5.5-4.9.8-7.5.4-3.5,2.6-7.1,1.8-10.6-1.1-4.8-2.6-9.5-4.4-14.1-1.8-4.3-4.5-8.2-4.6-13.1-.2-14.1-.9-16.5,2.2-30.5,1.8-8.3,6.1-15.5,12.4-20.9l5.7-5c2.8-2.4.3-5.4,7.1-6.2,1.9-.2,3.5-.8,5.4-.8h14.2c0,0,0,0,0,0Z"/>
        <path class="st2" d="M320.8,705.4c0,.7.3,1.4.9,1.8,0,.3,0,.6,0,.8.4,2.1,0,4.2-.6,6.4l-2.8,9.2c-1.7,5.6,4,12.7,7.4,15.4,2.9,2.2,3,5.3,3.2,8.6.4,12.3-3.6,21.6-12.3,30-12,11.5-32.7,17.2-48.8,18.7l-25.5,2.3c-15.8,1.4-21.3-6.3-40.8-7.2l-25.4-1.2c-9.6-.5-18.8-1.1-28.4-.2-15,1.4-22.7-2.7-36.8-3.6-8.5-.5-16.4,1.4-24.6,3.2-9.2,2-18.4,2-27.7,2-3.6,0-6.7-1-10.2-1.2-8-.6-12.2,1-20.6-.3-9.9-1.6-19.2-6.5-24.9-15-2.4-3.5-2.1-8.2-1.6-12.2-.2-4.9,2.2-8.8,6.6-10.9,3.7-1.8,7.9-2.2,12.1-1.6,12.5,1.5,11.2-1.1,25.5,2.5,4.4,1.1,9.3,2,13.8.8,25.1-6.9,36.9,1.6,52.1-.3,23.4-2.9,30.2,4.2,56.3,1.4,9-1,17.5-2.2,26.5-.6,2.2.4,4.4.8,6.4.8.9.4,2,.4,3,.4h1c.2,0,.5,0,.8,0,5.7.4,9.6-2.2,17.3,1,7.9,3.2,22.3,2.5,30.6.6,7.3-1.6,13.9-5,20-9.1,5.4-3.5,8.7-15.7,9.6-21.8.6-4.3.5-8.8-.3-12.8,0-.3,0-.6,0-.8l-.4-4.1c1.1.2,2.7-3.5,3.8-3.4,2.7.2,3.5,2.1,3.4,4.3-.3,5.4.3,11.2,0,16.5-.6,8.3-3.2,16.5-7.8,23.1-2.5,3.6-5.1,5.6-8.6,7.7-8.2,4.7-16.9,7.5-26.5,8-4.6.2-9.2.3-13.8,0l-16.2-1.1c-15.8-1.1-24.9-4.4-41.3-2.7-13.3,1.4-26.2,1-39.5-.8-9.2-1.3-14.7-.8-23.8,1.1-6.8,1.4-13.1-.1-19.7-1.9-8.7-2.3-17.8-2-26.6-.1-3.7.8-7,2.1-10.7,2.2-7.6.1-14.6-3.3-21.8-3.8-5-.3-9.9,0-15-.2-2.7,0-5.2,1-7.6,2.2-1.6.8-1.5,2.8-1.8,4.4-.9,4.4.3,8.4,3.7,11.7,12.2,11.9,27.9,6.3,35,7.4l10.6,1.7c11.1,1.7,33.7-2.8,45.1-4.5,11.6-1.7,23.7,3.2,36.1,4,7.9.5,15.6.8,23.6,0l17.3-1.6c4.6-.4,9.1-.4,13.6,0,9.4.8,15,4.1,20.6,4.6,4.2.4,8,1.2,12.1,2.2,18.7,5,24.6-1.2,32.7.2,5.6,1,17.9-.7,23.8-2.1,9.7-2.2,19.1-5.7,26.8-12,5.5-4.6,9.6-10.5,11-17.3,1.1-5.5.8-11.3-2.5-15.8-3.2-4.4-6.5-8.6-7.5-14.2-.4-2.5.4-5.1,1.1-7.5,1.4-4.9,2.4-9.7,3.3-14.8,2.1-.3,3.9-.3,5.7-.2"/>
        <path class="st2" d="M415,695.6c0,7-.8,14.1-.3,21.4.4,5.6.3,10.8-.6,16.4-1,6.1-.5,14.5,6,17.4,6.5,3,13,5.5,20,7.5,6.6,1.8,13.4,1.3,20.1.5,15.1-1.8,19.3,2.1,32.4,1.7.5,0,1.1,0,1.7,0,2.9.1,5.8-.1,9-.5l30.5-4c6.6-.9,68.6,0,74.1.5l15.6,1.4c10.3.9,7-4.8,28.5-4.9h1.8c.4,0,.8.2,1.2,0,.7.2,1.5,0,2.2,0,11.7.1,16.2-4.5,30.7-.5,3.9,1.1,8.2,1.9,10.4,5.7,2.3,3.9,1.4,9-.9,12.8-1.8,3-4,5.3-6.4,7.9-14.5,15.9-34.5,18.5-55,18.7-7.3,0-14.2-.5-21.3-2.2-6.1-1.5-12-2.1-18.2-1.5l-19.9,1.9c-14.1,1.3-20.7-2-35.5-2.1-9.6,0-18.8-.7-28.4-1.2-8-.5-15.8-1-23.8-.3l-21,2.1c-8.3.8-16.1,1.5-24.4.9-6.4-.5-12.6-.2-19.1,0-9.5.2-18.3-1.9-27.2-4.9-6-2-11.8-4.1-16.8-8.1-2-1.6-3.5-3.6-5.2-5.5-4-4.3-6.4-9.5-6.2-15.5l.4-16.5c.4-16,1.9-31.5,4.9-46.9,1.3-.3,3.6-1.5,5-.5,1.1.9.4,3.3.2,4.6l-2.8,20.8c-.2,1.3-.3,2.8-.4,4l-.5,10.6-.2,21.8c0,5.2,1.9,10.1,5.4,13.7,8.1,8.4,10.9,8.1,20.8,12,6.9,2.7,14,3.8,21.5,3.8h21.3c9,0,17.5-.1,26.3-1,7.3-.8,14.3-1.2,21.6-2.5,5.3-.9,10.6-2,16-1.3l21.4,2.4,10.5,1,7.1.4,5.4.5c5.7.5,15.8,1.6,21.1.9l11.2-1.6c6.8-1,13.5-1.5,20.3-.3l15,2.7c11.5,2.1,28.8,1.4,40.2-1,6.2-1.3,11.8-3.6,17.2-6.7,5.7-3.3,10.3-7.9,13.1-13.9.9-2,1.3-5.6-.8-6.9-3.5-2-7.7-2.8-11.7-3.4-8.2-1.1-11.8,2.6-23.6,1.5-8.9-.8-17.5,2.3-24.5,7.4-2.9,2.2-6.8,2-9.6,0-3.6-2.6-7.5-3.5-11.8-3.9-1.6-.1-3,0-4.5,0h-17.7c0,.1-5.3-.3-5.3-.3-9-.7-17.7-.3-26.6-1.7-4.3-.7-8.6-.7-12.9,0l-28.5,4.8c-9.1,1.5-24,2-33,.2-7.6-1.5-15.2-1.1-22.9-.3-4,.4-8,.2-12,0-5.6-.2-10.9-1.7-16.1-3.1-3.8-1-6.7-3-10.2-4.6-6.4-2.9-11-8-11.5-15.4-.1-1.7-.6-3.5-.3-5.3,1-7.7,1.3-15.4.7-23.1-.4-4.5-.4-14,.7-18.5,2.2-1.3,5.2-1.5,6.8.3"/>
        <path class="st2" d="M534.4,65.2v.8c-1,1.6-1.2,3.6-2.4,5.3-2.6,3.8-6.5,6.5-10.6,8.5-4.3,3-8.5,5.8-13.2,8.2-.7.4-1.7.3-1.9,1.1-.1,0-.3,0-.4,0-.4,0-.9-.1-.9.3-.1,0-.3,0-.4,0-2.2-.4-4.6,1.5-6.6,1.4-2.7-.1-5.8.3-8.5,0-10.9-3.2-14.8-8.4-19-18.8-1.5-3.7-3.6-7-4.6-10.9-2.1-8.9-2.4-27.1,6.6-33l7.5-5c9.3-6.2,8.6-3.6,19.6-7.9,4.5-1.7,9,0,12.7,2.5,3.6,2.5,14.2,3.3,20.8,11.7,2.9,3.7,2.5,8.6,5.2,14,3.5,7.3-3.1,14.2-3.8,21.6"/>
        <path class="st1" d="M244,57c-.8.9-1.6.8-2.6.7-1.8-.1-7.3,4.3-6.7,7.7-7.3,4.6-12.2,7.3-20.9,6.8-3.3-.2-6.3-.2-9.3-1.9-2.3-1.3-5.3-1.5-7.6-3.1-3.9-2.6-7.5-5.7-10.6-9.2-3.7-4.1-4.8-9.2-4.5-14.8.4-6.9,4-12.5,7.8-17.9,4.7-6.8,10.4-11.8,18.4-14.5,7.2-2.5,12.7-7.7,18.2-8.2,10.4-.9,9,.4,17.9,3.7,3.1,1.2,4.9,4.1,6.2,7,2.3,5.3,4.4,10.7,4.7,16.5.1,3.3-1.5,6.3-2.7,9.2-3.1,7.7-1.6,10.2-6.7,15.9-.6.7-1.6,1-1.7,1.9"/>
        <path class="st6" d="M511.6,417.4h1.3c.1.1.4.1.5.1l4.3.7c6.4,1,26.2,18,31.8,24.4,3,3.5,5.6,7.1,7.3,11.4l5.9,14.9c6.5,16.3,3.2,16.1,6.3,31,2.1,10.1,2.8,20,2.3,30.4l-.3,7.1c-.5,10.1-1.2,20-4.1,29.7l-2.7,8.9c-1.6,5.2-3.1,10.2-4.7,15.2l-3.4,10.7-4.7,14.5c-1.3,4.1-3.8,7.6-4.9,11.7-.3,1-.6,1.2-1.2,2.1-4.2,7.3-6.1,19.1-13,31.3-2.8,4.8-5.2,9.7-6.7,15-.4,1.3-.8,2.3-1.3,3.6l-3.5,8.2c-3.5,8.3-17.3,12.1-25.9,12.4-7.3.3-14.5-.3-22-.8l-21.3-1.6c-2.6-.2-5.3-.9-8-.9-.4,0-.9-.1-1.3,0,0-.5-.7-.4-.5,0-.1,0-.3,0-.4,0-2.4-.6-5.2-1.2-7.6-.4,0,0-.2,0-.3,0-.2,0-.4-.1-.5,0,0-.5-1-.4-1.4-.3h-.9c-.1,0-.3,0-.4,0-1.2-.7-2.7-.3-4-.4-.9,0-1.8-.3-2.6,0l-.9-.3c-.1,0-.2,0-.4,0-1.1-.1-2.1-.1-3.2-.1-.3,0-.6.1-.9,0l-3.5-.2c-1.6-1.8-4.6-1.7-6.8-.3-1.1,4.5-1,14-.6,18.5.6,7.8.3,15.4-.7,23.1-.2,1.9.2,3.7.3,5.3.6,7.4,5.1,12.5,11.5,15.4,3.5,1.5,6.4,3.6,10.2,4.6,5.3,1.4,10.6,2.9,16.1,3.1,4,.2,8,.4,12,0,7.7-.8,15.3-1.2,22.9.3,9,1.8,23.9,1.4,33-.2l28.5-4.8c4.3-.7,8.5-.7,12.9,0,9,1.4,17.6,1,26.6,1.7l5.3.4h17.7c1.6-.1,3-.3,4.5-.2,4.3.4,8.2,1.4,11.8,3.9,2.8,2,6.7,2.1,9.6,0,7-5.2,15.7-8.3,24.5-7.4,11.9,1.1,15.4-2.6,23.6-1.5,4,.5,8.2,1.4,11.7,3.4,2.2,1.2,1.7,4.9.8,6.9-2.8,6.1-7.3,10.6-13.1,13.9-5.4,3.1-11,5.5-17.2,6.7-11.4,2.4-28.7,3.1-40.2,1l-15-2.7c-6.8-1.2-13.5-.7-20.3.3l-11.2,1.6c-5.3.8-15.4-.4-21.1-.9l-5.4-.5-7.1-.4-10.5-1-21.4-2.4c-5.4-.6-10.7.4-16,1.3-7.3,1.2-14.3,1.7-21.6,2.5-8.9.9-17.3,1-26.3,1h-21.3c-7.5,0-14.6-1.1-21.5-3.9-9.9-3.9-12.6-3.6-20.8-12-3.5-3.6-5.4-8.6-5.4-13.7l.2-21.8.5-10.6c0-1.2.2-2.7.4-4l2.8-20.8c.2-1.3,1-3.7-.2-4.6-1.3-1-3.6.2-5,.5-1.6.4-3.3.1-4.8.8-.2.1-.7,0-1,0-.4,0-1.1-.2-1.3.3-4.8.3-9.5,1.6-14.2,2.3-9.1,1.3-18.4,1.7-27.5,3.6l-4.5.9c-1.8-.2-3.6-.2-5.7.2-.9,5.1-1.9,9.9-3.3,14.8-.7,2.4-1.5,5-1.1,7.5,1,5.6,4.3,9.8,7.5,14.2,3.3,4.5,3.6,10.3,2.5,15.8-1.4,6.8-5.5,12.8-11,17.3-7.6,6.3-17.1,9.8-26.8,12-5.9,1.3-18.2,3-23.8,2.1-8.1-1.4-14,4.8-32.7-.2-4.1-1.1-7.9-1.9-12.1-2.2-5.5-.5-11.2-3.7-20.6-4.6-4.5-.4-9-.5-13.6,0l-17.3,1.6c-7.9.7-15.6.4-23.6,0-12.4-.7-24.5-5.7-36.1-4-11.4,1.7-34,6.3-45.1,4.5l-10.6-1.7c-7-1.1-22.8,4.5-35-7.4-3.4-3.3-4.6-7.2-3.7-11.7.3-1.6.1-3.5,1.8-4.4,2.4-1.2,4.8-2.3,7.6-2.2,5.1,0,10-.2,15.1.2,7.1.5,14.2,3.9,21.8,3.8,3.8,0,7-1.4,10.7-2.2,8.7-1.8,17.9-2.2,26.6.1,6.6,1.8,12.9,3.3,19.7,1.9,9-1.9,14.5-2.4,23.8-1.1,13.2,1.8,26.1,2.3,39.5.8,16.4-1.8,25.5,1.6,41.3,2.7l16.2,1.1c4.6.3,9.2.2,13.8,0,9.6-.5,18.3-3.4,26.5-8,3.6-2,6.2-4.1,8.6-7.7,4.6-6.7,7.2-14.8,7.8-23.1.4-5.2-.2-11,0-16.5.1-2.2-.8-4.1-3.4-4.3-1.1,0-2.7,3.7-3.8,3.4l-1.8-.4-14.7-.5c-.2,0-.5,0-.8,0-.6,0-1.2-.2-1.8,0-.1,0-.3,0-.4,0-1.2-.8-2.7-.2-4-.4-.7-.1-1.5-.2-2.2,0-2-.7-4.1-.3-6.2-.3h-.8c-.2,0-.5,0-.5.3-3,0-5.9,1.1-8.8,1.4-2.9.3-5.8.6-8.9.3-7-.6-13.7-1.6-20.4-2.9l-.8-.2c-.2-.6-1-.3-1.5-.3-.2,0-.5,0-.7,0-.4-.4-1-.4-1.5-.5-.2,0-.6,0-.7,0-1.4-.9-3-.2-4.5-.5-.3,0-.6,0-.9,0-1.1-.4-2.4-.5-3.5,0-.1,0-.3,0-.4,0-7.9-5.1-9-12-13.4-17.6-1.1-1.4-1.9-3.3-2.9-5l-4-6.8-2.2-4.4c-.7-1.4-1.2-2.5-1.6-3.8-1.4-5.2-3.9-10.1-6.9-14.8l-8.7-13.6c-1.4-2.2-3.2-4-4.3-6.3-.3-.7-.6-1.4-1.4-1.2v-.9c.5-.2.4-.6,0-.4,0-.1,0-.3,0-.4-1.5-9.2,1.5-17.5-.3-28-1.1-6.7-2.1-13.3-2.6-20.1l-.5-6.9-.4-5.8c-.4-5.9-.4-11.7,0-17.7l.4-8.5,1.5-14.1c.5-4.6-.8-9.7,0-14.6.2-1.4,1-2.9,1.4-4.3,1.6-5.5,6.5-13.2,8.3-18.2,2.1-5.8,3.9-5.1,6.1-9.8,5.5-6.1,11.4-11.5,17.1-17.4l3.1-3.1c1-1.1,2.6-1.5,3.2-3.1,2.4-1,3.7-3.4,5.6-5l3.2-2.5c5-4,9.4-8.7,15.3-12.7,6.3-4.2,12.6-11.4,20.6-15.3.5-.3.7-1,.4-1.4-.2-.5-2.4-.9-2.6-1.6,1.5-.2,2.4,1.4,3.9,1.8l4.6,1.3c1.7.5,3.5,0,5.2.5,5.2,1.3,6.7-.8,7.6.4-.4.1-1.1.1-1.3.5h-5.3c-1.5,0-3.7-1.3-5.1-.4-2.3,1.4-4.2,3-6.7,4.2-7.9,3.8-14.4,9.1-20.5,14.9,0-1.8,8.8-8.8,10-9.5l14.3-8.9c-2.2-3.9-8.3,1.8-11.3,3.8-3.4,2.1-6,4.9-9,7.5-2.4,2-4.8,3.7-7.2,5.7l-5.9,4.7c-2,1.6-3.9,3.1-5.8,4.8l-9.4,8.5c-2.9,2.6-10.1,10.2-11.9,11.5-2.4,1.7-5.2,5.8-7.1,7-.1.2.1.9.1,1.1,0,.4-1.2.2-1.3.5-.8,1.7-2.2,2.8-3.4,4.1-1,1.1-1.4,2.6-2.7,3.5-1.3,1-1.4,3.1-2.4,4.2-1.9,2.2-1.9,5-2.9,7.4-.6,1.3-2.2,2.2-2.4,3.9-.1.8-1.1,2.4-1.5,3.2-1.7,3-2.3,5.9-2.9,9.1-.5,2.4,0,4.2.1,6.5v4.2c0,1.5,0,2.3-.4,3.7-1.3,4.5-1.2,9.1-1.6,13.7-.2,2.6-.7,5.1-.6,7.8l.2,20.3.4,5.4.4,5.8,3.1,23.8c.3,2.3.4,4.3,0,6.6-.5,4.2-.4,8.4-.7,12.6-.2,3.1.9,5.2,2.4,7.5l3,4.5c.8,1.3,2.3,2.7,2.6,3.9,1,3.2,3.1,5.5,5.2,8,.4.4,2.9,6.1,4.1,7.5,1.9,2.1,5.3,11.7,6.4,14.9,0,0,4.4,8,3.9,7.3l2,2.6c1.3,1.7,2.4,3.8,3.5,5.8l4,7.3c7.2,13.2,12.7,9.1,16.2,10,8.7,2.1,25.7,5.5,34.2,4.3,4.7-.7,9.1-1.9,13.8-1.9,8.1.1,13,1.1,20.9,1.2,2.9,0,5.7-.6,8.6.2,1.4-.8,2.2-2.2,3.6-2.7,1.1-.4,3.9.8,4,2.1.5,4.5.7,14,.6,18.8,0,1.3-.6,2.2-.4,3.7.2,1.9-.7,4.3-1.2,6.1l-1.2,4-3.1,6.7c-3,6.5-6.9,9.8-12.9,12.7-3.5,1.8-11.4,5.4-15,6-19.3,2.9-42.4.3-61.8-2.3-6.4-.9-12.4-.7-18.8,0-12.7,1.3-25,1.2-37.6-.5-2.4-.3-4.6-.7-6.9-.8h-4.3c-11.7-.4-18,4-32.1.4-4.8-1.2-9.8-2.6-14.8-2.3-1.5,0-2.6.6-4.3,0-.9-.3-3.1.1-4.1.3l-5.2,1c-3.8.7-7.4,2.2-11.4,2.2-11.7.3-16.8-5.3-37.6-3.7-2.3.2-5.5.4-6.9,2.3-1.7,2.4-1.3,5.8-.9,8.6.4,2.6,2.1,4.4,4,6,6.9,5.8,15.9,7.8,24.9,6.5,10.3-1.4,12.4,1.6,24,1.4,4,0,7.7,0,11.7-.3l7.9-.7c6.2-.5,22.4-5,29.2-4,5,.7,9.8,1.5,14.7,2.6,13.9,3.2,36.4,2.5,50.6.6,2.9-.4,5.8,0,8.8-.2,6.8-.5,13.9.4,20.4,2.5,4.6,1.5,8.9,2.2,13.7,2.8,5.7.8,11.1,3.1,17,3.2,4.5,0,9,.2,13.3-1,.9-.3,1.2-.4,2.3-.5h4.2c5.1-.3,10.3.6,15.4-.2,4.6-.8,9.4-.8,13.7-2.8.9-.4,1.3-.4,2.2-.6,3.6-.8,6.9-2.3,10.4-3.6,2.8-1,11-6.5,12.5-8.1,6-6.4,9.8-12.5,9.1-21.6-.7-10.2-6.4-11.5-8.6-17.3-1.8-4.9-1.8-9.5-.3-14.4,1.4-4.5,1.9-9.1,2.9-13.7.5-2.2,6.3-1.4,8.7-1.9,1.8-.4,3.5-.2,5.3-.5l11.6-1.7,23-3.7c5.8-.9,11.8-2.2,17.7-2.5.9,1.9.4,3.8.1,5.8l-2.7,19.9-.7,9.6c-.3,4.5-.2,8.9-.1,13.5,0,1.1.5,2-.2,3.1-.6.8,0,1.9,0,2.8-1.3,11.1.6,18.5,9.3,25.4,1,.8,1.6,1.6,2.7,2.2,6.1,3.2,12.4,5.2,19,7.2,5.8,1.8,15.1,2.7,21.3,2.1,8.4-.8,19.7.8,30,.1,4.8-.3,9.3-1.4,14.1-1.4,11.3-.1,23.3-3.9,33.5-3.6,6,.2,11.7.9,17.5,1.8,4.8.7,9.4,1,14.2,1.4l11.4.9,8.8,1c14.2,1.6,25.3-2.4,39.2-2.4,7,0,13.8,1.7,20.8,2.8,3.2.5,13.4,1.8,16,1.8,10,.1,19.7-1.2,29.5-3.2,1.6-.3,2.8-1,4.3-1.6,7.1-2.5,13.5-6.5,18.3-12.3,2.1-2.5,4-5.6,3.8-9.1-.2-3-10.5-4.7-13.3-5.2-5-1-12,2.9-20.2,1.8-7-.9-13.7.5-20.1,3.5-2,.9-3.4,2.3-5.3,3.6-2.5,1.7-7.4,2.7-10.2.7-4.3-2.9-8.2-4.3-13.4-4.4l-37.9-.3c-9.3,0-17.2-3.3-27.8-1.6l-38.1,6c-4.3.7-19.2.2-23.4-.5-6.5-1.2-12.9-2-19.5-1.2-8.9,1.1-20.9.9-29.5-1.9l-5.8-1.9c-2.2-.7-11.4-5.9-13.2-7.5-5.1-4.4-6.6-11.4-6.1-17.8l.8-9v-25.6c0-3.9-1.1-6.8,2.2-8.3,2.9-1.3,5.8.4,5.8.4,3.8.8,7.7.2,11.6.5l8,.5,5.4.4c2.2.2,4,.3,6,.3.7,0,1.8.5,2.9.6l23.5,2.1,7.1.4,8.2.3c9.2.4,16.4,0,24.7-4.5,1.2-.7,2.1-1.5,3.1-2.2,2.3-1.6,3.4-3.1,4.6-5.5,2.1-4.4,3.9-8.7,5.2-13.4.1-.4,5.7-12.3,5.9-12.6,2.5-4.3,4.6-8.5,6.3-13.2l2.8-7.8c1.1-3,1.9-5.8,3.2-8.7l6.1-13.5c1.8-3.9,2.7-7.9,4-12l2.9-9.1,3.2-9.2c2-5.7,3.3-12.2,4.6-15.7.5-1.4,2.2-7,2.2-8.1,0-1.5.9-2.6,1.3-4,2.1-8.2,1.9-16.5,2.4-24.9l.4-6.8v-4.8c-.3-8-.5-15.5-2.2-23.2-1.2-5.1-1.5-10.2-2.1-15.4-.2-1.6-1-3-1.1-4.6,0-2.3-.7-4.3-1.5-6.4l-4.2-11.7c-1-2.7-4.5-9.7-6-12.3-2.3-4-3.3-4.5-6.2-8.4-1.3-1.8-3.3-2.7-4.7-4.2-4.2-4.7-9.1-7.9-14.2-11.7-5.6-4.2-11.4-7.7-18.9-7.2-.7,0-1.6,0-2.3.8-1.4,1.5-1.6,4.2-.7,6,2.4,5,8.3,3,13.5,3.9.2-.3.7-.7.6-.3,0,.2-.4.5-.4.9,1.1,0,2.1,1,3.2,1.5,1.6.8,3.4,1,4.9,2.2,1.2,1,2.5,2.6,4,2.8,1.1.2.7.7,1.3,1.3,3.8,3.6,7.7,7.2,10.9,11.2-.7-.9,4,6.5,3.3,5.2,1.9,3.6,3.4,7.3,4.9,11.2,2,5.1,4.7,9.7,5.9,15,.5,2.3,1.2,4.6,1.3,6.9.3,4.7.7,10.8,1.8,15.2.7,2.7,2.2,12.4,2.2,14.7l.2,11.6c0,2.8-.4,5.3-.6,8.1l-1.3,19.6c0,1-.4,1.5-.6,2.5l-2,8.9c-.5,2-1.5,3.8-2,5.8-1,4.3-4.3,13.4-6.3,17.1-1.7,3.2-2.1,6.7-3.3,10.2-1.1,3.3-2,6.6-3,10-2.3,8.4-9,18.4-10.6,23.3l-1.5,4.4-3.8,11.2c-1.1,3.4-2.1,6.8-3.8,10l-4.4,8.1-7,9.8-2.8,5.1c-1,1.8-1.6,3.8-.8,5.8.4,1.2-.2,2.6-1.5,2.9l-8,1.4c-6.6,1.2-13.3.6-20,.3l-15.5-.6-10.7-.9-23.5-2.4-15.2-1.1c-2.1-.2-4-.5-6.2-.3-1.4.1-2.1-1.3-4.3.4-.4.3-.7-.8-1.1-.8-3.7,0-7.3-.2-11,.1-2.4.2-4.6.9-7.1.7-2.5-.3-4.9.6-7.3.7-1,0-1.9.6-2.7.8-1.6.2-3.1-.2-4.8.7-.9.5-2.3,0-3.3.1l-15.3,2.9-16,2.6c-2.5.4-5,.6-7.5.8-4.8.4-9.3,1-14.2,1.7-12,1.7-23.7,2.8-35.9,2.6-5.7-.1-11.1,0-16.7-1.1-1.9-.3-9.1-1.3-10.7-1.1l-13.7,1.9c-5.1.7-10,0-15-.9-1.7-.3-3.3-.2-5-.7-2.8-.8-5.7-.5-8.7-1-1.6-.2-3.2-.8-4.7-.9-2.8-.2-4.8-1.2-7.1-2.2.5-.2.9-.5.3-.5-5-5.3-4.2-6.6-7.4-11.8-5.3-8.8-6.8-11.2-10.4-20.9-1.6-4.2-2.8-8.2-5.6-11.9-2-2.7-3.2-5.7-4.9-8.5-1.7-2.8-7.2-11.5-8-13.7-2.7-6.8-3.1-13.9-3.8-21.1l-1.1-10.4-.3-4.5c-.2-2.5-.7-5-.8-7.4,0-1.8.4-3.6-.3-5.5-.9-2.8-.4-5.5-.3-8.3l.2-5.8c.1-3.5-.5-6.8-.5-10.2.1-11.5,1.3-16.3,1.7-26.3.3-7.7.4-15.3,3.3-22.6.9-2.3,1.6-4.7,2.8-6.8,1-1.8,1.7-3.5,2.8-5.3l3.9-6.7c.4-.7.9-1.6,1.6-1.5-3.2,4.6-5.7,9.7-8.3,14.9-3.9,7.9-5.1,16.3-5.2,25.1-.2,12.6-2.4,21.1-1.4,35.2.7,9.1-.3,15.1.7,25.1l2.2,23.5c1.7,18.4,3.1,17.5,12,32.8l5.4,9.3c5,8.6,5.1,14,9.4,21.4l9.3,16.4c1.2,2.1,2.9,5.2,5.3,6,4.6,1.5,9.3,2.2,14.1,2.8l18.2,2.3c6.8.8,13.7-3.4,27.5-1.3,12.3,1.9,29.6,1.7,41.9.2l30.9-3.8c9.8-1.2,19-2.5,28.6-4.7,23.6-5.2,44.6-4.7,68.6-2.4l21.1,2c6.5.6,38.4,3,42.8,2.3l15.9-2.3c-2.8-5,3.2-14.1,6-17.5,2.1-2.5,3.6-4.9,5.3-7.8,8.8-15.3,8.6-25.1,14.6-36.4l4-7.5c2.4-4.6,4.3-9.1,5.4-14.2,1.2-5.4,2.8-10.5,4.5-15.7.6-1.9,2-3.4,2-5.2,0,0,0-.3,0-.3.9-.5,1.2-1.8,1.7-3,3.3-9.3,6.2-18.5,7.9-28.2,1.1-6.2.7-12.1,1.3-18.3,2.7-27.3-3-30.2-3.4-48.4,0-5-3.5-13.6-5.6-18.4l-5.4-12.3c-4-9.1-16.4-21.1-25-25.2-9.8-4.7-10.5,0-17.1-4.6,0-.1,0-.3,0-.5-.9-1.6-.9-3.5-.9-5.3v-.8c.8-.8,1.3-1.9,2.2-2.7.2-.1.3-.3.5-.5.1,0,.3,0,.5,0,1.2.2,2.3-.1,3.5,0"/>
        <path class="st5" d="M722.9,73c-1-.1-1.4.7-1.8.9-3.1.9-5.8,1.9-8.4,3.1-6.3.6-11.9-2.4-14.5-8-2.1-4.3-8.7-9.9-9.5-18.7-.3-3.9,1.3-7.5,1.6-11.3.6-7.3,6-9.8,11.7-13.5,6.1-8.1,10.3-9.3,19.7-6.7l11.4,3.1c5,1.4,7.4,5.4,10.4,9.5l2.2,3.1c8.2,11.4-5,35.2-22.9,38.3"/>
        <path class="st2" d="M721.1,73.9c1.1,3,.9,6.2,1,9.4,0,.3,0,.6,0,.9,0,.5,0,.9,0,1.4,0,.3,0,.9-.1,1.2-.6.8-.4,1.8-.3,2.8,0,.2,0,.5,0,.8l-.9,6.8c0,.2-.1.6,0,.7-1.8,7.3-3.9,14.4-7.4,21.5-4.9,9.8-13.3,24.6-22.2,31-9.8,7.1-21.3,10-33,11.1-.4,0-.8,0-1.2,0h-8.1c-3.8,0-7.7-.6-11.5-.9-.3,0-.5,0-.8,0-9.9-1.4-19.9-2.5-30.2-2.9-8.2-.3-16.3.8-23.9,3.5-5.9,2.2-11.1,5.1-16.6,8.1l-26,14c-14.9,8-28.7,20-41.2,31.4-1.7,1.6-3.1,3.1-4.2,4.8-1.1.6-1.6,2.1-2.7,2.9-1.5,1.2-2.8,2.5-4.1,3.9-.8.8-2.4.1-3.3.3-1.8-.9-3.1-.4-3.1-3.1,3.9-13.4,26.3-26.6,37.9-34l21.5-13.6,8.5-5.8c5.2-3.5,10-7.1,15.3-10.4,8.4-5.3,23.6-8.9,33.6-10.8,5.7-1.1,11.1-1.1,16.9-.5l20.4,2.2c15.8,1.7,26.9,1.4,41.9-3.7,6.5-2.2,11.9-5.7,16.4-10.8,3.9-4.4,7.3-9.1,9.9-14.6,4.9-10.3,7.9-21.1,9.7-32.3.7-4.3,0-8.3-.2-12.3,2.6-1.2,5.3-2.3,8.4-3.1"/>
        <path class="st2" d="M244,57c0,.2-.5,1,0,1.2l7.3,4.6,10.7,6.7c5.6,3.5,11.1,7.3,15.7,12,11.2,11.5,11.6,28.4,5.9,41.7-1.1.9-1.5,2.3-1.8,3.6-.1.6-.9,1.5-.9,2.1-2.5,3.9-14.1,22.3-15.1,25.4l-.5,1.7c-.7,1.2-1.7,2.6-1.8,4-.1.2-.3.5-.4.8-1.4,1.6-2.3,3.9-2.7,6,0,.1,0,.2,0,.4-1.9,2.8-2.6,6.4-3.6,9.7,0,.3,0,.6,0,.9-.8.6-.4,1.9-.8,2.7-.7,1.5-.6,3.2-1,4.8-.4,1.6-1,3.2-.8,4.9,0,.4,0,.9,0,1.3-1.2,6.3.5,13.2,4.5,18.2,0,0,0,.3,0,.4.5,1.1,1.1,2.4,2.2,2.8.1.1.2.3.3.4.2,1.4,7.5,9.3,9,9.4.1.1.2.3.4.4.2.6.7,1,1.4,1l.4.4c.2.6.7,1,1.4,1,.1.1.3.1.4.3.7,1.3,2.1,2,3.5,2.2,2.1,3.9,2.4,9.1-1.7,11.2-1.3.7-5.4-1.9-5.6-1.9-3.2-1.3-5.3-3.6-7.8-5.6-.2-.1-.3-.4-.5-.5-.1,0-.3,0-.4,0-.2-.5-.8-.5-1.2-.5.3-.3.3-.6.1-.8-.2-.2-.6-.4-.9-.6-4.3-3.6-7.1-8.3-9.8-13.1-4-7.1-5.6-14.5-5.5-22.6.1-9.6,1.4-18.5,5.3-27.3,5.9-13.5,11.2-20.7,18-32.9l3.6-6.6c4.3-7.7,5.9-16.3,5-24.9-.8-7.2-4.7-12.2-10.3-16.5-9.9-7.6-20.2-14.6-31.3-19.8-.6-3.4,4.9-7.8,6.7-7.7,1,0,1.7.1,2.6-.7"/>
        <path class="st6" d="M260.6,230.5c.5,0,1,0,1.2.5h-14.2c-1.9,0-3.5.7-5.4.9-6.8.8-4.3,3.8-7.1,6.2l-5.7,5c-6.3,5.5-10.6,12.7-12.4,20.9-3.1,14-2.4,16.5-2.2,30.5,0,4.9,2.8,8.8,4.6,13.1,1.9,4.5,3.3,9.2,4.4,14.1.8,3.6-1.4,7.2-1.8,10.6-.3,2.6-.7,5-.8,7.5-.2,4.5-1.1,12.8-3.3,16.5-1.4,2.3-2.1,4.8-3.6,7-2.2,3.4-2.9,7-3.4,11-.2,1.3.1,2.4.1,3.7,0,10.5,3.3,21.1,9.6,29.4,1.1,1.4,1.5,3.3,2.8,4.4,1.1,1,1.5,2.4,2.6,3.1,1.6,1.1,3.4,1.8,4.2,3.4-4.9-1.6-9.5-8-12.2-12.6-6.2-10.4-8.7-21.4-7.6-33.5.9-9.9,9.1-14.2,9.5-28.8.2-6,1.2-11.8,2.6-17.6,2.2-8.8-8.4-23.9-8.6-30.9-.3-14.6-.8-18.6,2.5-32.9,1.2-5,3.8-9.4,6.8-13.6,2.7-3.6,6.2-6.7,9.6-9.7,1.4-1.3,2.6-2.1,3.2-4.1.6-1.8,2.3-2.9,4.1-3.2l5.7-.9c4.9-.8,9.8-.3,14.6,0"/>
        <path class="st6" d="M623.5,1.8c4.3.6,6.4,0,10.1,1.3.1,0,.4,0,.5,0,1,1.3,2.9,1.6,4.3,2.6,6.6,4.7,13.2,14.1,16.5,20.9v.4c0,.4.2.6.3.9.1.2,0,.6,0,.9v1.8c.1.6.2,1.1.1,1.7v1.8c-.2.3-.1.6,0,.8-3.3,9.8-8.8,18.6-17.5,24.7-.5.3-.2,1.2-.3,1.5-.1,0-.3,0-.4,0-.1-.2-.4-.5-.6-.4-.2,0-.6,0-.8.2-2.8,2.3-6,3.1-9.2,4.4-3.5,1.4-7.1,1.8-10.7,1.1l-.4-.4c.7-.5,1.5-.4,2.5-.3,4.6.3,9.1-.8,13.1-3.1,3-1.7,6.1-3,8.7-5.6,8.9-8.9,7.9-8.3,13.5-19,.9-1.6,1.1-4.2,1.2-6.2.3-5.3-3.8-12.1-7.3-15.7-1.3-1.4-.6-2.4-6.1-6.8-3.2-2.5-6.2-5.5-10.5-5.8l-9-.8c-2.4-.2-4.7-.3-6.7,1.1-.4-1-10.8,3.4-10,3.2-5.6,1.4-9.5,4.6-12.5,9.6-2.2,3.6-3.2,7.8-3.9,12.2-1.6,10.7,4.3,24.7,13.3,30.4.5.3,7.9,3.5,7.4,4.7h-1c-.5-1-1.7-.9-2.5-1.2-7-3.3-12.5-8.5-15.2-16-1.4-3.9-3.3-7.7-3.3-12.1,0-7.9,1.9-17,7.2-22.9,3.6-4,15.1-7.8,20.4-9.3,2.9-.8,5.7-.8,8.5-.5"/>
        <path class="st1" d="M523.2,724c0,.3.2.6.3.8-1.1.2-1.5,1.9-3.1,1.4.3-1.4,2-1.4,2.7-2.2"/>
        <path class="st1" d="M520.1,726.5c0,.1,0,.2-.2.2s-.2,0-.2-.2,0-.2.2-.2.2,0,.2.2"/>
        <path class="st1" d="M312,612.7c-.2.1-.7,0-1,0,0-.2,0-.5,0-.6.1-.3.4-.4.6-.2.3.2.5.6.3.8"/>
        <path class="st1" d="M404.3,84.3c3,19.9-5.2,39.6-15.9,56.3-3.4,5.3-7.1,9.9-11.3,14.5-2.6,2.9-5.8,5-8.8,7.6l-3.8,3.3-4.3,4.1c-4.4,4.2-8,8.7-11.7,13.5-8.2,10.8-13.3,17.9-16.4,31.4-.7,3.1-.8,6.1-2,8.9l-7.2,10.9c-4,6.1-5.4,22.5-5.2,30,.2,6.6.4,12.9,1.2,19.3l2,17c1.8,15.1,2.6,34.2-2.5,48.6-1.6,4.5-4.2,8.4-4.8,13.4-.8,7.3-1.2,14.7-.5,22.1.6,6.4,3.6,11.8,5.5,17.6-2.8,5.2-3.5,12.2-8,17.2-5.6,6.3-9.9,8.7-18.6,8.6-4,0-7.3-.5-10.6-3-6.4-4.9-9.3-11.6-7.8-19.7.2-1-.2-1.3-.4-2-.4-1.9.8-3.7,1.4-5.7,1.9-6.4,3.3-12.8,4-19.5,1.2-11.9-4.4-17.6-5.3-34.2l-.3-6.2c-.1-2.5.2-5,.3-7.6.3-6.6,2-12.6,2.9-19.1,1.4-10.1,3.3-19.7,5.4-29.7,1.5-6.9,1.7-13.6.7-20.5-.8-5.9-1.9-11.6-4.7-16.8-.9-1.6-2.2-3-2.9-4.8.5-.4.8-.7,1.2-.9,4-2.1,3.8-7.3,1.7-11.2,1.2-2,3.2-3,5.4-4,8.9-4.5,20-4.9,28.9,0l7.5,4.2c1.7-6.2,3.3-12.1,5.5-18,2-5.5,6.9-11.3,8.4-14.2.8-1.5,1.5-2.8,2.5-4.2l6-8.2c4.1-5.5,8.6-10.5,13.2-15.5,1.3-1.4,2.2-2.7,3.9-3.9,7.6-5.3,19.5-17.7,24.5-25.5,9.8-15.4,15.5-36.2,13.1-54.1,2.4.1,4.8-.4,7.6-.1"/>
        <path class="st6" d="M262.7,231.5c-.2-.1-.3-.3-.5-.5.2.1.3.4.5.5"/>
        <path class="st6" d="M497.9,90.9c1,6.4-3.4,18.1-6.5,24-2.7,5.1-6.6,9-10.6,12.9-6.7,6.5-15.7,9.2-23,14.4l-37.5,26.7c-8.7,6.2-16.8,12.6-24.8,19.6-7,6.2-19.1,20.3-20.4,29.2-.1.8-1.2,1.6-1.9,2.1-2.9,2.1-5,4.7-6.9,8.1,7.2,13.3,4.7,19.4.4,32.5-9.2,27.6,4.8,30.7-3.6,59.8-1.4,4.7-2.1,9.4-3.2,14.2-2,9.7-.2,19.3,4.8,27.7,4.7,7.9,7.2,16.4,7.3,25.6-1.5,5.1-3,9.9-5.8,14.1-1.5,2.3-4.1,3.8-6.4,5.6-8.4,6.6-18.8,9.8-29.3,6.6-5.5-1.6-8.8-7.4-11.8-11.2-1.9-5.8-4.9-11.2-5.5-17.6-.7-7.4-.3-14.8.5-22.1.6-5,3.2-8.9,4.8-13.4,5.1-14.4,4.3-33.5,2.5-48.6l-2-17c-.8-6.5-1-12.8-1.2-19.3-.2-7.4,1.1-23.9,5.2-29.9l7.2-10.9c1.3-1.9,4.9-3.9,7-4.4,5.4-1.5,10.7-.7,16.1-.2,7,.6,6.3,2.4,10.5,6.2,1.2-7.5,4-14.1,8.9-19.8l5.9-7c6.7-8,14.5-14.6,22.2-21.6l8.4-7.7c11.2-10.2,19.2-18.2,32.9-25.2,10.6-5.4,20.4-11.9,29.3-19.8,3.1-2.8,5.7-5.3,8.2-8.7,5.4-7.3,9.1-15.7,9.9-24.7,2.7.3,5.8-.1,8.5,0"/>
        <path class="st3" d="M213.1,441.5c-.1.1-.3.2-.5.4-.6,0-1.3.2-1.9.8l-5.3,5.7-7.1,7.1c-4.1,4.1-7.6,6.6-11.7,11.9-1,1.2-2.5,2-3,3.6-1.1,0-7.9,7.9-7.8,8.5-.2.1-.4.4-.5.6-.5-.6-4.6,4.6-3.9,4.8-.1.2-.3.3-.4.5-.7-.1-1.2.8-1.6,1.5l-3.9,6.7c-1,1.8-1.8,3.5-2.8,5.3-1.2,2.1-1.9,4.5-2.8,6.8-2.9,7.3-3,14.9-3.3,22.6-.3,10-1.6,14.8-1.7,26.3,0,3.5.6,6.7.5,10.2l-.2,5.8c-.1,2.8-.6,5.5.3,8.3.6,1.9.2,3.6.3,5.5,0,2.5.6,4.9.8,7.4l.3,4.5,1.1,10.4c.7,7.2,1.1,14.3,3.8,21.1.9,2.1,6.4,10.9,8,13.7,1.7,2.8,2.9,5.9,4.9,8.5,2.8,3.6,4,7.7,5.6,11.9,3.6,9.7,5.1,12.1,10.4,20.9,3.1,5.1,2.4,6.5,7.4,11.8.6,0,.2.3-.3.5,2.3,1,4.4,2,7.1,2.2,1.5.1,3.1.7,4.7.9,2.9.4,5.9.2,8.7,1,1.7.5,3.3.4,5,.7,5,.9,9.9,1.6,15,.9l13.7-1.9c1.7-.2,8.8.7,10.7,1.1,5.6,1,11,1,16.7,1.1,12.2.2,23.9-.9,35.9-2.6,4.9-.7,9.4-1.3,14.2-1.7,2.5-.2,4.9-.4,7.5-.8l16-2.6,15.3-2.9c1-.2,2.4.4,3.3-.1,1.7-.9,3.2-.5,4.8-.7.8-.1,1.6-.7,2.7-.8,2.4,0,4.8-.9,7.3-.7,2.5.3,4.7-.5,7.1-.7,3.7-.4,7.3,0,11-.1.4,0,.7,1,1.1.8,2.3-1.7,3-.3,4.3-.4,2.1-.2,4.1.2,6.2.3l15.2,1.1,23.5,2.4,10.7.9,15.5.6c6.8.2,13.4.8,20-.3l8-1.4c1.3-.2,1.9-1.7,1.5-2.9-.8-2-.2-4,.8-5.8l2.8-5.1,7-9.8,4.4-8.1c1.7-3.2,2.7-6.6,3.8-10l3.8-11.2,1.5-4.4c1.6-4.8,8.3-14.9,10.6-23.3.9-3.4,1.8-6.7,3-10,1.2-3.4,1.6-7,3.3-10.2,2-3.7,5.3-12.9,6.3-17.1.5-2,1.5-3.8,2-5.8l2-8.9c.2-1,.5-1.5.6-2.5l1.3-19.6c.2-2.8.7-5.3.6-8.1l-.2-11.6c0-2.3-1.5-12-2.2-14.7-1.1-4.4-1.5-10.5-1.8-15.2-.2-2.3-.8-4.6-1.3-6.9-1.2-5.3-3.9-9.9-5.9-15-1.5-3.9-3-7.6-4.9-11.2.7,1.3-4-6.1-3.3-5.2-3.2-4-7.1-7.6-10.9-11.2-.6-.6-.2-1.1-1.3-1.3-1.5-.2-2.8-1.8-4-2.8-1.5-1.2-3.2-1.4-4.9-2.2-1.1-.5-2-1.4-3.2-1.5,0-.4.4-.7.4-.9,0-.4-.4,0-.6.3-5.2-.9-11,1.1-13.5-3.9-.9-1.8-.6-4.4.7-6,.6-.7,1.6-.8,2.3-.8,7.4-.5,13.3,3,18.9,7.2,5,3.8,10,7,14.2,11.7,1.4,1.5,3.4,2.4,4.7,4.2,2.9,3.8,3.9,4.3,6.2,8.4,1.5,2.6,5,9.6,6,12.3l4.2,11.7c.8,2.1,1.4,4.1,1.5,6.4,0,1.6.9,3.1,1.1,4.6.6,5.2.9,10.2,2.1,15.4,1.7,7.7,1.9,15.2,2.1,23.2v4.8c.1,0-.3,6.8-.3,6.8-.5,8.4-.2,16.7-2.4,24.9-.3,1.3-1.3,2.5-1.3,4,0,1.1-1.7,6.7-2.2,8.1-1.3,3.5-2.7,10-4.6,15.7l-3.2,9.2-2.9,9.1c-1.3,4.1-2.3,8.1-4,12l-6.1,13.5c-1.3,2.9-2.1,5.8-3.2,8.7l-2.8,7.8c-1.7,4.7-3.8,8.9-6.3,13.2-.2.3-5.8,12.2-5.9,12.6-1.3,4.8-3.1,9-5.2,13.4-1.2,2.4-2.3,3.9-4.6,5.5-1,.7-1.9,1.5-3.1,2.2-8.3,4.5-15.5,4.9-24.7,4.5l-8.2-.3-7.1-.4-23.5-2.1c-1,0-2.2-.6-2.9-.6-2,0-3.9-.1-6-.3l-5.4-.4-8-.5c-3.9-.2-7.9.3-11.6-.5,0,0-2.9-1.7-5.8-.4-3.3,1.4-2.2,4.3-2.2,8.3v25.6l-.8,9c-.5,6.4,1,13.3,6.1,17.8,1.9,1.6,11,6.8,13.2,7.5l5.8,1.9c8.7,2.8,20.6,3,29.5,1.9,6.7-.8,13,0,19.5,1.2,4.3.8,19.2,1.2,23.4.5l38.1-6c10.6-1.7,18.5,1.5,27.8,1.6l37.9.3c5.2,0,9.1,1.4,13.4,4.4,2.8,1.9,7.6,1,10.2-.7,2-1.3,3.4-2.7,5.3-3.6,6.4-3,13.1-4.4,20.1-3.5,8.2,1,15.2-2.8,20.2-1.8,2.8.6,13.1,2.2,13.3,5.2.2,3.5-1.7,6.5-3.8,9.1-4.9,5.8-11.2,9.8-18.3,12.3-1.5.5-2.7,1.2-4.3,1.6-9.7,2-19.5,3.3-29.5,3.2-2.6,0-12.8-1.4-16-1.8-7-1-13.7-2.8-20.8-2.8-13.9,0-25,3.9-39.2,2.4l-8.8-1-11.4-.9c-4.8-.4-9.4-.6-14.2-1.4-5.8-.9-11.5-1.6-17.5-1.8-10.2-.3-22.1,3.5-33.5,3.6-4.8,0-9.3,1.1-14.1,1.4-10.2.7-21.5-.9-30-.1-6.1.6-15.5-.3-21.3-2.1-6.6-2-12.9-4-19-7.2-1.1-.6-1.8-1.5-2.7-2.2-8.6-7-10.6-14.3-9.3-25.4.1-.9-.5-2,0-2.8.7-1.1.2-2,.2-3.1,0-4.6-.2-9,.1-13.5l.7-9.6,2.7-19.9c.3-2,.8-3.9-.1-5.8-6,.3-11.9,1.6-17.7,2.5l-23,3.7-11.6,1.7c-1.8.3-3.5,0-5.3.5-2.3.5-8.2-.3-8.7,1.9-1,4.6-1.4,9.2-2.9,13.7-1.6,4.9-1.6,9.5.3,14.4,2.2,5.9,7.9,7.2,8.6,17.3.6,9.1-3.1,15.3-9.1,21.6-1.5,1.5-9.7,7-12.5,8.1-3.4,1.3-6.8,2.8-10.4,3.6-.9.2-1.3.2-2.2.6-4.3,2-9,2.1-13.7,2.8-5.1.8-10.2-.1-15.4,0h-4.1c-1.1.2-1.4.4-2.3.6-4.3,1.2-8.8,1.1-13.3,1-5.9,0-11.3-2.4-17-3.2-4.8-.7-9.1-1.3-13.7-2.8-6.6-2.2-13.6-3-20.4-2.5-3,.2-5.9-.2-8.8.2-14.2,2-36.6,2.6-50.6-.6-4.9-1.1-9.7-1.9-14.7-2.6-6.8-1-23.1,3.4-29.2,4l-7.9.7c-3.9.3-7.7.2-11.7.3-11.6.2-13.7-2.8-24-1.4-9,1.2-18-.7-24.9-6.5-1.9-1.6-3.6-3.4-4-6-.4-2.8-.9-6.2.9-8.6,1.4-1.9,4.6-2.2,6.9-2.3,20.8-1.7,25.9,4,37.6,3.7,4,0,7.5-1.5,11.4-2.2l5.2-1c1.1-.2,3.2-.7,4.1-.3,1.7.7,2.8.2,4.3,0,4.9-.3,9.9,1.1,14.8,2.3,14.1,3.7,20.4-.7,32.1-.5h4.3c2.3.1,4.5.5,6.9.9,12.6,1.7,24.9,1.8,37.6.5,6.4-.7,12.3-.8,18.8,0,19.4,2.6,42.4,5.1,61.8,2.3,3.6-.5,11.5-4.2,15-6,5.9-2.9,9.9-6.1,12.9-12.7l3.1-6.7,1.2-4c.5-1.8,1.4-4.2,1.2-6.1-.2-1.5.4-2.4.4-3.7.1-4.8,0-14.3-.6-18.8-.2-1.3-2.9-2.5-4-2.1-1.5.5-2.3,2-3.6,2.7-2.9-.8-5.8-.2-8.6-.2-7.9-.1-12.8-1.1-20.9-1.2-4.7,0-9.1,1.2-13.8,1.9-8.5,1.2-25.5-2.2-34.2-4.3-3.6-.8-9.1,3.3-16.2-10l-4-7.3c-1.1-2-2.2-4.1-3.5-5.8l-2-2.6c.6.7-3.9-7.3-3.9-7.3-1.1-3.2-4.5-12.8-6.4-14.9-1.2-1.4-3.7-7.1-4.1-7.5-2.1-2.5-4.2-4.8-5.2-8-.4-1.2-1.8-2.6-2.6-3.9l-3-4.5c-1.5-2.3-2.6-4.4-2.4-7.5.3-4.2.2-8.4.7-12.6.3-2.2.2-4.3,0-6.6l-3.1-23.8-.4-5.8-.4-5.4-.2-20.3c0-2.7.5-5.1.6-7.8.3-4.6.3-9.2,1.6-13.7.4-1.3.5-2.1.4-3.7v-4.2c0-2.3-.7-4.1-.2-6.5.7-3.2,1.3-6.1,2.9-9.1.4-.8,1.4-2.4,1.5-3.2.2-1.7,1.8-2.6,2.4-3.9,1.1-2.4,1.1-5.1,2.9-7.4.9-1.1,1.1-3.3,2.4-4.2,1.3-1,1.6-2.4,2.7-3.5,1.2-1.3,2.6-2.4,3.4-4.1.1-.3,1.3-.1,1.3-.5,0-.2-.3-.9-.1-1.1,1.9-1.1,4.7-5.2,7.1-7,1.8-1.3,9-8.9,11.9-11.5l9.4-8.5c1.9-1.7,3.8-3.2,5.8-4.8l5.9-4.7c2.4-1.9,4.9-3.7,7.2-5.7,3-2.5,5.6-5.4,9-7.5,3.1-1.9,9.1-7.6,11.3-3.8l-14.3,8.9c-1.2.7-10,7.7-10,9.5"/>
        <path class="st1" d="M508.1,417.4c-.1,0-.3,0-.5,0-.2.2-.3.3-.5.5-.9.8-1.4,1.9-2.2,2.7-.2-.1-.5-.3-.7-.3.5,0-4.3,4.2-5.7,4.7-1.6.6-3,1.4-4.7,1.7-6.9,1.2-14.2-.2-19.6-4.6-3-2.4-4.3-5.7-4.8-9.1-.3-2.1.2-4.4.4-6.5,0-.6.2-1.3,0-1.9-.3-1.9,5.4-8.5,1.1-21-.9-2.5-1.3-4.8-2.7-7.1-2.2-3.5-3.9-7.3-5.1-11.2-.6-1.9-.6-3.9-.4-6,2.2-22.3,1-22.6-4.5-43-3.6-13.4-5.4-28.3,1.3-40.9l6.5-12.1c5.7-10.6,11.8-7.9,15.6-17.7,1.2-3.1-1.1-14-2.1-17.3.8-1.7,2.8-1.4,4.5-1.7.9-.2,2.5.5,3.3-.3,1.4-1.4,2.6-2.7,4.1-3.9,1.1-.9,1.6-2.3,2.7-2.9,1.1-.7,11.1-3.6,12.6-3.8,5.3-.6,3.9-1.4,10.7,1.4,4.4,1.8,10.7,8.6,12.1,12.3l2,5.2c2.2,5.7,2.8,14.6,0,19.6-1.5,2.5-8,8-9.4,12.6-1.2,4.1-2.9,7.7-5.8,11-2.6,3-4.6,6.2-6.8,9.5-2.8,4.3-2.5,5.1-4.4,10.8l-2,6.4c-1.7,5.2-2.2,10.9-1.9,16.4l.4,6.7c0,1.4-.2,2.2.2,3.6l1.1,4.1c.6,2.4.7,4.9,1.2,7.4l1.7,9c1.1,5.9,3.6,8.2,6.6,14.1l1.5,3,3.8,6.7c2.9,5.1,3.1,14.7.5,20.4-1,2.1-2.2,4-3.3,6-2.7,5.2-4.7,10.5-7,15.7"/>
        <path class="st6" d="M404.3,84.3c-2.8-.3-5.2.2-7.6.1-2.8-.1-5.2-.9-7.5-2.3-6.2-3.8-11.5-8.5-16.6-13.6-3.5-3.5-6.7-7.1-8.1-11.9-1.5-5-1.6-10.6.2-15.5,3.3-9.3,12-14.7,18.6-22.3,10.1-11.7,14.3-6.5,18.2-8.5,7.9-4.1,16.4-4.3,24.8-1.7,3.6,1.1,6.1,2.6,8.9,5.1,3,2.6,5.5,5.1,7.4,8.7,1.5,2.9,2.6,5.6,3.2,8.9,1.5,8.2,4.1,18.8-2.6,26.1-7.5,8.3-12,8.7-19.3,15.3-2.8,2.6-6.1,4-9.2,6-3.4,2.2-6.6,4.2-10.2,5.7"/>
        <path class="st1" d="M609.3,63.8c1.8,0,4,2.1,6.3,2.2l.4.4c-.9,4.9-3.4,12.4-5.4,17.2l-2.3,5.7-6.2,13.3-3.5,7.7c-4.9,10.7-6.3,12.1-14.4,19.9-3.5,3.4-7.8,5.7-12.1,7.9l-13.8,7-13.6,6.4-20.9,9.6-14.5,7.3c-4.4,2.2-8.9,3.8-13.1,6.4-2.6,1.6-5.3,2.8-7.9,4.5l-6.5,4.2c-4.1,2.6-13.9,10.1-17.2,12-1.2.7-2,1.9-3,2.8l-3.1,2.7c-2.4,2.1-4.7,4.1-6.8,6.5l-6.1,7.3c-.7.8-1.6,1.4-1.5,2.4-1.4,0-1.9,1.2-3,2-5,3.6-13.1,13.7-16.2,19.4l-6,11.2-10.2,23c-6.8,15.3-5.8,25.8-5.4,42.1.2,9.4,4.4,14.4,4.9,22.2.5,6.4.3,12.5-1.4,18.7-1.5,5.2-2.4,10.4-4.2,15.4-3.5,9.8-5.8,24.5-3.9,34.9.8,4.2,1.5,8.5,2.8,12.4-1,.2-.5,1.6-1,2.2-4.3,5.5-11,3.9-17,2-9.8-3.1-17.8-10-17.5-20.7,2.7-4.2,4.3-9.1,5.8-14.1,0-9.2-2.6-17.7-7.3-25.6-5-8.4-6.8-18-4.8-27.7,1-4.8,1.8-9.5,3.2-14.2,8.4-29.1-5.6-32.1,3.6-59.8,4.4-13.1,6.9-19.3-.4-32.5,1.9-3.4,3.9-5.9,6.9-8.1.7-.5,1.8-1.4,1.9-2.1,9-4.5,18.8-7.3,29.2-7,7.9.2,9.8,5.5,11.6,6.2,3.7,1.6,7,3.1,10,5.9.5.5,2,1.1,2.5.3,3.3-4.8,6.5-9.6,10.4-14,9.3-10.3,31.5-29,43.5-35.5l6.7-3.6c8-4.3,15.5-8.7,23.7-12.7,8.7-4.2,16.8-8.6,25.8-12.3,10.3-4.3,20.5-8.2,30.3-13.6,4.1-2.2,7.4-4.8,10.8-7.9,12.4-11.2,11.3-24.6,18.6-39.4l8.4-17.3c.6-1.2,1.7-1.9,1.8-3.2h1s0,0,0,0Z"/>
        <path class="st6" d="M479.6,228.4c1,3.3,3.3,14.2,2.1,17.3-3.8,9.8-9.9,7.1-15.6,17.7l-6.5,12.1c-6.8,12.6-4.9,27.5-1.3,40.9,5.5,20.4,6.7,20.7,4.5,43-.2,2.1-.2,4.1.4,6,1.3,3.9,3,7.7,5.1,11.2,1.4,2.3,1.9,4.6,2.7,7.1,4.3,12.5-1.4,19.2-1.1,21-.6.1-.5,1.1-.9,1.4-1.7,1.5-2.4,4.1-4,5.7-3,3.1-5.8,6.5-9.3,9.3-4.9,3.9-10.4,6.3-16.1,8.7-9.8,4-24.4,5.4-32.1-3-2.1-2.3-4.9-5.3-5.8-8.2-1.2-3.9-2-8.1-2.8-12.4-1.9-10.4.4-25.1,3.9-34.9,1.8-5,2.7-10.2,4.2-15.4,1.8-6.2,1.9-12.3,1.4-18.7-.6-7.8-4.7-12.8-4.9-22.2-.4-16.3-1.4-26.9,5.4-42.1l10.2-23,6-11.2c3.1-5.7,11.2-15.8,16.2-19.4,1.1-.8,1.6-2,3-2,2.4,0,14.7-9.8,26.4,1.2,2.7,2.6,5.4,5,7.3,8.3.5.8,1,1.5,1.8,1.6"/>
        <path class="st3" d="M615.6,66c-2.3-.2-4.5-2.2-6.3-2.2.5-1.2-6.9-4.4-7.4-4.7-9-5.7-14.9-19.7-13.3-30.4.7-4.3,1.7-8.5,3.9-12.2,3-4.9,6.8-8.1,12.5-9.6-.8.2,9.5-4.2,10-3.2,2-1.3,4.2-1.3,6.7-1.1l9,.8c4.3.4,7.3,3.3,10.5,5.8,5.5,4.3,4.8,5.4,6.1,6.8,3.5,3.6,7.6,10.5,7.3,15.7-.1,2-.3,4.6-1.2,6.2-5.6,10.6-4.6,10.1-13.5,19-2.6,2.6-5.7,3.8-8.7,5.6-4,2.3-8.4,3.5-13.1,3.1-.9,0-1.8-.2-2.5.3"/>
        <path class="st1" d="M325.8,577.5c-.8.4-1.7.9-2,1.8-.4-.2-.8-.3-1.2-.3,3.6-4.7,8-8.7,11.5-13.8,3.6-5.3,6.6-10.5,8.8-16.6,3.1-8.4,4.7-16.9,5.6-25.7.6-5.4,2.5-18.9,2.4-23.8-.4-13.1-4.6-25.6-11.7-36.5-5.9-9.1-13.9-15.3-23.4-20.3-20.9-11.1-39.6-14.3-62.8-8.7-9,2.2-17,6.2-23.9,12.1-16.6,14.1-29.1,30.4-37.1,50.9-2.3,5.9-3.9,11.7-4.5,18.1l-1.8,19.5c-.9,9.9.3,19.1,3.7,28.4,3.1,8.4,8.2,15.7,14.5,22.1,1.4,1.5,2.4,3.2,4,4.1,5,7,11.9,13,19.8,17,6,3,12.5,3.6,19.2,3.5,17.6-.4,34.3-5.5,49.8-13.6,5.3-2.8,10.3-5.1,15.2-8.4.5-.3,1.1-.1,1.4-.2-.2.6-.7,1.1-.8,1.7-1,0-2,.3-2.9,1-2.2,2-8.8,4.7-10.2,5.8-1.1.8-1.9,1.3-3.1,1.9l-7.6,3.4c-4.7,2.1-16.4,6-21.4,6.9-9.2,1.6-17.9,3.9-27.4,2.4-1.3-.2-2.5.4-3.6,0-6.1-1.9-12-4.2-17-8.2l-4.3-3.4c-5.7-4.5-11-12.5-15.2-16.6-4.3-4.3-7.1-9.3-9.8-14.6-4.3-8.7-6-18.5-5.6-28.2.1-2.3,0-4.5.3-6.8l.8-6.6c1-7.9.6-16,3.3-23.5l3.2-8.8c.4-1,.9-1.9.6-2.8,1.1-.9,2-2.5,2.2-4,.1-1.2,1.3-1.5,1.6-2.4l1.9-4.4c.6-1.3,2.5-2.3,2.5-3.8,0-.2.4-.6.5-.8,1.8-1.1,2.8-3.5,3.4-5.4.2-.3.7-.9,1-1.1,1.1-.7,2.1-2.3,2.5-3.5.3-.6,1.4-1.1,1.5-1.8.9-.2,1.4-1,1.8-1.8.3-.6.6-1.1.8-1.7,1.4-.5,2.6-1.7,2.8-3.2,1.1-.5,1.5-1.6,2.6-2.2.3-.1,8-7.3,7.1-6.7,3.4-2.5,6.5-5.5,10.2-8,1.5-1,3.3-1.7,4.9-2.6,6.2-3.5,13.2-4.7,20.3-6,13-2.2,30.4-1.4,42.4,4l10.1,4.6c4.2,1.9,8.1,4,12,6.6,2.4,1.6,9.7,7.7,11.3,9.9l3.1,4.4c4.2,5.8,9.6,17.3,11,24.2l.8,4c1.4,7,.6,13.5,0,20.5-.3,3.4,0,6.5-.9,9.9-.5,1.8-.3,7.9-1.2,12l-.7,3-1.7,6.7c-.8,3.1-1.9,6-2.9,9-1.4,4.1-3,7.8-5.5,11.4-1.8,2.5-3.2,5.3-5.1,7.7-1.3,1.6-2.8,2.9-3.9,4.6-1,1.5-2.3,2.8-3.4,4"/>
        <path class="st1" d="M506,570.5c-1,0-1.3,1.2-1.9,1.8-.7.4-1.6.7-2.2,1.3-.5.5-1,.8-1.3,1.4h-.4c-.3,0-.8-.2-.9.2,0,.2,0,.4,0,.6l-9.6,6.3c-2.8,1.8-5.7,3.1-8.1,5.2-.4,0-.7,0-.9.4-.1,0-.3,0-.4,0-1.3.4-2.9,1-3.7,2.1-.5,0-1,0-1.2.5-.6-.3-1,.3-1.3.5l-3,1c-.2,0-.6,0-.6.4-1.4,0-2.6.8-4,1-1.1.1-2.3.6-3,1.2-1.9-.3-4,.7-5.9.9l-8.4.9c-.7,0-1.4,0-2.1,0-9.8.9-19.6,0-29.4-1-1,0-2.3-.5-3.5-.4-1.7.1-3-.5-4.5-.8-3.5-.7-6.7-1.6-9.8-3.1-1.7-.9-3.6-2.1-5.7-1.8-.9-.2-1.7-1-2.3-1.8,13.8,4.2,14.3,6,29.7,7.3l11.4,1c2.1.2,3.9,0,6,0,8.1-.3,16-.4,23.9-2.4,13.3-3.4,27.3-11.9,38-20.5,7.4-6,13.7-12.7,18.5-21,5.4-9.4,9.3-19.4,10-30.3,1.2-18.3-2-32.2-9.4-48.6-6-13.3-15.6-24.4-27.9-32.4-5.8-3.8-12.3-4.8-19.1-5.3-3.3-.2-6.6-.5-10-.2-8.2.8-15.7,3.4-23.2,6.4-12.2,4.8-25.5,14.1-35.2,22.9l-5.4,4.9c-6.4,5.9-12,12.8-15.2,21.2-4.8,12.5-7.6,25.6-8.2,39l-1,22.7c-.5,10.3-.3,20.5,6.2,29.3.3,4.6,3.2,8.7,6.5,12,.8.8,1.7,1.3,1.8,2.3-2.6-.8-4.2-3.5-5.9-5.8-2.1-2.7-3.4-5.6-4.4-8.9-.3-.8-.6-1.6-1.3-1.9-.5-2.4-2.9-5.3-3.2-8.5l-1-8.4c-.5-3.9,0-7.9.1-11.8l.4-11.7.4-5.4.5-11.6,1.2-6.7c.7-3.6,1.9-7,1.3-10.7,1.9-.5,1.5-2.1,1.8-3.4l2.4-8.3c1.6-5.8,7.8-15.7,11.8-20.1.8-.9,1.8-1.5,2.6-2.3l5.7-5.4c1.3-1.2,2.9-2.3,4-3.6,2-2.6,8-6.5,11-8.5l9.6-6.4c5.5-3.6,25.1-11.5,31-11.9,2.6-.2,5.1-.9,7.6-.8l10,.4c4.9.2,10.1.7,14.6,3.3,5.2,3,10,6.6,14.5,10.5,4.6,4.1,8,8.7,11.4,13.5,3,4.1,5.1,8.4,6.9,13.1l2.7,6.8c1,2.5,2.2,4.8,2.4,7.6.2,2.3,1.3,4.5,1.6,6.8,1.7,10.3,2.2,16.9,1.4,27.4-.5,6.5-4,18.4-6.9,24.1-3.2,6.4-7.2,12.1-11.9,17.3-1.9,2.1-3.9,3.9-5.4,6.1"/>
        <path class="st1" d="M469.8,406.5c-.2,2.1-.7,4.4-.4,6.5-.4,0-.2.7-.7.9,0-1.1-.3-2.8-1.4-2.9-.8,0-1.5.9-2.2.7,1.6-1.6,2.3-4.1,4-5.7,0,.4.4.5.8.4"/>
        <path class="st6" d="M212.6,441.9c-5.9,6.6-12.6,12.3-18.9,18.8l-11.1,11.6c-2.4,2.5-4.3,5.2-6.9,7.2,0-.7,6.7-8.5,7.8-8.5.5-1.6,2.1-2.3,3-3.6,4.1-5.2,7.5-7.7,11.7-11.9l7.1-7.1,5.3-5.7c.5-.6,1.2-.9,1.9-.8"/>
        <path class="st6" d="M175.3,480.1c-1,1.8-2.8,3.1-3.9,4.8-.7-.3,3.5-5.4,3.9-4.8"/>
        <path class="st2" d="M323.8,579.3c0,.1,0,.3,0,.5v.5c.1,6.4-1.1,12.5-4.6,18.1-3.4,5.4-7.3,10.2-11.4,15.1l-18.8,22.5c-6.3,7.5-12.6,15.3-10.6,25.7,1,5.4,4.8,9,9.8,10.9,12,4.6,32.4,3.3,44.7-.7,8-2.6,14.3-7.8,20.2-13.5,3.6-3.5,8.6-4.8,13.4-6.1,6-1.6,11.9-2.4,18-1.3,13.3,2.2,15,9.9,37.1,12.2,3.7.4,7.4.6,10.8-.8,10-4.2,13.4-16.8,13.9-26.7.9-16.4-11.2-20.6-24.6-24.8l-14.8-4.7c-5.4-2.2-10.5-5-15.3-8.7-.8-.6-1.2-1.5-2.2-1.5,0-.1-.3-.2-.3-.3-.1-1-1-1.5-1.8-2.3-3.4-3.3-6.2-7.4-6.5-12,1.3.9,2.7,2.2,4.5,3,0,0,.2,0,.5.1,1.5,1.6,4,1.8,6.1,3,.5.8,1.4,1.6,2.3,1.8,3.2,5.6,14.1,10.5,20.4,11.9,2.8.6,5.4,1.6,8.2,2.4,8,2.3,15.6,5.2,22.3,10.2,4.5,3.3,6.9,8.7,8,14.2,1.5,7.2.2,14.3-1.7,21.3-3,11.1-11.8,21.2-24,21.5-4.4,0-8.3,0-12.5-.9-26.1-5.4-27.1-21-57.1-6-6.9,6.9-20,15.7-29.7,17.5-14,2.8-38.1,3.8-49.9-5.3-10.1-7.8-10.8-19.3-5-29.9,5.6-10.3,15.8-23,23.3-32.2,5.3-6.5,15-17.2,16.3-25,.1-.6.6-1.2.8-1.7,3.5-2.1,6.6-4.7,9.1-7.9.4,0,.8.2,1.2.3"/>
        <path class="st1" d="M435.1,683.9c.6-1.2,1.9-.8,3.1-1.4.5-.3.8-1.1,1.4-1.1.6,0,1,.5,1.6.8,1.4.7,2.9-.3,4.3-.1,2,.2,3.8,1.8,5.8,1.9.8,0,1.7-.9,3,0-.4-4.3,6.5-3.1,2.4-5.9.6-.7,1.3-1.5,2.3-2.1,1,1.1.7,2.5.6,3.7,0,1.1,1.1,1.4,1.8,1.5,1.2.2,6.8-3.7,7.5-5.5,3.7,3.7,5.1,1.4,5.8,1.4.7,0,.6,1.1,1.1,1.5.9.6,2.3-.1,3.3-.4-.6-2.2-1-4.4-2.5-5.8-.4-.3-1.9,1-2.1-.2,0-.4.5-.9.6-1.2.4-.9-1.5-1.8-.8-2.8.2-.2.5-.6,1.1-.7l4.4-.7c1.8,1.6,1.5,3.6.8,5.6-.3.9.7,1.7.6,2.6,0,.6-.5,1.1-.5,1.6,0,.7.7,1,1.4,1.7-.7,1-1.8,2.3-3.1,2.7-.8.2-1.7-1-2.5-.5-2.6,1.4-.5,1.3-3.2,3.4-1.3,1-2.3-1.5-3.2-.1-1.5,2.5,3-.3,3.8,2.4.2.7.5,1.1,1,1.6-2.8.5-5.3,0-8,0h-4.5c-7.1,0-14.7.7-21.8-.6-2.1-.4-4.2.5-6.3-.6,1.3-.5,2.7,0,3.1-1.9-.6-.4-1.4-.1-2.4-.5M438.4,683.9c-.7.7,0,.7.3.7.7,0,.8-.4.6-.7-.2-.3-.6-.4-.9,0"/>
        <path class="st1" d="M551.6,585.6c0,0,0,.2,0,.3-.7,0-1.5.2-1.7,1.1l-.7,3c-.4-.6-.3-1-1-.6.5,1.3-1.1,2.7-.9,3.7.4,2.1,0,3.2-1,5.1-.4.8-.1,1.5-1,1.5-1,0-1.3-.5-1.4-1.5,0-.5-.2-1.1-.5-1.3-.5-.3-1.2-.2-1.4.2-.1.2,0,1-.3,1.2-1,1.2-2.8.2-4.1.4-.7.1-1,1.3-1.4.8-.5-.6-1-1.2-.8-1.6.6-1.5,1.3.7,3.2-1.3.6-.6,1-1,.4-1.6-1.4-1.3-2.3.5-3.3-.8-1.3-1.6.9-4,2-5.7,1.5-.2,1.7-1,2.5-2,.9-1.2,1.1-1.8,1.2-3.2.3-2.2,3.3-2.1,4.9-1.5.6.2,1.3-.4,1.7,0,.3.2,1.3.6.8,1.2-.4.4-.9,1-.6,1.4.2.2.8.3,1.1.2.5-.2,0-2.6.8-2,2.1,1.6.4-.5,1.6,2.9M545.5,596.3c.2-.7.5-.9.3-1.1-.1-.2-.4-.3-.7-.2-.3.1-.3.5-.2.9-.2.7.2,1.2.5.5M540.3,595.7c-.4.3-.2.7,0,.9.2.2.7.2,1-.2.2-.2-.1-.4-.5-.7-.1,0-.3-.3-.6,0"/>
        <path class="st1" d="M450.4,680.5c-1,0-1.6-.3-2.1-.8-.9-.7-.7-4,.2-4.3.5-.2,1.4.2,1.7.9.6,1.3.1,2.7.2,4.1"/>
        <path class="st1" d="M485.7,613.8c0-.3,1,0,1.2,0,.2,0,0,.4,0,.6,0,.3-.5.5-.8.5-.4,0-.5-.6-.4-1.1"/>
        <path class="st1" d="M459.9,671c.2-.2.4,0,.6.2.2,0,.6.4.4.6-.3.2-.5,0-.7,0-.2,0-.6-.4-.2-.8"/>
        <path class="st1" d="M336.9,686.9c.2-.2.8,0,1,0,.2,0,.4.3.3.7-.2.4-.5.2-.7.2-.3.1-1-.2-.5-.8"/>
        <path class="st1" d="M560.5,512.8c0,.3-.2.5-.5.5s-.5-.2-.5-.5.2-.5.5-.5.5.2.5.5"/>
        <path class="st1" d="M560.5,535.9c0,.3-.2.5-.5.5s-.5-.2-.5-.5.2-.5.5-.5.5.2.5.5"/>
        <path class="st1" d="M543.6,605c0,1.1-.5,1.3-.5.2,0-.5.3-.7.5-.2"/>
        <path class="st1" d="M555.2,527.3c0,.1-.1.3-.3.3s-.3-.1-.3-.3.1-.3.3-.3.3.1.3.3"/>
        <path class="st1" d="M544.5,603.6c0,.1,0,.2-.2.2s-.2,0-.2-.2,0-.2.2-.2.2,0,.2.2"/>
        <path class="st1" d="M545.4,600.9c0,.1,0,.2-.2.2s-.2,0-.2-.2,0-.2.2-.2.2,0,.2.2"/>
        <path class="st1" d="M422.1,680.2c1.2,2.8,8,1.1,9.6,2.4.6.5,1.2,2,1.4,2.9.2.9-1,1-1.5,1-.6.1-1.2-.5-1.7-.8-7.7,3-12.1-2.3-21.1-1.1l1.5.9c-4,1.3-5.9-1.7-8.4-.6.1-2.6-3.4,1.9-4.4-.8-.6,1-1.4,1.1-2.3.7-2.6-1.1-2.7,1.5-4.6-.7-1,0-1,0,0,.6-1.3.7-8.9,1.5-11.2.8-1.9-.5-3.8.7-5.5.8-1.9.2-3.3,0-4.8,1.4-.9.8-2.7-.3-3.7,0-1.2.4-2.4.9-3.4-.1-1-.9-1.8.2-2.5,0-2.5-.3-4.8-1-7.4-.2-1.1.4-2.4-.4-3.1-.6-1.1.9-2.6.2-4,.3.3,0-4.6,1.8-4.8-.5,0-.3,0-.9.5-1,.7-.1,1.2,0,1.8-.2.5-.2.4-1.1.9-1.6.6-.6,1.4-.8,1.6-1.3.3-.7-.3-1.7,0-2.3.9-1.1,2.8-1.7,2.7-3.5,0-.8-1.3-.8-2.2-1.2.7-1.4,2-2.2,3.4-2.8,1.1-.5,1.7-1.5,2.6-2.1,6.4-4.2,5-5.8,12.7-8.6,1.5-.5,2.6-1.5,4.5-.9,1.2.4,2-.6,2.3-1.6,1-3.4,0,2.6,2.4,1.8.4-.1-.6-1.4-.4-1.6,4-2.1,9.4-1.3,13.8-.1,1.8.5,2.7,1.2,4.3,2,1.6.8,8.7,3.6,9.4,4.5.2.3.2,1.3-.3,1.4-.9.2-2.7,1.2-3.5.9-3.1-2.1-6.4-3.6-10.4-2.5-.4.1-1-.2-1.4-.2-.6,0-.5,1.3-.9,1.6-1.6.7-3,1.1-3.1,3.6-.9-.2-1.5-.9-1.8-1.5-.4-.8-.2-2.1.1-2.9-.7-.8-1.7-.7-2.6-1.2.1-.6.8-2.2.3-2.5-2.1-1.3-2.8,2.1-3.9,2.5-1.6.6-4,0-4.8,2.3-1.6,4.4,3.4,4.3,5.5,6.7,1.9,2.1-3.4,5.7-2,8,6-1.3,4.3-.2,9.9-1.5,3.3-.8,7.3.7,10.4-.5,3.5-1.2,6.8-2.7,10.2-.2.4.3,1.5,0,2-.1,1.2-.5.5-4.1,2.6-2.8,2.1,1.2,6.6,1.2,7.6-1.3-.6-4.7-7.4-.4-8.4-3.6l-1.2.6c-.1,0-4.3-2.5-2.3-4.8.9.4,2.2,0,3.2.3,2.8,1,5.5,1.4,8.4,2,3.9.9,7.8.8,11.8.9h5.3c.8.1,1.9-.3,2.7-.1,1.2-.9,3-2.2,4.5-1.2.1.7-.6,1.8-1.1,2.1-2,1.1-2.6-1-4.9.3-1.2.7-.1,3.2-.9,6-4.5,2.6-6.6-2-9.2,1.5M395.4,681.9c0-.3-.2-.5-.5-.5s-.5.2-.5.5.2.5.5.5.5-.2.5-.5M396.7,684.3c0-.1-.1-.2-.2-.2s-.2,0-.2.2.1.2.2.2.2,0,.2-.2M421.1,685.2c0-.1-.1-.2-.2-.2s-.2,0-.2.2.1.2.2.2.2,0,.2-.2"/>
        <path class="st1" d="M469.8,406.5c-.3,0-.7,0-.8-.4.4-.3.2-1.3.9-1.4,0,.6,0,1.3,0,1.9"/>
        <path class="st1" d="M407,606c-1.4-.4-2.8-.2-4.4-1-3-1.6-12-6-13-9.2.9,0,1.4.8,2.2,1.5,4.7,3.8,9.9,6.5,15.3,8.7"/>
        <path class="st1" d="M372.9,579.7c.5-.5,1.3.2,1.6.5.4.4.2,1.1-.3,1.6-.4.4-.9.2-1.4-.4-.3-.4-.7-.9.1-1.7"/>
        <path class="st1" d="M297.8,629.1c0,.3-.2.5-.5.5s-.5-.2-.5-.5.2-.5.5-.5.5.2.5.5"/>
        <path class="st1" d="M346.5,586.3c.5-.5.8-.3,1,0s0,.5-.2.7c-.3.1-.7,0-.7-.6"/>
        <path class="st1" d="M323.9,580.3c0-.2,0-.3,0-.5.5,0,.5.4,0,.5"/>
        <path class="st1" d="M299.1,628c0,.1-.1.2-.2.2s-.2,0-.2-.2.1-.2.2-.2.2,0,.2.2"/>
        <path class="st5" d="M322.7,579c-2.5,3.2-5.6,5.9-9.1,7.9-.3,0-1-.1-1.4.2-4.9,3.3-9.9,5.6-15.2,8.4-15.5,8.1-32.2,13.2-49.8,13.6-6.7.2-13.3-.5-19.2-3.5-7.9-4-14.8-10-19.8-17,2.3,1,3.6,3.4,5.4,5.3,1.9,2.1,4.4,3.5,6.6,5.4,2.8,2.5,5.7,4.1,9.1,5.7,6.5,3,13.6,3.5,20.8,3,4.6-.3,8.9-.7,13.4-1.7,3.2-.7,6.3-1.1,9.5-2.1,9.5-2.9,18.5-6.6,27.2-11.4,3.1-1.7,6.1-3.2,9.1-5.1.8-.5,1.8-1.5,2.5-1.8,3.2-1.4,8.1-5.6,10.2-7.9l7.3-8.2c2-2.3,7-9.3,7.8-11.8.2-.5,1.1-1,1.5-1.6,4.4-8.3,8-22.8,9.2-32.1l1-8.3c1.6-13.2,2.6-26.6-3.2-38.9-1.2-2.4-1.7-4.9-3-7.2l-1.4-2.5c-7.1-12.5-14.5-18.7-27.1-25l-5.3-2.6c-10.2-5-20.4-7.2-31.7-8.1-6.4-.5-17.7,1.4-24.2,3-8.6,2-16,6.2-22.6,12-9.1,8-9.4,7.1-17.4,17.3-5.4,6.8-10.4,13.5-14.3,21.3-2,4.1-4.1,7.8-5.4,12.3-1.1,3.8-2.6,5.5-2.7,8.4,0,2.1-1,3.9-1.2,5.8l-1.1,10.4-.9,8.8c-.6,5.5-1.5,11.2-.3,16.4l.8,3.2c.7,2.8,1.1,5.3,1.8,8,2.1,7.5,6.4,15.1,11.6,20.9,1.1,1.2,1.7,2.5,3.1,3.6,1.7,1.4,2.7,3.5,4.2,5.6-1.7-.8-2.6-2.6-4-4.1-6.3-6.4-11.4-13.7-14.5-22.1-3.4-9.3-4.6-18.5-3.7-28.4l1.8-19.5c.6-6.4,2.2-12.2,4.5-18.1,8-20.4,20.5-36.7,37.1-50.9,6.9-5.9,14.9-10,23.9-12.1,23.2-5.6,41.9-2.4,62.8,8.7,9.5,5,17.5,11.2,23.4,20.3,7,10.9,11.3,23.4,11.7,36.5.1,4.9-1.8,18.4-2.4,23.8-.9,8.9-2.6,17.4-5.6,25.7-2.2,6.1-5.2,11.3-8.8,16.6-3.4,5.1-7.8,9.1-11.5,13.8"/>
        <path class="st5" d="M391.8,587.3c-2.2-1.1-4.6-1.3-6.1-3,2.2,1,4.7,1.3,7.1,2.1l5.4,1.8c6,2,11.5,4.1,17.9,4.8l15.7,1.6c2.8.3,5.2,0,8,0h5.7c3.1-.2,6.2-1,9.3-1.2,3.3-.2,13.7-2.6,16.6-4.2,2.4-1.3,5.1-1.9,7.2-3.5.7-.5,1.1-.6,1.8-.9,2.9-1.4,5.6-3,8.3-4.8l4.3-2.8c3.7-2.5,7-5.3,10.5-8.1,4.8-3.9,8.2-8.9,12-13.8,5.4-6.9,10.1-18.1,11.6-26.9,1.8-10,1.4-11.9,1.2-22.1,0-2.2-.9-4.2-1.1-6.3-.4-3.9-1.2-7.6-2.4-11.3-3.8-11.7-8.8-23.9-17.2-33.1-2.6-2.8-4.7-5.8-7.9-8.1-4.3-3.2-8.4-6.9-13.5-8.9-7-2.7-14.6-3-22.2-2.8-8.1.1-15.4,3.1-22.9,6-5.4,2.1-10.6,4.2-15.4,7.7-4.2,2.2-7.8,5.1-11.6,7.9-8.3,6.1-15.7,12.9-22.2,20.9-4.5,5.6-7.8,11.9-9.5,18.8-.7,2.8-1.5,5.3-2.4,8-.9,2.7-1.1,5.6-1.8,8.4-.8,3-.6,5.9-1,8.8-.2,1.3-.7,2.6-.8,4.1l-1,23.2c-.5,11.5-1.3,24,7.8,33.1.6.6,1.8.7,1.8,1.8-1.8-.8-3.2-2-4.5-3-6.5-8.8-6.7-19-6.2-29.3l1-22.7c.6-13.4,3.4-26.5,8.2-39,3.2-8.4,8.8-15.3,15.2-21.2l5.4-4.9c9.7-8.8,23-18.1,35.2-22.9,7.5-3,15.1-5.6,23.2-6.4,3.4-.3,6.7,0,10,.2,6.8.5,13.3,1.5,19.1,5.3,12.3,8,21.9,19.1,27.9,32.4,7.4,16.4,10.6,30.4,9.4,48.7-.7,10.9-4.6,20.9-10,30.3-4.7,8.3-11.1,15-18.5,21-10.6,8.6-24.6,17.1-38,20.5-7.9,2-15.8,2.2-23.9,2.4-2.1,0-3.8.3-6,0l-11.4-1c-15.4-1.3-15.9-3.2-29.7-7.3"/>
        <path class="st5" d="M385.7,584.3c-.3,0-.4,0-.5-.1,0-1-1.2-1.1-1.8-1.8-9.1-9.1-8.3-21.6-7.8-33.1l1-23.2c0-1.5.6-2.8.8-4.1.4-2.9.2-5.9,1-8.8.7-2.8.9-5.7,1.8-8.4.9-2.7,1.7-5.1,2.4-8,1.7-6.9,5-13.2,9.5-18.8,6.4-8,13.9-14.8,22.2-20.9,3.9-2.8,7.4-5.6,11.6-7.9,4.8-3.4,9.9-5.5,15.4-7.7,7.5-2.9,14.7-5.8,22.9-6,7.6-.1,15.2.1,22.2,2.8,5.2,2,9.2,5.7,13.5,8.9,3.2,2.4,5.3,5.3,7.9,8.1,8.4,9.2,13.4,21.4,17.2,33.1,1.2,3.8,2,7.5,2.4,11.3.2,2.1,1.1,4.1,1.1,6.3.2,10.2.6,12.2-1.2,22.1-1.6,8.8-6.2,20-11.6,26.9-3.8,4.8-7.2,9.8-12,13.8-3.5,2.8-6.8,5.7-10.5,8.1l-4.3,2.8c-2.7,1.8-5.4,3.4-8.3,4.8-.7.3-1.1.4-1.8.9-2.2,1.6-4.9,2.2-7.2,3.5-2.9,1.5-13.3,4-16.6,4.2-3.1.2-6.2,1-9.3,1h-5.7c-2.8.2-5.2.5-8,.2l-15.7-1.6c-6.3-.6-11.9-2.8-17.9-4.8l-5.4-1.8c-2.4-.8-4.9-1.1-7.1-2.1M500.9,453.9c.1-1.1-1.1-1.4-1.8-2.1-4.6-4.8-10.1-8.4-16.4-10.6-1.9-.7-3.3-.5-5.3-.3-10.1,1.1-4-1.9-15-.8l-6.1.6c-12.6,1.3-36.5,15.6-46.5,24.8-3.2,2.9-10.7,9.7-12.8,13-2,3-4.4,5.8-5.9,9.1-2.5,5.3-5,10.4-6.1,16l-2.6,13c-3.4,16.7-.3,23.7-1.7,34.8-.8,6.8-.7,13.4,1.4,20,.5,1.8,1.8,3.4,2.8,5,2.2,3.5,5.5,5.3,9.5,6.1,7.3,1.3,13.8,4.6,20.9,6.4,5.9,1.5,12,1.3,18,2.2,3.1.5,5.9.2,9,0,8.5-.3,16.8-.9,24.8-3.7,5.9-2.1,11.2-4.7,16.4-8,1.2-.7,2.4-1.5,3.6-2.1,1.5-.7,2.4-1.7,3.7-2.5,3.1-2,5.9-4,8.7-6.5l5.9-5.2,2.7-3c1.6-1.8,3.4-3.7,4.7-5.8,8.6-13.3,14.1-32.2,12.1-47.9-1.1-8.8-2.8-17.3-6-25.5-4-10.1-9.2-20.3-17.8-27.1"/>
        <path class="st1" d="M559,487.7c0-5-3.5-13.6-5.6-18.4l-5.4-12.3c-4-9.1-16.4-21.1-25-25.2-9.8-4.7-10.5,0-17.1-4.6,0-.1,0-.3,0-.5-.9-1.6-.9-3.5-.9-5.3v-.8c-.2-.1-.5-.3-.7-.3.5,0-4.3,4.2-5.7,4.7-1.6.6-3,1.4-4.7,1.7-6.9,1.2-14.2-.2-19.6-4.6-3-2.4-4.3-5.7-4.8-9.1-.4,0-.2.7-.7.9,0-1.1-.3-2.8-1.4-2.9-.8,0-1.5.9-2.2.7-3,3.1-5.8,6.5-9.3,9.3-4.9,3.9-10.4,6.3-16.1,8.7-9.8,4-24.4,5.4-32.1-3-2.1-2.3-4.9-5.3-5.8-8.2-1,.2-.5,1.6-1,2.2-4.3,5.5-11,3.9-17,2-9.8-3.1-17.8-10-17.5-20.7-1.5,2.3-4.1,3.8-6.4,5.6-8.4,6.6-18.8,9.8-29.3,6.6-5.5-1.6-8.8-7.4-11.8-11.2-2.8,5.2-3.5,12.2-8,17.2-5.6,6.3-9.9,8.7-18.6,8.6-4,0-7.3-.5-10.6-3-6.4-4.9-9.3-11.6-7.8-19.7.2-1-.2-1.3-.4-2-.8-.2-.7,1-1,1.7-2.3,5.6-6.5,10.4-11.8,13.4-2.7,1.6-5.6,2.4-8.4,3.2-.4.1-1.1.1-1.3.5h-5.3c-1.5,0-3.7-1.3-5.1-.4-2.3,1.4-4.2,3-6.7,4.2-7.9,3.8-14.4,9.1-20.5,14.9-.1.1-.3.2-.5.4-5.9,6.6-12.6,12.3-18.9,18.8l-11.1,11.6c-2.4,2.5-4.3,5.2-6.9,7.2-.2.1-.4.4-.5.6-1,1.8-2.8,3.1-3.9,4.8-.1.2-.3.3-.4.5-3.2,4.6-5.7,9.7-8.3,14.9-3.9,7.9-5.1,16.3-5.2,25.1-.2,12.6-2.4,21.1-1.4,35.2.7,9.1-.3,15.1.7,25.1l2.2,23.5c1.7,18.4,3.1,17.5,12,32.8l5.4,9.3c5,8.6,5.1,14,9.4,21.4l9.3,16.4c1.2,2.1,2.9,5.2,5.3,6,4.6,1.5,9.3,2.2,14.1,2.8l18.2,2.3c6.8.8,13.7-3.4,27.5-1.3,12.3,1.9,29.6,1.7,41.9.2l30.9-3.8c9.8-1.2,19-2.5,28.6-4.7,23.6-5.2,44.6-4.7,68.6-2.4l21.1,2c6.5.6,38.4,3,42.8,2.3l15.9-2.3c-2.8-5,3.2-14.1,6-17.5,2.1-2.5,3.6-4.9,5.3-7.8,8.8-15.3,8.6-25.1,14.6-36.4l4-7.5c2.4-4.6,4.3-9.1,5.4-14.2,1.2-5.4,2.8-10.5,4.5-15.7.6-1.9,2-3.4,2-5.2-.7,0-1.5.2-1.7,1.1l-.7,3c-.4-.6-.3-1-1-.6.5,1.3-1.1,2.7-.9,3.7.4,2.1,0,3.2-1,5.1-.4.8-.1,1.5-1,1.5-1,0-1.3-.5-1.4-1.5,0-.5-.2-1.1-.5-1.3-.5-.3-1.2-.2-1.4.2-.1.2,0,1-.3,1.2-1,1.2-2.8.2-4.1.4-.7.1-1,1.3-1.4.8-.5-.6-1-1.2-.8-1.6.6-1.5,1.3.7,3.2-1.3.6-.6,1-1,.4-1.6-1.4-1.3-2.3.5-3.3-.8-1.3-1.6.9-4,2-5.7,1.5-.2,1.7-1,2.5-2,.9-1.2,1.1-1.8,1.2-3.2.3-2.2,3.3-2.1,4.9-1.5.6.2,1.3-.4,1.7,0,.3.2,1.3.6.8,1.2-.4.4-.9,1-.6,1.4.2.2.8.3,1.1.2.5-.2,0-2.6.8-2,2.1,1.6.4-.5,1.6,2.9.9-.5,1.2-1.8,1.7-3,3.3-9.3,6.2-18.5,7.9-28.2,1.1-6.2.7-12.1,1.3-18.3,2.7-27.3-3-30.2-3.4-48.4M545.2,600.7c.1,0,.2,0,.2.2s0,.2-.2.2-.2,0-.2-.2,0-.2.2-.2M544.3,603.4c.1,0,.2,0,.2.2s0,.2-.2.2-.2,0-.2-.2,0-.2.2-.2M543.6,605c0,1.1-.5,1.3-.5.2,0-.5.3-.7.5-.2M504.5,423.1c0-.4,0-.7.1-1,0-.1,0-.3,0-.4,0-.2.1-.4.2-.4,0,0-.1.2-.2.4,0,.1,0,.2,0,.4,0,.3-.1.6-.1,1,0,.3,0,.5,0,.8,0-.3,0-.6,0-.8M372.9,579.7c.5-.5,1.3.2,1.6.5.4.4.2,1.1-.3,1.6-.4.4-.9.2-1.4-.4-.3-.4-.7-.9.1-1.7M371.1,578.3c0,0-.1,0-.2,0,.1,0,.2,0,.2,0M338.1,687.5c-.2.4-.5.2-.7.2-.3.1-1-.2-.5-.8.2-.2.8,0,1,0,.2,0,.4.3.3.7M431.2,678.7c-4.5,2.6-6.6-2-9.2,1.5,1.2,2.8,8,1.1,9.6,2.4.6.5,1.2,2,1.4,2.9.2.9-1,1-1.5,1-.6.1-1.2-.5-1.7-.8-7.7,3-12.1-2.3-21.1-1.1l1.5.9c-4,1.3-5.9-1.7-8.4-.6.1-2.6-3.4,1.9-4.4-.8-.6,1-1.4,1.1-2.3.7-2.6-1.1-2.7,1.5-4.6-.7-1,0-1,0,0,.6-1.3.7-8.9,1.5-11.2.8-1.9-.5-3.8.7-5.5.8-1.9.2-3.3,0-4.8,1.4-.9.8-2.7-.3-3.7,0-1.2.4-2.4.9-3.4-.1-1-.9-1.8.2-2.5,0-2.5-.3-4.8-1-7.4-.2-1.1.4-2.4-.4-3.1-.6-1.1.9-2.6.2-4,.3.3,0-4.6,1.8-4.8-.5,0-.3,0-.9.5-1,.7-.1,1.2,0,1.8-.2.5-.2.4-1.1.9-1.6.6-.6,1.4-.8,1.6-1.3.3-.7-.3-1.7,0-2.3.9-1.1,2.8-1.7,2.7-3.5,0-.8-1.3-.8-2.2-1.2.7-1.4,2-2.2,3.4-2.8,1.1-.5,1.7-1.5,2.6-2.1,6.4-4.2,5-5.8,12.7-8.6,1.5-.5,2.6-1.5,4.5-.9,1.2.4,2-.6,2.3-1.6,1-3.4,0,2.6,2.4,1.8.4-.1-.6-1.4-.4-1.6,4-2.1,9.4-1.3,13.8-.1,1.8.5,2.7,1.2,4.3,2,1.6.8,8.7,3.6,9.4,4.5.2.3.2,1.3-.3,1.4-.9.2-2.7,1.2-3.5.9-3.1-2.1-6.4-3.6-10.4-2.5-.4.1-1-.2-1.4-.2-.6,0-.5,1.3-.9,1.6-1.6.7-3,1.1-3.1,3.6-.9-.2-1.5-.9-1.8-1.5-.4-.8-.2-2.1.1-2.9-.7-.8-1.7-.7-2.6-1.2.1-.6.8-2.2.3-2.5-2.1-1.3-2.8,2.1-3.9,2.5-1.6.6-4,0-4.8,2.3-1.6,4.4,3.4,4.3,5.5,6.7,1.9,2.1-3.4,5.7-2,8,6-1.3,4.3-.2,9.9-1.5,3.3-.8,7.3.7,10.4-.5,3.5-1.2,6.8-2.7,10.2-.2.4.3,1.5,0,2-.1,1.2-.5.5-4.1,2.6-2.8,2.1,1.2,6.6,1.2,7.6-1.3-.6-4.7-7.4-.4-8.4-3.6l-1.2.6c-.1,0-4.3-2.5-2.3-4.8.9.4,2.2,0,3.2.3,2.8,1,5.5,1.4,8.4,2,3.9.9,7.8.8,11.8.9h5.3c.8.1,1.9-.3,2.7-.1,1.2-.9,3-2.2,4.5-1.2.1.7-.6,1.8-1.1,2.1-2,1.1-2.6-1-4.9.3-1.2.7-.1,3.2-.9,6M479,680.8c-.8.2-1.7-1-2.5-.5-2.6,1.4-.5,1.3-3.2,3.4-1.3,1-2.3-1.5-3.2-.1-1.5,2.5,3-.3,3.8,2.4.2.7.5,1.1,1,1.6-2.8.5-5.3,0-8,0h-4.5c-7.1,0-14.7.7-21.8-.6-2.1-.4-4.2.5-6.3-.6,1.3-.5,2.7,0,3.1-1.9-.6-.4-1.4-.1-2.4-.5.6-1.2,1.9-.8,3.1-1.4.5-.3.8-1.1,1.4-1.1.6,0,1,.5,1.6.8,1.4.7,2.9-.3,4.3-.1,2,.2,3.8,1.8,5.8,1.9.8,0,1.7-.9,3,0-.4-4.3,6.5-3.1,2.4-5.9.6-.7,1.3-1.5,2.3-2.1,1,1.1.7,2.5.6,3.7,0,1.1,1.1,1.4,1.8,1.5,1.2.2,6.8-3.7,7.5-5.5,3.7,3.7,5.1,1.4,5.8,1.4.7,0,.6,1.1,1.1,1.5.9.6,2.3-.1,3.3-.4-.6-2.2-1-4.4-2.5-5.8-.4-.3-1.9,1-2.1-.2,0-.4.5-.9.6-1.2.4-.9-1.5-1.8-.8-2.8.2-.2.5-.6,1.1-.7l4.4-.7c1.8,1.6,1.5,3.6.8,5.6-.3.9.7,1.7.6,2.6,0,.6-.5,1.1-.5,1.6,0,.7.7,1,1.4,1.7-.7,1-1.8,2.3-3.1,2.7M450.4,680.5c-1,0-1.6-.3-2.1-.8-.9-.7-.7-4,.2-4.3.5-.2,1.4.2,1.7.9.6,1.3.1,2.7.2,4.1M456.5,596.7c.2.2.5.4.8.7.1,0,.2.2.4.3.1,0,.3.2.4.2s.2.2.4.2c-.1,0-.2-.2-.4-.2-.1,0-.2-.2-.4-.2-.1,0-.3-.2-.4-.3-.3-.2-.6-.4-.8-.7-.2-.2-.3-.5,0-.7-.2.2-.1.4,0,.7M457.1,596.2s0,0,.1,0c0,0,.1,0,.1,0,0,0,0,0-.1,0,0,0,0,0-.1,0M454.6,605.5c-.2,0-.4,0-.6,0,.2,0,.4,0,.6,0M453.6,602.5c.2,0,.3,0,.5,0,.3,0,.5.1.8.2.2,0,.5,0,.8,0-.3,0-.6,0-.8,0-.3,0-.5-.1-.8-.2-.1,0-.3,0-.5,0M456.5,604.8c-.2,0-.3.2-.5.2.2,0,.3-.2.5-.2M457.6,604c.2-.2.4-.5.5-.7-.1.3-.3.5-.5.7-.1.1-.3.3-.4.4.1-.1.3-.2.4-.4M453,597.8h0c0,0,.2,0,.2,0,0,0-.2,0-.2,0M452.2,603c-.5.2-1,.6-1.7,1.2.4.3.8.6,1.2.9-.4-.2-.8-.5-1.2-.9.7-.5,1.2-.9,1.7-1.2M459.9,671c.2-.2.4.1.6.2.2,0,.6.4.4.6-.3.2-.5,0-.7,0-.2,0-.6-.4-.2-.8M467.7,596.7h-.1c0,0-.1,0-.2-.1s-.1-.2-.2-.3c0-.2-.1-.4-.1-.8,0,.3,0,.6.1.8,0,.1.1.2.2.3,0,0,.1.1.2.1,0,0,0,0,.1,0M470.7,592.6c0,0,.1,0,.2-.1,0,0-.1.1-.2.1M469.6,594.7c-.1,0-.2.1-.4.2.1,0,.2-.1.4-.2.2,0,.4-.1.6-.1-.2,0-.4,0-.6.1M479.7,591.8c-.1,0-.2.2-.3.2.1,0,.2-.1.3-.2M477.2,589.7c.1,0,.2,0,.4-.1-.1,0-.2,0-.4.1M476.7,589.9c0,0-.1,0-.1,0,0,0,0,0,.1,0,0,0,.1,0,.2,0,0,0-.2,0-.2,0M474.5,595.5c.2.2.5.3.7.5.2,0,.4.2.5.3-.2,0-.4-.2-.5-.3-.2-.2-.5-.3-.7-.5,0,0-.1,0-.2-.1-.1,0-.2-.1-.3-.2.1,0,.2.1.3.2,0,0,.1,0,.2.1M473.7,592.7c.2,0,.4-.2.6-.2-.2,0-.5.2-.6.2M473,593.8c0,.2,0,.3,0,.4,0,.1,0,.2,0,.3,0,0,0-.2,0-.3,0-.1,0-.2,0-.4,0-.5.2-.8.4-1-.3.2-.4.5-.4,1M486.9,614.4c0,.3-.5.5-.8.5-.4,0-.5-.6-.4-1.1,0-.3,1,0,1.2,0,.2,0,0,.4,0,.6M500,578.4c0,0-.1,0-.2,0,0,0,.1,0,.2,0M500.1,575.6c0,0,.1-.2.1-.3,0,.1,0,.2-.1.3M500.9,579.6c-.1.2-.2.3-.4.5-.1.1-.3.2-.5.3s-.3.2-.5.2c-.4.1-.8.2-1.1.1.4,0,.8,0,1.1-.1.2,0,.4-.1.5-.2.2,0,.3-.2.5-.3s.3-.3.4-.5c.2-.3,0-.7-.4-1-.1,0-.2-.2-.4-.2.1,0,.2.1.4.2.4.3.6.6.4,1M502,578.5c0,0,0,.2.1.3,0,0,0-.2-.1-.3M502.4,579.2c0,0,.1.1.2.1,0,0-.1,0-.2-.1M503.9,575.1c0-.1,0-.2.1-.3,0,0,0,.2-.1.3,0,.4.3.6.7.8-.5-.2-.8-.3-.7-.8M511.8,574.6c.1.3.2.6.4.9-.2-.3-.3-.6-.4-.9M511.3,572.3c0-.4-.1-.8-.2-1.2.1.3.2.7.2,1.2s.1.9.3,1.4c-.1-.5-.2-1-.3-1.4M510.5,568.8c.2,0,.3-.2.3-.5s-.1-.4-.3-.5c.2,0,.3.2.3.5s-.1.4-.3.5M510,568.7c0,0-.1-.2-.1-.3s0-.3.1-.3c0,0-.1.2-.1.3s0,.3.1.3M506.2,570.9c.2.2.3.4.5.5-.2,0-.3-.2-.5-.5M505.1,573.8c-.1,0-.2.1-.3.2-.2,0-.3.2-.4.3.1-.1.3-.2.4-.3.1,0,.2-.1.3-.2M505.9,576.3c-.1,0-.3-.2-.5-.2-.1,0-.2,0-.3,0,.1,0,.2,0,.3,0,.2,0,.4.1.5.2.1.1.2.2.3.4,0-.1-.2-.3-.3-.4M507,578.6c0,0-.1.1-.2.2,0,0,.1-.1.2-.2.1-.1.3-.2.4-.3-.1,0-.3.2-.4.3M506.8,571.4c0,0,.2,0,.2,0,0,0-.2,0-.2,0M510.2,578.1h0c0-.2,0-.4,0-.6,0,.2,0,.4,0,.6M530.1,523.1c-.5,6.5-4,18.4-6.9,24.1-3.2,6.4-7.2,12.1-11.9,17.3-1.9,2.1-3.9,3.9-5.4,6.1-1,0-1.3,1.2-1.9,1.8-.7.4-1.6.7-2.2,1.3-.5.5-1,.8-1.3,1.4h-.4c-.3,0-.8-.2-.9.2,0,.2,0,.4,0,.6l-9.6,6.3c-2.8,1.8-5.7,3.1-8.1,5.2-.4,0-.7,0-.9.4-.1,0-.3,0-.4,0-1.3.4-2.9,1-3.7,2.1-.5,0-1,0-1.2.5-.6-.3-1,.3-1.3.5l-3,1c-.2,0-.6,0-.6.4-1.4,0-2.6.8-4,1-1.1.1-2.3.6-3,1.2-1.9-.3-4,.7-5.9.9,0,0,0,.2,0,.3,0-.1,0-.2,0-.3l-8.4.9c-.7,0-1.4,0-2.1,0-9.8.9-19.6,0-29.4-1-1,0-2.3-.5-3.5-.4-1.7.1-3-.5-4.5-.8-3.5-.7-6.7-1.6-9.8-3.1-1.7-.9-3.6-2.1-5.7-1.8,3.2,5.6,14.1,10.5,20.4,11.9,2.8.6,5.4,1.6,8.2,2.4,8,2.3,15.6,5.2,22.3,10.2,4.5,3.3,6.9,8.7,8,14.2,1.5,7.2.2,14.3-1.7,21.3-3,11.1-11.8,21.2-24,21.5-4.4,0-8.3,0-12.5-.9-26.1-5.4-27.1-21-57.1-6-6.9,6.9-20,15.7-29.7,17.5-14,2.8-38.1,3.8-49.9-5.3-10.1-7.8-10.8-19.3-5-29.9,5.6-10.3,15.8-23,23.3-32.2,5.3-6.5,15-17.2,16.3-25-1,0-2,.3-2.9,1-2.2,2-8.8,4.7-10.2,5.8-1.1.8-1.9,1.3-3.1,1.9l-7.6,3.4c-4.7,2.1-16.4,6-21.4,6.9-9.2,1.6-17.9,3.9-27.4,2.4-1.3-.2-2.5.4-3.6,0-6.1-1.9-12-4.2-17-8.2l-4.3-3.4c-5.7-4.5-11-12.5-15.2-16.6-4.3-4.3-7.1-9.3-9.8-14.6-4.3-8.7-6-18.5-5.6-28.2.1-2.3,0-4.5.3-6.8l.8-6.6c1-7.9.6-16,3.3-23.5l3.2-8.8c.4-1,.9-1.9.6-2.8,1.1-.9,2-2.5,2.2-4,.1-1.2,1.3-1.5,1.6-2.4l1.9-4.4c.6-1.3,2.5-2.3,2.5-3.8,0-.2.4-.6.5-.8,1.8-1.1,2.8-3.5,3.4-5.4.2-.3.7-.9,1-1.1,1.1-.7,2.1-2.3,2.5-3.5.3-.6,1.4-1.1,1.5-1.8.9-.2,1.4-1,1.8-1.8.3-.6.6-1.1.8-1.7,1.4-.5,2.6-1.7,2.8-3.2,1.1-.5,1.5-1.6,2.6-2.2.3-.1,8-7.3,7.1-6.7,3.4-2.5,6.5-5.5,10.2-8,1.5-1,3.3-1.7,4.9-2.6,6.2-3.5,13.2-4.7,20.3-6,13-2.2,30.4-1.4,42.4,4l10.2,4.6c4.2,1.9,8.1,4,12,6.6,2.4,1.6,9.7,7.7,11.3,9.9l3.1,4.4c4.2,5.8,9.6,17.3,11,24.2l.8,4c1.4,7,.6,13.5,0,20.5-.3,3.4,0,6.5-.9,9.9-.5,1.8-.3,7.9-1.2,12l-.7,3-1.7,6.7c-.8,3.1-1.9,6-2.9,9-1.4,4.1-3,7.8-5.5,11.4-1.8,2.5-3.2,5.3-5.1,7.7-1.3,1.6-2.8,2.9-3.9,4.6-1,1.5-2.3,2.8-3.4,4-.8.4-1.7.9-2,1.8,0,.1,0,.3,0,.5.5,0,.5.4,0,.5.1,6.4-1.1,12.5-4.6,18.1-3.4,5.4-7.3,10.2-11.4,15.1l-18.8,22.5c-6.3,7.5-12.6,15.3-10.6,25.7,1,5.4,4.8,9,9.8,10.9,12,4.6,32.4,3.3,44.7-.7,8-2.6,14.3-7.8,20.2-13.5,3.6-3.5,8.6-4.8,13.4-6.1,6-1.6,11.9-2.4,18-1.3,13.3,2.2,15,9.9,37.1,12.2,3.7.4,7.4.6,10.8-.8,10-4.2,13.4-16.8,13.9-26.7.9-16.4-11.2-20.6-24.6-24.8l-14.8-4.7c-1.4-.4-2.8-.2-4.4-1-3-1.6-12-6-13-9.2,0-.1-.3-.2-.3-.3-2.6-.8-4.2-3.5-5.9-5.8-2.1-2.7-3.4-5.6-4.4-8.9-.3-.8-.6-1.6-1.3-1.9-.5-2.4-2.9-5.3-3.2-8.5l-1-8.4c-.5-3.9,0-7.9.1-11.8l.4-11.7.4-5.4.5-11.6,1.2-6.7c.7-3.6,1.9-7,1.3-10.7,1.9-.5,1.5-2.1,1.8-3.4l2.4-8.3c1.6-5.8,7.8-15.7,11.8-20.1.8-.9,1.8-1.5,2.6-2.3l5.7-5.4c1.3-1.2,2.9-2.3,4-3.6,2-2.6,8-6.5,11-8.5l9.6-6.4c5.5-3.6,25.1-11.5,31-11.9,2.6-.2,5.1-.9,7.6-.8l10,.4c4.9.2,10.1.7,14.6,3.3,5.2,3,10,6.6,14.5,10.5,4.6,4.1,8,8.7,11.4,13.5,3,4.1,5.1,8.4,6.9,13.1l2.7,6.8c1,2.5,2.2,4.8,2.4,7.6.2,2.3,1.3,4.5,1.6,6.8,1.7,10.3,2.2,16.9,1.4,27.4M449.4,597.2s0,0,0,0c0,0,0,0-.1,0,0,0,0,0,.1,0,0,0,0,0,0,0M444.7,599.1c-1.3,0-2.5.1-3.8.2,1.3,0,2.5,0,3.8-.2M435.8,599.2c-.4,0-.9,0-1.3,0-.2,0-.5,0-.7,0,.2,0,.5,0,.7,0,.4,0,.9,0,1.3,0M433.5,599.2h-.4.4M428.3,597.6c-.4,0-.8-.1-1.1-.2-.3,0-.5-.2-.8-.3.3,0,.5.2.8.3.4.1.7.2,1.1.2M347.2,587c-.3.1-.7,0-.7-.6.5-.5.8-.3,1,0s0,.5-.2.7M311.1,612.7c0-.2,0-.5,0-.6.1-.3.4-.4.6-.2.3.2.5.6.3.8-.2.1-.7,0-1,0M299.1,628c0,.1-.1.2-.2.2s-.2,0-.2-.2.1-.2.2-.2.2,0,.2.2M297.8,629.1c0,.3-.2.5-.5.5s-.5-.2-.5-.5.2-.5.5-.5.5.2.5.5M551.8,557.4c.2,0,.3,0,.4,0h0,0c-.1,0-.3,0-.4,0s-.3,0-.5.1c0,0-.2,0-.3,0,0,0,.2,0,.3,0,.2,0,.3,0,.5-.1M549.2,555.8c-.1-.2-.3-.3-.5-.3.2,0,.4.1.5.3M551.5,559.6c.2,0,.5,0,.6-.1-.2,0-.4,0-.6.1M554.9,527.6c-.1,0-.3-.1-.3-.3s.1-.3.3-.3.3.1.3.3-.1.3-.3.3M560,536.4c-.3,0-.5-.2-.5-.5s.2-.5.5-.5.5.2.5.5-.2.5-.5.5M560,513.3c-.3,0-.5-.2-.5-.5s.2-.5.5-.5.5.2.5.5-.2.5-.5.5"/>
        <path class="st1" d="M395,681.4c-.3,0-.5.2-.5.5s.2.5.5.5.5-.2.5-.5-.2-.5-.5-.5"/>
        <path class="st1" d="M420.9,685c-.1,0-.2,0-.2.2s.1.2.2.2.2,0,.2-.2-.1-.2-.2-.2"/>
        <path class="st1" d="M396.5,684.1c-.1,0-.2,0-.2.2s.1.2.2.2.2,0,.2-.2-.1-.2-.2-.2"/>
        <path class="st1" d="M438.4,683.9c-.7.7,0,.7.3.7.7,0,.8-.4.6-.7-.2-.3-.6-.4-.9,0"/>
        <path class="st1" d="M540.9,595.7c-.1,0-.3-.3-.6,0-.4.3-.2.7,0,.9.2.2.7.2,1-.2.2-.2-.1-.4-.5-.7"/>
        <path class="st1" d="M545.5,596.3c.2-.7.5-.9.3-1.1-.1-.2-.4-.3-.7-.2-.3.1-.3.5-.2.9-.2.7.2,1.2.5.5"/>
        <path class="st5" d="M208.1,588.7c-1.4-2.1-2.5-4.2-4.2-5.6-1.3-1.1-2-2.4-3.1-3.6-5.2-5.7-9.5-13.4-11.6-20.9-.8-2.7-1.1-5.2-1.8-8l-.8-3.2c-1.2-5.2-.3-10.9.3-16.4l.9-8.8,1.1-10.4c.2-1.9,1.1-3.8,1.2-5.8.1-2.9,1.6-4.6,2.7-8.4,1.3-4.5,3.3-8.2,5.4-12.3,3.9-7.8,8.9-14.5,14.3-21.3,8-10.1,8.3-9.3,17.4-17.3,6.6-5.8,14-10,22.6-12,6.5-1.5,17.8-3.4,24.2-3,11.4.9,21.6,3.1,31.7,8.1l5.3,2.6c12.7,6.3,20,12.5,27.1,25l1.4,2.5c1.3,2.3,1.9,4.8,3,7.2,5.8,12.3,4.9,25.7,3.2,38.9l-1,8.3c-1.2,9.4-4.8,23.8-9.2,32.1-.3.6-1.3,1.1-1.5,1.6-.9,2.5-5.8,9.5-7.8,11.8l-7.3,8.2c-2.1,2.3-7,6.6-10.2,7.9-.7.3-1.7,1.2-2.5,1.8-3,1.9-6,3.4-9.1,5.1-8.7,4.8-17.7,8.5-27.2,11.4-3.3,1-6.3,1.3-9.5,2.1-4.5,1-8.8,1.4-13.4,1.7-7.1.5-14.2,0-20.8-3-3.4-1.6-6.3-3.2-9.1-5.7-2.1-1.9-4.6-3.3-6.6-5.4-1.8-1.9-3.1-4.3-5.4-5.3M214.8,587.4c.6,3.5,6.8,6.2,8.2,9.9,4.8,1.9,5.9,3.8,11.3,5.6,3.4,1.1,6.8.5,10.3,1,2.2.3,4,.2,6.1.1,5.9-.3,21.2-3.5,25.9-5.5l11.5-4.9c14.1-6,24.2-10,34.3-22l5.3-6.2c1.4-1.7,2.3-3.5,3.7-5.2,5.1-6.3,8.5-17.6,10.4-25.5.6-2.5.8-5.2,1.1-7.8l.9-8.8.8-5.9c.5-3.9,1.2-7.8,1.1-11.9-.3-11.2-3.8-21.6-8.5-31.6-3.1-6.5-7.8-11.5-13.5-15.8-1.5-1.1-2.7-2.5-4.3-3.2l-10.9-5.1c-8.7-4.1-17.7-7.4-27.4-8.9-2.9-.4-11.5-.3-14.7,0-8,1-18.8,4.3-25.7,8.3-3.9,2.2-7.2,4.6-10.6,7.6-2.1,1.8-4.3,3.3-6.2,5.4l-7.7,8.7c-2.5,2.8-4.1,6.1-6.5,9-1.7,2-2.5,4.2-3.8,6.5l-5.3,9.8c-1,1.9-1.6,4-2.7,5.8-1.6,2.6-3.6,8.2-4.1,11.5l-.8,5.8c-.6,4.1-.9,7.9-1.3,12-.6,6-1.6,11.7-1.1,17.7.3,3.3,1.2,6.3,2,9.5,1.2,4.9,3.4,9.2,6.2,13.4l5.1,7.7c2.6,4,6.9,10,11,13"/>
        <path class="st5" d="M500.9,453.9c-.3,0-.7,0-1-.2-4.2-3.6-13.9-12.5-20.2-12l-5.3.4c-2.2.2-3.6-.2-5.5-1.2-1.9-1-4.7.1-6.8.2-7.4.2-20.8,5.3-27.3,8.8-12.9,6.9-24.7,15.4-34.4,26.2-5.2,5.8-9.1,12.2-11.6,19.5-4.3,12.1-6.9,24.5-7.1,37.4-.1,6.5.6,12.6,0,18.9-1,9.9-.7,22,8.2,28.2,1.8,1.3,4.1,1.3,6.2,1.8,10.3,1.9,11.9,5.4,25.2,7.2,9.5,1.3,18.8,1.5,28.4.9,8.1-.6,15.6-2.1,23-5.6,14.1-6.8,28.7-16.7,38.2-29.1,8-10.3,12.8-26.1,13.5-39.1.1-2.3.3-4.2,0-6.6-2.4-20.7-7.8-37.7-21.7-53.4-.6-.7-1.6-.9-1.6-2.1,8.6,6.8,13.8,16.9,17.8,27.1,3.2,8.2,4.9,16.7,6,25.5,2,15.7-3.5,34.6-12.1,47.9-1.3,2.1-3.1,4-4.7,5.8l-2.7,3-5.9,5.2c-2.8,2.5-5.6,4.4-8.7,6.5-1.3.8-2.2,1.9-3.7,2.5-1.2.5-2.4,1.4-3.6,2.1-5.2,3.3-10.5,5.9-16.4,8-8,2.8-16.3,3.4-24.8,3.7-3.1.1-5.8.5-9,0-6-1-12.1-.7-18-2.2-7.1-1.8-13.6-5.1-20.9-6.4-4-.7-7.3-2.6-9.5-6.1-1-1.5-2.2-3.2-2.8-5-2.1-6.7-2.2-13.2-1.4-20,1.4-11.1-1.7-18.1,1.7-34.8l2.6-13c1.2-5.7,3.6-10.7,6.1-16,1.5-3.3,3.9-6,5.9-9.1,2.2-3.3,9.6-10,12.8-13,10.1-9.2,33.9-23.5,46.5-24.8l6.1-.6c11-1.1,4.9,1.9,15,.8,2-.2,3.4-.4,5.3.3,6.3,2.2,11.8,5.8,16.4,10.6.7.7,1.9,1,1.8,2.1"/>
        <path class="st5" d="M214.8,587.4c1.3.4,3.7,4.3,5.3,4.5.3.5.9.8,1.2,1.2,4.2,5.4,10.8,8.9,17.9,9.8,8,1,15.6.5,23.5-1.4,11.4-2.8,22.1-7,32.7-12,7.8-3.6,15.1-7.5,21.5-13.2,4.1-3.7,7.3-7.9,10.7-12.4,6.4-8.4,10.9-17.6,12.9-28.1,1.2-6.5,2.6-21.2,3.5-28.8l.8-7.1c.5-4.3-3-16.9-4.5-21.2-4.4-12-7.3-17.2-17.3-25.2-4.7-3.8-10.1-6-15.6-8.4-7.1-3-13.9-6.2-21.6-7.6-13.7-2.5-27.9-.6-40.5,5.3-6.4,3-11.6,7.2-16.9,11.6-3.3,2.6-6,5.5-8.6,8.8-4.4,5.7-9,11-12.4,17.4-4.1,7.7-8.5,14.9-11.1,23.3-2.4,7.8-5.4,31.7-4.8,39.5,1.3,16.9,13.8,31.5,23.4,44.1-4.1-3-8.3-9-11-13l-5.1-7.7c-2.8-4.2-5-8.4-6.2-13.4-.8-3.2-1.7-6.2-2-9.5-.6-6,.5-11.7,1.1-17.7.4-4.1.8-7.9,1.3-12l.8-5.8c.5-3.2,2.5-8.9,4.1-11.5,1.1-1.8,1.6-3.9,2.7-5.8l5.3-9.8c1.2-2.3,2.1-4.5,3.8-6.5,2.4-2.9,4.1-6.2,6.5-9l7.7-8.7c1.9-2.1,4.1-3.6,6.2-5.4,3.4-2.9,6.7-5.3,10.6-7.6,6.9-4,17.7-7.3,25.7-8.3,3.2-.4,11.8-.5,14.7,0,9.6,1.5,18.6,4.8,27.4,8.9l10.9,5.1c1.7.8,2.9,2.1,4.3,3.2,5.7,4.3,10.4,9.3,13.5,15.8,4.7,10,8.2,20.5,8.5,31.6.1,4-.5,8-1.1,11.9l-.8,5.9-.9,8.8c-.3,2.6-.5,5.3-1.1,7.8-1.8,7.9-5.2,19.2-10.4,25.5-1.4,1.7-2.3,3.5-3.7,5.2l-5.3,6.2c-10.1,11.9-20.2,16-34.3,22l-11.5,4.9c-4.8,2-20,5.3-25.9,5.5-2.1,0-3.9.1-6.1-.1-3.4-.4-6.9.2-10.3-1-5.4-1.8-6.5-3.7-11.3-5.6-1.4-3.7-7.6-6.4-8.2-9.9"/>
        <path class="st1" d="M500.9,453.9c0,1.2,1,1.4,1.6,2.1,13.9,15.7,19.3,32.7,21.7,53.4.3,2.4.1,4.3,0,6.6-.7,13-5.5,28.8-13.5,39.1-9.6,12.4-24.2,22.3-38.2,29.1-7.3,3.5-14.8,5.1-23,5.6-9.6.7-18.9.4-28.4-.9-13.4-1.8-14.9-5.3-25.2-7.2-2.1-.4-4.4-.5-6.2-1.8-8.9-6.2-9.2-18.3-8.2-28.2.6-6.3,0-12.4,0-18.9.3-12.9,2.9-25.3,7.1-37.4,2.6-7.3,6.5-13.7,11.6-19.5,9.8-10.9,21.5-19.4,34.4-26.2,6.5-3.5,20-8.6,27.3-8.8,2.1,0,4.9-1.2,6.8-.2,1.9,1,3.4,1.4,5.5,1.2l5.3-.4c6.3-.5,16,8.4,20.2,12,.3.3.8.2,1,.2M449.2,588.6c5.9-.2,11.3-1.1,16.6-3.1,4.7-1.8,9.1-3.6,13.4-6.2,2.6-1.6,5.2-2.9,7.7-4.6,3.1-2.2,6.3-4.2,9.3-6.8,1.5-1.3,2.6-2.6,4.1-3.9l2.9-2.5c5.5-4.7,11.5-13.5,14.1-20.5.8-2.2,1.6-4.4,2.2-6.7.6-2.4,0-6.4,1.3-7.6,0,1.3.4,1.5.9.6l.6-4.7c1.1-8.1.7-15.8-1-23.8-1.9-9-2.8-14.3-7.3-22.6-3.2-6-2.5-6.9-7.7-13.3-2.2-2.6-4-5.3-6.5-7.7-3.4-3.2-6.8-6.2-10.9-8.6-1-.6-1.7-1.5-3-1.9-1.8-.5-3.7-2.2-5.8-2-2.3.2-4.5.4-6.7.1l-7.1-.9c-3.5-.4-7.2.4-10.8,1-5.4.9-15.1,5.5-20.5,7.9-3.1,1.4-5.7,3.5-8.6,5.1-11,6.1-31.3,23.6-34.8,35.4-.6,2.1-5.6,12-6.4,19.7l-.5,4.9c-.6,6.3-2.1,12.4-2.1,18.7v12.2c0,9.7-1.9,14.1,1.4,23.1.9,2.4,1.7,4.5,3.5,6.4,3.9,4.3,10.1,4.2,10.9,4.5l10.3,3.6c1.9.7,3.5,1.5,5.4,2.1,8,2.5,26.1,2.4,35.2,2.1"/>
        <path class="st1" d="M221.3,593.1c.2-.2.5-.4.8-.3.3,0,.4.5.7.8,1.8,2.2,4.3,3.4,6.6,4.9,4.8,3.2,10.3,3.5,15.9,3.7,11.8.3,22.7-2.7,33.5-7l7.7-3,6-2.8c3.1-1.4,6.1-2.6,9.1-4.2,7.8-4,14.9-9.2,20.3-16.2,2.7-3.5,5.3-6.5,7.7-10.1,5.5-8.2,8.2-15.2,10-25,1.3-7.1,2.5-14.2,2.9-21.5l.2-4.5.8-4.5c.6-3-1.3-12.6-2.2-16-1.5-5.9-3.7-11.9-6.4-17.1-2-3.7-2.3-5.1-5.6-8.4-5.1-5.2-8.9-9.4-15.7-12.4l-11.3-5c-1.6-.7-3-1.5-4.8-2l-6.7-2.1c-10.5-3.4-26.2-3.6-35.8-.1l-8.2,3c-2.4.9-4.5,2.2-6.8,3.4-2.8,1.4-11.7,8.7-13.9,11l-4.8,5-5.9,6.9-2.1,3.2c-2.2,3.4-4.5,6.5-6.5,9.9-1.1,1.8-1.6,3.8-2.8,5.5-2.6,3.8-3.8,8.3-6,12.3-1.4,2.6-2.1,5.2-2.6,8.2l-.9,4.9c-.6,3.7-1.3,7.2-1.4,10.9l-.2,7.8c0,2.4-.3,4.7-.4,7.1-.9,14.2,6.1,24.5,13.8,35.2l2.9,4.1c3.3,4.6,7.4,8.5,10.4,13.1-1.6-.2-4-4.1-5.3-4.5-9.6-12.6-22.1-27.2-23.4-44.1-.6-7.8,2.4-31.7,4.8-39.5,2.6-8.4,7.1-15.6,11.1-23.3,3.4-6.4,7.9-11.7,12.4-17.4,2.6-3.3,5.3-6.1,8.6-8.8,5.4-4.3,10.5-8.6,16.9-11.6,12.6-5.9,26.8-7.8,40.5-5.3,7.7,1.4,14.5,4.6,21.6,7.6,5.5,2.4,11,4.6,15.6,8.4,10,8.1,12.9,13.2,17.3,25.2,1.6,4.3,5.1,16.9,4.5,21.2l-.8,7.1c-.9,7.6-2.3,22.3-3.5,28.8-2,10.5-6.5,19.7-12.9,28.1-3.3,4.4-6.6,8.7-10.7,12.4-6.4,5.7-13.7,9.6-21.5,13.2-10.6,4.9-21.4,9.2-32.7,12-7.9,1.9-15.5,2.4-23.5,1.4-7-.9-13.6-4.4-17.9-9.8"/>
        <path class="st1" d="M221.3,593.1c-.3-.4-.9-.7-1.2-1.2-3-4.6-7.1-8.5-10.4-13.1l-2.9-4.1c-7.7-10.8-14.6-21-13.8-35.2.1-2.3.4-4.7.4-7.1l.2-7.8c0-3.7.8-7.2,1.4-10.9l.9-4.9c.5-3,1.2-5.6,2.6-8.2,2.1-4,3.3-8.5,6-12.3,1.2-1.7,1.8-3.7,2.8-5.5,2-3.5,4.3-6.6,6.5-9.9l2.1-3.2,5.9-6.9,4.8-5c2.1-2.2,11.1-9.5,13.9-11,2.2-1.2,4.4-2.5,6.8-3.4l8.2-3c9.6-3.5,25.3-3.3,35.8.1l6.7,2.1c1.7.5,3.1,1.3,4.8,2l11.3,5c6.8,3,10.6,7.2,15.7,12.4,3.2,3.3,3.6,4.7,5.6,8.4,2.7,5.2,4.9,11.2,6.4,17.1.9,3.4,2.7,13,2.2,16l-.8,4.5-.2,4.5c-.4,7.3-1.6,14.4-2.9,21.5-1.9,9.8-4.5,16.8-10,25-2.4,3.6-5,6.7-7.7,10.1-5.4,7-12.5,12.2-20.3,16.2-3.1,1.6-6,2.8-9.1,4.2l-6,2.8-7.7,3c-10.8,4.3-21.7,7.3-33.5,7-5.6-.1-11.1-.5-15.9-3.7-2.3-1.5-4.8-2.8-6.6-4.9-.2-.3-.4-.7-.7-.8-.3-.1-.6.1-.8.3M291.4,570.3c2.1-.7,4.2-1,6.2-1.9,10.7-4.5,14.5-7.3,19.8-17.4,1.6-3.1,3.3-5.9,4.6-9.3,1.8-4.7,2.8-9.5,4.2-14.2.9-3.1,1.9-6.1,2.2-9.4.6-7.1.9-14.2-.6-21.2-.7-3.4-5-11.9-6.9-14.8-1.8-2.7-4-5.2-6.2-7.3l-9.2-8.7c-1.6-1.5-3.4-2.9-5.3-4l-4.2-2.4c-8.1-4.6-17.1-6.4-26.6-6.4-6,0-11.6.5-17.4,2.2-3.7,1-7.2,1.9-10.5,4.2-5.8,4-10,9.9-13.7,15.9-1.2,1.9-2,3.3-2.8,5.4-1.2,3.2-2.7,6.1-3.7,9.5-1,3.3-2.1,6.5-2.8,10-.3,1.4.3,2.9-1,4,.3,3.4-.6,6.5-1.1,9.8l-1,7.1c-1.3,9.4,6.9,31.9,13.9,38.3,1.8,1.6,3.6,3.3,6,4.2,1.9.7,3.3,2.1,5,2.9.9.4,2.1.6,3.1,1,10.7,4,18.9,3.8,30.1,3.7,4.7,0,14.1.3,18-1.1"/>
        <path class="st1" d="M449.2,588.6c-9.1.3-27.2.4-35.2-2.1-1.9-.6-3.5-1.5-5.4-2.1l-10.3-3.6c-.8-.3-7-.2-10.9-4.5-1.7-1.9-2.6-4-3.5-6.4-3.2-9-1.3-13.4-1.4-23.1v-12.2c0-6.4,1.4-12.4,2.1-18.7l.5-4.9c.8-7.7,5.8-17.5,6.4-19.7,3.5-11.7,23.9-29.2,34.8-35.4,3-1.6,5.6-3.8,8.6-5.1,5.4-2.4,15-7,20.5-7.9,3.5-.6,7.3-1.4,10.8-1l7.1.9c2.2.3,4.4.1,6.7-.1,2.1-.2,3.9,1.5,5.8,2,1.4.3,2,1.3,3,1.9,4.1,2.4,7.5,5.4,10.9,8.6,2.5,2.4,4.3,5.1,6.5,7.7,5.2,6.4,4.5,7.2,7.7,13.3,4.5,8.3,5.4,13.6,7.3,22.6,1.7,8,2,15.6,1,23.8l-.6,4.7c-.5.8-.9.6-.9-.6-1.4,1.2-.8,5.2-1.3,7.6-.6,2.3-1.4,4.5-2.2,6.7-2.7,7-8.7,15.7-14.1,20.5l-2.9,2.5c-1.5,1.3-2.6,2.6-4.1,3.9-3,2.6-6.1,4.5-9.3,6.8-2.5,1.8-5.1,3-7.7,4.6-4.2,2.7-8.7,4.5-13.4,6.2-5.2,2-10.7,2.8-16.6,3.1M469.2,567.9c10.7-3.6,19.9-6.6,25.2-17.3,4.5-9.1,7.7-15.9,11-25.7,1.2-3.4,1.4-7.1,2.1-10.8.6-3.6.6-13.2-.1-16.3l-1.7-7c-.4-1.5-1.2-2.7-1.9-4-2.4-4.9-5.5-9-9-13.1-5.5-6.4-15-11.1-23.1-13.1-1.6-.4-3.3.1-4.9,0-7.7-.7-21.5-1.4-28.3,1.3-6,2.4-11,5.8-15.8,9.9-3.4,3-6.6,6.1-9.2,9.8-1.3,1.9-6.2,10.2-6.7,11.9-1.2,3.6-2.8,7.3-3.5,11.2-1.7,9.5-1.7,19.5,0,29.2,1.5,8.5,5.4,16,8.8,23.7,1.1,2.5,2.1,4.4,4,6.2,1.1,1.1,2.1,2.3,3.5,3.2,1.3.7,1.8,2.3,3.2,2.9,7.2,3.1,14.9,4.6,22.6,3.1,2.5-.5,5-.5,7.4-1l9.2-1.9c2.4-.5,4.6-1.5,7-2.3"/>
        <path class="st1" d="M291.4,570.3c-3.9,1.4-13.3,1.1-18,1.1-11.2,0-19.4.3-30.1-3.7-1-.4-2.1-.5-3.1-1-1.8-.8-3.2-2.2-5-2.9-2.4-.9-4.2-2.6-6-4.2-7-6.3-15.2-28.8-13.9-38.3l1-7.1c.4-3.3,1.4-6.4,1.1-9.8,1.3-1.1.7-2.6,1-4,.7-3.4,1.8-6.7,2.8-10,1-3.3,2.5-6.2,3.7-9.5.8-2.1,1.6-3.5,2.8-5.4,3.7-6,7.9-11.8,13.7-15.9,3.3-2.3,6.8-3.2,10.5-4.2,5.8-1.6,11.4-2.1,17.5-2.2,9.4,0,18.4,1.8,26.6,6.4l4.2,2.4c1.9,1.1,3.7,2.5,5.3,4l9.2,8.7c2.3,2.2,4.5,4.6,6.2,7.3,1.9,2.9,6.2,11.4,6.9,14.8,1.5,7,1.2,14,.6,21.2-.3,3.3-1.3,6.3-2.2,9.4-1.4,4.8-2.4,9.6-4.2,14.2-1.3,3.3-3,6.1-4.6,9.3-5.3,10.1-9.1,12.9-19.8,17.4-2,.8-4.1,1.1-6.2,1.9M233.4,560.7c4.1,4.7,19.4,9,25.4,9.1l27.3.3c7.4-1.5,14.4-3.6,20.5-8,4.3-3.1,7.1-7.5,9.6-12.1,1.8-3.3,3.7-6.5,4.8-10.2,4.8-15.3,9.7-28.1,4.7-44.5-2.1-6.8-5.9-12.3-10.3-17.6-2.7-3.2-5.9-5.6-8.8-8.6-9.7-9.8-22.3-14.7-36.1-14.6-8.9,0-17.7.6-25.8,4.6-4.3,2.1-7.5,5.7-10.5,9.3-4.2,5-7.3,10.3-9.8,16.4-2.7,6.6-4.8,13.3-5.8,20.4-.7,4.7-1.6,9.2-2,14-.7,7.9,1,15.7,4.2,22.9l3.6,8.1c1.9,4.2,4.6,7.8,8.9,10.5"/>
        <path class="st1" d="M469.2,567.9c-2.4.8-4.7,1.8-7,2.3l-9.2,1.9c-2.5.5-5,.5-7.4,1-7.7,1.5-15.4,0-22.6-3.1-1.4-.6-1.9-2.1-3.2-2.9-1.5-.8-2.4-2.1-3.5-3.2-1.9-1.8-2.9-3.7-4-6.2-3.4-7.7-7.3-15.2-8.8-23.7-1.8-9.7-1.7-19.7,0-29.2.7-3.9,2.2-7.6,3.5-11.2.6-1.7,5.4-10,6.7-11.9,2.6-3.8,5.8-6.9,9.2-9.8,4.8-4.1,9.8-7.5,15.8-9.9,6.8-2.7,20.6-2,28.3-1.3,1.6.1,3.3-.4,4.9,0,8.1,2.1,17.6,6.7,23.1,13.1,3.5,4.1,6.6,8.3,9,13.1.6,1.3,1.5,2.4,1.9,4l1.7,7c.8,3.1.8,12.7.1,16.3-.6,3.6-.9,7.4-2.1,10.8-3.4,9.8-6.6,16.6-11,25.7-5.3,10.7-14.5,13.7-25.2,17.3M423.4,567.9c5.5,4.2,13.2,5.4,20.4,4.5,11.4-1.5,22.3-4.1,32.9-8.4,5.6-2.3,10.7-5.6,14.4-10.4,3.8-4.9,5.8-10.6,8.2-16.2,3.8-8.7,6.7-17.3,7.6-26.9,2-22-14-44.4-35.7-48.5-5.3-1-22.2-1.5-27.4-.3-7.9,1.9-14.8,6-20.6,11.6-2,2-4,3.7-5.8,5.9-14.8,17.6-18.3,42.2-10.2,63.7,2.5,6.6,4.9,13,9,18.9,1.8,2.5,4.4,4.3,7.2,6.2"/>
        <path class="st5" d="M233.4,560.7c1.3-.2,2.1,1.1,3.3,1.6,2.1.9,4.1,1.8,6.1,2.8,2.9,1.5,6.2,1.8,9.3,2.8,4.2,1.3,14.2,1.6,18.6,1.4,2.5,0,4.6.7,7.1-.1,1.3-.4,2.8.5,4.2.3,7.8-.8,15-2.6,21.8-6.7,5.9-3.6,9.6-9.6,12.9-15.5,2.3-4.1,3.8-8.2,5.1-12.7l3.1-10.6c4.2-14.3,2.2-27.6-5.8-40.1-3.1-4.8-11.4-12.6-15.9-16.6-3.9-3.5-8.1-5.9-12.9-7.9-7.1-3-14.6-4.1-22.4-3.8-3,0-5.7,0-8.8.6-5,1.1-10.6,1.6-15,4.5-7.4,4.8-12.8,11.9-16.6,19.7-2.5,5.2-4.6,10.2-5.9,15.8-.6,2.8-1.6,5.4-2.1,8.2l-1.9,12c-1.1,7.2.1,16.1,2.9,22.8l3.5,8.5c1.6,3.9,3.7,7.4,6.7,10.3.8.8,2,1.2,2.6,2.7-4.3-2.7-7.1-6.2-8.9-10.5l-3.6-8.1c-3.2-7.2-4.9-15-4.2-22.9.4-4.8,1.3-9.2,2-14,1-7.2,3.1-13.8,5.8-20.4,2.5-6.1,5.6-11.3,9.8-16.4,3-3.6,6.2-7.2,10.5-9.3,8.1-3.9,16.9-4.5,25.8-4.6,13.9-.1,26.4,4.8,36.1,14.6,2.9,2.9,6.1,5.3,8.8,8.6,4.4,5.3,8.2,10.9,10.3,17.6,5,16.4.1,29.2-4.7,44.5-1.1,3.7-3,6.8-4.8,10.2-2.5,4.5-5.4,9-9.6,12.1-6.1,4.4-13.1,6.5-20.5,8l-27.3-.3c-6,0-21.3-4.4-25.4-9.1"/>
        <path class="st5" d="M423.4,567.9c7,2.8,11,4.1,19,3.4l3.3-.3c5.2-.5,10.3-.9,15.3-2.6l5.2-1.8c10.5-3.6,15.4-4.4,23.6-12.9,1.3-1.3,1.6-3.2,2.6-4.6,2-2.5,5.5-11.5,7-14.9,5.4-12.3,8-24,5.6-37.4-.9-4.9-3-8.9-5.4-13.1-1.7-3.1-4.2-5.3-6.3-8-2.1-2.8-4.3-4.8-7.3-6.6-4.9-3.1-11.5-6.4-17.5-6.6l-8.9-.4c-4.4-.2-8.6-.6-13,0-10.4,1.4-17.4,6.6-24.7,13.6-8,7.7-13.7,17.4-16.2,28.3-1.7,7.3-2.3,10.6-1.8,18.3.7,11.8,7.3,33.6,13,39.1l6.4,6.6c-2.8-2-5.4-3.7-7.2-6.2-4-5.8-6.5-12.3-9-18.9-8.1-21.5-4.6-46,10.2-63.7,1.8-2.2,3.8-3.9,5.8-5.9,5.8-5.5,12.7-9.7,20.6-11.6,5.1-1.2,22.1-.7,27.4.3,21.7,4.1,37.7,26.4,35.7,48.5-.9,9.6-3.8,18.2-7.6,26.9-2.5,5.7-4.5,11.3-8.2,16.2-3.6,4.8-8.8,8.1-14.4,10.4-10.6,4.3-21.5,7-32.9,8.4-7.2.9-14.9-.3-20.4-4.5"/>
        <path class="st5" d="M233.4,560.7c-.6-1.5-1.8-1.9-2.6-2.7-3-3-5.1-6.5-6.7-10.3l-3.5-8.5c-2.8-6.7-4-15.6-2.9-22.8l1.9-12c.4-2.8,1.4-5.4,2.1-8.2,1.3-5.6,3.4-10.6,5.9-15.8,3.8-7.8,9.3-14.9,16.6-19.7,4.5-2.9,10-3.4,15-4.5,3-.7,5.7-.5,8.8-.6,7.8-.2,15.3.8,22.4,3.8,4.8,2.1,9,4.4,12.9,7.9,4.5,4,12.8,11.8,15.9,16.6,8,12.5,10,25.8,5.8,40.1l-3.1,10.6c-1.3,4.5-2.9,8.6-5.1,12.7-3.3,6-6.9,12-12.9,15.5-6.8,4.1-14,5.9-21.8,6.7-1.4.1-3-.7-4.2-.3-2.6.8-4.7,0-7.1.1-4.5.2-14.4-.1-18.6-1.4-3.1-1-6.4-1.2-9.3-2.8-2-1.1-3.9-1.9-6.1-2.8-1.2-.5-2-1.8-3.3-1.6M232.5,552.8c1.4,5.9,18.1,11.8,23.6,11.8h25.7c8.6,0,19-3.5,23.7-10.8l5.3-8.4c2.3-3.7,4-7.3,5.7-11.2,2.6-6,5.3-12,5.9-18.7.7-7.5,0-14.9-2.3-21.8-2.7-5.3-5.7-9.8-9.7-13.9-1.4-1.4-2.6-3.1-4-4.4-9.6-8.4-17-12.4-29.7-14.5-4.2-.7-8.4-.3-12.6-.3-5,0-9.5,2-14.1,3.6-1,.3-1.2.2-2.1,1-6.5,5.4-8.2,5.9-12.8,13.3l-2.2,3.5c-2.3,3.7-6.5,14.3-7.6,18.5-3.4,12.8-6,25.8-.9,38.4,1.5,3.7,4.9,12.3,8.2,14"/>
        <path class="st5" d="M423.4,567.9l-6.4-6.6c-5.6-5.5-12.2-27.3-13-39.1-.5-7.7.1-10.9,1.8-18.3,2.5-10.9,8.1-20.6,16.2-28.3,7.3-7,14.3-12.2,24.7-13.6,4.3-.6,8.6-.1,13,0l8.9.4c6,.2,12.6,3.5,17.5,6.6,3,1.9,5.1,3.9,7.3,6.6,2.1,2.7,4.6,5,6.3,8,2.4,4.2,4.5,8.2,5.4,13.1,2.4,13.4-.2,25-5.6,37.4-1.5,3.4-5,12.3-7,14.9-1,1.3-1.3,3.2-2.6,4.6-8.2,8.5-13.1,9.3-23.6,12.9l-5.2,1.8c-5,1.7-10.1,2.1-15.3,2.6l-3.3.3c-8,.8-12.1-.5-19-3.4M424.2,562.1c.5,2.7,11.2,5.3,13.9,5.4,7.6.3,10.4-1.2,17.9-2.9l6.1-1.4c5.6-1.3,16.3-5,20.9-8.5,6-4.7,8.9-12.5,11.6-19.3l3.7-9.2c1.2-3.1,2-6.3,2.8-9.5,1.6-6,1.9-12.2,0-18.1-1.1-3.6-2.3-6.9-4.5-10.1-2.8-4.1-5.2-8.5-9.3-11.6-12.5-9.6-32.6-15-47.2-9.4-14.5,5.6-24.9,20.8-29.5,35-2.7,8.3-3.6,19.9-2,28.3,1.7,8.3,5.1,16,8.9,23.5,1.6,3.1,3.3,6.6,6.7,7.8"/>
        <path class="st5" d="M232.5,552.8c1.4.8,2.2,2.4,3.6,3.4,7.7,5.5,17,8.2,26.5,7.5.9,0,7.7.9,13.4.4,8.6-.8,7.8.5,17-2.4,5.8-1.8,9.8-5.6,13.1-10.6,4.3-6.5,7.6-13.3,10.9-20.5,6.6-14.3,7-31.2-2.1-44.4-2.7-4-6.1-7.1-9.4-10.5-5.2-5.2-11.1-8.9-18-11.3-21.5-7.5-43.7-3-54.1,18.9-3.1,6.5-6.2,12.9-7.9,19.9-1.3,5.2-2.4,10.3-2.9,15.6-1.3,12.1,3.6,24,10.1,33.8-3.3-1.8-6.7-10.3-8.2-14-5.1-12.6-2.5-25.5.9-38.4,1.1-4.2,5.3-14.8,7.6-18.5l2.2-3.5c4.7-7.5,6.4-7.9,12.8-13.3.9-.7,1.1-.6,2.1-1,4.6-1.6,9.1-3.5,14.1-3.6,4.3,0,8.5-.4,12.6.3,12.8,2.1,20.1,6.1,29.7,14.5,1.4,1.3,2.6,3,4,4.4,4.1,4.2,7,8.7,9.7,13.9,2.3,6.9,3,14.3,2.3,21.8-.6,6.7-3.3,12.6-5.9,18.7-1.7,4-3.4,7.6-5.7,11.2l-5.3,8.4c-4.6,7.3-15.1,10.9-23.7,10.9h-25.7c-5.4,0-22.1-5.9-23.6-11.9"/>
        <path class="st5" d="M424.2,562.1c6.5,3.7,13.6,5.4,21.4,3.9,10.4-2,20.5-4.7,30.4-8.4,5.5-2.1,9.5-6,12.3-10.9,3-5.4,5.1-10.8,7.4-16.5,2.4-5.8,4.6-11.4,5.3-17.7.5-4.5.8-8.8-.6-13.2-2.6-8-7-15.2-13.1-20.9-3-2.8-6.2-4.6-9.8-6.4-12.6-6.1-28.7-8.3-41.5-1.6-3.5,1.8-6.3,4.3-9,7-10.1,10-16.2,22.6-17.8,36.7-1.9,16.8,2.5,25.6,9.5,40.5,1.4,2.9,3.2,5.2,5.5,7.4-3.4-1.2-5.1-4.7-6.7-7.8-3.8-7.6-7.3-15.2-8.9-23.5-1.7-8.4-.7-20,2-28.3,4.6-14.2,15-29.4,29.5-35,14.6-5.6,34.8-.2,47.2,9.4,4,3.1,6.5,7.5,9.3,11.6,2.2,3.2,3.4,6.5,4.5,10.1,1.9,6,1.6,12.2,0,18.1-.9,3.2-1.6,6.4-2.8,9.5l-3.7,9.2c-2.8,6.8-5.6,14.7-11.6,19.3-4.5,3.5-15.2,7.2-20.9,8.5l-6.1,1.4c-7.4,1.7-10.2,3.3-17.9,2.9-2.7-.1-13.4-2.7-13.9-5.4"/>
        <path class="st1" d="M232.5,552.8c-6.4-9.8-11.4-21.7-10.1-33.8.6-5.3,1.6-10.4,2.9-15.6,1.8-7.1,4.9-13.4,7.9-19.9,10.4-21.9,32.6-26.3,54.1-18.9,6.9,2.4,12.9,6.1,18,11.3,3.4,3.4,6.7,6.5,9.4,10.5,9.1,13.1,8.7,30.1,2.1,44.4-3.3,7.1-6.6,13.9-10.9,20.5-3.3,4.9-7.3,8.8-13.1,10.6-9.1,2.9-8.4,1.5-17,2.4-5.7.5-12.5-.5-13.4-.4-9.5.7-18.8-2.1-26.5-7.5-1.5-1-2.2-2.7-3.6-3.4M299.4,556.9c3.8-3.8,7.1-7.9,9.4-12.7,1-2.2,2.6-4,3.5-6.1l1.6-3.6,4-9.4c1.3-3.2,2.5-6.7,2.6-10.2v-5.6c.3-4.2-1.2-9.9-2.5-14-.5-1.6-1.1-2.5-2-3.9l-3.5-5.7c-3.4-5.5-11.9-12.5-18-16.2-6.6-4.1-13.5-5.9-21.2-6.6-7.5-.7-14.8-.2-21.8,3.1-5.9,2.8-10.8,7.6-14.3,13-.9,1.4-1.9,2.6-2.6,4-3.9,7.9-7.4,15.9-9.2,24.5-.6,3.2-1.8,6.2-1.8,9.4v11c-.1,2.3,1.1,4.3,1.4,6.3.7,4.5,4.9,11.6,7.1,15.7,2.2,4,5.9,6,9.7,8.2,5.4,3.1,10.7,4.6,17,4.8,7.5.2,14.9.5,22.3,0l5.9-.4c2.7-.2,5-1.8,7.3-2.6,1.8-.7,3.4-1.4,5-3"/>
        <path class="st1" d="M424.2,562.1c-2.3-2.2-4.1-4.5-5.5-7.4-7.1-15-11.4-23.7-9.5-40.5,1.6-14.1,7.6-26.7,17.8-36.7,2.7-2.7,5.6-5.2,9-7,12.8-6.7,28.9-4.5,41.5,1.6,3.6,1.7,6.8,3.6,9.8,6.4,6.1,5.7,10.5,13,13.1,20.9,1.4,4.3,1.2,8.7.6,13.2-.8,6.3-3,11.9-5.3,17.7-2.3,5.7-4.4,11.2-7.4,16.5-2.8,5-6.8,8.8-12.3,10.9-9.8,3.8-20,6.4-30.4,8.4-7.7,1.5-14.9-.2-21.4-3.9M476.1,556.2c5.2-2,9.6-7.3,12-12l3.3-6.3c1.4-2.7,1.4-8.6,3.4-8.3,0-2.2,1.6-3.8,2-5.8,1.9-7.9,4.2-12,3.2-20.6-.2-2.1-3.4-10.4-4.5-12.4-2.5-4.3-5.5-8.5-9.2-12-2.1-2-10.6-6.5-13.6-7.7-5.5-2.1-11.4-3.1-17.2-3.6-12.9-1.1-25.9,6.4-32.8,16.7l-5.3,8c-3.2,4.8-7,16.4-7.2,22.5l-.3,7.6c-.4,9.3,4.4,20.7,8.7,28.9,3.4,6.6,2.8,7.5,8.2,10.8,8.8,5.4,17.3,3.2,25,1.5l5.5-1.2,8.1-2.1c3.7-1,7.2-2.5,10.9-3.9"/>
        <path class="st1" d="M299.4,556.9c-1.6,1.6-3.2,2.3-5,3-2.4.9-4.7,2.5-7.3,2.6l-5.9.4c-7.5.5-14.9.2-22.3,0-6.3-.2-11.6-1.7-17-4.8-3.8-2.2-7.6-4.2-9.7-8.2-2.2-4.1-6.4-11.2-7.1-15.7-.3-2-1.5-4-1.5-6.3v-11c.2-3.2,1.3-6.2,2-9.4,1.7-8.6,5.3-16.6,9.2-24.5.7-1.4,1.7-2.6,2.6-4,3.5-5.5,8.5-10.2,14.3-13,7-3.3,14.3-3.8,21.8-3.1,7.7.7,14.6,2.5,21.2,6.6,6,3.7,14.5,10.7,18,16.2l3.5,5.7c.9,1.4,1.5,2.4,2,3.9,1.3,4,2.7,9.7,2.6,14v5.6c-.2,3.4-1.4,6.9-2.7,10.2l-4,9.4-1.6,3.6c-1,2.2-2.5,4-3.5,6.1-2.3,4.8-5.5,8.9-9.4,12.7M289.4,536.4c5-2.1,10.2-5,13-10,4.3-7.6,5.1-16.7,3.4-25.1-.3-1.3-1.2-2.9-1.3-4.1,0-.7-1.1-1.9-1.4-2.5l-1.9-3.3c-.9-1.6-7.5-7.2-9.8-8.8-2.1-1.4-4.5-2.3-6.8-3.4-5.8-2.9-17-2.4-22.8-.3-4.6,1.7-8.2,4.2-11.4,7.7-1.5,1.6-2.6,2.9-3.6,5-.7,1.5-2,2.8-2.4,4.6-2.6,11.2-4.6,19.4.3,29.9.6,1.3,6.4,8.4,6.6,8.5,1.5.9,2.7,2.5,4.3,3.2,9.3,4,8.9,2.9,18.3,2.9,3.9,0,11.8-2.7,15.5-4.3"/>
        <path class="st1" d="M476.1,556.2c-3.7,1.4-7.2,2.9-10.9,3.9l-8.1,2.1-5.5,1.2c-7.8,1.7-16.2,3.9-25-1.5-5.5-3.4-4.8-4.2-8.2-10.8-4.3-8.2-9.1-19.5-8.7-28.9l.3-7.6c.3-6,4-17.7,7.2-22.5l5.3-8c6.9-10.3,19.9-17.8,32.8-16.7,5.8.5,11.7,1.5,17.2,3.6,3,1.2,11.5,5.7,13.6,7.7,3.7,3.5,6.7,7.7,9.2,12,1.2,2,4.3,10.2,4.5,12.4,1,8.7-1.4,12.7-3.2,20.6-.5,2-2,3.6-2,5.8-2-.3-2,5.6-3.4,8.3l-3.3,6.3c-2.4,4.6-6.8,9.9-12,12M480.5,535c1.1.3,1.4-.8,2-1.5,4.2-5.4,5.9-11.5,6.8-18.2.8-6.5-.4-14.1-3.6-20-6.3-11.6-15.5-11.4-28.1-9.3l-6.4,1.1c-6.1,1-11.9,3.1-16,7.8-5.2,5.9-7.9,21.5-6.8,25.4l1,3.6c.4,1.6.6,3.7,1.2,5.2,4,9.8,7.3,15.3,18.2,17.6,5.8,1.2,11.1.7,16.9-.9,5.8-1.9,11.4-5.6,14.8-10.9"/>
        <path class="st1" d="M289.4,536.4c-3.7,1.6-11.7,4.3-15.5,4.3-9.4,0-9.1,1.1-18.4-2.9-1.6-.7-2.8-2.3-4.3-3.2-.2,0-6-7.2-6.6-8.5-5-10.5-3-18.8-.3-30,.4-1.9,1.7-3.1,2.4-4.6.9-2.1,2.1-3.4,3.6-5,3.2-3.5,6.8-6,11.4-7.7,5.9-2.1,17-2.5,22.8.3,2.3,1.1,4.7,2,6.8,3.4,2.3,1.5,8.9,7.2,9.8,8.8l1.9,3.3c.4.6,1.4,1.8,1.4,2.5,0,1.2,1,2.7,1.3,4.1,1.8,8.4,1,17.5-3.4,25.1-2.8,5-8.1,7.9-13,10M298.2,490.7c-8.4-11.8-27.7-16.6-40.5-8.6-5.2,3.2-9.1,7.3-11.4,13-2.5,6.2-4.1,12.9-3.7,19.7.4,6.2,3.5,11.5,7.2,16.3,10,12.7,27.5,9.7,40.4,3.6,9.4-4.4,13.5-8.9,14.7-19.5,1.2-10.3,0-16.3-6.7-24.4"/>
        <path class="st1" d="M480.5,535c.3-.5.3-1.2.8-1.8,3.8-4.8,5.6-10.3,6.7-16.4,1.6-9.1-.7-18.8-6.8-25.8-3.9-4.5-11.5-5.7-17.2-4.9l-13.5,2.1c-4.5.7-8.9,2.4-12.4,5.4-2.7,2.3-4.4,5.6-5.6,8.9-4.4,11.3-3.5,26.3,4.6,35.7.6.6.7,1.6,1.7,2.4,13.7,10.8,30.4,5.7,41.7-5.5-3.3,5.3-9,9-14.8,10.9-5.8,1.6-11.1,2.1-16.9.9-10.9-2.3-14.2-7.8-18.2-17.6-.6-1.6-.8-3.6-1.2-5.2l-1-3.6c-1.1-3.9,1.6-19.5,6.8-25.4,4.1-4.7,10-6.8,16-7.8l6.4-1.1c12.6-2.1,21.8-2.3,28.1,9.3,3.2,5.9,4.5,13.4,3.6,20-.9,6.7-2.5,12.8-6.8,18.2-.6.7-.9,1.8-2,1.5"/>
        <path class="st5" d="M298.2,490.7c-2.5-1.3-4.3-3.6-6.7-5.4-5-3.6-10.6-6.2-16.8-6.3-5.7-.1-10.9.6-15.8,3.4-6.3,3.6-10.9,8.8-13,16-1.7,6-3.4,12.5-2.2,18.9,1.2,6.6,5.5,12.2,10.1,16.8,4.9,4.9,15.5,5.6,22.2,4.2,7.3-1.5,14.4-3.8,20.4-8.4,1.4-1.1,2.8-2.7,3.8-4.1,2.7-3.6,3.2-8,3.7-12.4.8-7.2-.4-14.3-4.8-20.1-.5-.6-.9-1.2-1.1-2.5,6.7,8.1,7.9,14.1,6.7,24.4-1.2,10.7-5.3,15.1-14.7,19.5-12.9,6.1-30.4,9.1-40.4-3.6-3.7-4.7-6.9-10.1-7.2-16.3-.4-6.8,1.2-13.5,3.7-19.7,2.3-5.7,6.2-9.8,11.4-13,12.8-8,32.1-3.2,40.5,8.6"/>
        <path class="st5" d="M480.5,535c-11.4,11.2-28,16.3-41.7,5.5-.9-.7-1.1-1.7-1.7-2.4,9.8,9,22.2,9.4,34,3,2.2-1.2,3.7-2.8,5.5-4.4,6.6-5.9,9.9-12.8,10.9-21.7,1-8.8-1-15.2-5.8-22.4-2.5-3.7-6.8-5.5-11.4-5.9-4.5-.5-8.9.5-13.4,1.4-3.7.7-7.5.9-11,2.4-2.4,1.1-5.2,2.1-7.3,3.9-2.8,2.4-4.6,6.2-5.7,9.6-2.2,7-2.2,9.6-1.9,17.2.3,5.3,3.6,11.9,6.2,16.9-8-9.3-9-24.3-4.6-35.7,1.3-3.2,2.9-6.6,5.6-8.9,3.5-3,7.9-4.7,12.4-5.4l13.5-2.1c5.6-.9,13.3.4,17.2,4.9,6,7,8.4,16.7,6.8,25.8-1.1,6.1-2.9,11.7-6.7,16.4-.5.7-.5,1.4-.8,1.8"/>
        <path class="st5" d="M298.2,490.7c.1,1.3.6,1.9,1.1,2.5,4.5,5.8,5.7,12.9,4.8,20.1-.5,4.4-1,8.8-3.7,12.4-1.1,1.4-2.4,3-3.8,4.1-6.1,4.6-13.1,6.9-20.4,8.4-6.7,1.4-17.3.7-22.2-4.2-4.6-4.6-8.9-10.2-10.1-16.8-1.2-6.3.5-12.9,2.2-18.9,2.1-7.1,6.7-12.4,13-16,4.9-2.8,10-3.5,15.8-3.4,6.2.1,11.8,2.7,16.8,6.3,2.4,1.7,4.2,4.1,6.7,5.4M257.4,531.1c.7,2.6,7.7,4,10.6,4.1,9,.5,17.4-2.4,25.1-7,3.2-1.9,5.6-4.5,6.5-8.2,2.5-10.1,1.6-20.5-6.3-27.9-4.2-4-9.4-6.9-14.9-8.5-7.8-2.2-15.4-.2-21.6,4.9-5.2,4.2-7.7,10.6-8.8,17.2-2.6,9.5.5,20.5,9.4,25.4"/>
        <path class="st5" d="M437.1,538.1c-2.5-5-5.9-11.6-6.2-16.9-.4-7.6-.4-10.1,1.9-17.2,1.1-3.5,2.9-7.3,5.7-9.6,2.1-1.8,4.9-2.8,7.3-3.9,3.5-1.5,7.3-1.7,11-2.4,4.5-.9,8.9-1.8,13.4-1.4,4.6.5,8.9,2.3,11.4,5.9,4.9,7.2,6.8,13.6,5.8,22.4-1,8.8-4.3,15.8-10.9,21.7-1.8,1.6-3.2,3.2-5.5,4.4-11.7,6.4-24.2,6-34-3M469.8,537.1c3.8-2.3,8-5.7,9.9-9.6,1.2-2.5,2.3-4.7,3-7.4,1.2-4.6,2.1-9.3,1.1-14-.4-2.1-1.4-4-2-6-1.4-4.9-4.9-8.5-10.1-9.5-1.7-.3-4-.9-5.8-.6l-12.7,1.8c-4.2.6-7.7,1.7-11.1,4-1.7,1.2-3.1,2.3-4.2,4.2-3.1,5.6-4.5,14.1-3.7,20.5l.8,6.2c.4,3.1,2.5,5.6,4.6,8.1,7.8,9.5,20.1,8.4,30.1,2.3"/>
        <path class="st5" d="M257.4,531.1c10.9,6.9,29.4,1.7,38.7-6.5,2.7-2.4,3.1-6.5,3.6-9.8,1.3-8.1-1-16.3-7-22-3.7-3.6-8.2-6.1-12.9-8-7.6-3-19.9,0-25.3,7.6-5,7-7.3,15.9-6,24.4.9,5.9,4.9,10.4,9,14.4-8.8-4.9-11.9-15.9-9.4-25.4,1.1-6.6,3.6-13,8.8-17.2,6.2-5.1,13.9-7.1,21.6-4.9,5.5,1.6,10.7,4.5,14.9,8.5,7.9,7.5,8.8,17.8,6.3,27.9-.9,3.8-3.4,6.4-6.5,8.2-7.7,4.5-16.1,7.4-25.1,7-2.9-.2-9.9-1.6-10.6-4.1"/>
        <path class="st5" d="M469.8,537.1c-9.9,6-22.3,7.1-30.1-2.3-2-2.5-4.2-5-4.6-8.1l-.8-6.2c-.9-6.4.6-14.9,3.7-20.5,1.1-1.9,2.5-3,4.2-4.2,3.4-2.3,7-3.5,11.1-4l12.7-1.8c1.9-.3,4.1.3,5.8.6,5.1,1,8.6,4.6,10.1,9.5.6,2,1.5,3.9,2,6,1,4.7,0,9.4-1.1,14-.7,2.7-1.8,4.9-3,7.4-1.9,3.9-6.1,7.3-9.9,9.6M480.5,523.5c3.7-9,3.7-18.4-1.5-26.8-4.4-7.1-12.5-5.7-19-4.9-7.3.8-16.9,1.8-21.1,8.7-4.7,7.9-5.6,20.6-1.5,29,2.1,4.3,5.4,8.1,10,9.9,12.6,4.7,27.9-3.5,33.1-15.9"/>
        <path class="st1" d="M257.4,531.1c-4-4-8.1-8.5-9-14.4-1.2-8.5,1-17.4,6-24.4,5.4-7.5,17.7-10.6,25.3-7.6,4.8,1.9,9.2,4.4,12.9,8,5.9,5.7,8.2,13.9,7,22-.5,3.3-.9,7.5-3.6,9.8-9.3,8.2-27.8,13.4-38.7,6.5M281.9,531.2c.1,0,7.5-3.6,8.4-4,4.3-1.8,6.8-5,7.8-9.4,1.9-8.4.9-14.7-4-21.6-2.4-3.5-5.4-5.5-9-7.6-5.8-3.4-12-4.9-18.7-3.1-1.9.5-3.9,1.6-5.7,2.6-1.1.6-1.7,1.9-3.3,2.1-4.6,5.2-7.5,11.6-7.9,18.6-.2,3.9-.6,7.5,1.1,11.6,1.7,3.8,4.6,7.2,8.1,9.7,8.2,5.8,16.5,2,23.2,1"/>
        <path class="st1" d="M480.5,523.5c-5.2,12.5-20.5,20.7-33.1,15.9-4.6-1.7-7.9-5.6-10-9.9-4.2-8.5-3.3-21.2,1.5-29,4.2-7,13.8-7.9,21.1-8.7,6.5-.7,14.6-2.2,19,4.9,5.2,8.4,5.2,17.8,1.5,26.8M457.9,539.3c4.1-.8,7.8-2.5,11.5-4.4,2.8-1.5,4.9-3.9,6.9-6.5,9.7-12.8,6.1-33.9-5.1-35.8-4.5-.8-8.8,0-13.2.5-6.1.7-12.6,1.6-16.8,6.4-4.2,4.8-5.1,10.8-5,16.9.1,7.2.3,10.6,4.8,16.4,2.6,3.3,5.2,5.2,9.4,6,2.3.4,4.7,1,7.5.6"/>
        <path class="st1" d="M281.9,531.2c-6.7,1-15,4.8-23.2-1-3.4-2.5-6.4-5.8-8.1-9.7-1.8-4.1-1.3-7.7-1.1-11.6.4-7,3.3-13.4,7.9-18.6,1.5-.1,2.1-1.4,3.3-2.1,1.8-1,3.8-2.1,5.7-2.6,6.8-1.9,13-.3,18.7,3.1,3.6,2.1,6.6,4.1,9,7.6,4.9,6.9,5.8,13.2,4,21.6-1,4.4-3.4,7.6-7.8,9.4-.9.4-8.2,4-8.4,4M278.9,502.4c-.5-1.2-1-2.1-2.4-2.5-4.9-1.6-9.2,1.6-10.7,6.4-.7,2.2-1.6,4.2-.2,6.3,1.5,2.3,3.8,4,6.5,3.9,6.5-.2,8.4-9.9,6.8-14.1"/>
        <path class="st1" d="M457.9,539.3c-2.8.4-5.2-.2-7.5-.6-4.2-.7-6.8-2.6-9.4-6-4.5-5.8-4.7-9.2-4.8-16.4-.1-6.2.8-12.1,5-16.9,4.2-4.8,10.7-5.7,16.8-6.4,4.4-.5,8.7-1.2,13.2-.5,11.2,1.9,14.8,23,5.1,35.8-2,2.6-4.1,5-6.9,6.5-3.7,1.9-7.4,3.7-11.5,4.4M458.3,522.6c5.4,0,10.1-5,8.9-10.2-.8-3.5-5-4.4-7.9-4.5-3.6,0-6.5,1.1-8.5,4.1v4.8c.2,2.4,1.3,4.9,3.8,5.8.8.3,2.2,0,3.6,0"/>
        <path class="st1" d="M278.9,502.4c1.6,4.2-.2,13.9-6.8,14.1-2.7,0-5-1.5-6.5-3.9-1.4-2.1-.5-4.2.2-6.4,1.5-4.8,5.8-7.9,10.7-6.4,1.4.4,1.9,1.3,2.4,2.5M273.9,514.8c4.1-2.2,6.2-10.4,2.7-13.3-1-.8-2.5-1.1-4-.6-4.5,1.4-7.6,8.4-4.5,12.3,1.1,1.4,3.6,2.8,5.8,1.6"/>
        <path class="st1" d="M458.3,522.6c-1.5,0-2.9.3-3.6,0-2.5-.9-3.6-3.4-3.7-5.8v-4.8c1.9-3,4.7-4.1,8.4-4.1,2.9,0,7.1,1,7.9,4.5,1.2,5.3-3.5,10.3-8.9,10.2M466,516.3c1.3-3.1,0-5.9-2.9-6.9-3-1.1-7.1-1.4-9.6,1.2-2.4,2.4-2.2,7.8.7,9.8,4.2,3,10,.3,11.9-4.2"/>
        <path class="st5" d="M273.9,514.8c-2.2,1.2-4.7-.2-5.8-1.6-3.1-3.8,0-10.9,4.5-12.3,1.5-.5,2.9-.2,4,.6,3.5,2.9,1.4,11-2.7,13.3M273.9,513.6c3.6-3.1,5-9.4,1.8-11.4-1.1-.7-2.8-.9-4,0-3.5,2.5-5.9,8.6-2,11.1,1.1.7,3,1.4,4.3.2"/>
        <path class="st5" d="M466,516.3c-1.9,4.5-7.7,7.2-11.9,4.2-2.9-2.1-3.1-7.4-.7-9.8,2.6-2.6,6.6-2.3,9.6-1.2,2.9,1,4.2,3.8,2.9,6.9M463.1,518.6c1.8-1.5,3.4-4.5,1.8-6.6-2.1-2.8-6.5-2.9-9.3-1.5-2.6,1.3-3.5,3-3,5.8.4,2.4,1.9,4.2,4.6,4.4,2.1.1,4-.6,5.8-2.1"/>
        <path class="st5" d="M273.9,513.6c-1.4,1.2-3.2.5-4.3-.2-3.8-2.6-1.5-8.7,2-11.1,1.2-.9,2.9-.7,4,0,3.2,2,1.8,8.3-1.8,11.4"/>
        <path class="st5" d="M463.1,518.6c-1.8,1.5-3.8,2.2-5.8,2.1-2.7-.2-4.2-2-4.6-4.4-.4-2.8.4-4.5,3-5.8,2.7-1.4,7.1-1.3,9.3,1.5,1.6,2.1,0,5.1-1.8,6.6"/>
      </g>
    </g>
  </g>
</svg>