<?xml version="1.0" encoding="UTF-8"?>
<svg id="a" xmlns="http://www.w3.org/2000/svg" xmlns:xlink="http://www.w3.org/1999/xlink" version="1.1" viewBox="0 0 625.6 800">
  <!-- Generator: Adobe Illustrator 30.2.1, SVG Export Plug-In . SVG Version: 2.1.1 Build 1)  -->
  <defs>
    <style>
      .st0 {
        fill: none;
      }

      .st1 {
        fill: #ffdf44;
      }

      .st2 {
        fill: #49a258;
      }

      .st3 {
        fill: #c54b4f;
      }

      .st4 {
        clip-path: url(#clippath-1);
      }

      .st5 {
        fill: #e36b2e;
      }

      .st6 {
        clip-path: url(#clippath);
      }
    </style>
    <clipPath id="clippath">
      <rect class="st0" y="0" width="625.6" height="800"/>
    </clipPath>
    <clipPath id="clippath-1">
      <rect class="st0" y="0" width="625.6" height="800"/>
    </clipPath>
  </defs>
  <g class="st6">
    <g class="st4">
      <g>
        <path class="st3" d="M271.2,464.3c-2.8,26.5-3.9,52.9-4.4,80.1l-1.1,67.8c-.6,35.6-3.4,70.5-6.9,105.8-1,9.9-3.9,18.2-9.6,25.9-4.9,6.6-9.9,12.7-16.2,18.2-10.5,9.3-21.9,16.9-33.8,24.2-28.4,17.5-62.4,18.2-91.6,2-32.4-18-29.5-38.8-49.7-66.6-6.5,2.3-31.8,12.6-34.5,3.1-5.1-20.4,42.3-46,57.7-49.6,5.7-1.3,10.5,1.3,13.6,6.2,3,4.9,2.7,10.6,2.7,16.4,0,17.8,4.9,41,18.9,53,9.8,8.4,33.1,8.2,45.7,6.7,7.3-.9,14.3-1.2,21.4-3,21.3-5.5,40.6-26.5,40.8-50.2l.3-31.9,2.4-60.7,7.1-122.1,1.8-24.4,5.1-.3c.2,0,.4,0,.6,0-1.6,13.4-1.1,27.6-2,40.6l-.8,12.3-.8,22.2-.8,12.2-.8,24.7-.8,13.9-.8,22.2-.9,13.9-.7,20.6c-.1,3.8-.9,7.4-.9,11.3l-.7,40.3c-.5,28.7-25.4,62.9-54.1,64l-19.1.7c-15.3.6-29.4,2.3-43.6-5.3-17.8-9.5-20.8-36.2-24.4-53.7-.5-1.6-3.6.2-4.7.9l-20.5,12.2c-.9.5-1.8,1-1.8,1.8,0,.6.1,1.7.7,2.5,8,11.3,14.7,23,21.7,35,4.4,7.5,9,14.7,15.8,20.2,10.8,8.6,23.6,12.6,37.1,14.7,21.7,3.4,45.4-3.7,64.3-14.1,8.9-5,16.1-10.8,23.7-17.3,7.4-6.3,13.3-13.5,18.6-21.9,6.5-10.3,8.1-22.2,8.5-34.1.1-4.3.9-8.5,1-12.8l.6-22.4.9-12.1.7-28,.9-15.6.8-28.7.9-14.7.6-20.9.8-9.1.8-17.2,1.8-23.6,1.7-20.2c.4-5.3,1.4-10.3,1.2-15.2.2,0,.5,0,.7,0,1.4.1,2.9,0,4.3.3M49.4,717.2c11.7-3.5,41.7-13.9,42.3-27.5.1-2.9-1.2-5.6-2.7-7-9-8.1-58.2,27.9-55.1,34.7,1.7,3.6,11.3,1.1,15.6-.1"/>
        <path class="st2" d="M126.9,289.5c-4,3.9-5.8,10-4.9,15.5,0,.5,0,1.1,0,1.7-3.3-3.8-1.6,30.8-1.5,32.8,0,.9,1.1,1.1,1.6.9,0,1.4.4,3.4,0,4.7-.6,2.2-.9,17,1.6,15-.1.8.3,1.8,0,2.6-.8,3.3,0,6.8,0,10.6v27c0,.8,1.1,1.4,1.6.9,0,.7,0,1.5,0,2.2-1.8-.4-1.7,1.6-1.6,3,0,1,.1,2.6,1.7,2.2,0,.6,0,1.6,0,2.2-.7-3-.9,17.5,1.5,13.3-.1.7.3,1.6,0,2.3-1.1,3.5,0,7.2.9,10.7,3.3,12,11.9,20.7,24.4,22.1.4,0,14.1,2.8,12.6-.6.5,0,1.1-.2,1.6,0,1.5.3,8.2,1,7.4-1.6h1.6c6.8-.3,13.7-.3,21-.2l38.6.5c.7,0,1.3.8,2.1.7.5,0,.6-.5.5-1.2.5.1,1.1,0,1.6,0,0,.3,0,.8.2,1.7l17.5.2c-2.3,0,10.3-.7,6.2-1.9.4,0,.9-.1,1.3,0,.9.1,23.8,1.4,22.3-1.5.5,0,1,0,1.5,0-.4,1.8,1.8,1.6,3,1.6,1,0,2.6-.1,2.2-1.6.7,0,1.5.1,2.1,0,0,.5.9.8,1.8.8h18.1c14.6-.2,28.9-1.1,43.4,1,.7.1,1.4-.5,1.7-.7.3-.2.5-.7.1-1.1.8,0,1.8-.2,2.5,0,2.9.8,13.8-1.1,13.8-4.9.8-1.2,2.9-2.1,3.4-3.5,4.9-1.5,4.3-9.8,4.1-13.9-.4-6.8.4-13.5.6-20.4,0-2.2,1.1-4.5-.5-5.9.1-1.2.2-2.6,0-3.8,1.3,2,2.2-7.1,2.2-6.5h3.5c.5,3.4-.7,6.4-1,10.1-1,15.4-1.5,31.1.3,46.4.5,4.2,7.6,4.1,10.4,3.1,6.2-2.2,13.4-7.2,15.6-6.4,1.4.5,3.6,2,3.3,4-.2,1.6-2.8,2.3-4.1,2.3-1.9,0-1.8,1.4-2.5,1.9-1.9,1.4-4.4,1.5-6.6,2.2,1.4-1.6-9.8.1-7.5,1.6-1.3-.2-2.6.1-3.9,0,.3-.8-.8-.8-1.3-.8s-1.6,0-1.3.8c-1.5,0-3.2-.4-4.8,0,1.4-.6-5.7-2.1-5.8,1-.3,0-.6.1-.8,0-1.4-.4-10,.5-8.3,2.2h-1.5c-1.8-1.2-4.9-1.4-6.6,0-.8,0-1.6,0-2.3,0,2.5-1.7-11.6-3.4-10-1.6-.5-.1-1,0-1.5,0,.5-.5-.1-1.5-.9-1.5h-16.4c-.8,0-1.5,1-1,1.5-.7.1-1.6-.2-2.3,0,1.5-1.8-15.5,0-12.5,1.6-1.5.2-3.2-.3-4.7.1.3-.5-.3-.7-.9-.8h-26.2c-.6,0-1.3.3-.9.8-1.7-.3-3.8-.2-5.5-.1.5-.5-.2-1.5-1-1.5-7.1.3-11.4-2.5-10.8.8-.2,0-.5,0-.7,0-8.2.1-16.6-.7-24.6.8-.2,0-.4,0-.6,0,.5-.6-.1-1.5-.9-1.5l-18.8-.3c.4,0-15.2-1.8-14.1.2h-2.2c.4-.6-.2-1.6-1-1.6h-14.7c-.9,0-1.5,1-1,1.5-.9,0-2.3-.1-3.1.2,1.2-1.8-11.1-.4-9.2,1.5-.7.1-1.6-.1-2.3,0,2.1-1.8-13,.1-10,1.5h-10.4c4.1-1.3-15.2-3.3-12.5-1.5-.7-.2-1.5,0-2.2,0,.4-.9-.6-1.5-1.6-1.7l-5.5-1c-1.4-.3-2.4-1.6-3.7-1-.2,0-.6,0-.8,0,0-.5.1-1.5-.5-1.7-.5-.2-1,0-1.4,0-1.5-.2-2.2-1.5-3-2.6-.3-1.7-1.3-3.1-2.7-4.1,0-.5-.9-1-.8-1.6.1-.6.2-1.2,0-2-.1-.5-.8-1.1-1.4-.7v-1.4c.4.3.6-.4.7-.9v-27.6c-.2-.4-1.4-.3-1.7-.3-.2,0-.4,0-.6,0,.5-1.4-1-1.8-2.2-1.6-.6,0-1.9-.2-2.1.8-.4-.1-1,0-1.5-.1.3-.8-.6-1.5-1.6-1.7-7.4-1.3-15-4.7-18.2-4.5-.3,0-.6,0-.8,0-.5-1.6-2.1-1.4-3.3-1.6-4.8-.9-9.2-3.7-13.9-6l-28.7-13.9c-6.9-3.3-13.9-6-19.5-10.7-.3-.8-1-1.3-1.8-1.5-.6-.1-1-.6-1.5-.9.3-1.6-1.3-1.8-2.5-2.5-2.9-1.8-4.4-4.8-7.2-6.2-2-1-3.6-3.3-4.5-5.2-.4-1-.8-2-2.2-1.8,0-.2,0-.5,0-.7-.5-1.7-.3-4.4-2.6-4.1-.2-.7-.4-1.8-.7-2.5,1,.1.9-1.4.8-2,0-.4,0-1.5-.8-1.4.3-.4.2-1.1.7-1.6,1.7-1.5,3.3-3.5,3.3-5.8.9-1.3,2.3-2.1,3.2-3.2,2,.4,3.3-1.9,5.8-1.7,1.2,0,2.4.3,3.2-.4,2-1.8.1-12.4,1.3-17.3.9-3.8,4.8-5.5,6.9-8.1l.3-1.1c.6-.1,1-.8.7-1.2-.4-.6-1.1-.4-1.6-.5-.2-.5-.5-1.1-.7-1.6,1.9,0-1.6-3.7,2.2-8.6l1.7-1.1c.6,2.4,11.8-1.8,10.9,2.8-.3,0-.5.3-.8.4-1.1-.2-2.4.4-3.5,0-5.5-1.5-2,12.1.3,15.6-3.1-.2-3-1.5-4.6-1.5-1.9,0-2,.4-2.9,1.5-1.1,1.3-3.3,2.2-4.1,4-.5.1-1.4-.1-1.7.5-.4.9.5,1.6.9,2.1v3.8c-.7.9-.7,1.8-.7,3,0,1.3.7,1.5,2.1,1.4.1,1.2.2,2.5.3,3.8,0,.8,0,1.6.4,2.5.4.7,1.2,1,2,1,.3.2.4.7.6.9-1.2.5-2.3,1.1-3.4,1.9-5.3,0-11.4.8-15.6,4.2-2.8,2.3-3.2,5.3-1.4,8,2.5,3.7,14.9,18.4,18.6,18.6.2.3.8.5.9.8,1.6,3.5,6.2,4.6,9.4,7,1.7,1.2,3.4,2.1,5.2,2.1.3,0,.6,0,.9.2,5.2,4,11.8,6.2,18.2,8,.2,0,.5,0,.7,0-.4.7,0,1.5.6,1.6.8.2,1.5,0,2.1,0,.2,0,.5,0,.8,0,.1.4.4.9,1.1,1.2l13.8,5.9c1.4.6,2.6,1.1,3.8,1,.2,0,.7,0,.9,0-1.5,1.9,17.6,7.8,19.5,8.4,4.7,1.4,8.8,3.7,14,3.7.7-3.7,1-7.9,0-12.1l-10.3-4c-2.1-.8-3.8-2.4-5.9-2.2-.3,0-.7-.1-.9-.2-2.5-2.3-5.8-4.2-9.1-4.8h-.7c1.4.3-6.3-5.4-4.8-4.6-.6-.3-1.2.2-1.9.4-.6.2-1.2-.8-1.7-.9-4.9-4.8-11.1-8.3-17.2-11.9-.8-4.2-5.3-2.6-7.1-6-.4-.8,0-1.8.5-2.6l20.7,14.8c2.9,2.1,5.7,4,8.8,5-.4.4-.1.8.1,1.1.5.6,1.2.4,1.8.4,1.8,0,2.9,1.7,4.6,1.8-.4.4-.2.8.1,1.1.5.6,1.2.5,1.8.4.4,0,.9.1,1.4.1-.4.4-.1.8.1,1.1.5.6,1.2.4,1.8.4.8,0,1.5.7,2.3.9,0,.4-.2.9,0,1.2.5.6,1.3.4,1.8.2h.7c0,.6.2,1.1.7,1.5.6.5,1.4,0,1.8-.5.7.1,1.7.4,2.2.9.3.2-.2,1.4.6,1.6.5.1,1-.4,1.2-.8l1.5.2c.1,1.5,1.3,1.8,2.2,1.9,2,.1,2.7-.3,2.9-1.6.4-2.2-.5-2.6-1.5-3.6,4,3.6-10.6-10.3-5.3-6.5.2-2.4,6,2.7,6.6,0,.2-.8,1.6-14.5,1.7-14.4-.2-.5-.9-.6-1.6-.6,0-.6-.8-.9-1-1.3-.7-2.6-2.9-4.6-5.3-5.8-.3-.3-.6-.8-.9-1-.3-1.5-.9-3.1-2.5-3.4-.4-.2-.6-.7-.9-.9v-.7c1.5.3,3.2.6,4.8.7.3.6,1.1,1,1.2,1.7,0,.5-.2,1.4.3,1.7.4.2,1,0,1.3,0,0,.2,0,.5,0,.7-.2,1.3,2.7,2.4,2.8,1.4,0-1.9.8-4.5-1.1-4.2-.3-1,.3-2.5-.2-3.4,1.2,2.7,1-18.8-1.4-15.6,0-.5,0-1.1-.2-1.7.5.3.6-.3.6-.9l.4-20.5c0-3.4,1.6-6.1.9-9.6-.6-2.9,1.5-5.7,1-8.4,0-.3,0-.5,0-.8.4,0,.8-.2.8-.5,0-.5,0-.9,0-1.2,1.7-5.5,5.9-10.1,10.8-13.1-1.6,1.7-1.8,4.6-1.6,6.7"/>
        <path class="st2" d="M412.2,457.6c.7-.5.6-1.9,2.5-1.9,1.3,0,3.8-.6,4.1-2.3.3-2-1.9-3.5-3.3-4v-1.8h.6c1.2-.1,2.5-.4,2.6-1.7.2,0,.5,0,.7,0,.6.1,1.4.2,1.8-.4.3-.3.4-.8.1-1.2.3,0,.6,0,.9-.1,4.2-1.6,21.7-9.6,23.5-13.6.2-.1.6,0,.8-.2,2.4-1.6,5.7-2.9,6.7-5.7.2-.2.6-.5.8-.8l.8-.9c.2-.3.5-.5.7-.8,2.3-1.3,4.3-3.3,5-5.8,0-.2.1-.4.2-.6,3.5-1.2,10.5-24.3,7.3-25.6,0-.5,0-1,0-1.4.5.5,1.5-.1,1.5-.9v-14.8c0-.8-1-1.4-1.5-.9,0-.8-.1-1.5,0-2.3.5.3.7-.3.8-.9.8-7.6-1.4-20.1-.7-25.4.2-1.4-.5-2.4-1.7-2.9-.5-.2-1.3-.4-1.7.6h-.8c-.4,0-.8,0-1.2-.2-.5-.2-.7-.9-.5-1.5l56.6-24.9c.3-.1.6-.4.9-.6,3.8-2.4,7.9-6,12.1-5.9h1.3c.6,0,.8-.9.5-1.5.8-.4,1.5-.8,2.4-.9.4,0,.8-.4.9-.8,4.3-2,17.7-9.1,18.1-14.5.4,0,.8-.1,1.1-.3.6-.3.6-1.2.4-1.9-.1-.6-1.2-.3-1.7-.4-2.8-2.6-7.7-2.1-11.4-.7l-18.8,7.3c-.4.1-.7.5-.9.9h-.8c-.4,0-.6.5-.8.8-.3,0-.6,0-.8,0-1.4.5-3.6.5-3.3,2.4-.4.2-1,.9-1.5.7-.3-.2-.8-1-1.3-.7-.7.4-.3,1.2-.5,1.7-.3.5-1.1.6-1.6.8-.4.1-.6.6-.9.9-.2,0-.6,0-.8,0-.6,0-1.2-.3-1.9,0-.5.2-.4,1.1-.6,1.6-2.2,1.5-4.8,3-7.2,4-.4.1-.7.5-1,.8-1.3,1.3-3.1,2-4.8,2.6-.4.1-.6.5-.9.7-1.7,1.1-3.5,2.9-5.6,3.3-2,.4-4.7.9-5.1,3.3-.4.4-1,.6-1.5.8-.4.2-.7.5-1,.8-1.3,1.3-2.9,2.5-4.8,2.5-.4,0-.7.6-.9.8h-.8c-.4,0-.6.5-.8.8-.3,0-.5,0-.8,0-.4.2-.6.5-.8.8-.3,0-.6,0-.8,0-.4.1-.6.4-.9.7-.3,0-.6,0-.8,0-.4.1-1,.3-.8.8-1,.6-2.1.8-3.2.9-.3.2-.6.4-.9.7-.4.4-.9.9-1.5.8-.4,0-.6-.6-.9-.7-.4-.2-.9,0-1,.3-.2.5-.2.9,0,1.2-1,.6-2,.7-3.1.9-2.2.4-5.7.5-6,3.1-3.6.7-6.8,2.9-10.5,3.4-.4,0-1.1.3-.9.8h-1.6c-.4.2-1.2.2-.9.8h-1.5c-.4,0-1,.2-.8.8-1.7,1.1-3.7,2-5.7,1.8l-2.1-.2c-.8,0-1.9.6-1.3,1.7-1.5.5-3.1.9-4.8.9s-.7.2-.8.7l-.2.9c-4.3,2.4-.7-14.9-4.6-14.1v-1.4c3-1.8-4.7-24.5-6.7-28.6.9-1.7,2.5-1.9,2.7-3.2.4.1,1.1-.4,1.5-.2,1.1.5,1.7-.9,3.3-.9,1.2,4.2-2.6,14.2,3.1,17.1,1.7.9,4.2-.1,4.2-1.5h1.8c0,0-.2,2.4-.2,2.4-.3.2-.5.7-.8.9-.3.2-.6.6-.9.9l-.8.8c-.9.4-2.1.8-2.3,1.9,0,.4-.1,1,0,1.4-1.5,1.6-1.2,4.6-1.4,6.4,5.4-.1,8.3-2.6,12.1-4.7l15.8-9c.8-.4,1.3-.9,1.4-1.6.5-.3.9-.9,1.5-1,.4,0,.6-.6,1-.8.5-.4,1-.8,1.6-.9,2.2-.3,4-1.8,6-3.1l8.4-5.4c6-3.8,12.3-7,16.8-12.1h.8c1.9-1.4,4.2-1.9,6.1-3.6,4.3-3.9,12.5-7.6,13.5-11,.1-.3.6-.6.8-.8,2.6-.6,4.2-3,5.8-5,.8-.7,1-2.2,2.4-2.4.8,0,1.4-1.1,1.6-1.8,0-.2,0-.5,0-.7.3,0,1.1.2,1.3,0,0,0,.8-6.8-1.8-6.5-.1-.2-.2-.5-.3-.8,0-.3,0-.6,0-.9-.2-4.1,4.9-2.4,4.1-5.7,5.7,2.6,8.2,9.5,4.7,15.7,7.5-1.3,18-2.9,19.5,6.8.5,3.2-.9,6.2-2,9.5,5.3-.5,10.5-1.8,15.3.3,3.1,1.4,5.9,4.4,5.2,7.8-1.1,5.7-5.4,9.1-10,12.2-11.5,8-23.9,13.4-36.7,19l-39.5,17.2c.3,5.8-.3,10.9-.5,16.5l-1,37.8c-.2,8.1-2.5,15.4-4.8,23-2,6.6-5.2,12.1-11.1,16-12.5,8.5-25,16.7-38.5,23.5-2.8,1.4-5.2,2.9-7.9,3.1M528.5,269.6h-3c-.6-.4-1.2-.7-1.8-.4-1.1.5-1.9,1.1-1.7,2.2-.4,0-.9.1-1.4.1-1.6-.1-3.4.5-3.5,2.4-5.3,3.2-10,7.3-15.6,10-.9.5-10.8,5.9-9.8,7.1-.2,0-.5.1-.7.2-.4,0-.8,0-1.3.1-.5.2-.9.9-.6,1.5-1.7.7-2.8,2.1-4.6,2.6-2.1.5-4.5,2-5.3,4-.7.3-1.5.8-2.3,1-1.1.3-2.3.7-2.4,2.1-2.3,1.1-3.9,3.2-6.5,3.5-.8,0-1.6.1-2.4.5-.7.3-1.1,1-1,1.9-1.1.6-1.8,1.5-3.2,1.6-1.5.1-3.6.6-3.5,2.4-1,.4-2,.8-3,1-.4,0-.9-.1-1.3,0-.6.2-.7.9-.5,1.5-1.2.8-2.4,1.8-3.9,1.9-1.4,0-2.8.6-2.8,2.2-.4,0-.9,0-1.3,0-.4,0-.8-.2-1.3,0-.5.2-1.1.9-.6,1.5-1,.3-2,.8-3,1-.4,0-.9-.2-1.3,0-.6.2-.9.9-.6,1.5-2.7,1-5.1,2.9-8,3.4-1.1.2-2.5,0-2.6,1.6-.7.4-1.4.9-2.3.9-.4,0-.8,0-1.3,0-.6.2-.5,1-.6,1.5-2.5,1.7-1.4,5.3-1.5,8,0,1.2-.3,1.8,1.1,1.8,1.3,0,2.7-.1,2.2-1.7h1.3c.5.6,1.3.7,1.8.5,1.1-.5,1.9-1.1,1.8-2.1h1.2c.5.6,1.2.7,1.8.5,1.1-.4,1.9-1,1.8-2.1,1.7-.2,4-.7,5.5-1.7-.2.4.4.8.9.7,1.8-1.2,10.8-3.4,9.1-4.9,1.1-.3,1.9-.8,3.1-.9,1.7-.1,4.5-.3,4.3-2.4.7-.2,1.5-.9,2.2-.8.4,0,.8,1,1.3.7.6-.3.4-1.2.6-1.6l9-4.1c.5.2,1.1.3,1.5,0,.6-.4.8-1.1,1-1.5,2.3-.5,4-2.9,6.4-3,1.2,0,2.4-.5,2.5-1.9.5,0,1-.2,1.5-.3,2.8-.7,5.8-2.3,7.5-4.6.5,0,1.3-.2,1.7-.5,2-1.2,5-1.6,5.9-3.9,1.7-.5,2.9-1.8,4.6-2.4.4-.1.9,0,1.3-.2.4-.2,1.2-.8.7-1.4,1-.2,2-.8,3-1.1,2.8-.7,4.7-2.7,6.6-4.6,2.5-2.4,5.9-4.2,9-5.3,1.1-.4,2.7-.3,2.5-2,.2,0,.5-.2.8-.2.6,0,1.3.1,1.6-.5.2-.4,0-.9.2-1.2.5-.9,1.5-1.5,2.5-1.8,2.5-.7,3.9-4,4.8-6.4.5-1.2,0-3.3.1-4.7.4-2.8-2.1-2.6-3.1-3.5-.9-.7-.8-2.5-3.1-1.7-.8.3-2.7,0-2.1,1.6"/>
        <path class="st3" d="M350.6,138.5c2.7.7,4.7,3,4.9,5.7-2-.3-4.1.6-6.5.7l-32.5.5-33.1,2.3c-6.8.5-13.2,1.5-19.8-1-10.3.4-20.5-.9-30.8.5l-12.3,1.6c-3.5.5-7,1.3-10.4,1.8l-10.1,1.4c-5.9.8-11.4,1.2-17.4,1.5l-15.5.9-12.4.7c-6.6.4-13,1.6-19.6,2.4-10.1,1.1-19.1,4.6-28.9,7l-30.7,7.4c-.3,3.4.8,6.9,2,10.3.6,1.8-.1,5.4,2,6.2,2.8,1.1,5.6-1,8.1-.6,0,.2,0,.5,0,.8-1.2,1.6-1.5,3.9-3.3,5.1-16.8-.8-5.7,8.5-33.7,3.2-3.8-.7-6.5-3.5-6.6-7.4-.3-6.5,2.1-12.1,6.3-17,4.8-5.5,12.2-6.5,19.1-4.5,7.1-2.3,14-4.4,21.4-5.6,11-1.7,20.7-5.7,31.4-8.7,30.2-8.3,52.3-2.4,83.4-7.9,13.3-2.4,26.3-3.6,39.3-4.2,1.6,0,3.4,0,5,0l18.8.5c2.5,0,4.4.5,6.5.2,2.5-.2,5.2,1.2,7.5-.5,22.1.7,45.7-3.6,68-3.4M68.9,191.6c7.4-3.5,1.9-17.2-3.5-18.5-10.4-2.5-17.4,13.4-14.8,16.5,3.3,4,14.5,3.8,18.3,2"/>
        <path class="st2" d="M388.5,135.4c.4,2,.6,4.3.8,6.4.2,2,.5,4.2.5,6.6l-.3,14.8c0,2.1.2,3.8.6,5.8.6,3.2-.6,7.9,3.1,10.1,3.5,2.1,8.1,2.9,10.7,6.5,3.4,4.8,1.3,10.9-3.5,14.2-14.3,10.1-33.6,5.6-49.3.8-2-.6-3.6-2.4-3.9-3.7-.4-1.8-.2-3.7.8-5.3,5.1-7.8,13.6-7.4,13.4-21.7v-6.5c-.2-6.6-1.5-13.9-5.8-19-.2-2.7-2.2-5.1-4.9-5.7-4.3-4.8-10.6-6.9-17-9-14.3-4.8-29.8-3.8-42.6,4.1-3.5,2.2-6.8,4.8-8.3,8.3-2.3,1.7-5,.2-7.5.5-.3-2.3,2.1-3.1,3.5-4.4,10.8-10.1,23.7-14.3,38.1-14.8,18.4-.7,40.6,10.9,41.4,16.8l.2,1.3c0,.5.8,1.2,1.5.6,1.2,3.2,3.5,6.1,3.4,9.6,0,.4-.1.8,0,1.3.1.5.7,1.2,1.4.7v2.1c0,.2-.4.5-.5.8,0,.5.3.9.7,1.1v1.4c.1,5.3-.3,10.6,0,15.9.2,2.6-1.3,4.6-1.9,7.1-.6-.3-.7.5-.8.9,0,.2,0,.5,0,.7-1-.5-1.6.4-1.6,1.4,0,.9.6,1.4,1.6,1.4l.2,1.4c-.2.9-.9,1.4-1.8,1.6h-.8c-.2-.2-.4-.6-.7-.7-.5-.2-1.1,0-1.8.8-.1,0-.3,0-.7,0-.9.1-1.6.8-1.7,1.7,0,1.1-.2,2.1-.2,3.8-.6.3-.6.8.1.9,10.8,7.3,30.5,6.9,42.8.2,1.7-.9,3.6-1.9,3.8-3.9.4-4.1-5.2-6.7-6.8-6.6-1.1,0-2.2,1.3-3.6,2.3-1.1,0-2.2.6-2.5,1.7-.5.2-1.2.5-2.3.9-.4.1-14.6-.4-7.5-2.2l6.5-.5c.2.8.8,1,.9,0,1.4-1.5,1.9-3.5,1.6-5.5-.1-.6.3-1.3,0-2-.2-.4-.7-1.2-1.5-.7l-.2-4.6c-.1-2,.2-4,0-6.1,0-.7,0-1.5,0-2.2.2-.4.8-.9,1-1.4.4-1-.9-1.5-.9-2.2v-3.8c2.4,3.1,2.4-14,.1-10.9v-4.6c.9-1.6.4-5-1.7-5.2l-.2-3c0-.4.1-.8,0-1.3-.1-.5-.8-1.1-1.4-.7,0-1.7-1.3-3-1.7-4.6,0-.4,0-.8-.2-1.2-.2-.4-.8-1.2-1.4-.7-2.4-5.2-6.7-9.6-11.4-12.9.2-.4,0-.8-.1-1.1-.4-.7-1.3-.3-1.7-.6-2.9-1.6-5.6-3.8-8.8-4.9.4-.4.1-.8-.1-1.1-.5-.6-1.2-.4-1.8-.4l-2.2-.2c.4-.4.1-.8-.2-1.1-.5-.5-1.2-.3-1.8-.4l-2.2-.2c.5-.7-.2-1.3-.7-1.5-.7-.2-1.4,0-2,0l-3-.2c-.2-2.1-3.6-2.5-5.2-1.6h-2.1c.5-.9-.3-1.4-.8-1.5-.9-.3-2.1,0-2.8,0l-8.7-.2c.5-1.5-1.2-1.6-2.2-1.6-1.3,0-3.4-.2-3,1.6h-6.2c0-.7-.9-.7-1.4-.7s-1.6,0-1.4.9h-2.2c-.8,0-1.9-.1-2.9-.1-.7,0-2,.4-1.5,1.6l-3.9.2c-.6,0-1.2-.2-2,0-.5.2-1.2.7-.7,1.4h-1.3c-.7-.7-1.7-.5-2.4-.2-1.1.4-2.3.7-2,1.9l-2.2.2c-.4,0-.8-.1-1.3,0-.5.2-1.1.8-.7,1.4-2.6.4-4.9,2.1-7.2,3.3-.4.2-.7.4-.9.8-1.1.2-2.1.4-3.1.9-.3.2-.8,0-1.2.2-.4.3-1.2.8-.7,1.4-.8,0-1.6.4-2.2.9-.2.2-.8,0-1.2.1-.5.3-.6.9-.5,1.5-.5.2-.9.8-1.5.8-.4,0-.8,0-1.2.2-.5.2-.6.9-.6,1.4-7.7,6.2-14,14.8-16.4,24.4-1.6,0-3.4,0-5,0,3.3-14.1,20.7-32.1,34.2-38.5,12-5.7,24.7-7.7,38-8.2,18.2-.7,35.1,3.7,50.9,12.6,13.2,7.5,17.3,11.8,20.5,27.9"/>
        <path class="st2" d="M601.7,33.5c-5-2.2-9.9-2.4-15.3-.5-4.2,1.5-19,2.9-15.3,10.2l-19.4,4.2c-13,2.8-25.8,6-37.2,12.9-7.9,4.8-14,12.1-18.6,20.1-7.4,12.9-19.9,40.8-18,54.9-1.5,1.9-.3,4.4-.7,6.5-.9,5.4-.4,9.9-3,13-.5.5-2.4.1-2.3-.9.5-4.2,1.4-8.1,1.1-12-.1-2.1,0-4.4,0-6.5,0-17,9.6-41.5,18-56.8,4.8-8.8,10.8-16.2,19.2-21.6,29.2-18.7,50.9-13,61.1-21,10.4-8.2,9.5-23.4,29.2-31.3,7.4-3,14.9-5.5,22.9-4.2-5.5,13-7.6,19.4-17.4,28.3-1.6,1.5-3.2,3.1-4.1,4.8"/>
        <path class="st2" d="M93.9,186.9c-.9,1.9-1.3,3.9-1.4,5.8-.7,1.6-3,2.9-3.2,5.2-6.5,13.8-5.1,24.9-10.1,39.6,19.1,10.8,20.9,25.5,21.7,45.7-13.2-4.3-22.6-13.7-27.2-26.3-4.6,9.6-10.9,19.4-21.4,20.7-2.4-6.9-2.7-14.8,1.7-21,3.3-4.6,6.7-9,10.5-13.1,2.9-3.1,7.2-5.1,8.9-9.3,3.8-9.4,1.7-21.7,9.7-36.4.8-1.4,1.1-3,1.2-4.2,1.8-1.1,2.1-3.5,3.3-5.1.7-.9,2.9-1.2,3.1-3.1,1.5.5,2.2,1.1,3.2,1.4"/>
        <path class="st3" d="M361.3,169.7l-58.1,5.6c-9,.9-17.1,1.4-25.6.8-.2,0-.4,0-.6,0-1.2-2-4.2-.7-5.8-.8-7-2.7-16,1.1-26.3,1h-2.3s-1.6,0-1.6,0h-1.9c-19.9.1-23-3.4-48.2.9l-81,13.9c-6.1,1-11.6,1.8-17.3,1.7.1-2,.5-3.9,1.4-5.8.2,0,.6,0,.8,0,9.4-.6,18.8-1.9,28.4-3.4l12.7-2.1,50-8.1,12.4-1.7,10.6-1c7.3-.7,14.1-1.1,21.3-.1,11.3,1.5,22.4,1.3,33.5-.9,11-2.1,20.9,2.9,37,.4l9.2-1.4c4.9-.8,9.8-1.3,14.7-1.8l18.8-1.8c6.2-.6,12.4.3,17.9-1.7v6.5c.1,0,.1,0,.1,0Z"/>
        <path class="st3" d="M390,168.9c-.4-2-.6-3.6-.6-5.8h80.9s12.3-1.4,12.3-1.4c4.1-.5,7.7-.7,11.7-1.4l8.3-1.5c6.1-1.1,12-2.3,17.7-4.8,2.9-1.3,4.6-3.5,4-6.6-.5-2.6-2.8-4.2-5.7-4.8-16.3-3.2-25.4-3.2-41.6-.9.3-2.1-.9-4.6.7-6.5,8.6-1,17.2-.6,26.3,0l19.3,1.4c5.3.4,9.9,3.1,14.8,4.8,3.9,1.4,6.9,4.1,7,8.7,0,4.6-1,10.1-4.6,13.3-3,2.6-7.8,1-10.7-1.4-2.4-2.1-4.7-3.1-7.5-.9-34.5,8.7-55.4,8.5-90.2,8.2l-42.2-.4h0ZM540.2,152.9c.6-4.1-1.4-6.6-5.2-6.9-1.5-.1-3.2,0-4.2,1,0-.1-4.1,9.2,2.4,11.1,3.4,1,6.3-1,6.9-5.2"/>
        <path class="st2" d="M601.7,33.5c3,1.5,6.5,2.2,8.5,4.8,6.8,9.2,11.9,19.4,15.5,31-11.2,4-22.5,1.8-32.7-3.9-21.4-12-8.2-8.1-21.9-22.2-3.6-7.3,11.1-8.8,15.3-10.2,5.4-1.9,10.3-1.7,15.3.5"/>
        <path class="st2" d="M464.7,214.7c0,.6,0,1.2.4,1.7.3.3.6.6,1,.2,0,.5,0,1.1.2,1.6l-2.6,5.6c5.1,4,1,11.1,3.4,12.4l-1,10.7-5.3-1.1c.3-2.6,0-5.9-1-8.1v-3.1c.5,0,.9-.1,1.2-.2.4-.2.5-.6.4-1-.2-.6-1.2-.4-1.5-.6v-3.1c1.6-1.3.4-3-.5-4.5-3.8-6.8-14.2-3.3-12-2-.2,0-.6,0-.8.1-1.9.1-3.2,1.6-5,2.1-2.4-2.2,6.5-7,7.8-10.5-3.6-2.6-7.2-2.6-11-1.8-3.9.8-8.2-.2-12,.9-3.4,1-6.5,1-9.9,1.6-13,2.2-22.4-.3-33.3,1.8l-7,1.3c-6.9,1.3-13.4,1.7-20.2.4-10.8-2.1-21.9.1-33.1-1.1l-14-1.6-8.2-1.4c-15.5-2.7-22.1,3.1-23-1.7,5.6-3.8,13.2-4.7,20.6-3.9l34.6,3.7,19.4-.2c22.7-.3,44.6.8,67.2-2.1l27-3.4c5.3-.7,8.6,1.1,12.6,3.9,1.7,1.2,5.6.6,5.6,3.5"/>
        <path class="st2" d="M235,213.1c.2.1.3.9.6,1.1.2.1,1.2-.6,1,.3l-23.4,5.8c-2.7.7-5,1.8-7.9,2.1-6.9.9-13.9,3.4-17.9,8.8-.2,0-.4.4-.8.8-.2.2-.4.4-.9.9-.1.1-.3.5-.8.8-2.8.6-4.5,3.3-5.8,5.8-.2.1-.4.4-.8.8-.2.2-.4.4-.9.9l-.8.8-.9.9c-.1.1-.4.4-.7.8-2.9,2.2-6.6,4.6-7.6,8.2-1.2,1.4-2.2,2.6-3.9,4.1-7.1,5.8-13.5,12.5-19.9,19.6,0,1.1.6,2.4,1.1.9.8,0,1.6.2,3.1,0-1.6,1.3,14.2,1.4,12.5-1.6.3,0,.7.1,1.4,0,2.5,1.5,6,.2,9-.2l4.1-.5v2.1c-.9,0-2.5.4-2.5,1.6h-2.6c-.3,0-8-1-7.3,1.6-.8-.1-1.8.3-2.6,0-3.5-.9-6.8.3-10.4,1.4-1.6.5-3.9-.3-4.1,1.7-.5-.1-1.1.2-1.6.1-6.1-.7-12.9,2.3-17.4,6.7-.2-2.1,0-5,1.6-6.7,9.9-10.1,19.2-20.3,28.1-31.8,8.9-11.3,18.9-21.1,31.2-28.4,10.8-6.4,35.4-13,47.3-9.5"/>
        <path class="st3" d="M472.8,135.3c0,2.1-.2,4.4,0,6.5l-22.2-3c-14.9-2-34.5,1.8-38.5,1.4-8-.8-15.4.7-22.9,1.5-.2-2.1-.4-4.3-.8-6.4l46.6-3.2c16-1.1,22.6,4.4,37.8,3.1"/>
        <path class="st2" d="M441.5,225.3c-.4.5-.6,1.1-.7,1.7-.2,0-.4,0-.6.1-2.1,1-4.7,1.8-6.5,3.1.3-.6-.5-2.9-1.7-2.3-6.9,3.4-13.3,7.1-19.5,11.6-1.1.9-.5,2.4-.2,3.2.2,1-9.7,6.7-10.6,6.5,0-.9-.6-1.6-1.5-1.7-1,0-2,.3-2.9.6.4-1.4,2.1-2.1,3.5-3l15.5-9.9c3.3-2.1,6.6-3.7,9.8-5.9,5.7-3.8,11.7-6.6,17.7-10.1,1.5-.9,4.2-3.8,2.5-5.1-8.2-1.4-16.5.6-24.7,1.7l-11.7,1.6c-2.9.4-5,.4-7.9,0-17.5-2.3-31.8,6-44.9,3-5.8-1.3-11.8-2.5-17.6-1.3-5.2,1.1-10,0-15.1-.3-5.2-.3-10-.2-15.1-1.4-14-3.3-19.5-1.7-34-1.4.9,3.8.3,7.7.7,11.7l1.9,20.7c.3,2.8.7,5.4,1.4,7.8-.5,0-1.7.1-2-.3-.1-4.8-.9-9.3-1.3-14.1l-1.2-14.7c-.2-2.6-1.5-4.8-1-7.7.3-2,.3-3.9,0-5.6,1.1.1,2.2-.1,2.9-1,.3,0,.6,0,.9,0,.9,4.9,7.4-1,23,1.7l8.2,1.4,14,1.6c11.2,1.2,22.3-1,33.1,1.1,6.9,1.3,13.4,1,20.2-.4l7-1.3c10.9-2.1,20.3.4,33.3-1.8,3.4-.6,6.6-.6,9.9-1.6,3.7-1.1,8,0,12-.9,3.7-.8,7.4-.8,11,1.8-1.3,3.5-10.3,8.3-7.8,10.5"/>
        <path class="st2" d="M111.1,357.2c-1.7,0-3.3-.4-4.9-.7,0-.5-4.2-7.8-5.5-7.1l-1.9-3.4c-2.8-5-5.2-12.7-10-14.4l-1.3-.5c-.3-.5-.8-1-.9-1.6-.6-1.9-7.5-10-10.3-9.9l-1.1-1c0-1.9-2-1.7-3.2-2.4-2.6-1.5-5-3.4-7.4-5-.7-.5-1.1-1.7-2.3-2.3l-12.9-6.1c-1.5-.7-3-1.2-4.3-.4l-1.9-.2c-.5-2-3-1.5-4.7-1.8,1-4.6-10.3-.4-10.9-2.8,5.8-3.8,33.4,6.8,38.5,9.4,5.3,2.7,9.9,6.8,14,11.1,11.6,12.3,22.8,24.7,31.1,39"/>
        <path class="st2" d="M242.6,176.4c1.4,9.6-1.7,19.5.8,27.9,1,3.4-.7,7.7,0,11.2-1,0-.9,1.4-.8,2.1,0,.4,0,1.6.8,1.4v25.2c-.6.3-.6,1.7-1.6,1.7-1.7-3-.4-19.8-3.2-18.1v-1.5c.7.3.6-.9.6-1.7l-.2-12.4c0-.9,1.4-14.9-1.2-12.4.1-1.2,0-2.6,0-3.7,2.3,2.6,1.6-12.3.6-10.1v-3.9c2.5-.4,2.2-3.8,2.5-5.8h1.6c0,0,0,0,0,0Z"/>
        <path class="st2" d="M277,176.2c.2,0,.4,0,.6,0-1,12.2-2.6,24.2-1.4,36.8,0,.3.5.3.7.2-.7.9-1.8,1.2-2.9,1-.9-6.1.9-14.8-2-13.3,0-2,.6-4.5-.9-5.9v-14.5c2,.4,1.2-2.9,2.5-3.8,1-.6,2.3-.4,3.4-.4"/>
        <path class="st2" d="M497.6,255.8l-10,7.3c-1.1.8-2.9.9-2.5,2.5-.3.2-.5.5-.8.7-3.1.7-4.8,4.3-8.2,4.1-1.1-.4-2.2-.7-3.3-.8.7-.5,1.2-1.7,1.7-2.5,1-1.5,2.2-2.9,4-3.4.8-.2,1.5-.7,1.8-1.5,4.4-4.7,10.5-7.4,16.4-9.8.6,1,.9,2.2.9,3.4"/>
        <path class="st2" d="M466,246.9c-.9,9.2-1.4,18.5-1.4,27.7-1.5-1.7-.3-3.9-3.1-5.5-.7-.4-1.7.2-2.4.6.3-7.2.8-17.1,1.6-24l5.3,1.1Z"/>
        <path class="st2" d="M464.6,274.6c.4.4-.4,1.6.5,1.7.8,0,1-.1,1.2-.5.3-.5.3-.9,0-1.3.2,0,.5,0,.7,0,2.6-.6,3.7-3.4,5.8-4.9,1.1.1,2.2.4,3.3.8v1.8c-.3.1-.5.5-.8.7-2.9,1.2-6,3-7.5,5.8-.5.3-.9.6-1.4.9-1.3.5-3.1,1.1-3.4,2.5-.3,1.3-1.5,1.8-2.4,2.4l-2-.9c-.4-4.6.4-9.2.6-13.8.7-.4,1.7-1,2.4-.6,2.8,1.6,1.6,3.8,3.1,5.5"/>
        <path class="st2" d="M238.4,226.3c-.2-3.4.3-6.9-1.2-10.9-5.4,1.7-10.9,2.5-16.3,4.1l-7.6,2.2c-6.3,1.8-12.8,2.3-18.9,4.9-2.6,1.1-3.9,3.8-6.9,4.6,4-5.4,11-8,17.9-8.8,2.9-.4,5.2-1.5,7.9-2.1l23.4-5.8c.1-.9-.8-.2-1-.3-.3-.2-.4-.9-.6-1.1,5.1,1.5,1.6-4.9,2.6-13.2,2.6-2.5,1.2,11.5,1.2,12.4l.2,12.4c0,.8,0,2-.7,1.7"/>
        <path class="st2" d="M519.6,249.3c.8,3.4-4.3,1.6-4.1,5.7h-.9c-.6.1-1.1-.7-1.6-.7,0-.1.2-1.5-.2-1.6-11.4-1-7.2.6-15.2,3.1,0-1.2-.3-2.4-.9-3.4,8.2-3.4,15.1-6.8,22.8-3.2"/>
        <path class="st2" d="M113.8,337.9c-1.4-6.4-1.2-13.1-.4-20,.3-2.9,1.2-20.1,3.4-19.5.4,2.7-1.7,5.5-1,8.4.8,3.5-.8,6.3-.9,9.6l-.4,20.5c0,.6,0,1.3-.6.9"/>
        <path class="st2" d="M240.9,464.8l-5.1.3-13.9-.3c-3.4,0-6.5-.1-9.9-.7l-4.9-.9c-1.1-1.9,14.5-.2,14.1-.2l18.8.3c.8,0,1.4.9.9,1.5"/>
        <path class="st2" d="M117,446.9c-.5-.8-.9-1.9-.9-3.3v-25.5c.3,0,1.4-.1,1.6.3v27.6c0,.6-.2,1.3-.7.9"/>
        <path class="st2" d="M312.2,464.8c-5.4,1.5-22.2,1.1-28,0-.3-.5.3-.7.9-.8h26.2c.6,0,1.3.3.9.8"/>
        <path class="st2" d="M467.1,236.2c-2.4-1.4,1.7-8.4-3.4-12.4l2.6-5.6c1.4,5.9,1.3,11.9.8,18"/>
        <path class="st2" d="M109.8,417.1c-3.2-.2-18.3-3.9-19.8-6.2,3.2-.2,10.9,3.2,18.2,4.5,1,.2,1.9.9,1.6,1.7"/>
        <path class="st2" d="M25,311.8c-2.1,2.6-6,4.4-6.9,8.1-1.1,5,.7,15.5-1.3,17.3-.8.7-2,.5-3.2.4-2.4-.2-3.7,2.1-5.8,1.7,2.1-2.5,5-3.5,9.3-3.4-2.4-9.5-2.1-20.5,7.8-24.3"/>
        <path class="st2" d="M115.4,355.1c-1-1.6-.6-3.5-.8-5.8l-.7-9.8c2.4-3.2,2.6,18.2,1.4,15.6"/>
        <path class="st2" d="M204.9,463.1c-5.5-.3-11.1.3-16.7,0-.4-.4.2-1.5,1-1.5h14.7c.8,0,1.4,1,1,1.5"/>
        <path class="st2" d="M350,463.1c-6.1-1-12.2-.9-18.3,0-.5-.5.2-1.5,1-1.5h16.4c.8,0,1.4,1,.9,1.5"/>
        <path class="st2" d="M329.4,463.1c-4,1.2-8.3,1.1-12.5,1.6-3-1.6,14-3.4,12.5-1.6"/>
        <path class="st2" d="M278.7,464.7c-2.5.2-5,.1-7.5-.5-1.4-.3-2.9-.1-4.3-.3-.7-3.3,3.7-.5,10.8-.8.8,0,1.5,1,1,1.5"/>
        <path class="st2" d="M153.2,466.4c-4.2,0-8.4-.6-12.5-1.5-2.7-1.8,16.7.2,12.5,1.5"/>
        <path class="st2" d="M138.5,464.8c-3.8-.5-8.2-.9-10.8-3.8,1.3-.5,2.2.8,3.7,1l5.5,1c1,.2,2.1.8,1.6,1.7"/>
        <path class="st2" d="M25.8,298.8c-3.8,4.9-.3,8.6-2.2,8.6-1.5-3-.8-6.7,2.2-8.6"/>
        <path class="st2" d="M173.6,464.9c-3.2,1-6.7,1.5-10,1.5-3-1.4,12.1-3.3,10-1.5"/>
        <path class="st2" d="M361.5,464.8c-3.4-.4-6.8-.6-10-1.6-1.6-1.8,12.5-.1,10,1.6"/>
        <path class="st2" d="M185.1,463.2c-2.9,1.1-6.1,1-9.2,1.5-1.9-2,10.4-3.4,9.2-1.5"/>
        <path class="st2" d="M237.8,196.1l.6-10.1c.9-2.2,1.6,12.7-.6,10.1"/>
        <path class="st2" d="M380.2,462.6c-2.3,1.8-5.5,2.1-8.3,2.2-1.7-1.7,6.9-2.5,8.3-2.2"/>
        <path class="st2" d="M405.6,459.9c-2.4.9-4.9,1.9-7.5,1.6-2.2-1.4,9-3.2,7.5-1.6"/>
        <path class="st2" d="M113.9,361.3c1.3-.2,1.4-1.7,1.7-2.9,1.9-.3,1.1,2.4,1.1,4.2,0,1-3-.1-2.8-1.4"/>
        <path class="st2" d="M240.9,176.3c-.3,2,0,5.4-2.4,5.8,0-2,.9-3.8.6-5.8h1.9Z"/>
        <path class="st2" d="M1.4,348.4c-.4-2.7,2.1-4,3.3-5.8,0,2.2-1.7,4.3-3.3,5.8"/>
        <path class="st2" d="M386.8,461.5c-1.9.4-3.8,1.1-5.8,1,0-3,7.2-1.6,5.8-1"/>
        <path class="st2" d="M370.4,464.8c-2.2,0-4.4.1-6.6,0,1.7-1.4,4.9-1.2,6.6,0"/>
        <path class="st2" d="M115.5,418.1c-1.5.1-2.9-.3-4.2-.8.2-1,1.4-.7,2.1-.8,1.1-.1,2.7.2,2.2,1.6"/>
        <path class="st2" d="M20.3,376.4c-3.9-2-7-5.3-9.6-8.8,2.8,1.4,4.2,4.4,7.2,6.2,1.2.7,2.8,1,2.5,2.5"/>
        <path class="st2" d="M472.8,269.7c-2.1,1.5-3.1,4.3-5.8,4.9,1.8-3,4.5-5.5,7.4-7.3-.5.7-1,2-1.7,2.5"/>
        <path class="st2" d="M.6,353.4c-.7-1.1-.9-2.2,0-3.4.8-.2.8.9.8,1.4,0,.6.2,2.1-.8,2"/>
        <path class="st2" d="M3.9,360c-1.3-1.1-2.1-2.6-2.6-4.1,2.2-.3,2,2.5,2.6,4.1"/>
        <path class="st2" d="M89.1,410.9c-1.2-.1-3-.2-3.3-1.6,1.3.2,2.8,0,3.3,1.6"/>
        <path class="st2" d="M118.5,451c-1.1-.4-1.4-1.5-1.4-2.7.7-.5,1.3.2,1.4.7.2.8,0,1.4,0,2"/>
        <path class="st2" d="M25.3,310.7c-.9-.2-.7-1.1-.9-1.7.5,0,1.2-.2,1.6.5.2.4-.1,1.1-.7,1.2"/>
        <path class="st2" d="M126.8,460.9c-1,0-1.7-.7-1.8-1.6.3,0,.9-.2,1.4,0,.6.2.5,1.1.5,1.7"/>
        <path class="st2" d="M466.4,274.6c.2.4.2.8,0,1.3-.2.3-.4.5-1.2.5-.9,0-.1-1.3-.5-1.7.6,0,1.2,0,1.7,0"/>
        <path class="st2" d="M113.9,360.7c-.3,0-.9.2-1.3,0-.6-.3-.3-1.2-.3-1.7.6-.1,1.1.1,1.3.6.2.4.3.8.3,1.1"/>
        <path class="st2" d="M394.2,461.6c-.9,0-1.7,0-2.6,0-.3-.8.8-.8,1.3-.8s1.6,0,1.3.8"/>
        <path class="st2" d="M466.1,216.6c-.4.4-.8.2-1-.2-.4-.6-.5-1.2-.4-1.7.6.4,1.4,1,1.4,1.9"/>
        <path class="st2" d="M116.8,297.6c0-.7.6-1.1.8-1.7,0,.3,0,.7,0,1.2,0,.3-.4.5-.8.5"/>
        <path class="st2" d="M122,456.7c-1.1-1.3-2.4-2.4-2.7-4.1,1.4,1,2.3,2.5,2.7,4.1"/>
        <path class="st2" d="M6.2,362.5c-.9-.4-1.8-.9-2.2-1.8,1.4-.3,1.8.7,2.2,1.8"/>
        <path class="st2" d="M23.6,378.8c-.6-.5-1.6-.6-1.8-1.5.8.1,1.5.7,1.8,1.5"/>
        <path class="st2" d="M478.5,263.9c.2-.9,1.3-1,1.8-1.5-.3.9-1,1.3-1.8,1.5"/>
        <path class="st1" d="M266.2,464.1c.2,4.9-.8,9.9-1.2,15.2l-1.7,20.2-1.8,23.6-.8,17.2-.8,9.1-.6,20.9-.9,14.7-.8,28.7-.9,15.6-.7,28-.9,12.1-.6,22.4c-.1,4.3-.9,8.5-1,12.8-.4,12-2,23.8-8.5,34.1-5.2,8.3-11.2,15.5-18.6,21.9-7.6,6.5-14.8,12.4-23.7,17.3-18.9,10.5-42.6,17.5-64.3,14.1-13.5-2.1-26.3-6.1-37.1-14.7-6.8-5.5-11.4-12.6-15.8-20.2-7-12-13.7-23.6-21.7-35-.6-.8-.8-2-.7-2.5,0-.8.9-1.3,1.8-1.8l20.5-12.2c1.1-.6,4.2-2.5,4.7-.9,3.7,17.5,6.7,44.2,24.4,53.7,14.2,7.6,28.3,5.8,43.6,5.3l19.1-.7c28.6-1.1,53.5-35.3,54.1-64l.7-40.3c0-3.9.8-7.5.9-11.3l.7-20.6.9-13.9.8-22.2.8-13.9.8-24.7.8-12.2.8-22.2.8-12.3c.9-13,.4-27.2,2-40.6,8.1-1.5,16.4-.7,24.6-.8"/>
        <path class="st2" d="M49.4,717.2c-4.3,1.3-13.9,3.8-15.6.1-3.1-6.8,46.2-42.8,55.1-34.7,1.5,1.4,2.9,4.2,2.7,7-.6,13.6-30.6,24.1-42.3,27.5"/>
        <path class="st5" d="M303,263.1h48.3c.4-.1,1.3-.2,1.6,0,3,.8,9.5,2.1,12.5,1.5.4,0,1.1,0,1.6.1,3,.7,6,1.6,9,1.6,2.8,1.2,5.7,4.2,5.7,7.4-.5-.3-.6.3-.6,1v14.7c0,.8,1,1.5,1.5,1v1.4c-1.3,1.3-1,3.8.2,5.2,0,.8.3,1.7.2,2.5-.6,3.8,0,7.6,1.4,11.1l.2,2.8c.2,3.5.2,7.1,1.5,10.4-.1.8.1,1.7,0,2.6-.3,4.6,1.5,9.1,1.6,14l.3,28.5-.3,4.1c-.5,6.9-1.2,3.8-1.5,15.8v2.4c-1.1,3.8-2,7.7-1.6,11.7.1,1.2.1,2.7,0,3.8-.5-3.5-1.4,15.4-1.4,13.4l-.5,21.1c0,2.1-1.7,3.9-2.3,5.7-.5,1.4-2.6,2.3-3.4,3.5-4.3,2.4-9,3.6-13.8,4.9-.7-.2-1.7,0-2.5,0-3.2,0-6.4-.9-10-.9h-8.2c-6.4.2-12.5-1-19-.2-9.5,1.1-19.1-1.1-28,1-.6.2-1.5,0-2.1,0-1.7,0-3.5-.1-5.2,0-.5,0-1,.1-1.5,0-5.9-.5-11.8-.1-18,.9-1.5.2-3.6-1.1-4.3.6-.4,0-.9,0-1.3,0h-23.9c-.5,0-1.1,0-1.6,0-2.2-.5-4.7-1.5-7.4-1.5h-45.8c-3.4-.2-6.3.2-8.9,1.6h-1.6c-2.6.2-5,1-7.4,1.6-.5-.1-1.1.1-1.6,0-3.9-.3-8,.2-12.1-.4-11.5-1.9-20.2-9.7-23.5-20.8-1.1-3.7-1-7.5-2.3-10.9.2-.7-.2-1.6,0-2.3.4-2.2-.8-11.1-1.5-13.3-.1-.6-.1-1.5,0-2.2,0-1.7,0-3.4,0-5.2,0-.7,0-1.5,0-2.2v-26.3c0-4.4,0-8.5-1.5-12.2.2-.8-.2-1.8,0-2.6.2-1.5-.9-14.1-1.6-15,.4-1.3,0-3.3,0-4.7v-33.7c0-.5,0-1.1,0-1.7l2.5-9c2.2-8,13.6-11.7,19.9-13.2.5,0,1.1-.3,1.6-.1.1,0,13.5-2.1,14.5-3.1.8.2,1.7-.2,2.6,0,2.5.3,4.9-.9,7.3-1.5h2.6c3.3-.2,6.8-.7,10-1.6.9.3,2.1-.3,3.1-.1,3.2.6,6.4-.5,10-1,1.9-.2,4.1.9,5.1-.6.9.3,2.1-.1,3,0,5.5.4,23.7-.8,28.6-3.2l2-.2c11.7-1.1,10.1-.5,23.2-2.7,8.5-1.4,19.3-2,26-3.7.5.1,1-.1,1.5,0,3.4.4,12.6-.6,15.8-1.5h2.1c0,0,0,0,0,0ZM256.2,302.6c-.4-.1-1,0-1.4,0-7,.2-13.5,3.4-19.5,7.5-6,4.1-17.8,12.4-19.9,18.8-.4.4-.3,1.2-.8,1.5-.6-.1-1.2.2-1.5.6-.4.6,0,1.4-.2,1.9-.2.5-.9.9-.8,1.5-2.6,0-6.3,13.4-6.2,16.4,0,.5-.2,1.1-.2,1.6,0,.4-1.1.9-1,1.8.8,6.6-1,13.1.9,19,.2.7.2,1.7.3,2.4.6,6.5,4.2,12.8,8.9,17.2.3.2.6.6.7.9,1.2,2.4,3.1,4.8,5.7,5.6.6.2,1.1.8,1.7,1,.1,1.2,1.1,2,2.3,2.1.3,0,.6.2.9.3,5,6.7,21,10.6,29.4,11.1h2.4c-1,1.4,15.2,1.4,14.3.2.8-.3,2.1,0,3-.1,11.4-1.1,22.6-5.2,32.2-12,1.5-1.1,3-1.9,3.3-3.5.5-.3.9-.7,1.4-1,5.9-3.1,10-8.9,14.3-14.5,5.5-7.3,9.4-16.1,10.4-24.9,0-.7,0-1.5.1-2.2,1.6-4.9,1.1-11.3-1.7-15.7,0-.4,0-1.1-.1-1.5-1.8-6.6-6.2-13.4-12.2-16.6-.5-.3-1-.6-1.4-.9-.5-1.8-2.4-3.1-4.2-4.3-10-6.2-21.2-11-32.6-12.6-.6,0-1.4-.4-1.9-.3-2.1-1.5-4.7-1.8-7.3-1.6-1,0-2-.1-3.1-.1,0-.6-.9-.8-1.8-.8h-13.1c-.6.1-1.3.4-1,.9"/>
        <path class="st5" d="M37.6,300.9c1.7,1,3.6,1.2,5.5,1.4l1.9.2c1.3,1.4,3.6,1.5,5.6,2.5l13.9,6.4c2.5,1.7,4.9,3.5,7.4,5,.6,1.2,1.8,2.1,3.2,2.4l1.1,1c3.5,3,6.3,7.3,10.3,9.9.2.6.7,1,.9,1.6.6,1.2,10,15.2,11.3,14.8l1.9,3.4c1.6,2.7,2.7,6.1,5.6,7.8.4.2.6.7.9.9.1,1.6,1.3,2.6,2.5,3.4.3.2.7.8.9,1,.7,2.5,3.1,4.5,5.3,5.8.2.4.9.8,1,1.3.4,1.9-.4,3.7-.7,5.9-.4,2.9.8,5.7-.8,8.6-5.7-2.7-9.9-6.3-14.7-9.5-8.4-5.4-16.7-10.9-24-17.9l-14.4-13.5-16.5-16.4c-6-6-18.1-17.4-11.8-26,1.1.3,2.4-.2,3.5,0"/>
        <path class="st1" d="M27.6,344.5c.2,0,.5,0,.7,0,6.2,4.4,11.6,9.9,18.2,13.6.4.2.7.6,1.1.8,2.4,3.4,6.1,5.5,9.7,8.2,4.6,3.5,20.5,15.5,24.5,16.4.5.1,1.1,1.1,1.7.9,1.7,2,4.1,3.6,6.7,4.1h.7c1.9,2.9,5.9,3.8,9.1,4.9.3,0,.7.2.9.2,3.6,3.7,9.5,4.2,14.3,7,2.1,2.2,1.3,7.7.7,10.3-10-2.1-24.2-7.5-32.3-11-.2-.1-.7,0-.9,0-5.8-3.4-12.2-6-18.6-8.1-.2,0-.5,0-.8,0,.6-.8-.3-1.2-.8-1.4-.8-.2-1.4-.2-2-.2-.2,0-.5,0-.7,0-5.7-3.3-12-5.8-18.2-8-.3,0-.6-.2-.9-.2l-14.7-9c-.2-.4-.7-.5-.9-.8-5.1-6-22.9-20.1-17.5-25,5.6-5.1,13.5-5.1,20.1-2.7"/>
        <path class="st3" d="M110.3,384.6c-5.3-3.9,9.3,10.1,5.3,6.5,0,1.2,0,2.4-.4,3.9l-3.1-.5-1.5-.2c-.2-.8-1.2-.8-1.8-.8-.5-.4-1.5-.7-2.2-.9-.6-.8-1.7-.8-2.6-.9h-.7c.5-.7-.3-1.2-.8-1.3l-1.1-.3c-.8-.2-1.4-.8-2.3-.9.5-.6-.2-1.2-.7-1.4-.4-.2-.8-.2-1.2-.2-.4,0-.9-.2-1.4-.1.5-.7-.2-1.2-.7-1.3-.4-.2-.8-.2-1.2-.2-1.8,0-2.9-1.8-4.6-1.8.4-.5.1-.7-.2-1-.5-.5-1.2-.3-1.7-.5-3.1-1-5.9-3-8.8-5l-20.7-14.8c-.1-.6-1.1-.9-1.4-1.3,0,0-13.7-12.5-14.8-11.7,0-1.1-1.1-1.2-1.8-1.6-2.1-1.3-4-3.5-6.6-3.5-.2-1.5-1.9-1.9-3.2-2.3-.8-1.4-2-2.4-3.4-3.3-.3-.2-.4-.7-.6-.9-.3-1.4-.7-3.6-2.4-3.5,0-1.2-.1-2.5-.3-3.8-.2-1.5-.4-3.2-1.5-4.4v-3.8c1-.4.6-1.8.8-2.6.7-1.8,2.9-2.6,4-4,3.5-.7,6.3.8,8.6,3.6,3.1,3.8,6.8,6.9,9.7,10.9,5,7.1,11,12.9,17.5,18.5,2.6,2.2,4.7,4.4,7.5,6.5l35.1,26.4c1.7,1.2,3.4,2.6,5.1,2.2"/>
        <path class="st2" d="M34.1,300.9c-6.3,8.6,5.8,20,11.8,26l16.5,16.4,14.4,13.5c7.3,6.9,15.6,12.4,24,17.9,4.9,3.1,9.1,6.8,14.7,9.5,1.7-2.9.5-5.7.8-8.6.3-2.1,1.1-4,.7-5.9.6,0,1.3.1,1.6.6,0-.1-1.5,13.6-1.7,14.4-.6,2.7-6.4-2.4-6.6,0-1.7.3-3.5-1-5.1-2.2l-35.1-26.4c-2.8-2.1-4.9-4.3-7.5-6.5-6.5-5.6-12.5-11.4-17.5-18.5-2.9-4-6.5-7.1-9.7-10.9-2.3-2.8-5.1-4.3-8.6-3.6,1-1.1,1-1.5,2.9-1.5,1.6,0,1.5,1.3,4.6,1.5-2.3-3.5-5.8-17.1-.3-15.6M35.8,317.7c0-.2-.2-.4-.4-.4s-.4.2-.4.4.2.4.4.4.4-.2.4-.4"/>
        <path class="st2" d="M415.5,447.6v1.8c-2.2-.8-9.3,4.1-15.6,6.4-2.8,1-9.9,1-10.4-3.1-1.9-15.4-1.3-31-.3-46.4.2-3.7,1.4-6.7,1-10.1-.5-3.6,1.7-7.6,1.5-11.5-.4-10.9,1.1-20.9-.5-32-2.1.5-.5,16.5-3.3,16.1l-.3-28.5c0-5-1.9-9.5-1.6-14,3.2-.6.4,5.4,3.7,5.6,1.1-4.9,0-9.3-.5-13.9-.8-6.2-.2-12.6-1.3-19-.7-4.1-.8-7.9-1.8-11.8-1.2-4.8-.7-10.4-.4-15.7.4-5.5,4.1-9.6,6.2-14.2,2.9-2.7,7.3-4.8,9.7-7.9.8.2,10.8-5.5,10.6-6.5,7.6-3.3,14.6-7.8,21.4-12.5,1.9-1.3,4.5-2.1,6.5-3.1.4,1.6-1.4,1.6-2.6,2.4l-19.8,12.2c-7.8,4.8-16,8.7-22.8,14.8-8,7.2-9.5,18.6-7.8,28.8,1.3,8,2,11.8,2.6,19.7l.8,11.4,1.4,25.9c.7,12.2,2.1,24.2,1.1,36.5l-1,12.2c-.6,7.2-2.2,14.2-2,21.4.1,5.9-.4,11.4-.7,17.2-.2,4.7,1.3,9,.6,14-.5,3.3-.5,8.5,2.2,10.6,6,4.8,18.6-6.4,23.2-6.7M390,350.8c1.7-.4,1.1-3.3.1-3.3-1.5,0-1.1,3.5-.1,3.3"/>
        <path class="st2" d="M237.5,456.7c.1.7,0,1.1-.5,1.2-.8,0-1.4-.7-2.1-.7l-38.6-.5c-7.3-.1-14.1-.2-21,.1,2.6-1.4,5.6-1.7,8.9-1.7h45.8c2.7.1,5.2,1.2,7.4,1.7"/>
        <path class="st2" d="M390.1,396.1h-3.5c0-1.7-.6-3.5-.6-5.1v-2.4c2.4,3.9,2.3-18.2,1.6-15.8l.3-4.1c2.8.4,1.2-15.7,3.3-16.1,1.6,11,.2,21.1.5,32,.1,3.9-2,7.9-1.5,11.5"/>
        <path class="st2" d="M360.6,455.1c.3.4.2.9-.1,1.1-.3.2-.9.8-1.7.7-14.5-2-28.8-1.1-43.4-1.1h-18.1c-.9.1-1.7-.2-1.8-.7,8.9-2.2,18.4,0,28-1,6.4-.8,12.5.5,19,.3h8.2c3.5-.2,6.7.8,10,.8"/>
        <path class="st2" d="M164.7,458.4c1.6,3.4-12.1.7-12.6.6-12.5-1.4-21.1-10.1-24.4-22.1-1-3.5-2-7.2-.9-10.7,1.3,3.4,1.1,7.2,2.3,10.9,3.3,11.1,12,19,23.5,20.8,4.1.7,8.2.1,12.1.4"/>
        <path class="st2" d="M83.4,399.9c8.1,3.5,22.4,8.9,32.3,11,.6-2.7,1.3-8.1-.7-10.3-4.8-2.7-10.7-3.2-14.3-7,2.1-.2,3.8,1.3,5.9,2.2l10.3,4c.9,4.2.7,8.4,0,12.1-5.2,0-9.3-2.3-14-3.7-1.9-.5-21-6.5-19.4-8.4"/>
        <path class="st2" d="M121.8,306.6v33.7c-.4.2-1.5,0-1.5-.9-.1-2-1.8-36.6,1.5-32.8"/>
        <path class="st2" d="M380.2,446.7c.6-1.7,2.2-3.5,2.3-5.7l.5-21.1c0,2,.9-17,1.4-13.4,1.6,1.4.6,3.7.5,5.9-.1,6.9-.9,13.6-.6,20.4.2,4.1.9,12.3-4.1,13.9"/>
        <path class="st2" d="M125.1,401c-.5.5-1.5-.1-1.5-.9v-27c0-3.8-.8-7.2,0-10.6,1.6,3.7,1.6,7.9,1.6,12.2,0,0,0,26.3,0,26.3Z"/>
        <path class="st2" d="M144.2,282.8c-6.3,1.5-17.6,5.2-19.8,13.2l-2.5,9c-.9-5.4.9-11.5,4.9-15.5,4.5-4.4,11.3-7.4,17.4-6.7"/>
        <path class="st2" d="M263.1,456.8c4.1,1.2-8.5,1.9-6.2,1.9l-17.5-.2c-.2-.8-.2-1.4-.2-1.7h23.9s0,0,0,0Z"/>
        <path class="st2" d="M286.7,455.3c1.5,2.9-21.4,1.6-22.3,1.5.6-1.6,2.8-.3,4.3-.6,6.2-1,12.1-1.4,18-.9"/>
        <path class="st2" d="M23.4,341.3c.6,2.2,4,.9,4.2,3.2-6.6-2.5-14.5-2.4-20.1,2.7-5.4,4.9,12.4,19,17.5,25-3.7-.2-16.2-14.9-18.6-18.6-1.8-2.7-1.4-5.7,1.4-8,4.3-3.4,10.3-4.1,15.6-4.2"/>
        <path class="st2" d="M59.6,390.2c-6.3-1.8-12.9-4-18.2-8,6.2,2.2,12.5,4.8,18.2,8"/>
        <path class="st2" d="M82.5,399.9c-1.3.1-2.4-.4-3.8-1l-13.8-5.9c-.6-.3-.9-.8-1.1-1.2,6.4,2.1,12.9,4.6,18.6,8.1"/>
        <path class="st2" d="M123.5,359.9c-2.4,2.1-2.2-12.8-1.6-15,.7.9,1.8,13.5,1.6,15"/>
        <path class="st2" d="M376.9,450.1c0,3.8-10.9,5.7-13.8,4.9,4.8-1.3,9.4-2.5,13.8-4.9"/>
        <path class="st2" d="M126.7,423.9c-2.4,4.1-2.2-16.4-1.5-13.3.7,2.2,1.9,11.1,1.5,13.3"/>
        <path class="st2" d="M386.5,396.1c0-.6-.9,8.5-2.2,6.5-.4-3.9.5-7.9,1.6-11.7,0,1.7.6,3.5.6,5.1"/>
        <path class="st2" d="M30.1,342.7l-.7,1.6c-.4,0-.7.2-1.1.2-.2,0-.5,0-.7,0-.2-2.3-3.6-.9-4.2-3.2,1-.8,2.2-1.4,3.4-1.9,1.3.8,2.5,1.9,3.4,3.3"/>
        <path class="st2" d="M40.6,382c-1.9,0-3.5-.9-5.2-2.1-3.3-2.4-7.8-3.4-9.4-7l14.7,9Z"/>
        <path class="st2" d="M106.1,356.5v.7c-2.8-1.7-3.9-5-5.5-7.8,1.3-.7,5.4,6.5,5.5,7.1"/>
        <path class="st2" d="M112,394.5l3.1.5c.4-1.5.4-2.7.4-3.9,1.1,1,1.9,1.5,1.5,3.6-.2,1.3-.8,1.8-2.9,1.6-.9,0-2.1-.4-2.2-1.9"/>
        <path class="st2" d="M173.8,456.8c.8,2.5-5.9,1.9-7.4,1.6,2.4-.7,4.9-1.5,7.4-1.6"/>
        <path class="st2" d="M116,368.4c-2.2-1.3-4.6-3.2-5.3-5.8,2.4,1.2,4.6,3.2,5.3,5.8"/>
        <path class="st2" d="M43.1,302.3c-1.9-.2-3.8-.5-5.5-1.4.2,0,.5-.4.8-.4,1.7.3,4.2-.2,4.7,1.8"/>
        <path class="st2" d="M293.4,455.1c.5,1.5-1.2,1.7-2.2,1.6-1.3,0-3.5.2-3-1.6,1.7-.2,3.5-.1,5.2,0"/>
        <path class="st2" d="M125.1,403.3c.1,1.7,0,3.4,0,5.2-1.5.5-1.7-1.2-1.7-2.2s-.2-3.4,1.6-3"/>
        <path class="st2" d="M23.4,331.4c-1.4.2-2.2,0-2.1-1.4,0-1.2,0-2.1.7-3,1.1,1.1,1.3,2.8,1.5,4.4"/>
        <path class="st2" d="M26.1,338.6c-.8,0-1.6-.3-2-1-.4-.8-.4-1.7-.4-2.5,1.7-.1,2.1,2.1,2.4,3.5"/>
        <path class="st2" d="M109.7,361.5c-1.2-.9-2.4-1.9-2.5-3.4,1.6.4,2.2,1.9,2.5,3.4"/>
        <path class="st2" d="M63.1,391.8c-.6,0-1.3.3-2.1,0-.5-.2-1-.9-.6-1.6.6,0,1.2,0,2,.2.4.1,1.3.6.8,1.4"/>
        <path class="st2" d="M22.8,320.5c-.2.8.2,2.2-.8,2.6-.4-.5-1.3-1.2-.9-2.1.3-.6,1.2-.4,1.7-.5"/>
        <path class="st2" d="M106.5,392.7c-.5.6-1.2,1-1.8.5-.5-.4-.7-.9-.7-1.5.9.1,1.9.2,2.6.9"/>
        <path class="st2" d="M110.6,394.3c-.2.4-.8.9-1.2.8-.7-.2-.3-1.3-.6-1.6.7,0,1.6,0,1.8.8"/>
        <path class="st3" d="M459.8,229.6v3.1s0,1.9,0,1.9v3.1c0,3.6-1.1,12.7-1.3,17.4l-.7,17.7c0,2.1-.9,3.7-.2,6,.6,2.2-.6,4.2-1.3,5.9-1.3.7-2.5,1.8-3.2,3.1-3.4,2.2-6.4,5.2-9,8.3-.2.3-.5.5-.8.7-.3.3-.6.6-.9.9-.3.2-.5.5-.8.7-1.2.7-15.8,12.1-15.7,14h-.7c-1,.8-2.3,1-3.4.6-4.2-1.7-1.2-13.1-3.5-17-.6-1.1-3.4.6-3.7,1.7-.4-.2-1.2.3-1.5.2-9.8-3.6,3.5,18.8,4,31.9v1.4c.3,7.2,2.1,14.3,1.7,21.6,0,1.3-.1,2.6,0,3.9.2,2.7-2.4,16.8,0,19.3.7.8,5.1.8,5.5,0,.3-.6.1-1.4.2-2,0-.3,0-.5,0-.8,3.6,0-.2-18.4,2-20.5,2-2,3.5,4.2,11.8,0,8.5-4.3,17.7-6.5,25.5-11.3h.8c.2,0,1.4-.4,1.4,0l.4,9.6c.2,3.8,1.9,16.1,1.5,19,0,.7,0,1.5,0,2.3-.2,5.5-.2,11.1,0,16.7,0,.5,0,1,0,1.4-.9,8.9-3.8,17.4-7.3,25.6,0,.2-.1.4-.2.6-2.2,1.4-3.3,3.9-5,5.8-.2.3-.5.5-.7.8l-.8.9c-.2.2-.6.5-.8.8-1.9,0-2.3,2.5-4.1,3.3-1.3.6-2.9.9-2.7,2.4-.2.1-.6.1-.8.2-3.5,1.5-6.4,4.2-10.1,6-4.7,2.4-9.5,4.4-13.4,7.5-.2.1-.6.1-.9.1-.4,0-.8,0-1.2.2-.5.2-1.2.7-.7,1.3-.2,0-.5,0-.7,0-.6,0-1.2,0-1.8.3-.5.2-1.3.7-.8,1.4h-.6c-4.7.3-17.2,11.5-23.2,6.7-2.7-2.2-2.7-7.4-2.2-10.6.7-5-.8-9.4-.6-14,.2-5.8.8-11.3.7-17.2-.1-7.2,1.4-14.2,2-21.4l1-12.2c1-12.3-.5-24.3-1.1-36.5l-1.4-25.9-.8-11.4c-.6-7.9-1.3-11.8-2.6-19.7-1.6-10.2-.2-21.6,7.8-28.8,6.8-6.1,15-10,22.8-14.8l19.8-12.2c1.2-.7,3-.8,2.6-2.4.2,0,.4,0,.6-.1,2.3-.6,4.3-2.1,5.8-3.9.3,0,.6,0,.8-.1,3.1-1,7.2-1.8,10,.7,1.5,1.3,1.6,4.2,2.4,5.8"/>
        <path class="st5" d="M528.5,269.6c1.7,0,3.5.1,5.2,0,1,.9,3.5.6,3.1,3.5-.2,1.4.4,3.5-.1,4.7.6-2.7-5.5,7-4.8,6.4-1,.3-2,.8-2.5,1.8-.6,0-1.2,0-1.7.5-.3.3-.3.8-.2,1.1-.2,0-.5.2-.8.2-1.2.1-2.3.8-2.5,2-3.1,1.2-6.5,3-9,5.3-2.5.8-5.6,2-6.6,4.6-1,.3-1.9.9-3,1.1-.6.1-1.2,0-1.8.6-.2.3-.7.6-.2,1-1.6.6-2.9,1.9-4.6,2.4-2.3.6-4.7,1.7-5.9,3.9-.4.3-1.2.4-1.7.5-.5,0-9.2,4-7.5,4.6-.5.1-1,.2-1.5.3-1.1.2-2.3.7-2.5,1.9-2.5.1-4.1,2.6-6.4,3-1,.1-2.1.4-2.5,1.4l-9,4.1c-.7.1-1.7,0-1.9.9-.7,0-1.6.5-2.2.8-1.5.6-4.4.3-4.3,2.4-1.2,0-2,.6-3.1.9-3.5,1-7,2.1-10,4.2-1.5,1-3.8,1.5-5.5,1.7-1.3.2-2.7.3-3.6,1.5h-1.2c-1.4.1-2.8.5-3.7,1.6h-1.3c0,0-3.4,0-3.4,0,.1-2.8-1-6.4,1.5-8,.6,0,1.1-.1,1.7-.5.3-.3.5-.6.2-1,.9,0,1.6-.4,2.3-.9.4-.3,1.4.2,1.9-.2.4-.3,1.4-.6.8-1.4,2.9-.5,5.2-2.4,8-3.4.5-.2,1.1,0,1.7-.5.3-.3.7-.5.2-1,1-.2,2-.7,3-1,.5-.2,1.2,0,1.7-.5s.6-.6.2-1c.4,0,.9,0,1.3,0,1.3-.2,2.6-.8,2.8-2.2,1.5-.1,2.7-1.2,3.9-1.9.4-.3,1.2,0,1.7-.5.3-.3.7-.5.2-1,1-.2,2-.6,3-1,1.4-.5,2.7-1.1,3.5-2.4,1.4-.1,2.1-1.1,3.2-1.6,1.3-.7,3.6-.3,3.4-2.4,2.5-.3,4.2-2.5,6.5-3.5,1-.5,2.2-.6,2.4-2.1.8-.2,1.6-.7,2.3-1,1.9-.9,4.6-1.8,5.3-4,1.8-.4,3-1.9,4.6-2.6.5-.2,1.2,0,1.7-.5.3-.3.5-.6.1-1.1.2,0,.5,0,.7-.2,3.6-1.5,7.6-3.8,9.8-7.1,5.5-2.7,10.3-6.9,15.6-10,1.5-.3,3.5-.6,3.5-2.4.4,0,.9,0,1.4-.1,1.3-.1,2.7-.5,3.6-1.6h3c0-.1,0-.1,0-.1Z"/>
        <path class="st1" d="M513,254.3c.5,0,1,.9,1.6.8.3,0,.5.6.8.8,0,.3.2.6.3.8.9,2.1,1.3,4.4.6,6.5,0,.2,0,.5,0,.7-.8.3-1.3,1-1.6,1.8-1.4.1-1.6,1.7-2.4,2.4-2,1.6-3.9,3.3-5.8,5-.2.2-.7.5-.8.8l-19.7,14.6h-.8s-15.3,10.1-15.3,10.1c-5.5,3.6-11.1,6.8-15.9,10.5-.6,0-1.2.4-1.6.9-.3.3-.7.4-1,.8-.6.1-1,.7-1.5,1l-18.3,10.2c-3,1.7-5.9,3.4-9.4,3.5l-.2-4.9c0-.4,0-1,0-1.4,1.1,0,2-.8,2.3-1.9l.8-.8c.4-.2.7-.5.9-.9.3-.2.5-.7.8-.9,3.5-1.7,6.5-4.4,9.1-7.4.2-.2.4-.5.7-.7,3.5-2.4,22.5-18,23.9-22.1.9-.6,2.1-1.1,2.4-2.4,1.8.4,3-1,3.4-2.5.6-.2.9-.6,1.4-.9,2.8-1.5,5.1-3.7,7.5-5.8.2-.2.5-.6.8-.7,3.3-.9,5.6-3.7,8.2-5.9.3-.2.5-.5.8-.7,7.1-4.5,13.4-10.3,22.2-12.3,2-.4,3.9.9,5.6.9"/>
        <path class="st3" d="M554.8,287.8v2.6c-.3,5.4-13.7,12.5-18,14.5-.4.2-.8.4-.9.8-.9.1-1.6.5-2.4.9-.5.2-1.1,0-1.7.5-.3.3-.7.5-.2,1-4.2-.2-8.4,3.5-12.1,5.9-.3,0-1.1,0-.9.6l-56.6,24.9c-.7.3-1.7.6-2.5.9-4.1,1.2-8,3.4-12.4,4.5l-4.6,1.2c-.6.2-1.6-.1-1.9.7-.7,0-1.5,0-2.2.2-1.7.5-3.8.3-5.2,1.5l-3.8.2c-2,0-4-.1-6,0-.6-.2-1.1-.6-1.6-1-.1-.7-.3-1.5-.1-2.2l.2-.9c.4-.1,1.2,0,.8-.7,1.6,0,3.2-.5,4.8-.9,1.2-.4,2.9-.2,3.5-1.5,2,.2,4-.7,5.7-1.8.3-.2.7-.3.8-.7h1.5c.4,0,1.2-.2.9-.7h1.6c.4-.2,1.2-.4.9-.9,3.7-.5,6.8-2.6,10.5-3.4.5-.1,7.8-2.2,6-3.1,1.1-.2,2.1-.3,3.1-.9.5-.4,1.5,0,1.8-.9.6.1,1.2-.4,1.5-.8.4,0,1.2,0,.9-.7,1.1-.1,2.2-.3,3.2-.9.3-.2.6-.5.8-.8.2,0,.6,0,.8,0,.4-.1.7-.4.9-.7.3,0,.6,0,.8,0,.4-.1.7-.4.8-.8.3,0,.6,0,.8,0,.4,0,.7-.4.8-.8h.8c.4,0,1.2-.3.9-.9,1.9,0,3.5-1.2,4.8-2.5.4-.1.8-.4,1-.8.5-.2,1.1-.4,1.5-.8,2-.5,3.9-1.7,5.1-3.3,2.1-.5,3.9-2.2,5.6-3.3.4,0,1.2-.1.9-.7,1.8-.5,3.5-1.2,4.8-2.6.4-.1.8-.4,1-.8,2.5-1,5.1-2.5,7.2-4,1.1,0,2.1-.5,2.5-1.6.2,0,.6,0,.8,0,.4-.1,1.2-.3.9-.9.5-.2,1.3-.2,1.6-.8.7,0,1.5-.2,1.8-.9.5.1,1.1-.5,1.5-.7,1.4-.2,2.8-1,3.3-2.4.2-.1.6,0,.8,0,.4-.1.7-.4.8-.8h.8c.4,0,1.2-.3.9-.9l18.8-7.3c3.8-1.5,8.6-1.9,11.4.7"/>
        <path class="st2" d="M463.8,341.2c-7.8,4.8-16.9,7-25.5,11.3-8.3,4.2-9.8-2-11.8,0-2.2,2.1,1.6,20.5-2,20.5-.1-6.8-.5-13.7.8-20.7.6-3.1,6.2,2,9.8.4l22.4-9.6c.8-.4,1.6-.4,1.9-1.1.3-.5.2-1.1,0-1.7.8-.2,1.7-.5,2.5-.9-.2.6,0,1.3.5,1.5.4.2.9.2,1.2.2"/>
        <path class="st2" d="M413.2,297.8c-.2,1.3-1.8,1.5-2.7,3.2,2,4.2,9.7,26.9,6.6,28.6-.4-13.1-13.7-35.4-4-31.9"/>
        <path class="st2" d="M445.6,430.6c-1.8,4-19.3,12-23.5,13.6,3.8-3.1,8.6-5.1,13.4-7.5,3.7-1.9,6.6-4.5,10.1-6"/>
        <path class="st2" d="M468,369.8c.3-3-1.4-15.2-1.5-19l-.4-9.6c0-.5-1.2-.1-1.4,0,.4-1,1.2-.8,1.7-.6,1.2.5,1.9,1.5,1.7,2.9-.7,5.3,1.5,17.9.7,25.4,0,.6-.3,1.3-.8.9"/>
        <path class="st2" d="M425.3,312.3c0,1.4-2.5,2.4-4.2,1.5-5.6-2.9-1.8-13-3.1-17.1-1.6,0-2.2,1.4-3.3.9.3-1.1,3.1-2.8,3.7-1.7,2.2,3.9-.7,15.3,3.5,17,1.1.4,2.4.2,3.4-.6"/>
        <path class="st2" d="M460.7,415.8c3.5-8.2,6.4-16.7,7.3-25.6,3.2,1.3-3.8,24.4-7.3,25.6"/>
        <path class="st2" d="M421.8,345.2c-.2.7,0,1.5.1,2.2-2.2.2-1.5,6.3-3.1,5.2.4-7.3-1.4-14.4-1.6-21.6,4-.7.4,16.5,4.6,14.1"/>
        <path class="st2" d="M468,388.8c-.2-5.5-.2-11.1,0-16.7.5-.5,1.5.1,1.5.9v14.8c0,.8-1,1.4-1.5.9"/>
        <path class="st2" d="M432.8,307.7c1,.7,2.2,0,3.2-.4-2.5,3-5.6,5.7-9.1,7.4l.2-2.3c1.5-1.9,3.2-4.1,5.6-4.7"/>
        <path class="st2" d="M501.5,283.9c-2.2,3.3-6.2,5.6-9.8,7.1-1-1.2,8.9-6.6,9.8-7.1"/>
        <path class="st2" d="M449.9,311.7c-.1.7-.6,1.1-1.4,1.6l-15.8,9c-3.7,2.1-6.7,4.6-12.1,4.7.2-1.8,0-4.8,1.4-6.4l.2,4.9c3.5,0,6.3-1.8,9.4-3.5l18.3-10.2Z"/>
        <path class="st2" d="M454,309.1c4.8-3.7,10.4-6.9,15.9-10.5l15.3-10.1c-4.5,5.2-10.8,8.4-16.8,12.1l-8.4,5.4c-2,1.3-3.8,2.8-6,3.1"/>
        <path class="st2" d="M450.8,329.6c1.7,1.4-7.3,3.7-9.1,4.9-.5,0-1.2-.3-.9-.7,3-2,6.5-3.2,10-4.2"/>
        <path class="st2" d="M491.6,309.3c-1.7,2.4-4.7,3.9-7.5,4.6-1.7-.6,6.9-4.5,7.5-4.6"/>
        <path class="st2" d="M515.4,295.2c-1.9,1.8-3.8,3.8-6.6,4.6,1-2.5,4.1-3.8,6.6-4.6"/>
        <path class="st2" d="M516.2,263.2c.8-2.2.3-4.5-.6-6.5,2.6-.3,1.9,6.5,1.8,6.5-.2.2-1,0-1.3,0"/>
        <path class="st2" d="M499.2,304.9c-.9,2.2-3.9,2.7-5.9,3.9,1.1-2.1,3.6-3.2,5.9-3.9"/>
        <path class="st2" d="M459.1,330.5c1.8,1-5.5,3-6,3.1.3-2.6,3.8-2.8,6-3.1"/>
        <path class="st2" d="M533.7,269.7c-1.7,0-3.5-.2-5.2,0-.5-1.7,1.4-1.4,2.1-1.6,2.2-.8,2.2,1,3.1,1.7"/>
        <path class="st2" d="M486,288.5l19.7-14.6c-1,3.3-9.2,7.1-13.5,11-1.9,1.7-4.3,2.2-6.1,3.6"/>
        <path class="st2" d="M458.2,326.3c.1,2.1-2.6,2.2-4.3,2.4,0-2.1,2.8-1.8,4.3-2.4"/>
        <path class="st2" d="M520.6,271.5c0,1.8-2,2.1-3.5,2.4,0-1.8,1.8-2.5,3.5-2.4"/>
        <path class="st2" d="M461.5,309.9c-.8,1.3-2.1,1.9-3.5,2.4-.1-1.8,2-2.3,3.5-2.4"/>
        <path class="st2" d="M425.5,338.6c.5,1.5-.9,1.7-2.2,1.7-1.4,0-1.2-.6-1.1-1.8h3.4Z"/>
        <path class="st2" d="M536.7,277.9c-1,2.4-2.3,5.7-4.8,6.4-.6.6,5.4-9.1,4.8-6.4"/>
        <path class="st2" d="M468.1,305.9c.2,2.1-2.2,1.8-3.4,2.4,0-.9.3-1.6,1-1.9.8-.4,1.6-.4,2.4-.5"/>
        <path class="st2" d="M484.5,295.3c-.6,2.1-3.3,3.1-5.3,4,.8-2,3.2-3.5,5.3-4"/>
        <path class="st2" d="M525.5,269.8c-.9,1.1-2.2,1.5-3.6,1.6-.2-1.1.6-1.7,1.7-2.2.6-.3,1.2,0,1.8.6"/>
        <path class="st2" d="M430.4,337c0,1-.7,1.7-1.8,2.1-.5.2-1.3.1-1.8-.6.9-1.1,2.3-1.5,3.7-1.6"/>
        <path class="st2" d="M435.3,335.4c.1,1-.7,1.6-1.8,2.1-.6.2-1.3.1-1.8-.6.9-1.2,2.3-1.3,3.6-1.5"/>
        <path class="st2" d="M449.2,316.8c-.2,1.4-1.6,2-2.8,2.2,0-1.6,1.5-2.1,2.8-2.2"/>
        <path class="st2" d="M455.6,422.3c1.7-1.9,2.8-4.5,5-5.8-.6,2.6-2.7,4.6-5,5.8"/>
        <path class="st2" d="M477,300.3c-.1,1.5-1.4,1.6-2.4,2.1,0-1.4,1.2-1.8,2.4-2.1"/>
        <path class="st2" d="M473.8,319.1c-.2.5-.4,1.1-1,1.5-.4.2-1,.1-1.5,0,.4-1,1.5-1.3,2.5-1.4"/>
        <path class="st2" d="M526.8,287.9c.2,1.8-1.4,1.6-2.5,2,.2-1.2,1.3-1.9,2.5-2"/>
        <path class="st2" d="M482.6,314.2c0,1.4-1.2,1.8-2.5,1.9.1-1.2,1.3-1.7,2.5-1.9"/>
        <path class="st2" d="M554.9,290.4v-2.6c.3,0,1.4-.2,1.5.4.2.7.2,1.6-.4,1.9-.3.1-.7.2-1.1.3"/>
        <path class="st2" d="M431.1,341.2c-.5,1.3-2.3,1.1-3.5,1.5-.5-1.1.6-1.8,1.3-1.7l2.1.2h0Z"/>
        <path class="st2" d="M517.9,298.5c-.3-1.9,1.9-1.9,3.3-2.4-.5,1.4-1.9,2.2-3.3,2.4"/>
        <path class="st2" d="M430.4,326.4c.6.8-.4,1.1-.8,1.4-.5.4-1.5,0-1.9.2.1-1.6,1.5-1.4,2.6-1.6"/>
        <path class="st2" d="M489.4,314.8c-1.2,1.7-3.1,2.8-5.1,3.3.4-2.4,3.1-2.9,5.1-3.3"/>
        <path class="st2" d="M418.7,445.9c-.1,1.3-1.4,1.6-2.6,1.6-.5-.7.3-1.2.8-1.4.6-.3,1.2-.3,1.8-.3"/>
        <path class="st2" d="M511.4,301.8c-.3,1.1-1.4,1.6-2.5,1.6.1-.5,0-1.4.6-1.6.7-.3,1.3,0,1.9,0"/>
        <path class="st2" d="M455,313.3c.5.5.1.7-.2,1-.5.5-1.3.3-1.7.5-.2-.6,0-1.3.5-1.5.5-.1,1,0,1.3,0"/>
        <path class="st2" d="M533.6,306.6c.2.6,0,1.6-.5,1.5h-1.3c-.5-.6-.2-.7.2-1,.5-.5,1.2-.3,1.7-.5"/>
        <path class="st2" d="M445.1,319c.4.5.1.7-.2,1-.5.5-1.2.4-1.7.5-.5-.6.1-1.3.6-1.5.4-.2.9,0,1.3,0"/>
        <path class="st2" d="M505.8,300.9c.5.6-.2,1.2-.7,1.4-.5.2-1,0-1.3.2-.4-.5,0-.8.2-1,.5-.6,1.2-.5,1.8-.6"/>
        <path class="st2" d="M516.5,299.2c-.3.7-1.1.9-1.8.9.2-.4-.2-1.3.5-1.7.5-.3,1,.5,1.3.7"/>
        <path class="st2" d="M421.3,444.3c.3.4.2.9-.1,1.2-.5.6-1.2.5-1.8.4-.5-.7.3-1.1.7-1.3.4-.2.8-.2,1.2-.2"/>
        <path class="st2" d="M440.2,321.5c.5.5.1.7-.2,1-.5.5-1.2.3-1.7.5-.4-.6,0-1.3.6-1.5.5-.2.9,0,1.3,0"/>
        <path class="st2" d="M453.2,424.7c-1,2.8-4.3,4.1-6.7,5.7-.2-1.4,1.3-1.8,2.7-2.4,1.8-.8,2.1-3.3,4.1-3.3"/>
        <path class="st2" d="M529.5,286c-.2.3,0,.8-.2,1.2-.3.5-1,.5-1.6.5-.1-.4,0-.8.2-1.1.4-.5,1.1-.6,1.7-.5"/>
        <path class="st2" d="M462.2,324.6c-.1.4,0,1.2-.6,1.6-.5.3-.9-.7-1.3-.7.2-.8,1.2-.7,1.9-.9"/>
        <path class="st2" d="M425.5,328.9c.4.4.2.8-.2,1-.5.4-1.1.5-1.7.5,0-.5,0-1.3.6-1.5.5-.1.9,0,1.3,0"/>
        <path class="st2" d="M464,328.7c-.3.8-1.3.5-1.8.9-.2-.3-.1-.7,0-1.2.1-.3.6-.5,1-.3.3.1.5.6.9.7"/>
        <path class="st2" d="M491,291.1c.4.5.2.8-.1,1.1-.5.5-1.2.3-1.7.5-.3-.6,0-1.3.6-1.5.5-.2.9,0,1.3-.1"/>
        <path class="st2" d="M506.5,273.1c1.9-1.7,3.7-3.5,5.7-5-1.5,2.1-3.2,4.5-5.8,5"/>
        <path class="st2" d="M422.2,319.1c.2-1.1,1.4-1.5,2.3-1.9-.3,1-1.1,1.9-2.3,1.9"/>
        <path class="st2" d="M422.1,344.4c.1-.5.4-.7.8-.7.3.7-.5.6-.8.7"/>
        <path class="st2" d="M436.8,339.4c-.1-.5.4-.7.8-.7-.1.4-.5.5-.8.7"/>
        <path class="st2" d="M439.2,338.6c-.3-.6.6-.6.9-.6.3.6-.6.6-.9.6"/>
        <path class="st2" d="M441.7,337.9c-.2-.5.5-.8.9-.8.3.6-.5.8-.9.8"/>
        <path class="st2" d="M465.5,328c.2-.3.6-.5.9-.7.3.7-.5.6-.9.7"/>
        <path class="st2" d="M469.6,326.4c-.2-.5.4-.7.8-.8-.2.3-.5.6-.8.8"/>
        <path class="st2" d="M471.2,325.5c.2-.3.5-.6.9-.7-.1.4-.5.6-.9.7"/>
        <path class="st2" d="M472.8,324.8c.2-.4.5-.6.8-.8-.1.4-.4.7-.8.8"/>
        <path class="st2" d="M474.5,323.9c.2-.3.5-.7.8-.8-.1.4-.4.7-.8.8"/>
        <path class="st2" d="M476.1,323.1c.2-.3.5-.8.9-.8.3.6-.5.8-.9.8"/>
        <path class="st2" d="M481.9,319.7c.3-.3.6-.6,1-.8-.2.4-.6.6-1,.8"/>
        <path class="st2" d="M425.2,316.5c.3-.3.5-.6.9-.9-.2.4-.5.7-.9.9"/>
        <path class="st2" d="M518.7,314.5c-.3-.7.5-.5.9-.6-.3.2-.5.4-.9.6"/>
        <path class="st2" d="M435.9,304.8c-1.5.4-2.7,1.5-3.2,2.9-2.5.5-4.1,2.8-5.6,4.7h-1.1c-.1-2,14.5-13.4,15.7-14.1-1.6,3.9-5,3.6-5.8,6.5"/>
        <path class="st2" d="M495,311.5c.3-.2.5-.6.9-.7.4.6-.5.6-.9.7"/>
        <path class="st2" d="M451.4,310.7c.2-.4.7-.5,1-.8-.3.2-.6.7-1,.8"/>
        <path class="st2" d="M500.7,308.3c.3-.3.6-.6,1-.8-.2.4-.6.6-1,.8"/>
        <path class="st2" d="M535.9,305.7c.1-.4.5-.7.9-.8,0,.4-.5.8-.9.8"/>
        <path class="st2" d="M512.2,301.8c.3-.3.5-.7.9-.9.3.6-.5.7-.9.9"/>
        <path class="st2" d="M522,296c.2-.3.5-.7.8-.8-.2.4-.5.6-.8.8"/>
        <path class="st2" d="M523.7,295.2c.2-.3.5-.7.9-.9.3.6-.5.8-.9.9"/>
        <path class="st2" d="M454,423.9l.8-.9-.8.9Z"/>
        <path class="st2" d="M515.4,255.8c-.3-.1-.5-.7-.8-.8h.9c0,.2-.1.5,0,.8"/>
        <path class="st2" d="M514.6,265.7c.2-.8.8-1.5,1.6-1.8-.2.7-.8,1.7-1.6,1.8"/>
        <path class="st1" d="M355.5,144.2c4.3,5.2,5.6,12.4,5.7,19-5.6,2-11.7,1.1-17.9,1.7l-18.8,1.8c-4.9.5-9.8,1-14.7,1.8l-9.2,1.4c-16.1,2.5-26-2.5-37-.4-11.1,2.2-22.2,2.4-33.5.9-7.2-.9-14-.6-21.3.1l-10.6,1-12.4,1.7-50,8.1-12.7,2.1c-9.7,1.6-19.1,2.9-28.4,3.4.5-4.3,9.2-13.6,6.5-16.7-3.3-3.9-12.6,15.2-13.8,17.6-2.5-.4-5.4,1.7-8.1.6-2.1-.9-1.3-4.4-2-6.2-1.2-3.4-2.3-6.9-2-10.3l30.7-7.4c9.8-2.4,18.8-5.9,28.9-7,6.6-.7,13-2,19.6-2.4l12.4-.7,15.5-.9c6-.3,11.4-.7,17.4-1.5l10.1-1.4c3.5-.5,7-1.3,10.4-1.8l12.3-1.6c10.2-1.4,20.4,0,30.8-.5,6.6,2.6,13,1.5,19.8,1l33.1-2.3,32.5-.5c2.4,0,4.5-1,6.5-.7"/>
        <path class="st5" d="M309.5,99.2c.5,0,.8.8,1.4.7.5,0,1-.6,1.4-.8h6.2c1.8,0,3.5-.1,5.2,0l8.7.2c-.5,1.2.8,1.5,1.4,1.6.8,0,1.5-.2,2.1-.1h2.1c1.3,1.4,3.4,1.5,5.2,1.6l3,.2c-.5.7.3,1.3.7,1.4.8.3,1.4,0,2,0l2.2.2c-.5.6.2,1.2.7,1.4.5.2.9,0,1.2,0l2.2.2c-.5.7.2,1.1.7,1.3.4.2.9,0,1.2.2,3.1,1.2,5.8,3.3,8.8,4.9-.3.7.1,1.2.6,1.4.4.2,1,0,1.2.2,4.7,3.3,9,7.7,11.4,12.9.2.5-.1,1.3.6,1.8.3.2.6.6,1,.2.4,1.6,1.8,2.9,1.7,4.6,0,.6-.1,1.2.4,1.8.3.3.6.6,1.1.2l.2,3c.1,1.9.3,3.8,1.5,5.2v4.6c.3,3.6.3,7.3.1,10.9v3.8c-1.2.7-1.4,3-.2,3.6-.1.6-.1,1.5,0,2.2-1.9-1.4-2,4.7-1.1,5.9.2.3.6.6,1.1.2l.2,4.6c0,.6-.2,1.2,0,2,.1.4.7,1.2,1.4.7.3,2-.1,4-1.6,5.5h-.9c0,0-6.5.4-6.5.4-5.1-5.3-7.8,3.6-16.3-.4l-.2-1.4c0-.9,0-1.8,0-2.8,0-.2,0-.5,0-.7.3-.2.7-.5.8-.9.6-2.6,2-4.6,1.9-7.1.5.6,1.5-.2,1.5-1v-13.9c0-.8-1-1.5-1.5-1v-1.4c.8.2.8-.8.6-1.3-.1-.4-.2-.9-.8-.6v-2.1c0-.6,0-1.2-.4-1.8-.3-.3-.6-.6-1.1-.2,0-3.5-2.2-6.4-3.4-9.6-.2-.5,0-1.2-.6-1.7-.3-.2-.6-.6-1-.2-.8-5.9-23-17.5-41.4-16.8-14.4.5-27.3,4.7-38.1,14.8-1.4,1.3-3.8,2.1-3.5,4.4-2.1.2-4-.2-6.5-.2l-18.8-.5c2.4-9.6,8.7-18.2,16.4-24.4.6,0,1.2,0,1.7-.6.2-.3.3-.7.1-1.1.6,0,1-.6,1.5-.8.5-.2,1.2,0,1.5-.5.2-.3.2-.7.2-1.1.6-.5,1.4-.9,2.2-.9.6,0,1.2,0,1.8-.5.3-.3.5-.7.1-1.1,1-.5,2-.8,3.1-.9.4,0,1.1-.3.9-.8,2.3-1.2,4.6-2.9,7.2-3.3.5,0,1.2.2,1.8-.4.3-.3.6-.6.2-1.1l2.2-.2c1.6-.1,3.4-.2,4.4-1.6h1.3c1.1,0,2.6-.2,2.7-1.5l3.9-.2c1.7,0,4.1.8,4.4-1.4h2.2c0,0,0,0,0,0Z"/>
        <path class="st2" d="M68.9,191.6c-3.8,1.8-15,2-18.3-2-2.6-3.1,4.4-19,14.8-16.5,5.4,1.3,10.9,15,3.5,18.5"/>
        <path class="st2" d="M94.8,186.9c-.2,0-.6.1-.8,0-1-.4-1.7-.9-3.2-1.4-.2,1.9-2.4,2.2-3.1,3.1,0-.2-.1-.6,0-.8,1.1-2.4,10.4-21.5,13.8-17.6,2.7,3.1-6,12.4-6.5,16.7"/>
        <path class="st1" d="M472.8,141.8c.3,4-.7,7.8-1.1,12-.1.9,1.9,1.4,2.3.9,2.6-3.1,2.2-7.6,3-13,16.2-2.3,25.3-2.3,41.6.9,2.9.6,5.2,2.2,5.7,4.8.6,3.1-1.1,5.2-4,6.6-5.7,2.6-11.6,3.8-17.7,4.8l-8.3,1.5c-4,.7-7.6,1-11.7,1.4l-12.3,1.4h-80.9s.3-14.8.3-14.8c0-2.4-.3-4.6-.5-6.6,7.5-.8,15-2.2,22.9-1.5,3.9.4,23.5-3.4,38.5-1.4l22.2,3h0Z"/>
        <path class="st1" d="M354.8,195.8v-.9c-.1-1.7,0-2.7.1-3.8.6.1,1.2,0,1.5-.6.2-.3.2-.7.2-1.1.4,0,.6,0,.7,0h2.5c0,0,.8-.1.8-.1,2.9,2.4,6.8,2.1,9.9.8,6.9-3,7.5,3.4,15.7.2,1.1-.4,1.8-.8,2.3-.9,1.4-.5,1.8-1.2,2.5-1.7,1.5-1,2.5-2.2,3.6-2.3,1.7,0,7.2,2.6,6.8,6.6-.2,2-2.1,3-3.8,3.9-12.2,6.8-32,7.2-42.8-.2"/>
        <path class="st2" d="M378.5,188c-7.1,1.8,7.1,2.4,7.5,2.2-8.2,3.3-8.8-3.2-15.7-.2-3.1,1.4-7,1.6-9.9-.8.8-.2,1.6-.8,1.8-1.6,8.6,3.9,11.2-4.9,16.3.4"/>
        <path class="st2" d="M364.8,174.8c-.3-5.3,0-10.6,0-15.9.5-.5,1.5.2,1.5,1v13.9c0,.8-1,1.5-1.5,1"/>
        <path class="st2" d="M386,159.2c.1-3.6.1-7.3,0-10.9,2.3-3.1,2.3,14,0,10.9"/>
        <path class="st2" d="M385.8,168.7c.2,2,0,4,0,6.1-.5.4-.9.1-1.1-.2-.9-1.2-.8-7.3,1.1-5.9"/>
        <path class="st2" d="M323.8,99.1c-1.8,0-3.5,0-5.2,0-.4-1.8,1.7-1.6,3-1.6,1,0,2.7,0,2.2,1.6"/>
        <path class="st2" d="M343.4,102.4c-1.8-.1-3.9-.2-5.2-1.6,1.6-.9,5-.5,5.2,1.6"/>
        <path class="st2" d="M385.9,143.6c-1.2-1.4-1.4-3.4-1.5-5.2,2.1.2,2.5,3.7,1.5,5.2"/>
        <path class="st2" d="M295.1,102.4c-1,1.5-2.8,1.5-4.4,1.6-.3-1.2.9-1.5,2-1.9.7-.2,1.7-.5,2.4.3"/>
        <path class="st2" d="M307.4,99.3c-.3,2.2-2.7,1.4-4.4,1.4-.5-1.2.8-1.6,1.5-1.6,1,0,2.1,0,2.9.2"/>
        <path class="st2" d="M336.1,100.7c-.6,0-1.3.2-2.1.1-.6,0-2-.4-1.4-1.6.7,0,1.9-.3,2.8,0,.5.1,1.3.6.8,1.5"/>
        <path class="st2" d="M385.8,166.5c-1.2-.6-1-2.9,0-3.6,0,.6,1.3,1.2.9,2.2-.2.5-.8,1-1,1.4"/>
        <path class="st2" d="M387.5,182.1c-.7.5-1.3-.3-1.4-.7-.3-.8,0-1.4,0-2,.7-.5,1.3.3,1.5.7.3.8,0,1.5,0,2"/>
        <path class="st2" d="M312.3,99.1c-.4.2-.8.7-1.4.8-.6,0-.9-.7-1.4-.7-.2-.8.8-.9,1.4-.9s1.5,0,1.4.8"/>
        <path class="st2" d="M362.1,183.5c0,.9,0,1.8,0,2.8-1,0-1.5-.5-1.6-1.4,0-1,.6-1.9,1.6-1.4"/>
        <path class="st2" d="M349.2,104c-.6,0-1.2.2-2,0-.4-.1-1.2-.7-.7-1.4.6,0,1.3-.2,2,0,.5.2,1.2.8.7,1.5"/>
        <path class="st2" d="M299.1,100.9c0,1.3-1.6,1.4-2.7,1.5-.5-.7.2-1.3.7-1.4.8-.2,1.4,0,2,0"/>
        <path class="st2" d="M288.5,104.2c.4.4.1.8-.2,1.1-.5.5-1.2.3-1.8.4-.5-.6.1-1.2.7-1.4.5-.1.9,0,1.3,0"/>
        <path class="st2" d="M353.3,105.7c-.4,0-.8,0-1.2,0-.5-.2-1.1-.8-.7-1.4.6,0,1.2-.2,1.8.4.3.3.5.7.2,1.1"/>
        <path class="st2" d="M357.4,107.4c-.3-.1-.8,0-1.2-.2-.5-.2-1.2-.7-.7-1.3.6,0,1.3-.2,1.8.4.3.3.6.7.1,1.1"/>
        <path class="st2" d="M275.4,110.7c.4.4.1.8-.1,1.1-.5.6-1.2.5-1.8.5-.5-.6.3-1.1.7-1.4.4-.2.9,0,1.2-.2"/>
        <path class="st2" d="M364.7,157.5c-.3-.3-.7-.7-.7-1.1,0-.3.5-.6.5-.8.5-.2.6.2.8.6.2.6.2,1.6-.6,1.3"/>
        <path class="st2" d="M368,113.9c-.3-.2-.9,0-1.2-.2-.5-.3-.9-.8-.6-1.4.4.2,1.3,0,1.7.6.2.3.3.7.1,1.1"/>
        <path class="st2" d="M271.2,113.2c0,.3,0,.7-.2,1.1-.3.6-1,.3-1.5.5,0-.6,0-1.2.5-1.5.3-.2.9,0,1.2-.1"/>
        <path class="st2" d="M364.5,153.4c-.6.5-1.2-.2-1.4-.7-.1-.5,0-.9,0-1.3.4-.4.8-.2,1.1.2.5.6.3,1.2.3,1.8"/>
        <path class="st2" d="M268,115.6c.2.4.1.8-.1,1.1-.5.5-1.1.6-1.7.6,0-.5.2-1.2.6-1.4.4-.2.8-.2,1.2-.2"/>
        <path class="st2" d="M359.7,141.9c-.6.5-1.4-.2-1.5-.6l-.2-1.3c.4-.4.7,0,1,.2.7.5.4,1.2.6,1.7"/>
        <path class="st2" d="M381,128.8c-.4.5-.7,0-1-.2-.7-.5-.4-1.3-.6-1.8.6-.5,1.2.3,1.4.7.2.4.1.9.2,1.2"/>
        <path class="st2" d="M384.2,135.4c-.4.4-.8.2-1.1-.2-.5-.6-.4-1.2-.4-1.8.6-.5,1.2.1,1.4.7.1.5,0,.9,0,1.3"/>
        <path class="st2" d="M359.7,189.4h-2.5c.6-.8,1.2-.9,1.8-.7.3.1.5.5.7.7"/>
        <path class="st2" d="M354.9,191.2c0-.9.7-1.6,1.7-1.7,0,.4,0,.8-.2,1.1-.3.5-.9.7-1.5.6"/>
        <path class="st2" d="M390.9,187.6c-.7.5-1.1,1.2-2.5,1.7.4-1.1,1.4-1.6,2.5-1.7"/>
        <path class="st2" d="M354.8,195.8c-.8,0-.7-.6-.1-.9v.9Z"/>
        <path class="st2" d="M385,187.6h.9c-.1,1-.7.8-.9,0"/>
        <path class="st2" d="M362.1,182.8c.1-.4.2-1.2.8-.9,0,.4-.5.7-.8.9"/>
        <path class="st2" d="M278.5,109.7c.2-.3.5-.6.9-.8.2.5-.5.7-.9.8"/>
        <path class="st5" d="M271.2,175.4v5s-.1,14.5-.1,14.5c0-1.1-2.1,23.6,0,24.1v14.5c.1,0,.1,18.3.1,18.3,0,.7-.3,1.7-.1,2.4-1.2.7-2.5,1.6-2.6,3.2h-.6c-2.1.2-4.2,1-5.8,2.5-.7-.2-1.6.2-2.4.2-1.8,0-3.6.3-5,1.4h-3.3c-1.8.2-4.6.9-6.2-.4-1.4-1.2-1.8-4.2-1.8-6.1v-10.8c0,0-.2-25.2-.2-25.2,0-1.1.2-2.4,0-3.5-.7-3.5,1.1-7.8,0-11.2.5.2.6-.4.6-1l.2-17.1c0-3.5,1-6.6.7-9.8,10.3.1,19.3-3.7,26.3-1"/>
        <path class="st2" d="M244.9,176.4c.3,3.1-.7,6.3-.7,9.8l-.2,17.1c0,.6-.1,1.2-.6,1-2.4-8.4.6-18.3-.8-27.9h2.3Z"/>
        <path class="st2" d="M277,176.2c-1.1,0-2.4-.2-3.4.4-1.4.9-.6,4.2-2.4,3.8v-5c1.6,0,4.5-1.2,5.8.8"/>
        <path class="st2" d="M540.2,152.9c-.6,4.2-3.5,6.1-6.9,5.2-6.5-1.9-2.3-11.2-2.4-11.1,1-1,2.7-1.1,4.2-1,3.8.3,5.8,2.9,5.2,6.9"/>
        <path class="st2" d="M460.7,245.8c-.8,6.8-1.2,16.8-1.6,24-.2,4.6-1,9.2-.6,13.8-.7.2-1.5.7-2.2,1,.7-1.7,1.9-3.6,1.3-5.9-.6-2.2.1-3.9.2-6l.7-17.7c.2-4.7,1.2-13.8,1.3-17.4,1,2.3,1.3,5.6,1,8.1"/>
        <path class="st2" d="M459.8,229.6c-.8-1.6-.9-4.5-2.4-5.8-2.9-2.5-7-1.7-10-.7-2.2-1.3,8.3-4.8,12,2,.9,1.5,2.1,3.2.4,4.5"/>
        <path class="st2" d="M446.5,223.2c-1.4,1.8-3.5,3.3-5.8,3.9.1-.6.4-1.2.7-1.7,1.8-.6,3.1-2,5-2.1"/>
        <path class="st2" d="M459.8,234.6v-1.9c.4.2,1.4,0,1.5.6.1.5,0,.9-.4,1-.3.1-.7.2-1.1.2"/>
        <path class="st1" d="M238.4,226.3v1.5c.4,7.8,4.6,30.6.7,36.1-8.7,2.1-17.1,3.8-25.5,4.2h-1.5c0,0-32.2,4.1-32.2,4.1-6.2.8-12.2,1-18,2.5-.7.2-1.2,0-1.4,0l-12.5,1.6c-1.4.2-2.3,0-3.1,0-.4-2,1.7-2.8,3.1-4.2,5.6-5.4,10.8-10.8,15.7-16.4,1.8-1.5,2.7-2.7,3.9-4.1,2.7-3,5.5-5.3,7.6-8.2.3-.4.5-.6.7-.8.4-.2.7-.5.9-.9l.8-.8c.4-.2.7-.5.9-.9.4-.4.6-.6.8-.8,2.4-2,3.6-4.4,5.8-5.8.5-.3.6-.6.8-.8.4-.2.7-.5.9-.9.4-.4.6-.7.8-.8,2.9-.9,4.3-3.5,6.9-4.6,6.1-2.6,12.6-3.1,18.9-4.9l7.6-2.2c5.5-1.6,10.9-2.4,16.3-4.1,1.5,4.1,1.1,7.5,1.2,10.9"/>
        <path class="st2" d="M273.9,214.1c.2,1.6.2,3.6,0,5.6-.4,2.9.8,5.1,1,7.7l1.2,14.7c.4,4.8,1.2,9.3,1.3,14.1.3.5,1.5.3,2,.3.2,0,.5,0,.7,0,2.4,1.6,13.6.5,12.5-1.4.5,0,1-.2,1.4,0-3.9,1.3,18.3.1,17.2.2,8.7-.7,21.8,0,30.5,1.6,8.1,1.5,16.3,3.5,23.8,1.4h3.1c-.3.5-.2.9.1,1.1.4.3.9.6,1.6.5,9.3-1.1,14.2,2.9,15.5-2.4.3-.3.6-.6.9-.9l.9-.9.8-.8h.9c1.1.4,2,1.2,2.7,2.2-2.1,4.6-5.8,8.6-6.2,14.2-.4,5.3-.9,10.9.4,15.7,1,4,1,7.7,1.8,11.8,1.1,6.4.6,12.8,1.3,19l-2.6.2c.2-1.7-.4-4.4-2.1-4.9l-.2-2.8c0,.7,1-12.3-1.4-11.1.1-.8-.2-1.7-.2-2.5,1.4-1.3,1.2-3.9-.1-5.2v-1.4l.2-14.2c0-1.2-.6-2-1-2.5,0-3.2-2.9-6.1-5.7-7.4.6-2.6-9.5-2-9-1.6-.4-.1-1.1-.2-1.6-.1,1.6-2.3-13.7-2.1-12.5-1.5-.4-.2-1.2-.2-1.6-.2,0-.8-1.1-1.5-2.2-1.5-5.9-.1-44-.8-46,.6-.3.2-.4.7-.1,1.1h-2.1c1.4-.7-17.7-.9-15.8,1.6-.5,0-1,.2-1.5,0-5-1.4-20,1.5-26.5,2.8-4.1.8-8.1.3-12.2,1.7-1.8.6-10.2-1.2-10.5,1.9l-2,.2c-3.6.3-7.3.6-11.3,1.2-2.8.4-20-.4-17.4,2-.9,0-2.1.3-3,0-2.4-.8-16-1.2-15.1,1.6-1-.2-2.1.4-3.1.1-2.4-.6-4.9-.2-7.4,0v-2.1c7.4-.8,11-1.6,18.9-2.2,5.5-.5,10.5-2.4,16-1.9,1.1.1,2.1-1.1,2-1.8h1.5c-2.4,2.3,22.2-2.4,22.3-2.5,3-.8,5.7-.7,7-4.9,2.1,1.7,2.9,2.9,4.7,2.8,1.5-.1,3.4-.1,3.7-2h3.3c1.9-.2,4.6.8,5-1.6.8,0,1.6-.4,2.4-.2,2.1.5,5-.4,5.8-2.5h.6c.8-.1,1.6-.4,2.4-1.2.5-.5.5-1.1.2-2-.2-.7.1-1.7.1-2.4.5.4,1.6-.1,1.6-.9v-16.4c0-.8-1.1-1.4-1.6-.9v-14.5c.3-.6.8-1.4.8-2.5v-15.7c2.8-1.5,1,7.2,1.9,13.3"/>
        <path class="st2" d="M212.2,268.2c.1.7-.9,1.9-2,1.8-5.5-.5-10.6,1.4-16,1.9-7.9.6-11.5,1.4-19,2.2l-4.1.5c-3.1.3-6.6,1.6-9,.2,5.8-1.5,11.8-1.7,18-2.5l32.1-4h0Z"/>
        <path class="st2" d="M160.3,279.6c-1,1-14.3,3.1-14.5,3.1.2-1.9,2.5-1.2,4.1-1.7,3.7-1.1,6.9-2.3,10.4-1.4"/>
        <path class="st2" d="M182.7,276.3c-3.2.9-6.7,1.4-10,1.5,0-1.2,1.6-1.6,2.6-1.6,2.5-.1,5-.6,7.4,0"/>
        <path class="st2" d="M160.6,274.8c1.7,3-14.1,2.9-12.5,1.6l12.5-1.6Z"/>
        <path class="st2" d="M170.1,277.9c-2.4.6-4.8,1.9-7.3,1.5-.7-2.6,7-1.5,7.3-1.5"/>
        <path class="st2" d="M145,276.3c-.5,1.5-1.2.2-1.1-.9,6.4-7.1,12.8-13.8,19.9-19.6-4.9,5.6-10.1,11-15.7,16.4-1.4,1.3-3.5,2.1-3.1,4.2"/>
        <path class="st2" d="M167.8,251.7c1-3.6,4.7-6,7.6-8.2-2.1,2.9-4.8,5.2-7.6,8.2"/>
        <path class="st2" d="M185.1,233.6c-2.2,1.4-3.4,3.8-5.8,5.8,1.3-2.5,3-5.2,5.8-5.8"/>
        <path class="st2" d="M185.8,232.8c.5-.5.6-.7.9-.9-.2.4-.5.7-.9.9"/>
        <path class="st2" d="M177.6,241c.5-.5.7-.7.9-.9-.2.4-.5.7-.9.9"/>
        <path class="st2" d="M176,242.7l.9-.9c-.2.4-.5.7-.9.9"/>
        <path class="st1" d="M397.3,248.3c-.4.1-.8,0-1.2.2-2.2,1.1-4.3,2.6-5.4,4.8l-1.4.8c-.4.2-.6.6-.9.9l-.8.8c-.4.2-.7.5-.9.9-.3.3-.6.6-.9.9-.8.5-1.8.8-3.1.8h-17.2c-8.8-.2-17.5-.9-26.4-3-4.3-1-8.7-1-13.2-1.6-9.7-1.3-32.3,1.2-31.9,1.3-.4-.1-1,0-1.4,0l-12.5,1.4c-.1-.1-.5,0-.7,0-.7-2.4-1.2-5-1.4-7.8l-1.9-20.7c-.4-4,.2-7.9-.7-11.7,14.5-.3,20-1.9,34,1.4,5.1,1.2,9.9,1.1,15.1,1.4,5.1.3,9.9,1.4,15.1.3,5.8-1.3,11.8,0,17.6,1.3,13.1,3,27.4-5.3,44.9-3,2.9.4,5,.4,7.9,0l11.7-1.6c8.2-1.1,16.5-3.1,24.7-1.7,1.7,1.3-1,4.2-2.5,5.1-6,3.5-12,6.3-17.7,10.1-3.2,2.2-6.5,3.8-9.8,5.9l-15.5,9.9c-1.4.9-3.1,1.6-3.5,3"/>
        <path class="st2" d="M64.4,311.4l-13.9-6.4c-2-.9-4.2-1-5.6-2.5,1.3-.8,2.8-.3,4.3.4l12.9,6.1c1.2.6,1.5,1.8,2.3,2.3"/>
        <path class="st2" d="M98.8,346.1c-1.3.4-10.8-13.7-11.3-14.8l1.3.5c4.8,1.7,7.2,9.4,10,14.4"/>
        <path class="st2" d="M86.5,329.7c-4-2.6-6.8-6.9-10.3-9.9,2.8-.1,9.7,8,10.3,9.9"/>
        <path class="st2" d="M75.1,318.8c-1.4-.2-2.5-1.1-3.2-2.4,1.2.7,3.1.5,3.2,2.4"/>
        <path class="st2" d="M243.4,244.2v10.8c0,1.9.4,4.9,1.9,6.1,1.6,1.3,4.4.6,6.2.5-.3,1.8-2.3,1.8-3.7,2-1.8.2-2.6-1-4.7-2.8-1.3,4.1-4,4.1-7,4.9-.1,0-24.7,4.8-22.3,2.4,8.3-.5,16.8-2.1,25.5-4.2,3.8-5.5-.3-28.3-.7-36.1,2.8-1.7,1.4,15,3.2,18.1,1,0,1-1.4,1.7-1.7"/>
        <path class="st2" d="M243.3,219c-.8.2-.8-.9-.8-1.4,0-.7-.1-2.1.8-2.1.2,1.1,0,2.4,0,3.5"/>
        <path class="st2" d="M272,200.9v15.7c0,1.1-.4,2-.9,2.5-2.1-.5,0-25.2,0-24.1,1.5,1.4.9,3.9.9,5.9"/>
        <path class="st2" d="M513,254.3c-1.7,0-3.6-1.3-5.6-.9-8.8,2-15.1,7.8-22.2,12.3-.4-1.6,1.4-1.7,2.5-2.5l10-7.3c8-2.5,3.8-4.1,15.2-3.1.4,0,.2,1.4.2,1.6"/>
        <path class="st2" d="M484.3,266.4c-2.6,2.2-4.9,5-8.2,5.9v-1.8c3.4.2,5.1-3.4,8.2-4.1"/>
        <path class="st2" d="M460.6,284.5c-1.4,4.2-20.4,19.7-23.9,22.1-.3-.6-.6-1.2-.8-1.8.8-2.9,4.2-2.5,5.8-6.5.3-.2.5-.5.8-.7l.9-.9c.2-.2.5-.5.8-.7.2.7,1.1.3,1.6.2.3.5.9.7,1.2.5.5-.4.3-1.4.4-1.7,2-2.1,4.5-4.6,5.8-7.3.6-1.4,1.9-2.5,3.2-3.1.7-.3,1.5-.9,2.2-1l2,.9h0Z"/>
        <path class="st2" d="M463,282.1c.3-1.5,2.1-2.1,3.4-2.5-.5,1.6-1.7,3-3.4,2.5"/>
        <path class="st2" d="M475.4,273c-2.4,2.1-4.7,4.3-7.5,5.8,1.5-2.8,4.6-4.6,7.5-5.8"/>
        <path class="st2" d="M256.2,302.6c-1,1.1,17.1,1.2,15.9,0,1,0,2,.2,3.1.1-1.1,2.4,6.2,1.8,7.3,1.6.6-.1,1.4.2,1.9.3.1,1.3,1.3,1.2,2.5,1.5,12.8,2.6,23.8,8.6,34.4,15.5.5.3,1,.6,1.4.9,4.4,6.3,7.7,7.7,11,16.2.2.6,1,.6,1.2.4.1.4.2,1.1.1,1.5-.7,2.2.7,4.6,1,7.3.3,3-1.1,6.2.7,8.4-.2.7,0,1.5-.1,2.2-2,.4-1.9,3-2.1,5.2-1.3,9.7-2.2-8.5-2.6-4.3,0-.5,0-1,0-1.5,2.3,1.4,1.5-5.6,1.4-6.1-.1-.5-.6-1.2-1.4-.7,0-.4,0-1,0-1.4,2.1-2.3.3-5.2-.7-7.9-1.8-4.7-3.1-10.2-7.4-12.5-.6-.3-1.5-1.1-1.7-1.8-.2-1-.5-1.8-1.7-1.7-.3-.2-.6-.5-.8-.7,0-1.4-1.2-2.2-2.5-2.4-.6-.1-1.1-.6-1.6-.8-.5-.9-1.5-1.6-2.5-1.6h-.7c.2-1.9-1.9-2.5-3.5-2.5-.2,0-.5,0-.7,0-.6-1.8-2.5-2.5-4.3-2.4-.2,0-.5,0-.7,0,4.1,0-22.4-9.1-18.9-5.9-.5-.2-1.1.1-1.5,0,1-3-18-2.5-20.8-1.8-12.5,2.9-24.4,7.5-34.1,15.7-2.5,2.1-5.4,3.7-5.9,6.8-.2.2-.4.5-.6.7-.3.3-.6.7-.9,1-5.1,3.8-6.8,10.5-9.2,16.8-2.3,6-1.6,16.6-.2,23.1,1.6,7.5,4.2,13.8,9,19.7,1.1,1.4,1.8,3.3,3.8,3.2.1.2.2.7.2.9.4,4.2,11.7,9.6,11.6,11.7-1.4-.4-3,0-4.6-1.4-1.4-1.3-3.1-2.1-4.7-2.6-.3-.1-.6-.3-.9-.3,0-1.3-1.1-1.9-2.3-2.1-.6-.1-1.1-.8-1.7-1-.9-2.5-3.3-4.5-5.7-5.6-.1-.3-.5-.6-.7-.9-1.4-4.9-5.7-7.3-7.3-14.6-.3-1.3-.4-2.4-1.6-2.5,0-.8,0-1.7-.3-2.4.5.3.8-.4.8-1v-18.8c0-.6-.2-1.3-.7-1,0-.5.2-1.1.2-1.6,1.8-.1,1.4-5.1,4.3-11.6.8-1.8,2-3,1.8-4.8,0-.6.6-1,.8-1.5,1.2-.2,1.8-1.3,1.7-2.5.5-.3.5-1.1.8-1.5,8.6-8.9,17.7-17.3,29.4-22.6,8.1-3.7,10.1-.6,10.1-3.7.4,0,1.1,0,1.4,0"/>
        <path class="st2" d="M312.2,395.2v2.4c-.6.3-1,.7-1.5,1-7.8,4.7-15.2,10.1-24.5,12.1-3.2.7-5.9,2.1-9.3,1.8-.9,0-1.8.9-1.6,1.5-.9,0-2.2-.2-3,.1,2.8-1.2-16.8-1.2-14.3,0h-2.4c0-.1,0-1.5,0-1.5.5-2.2,14.3.3,14.1-3.2.5.1,1.1-.2,1.6-.2-1.8.7,8.8.7,7.5-1.5.4,0,1.1-.2,1.4,0,3.4,1.5,24.4-6.4,27.1-10.5l.8-.2c1.4-.4,2.7-1.4,4.2-1.6"/>
        <path class="st2" d="M336.6,358.2c-1,8.8-4.8,17.6-10.4,24.9-4.2,5.6-8.4,11.3-14.3,14.5v-2.4c.1,0,0-1.8,0-1.8.3-.1.6-.5.8-.7,1,.1,1.8-.6,2.7-.8,2.5-.5,6.5-5.6,4.6-5.5,5.7-8.2,10.6-17.3,11.7-27.3.4-4.2,1.3,14,2.6,4.3.3-2.2.1-4.9,2.1-5.2M331.2,367.6c-.5.9-.4,1.9.2,2.2.6.3,1.2-.1,1.2-.7,0-.3,0-.8,0-1.3,0-.4-1-.9-1.4-.1"/>
        <path class="st2" d="M351.3,263h-48.3c-.3-.2-.2-.7.1-.9,1.9-1.4,40.1-.7,46-.6,1.2,0,2.3.7,2.2,1.5"/>
        <path class="st2" d="M283.6,264.8c-6.7,1.7-17.5,2.3-26,3.7-13.1,2.2-11.5,1.6-23.2,2.7.3-3.1,8.8-1.3,10.5-1.9,4.1-1.4,8.1-.9,12.2-1.7,6.5-1.3,21.4-4.2,26.5-2.8"/>
        <path class="st2" d="M254.8,302.5c0,3.1-2,0-10.1,3.7-11.7,5.3-20.8,13.7-29.4,22.6,2.2-6.4,13.9-14.8,19.9-18.8,6-4.1,12.5-7.3,19.5-7.5"/>
        <path class="st2" d="M321.3,321.4c-10.5-6.9-21.6-12.9-34.4-15.5-1.2-.2-2.4-.2-2.5-1.5,11.4,1.6,22.6,6.4,32.6,12.6,1.9,1.2,3.8,2.5,4.2,4.3"/>
        <path class="st2" d="M310.7,398.5c-.4,1.6-1.8,2.4-3.3,3.5-9.6,6.8-20.8,10.9-32.2,12-.2-.6.7-1.6,1.6-1.5,3.4.3,6.1-1.1,9.3-1.8,9.3-2,16.8-7.4,24.5-12.1"/>
        <path class="st2" d="M235.3,406.7c4.6,1.3,8.9,3.7,13.7,4.2h.8c.6.6,1.6.9,2.4.7.4.6,1.1.8,1.8.8h1.5c0,0,0,1.5,0,1.5-8.3-.5-24.4-4.5-29.4-11.1,1.6.5,3.3,1.3,4.7,2.6,1.6,1.5,3.1,1,4.6,1.4"/>
        <path class="st2" d="M232.4,271.4c-4.9,2.4-23.2,3.6-28.7,3.2-2.6-2.4,14.6-1.7,17.4-2,4-.5,7.7-.8,11.3-1.2"/>
        <path class="st2" d="M389.2,318c.6,4.5,1.5,9,.5,13.9-3.3-.2-.5-6.1-3.7-5.6,0-.9-.1-1.7,0-2.6l.6-5.5,2.6-.2Z"/>
        <path class="st2" d="M334.9,338.9c-.1.2-.9.2-1.2-.4-3.3-8.6-6.7-10-11-16.2,6,3.3,10.4,10,12.2,16.6"/>
        <path class="st2" d="M205.5,373.2c-1.9-6-.1-12.5-.9-19-.1-.9.9-1.4,1-1.8.5-.3.7.4.7,1v18.8c0,.6-.4,1.3-.8,1"/>
        <path class="st2" d="M214.8,392.8c-4.8-4.4-8.4-10.7-8.9-17.2,1.2,0,1.3,1.3,1.6,2.5,1.6,7.3,5.9,9.7,7.3,14.6"/>
        <path class="st2" d="M300.9,263.2c-3.2,1-12.5,2-15.8,1.5-1.9-2.5,17.2-2.3,15.8-1.5"/>
        <path class="st2" d="M386,388.6c.3-12,1-8.9,1.5-15.8.7-2.5.8,19.7-1.5,15.8"/>
        <path class="st2" d="M200.8,274.6c-1,1.6-3.3.4-5.1.6-3.6.4-6.8,1.6-10,1-.9-2.8,12.7-2.4,15.1-1.6"/>
        <path class="st2" d="M212,334.4c.2,1.7-1.1,3-1.8,4.8-2.9,6.6-2.5,11.5-4.3,11.6-.1-3,3.6-16.5,6.2-16.4"/>
        <path class="st2" d="M382.5,290.4c-.5.5-1.5-.2-1.5-1v-14.7c0-.6.1-1.3.7-1,.5.5,1.1,1.3,1,2.5l-.2,14.2h0Z"/>
        <path class="st2" d="M272.1,302.5c1.2,1.3-17,1.2-15.9,0-.3-.5.4-.8,1-.8h13.1c.9-.1,1.8.1,1.8.7"/>
        <path class="st2" d="M336.8,356c-1.9-2.1-.5-5.4-.7-8.4-.2-2.7-1.7-5-1-7.3,2.8,4.4,3.3,10.7,1.7,15.7"/>
        <path class="st2" d="M272.1,414.1c.9,1.2-15.3,1.2-14.3,0-2.5-1.2,17.1-1.2,14.3,0"/>
        <path class="st2" d="M365.4,264.6c-2.9.6-9.5-.7-12.5-1.5-1.2-.5,14.1-.8,12.5,1.5"/>
        <path class="st2" d="M384.3,310.6c-1.4-3.5-2-7.4-1.4-11.1,2.4-1.2,1.5,11.8,1.4,11.1"/>
        <path class="st2" d="M386.6,318.2l-.6,5.5c-1.2-3.3-1.2-6.9-1.5-10.4,1.7.5,2.3,3.2,2.1,4.9"/>
        <path class="st2" d="M376,266.4c-3,0-6.1-.9-9-1.6-.5-.4,9.6-1,9,1.6"/>
        <path class="st2" d="M282.5,304.2c-1.1.2-8.4.8-7.3-1.6,2.5-.2,5.2,0,7.3,1.6"/>
        <path class="st2" d="M221.2,399.3c-2.6-.8-4.6-3.2-5.7-5.6,2.4,1.1,4.8,3.1,5.7,5.6"/>
        <path class="st2" d="M382.7,297c-1.2-1.4-1.5-3.9-.1-5.2,1.4,1.3,1.5,3.9.1,5.2"/>
        <path class="st2" d="M225.1,402.4c-1.2,0-2.1-.9-2.3-2.1,1.2.2,2.3.8,2.3,2.1"/>
        <path class="st2" d="M214.5,330.4c0,1.2-.5,2.3-1.7,2.5.2-.5-.2-1.3.2-1.9.3-.4.8-.7,1.5-.6"/>
        <path class="st2" d="M56.5,361.7c-1.2,3.6-3.3-.9-9-2.8-.4-.1-.7-.6-1.1-.8-.5-2.7-5.6-3-5.8-8.1h1.1c1-.9,14.8,11.7,14.8,11.6"/>
        <path class="st2" d="M33.3,345c2.7-.1,4.5,2.1,6.6,3.5,0,.6.6,1.2.7,1.7.2,5.1,5.3,5.4,5.8,8.1-6.5-3.7-12-9.2-18.2-13.6.4,0,.7-.2,1.1-.2,1,1.3,2.5.7,3.9.6"/>
        <path class="st2" d="M56.5,361.7c.3.4,1.3.7,1.4,1.3-.5.8-.9,1.9-.5,2.6,1.8,3.4,6.3,1.8,7.1,6,6.1,3.6,12.3,7.1,17.2,11.9-3.9-.9-19.9-12.9-24.5-16.4-3.5-2.7-7.3-4.9-9.7-8.2,5.6,1.9,7.7,6.4,9,2.8"/>
        <path class="st2" d="M99.8,393.4c-3.2-1.1-7.2-2-9.1-4.8,3.3.6,6.7,2.5,9.1,4.8"/>
        <path class="st2" d="M90,388.5c-2.6-.5-5-2-6.7-4.1.7-.2,1.3-.7,1.9-.4-1.4-.7,6.3,4.9,4.8,4.5"/>
        <path class="st2" d="M33.3,345c-1.4,0-2.9.6-3.9-.6l.7-1.6c1.3.4,3,.8,3.2,2.3"/>
        <path class="st2" d="M95.8,387.7c-.6,0-1.3.2-1.8-.4-.3-.3-.5-.7-.1-1.1.4,0,.8,0,1.2.2.5.2,1.2.7.7,1.3"/>
        <path class="st2" d="M99.1,389.3c-.6,0-1.3.2-1.8-.4-.3-.3-.5-.7-.1-1.1.4,0,.8,0,1.2.2.5.2,1.2.7.7,1.4"/>
        <path class="st2" d="M89.3,384.4c-.6,0-1.3.2-1.8-.4-.3-.3-.5-.7-.1-1.1.5.2,1.2,0,1.7.5.3.3.6.6.2,1"/>
        <path class="st2" d="M103.3,391.7c-.6.1-1.4.3-1.8-.2-.2-.3-.1-.9,0-1.2l1.1.3c.4.1,1.3.5.8,1.2"/>
        <path class="st2" d="M41.7,350h-1.1c-.2-.4-.8-1-.7-1.6.7.4,1.8.5,1.8,1.6"/>
        <path class="st2" d="M35.8,317.7c0,.2-.2.4-.4.4s-.4-.2-.4-.4.2-.4.4-.4.4.2.4.4"/>
        <path class="st2" d="M390,350.8c-1,.3-1.4-3.2.1-3.3,1,0,1.6,2.8-.1,3.3"/>
        <path class="st2" d="M459.6,340.3c.1.6.2,1.2,0,1.7-.4.6-1.1.7-1.9,1.1l-22.4,9.6c-3.6,1.5-9.2-3.5-9.8-.4-1.3,7-.9,14-.8,20.7,0,.3,0,.5,0,.8-9.1,8.3-2.7-15.3-5.8-17.3-.1-1.3,0-2.6,0-3.9,1.6,1.1.9-5,3.1-5.2.5.4,1,.8,1.6,1,0,1.8,1.6,1.8,3,1.7,1.2,0,3.4.2,3-1.7l3.8-.2c.9,1,2.1,1.1,3.5.6.8-.3,1.9-.9,1.7-2.1.7-.2,1.5,0,2.2-.2.3,0,.5.7.8.8.4.2.9,0,1-.3.2-.5.3-.9,0-1.2l4.6-1.2c4.4-1.1,8.3-3.3,12.4-4.5"/>
        <path class="st2" d="M424.6,373.8c0,.6.1,1.4-.2,2-.4.9-4.8.8-5.5,0-2.5-2.5.1-16.6,0-19.3,3.1,2-3.4,25.6,5.8,17.3"/>
        <path class="st2" d="M447.4,295c-.8-.2-1.4.5-1.6,1.3-.5.1-1.4.5-1.6-.2,2.6-3.1,5.6-6.1,9-8.3-1.3,2.7-3.8,5.1-5.8,7.3"/>
        <path class="st2" d="M442.5,297.6c.3-.3.6-.6.9-.9l-.9.9Z"/>
        <path class="st2" d="M435.9,304.8c.2.6.4,1.2.8,1.8-.2.2-.5.5-.7.7-1,.5-2.2,1.1-3.2.4.5-1.5,1.7-2.5,3.2-2.9"/>
        <path class="st2" d="M429.5,348.5c.4,1.9-1.8,1.6-3,1.7-1.4,0-3,0-3-1.7,2,0,4,.2,6,0"/>
        <path class="st2" d="M438.5,346.9c.1,1.2-.9,1.8-1.7,2.1-1.3.5-2.6.4-3.5-.6,1.4-1.2,3.5-1,5.2-1.5"/>
        <path class="st2" d="M442.6,346c.3.4.2.7,0,1.2-.2.4-.6.5-1,.3-.3-.1-.5-.8-.8-.8.2-.9,1.2-.6,1.9-.7"/>
        <path class="st2" d="M271.2,251.8v-18.3c.5-.4,1.6.1,1.6.9v16.4c0,.8-1.1,1.4-1.6.9"/>
        <path class="st2" d="M259.8,260.1c-.4,2.3-3.2,1.4-5,1.4,1.4-1.1,3.2-1.5,5-1.4"/>
        <path class="st2" d="M267.9,257.4c-.8,2.1-3.7,3-5.8,2.5,1.5-1.5,3.7-2.3,5.8-2.5"/>
        <path class="st2" d="M268.5,257.4c.1-1.5,1.4-2.4,2.6-3.2.3.9.3,1.5-.2,2-.8.9-1.6,1.1-2.4,1.2"/>
        <path class="st2" d="M433.6,230.3c-6.8,4.7-13.8,9.3-21.4,12.5-.3-.9-.9-2.4.2-3.2,6.1-4.6,12.6-8.3,19.5-11.6,1.2-.6,2,1.7,1.7,2.3"/>
        <path class="st2" d="M365.5,258.3c-7.5,2.1-15.7.1-23.8-1.4-8.7-1.6-21.8-2.3-30.5-1.6,1.1,0-21.1,1.1-17.2-.2-.4-.1,22.2-2.6,31.9-1.3,4.4.6,8.8.5,13.2,1.6,8.9,2.1,17.6,2.8,26.4,3"/>
        <path class="st2" d="M401.7,249.3c-2.5,3.2-6.8,5.2-9.7,7.9-.6-1-1.5-1.8-2.7-2.3v-.9l1.4-.8c2.1-1.2,4.8-2.3,5.4-4.8.4-.2.8-.1,1.2-.2.9-.3,1.9-.7,2.9-.6.9,0,1.4.8,1.5,1.7"/>
        <path class="st2" d="M368.6,258.3h14.1c1.3,0,2.3-.3,3.1-.7-1.3,5.2-6.1,1.3-15.5,2.4-.7,0-1.2-.3-1.6-.5-.3-.2-.5-.7-.1-1.1"/>
        <path class="st2" d="M292.6,255.1c1.2,1.9-10,3-12.5,1.5l12.5-1.4h0Z"/>
        <path class="st2" d="M389.3,255h-.9c.3-.3.5-.7.9-.9v.9h0Z"/>
        <path class="st2" d="M386.7,256.7c.2-.4.5-.7.9-.9l-.9.9Z"/>
        <path class="st2" d="M390.7,253.3c1.1-2.3,3.2-3.7,5.4-4.8-.6,2.5-3.3,3.6-5.4,4.8"/>
        <path class="st2" d="M447.4,295c0,.3.1,1.3-.4,1.7-.3.2-.9,0-1.2-.5.2-.8.8-1.4,1.6-1.3"/>
        <path class="st1" d="M282.7,308.9c.4.2,1.1,0,1.5,0,3.7,1.6,7.6,2.8,11.8,3.8,2.4,1.3,4.7,2,7,2.1.2,0,.5,0,.7,0,.2,2,2.6,2.2,4.3,2.4.2,0,.5,0,.7,0-.1,1.8,2,2.3,3.5,2.4h.7c.3,1.2,1.4,1.5,2.5,1.7.5.2,1,.7,1.6.8.4,1.2,1.1,2.6,2.5,2.4.2.3.5.5.8.7.2.9.9,1.5,1.7,1.7.2.7,1.1,1.5,1.7,1.8,1.7,3.9,4.7,7.2,6.3,11.7,1.1,3,1.1,6,1.8,8.8.1.4,0,1,0,1.4-.1,2.3-.2,4.5,0,6.8,0,.5,0,1,0,1.5-1.1,10-6,19-11.7,27.3-1.1,1.6-4.2,2.3-4.6,4.7-1,.3-2,.9-2.7,1.6-.2.2-.5.6-.8.7-1.6.8-3.2,1.8-4.1,3.4l-.8.2-11.5,5.6c-5.1,2.5-10.5,3.2-15.5,4.9-.4-.1-1,0-1.4,0-2.6.2-4.9,1.7-7.5,1.5-.5,0-1.1.3-1.6.2-1.2-.3-14.3,3.5-31.9-4.1-3.3-1.4-6.4-3.8-9.1-6-1.8-1.4-2.5-3.8-4.7-4.2,0-.3,0-.7-.2-.9-8.9-11.7-15-25.8-12.6-40.8,1.4-8.4,3.8-16.5,9.2-22l.9-1c.2-.2.4-.5.6-.7,13.6-13.7,31.1-22.1,51-21.4,3.6.1,6.8-.6,9.9.8M289.1,389.1c7.7-1.1,13.7-5.9,18.9-11.2,8.1-8.3,12.2-19.4,10.5-31.2-.7-4.9-4-8.7-6.9-12.6-5-3.9-10.3-7.5-16.6-8.6-13-2.3-24.8,2.1-33.6,11.5-6.4,6.8-9.2,15.6-8.3,25.4,1.2,12.6,10.3,24,23,26.7,4.1.9,9,.5,13,0"/>
        <path class="st2" d="M220.2,331.3c-5.4,5.5-7.8,13.6-9.2,22-2.5,15,3.6,29.1,12.6,40.8-1.9.2-2.6-1.8-3.8-3.2-4.8-5.9-7.4-12.3-9-19.7-1.4-6.5-2.1-17.1.2-23.1,2.4-6.2,4.2-13,9.2-16.8"/>
        <path class="st2" d="M269.5,409.3c.1,3.4-13.6.9-14.1,3.2h-1.5c0-.6.2-1.4-.4-1.7-.6-.3-1,.7-1.4.8-.8.2-1.8-.1-2.4-.7-.2-.7-.6-.6-.8,0-4.8-.5-9.1-2.9-13.7-4.2.2-2.1-11.2-7.5-11.6-11.7,2.1.4,2.9,2.8,4.7,4.2,2.8,2.1,5.8,4.5,9.1,6,17.7,7.6,30.7,3.8,31.9,4.1"/>
        <path class="st2" d="M282.7,308.9c-3.1-1.4-6.4-.7-9.9-.8-19.8-.7-37.4,7.7-51,21.4.5-3.1,3.4-4.6,5.9-6.8,9.8-8.2,21.6-12.8,34.1-15.7,2.9-.7,21.8-1.2,20.8,1.8"/>
        <path class="st2" d="M331.9,349.3c-.7-2.8-.7-5.8-1.8-8.8-1.6-4.4-4.6-7.7-6.3-11.7,4.4,2.4,5.7,7.8,7.4,12.5,1,2.7,2.7,5.6.7,7.9"/>
        <path class="st2" d="M303.1,314.9c-2.4,0-4.7-.8-7-2.1-4.2-1.1-8.1-2.2-11.8-3.9-3.5-3.1,22.9,5.8,18.9,5.9"/>
        <path class="st2" d="M331.9,357.6c-.2-2.3-.2-4.5,0-6.8.8-.5,1.3.3,1.4.7.1.5.9,7.5-1.4,6.1"/>
        <path class="st2" d="M308,317.4c-1.7-.2-4.1-.4-4.3-2.4,1.8-.1,3.6.6,4.3,2.4"/>
        <path class="st2" d="M312.2,319.8c-1.5,0-3.6-.6-3.5-2.4,1.6,0,3.6.5,3.5,2.4"/>
        <path class="st2" d="M319.5,324.7c-1.5.1-2.1-1.2-2.5-2.4,1.3.2,2.5,1,2.5,2.4"/>
        <path class="st2" d="M322.1,327.1c-.8-.2-1.5-.9-1.7-1.7,1.2,0,1.5.8,1.7,1.7"/>
        <path class="st2" d="M315.4,321.5c-1.1-.2-2.2-.5-2.5-1.6,1,0,2,.7,2.5,1.6"/>
        <path class="st2" d="M220.2,331.3c.4-.3.6-.7.9-1l-.9,1Z"/>
        <path class="st2" d="M307.2,397c-2.6,4.1-23.7,12-27.1,10.5,5-1.7,10.5-2.5,15.5-4.9l11.5-5.6Z"/>
        <path class="st2" d="M278.7,407.6c1.2,2.2-9.3,2.2-7.5,1.5,2.6.2,4.9-1.3,7.5-1.5"/>
        <path class="st2" d="M312.1,393.4v1.8c-1.4.2-2.7,1.2-4.1,1.6.9-1.5,2.5-2.6,4.1-3.4"/>
        <path class="st2" d="M315.6,391.9v-.8c.4-2.4,3.5-3.1,4.6-4.7,1.9,0-2.1,5-4.6,5.5"/>
        <path class="st2" d="M331.2,367.6c.4-.7,1.4-.2,1.4.1,0,.5,0,1,0,1.3,0,.5-.6,1-1.2.7-.6-.3-.7-1.3-.2-2.2"/>
        <path class="st2" d="M315.6,391.9c-.9.2-1.7.9-2.7.8.7-.8,1.7-1.3,2.7-1.6v.8h0Z"/>
        <path class="st2" d="M253.9,412.4c-.7,0-1.4-.2-1.8-.8.4-.1.8-1.1,1.4-.8.7.4.4,1.1.4,1.6"/>
        <path class="st2" d="M249.8,410.9h-.8c.2-.6.6-.7.8,0"/>
        <path class="st3" d="M289.1,389.1c-4,.6-8.9.9-13,0-12.7-2.6-21.8-14.1-23-26.7-.9-9.8,1.9-18.6,8.3-25.4,8.8-9.4,20.6-13.8,33.6-11.5,6.3,1.1,11.6,4.6,16.6,8.6,2.9,3.9,6.2,7.7,6.9,12.6,1.7,11.8-2.4,22.9-10.5,31.2-5.2,5.3-11.2,10.1-18.9,11.2M304,374.6c7.3-6.4,11-17.5,8.4-27.2-2-7.4-8.4-13.9-15.5-16.3-15.3-5.1-31.1,3.2-36.7,17.9-5.5,14.3,2.4,30.2,17.6,33.8,8.6,2,19.1-2.1,26.1-8.3"/>
        <path class="st5" d="M304,374.6c-7,6.1-17.5,10.3-26.1,8.3-15.2-3.6-23.1-19.5-17.6-33.8,5.6-14.8,21.4-23,36.7-17.9,7.1,2.4,13.5,8.9,15.5,16.3,2.7,9.7-1.1,20.8-8.4,27.2M306.6,347.3c-3.3-5.9-10.5-6.5-15.3-2.8-4.4,3.4-6.2,10.7-1.8,15.2,3.3,3.4,10.2,2.9,13.3.3,3.6-3,6.2-8.4,3.8-12.7"/>
        <path class="st2" d="M306.6,347.3c2.4,4.3-.2,9.7-3.8,12.7-3.1,2.6-10,3.1-13.3-.3-4.4-4.5-2.6-11.8,1.8-15.2,4.8-3.7,12.1-3.1,15.3,2.8"/>
      </g>
    </g>
  </g>
</svg>