<?xml version="1.0" encoding="UTF-8"?><svg id="a" xmlns="http://www.w3.org/2000/svg" xmlns:xlink="http://www.w3.org/1999/xlink" viewBox="0 0 501.42 800"><defs><style>.d{fill:none;}.e{fill:#ffdf44;}.f{fill:#49a258;}.g{fill:#c54b4f;}.h{fill:#e36b2e;}.i{clip-path:url(#c);}.j{clip-path:url(#b);}</style><clipPath id="b"><rect class="d" width="501.42" height="800"/></clipPath><clipPath id="c"><rect class="d" y="0" width="501.42" height="800"/></clipPath></defs><g class="j"><g class="i"><path class="f" d="M268,246.73c.49-.15,1.43.19,1.92.34,2.09.64,4.29.67,6.47.64l13.69-.21,1.56.29c.16.67.33,1.51.81,1.96.7.66,1.59.45,2.12-.38.22-.35.32-.94.33-1.46,1.51.04,3.08-.37,4.59-.17,1.88.26,3.79.85,5.7.89-.41,2.08,1.1,3.75,1.61,5.72-3.28.53-6.73-.23-10.38.03-33.65,2.42-37.37-6.58-73.74,10.79-1,.48-1.76.86-1.4,1.8-.17.07-.41.01-.59.02-1.51.07-3.59.47-3.41,2.32l-.61.11c-1.74.32-3.14,1.31-4.62,2.6-3.02,2.62-8.44,5-8.13,6.83-.63.27-1.19.68-1.71,1.13-1.16.13-2.33.76-2.36,2.02l-.74.15c-.38.08-.83-.08-1.21.1-.53.26-1.2.9-.63,1.49-.2.01-.43.09-.62.15-1.47.53-11.82,7.02-11.25,8.54-.65.22-1.06.77-1.61,1.11-.43.27-1.08.21-1.51.43-.68.36-1.2.87-.94,1.69-.19,0-.45.04-.61.13-3.26,1.63-6.34,4.47-7.93,7.75-3.47,2.22-6.08,5.8-8.84,8.75-2.41.4-4.05,2.64-4.7,4.9l-.21.74c-.23-1.4-6.04,5.77-6.02,5.59-.56,4.74,5.19,11.73,7.14,13.39,2.89,2.46,4.48,5.5,6.95,7.91,3.77,3.67,7.29,7.3,11.3,10.45,4.56,3.59,9.54,6.32,12.38,11.35,3.3-.52,5.31-1.88,7.06-4.24,1.98-2.68,11.5-14.39,13.37-15.28,1.18-.56,4.11-.05,4.76,1.31-1.08,3.77-4.83,6.12-6.46,9.53-2.35,4.93-4.5,9.67-7.36,14.32-7.79,12.68-11.53,38.87-13.07,53.82-.3,2.91-1,5.68-2.69,8.06-4.31-3.57.06-11.48-10.11-15.15l-18.71-6.75c-2.02-.73-6.49-3.12-7.93-.81-2.07,3.32-.16,8.21-.12,11.92.1,8.68,3.24,23.16,6.16,30.84,3.27,8.6,8.63,15.97,14.03,23.28.9,1.22,1.41,2.57,2.81,2.59l.27.86c1.73,5.53,5.95,10.8,11.11,13.48.56.29,1.1.64,1.64.98-.19,2.91,15.65,10.76,19.1,12.57,3.71,1.94,6.67,5.28,10.54,6.81,7.86,3.09,16.27,3.09,24.52,2.01l18.41-2.41c6.8-.89,11.76,7.58,23.65,3.73l8.4-2.72c1.8-.58,3.78-.43,4.73-1.88.38.14.94-.04,1.34,0,1.48.12,2.92-.32,4.39-.42-.4,3.19-3.12,8.72-6.93,7.25-3.31-1.28-6.58-2.92-9.21.23-3.03-1.99-11.89.18-12.85,3.57-.2-.04-.42-.03-.62-.08-1.91-.5-3.83-1.05-5.82-1.02-.19-.24-.44-.42-.7-.57,1.68-2.46-10.81-2.14-11.02-1.45-.65-.1-1.65.4-2.36.09-.49-.18-1.3-.38-1.99-.12-.43.16-.67.85-.81,1.43-2.54-.1-5.05.32-7.59.37-5.97.13-12.03.37-18.29-.87-25.41-5.02-41.98-11.32-56.1-34.57-8.84-14.57-16.16-29.5-19.88-46.24-2.09-9.38-2.64-18.64-3.8-28.07-.34-2.77-1.39-4.4-4.07-5.22-5.34-1.62-10.71-2.58-16.29-3.67-19.65-3.85-29.17-11.42-45.78-14.05-8.92-1.41-17.24-3.48-25.91-5.99-22.12-6.39-34.45-17.64-46.77-36.77-3.77-5.86-5.34-13.45-2.01-19.8,5.92-11.28,26.33-12.2,37.61-10.52-5.71-7.89-9.38-8.4-13.7-18.86-3.22-7.79-.41-16.77,7.69-20.22,4.51-1.92,10.18-2.97,15.29-2.44,12.78,1.31,24.78,4.84,36.64,9.47,8.22,3.21,15.11,7.8,22.36,12.71l37.79,25.61c15.68-15.83,21.94-29.56,40.55-42.1l20.45-13.78c11.74-7.91,24.29-13.29,37.84-17.33,5.62-1.68,10.88-4.2,16.91-3.55,2.42.26,4.67.9,6.77.24M160.24,378.32c6.84,4.24,13.88,7.58,20.6,12.16,1.17.8,2.77,1.28,3.9.87,2.25-.82,6-12.87,4.2-16.33-2.37-4.58-6.99-8.69-11.08-11.87-7.64-5.95-14.51-11.78-21-19-13.54-15.06-30.15-25.14-47.22-35.87l-20-12.57c-7.83-4.92-16.58-7.71-25.45-10.62-8.07-2.65-16.5-3.22-24.75-1.28-4.46,1.05-8.78,5.39-7.83,10.08.63,3.11,3.46,5.81,5.69,7.64,4.54,3.73,7.83,8.11,11.85,12.14,6.63,6.65,14.42,10.71,22.35,15.41l17.8,10.54,14.4,6.74c9.41,4.4,17.25,10.55,25.82,16.19,4.91,3.23,11.08,3.62,15.99,6.66l14.72,9.11ZM12.32,326.83c-1.14.45-2.36,1.52-2.77,2.96-2.18,7.66.45,14.74,5.6,20.37,3.49,3.82,6.13,8.07,10.4,11.22,27.79,20.52,50.11,16.98,73.13,27.4,9.11,4.12,18.19,5.35,27.99,6.61,10.37,1.33,19.98,5.23,29.95,8.38,8.61,2.73,16.41,6.64,25.53,7.99l1.73-11.61c-20.68-9.64-30.79-19.7-53.05-28.93-6.69-2.77-12.09-6.22-18.21-10.14-10.15-6.52-20.78-12.3-31.96-17.72l-18.36-8.9c-2.44-1.18-6.27-5.98-9.57-6.07-.25-.05-.76-.23-1.36-.53-8.54-4.25-31.66-7.49-39.06-1.02"/><path class="g" d="M299.49,247.73c-1.52-.21-3.08.21-4.59.17-1.08-.03-2.22.08-3.25-.11l-1.56-.29.9-6.87c1.81-13.86,3.03-27.91,3.83-42.29.39-7.09-1.1-14.1-4.79-19.35-4.24-10.7-10.9-20.25-19.64-28.24-7.18-6.56-18.29-21.34-20.32-30.05,1.06,0,1.35-.63,1.65-1.16.43-.76-.86-2.5-.57-3.19,2.28-5.36,2.33-11.29,1.65-17.17-.58-4.98,1.26-10.05,1.36-15.08.05-2.83-1.51-5.51-1.27-8.12.27-2.85.86-23.32-2.65-23.02,2.18-6.13,5.02-11.92,8.53-17.93.39-.67.99-2.02.67-2.52-.35-.54-2.14-.62-2.83-.38-9.61,3.31-18.59,4.16-29.57,2.28,3.85,6.01,3.76,12.47,4.74,19.33,1.35,9.42,2.81,18.96-.72,28.01-2.74,7.02-4.36,13.84-4.28,21.48.06,6.36-.76,12.59.48,18.82,1.33,6.69,4.64,12.32,7.25,18.49,10.84,25.58,22.98,19.3,34.69,40.09,14.61,25.94,5.16,38.27,7.83,61.55.24,2.13.68,4.07-.63,5.52-2.18.03-4.38,0-6.47-.64,1.13-12.21.86-11.73.46-23.6l-.66-19.5c-.23-6.82-4.23-12.8-5.78-19.52-8.94-5.35-3.27-9.04-15.93-12.49-7.19-5.42-12.75-12.89-17.07-20.8-.05-1.32-.56-2.6-1.78-3.22-.26-.13-.37-.55-.61-.73.03-.59.13-1.26-.11-1.96-.2-.6-1.01-.63-1.63-.51-.03-.3-.15-.62-.12-.92.28-3.5-1.62-6.6-3.11-9.94-1.56-3.5-2.72-7.16-3.83-10.88-1.07-3.59,0-7.35-1.57-10.37l.06-3.71c2.39,2.06,1.82-9.15.53-7.3l.02-2.4c.81.2,1.12-.49.98-1.18-.09-.47-.05-1.46-.78-1.36,0-1.65.22-3.83.58-5.44.69.22,1.22-.36.98-1.17-.09-.29-.26-.75-.75-.56l1.02-7.65c2.12-.41,2.05-2.67,2.7-5.03,1.6.93.61,3,2.54,3.36l-.39-10.18c-.19-5.04.66-10.28.04-15.27-.17-1.35-2.69-2.42-2.35-4.89.3-2.13-.86-4.87-2.56-5.72-1.11-4.38-5.79-9.61-8.95-12.6-2.02-1.91-18-12.27-11.22-18.67,7.2-6.8,16.39-10.03,26.34-11.74,14.41-2.48,28.84-.78,42.76,3.47,3.73,1.14,6.16,3.77,8.03,6.98,1.11,1.9,3.67,1.73,5.16,2.96,2.44,2,1.82,5.59.72,8.3-.95,2.33-3.8,2.71-6.33,3.96-5.78,2.87-8.71,9.19-11.58,14.76-3.26,6.34-6.98,12.23-8.5,19.27-4.29,19.84,3.33,25.24-.99,36.95-1.02,2.78-.46,6.04.63,8.74,2.95,7.26-3.9,12.05,9.67,24.99,4.33,4.13,9.55,7.41,12.84,12.55l15.58,24.29c3.75,5.84,6.24,12.27,8.32,18.87,1.18,3.75,1.13,7.91.72,11.85l-3.43,32.83-1.1,15.8ZM271.84,17.37c.48-8.62-27.96-9.85-34.52-9.88-9.04-.05-17.58,1.92-25.24,6.71-1.67,1.05-3.2,4.67-.85,5.75,6.04,2.77,12.1,5.63,18.63,7.01,10.64,2.24,41.66-3.8,41.98-9.58"/><path class="f" d="M467.94,257.5c-.36.22-.72.49-1.23.87-.54.41-.49,1.18-.2,1.45.47.44,1.09-.1,1.47-.21-.56.15,12.87-.97,12.09.6-5.51,1.24-10.13-1.78-15.85,7.48-4.1,1.57-12.67,9.83-15.19,13.59-.13.19-.41.45-.85.93l-10.29,11.19-6.41,6.35c-5.47,5.42-11.54,9.6-17.49,14.5-10.92,8.98-21.08,18.25-32.91,26.03-7.44,4.89-15.38,7.93-23.49,12.06.87,4.33,2.97,7.89,4.66,12.09,10.76,1.21,21.08-1.89,29.96-8.05l23.1-16.02c6.72-4.66,13.35-9.08,20.91-12.94-.24,2.18-.08,4.37.78,6.4-7.89,5.21-14.66,12.55-23.21,16.92-.84-.2-1.14.46-1.57.96-1.5,1.73-1.48,4.79-.74,7.14-.75.57-.63,1.94-1.44,2.93-.65.36-1.95-.83-2.76-.74.14-.97-1.42-2.43-2.22-2.91-.91-.56-2.8-.63-3.95.06l-9.42,5.65c-1.33.8-2.36,1.68-2.69,2.95-.89.17-1.91,1.9-3.12,1.62-5.04,2.11-10.29,3.63-15.98,4.81-11.27,2.33,2.61,13.1,1.78,24.79-.07.98-2.28.88-2.67.39-2.48-3.09-8.12-21.75-12.21-29.93-1.93-3.87-3.81-7.48-5.37-11.53-2.59-6.74-16.54-24.46-12.99-26.88,2.24-1.52,5.68,6.2,9.84,5.15,2.9-.73,6.03-3.05,8.06-5.2,9.84-10.42,15.02-11.8,17.98-24.73,1.22-5.32-.6-10.19-4.13-14.01-3.7-4-7.12-8.25-11.49-11.53l-16.44-12.33-10.86-6.64c9.78,1.42,3.82-.95,9.81-1.05,9.3,5.54,17.88,12.58,26.27,19.93,5.31,4.65,8.7,10.21,12.83,16.52,8.26-11.94,17.86-21.09,28.28-30.36l22.84-20.33c8.98-7.99,40.56-17.12,40.68-1.69.04,5.07-1.95,9.55-4.16,13.7M445.63,246.2c-.17.06-.41.02-.58.01-.37,0-.8-.1-1.2.09-.49.22-1.15.87-.64,1.45-1.11.26-2.03.99-2.96,1.6-.28.18-.84,0-1.21.21-.5.26-.81.81-.53,1.43-.27,0-.55.15-.82.18-.48.06-1.01.11-1.45.39-.58.36-.72,1.1-.76,1.75l-2.61,1.81c-1.12.24-2.15.95-2.17,2.17-2.33,1.24-3.25,4.13-5.82,5.03-1.57.72-3.58,1.24-3.94,3.11-.49.34-.99.71-1.55.91-1.92.71-4.36,1.49-4.75,3.69-.57.2-.99.92-1.63,1.06-1.52.33-2.95,1.28-3.08,2.92-.25.04-.52.1-.76.17-2.73.8-5.62,3.46-5.77,6.38-.54.41-.78,1.29-1.51,1.52-.32.1-.79,0-1.14.21-.58.34-.41,1.03-.52,1.56-.12.58-.67,1.05-.86,1.6-2.04.23-3.39,2.02-3.86,3.94-.06.22-.13.47-.15.7-1.28.12-1.82,1.39-2.17,2.5-.06.19-.17.41-.19.61-.38-.23-.83-.19-1.12.09-.49.46-.47,1.15-.4,1.71.02.19-.02.4-.01.59-.42-.42-.75-.1-1.07.13-.68.48-.38,1.21-.56,1.74-.26.78-.59,1.58-.94,2.33-2.33-.18-8.19,14.21-9.37,16.83-.1.23-.07.53-.14.78-2.19.55-3.99,2.51-4.69,4.63-.55.17-1.02.71-1.55.95-3.91,1.76-7.24,4.7-10.7,7.64-3.86,3.28-14.26,7.58-11.7,13.65.98,2.33,4.53,3.39,7.13,2.2,8.21-3.78,15.45-9.18,22.9-14.38,1.27-.88,2.75-1.32,2.64-2.85l.78-.22c2.12-.61,15.62-7.63,15.18-10.11l.71-.21c3.88-1.14,7.78-4.43,9.04-8.39.3-.17.63-.64.85-.91,2.01-.23,11-8.8,13.62-11.11,1.5-1.33,3.42-2.08,3.57-4.09.26-.15.78-.37,1.07-.36,1.35.05,1.91-1.11,2.22-2.28.15-.52.71-.96.94-1.45.35.95,9.01-7.58,7.82-7.97.21-.11.51-.06.74-.14.7-.26,9.6-6.48,9.45-6.13.47-1.06.1-2.18.15-3.14,1.73-1.35,3.08-3.93,4.99-5.18,4.11-2.69,7.09-7.88,7.69-12.77.14-1.17.36-2.45.35-3.63.8.45,1.28-.27,1.42-.73.01-.04,1.09-6.64-1.51-5.89l-.75-1.3c-.57-.99-1.19-2.07-2.68-2.11-2.25-.05-14.9,3.06-13.44,5.14"/><path class="g" d="M248.32,522.4l-3.12,26.28c-1.33,11.22-4.46,22.1-10.87,31.36-5.63,8.14-9.45,16.76-13.65,25.59-2.29,4.81-5.1,9.16-7.79,13.81-7.07,12.23-10.38,25.7-13.15,39.52-1.05,5.23-1.32,9.97-1.87,15.23-3.33,32.1,6.04,35.14,5.87,60.7-5.13,1.49-2.13,8.83-3.61,11.03-.85,1.27-4.3.16-5.51,1.41-.97,1,.89,1.02,1.41,1.93,1.02,1.78-.17,5.63-2.09,6.49-1.57.7-3.09.33-4.08,1.58-3.92,4.95,3.53,8.61-4.43,12.66-2.25,1.14-3.61,4.64-3.76,7-.06.95.97,1.71,1.11,2.27.27,1.13-1.3,1.42-1.76,2.46-1.02,2.28.75,5.46,2.68,6.78,2.61-.47,3.32-2.48,5.03-3.36.46.13.86.4,1.7,1.05-.14,3.99-4.28,3.43-3.41,6.38.22.75,1.73,1.96,2.95,1.77l18.54-2.89c1.23-.19,2.33.43,2.39,1.13.05.6-.6,2.12-1.5,1.9-4.05-.99-13.34,2.09-12.75,1.44-.33.36,0,1.3-.03,1.82-8.76-1.06-16.72-6.5-18.74-15.37,3.03-11.59,7.96-21.78,13.7-31.96,3.84-6.8,5.14-13.42,3.74-21.25-3.29-18.37-7.91-38.04-5.83-56.64,1.02-9.11,3.55-17.52,5.66-26.42,8.51-36.04,12.07-29.92,24.67-58.36,6.57-14.84,13.09-14.38,17.58-36.69,1.93-9.56,4.53-18.8,3.33-28.27,2.54-.06,5.05-.47,7.59-.37M198.31,740.84c1.2-2.01,1.12-3.36-.06-4.86-1.33,1.39-1.43,3.52.06,4.86"/><path class="g" d="M271.02,524.04c1.17,14.25-.53,28.49-2.8,43.13-6.22,40.11-7.98,26.76-21.46,54.31-2.63,5.37-6.06,9.92-7.22,16.11-5.56,29.65-5.59,33.61-3.01,64.4.91,10.9,6.87,18.35,6.28,28.84-.47,8.23,2.52,29.95,7.33,36.75-.94-.8-3.24-.25-3.82-1.73-.59-1.49-.48-3.06-1.01-4.2-.65-1.42-4.95-1.87-8.03-3.64-2.46-9.52-2.27-30.3-4.93-38.99-3.21-10.49-4.96-21-4.81-32.13.1-7.28-1.1-14.24-.63-21.55.69-10.77,2.68-21.22,5.37-31.61,4.24-16.34,20.17-34.62,23.48-44.99,6.84-21.41,9.05-43.66,9.45-65.71,1.99-.04,3.91.51,5.82,1.02"/><path class="g" d="M203.75,734.89c-.11,16.27-5.02,17.53-10.37,31.72l11.87-4.58c6.63-2.56,13.69-2.22,20.46-.28l11.55,3.32v-7.06c3.09,1.77,7.39,2.21,8.04,3.64.52,1.14.42,2.71,1.01,4.2.58,1.48,2.88.93,3.82,1.73,2.29,2.47,7.54,11.22,2.04,13.88-10.42,5.03-24.32,20.07-37.96,18.42l-17.59-2.14c.04-.52-.29-1.46.03-1.82-.59.65,8.7-2.43,12.75-1.44.9.22,1.55-1.3,1.5-1.9-.06-.7-1.16-1.32-2.39-1.13l-18.54,2.89c-1.22.19-2.73-1.02-2.95-1.77-.87-2.95,3.27-2.39,3.41-6.38,4.38,3.4,9.91,4.31,15.74,4.52,12.81.48,24.88-3.4,34.25-12.85-17.57-12.74-32.49-12.52-49.02.35-2.4,1.61-3.51,3.83-2.67,6.93-1.71.89-2.43,2.89-5.03,3.36-1.94-1.33-3.71-4.51-2.68-6.78.47-1.03,2.04-1.33,1.76-2.46-.13-.56-1.17-1.32-1.11-2.27.15-2.37,1.51-5.86,3.76-7,7.97-4.05.51-7.71,4.43-12.66.99-1.25,2.51-.88,4.08-1.58,1.92-.86,3.11-4.71,2.09-6.49-.52-.91-2.38-.92-1.41-1.93,1.22-1.25,4.66-.14,5.51-1.41,1.48-2.21-1.52-9.54,3.61-11.03"/><path class="f" d="M415.9,385.76c.09,1.07.17,2.14.19,3.21-1.45-.47-1.57,1.07-1.59,2.12-.01,1.09.16,2.55,1.62,2.1-.27,1.68.4,3.69-.1,5.32-3.64,1.51-4.53,6.31-2.87,9.78.01.25-.06.52-.02.77-.42-.04-.76.19-.8.5-.05.47-.03.86.06,1.17-.2,2.55-1.43,4.82-2.6,7.06-.65-.13-1.26.05-1.5.57-.32.67.21,1.44.04,1.96-1.37,4.1-4.08,7.63-5.93,11.89-6.47,14.98-12.43,32.51-25.74,42.71l-30.27,23.22c-8.29,6.36-16.43,12.13-26.03,15.45-.53-1.77,1.43-2.62,2.21-4.14.9-1.75-1.26-2.97-2.11-3.93,3.61-1.29,6.67-4.42,10.23-6.4,7.67-4.25,14.73-8.77,21.54-14.38l10.07-8.3c3.33-2.75,5.83-6.42,9.48-8.83,7.62-5.02,19.73-27.81,23.93-36.68,6.79-14.36,11.94-19.75,13.95-37.03,1.55-.35,1.28,1.71,2.96,2.8.86-3.42-.17-6.47.37-10,.19-1.22,2.15-.98,2.92-.93"/><path class="f" d="M480.07,260.21c.26-.06.54.04.8,0,.29.41.6.92,1.18,1.08.44.12.89-.44,1.21-.71,4.82,1.41,16.25,3.4,17.77,8.84.84,3.02.34,5.94-1.43,8.45-9.28,13.16-20.96,23.93-33.45,34.09-9.75,7.93-19.06,15.19-29.16,21.87-.86-2.03-1.01-4.22-.78-6.4,11.58-9.18,22.59-18.72,33.79-28.93l17.54-16c2.48-2.26,5.19-4.23,6.18-7.74,2.24-7.9-10.7-8.11-15.45-9.53.03-.73.27-1.7-.17-2.39-.61-.95-1.94-.6-3.1-.42-2.28.36-3.42,1.73-3.1,3.69-2.46.13-4.74,1.11-7.69,1.56,5.72-9.26,10.34-6.24,15.85-7.48"/><path class="f" d="M316.5,515.06c-8.02,4.22-16.95,6.92-26.09,9.16-6.54,1.6-12.59,1.11-18.77-.1.96-3.39,9.82-5.56,12.85-3.57,2.63-3.15,5.9-1.52,9.21-.23,3.8,1.47,6.53-4.06,6.93-7.25.72-.05,1.45-.03,2.18-.14,1.78,1.91,11.09-3.42,13.7,2.14"/><path class="g" d="M269.92,247.07c-.49-.15-1.43-.49-1.92-.34-4.28-26.22,6.57-32.55-4.45-56.88-2.28-5.03-4.26-9.67-9.4-12.6-2.4-1.37-4.18-3.81-6.14-5.29,12.66,3.46,6.99,7.14,15.93,12.49,1.54,6.72,5.55,12.7,5.78,19.52l.66,19.5c.4,11.87.67,11.39-.46,23.6"/><path class="f" d="M415.9,385.76c-.77-.06-2.73-.29-2.92.93-.55,3.52.49,6.57-.37,10-1.68-1.09-1.41-3.15-2.96-2.8l.57-4.87-.68-16.66c1.93.08,1.83-1.76,1.66-3.57-.1-1.05-.86-1.95-2.31-1.94-.24-1.82-1.94-3.63-1.63-5.79.81-.1,2.11,1.1,2.76.74.8-1,.69-2.36,1.44-2.93,2.69,8.61,3.71,17.88,4.43,26.91"/><path class="g" d="M220.83,81.86c.73-5.49,3.83-10.89,3.02-17.02-.93-7.02-1.39-14.17-3.04-20.69,1.7.85,2.85,3.59,2.56,5.72-.34,2.46,2.18,3.53,2.35,4.89.63,4.98-.23,10.23-.04,15.27l.39,10.18c-1.94-.36-.95-2.43-2.54-3.36-.65,2.36-.58,4.61-2.7,5.03"/><path class="f" d="M320.46,505.5c.85.96,3.02,2.18,2.11,3.93-.78,1.51-2.74,2.37-2.21,4.14-1.11.38-2.88.98-3.87,1.5-2.61-5.55-11.92-.22-13.7-2.14,5.53-3.15,11.71-5.31,17.66-7.43"/><path class="f" d="M326.66,252.74c-1.17,2.13-4.15,1.82-5.55,3.74l-1.41-.03c.28-.38.2-.9-.11-1.13-.6-.45-1.35-.25-1.86-.07-.99.35-2-.31-2.95-.23-.01-1.28-.56-2.49-1.99-2.52-1.17-.02-2.53.28-2.71,1.65-.91-.16-2.34.03-3.26.18-.51-1.97-2.02-3.64-1.61-5.72,3.71.07,17.17,2.62,21.47,4.12"/><path class="f" d="M328.31,253.31c-.26,1.1.34,1.66,1.23,1.69.76.03,1.46-.33,2.07-.24,3.66.56,6.55,3.15,9.6,4.96-5.99.1-.03,2.47-9.81,1.05-2.97-1.63-7.65-1.62-10.3-4.3,1.4-1.92,4.38-1.61,5.55-3.74l1.65.58Z"/><path class="g" d="M226.7,143.82c-3.38-2.76-11.79-28.39-8.51-31.18,1.58,3.02.5,6.77,1.57,10.36,1.11,3.73,2.26,7.38,3.83,10.88,1.49,3.33,3.39,6.43,3.11,9.94"/><path class="f" d="M416.02,398.5c-1.01,3.26-.89,6.95-2.87,9.78-1.66-3.46-.77-8.27,2.87-9.78"/><path class="g" d="M218.25,108.93c.04-2.46-.72-5.08.53-7.3,1.29-1.85,1.85,9.36-.53,7.3"/><path class="f" d="M467.94,257.5c-.08.71-.06,1.42.03,2.12-.38.1-1,.65-1.47.21-.29-.27-.34-1.04.2-1.45.51-.38.87-.65,1.23-.87"/><path class="f" d="M416.09,388.96c.02,1.39.25,2.83.03,4.22-1.46.45-1.63-1.01-1.62-2.1.01-1.04.13-2.59,1.59-2.12"/><path class="f" d="M331.62,254.77c-.62-.09-1.32.27-2.07.24-.89-.03-1.49-.59-1.23-1.69,1.22.05,3.01.02,3.3,1.46"/><path class="g" d="M218.81,99.24c-.06-.36-.7-.78-.6-1.24.12-.55.61-.95.8-1.31.73-.1.69.89.78,1.36.14.69-.17,1.38-.98,1.18"/><path class="f" d="M409.8,417.77c-.43.82-.08,2.51-1.47,2.52.17-.52-.35-1.28-.04-1.96.24-.51.85-.69,1.5-.57"/><path class="g" d="M228.56,147.22c-1.05-.38-1.64-1.38-1.73-2.47.61-.12,1.43-.09,1.63.51.24.7.14,1.37.11,1.96"/><path class="f" d="M483.26,260.59c-.32.27-.77.83-1.21.71-.58-.16-.89-.68-1.18-1.08.48-.99,1.75-.02,2.4.38"/><path class="g" d="M219.59,91.25c-.16-.3-.58-.74-.34-1.04l.56-.7c.49-.18.67.28.75.56.24.81-.29,1.39-.98,1.17"/><path class="g" d="M230.94,151.16c-.57-1.03-1.95-1.76-1.78-3.22,1.21.62,1.73,1.89,1.78,3.22"/><path class="f" d="M412.4,410.71c-.09-.31-.12-.7-.06-1.17.04-.31.38-.54.8-.5.1.62-.69,1.15-.73,1.67"/><path class="f" d="M413.78,350.75c-.51.26-.82,1.06-1.57.96.43-.5.72-1.16,1.57-.96"/><path class="h" d="M385.87,368.42c1.2.28,2.23-1.45,3.12-1.62,5.3-1.02,7.87-6.47,15.41-8.31,3.63,12.25,5.02,24.78,3.46,37.31-1.4,11.25-6.34,20.86-11.67,30.62-6.09,11.15-10.75,22.6-18.61,32.67-4.19,5.37-9.43,9.64-14.26,14.43-2.6,2.58-5.57,4.48-8.4,6.93-11.85,10.28-25.34,18.28-39.52,25.13-6.22,3-11.93,5.65-18.78,6.68-.53.08-.84,1.04-.39,1.22-.41-.03-.97.15-1.34,0-6.06-2.29-14.54,9.06-30.22.78-8.47-4.47-26.25,4.08-45.64.27-5.69-1.12-9.44-5.58-14.28-8.17-6.74-3.59-13.04-7.11-19.21-11-.53-.34-1.07-.69-1.64-.98l-8.16-10.26c-.98-1.23-1.57-2.91-2.95-3.21l-.27-.86c-2.03-6.48-15.6-17.22-19.15-41.46-1.25-8.52-2.4-16.88-3.09-25.74.81-1.53,3.99-.24,5.33.27l20.74,7.99c7.07,2.73,4.97,6.55,7.25,14.67.31,1.09,2.84,2.68,3.57,1.34,3.2-5.89,4.32-12.37,4.92-19.01.97-10.62,2.44-20.98,5.57-31.05,2.42-7.8,6.15-14.26,9.61-21.51,2.93-6.14,6.2-12.01,11.89-16.38-.85-3.37-6.36-5.32-8.99-3.13-5.72,4.77-9.91,10.75-14.5,16.47-.86,1.07-2.34,1.72-3.32,1.64-1.42-.12-2.4-1.45-3.57-2.46l-18.38-15.94-12.82-14.26c-1.63-1.82-2.84-3.66-2.7-5.9.32-5,3.2-4.37,4.16-7.69l.21-.74c2.22-.73,3.89-2.74,4.7-4.9,2.77-2.96,5.38-6.54,8.84-8.75,3.03-1.94,6.24-4.37,7.93-7.75.17-.08.42-.12.61-.13,1.26-.06,2.21-.89,2.45-2.12.55-.34.97-.89,1.61-1.11,1.83-.63,11.54-6.54,11.25-8.54.19-.07.42-.14.62-.15.55-.03,1.18-.07,1.71-.53.29-.25.4-.65.13-1.06l.74-.15c1.16-.23,2.05-.9,2.36-2.02.51-.45,1.08-.86,1.71-1.13,4.78-2.05,9.35-5.51,12.75-9.42l.61-.11c1.45-.27,3.49-.53,3.41-2.32.18,0,.43.05.59-.02,11.38-4.51,22.53-9.89,35.28-11.12,5.73-.56,11.5.16,17.22.26l36.96.59c20.5.33,61.31,32.97,62.31,43.75.79,8.43-4.19,15.65-10.07,21.01-4.73,4.31-14.22,16.22-17.83,10.9-.93-1.37-6.07-6.36-8.05-5.08-5.18,3.32,5.4,17.88,8.29,21.62,3.63,4.7,5.33,10.28,7.64,15.68,2.47,5.77,5.64,10.97,7.52,17.01,1.39,4.46,6.22,22.94,12.77,19.7,1.89-10.03-6.42-20.23-5.81-25.17.3-2.43,16.62-2.65,18.35-7.7M320.66,422.09c7.76-12.98,7.91-28.32,7.54-43.23-4.85-18.31-8.55-34.99-28.46-41.81-11.59-3.97-27.77-4.46-39.85-3.6-5.56.4-15.15,7.08-18.77,12.34l-9.09,13.21c-3.64,5.29-5.34,11.05-7.78,16.97-4.17,10.1-5.03,20.8-.67,31.18,1.3,15.99,10.15,28.85,22.91,38.21,8.48,6.22,17.58,10.21,28.31,9.02,18.31-2.03,36.7-16.98,45.85-32.29"/><path class="h" d="M160.24,378.32l-14.72-9.11c-4.9-3.04-11.07-3.43-15.99-6.66-8.57-5.64-16.41-11.78-25.82-16.19l-14.4-6.74-17.8-10.55c-7.93-4.7-15.72-8.75-22.35-15.4-4.02-4.04-7.31-8.41-11.85-12.14-2.23-1.83-5.06-4.53-5.69-7.64-.95-4.69,3.38-9.03,7.84-10.08,8.25-1.94,16.67-1.37,24.75,1.28,8.87,2.91,17.62,5.69,25.45,10.62l20,12.57c17.07,10.73,33.68,20.81,47.22,35.87,6.49,7.22,13.36,13.05,21,19,4.09,3.19,8.71,7.29,11.08,11.87,1.79,3.46-1.96,15.52-4.2,16.33-1.13.41-2.73-.07-3.9-.87-6.73-4.58-13.76-7.92-20.6-12.16"/><path class="e" d="M51.38,327.85c.6.3,1.11.48,1.36.53.05,1.26,1.16,1.89,2.1,2.99.47.56-.74,1.15-1.05,2.08,2.88.77,5.73,1.03,8.52,1l18.36,8.9c11.18,5.42,21.81,11.2,31.96,17.72,6.12,3.93,11.51,7.37,18.21,10.14,22.27,9.23,32.37,19.29,53.05,28.93l-1.73,11.61c-9.11-1.36-16.92-5.27-25.53-7.99-9.97-3.16-19.58-7.05-29.95-8.38-9.8-1.26-18.89-2.48-27.99-6.61-23.02-10.42-45.35-6.88-73.13-27.4-4.27-3.15-6.91-7.39-10.4-11.22-5.15-5.63-7.77-12.7-5.6-20.37.41-1.44,1.63-2.51,2.77-2.96,1.5-.39,3.05.69,4.82.71l30.61.3c1.25.01,3.13,1.51,3.62.01"/><path class="e" d="M250.23,52.97c-2.7,7.59-3,15.88-3.38,23.95-1.14.41-1.43,1.58-1.43,3.1v20.05c0,1.03.84,1.58,1.46,1.63.09.51.13,1.02.11,1.53-.62.44-.98,1.15-.94,1.94.03.55.12,1.4.93,1.25.24,4.94,2,9.6,3.08,14.28,2.03,8.72,13.15,23.49,20.32,30.05,8.74,7.99,15.4,17.54,19.64,28.24-.63,1.45-.67,3.16,0,5.03l-.43,35.81.54,14.39c.09,2.37.08,4.59.85,6.42l-.9,6.87-13.69.21c1.3-1.45.87-3.39.63-5.52-2.67-23.28,6.78-35.61-7.83-61.55-11.71-20.79-23.85-14.51-34.69-40.09-2.61-6.17-5.93-11.8-7.25-18.49-1.24-6.23-.42-12.46-.48-18.82-.08-7.65,1.54-14.46,4.28-21.48,3.53-9.06,2.07-18.59.72-28.01-.98-6.86-.89-13.32-4.74-19.33,10.98,1.88,19.96,1.03,29.57-2.28.69-.24,2.48-.16,2.83.38.32.5-.28,1.85-.67,2.52-3.51,6.01-6.34,11.81-8.53,17.93"/><path class="f" d="M306.8,254.34c.92-.15,2.35-.34,3.26-.18,1.59.29,3.04,1.01,4.7.86.95-.08,1.97.57,2.95.23-.58.67.39,1.02.79,1.11.45.1.84.08,1.19.08l1.41.03c2.65,2.68,7.33,2.68,10.3,4.3l10.86,6.64,16.44,12.33c4.37,3.28,7.79,7.53,11.49,11.53,3.53,3.82,5.35,8.69,4.13,14.01-2.97,12.93-8.14,14.31-17.98,24.73-2.03,2.15-5.17,4.47-8.07,5.2-4.16,1.05-7.6-6.67-9.84-5.15-3.55,2.41,10.4,20.14,12.99,26.88,1.55,4.05,3.43,7.66,5.37,11.53,4.09,8.18,9.72,26.84,12.21,29.93.4.49,2.6.59,2.67-.39.83-11.69-13.06-22.47-1.78-24.79,5.69-1.17,10.95-2.69,15.98-4.81-1.73,5.05-18.05,5.27-18.35,7.7-.6,4.94,7.71,15.14,5.81,25.17-6.54,3.24-11.37-15.24-12.77-19.7-1.88-6.04-5.06-11.24-7.52-17.01-2.31-5.4-4.01-10.98-7.64-15.68-2.89-3.74-13.47-18.3-8.29-21.62,1.98-1.27,7.12,3.71,8.05,5.08,3.61,5.33,13.1-6.59,17.83-10.9,5.88-5.36,10.86-12.58,10.07-21.02-1.01-10.77-41.81-43.42-62.31-43.75l-36.96-.59c-5.72-.09-11.49-.81-17.22-.26-12.76,1.24-23.91,6.61-35.28,11.12-.37-.95.4-1.33,1.4-1.8,36.37-17.37,40.09-8.36,73.74-10.79,3.65-.26,7.1.5,10.38-.03"/><path class="f" d="M159.06,317.94c-.95,3.32-3.84,2.69-4.16,7.69-.14,2.24,1.06,4.08,2.7,5.9l12.82,14.26,18.38,15.94c1.17,1.01,2.14,2.34,3.57,2.46.98.08,2.45-.57,3.31-1.64,4.59-5.72,8.78-11.7,14.5-16.47,2.62-2.19,8.14-.23,8.99,3.13-5.69,4.37-8.96,10.24-11.89,16.38-3.46,7.25-7.19,13.7-9.61,21.51-3.13,10.07-4.6,20.43-5.57,31.05-.61,6.64-1.72,13.11-4.92,19.01-.73,1.34-3.26-.25-3.57-1.34-2.28-8.12-.18-11.95-7.25-14.67l-20.74-7.99c-1.34-.52-4.52-1.81-5.33-.27.69,8.86,1.84,17.21,3.09,25.74,3.55,24.24,17.12,34.98,19.15,41.46-1.4-.02-1.91-1.37-2.81-2.59-5.4-7.31-10.75-14.68-14.03-23.28-2.92-7.68-6.06-22.16-6.16-30.84-.04-3.71-1.95-8.6.12-11.92,1.44-2.31,5.91.09,7.93.81l18.71,6.75c10.17,3.67,5.79,11.58,10.11,15.15,1.69-2.38,2.39-5.15,2.69-8.06,1.54-14.94,5.28-41.14,13.07-53.82,2.86-4.65,5-9.4,7.36-14.32,1.63-3.41,5.38-5.77,6.46-9.53-.65-1.36-3.58-1.87-4.76-1.31-1.87.9-11.38,12.6-13.37,15.28-1.75,2.37-3.76,3.72-7.06,4.24-2.84-5.03-7.83-7.76-12.38-11.35-4.01-3.16-7.53-6.78-11.3-10.45-2.47-2.41-4.06-5.44-6.95-7.91-1.95-1.66-7.7-8.66-7.14-13.39-.02.18,5.79-6.99,6.02-5.59"/><path class="f" d="M407.27,361.05c-.31,2.17,1.39,3.98,1.63,5.79.03,1.61.59,4.04.65,5.51l.68,16.66-.57,4.87c-2.01,17.28-7.17,22.67-13.95,37.03-4.2,8.88-16.3,31.66-23.93,36.68-3.65,2.4-6.15,6.08-9.48,8.83l-10.07,8.3c-6.81,5.61-13.87,10.13-21.54,14.38-3.56,1.98-6.62,5.11-10.23,6.4-5.96,2.12-12.14,4.28-17.66,7.43-.72.1-1.45.09-2.18.14-1.47.1-2.91.54-4.39.42-.46-.18-.14-1.14.39-1.22,6.86-1.03,12.56-3.68,18.78-6.68,14.18-6.85,27.66-14.85,39.52-25.13,2.82-2.45,5.79-4.34,8.4-6.93,4.82-4.79,10.06-9.06,14.26-14.43,7.86-10.07,12.52-21.52,18.61-32.67,5.33-9.77,10.27-19.37,11.67-30.62,1.57-12.53.17-25.06-3.46-37.31-7.54,1.84-10.12,7.29-15.41,8.31.33-1.27,1.36-2.15,2.69-2.95l9.42-5.65c1.15-.69,3.03-.62,3.95-.06.8.49,2.36,1.94,2.22,2.91"/><path class="f" d="M294.89,513.48c-.95,1.45-2.93,1.29-4.73,1.88l-8.4,2.72c-11.89,3.85-16.84-4.62-23.65-3.73l-18.41,2.41c-8.25,1.08-16.66,1.09-24.52-2.01-3.86-1.52-6.82-4.86-10.54-6.81-3.45-1.81-19.29-9.66-19.1-12.57,6.16,3.89,12.47,7.41,19.21,11,4.84,2.58,8.59,7.05,14.28,8.17,19.39,3.81,37.17-4.75,45.64-.27,15.68,8.28,24.15-3.08,30.22-.78"/><path class="e" d="M51.38,327.85c-.49,1.49-2.37,0-3.62-.01l-30.61-.3c-1.77-.02-3.32-1.1-4.82-.71,7.4-6.47,30.51-3.23,39.06,1.02"/><path class="e" d="M62.31,334.45c-2.79.03-5.65-.23-8.52-1,.31-.93,1.52-1.52,1.05-2.08-.94-1.11-2.05-1.74-2.1-2.99,3.3.09,7.13,4.89,9.57,6.07"/><path class="f" d="M183.91,494.4c-5.16-2.68-9.38-7.95-11.11-13.48,1.38.31,1.97,1.98,2.95,3.21l8.16,10.26Z"/><path class="f" d="M216.67,269.41c-3.4,3.92-7.97,7.38-12.75,9.42-.32-1.83,5.11-4.21,8.13-6.83,1.49-1.29,2.88-2.27,4.62-2.6"/><path class="f" d="M196.67,283.89c.29,2.01-9.42,7.92-11.25,8.54-.58-1.52,9.78-8.01,11.25-8.54"/><path class="f" d="M264.49,522.45c-3.7-.54-7.64.27-11.02-1.45.21-.69,12.7-1.01,11.02,1.45"/><path class="f" d="M180.75,295.8c-1.7,3.38-4.9,5.81-7.93,7.75,1.59-3.28,4.68-6.12,7.93-7.75"/><path class="f" d="M163.97,312.3c-.81,2.16-2.48,4.17-4.7,4.9.65-2.26,2.29-4.5,4.7-4.9"/><path class="f" d="M294.89,247.9c-.01.52-.11,1.11-.33,1.46-.52.84-1.42,1.04-2.12.38-.48-.45-.65-1.29-.81-1.96,1.03.19,2.17.08,3.25.11"/><path class="f" d="M220.7,266.98c.08,1.79-1.97,2.05-3.41,2.32-.18-1.85,1.9-2.24,3.41-2.32"/><path class="f" d="M183.81,293.55c-.23,1.24-1.19,2.07-2.45,2.12-.26-.82.26-1.33.94-1.69.42-.22,1.07-.16,1.51-.43"/><path class="f" d="M202.22,279.97c-.31,1.13-1.2,1.79-2.36,2.02.03-1.26,1.2-1.89,2.36-2.02"/><path class="f" d="M251.12,521.09c-.3,1.23-1.65,1.52-2.8,1.31.13-.58.37-1.26.81-1.43.69-.26,1.51-.07,1.99.12"/><path class="f" d="M199.13,282.14c.27.41.16.81-.13,1.06-.53.46-1.16.5-1.71.53-.57-.59.1-1.23.63-1.49.38-.18.83-.03,1.21-.1"/><path class="h" d="M271.84,17.37c-.32,5.78-31.34,11.82-41.98,9.58-6.53-1.37-12.59-4.23-18.63-7.01-2.36-1.08-.83-4.7.85-5.75,7.66-4.79,16.2-6.75,25.24-6.71,6.56.03,35,1.26,34.52,9.88"/><path class="g" d="M250.06,120.7c-1.09-4.67-2.84-9.33-3.09-14.28-.05-1.06-.06-2.13.01-3.19.02-.51-.02-1.03-.12-1.53,2.69-8.01,3.24-16.93-.02-24.78.38-8.07.68-16.36,3.38-23.95,3.51-.3,2.92,20.18,2.65,23.02-.25,2.61,1.32,5.29,1.27,8.12-.09,5.03-1.93,10.1-1.35,15.08.68,5.89.63,11.81-1.65,17.17-.29.69,1,2.43.57,3.19-.3.53-.59,1.15-1.65,1.16"/><path class="e" d="M290.98,240.64c-.76-1.83-.76-4.05-.85-6.42l-.54-14.39.43-35.81c-.67-1.87-.63-3.58,0-5.03,3.69,5.25,5.18,12.26,4.79,19.35-.8,14.39-2.02,28.43-3.83,42.29"/><path class="e" d="M478.28,265.24c4.75,1.43,17.68,1.63,15.45,9.53-.99,3.51-3.7,5.48-6.18,7.74l-17.54,16c-11.2,10.21-22.21,19.75-33.79,28.93-7.56,3.86-14.18,8.27-20.91,12.94l-23.1,16.02c-8.88,6.16-19.2,9.26-29.96,8.05-1.69-4.2-3.79-7.76-4.65-12.09,8.1-4.14,16.05-7.17,23.48-12.06,11.83-7.78,21.99-17.04,32.91-26.03,5.95-4.9,12.03-9.08,17.49-14.5l6.41-6.35,10.28-11.19.85-.93c2.53-3.76,11.09-12.02,15.19-13.59,2.95-.46,5.23-1.43,7.69-1.56l1.65-.09c.94-.05,1.36-.29,1.72-.51,1.39.34,2.32-.37,3-.29"/><path class="h" d="M461.75,243.17l.75,1.3.09,6.62c.02,1.18-.21,2.45-.35,3.63-.18-.37-1-.07-1.18.36-1.21,4.91-4.13,8.45-6.51,12.41-1.91,1.25-3.27,3.84-4.99,5.18-.22-.94-10.89,9.19-9.6,9.28-.23.08-.52.03-.74.14-3.26,1.7-6.23,4.65-7.82,7.97-.24.49-.8.93-.94,1.45-1.16.23-2.05,1.11-2.21,2.28-.29-.01-.82.21-1.07.36-6.56,3.84-12.55,9.2-17.2,15.2-.21.28-.55.75-.85.91-1.09.61-9.5,6.93-9.04,8.39l-.71.21c-1.04.3-15.13,8.42-15.18,10.11l-.78.22c-5.62,1.62-27.7,21.71-31.3,14.32-.55-1.12-.49-3.55,1.1-4.81,4.89-3.85,17.86-11.61,19.94-15.76.53-.24,1-.78,1.55-.95,2.19-.66,4.08-2.41,4.69-4.63.07-.25.03-.55.14-.78.88-.07,1.82-.61,2.32-1.69l7.05-15.14c.35-.75.68-1.54.94-2.33.59.48,1.19-.24,1.44-.69.21-.38.21-.81.19-1.18,0-.19.04-.4.01-.59.62.37,1.18-.09,1.36-.61.15-.42.13-.81.15-1.19.02-.2.12-.41.19-.61,1.29-.15,2.1-1.23,2.17-2.5.01-.23.09-.47.15-.7,1.93-.42,3.23-2.13,3.86-3.94.19-.54.74-1.02.86-1.6.61.31,1.18-.14,1.48-.65.2-.34.24-.75.18-1.13.73-.23.97-1.11,1.51-1.52,2.24-1.71,4.54-3.83,5.77-6.38.25-.07.51-.13.76-.17,1.55-.23,2.77-1.38,3.08-2.92.64-.14,1.07-.86,1.63-1.06,1.93-.66,4.16-1.6,4.75-3.69.56-.21,1.07-.57,1.55-.91,1.79-.35,3.67-1.17,3.94-3.11,2.57-.9,3.49-3.79,5.82-5.03.97-.52,2.28-.69,2.17-2.17l2.61-1.81c1.2-.09,2.16-.91,2.21-2.14.27-.03.55-.18.82-.18.56,0,1.18-.06,1.62-.57.24-.28.34-.67.12-1.06.94-.62,1.85-1.34,2.96-1.6.53-.12,1.18.04,1.7-.5.27-.28.5-.61.14-1.04.18,0,.42.04.58-.02,5.28-1.8,10.55-4.27,16.11-3.03"/><path class="f" d="M373.15,322.95c-2.07,4.15-15.05,11.9-19.94,15.76-1.6,1.26-1.65,3.69-1.1,4.81,3.6,7.38,25.68-12.7,31.3-14.32.11,1.53-1.38,1.97-2.64,2.85-7.45,5.2-14.68,10.6-22.9,14.38-2.6,1.19-6.15.13-7.13-2.2-2.56-6.07,7.85-10.37,11.7-13.65,3.46-2.94,6.8-5.87,10.7-7.64"/><path class="f" d="M427.17,294.16c-.15,2.01-2.07,2.77-3.57,4.09-2.62,2.31-11.61,10.88-13.62,11.11,4.65-6,10.64-11.36,17.2-15.2"/><path class="f" d="M388.91,299.76l-7.05,15.14c-.5,1.08-1.44,1.61-2.32,1.69,1.18-2.62,7.04-17.01,9.37-16.83"/><path class="f" d="M399.37,318.87c.44,2.47-13.06,9.49-15.18,10.11.05-1.69,14.14-9.8,15.18-10.11"/><path class="f" d="M461.75,243.17c-5.56-1.24-10.84,1.23-16.11,3.03-1.47-2.07,11.19-5.19,13.44-5.14,1.49.03,2.11,1.12,2.68,2.11"/><path class="f" d="M449.55,272.67c-.05.96.32,2.08-.15,3.14.15-.35-8.75,5.87-9.45,6.13-1.29-.09,9.38-10.21,9.6-9.28"/><path class="f" d="M462.23,254.71c-.59,4.89-3.57,10.08-7.69,12.77,2.38-3.96,5.3-7.5,6.51-12.41.18-.43,1-.73,1.18-.36"/><path class="f" d="M400.09,318.66c-.46-1.45,7.95-7.78,9.04-8.39-1.26,3.96-5.16,7.25-9.04,8.39"/><path class="f" d="M439.22,282.09c1.18.39-7.48,8.92-7.82,7.97,1.59-3.32,4.56-6.27,7.82-7.97"/><path class="f" d="M409.16,274.16c-1.23,2.55-3.53,4.67-5.77,6.38.15-2.92,3.04-5.58,5.77-6.38"/><path class="f" d="M462.58,251.08l-.09-6.62c2.6-.75,1.52,5.85,1.51,5.89-.14.46-.62,1.18-1.42.73"/><path class="f" d="M379.4,317.37c-.62,2.22-2.51,3.97-4.69,4.63.7-2.12,2.5-4.08,4.69-4.63"/><path class="f" d="M419.39,266.33c-.59,2.09-2.82,3.02-4.75,3.69.38-2.2,2.83-2.98,4.75-3.69"/><path class="f" d="M399.37,285.44c-.63,1.8-1.93,3.52-3.86,3.94.47-1.92,1.81-3.71,3.86-3.94"/><path class="f" d="M424.88,262.31c-.27,1.94-2.15,2.76-3.94,3.11.36-1.86,2.37-2.39,3.94-3.11"/><path class="f" d="M413.01,271.07c-.31,1.54-1.53,2.69-3.08,2.92.13-1.63,1.56-2.59,3.08-2.92"/><path class="f" d="M430.45,291.51c-.31,1.17-.86,2.33-2.21,2.28.17-1.18,1.06-2.05,2.21-2.28"/><path class="f" d="M432.87,255.11c.11,1.48-1.2,1.65-2.17,2.17.03-1.22,1.05-1.93,2.17-2.17"/><path class="f" d="M395.37,290.07c-.07,1.27-.88,2.35-2.17,2.5.36-1.11.89-2.38,2.17-2.5"/><path class="f" d="M437.69,251.16c-.04,1.23-1.01,2.05-2.21,2.14.04-.65.18-1.39.76-1.75.44-.28.97-.33,1.45-.39"/><path class="f" d="M393.01,293.18c-.03.38,0,.77-.15,1.19-.19.52-.75.98-1.36.61-.07-.55-.09-1.24.4-1.71.29-.28.74-.32,1.12-.09"/><path class="f" d="M391.48,295.57c.02.37.02.81-.19,1.18-.25.45-.84,1.16-1.44.69.18-.53-.13-1.26.56-1.74.32-.23.65-.55,1.07-.13"/><path class="f" d="M440.24,249.35c.21.39.12.78-.12,1.06-.44.51-1.06.58-1.62.58-.28-.61.03-1.17.53-1.43.38-.2.93-.02,1.21-.21"/><path class="f" d="M445.05,246.21c.36.43.13.75-.14,1.04-.52.54-1.17.37-1.7.5-.51-.58.15-1.23.64-1.45.4-.18.83-.09,1.2-.08"/><path class="f" d="M401.89,282.07c.07.38.02.79-.18,1.13-.3.51-.87.96-1.48.65.11-.53-.06-1.22.52-1.56.35-.2.82-.11,1.14-.21"/><path class="f" d="M448.17,282.21c.44-.48.72-.73.85-.93l-.85.93Z"/><path class="e" d="M190.43,786.19c-.83-.65-1.24-.92-1.7-1.05-.84-3.09.28-5.31,2.67-6.93,16.53-12.87,31.45-13.09,49.02-.35-9.37,9.45-21.44,13.33-34.25,12.85-5.84-.22-11.37-1.13-15.74-4.52"/><path class="g" d="M198.31,740.84c-1.49-1.34-1.39-3.47-.06-4.86,1.18,1.5,1.26,2.85.06,4.86"/><path class="h" d="M253.48,521c3.38,1.71,7.32.91,11.02,1.45.27.15.51.33.7.57-.4,22.05-2.61,44.3-9.45,65.71-3.31,10.37-19.24,28.65-23.48,44.99-2.69,10.39-4.68,20.84-5.37,31.61-.47,7.31.73,14.26.63,21.54-.15,11.13,1.6,21.64,4.81,32.13,2.66,8.69,2.47,29.47,4.93,38.99v7.06s-11.55-3.32-11.55-3.32c-6.77-1.94-13.84-2.28-20.46.28l-11.87,4.58c5.35-14.18,10.26-15.44,10.37-31.72.17-25.56-9.21-28.6-5.87-60.7.55-5.26.82-10.01,1.87-15.23,2.77-13.82,6.09-27.28,13.15-39.52,2.69-4.65,5.5-9,7.79-13.81,4.2-8.83,8.01-17.45,13.65-25.59,6.41-9.26,9.54-20.14,10.87-31.36l3.12-26.28c1.15.21,2.5-.08,2.8-1.31.71.31,1.71-.18,2.36-.09"/><path class="f" d="M478.28,265.24c-.68-.08-1.61.63-3,.29.16-.46-.08-.91-.43-1.01-.62-.18-.95.07-1.18.4-.26.37-.41.73-.11,1.12l-1.65.09c-.32-1.96.83-3.34,3.1-3.69,1.16-.18,2.49-.53,3.1.42.44.69.2,1.66.17,2.39"/><path class="f" d="M409.54,372.36c-.06-1.47-.62-3.91-.65-5.51,1.45,0,2.21.89,2.31,1.94.17,1.82.27,3.65-1.66,3.57"/><path class="f" d="M314.76,255.02c-1.66.15-3.11-.57-4.7-.86.18-1.37,1.53-1.68,2.71-1.65,1.43.03,1.98,1.24,1.99,2.52"/><path class="f" d="M319.69,256.45c-.35,0-.74.02-1.19-.08-.4-.09-1.37-.45-.79-1.11.51-.18,1.26-.38,1.86.07.31.23.39.75.11,1.13"/><path class="f" d="M320.66,422.09c-9.15,15.31-27.55,30.26-45.85,32.29-10.73,1.19-19.83-2.81-28.31-9.02-12.76-9.36-21.62-22.22-22.91-38.21-4.36-10.38-3.5-21.08.67-31.18,2.44-5.92,4.14-11.68,7.78-16.97l9.09-13.21c3.62-5.26,13.21-11.94,18.77-12.34,12.08-.86,28.26-.37,39.85,3.6,19.91,6.82,23.62,23.5,28.46,41.81.37,14.91.22,30.26-7.54,43.23M256.42,441.07c-.33.59.53.69.93.79.19.05.46.07.66.02,6.41,5.98,20.65,4.54,26.4.62.36-.25,1.18-.63,1.61-.69.62-.08,1.13-.77,1.65-.86,1-.18,1.53-1.18,2.34-1.53,5.21-2.19,10.29-5.25,14.92-9.11,10.82-9.01,15.35-27.53,15.61-41.2.12-6.17-3.89-23.69-7.24-27.95.06-.23.03-.57-.03-.8-.09-.36-.23-1.16-.74-.88-.13-2.36-2.03-3.76-3.31-5.46-5.01-6.67-13.52-9.43-21.47-10.54-6.76-.95-13.43-2.85-20.86-2.12-6.05.6-12.23,1.77-17.06,6.07-11.39,10.14-19.36,24.35-20.33,40.04-.85,13.76,2.91,27.71,9.95,39.28,4.02,6.6,10.67,11.23,16.97,14.32"/><path class="e" d="M246.87,101.7c-.62-.05-1.47-.6-1.47-1.63v-20.05c0-1.52.3-2.69,1.44-3.1,3.26,7.85,2.72,16.77.02,24.78"/><path class="e" d="M246.97,106.42c-.81.15-.89-.7-.93-1.25-.05-.8.31-1.5.94-1.94-.07,1.06-.06,2.13-.01,3.19"/><path class="f" d="M475.28,265.53c-.36.22-.78.46-1.72.51-.29-.39-.15-.75.11-1.12.23-.34.56-.59,1.18-.41.35.1.58.55.43,1.01"/><path class="e" d="M287.75,343.47c-.2.9-.53,1.77-1.43,2.38,6.1,2.33,7.41-1.3,15.32,3.74,1.75,2.78,4.66,3.98,7.58,4.42,1.28,1.7,3.18,3.11,3.31,5.46.02.37.52.65.74.88.06.23.08.57.03.8-.47,1.96.51,3.78,1.26,5.87,2.58,7.24-.68,15.64,1.63,20.7,1.85.49,1.35-2.28,2.53-3.49,1.57,3.51.57,7.42.49,11.31-1.54-.7-1.16-2.16-1.77-2.27-.74-.12-1.53.03-1.67.44-1.26,3.47,1.99.58,1.27,8.82-.99,11.4-5.93,21.89-15.51,28.44l-8.55,5.85c-1.18.81-3.41.69-2.96,2.59-.81.34-1.34,1.35-2.34,1.53-.66.01-1.36.22-1.65.86-.44.06-1.25.44-1.61.69-.77-1.03-2.16.32-3.33.14-5.07-.76-9.82.07-14.72.31-2.89.14-5.67-1.74-8.35-1.07-.19.05-.46.03-.66-.02-.27-.3-.56-.61-.93-.79-6.3-3.09-12.95-7.72-16.97-14.32-7.05-11.57-10.81-25.52-9.95-39.28.97-15.68,8.94-29.89,20.33-40.04,4.83-4.3,11.01-5.48,17.06-6.07,7.43-.73,14.1,1.16,20.86,2.12M268.77,424.08c16.53,1.77,29.2-8.74,33.88-23.23,3.74-11.59.02-22.95-11.1-28.74-4.78-2.49-9.49-4.56-15.22-5.31-7.05-.92-15.27-.73-20.64,4.84-10.35,10.75-15.05,30.24-3.93,43.79,4.02,4.9,10.42,7.93,17.02,8.64"/><path class="e" d="M290.01,439.42c-.44-1.9,1.78-1.78,2.96-2.59l8.55-5.85c9.58-6.56,14.52-17.04,15.51-28.44.72-8.24-2.54-5.34-1.28-8.82.15-.4.93-.56,1.67-.44.62.1.23,1.57,1.77,2.27.08-3.89,1.08-7.8-.49-11.31-1.18,1.2-.68,3.97-2.53,3.49-2.31-5.06.95-13.46-1.63-20.7-.74-2.08-1.73-3.91-1.26-5.87,3.35,4.27,7.36,21.78,7.24,27.95-.27,13.67-4.79,32.19-15.61,41.2-4.64,3.86-9.71,6.93-14.92,9.11"/><path class="e" d="M284.41,442.49c-5.75,3.92-19.98,5.37-26.4-.62,2.68-.67,5.46,1.2,8.35,1.07,4.9-.23,9.65-1.06,14.72-.31,1.17.17,2.56-1.17,3.33-.14"/><path class="e" d="M309.22,354.01c-2.92-.44-5.83-1.64-7.58-4.42-7.92-5.04-9.22-1.41-15.32-3.74.9-.61,1.24-1.48,1.43-2.38,7.95,1.12,16.46,3.88,21.47,10.54"/><path class="e" d="M287.67,440.94c-.52.09-1.02.78-1.65.86.29-.64.99-.85,1.65-.86"/><path class="e" d="M313.27,360.35c-.22-.23-.72-.51-.74-.88.51-.28.65.52.74.88"/><path class="e" d="M257.35,441.86c-.39-.1-1.26-.2-.93-.79.37.18.66.49.93.79"/><path class="f" d="M268.77,424.08c-6.59-.71-13-3.74-17.02-8.64-11.12-13.55-6.43-33.05,3.93-43.79,5.37-5.57,13.59-5.76,20.64-4.84,5.73.75,10.45,2.82,15.22,5.31,11.12,5.79,14.84,17.15,11.1,28.74-4.67,14.49-17.35,25-33.88,23.23M278.81,415.12c7.71-2.42,12.72-6.59,16-13.49,3.72-7.82,1.94-16.5-5.69-21.45-8.68-5.63-26.28-11.53-32.24,1.47-5.18,11.3-5.14,16.93.5,26.51,4.55,7.74,13.08,9.58,21.44,6.95"/><path class="h" d="M278.81,415.12c-8.36,2.63-16.89.78-21.44-6.95-5.64-9.58-5.68-15.21-.5-26.51,5.96-13,23.56-7.1,32.24-1.47,7.63,4.95,9.41,13.62,5.69,21.45-3.27,6.89-8.29,11.06-16,13.49"/></g></g></svg>