<?xml version="1.0" encoding="UTF-8"?><svg id="b" xmlns="http://www.w3.org/2000/svg" viewBox="0 0 702 470.35"><defs><style>.d{fill:#ffdf44;}.e{fill:#77057a;}.f{fill:#49a258;}.g{fill:#c54b4f;}.h{fill:#740077;}.i{fill:#7f1482;}.j{fill:#fff;}.k{fill:#5c97c4;}.l{fill:#e36b2e;}.m{fill:#fcf7f2;}.n{fill:#fdfdfd;}</style></defs><g id="c"><path class="n" d="M192.28,66.47c-7.15-7.74-14.79-15.14-23.56-21.55-11.44-8.36-23.8-14.79-36.85-20.1-7.03-2.86-19.75-5.59-26.36-4.85l-12.61,1.42c-2.93.33-5.75.88-8.45,1.86-9.92,3.62-1.72,22-11.69,38.96-3.24,5.5-13.8,12.72-17.02,18.28-.55.41-1.36.79-1.68,1.53-.25.57-.91.96-1.05,1.62l-.5.59c-.63.75-1.61,1.26-2.03,2.18-2.6,5.77-4.79,11.91-5.51,18.55-1.32,12.19,4.82,23.4,14.74,30.19,14,9.57,27,12.49,39.87,20.28,7.31,4.43,13.53,10.21,13.14,19.07l-1.45,6.23c-1.44,6.19-6.61,11.08-10.91,15.74-2.98,3.23-6.47,6.16-9.84,9.32-4.04,3.79-8.92,6.62-13.89,9.05l-25.13,12.27c-4.82,2.35-9.82,4.4-13.98,7.87-9.4,7.85-17.05,17.09-23.96,27.18C1.59,279.59-1.18,295.46.41,316.35c.95,12.48,3.87,24.48,8.22,36.18,2.24,6.01,5.9,10.97,8.74,16.57,2.65,5.23,5.55,9.69,9.13,14.27,13.7,17.51,27.84,29.7,46.47,41.74,26.22,16.96,45.86,24.79,75.92,33.52,12.52,3.64,24.6,5.88,37.62,7.65,21.56,2.92,42.94,4.9,64.35,3.75,1.21-.06,2.6.29,3.63-.46,1.2-.36,2.44.13,3.64.05-.13.32.2.4.58.37l19.15-1.57c.34-.03,1.07-.02,1.08-.47,26.71-2.77,58.56-11.32,83.55-21.91,11.43-4.85,22.09-9.83,32.81-16.06,23.97-13.95,46.42-29.51,66.78-48.35l29.15-26.97c23.09-21.36,44.47-38.28,77.92-38.09,7.9.05,15.3,1.12,22.8,2.32.15.71,1.11.4,1.63.46.47.05,1.02-.02,1.48.1,10,2.49,19.67,5.32,29.54,9.25,14.34,5.72,28.13,11.93,41.25,20.05l16.55,10.25c-3.16,3.7-4.52,8.78-1.14,12.98,4.12,5.12,11.53,6.41,17.14,2.92,2.89-1.8,4.05-4.86,3.45-8.24-1.33-7.36-8.74-11.38-15.91-8.9-1.08-.96-1.93-1.74-2.7-2.52l-29.34-29.69c-7.55-7.64-15.16-14.39-23.16-21.51s-16.24-13.75-25.34-18.96c-2.97-1.7-5.38-4.83-8.71-6.12.17-.36-.35-.46-.59-.57-.12-.05-.28.04-.42.01-4.37-3.37-9.05-6.59-14.06-8.89-6.99-5.64-15.28-9.59-22.83-14.43-12.27-7.88-24.85-15.42-37.98-21.73-8.22-3.96-16.34-7.91-25.3-10.97l-18.59-6.35c-21.42-7.31-44.89-10.83-67.12-11.33h-1.09c-.46-.83-2-.8-2.6-.16-8.66-.6-17.28.52-26.17,1.05-25.64,1.55-52.55,10.12-76.49,18.36-11.51,3.96-22.89,8.18-33.91,14.08-4.05,2.17-8.19,3.7-11.81,6.12-.35.24-1,.09-1.23.59-.07.16-.38.21-.44.38-1.93-.37-3.29,1.54-4.67,2.26l-6.81,3.51c-3.44,1.77-6.82,3.79-10.35,5.29l-24.01,10.19c-.27.12-.64.04-.93.12-15.44,4.19-28.71,7.42-45.09,4.26-.29-.06-.69.11-.97.11-1.19-1.04-2.83-1.21-4.33-1.61l-.93-.25c.18-.36-.39-.38-.62-.45-.14-.04-.29.02-.44,0-.3-.24-.69-.34-1.03-.51-4.33-2.21-7.49-5.45-9.48-9.88-.13-.28-.4-.78-.42-1.06-.12-1.47-.57-2.81-.43-4.87,7.92.43,25.89-1.81,32.75-5.49,6.44-3.46,12.05-8.09,16.86-13.55,3.56-4.04,5.73-9.06,5.66-14.46-.09-6.75-8.5-13.85-13.28-18.12l-10.74-9.58c-4.26-3.8-7.74-8.12-10.09-13.41-2.54-5.72-2.16-11.71-.3-17.67.67-2.13,1.32-4.75,2.34-6.65,2.81-5.26,5.68-10.53,9.61-15.31,1.16-1.41,1.78-3.42,2.87-4.53,1.27-1.28,2.05-2.78,3.15-4.14,17.72-21.92,37.81-41.46,61.31-57.54,13.64-9.33,29.96-19.85,45.23-26,10.36-4.17,20.99-6.42,32.02-8.16,2.94,5.02,11.09,5.95,15.47,4.26,3.38-1.3,6.63-3.08,8.43-6.44s1.14-7.3-1.35-10.03c-5.87-6.44-15.47-6.07-21.32.36-2.38,2.62-2.76,6.09-2.28,9.72l-17.44,3.91c-20.25,4.54-37.66,15.83-54.74,27.21-15.19,10.12-29.07,21.17-42.51,34.05-.73-8.82-3.17-16.48-7.31-23.74-.53-.93-1.11-1.93-1.07-3.01,5.21-7.9,11.93-13.9,18.7-20.34,7.97-7.58,15.88-14.58,24.7-21.11,10.44-7.73,17.94-11.02,30.4-14.6,4.42,4.42,13.39,2.83,18.18-.15,3.2-2,4.05-5.29,3.01-8.81-1.85-6.28-8.15-10.41-14.63-8.3-5.22,1.71-7.94,7.13-7.33,12.5.1.91.3,2.39-.65,2.76l-12.45,4.78c-16.31,6.27-35.5,24.58-48.28,36.68-4.97,4.7-9.16,9.37-13.38,14.83-1.62-2.77-3.32-4.01-4.83-5.65Z"/><path class="h" d="M101.3,197.77c-.03,2.12,6.72,6.5,8.93,8.38,8.54,7.25,17.82,13.53,25.32,21.25-.19.2-.37.42-.52.66l-35.06-28.14c-5.13,4.93-24.54,24.34-26.71,28.43-.17.32.28.5.47.72.17.2-.16.81.39.97.37.11.55-.43.78-.55.91.04,2.08.43,3,.58-.14.63-.6,1.09-1.02,1.55l-3.99-.65c0-.36.26-.49.06-.57-3.01-1.09-5.12,4.25-5.27,5.37-.02.16.04.37-.03.52-.08-.03-.48,0-.8,0-.21,0-.3.37.15.54-6.58,11.06-10.96,23.08-12.15,36.6,1.49,0,3.16.14,4.39-.27l2.62,1.03c-2.38.14-4.73.6-7.29,1.67-.79,15.17.96,29.92,6.58,44.73l26.48-15.95c17.42-10.49,33.63-22.11,51.26-32.15l9.49-6.43c-.14-.89-1.3-1.22-1.4-2.21l-.08-.78c-.05-.44-.56-.44-.96-.47-.65-1.6-.76-3.19.45-4.51,2,4.43,5.16,7.67,9.48,9.88-.17.82-.89,1.33-1.6,1.54-1.5-.27-2.56-1.39-4.14-2.32-6.4,4.59-12.86,8.31-19.47,12.47l-30.22,19c-13.01,8.82-25.28,14.76-38.38,23.82,9.01,19.25,20.15,30.29,38.16,41.11,1.44-3.64,4.15-6.07,5.85-8.99.55-.06,1.15.08,1.39.62-1.23,3.08-3.52,6.07-5.46,9.54,15.84,9.1,32.32,15.96,49.78,21.97l7.68-23.43-7.01-2.33c3.19-12.13,5.48-23.79,8.35-35.75l7.13-29.74,5.17-21.38c-3.41-.44-6.41-1.21-9.43-1,.27-.5.38-.98,1.5-1.22-.55-.23-.99-.63-.99-1.22,16.38,3.17,29.65-.06,45.09-4.26l-.03,1.91-8.73,2.27c-1.16.3-2,.7-2.57,1.53-.24-.15-.57-.3-.92-.38-.21-.05-.45.16-.63.37-2.58.02-5.35.62-8.07,1.21-.55,1.54.13,2.95-.74,4.03.21-1.46.13-4.17-1.81-4.76-.59-.18-.88.63-1.33.77-1.28.4-2.81.21-4.12.32-1.61-.88-4.38-.98-6.05.2-.76.83-.03,2.59-.2,3.46-.36,3.61-1.59,7.6-2.66,11.41-4.49,16.06-7.81,31.91-11.45,48.19l-5.2,23.26c4.86,1.4,13.15,3.38,17.24,3.24.26.37.56.7.91.99-.1.33-.05.85-.35.99s-.66.05-1.12.11l-9.95-1.96-7.56,23.89c15.51,5.17,30.47,9.31,46.03,12.68.03-1.43.13-2.46.09-3.45.98.73.03,1.99.63,3.3.94-.99-.23-2.14.65-3.27.65,1.62-.53,3.2.72,4.96-.42.52-1.08-.1-2.14.56.39.21.97.24,1.15.73-15.79-3.74-30.32-7.38-46.27-12.76-.89,1.08-.75,2.56-.5,3.82l8.9,44.63,6.81,22.4c17.92,3.33,35.54,5.33,53.36,6.46-1.1,1-2.53,1.03-4.21,1.72,3.69-.24,9.78,1.84,8.42-1.8,2.89.45,5.85.37,8.77.43-.65.95-1.85.04-3.11.9,3.13.22,6.21.25,9.34-.01-1.52-.98-2.99.33-4.15-.9h13.98c0,.77,5.83,1.01,4.79-.42,1.6.25,3.32-.04,4.94-.41.08,1.23,1.97,1,2.77.61-.61-.44-.94-.45-1.04-.81,1.86.18,3.74-.05,5.58-.35.06.24.11.48.21.63.15.24.4.33.63.2.31-.17.37-.58.42-.92,1.35.29,1.99-.38,2.76-1.03,2.05-1.72-.86-2.8.22-3.72,1.16.95,1.36,2.5,2.52,4.17,15.75-1.61,31.2-4.63,46.74-8.97l-31.94-49.91c-14.78,1.54-28.99,2.19-43.62,1.69-.2.74.37,1.09.41,1.55-.94.63,1.8,2.31.02,4.21-.59-1.16-1.78-2.25-2.01-3.62.16-.19.48-.49.33-.71-.23-.35-.71-.28-.94-.36-.58-1.12-1.95-1.29-3.36-1.41-12.26-.97-24.39-1.9-36.11-4.73.18.01.61-.1.53-.4-1.06-.52-1.92-.38-2.61-.96.52-.39.92-.37,1.07-.69,9.44,1.4,27.52,4.46,37.87,4.6.32,0,.67-.33.82-.55.29-.42-.4-3.93-1.28-3.16.05-.3.16-.72.1-1.01l2.08.04c.05.28.29.71.41.99-.23-.04-.5.12-.57.29-.1.22-.08.91.17,1.24.16.2.47-.17.77-.27.07.69.29,1.27.5,1.74.38.82,1.58,1.05,2.51,1.08,13.89.52,27.43-.13,41.59-1.71-.1-1.44-.44-2.8-.85-3.99.17-.24.32-.58.5-.73.51-.4.72.58.94,1.25.49,1.11.55.16.48-.49l1.67,3.65c11.77-1.62,23.4-3.16,34.24-7,.25.13.4.22.55.27.38.13.87-.48.37-.87-.34-.27-.45-.51-.39-.88.04-.22-.35-.44-.5-.08-.12.3.04.65-.02.88-.37-.43-.19-1.07-.37-1.53.74-.29,1.29-.9,1.48-1.67.33.89.89,2.3,1.58,3.06.91.58,2.19-.51,2.97-.4.26.04.53.64.81.48.41-.23.55-.64.35-.95l.47-.06c.07.3.5.64.76.5.44-.24.26-.76.26-1.06l3.66-1.03c.42,1.04,1.63,1.06,2.62.99l-4.2,1.54c.22-1.15-3.11.85-4.19.74.29.54.71.35,1.07.43-.83-.06-1.87.94-3.21,1.27l27.11,32.34c2.98,3.55,5.79,6.81,9.11,9.87,12.29-4.89,23.42-11.23,34.6-17.99-.84-1.09-1.79-1.6-2.7-2.14-.14-1-.75-1.36-1.59-1.62-.76-.23-1.45-1-2.05-1.5,0-.36.04-.89.37-1,.45-.14.88-.03,1.24,0l6.86,4.94c9.57-5.9,18.81-11.87,27.69-18.71-1.12-.71-1.25-1.83-1.9-2.34.17-.5.33-1,.46-1.52,1.27.39,2.15,1.39,3.36,2.5l26.1-21.3c-13.8-11.05-25.82-23.09-37.98-35.6l-17.77,12.34c-.47-2.49,1.66-1.58,1.91-3.3,4.54-3.69,9.21-7.21,14.33-10.73-.36-1.56-.39-2.67-.75-3.76l1.51-2.04c.42,1.35.27,3.01,1.43,4.29l23.24-15.65c-.54-2.49-.65-4.78-1.21-6.83.24-.03.43-1.07.67-.94.39.23.6.89.95.96l1.79,5.61c5.59-3.07,10.91-6.15,16.58-8.87.84-.4.46-1.48.67-1.93.7-.86.39-2.27.74-3.69.77,1.25.17,2.65.44,4.1.13.24.8.11.99.03l11.68-5.04.02-13.8-4.93-.52c.29-4.75.12-9.35.93-13.82l.99,1.09c-.06,1.07.3,2.28.07,3.64-.46,2.7-.42,5.26-.16,8.01,2.95.29,5.75.32,8.71.2l.77-5.1c.45-.07.9-.18,1.25-.49.09,2.22.14,4.53-.57,6.89l-4.98.26.09,13.09c6.51-2.73,12.94-4.23,19.28-6.23.39-.12.88,0,1.02-.43.19-.63.11-1.19.02-1.71-.03-.18.06-.43-.02-.6.7.56.21,1.82,1.15,2.15l25.53-4.9,8.39-34.42c1.48-6.05,2.2-11.83,2.33-17.76.44.35,1.43.06,1.73.61.37.66.48,1.32.45,1.97-.28,6.46-1.72,12.73-3.31,19.26l-7.35,30.09,15.42-1.04c.89-2.48,1.96-4.48,2.31-6.66.99-.24,1.75-.04,2.18.91-1.15,1.7-1.5,3.79-2.45,5.6-.36.68.28.7.64.66.53-.06.9-.07,1.28-.14.18-.03.37-.02.55-.01-.45.48-.88.99-1.09,1.63-.94-.09-1.26.38-.41.89l4.33,5.61c2.64,3.41,5.92,6.66,9.3,9.53,3.75.82,8.18-.17,12.42.23-3.4-5.24-7.26-9.42-9.5-14.7.57.13,1.54.19,2.14.2,2.97,5.17,6.66,9.88,10.22,14.82l14.24,1.63-8.87-13.53c.14-.59.56-1.11,1.05-1.48,1.25-.95,2.13-2.31,2.97-3.63.49-.4.83-.95,1.02-1.55.18.08.47-.02.96.12.54.77.06,1.38-.36,2.05-1.34,2.18-2.53,2.97-2.17,4.55.03.22-.22.57-.25.79-.07.51.55.58.69.87.95,1.91,7.21,12.63,8.96,12.9-.17.48-.96.85-.66,1.18.47.51,1.08.19,1.75.51-.39.62-1.09.31-1.63.4-.46-.11-1.01-.04-1.48-.1-.24-.62-1.11-.38-1.63-.46-7.51-1.19-14.9-2.27-22.8-2.32-33.45-.2-54.83,16.72-77.92,38.09l-29.15,26.97c-20.36,18.84-42.81,34.4-66.78,48.35-10.71,6.23-21.38,11.22-32.81,16.06-24.99,10.59-56.83,19.14-83.55,21.91-.84-.77-2.18-.84-3.18-.32.98.53,1.76.14,2.09.79l-19.15,1.57c-.38.03-.71-.05-.58-.37,1.04-.07,2.15-.02,3.17-.45-2.99-.27-5.25-.73-6.81.41-1.03.75-2.43.4-3.63.46-.1-.93-1.52-.81-2.19-.22.56.35,1,.11,2.19.22-21.41,1.15-42.79-.82-64.35-3.75-13.02-1.77-25.1-4.01-37.62-7.65-30.06-8.73-49.7-16.56-75.92-33.52-18.63-12.05-32.76-24.24-46.47-41.74-3.58-4.57-6.48-9.04-9.13-14.27-2.84-5.6-6.51-10.55-8.74-16.57-4.35-11.7-7.27-23.7-8.22-36.18-1.59-20.89,1.18-36.76,13.14-54.21,6.91-10.09,14.56-19.33,23.96-27.18,4.16-3.47,9.16-5.52,13.98-7.87l25.13-12.27c4.97-2.43,9.85-5.26,13.89-9.05,3.37-3.15,6.86-6.09,9.84-9.32.21.39.96.82.95,1.32ZM39.61,240.53c.5.62,1.37.41,2.08.42l-12.83,5.36C10.52,265.76-.19,287.11,3.26,315.01c6.13-7.92,12.74-14.42,20.76-19.9l15.12-10.32c4.5-3.02,8.7-6.06,12.67-9.79,1.84-15.89,5.6-28.95,14.81-41.71.45-.62,1.11-1.65,1.22-2.95,1.68-1.13,3.67-2.09,3.92-3.91,3.4-4.28,7.1-8.13,10.97-12.49l-16,8.05-22.46,11.1c-4.58,2.37-8.42,5.31-11.59,9.39l6.92-1.95ZM17.69,363.75c2.89,4.58,4.69,9.16,7.84,13.59,3.55-7.96,6.53-15.24,10.69-22.5,6.66-11.62,13.94-22.43,21.71-33.36.08-2.07-.89-3.57-1.46-5.43-3.71-12.24-4.95-24.67-4.93-37.94l-23.02,16.12c-6.7,4.7-12.78,9.57-18.23,15.64-2.59,2.78-4.89,5.64-6.77,9.06.43,6.79,2.08,13.07,3.65,19.66,2.14,8.99,5.45,17.16,10.5,25.16ZM559.74,314.54l-8.45-8.99-6.08-7.41c-5.08-.12-9.86.39-14.39,1.12,5.14,6.58,9.92,12.46,16.05,17.53l12.87-2.26ZM544.08,317.2l-7.41-7.34-8.54-10.48c-8.58,1.23-16.71,2.74-25.21,4.9,7.88,7.47,15.89,13.62,24.6,19.69,5.69-2.93,11.22-4.75,16.56-6.77ZM511.43,334.14c4.98-3.58,9.12-6.36,14.2-9.26-9.14-5.85-17-12.72-25.11-19.97-6.54,1.61-12.63,3.42-18.79,5.98,9.9,9.32,18.82,15.83,29.7,23.26ZM509.43,335.59c-1.75-1.7-3.15-2.59-4.76-3.73-8.83-6.25-17.02-12.76-25.02-20.41-4.02,1.56-7.78,3-11.6,5.3,9.56,10.3,19.32,19.31,30.01,28.14l11.36-9.3ZM481.45,360.19l15.17-13.82c-10.93-9.13-20.89-18.53-30.66-28.84l-17.46,9.66c10.5,13.1,19.89,22.43,32.95,33ZM90.61,432.55c5.65,3.23,11.04,6.69,17.58,8.58-5.28-23.68-8.15-46.99-8.97-70.76-.06-1.71.54-3.11-.15-4.62-18.61-12-29.79-21.27-39.84-42.1-9.28,12.7-18.27,25.07-24.66,39.11l-7.56,16.61,9.35,11.24c3.09,3.71,6.06,7.4,9.92,10.38,4.45,3.43,8.1,7.33,12.34,11,4.98,4.32,25.37,16.79,31.99,20.58ZM479.93,361.86l-19.02-17.31-14.54-16.39-22.98,15.54c11.96,12.92,24.07,24.73,37.6,35.52l18.94-17.37ZM166.84,460.56c-2.66-9.53-5.25-17.92-7.06-27.07l-6.35-32.08-2.24-12.38c-17.41-5.82-33.71-12.68-49.75-21.77-.02,11.45,1.13,21.83,2.22,32.72,1.47,14.59,3.72,28.62,7.72,42.68,8.7,3.38,16.72,6.87,25.49,9.5,10.03,3,19.62,6.21,29.98,8.4ZM364.68,442.26l-17.4-19.94-19.16-22.59c-11.28,3.23-22.39,5.22-34.6,6.95l31.61,49.6c13.62-3.6,26.52-8.08,39.55-14.02ZM276.83,466.59c0-.14-.12-.26-.26-.26s-.26.12-.26.26.12.26.26.26.26-.12.26-.26ZM273.18,468.19c-1.54-.46-2.42-.59-3.16.04,1.36.44,2.29.21,3.16-.04ZM267.47,468.7c-1.36-.46-2.07-.5-2.6,0,1.09.41,1.9.37,2.6,0Z"/><path class="h" d="M105.49,19.97c-.36.98,4.7-.48,6.27,1.24l-4.72.3h-1.04c-.07,0-.22,0-.52,0h-1.04c-.49-.03-1.36-.37-1.56.26-3.27-.02-6.71.13-10.09,1.07,27.73,16.79,53.77,34.27,79.68,52.88-.6,1.73-1.72,2.56-2.63,4.04l11,9.9c.51.46,1.95,1.77,2.39,1.17l11.5-14.96c.46.46,1.16.14,1.65.51l-11.86,16.72,4.34,14.13c.92,2.98,2.24,5.71,2.4,8.62-.12,1.02-.4,2.14-1.35,2.66-1.62-7.95-3.75-15.78-6.76-23.64l-10.47,14.19,6.16,19.01c.38,1.46.07,3.16,1.34,3.81.46.23.47,1.31,1.04,1.53-1.1,1.11-1.72,3.12-2.87,4.53-3.94,4.78-6.8,10.04-9.61,15.31-.51-.31-1-.66-1.43-1.07-.11-.91,1.08-1.92.84-2.99-1.62-6.91-3.97-13.3-7.28-20.02-2.4,4.88-4.24,9.7-5.97,14.95,2.33,4.69,5.05,9.06,6.71,14.35-.34.62-.58,1.28-.78,1.95-2.42-4.09-3.54-8.74-6.79-13.07-1.29,5.33-2.06,10.59-1.98,16.26,3.92,3.87,6.89,8.21,9.99,12.42-.14.53-.31,1.05-.57,1.54l-9.01-11.01c-.07,5.47,1.87,10.57,4.89,15.22l8.55,13.18c3.13,4.82,4.68,9.91,4.48,15.8,5.85,6.28,13.99,16.86,15.11,24.97.05.37-.16.96.35,1.08,0,.48-.05.95.01,1.43-.57.28-.91.65-1.41,1.18-.04-1.01.31-1.96-.43-2.14-1.01-7.53-8.42-18.39-14.04-23.97-.99,3.89-2.32,6.9-4.13,10.07.98,4.08,1.22,8.13,1.39,12.37.43,3.15.87,6.16.09,9.31-2.32-1.29-.17-6.19-1.61-6.73l-1.19-12.58-13.35,13.78c-.46-.28-1.02-.78-1.67-.49-.45.2-.55,1.09-1.07,1.38.35-.94-.26-1.64-1.08-2.32l-12.34-10.06c.15-.23.33-.45.52-.66.6.62,1.45.41,2.19,1.01l12.01,9.74c1.64-1.61,3-3.05,4.36-4.9-15.66-14.54-31.6-27.13-48.4-39.7-1.64,1.73-2.83,3.19-4.42,4.21,0-.5-.74-.93-.95-1.32,4.29-4.66,9.47-9.55,10.91-15.74l1.45-6.23c2.39,2.22-2.96,7.74.44,7.37-.15.75-.92,1.94-.73,2.81.26,1.2,1.61,2.01,2.57,2.71l20.2,14.6c5.11,3.69,9.64,7.66,15.01,10.97l14.18,8.76c2.4-3.07,3.24-6.53,3.9-10.39-4.1-4.12-8.1-8.45-12.98-11.35.08-.5.11-1.1.54-1.46.27-.23.72-.19,1.08-.19l11.16,9.7c.04-4.76-1.88-9.1-4.52-13.06l-8.09-12.16c-3.64-5.47-5.69-11.44-6.21-18.08l-9.14-5.97c-1.36,1.47-1.88,2.78-3.56,3.67-7.35-6.03-14.34-11.47-22.06-16.71l-37.1-25.19-28.66-19.82c-1.24.69-1.26,2.13-1.34,3.2-1.52-1.13,1.07-4.39,1.4-5.71-.07,1.07.91,1.35,1.75,1.95l10.58,7.59,29.55,19.87,32.04,21.84,13.94,10.74,5.32-5.99c-3.04-3.23-6.16-5.49-9.49-8.34-15.64-13.37-32.1-24.97-49.43-36.12-10.53-6.77-20.39-13.53-29.99-21.55-.51-.42-1.48.81-1.49,1.24,0-1.14.1-2.57-1.11-3.03.42-.93,1.4-1.44,2.03-2.18.08.46.34.91.76.85.53-.09.94-.26,1.34-.38-.21.18-1.69,1.54-1.05,2.06,4.3,3.5,8.24,7.04,12.69,10.26,7.13,5.15,14.27,9.41,21.72,14.23,19.69,12.75,38.35,26.47,55.67,42.39-.38,1.49-1.31,2.05-1.98,3.33,2.31,2.08,4.64,3.72,7.7,5.42.74-6.21,1.62-11.79,3.08-17.94-8.12-8.5-16.76-15.87-26.18-22.88-12.43-9.25-24.93-17.53-37.95-25.92-9.21-5.93-17.57-12.21-25.75-19.57l-5.74,5.45c0-.34-.1-.72-.39-.88-.23-.12-.48-.15-.69-.16,3.22-5.55,13.78-12.77,17.02-18.28,9.98-16.96,1.77-35.34,11.69-38.96,2.7-.98,5.53-1.54,8.45-1.86l12.61-1.42ZM164.72,82.78c2.58-2.24,4.03-4.41,5.76-6.65-3.49-3.12-6.86-4.97-10.5-7.56-19.96-14.24-40.13-27.69-60.96-40.61-6.25-3.88-8.22-6.27-13.5-3.01,2.39,3.32,5.41,5.2,8.29,7.64,14.27,12.13,34.02,24.83,49.88,35.23,7.3,4.78,13.95,9.59,21.02,14.96ZM81.52,36.44c-.31.82-1.07-.37-2.02,0,.12,3.03.04,5.74-.26,8.49.27,1.28-.09,2.66-.09,3.95v2.54s-2.5,8.33-2.5,8.33c3.85,3.69,8.41,6.09,12.03,9.22-2.4.27-2.08-1.13-3.95-1.45-.18-.12-.35-.31-.49-.47-1.49-1.82-3.68-3.15-5.78-4.19-.19-.09-.31-.31-.49-.42-.25-.69-1.27-1.95-2.27-1.84-.84.14-1.42,1.98-1.37,2.85-.51,1.12-1.72,3-2.59,4.1l2.05,2.59c1.01,1.27,2.37,2.23,3.69,3.15l.48.46c.81.79,1.49,1.87,2.64,2.16.08.18.37.28.49.43.56.7,1.34,1.14,2.05,1.66l.48.49c.19.39.37.8,1.06,1.18.07.28-.27.45-.49.47-4.62-3.56-9.5-6.87-13.78-11.44l-6.57,6.15c7.92,7.38,16.26,13.25,25.24,19.04,22.97,14.81,44.28,28.83,64.08,48.23l6.16-15.38-11.89-9.18c-.42-.33-1.26.8-1.46.9.5-1.37.88-3.14,2.57-3.16.31.76.99,1.34,1.65,2.06l10.01,7.49c3-5.57,6.5-10.33,9.86-15.64-4.86-3.66-9.17-7.31-13.73-11.18l-4.05,3.83c-.56.53-1.34-.5-1.79-.78.09-.47.32-.89.65-1.24.36-.03.71-.08,1.06-.15.12.6.45.5.5-.06.52-1.27,1.83-1.92,2.7-2.84.74-.69,1.52-.99,2.46-1.12-.18.95.56,1.67,1.43,2.24,3.98,3.19,7.44,6.63,11.86,9.57l10.75-14.59c-4.98-3.86-8.95-7.76-13.38-11.68l-3.41,3.62c-9.73-7.64-19.7-14.2-29.91-21.1l-24.15-16.33c-9.65-6.52-18.45-13.64-27.23-21.79-2.37.97-4.6,8.8-2.29,10.8ZM169.78,146.28l8.38-11.83c-1.68-7.61-3.43-15.07-6.69-22.76-3.71,4.88-6.64,9.49-9.59,14.76,3.04,6.46,5.44,12.88,7.89,19.84ZM163.36,223.33c-1.95-1.69-3.36-2.54-5.12-3.5-4.72-2.96-9.31-5.68-13.9-8.94l-24.59-17.43-8.93-6.69-3.9,5.49c3.93,3.67,8.03,6.38,12.25,9.69,12.45,9.78,24.51,19.51,35.97,30.59,3.18-3.09,5.61-5.96,8.22-9.21Z"/><path class="h" d="M406.11,204.5c.86.06,1.72.14,2.6.15h1.09c-1.74,1.63-4.77-.52-4.21,1.59-.92-.01-1.97.39-2.6-.55.23-.04.64.23.95-.19.21-.27-.39-.36-.69-.35-.36,0-.84-.03-.79.54-.49.24-.98.48-1.52.61-3.99-1.07-8.21-.63-12.51-.22l-6.18.58c-1.98.19-3.63-.16-4.62,1.61-7.64-.72-15.26,1.06-23.02,3.03,1.47,3.26,2.3,6.11,3.17,9.42l12.81,48.91,7.01,27.23c2.04,7.94,4.39,15.52,7.01,23.26l-6.35,2.77c5.04,13.47,9.87,26.15,16.15,39.07,3.41-3.13,7.69-5.07,11.13-7.87-.25,1.72-2.38.81-1.91,3.3-2.62,1.77-4.97,4.83-7.92,6.33,11.24,12.64,22.12,24.35,34.2,35.72-.12.51-.28,1.02-.46,1.52-10.21-8.01-18.88-17.94-27.99-27.52-2.68-2.81-4.71-5.71-7.86-8.22-9.58,6.91-18.92,13.18-29.3,19.17l11.89,12.69c6.59,7.03,13.19,13.67,20.61,19.99-.36-.02-.78-.14-1.24,0-.33.11-.37.64-.37,1-13.02-10.63-20.85-20.27-32.86-32.37-7.02,3.54-13.93,6.8-21.08,9.43-.99.07-2.2.04-2.62-.99,7.63-2.14,14.89-6.08,22-10.36-3.97-7.79-7.45-15.26-10.55-23.46-16.74-44.28-31.63-89.22-43.63-134.85-.81-.87-2.11-.83-3.01-1.56,23.94-8.24,50.85-16.81,76.49-18.36,8.89-.54,17.5-1.65,26.17-1.05ZM382.78,319.3c-5.17-15.74-9-31.41-13.23-47.45l-9.73-36.92c-1.88-7.11-3.13-14.05-5.5-20.94-.54-1.82-1.93-2.54-3.76-2.13-5.68,1.27-11.19,2.63-16.79,4.63,1.46,6.79,3.41,12.77,5.44,19.1l11.37,35.47,17.25,52.5c1.74.54,13.34-2.87,14.95-4.26ZM392.49,363.17l-16.43-39.79-9.14,1.91-17.32-52.58c-6.12-18.59-12-36.71-17.14-55.86l-23.69,7.41,3.64,14.92c10.57,36.74,22.2,72.83,35.44,108.73,4.41,11.95,9.01,23.33,15.01,34.83,10.44-6.28,20.1-12.43,29.64-19.58Z"/><path class="h" d="M184.4,129.28c-.5-.32-1.09-.42-1.67-.47,1.08-2.82,7.23-7.78,7.2-10.28.96-.52,1.23-1.63,1.35-2.66l.71,1,12.5-13.27c.18-9.65-1.81-20.15-8.1-27.2-.49-.37-1.2-.05-1.65-.51,1.94-3.03-1.91-4.72-3.4-7.94.19-.56.58-1.01.93-1.47,1.51,1.64,3.21,2.88,4.83,5.65,4.22-5.47,8.41-10.13,13.38-14.83,12.78-12.1,31.97-30.42,48.28-36.68l12.45-4.78c.95-.37.76-1.85.65-2.76-.61-5.37,2.11-10.79,7.33-12.5,6.48-2.12,12.78,2.01,14.63,8.3,1.04,3.52.19,6.81-3.01,8.81-4.78,2.98-13.75,4.57-18.18.15-12.45,3.57-19.96,6.86-30.4,14.6-8.82,6.53-16.73,13.53-24.7,21.11-6.77,6.44-13.49,12.44-18.7,20.34-.04,1.07.54,2.07,1.07,3.01,4.14,7.26,6.58,14.92,7.31,23.74,13.44-12.88,27.32-23.93,42.51-34.05,17.08-11.38,34.49-22.67,54.74-27.21l17.44-3.91c-.48-3.63-.1-7.1,2.28-9.72,5.85-6.43,15.45-6.8,21.32-.36,2.49,2.73,3.08,6.82,1.35,10.03s-5.05,5.14-8.43,6.44c-4.37,1.69-12.52.75-15.47-4.26-11.02,1.74-21.66,4-32.02,8.16-15.28,6.14-31.6,16.67-45.23,26-23.5,16.07-43.6,35.62-61.31,57.54ZM276.85,17.65c4.33,2.94,11.33,1.45,14.06-2.82,2.19-3.44.95-7.81-1.5-10.33s-6.29-4.22-9.9-2.76c-6.6,2.67-6.07,13.6-2.66,15.92ZM343.23,37.21c3.25-3.85,3.83-8.81.01-12.23-3.29-2.95-8.45-4.07-12.79-2.21-5.67,2.44-7.98,10.62-4.01,15.41,4.56,5.51,12.43,4.2,16.79-.97Z"/><path class="i" d="M683.23,355.21c.06.76.87,1.35,1.11,2.18.37,1.29-1.26,1.39-1.95,1.58l-16.55-10.25c-13.12-8.13-26.9-14.33-41.25-20.05-9.87-3.93-19.54-6.76-29.54-9.25.54-.09,1.24.22,1.63-.4-.67-.32-1.28,0-1.75-.51-.3-.32.49-.7.66-1.18,3.3.51,6.47,1.51,10.29,2.43-.6-1.67-1.74-3.32-3.11-4.94s-1.85-4.45-3.58-5.71c-1.3-.94-11.22-5.08-12.56-4.68-.14-.29-.76-.36-.69-.87.03-.22.28-.57.25-.79,4.63.94,8.84,3.08,13.86,4.9,3.98-5.62,8.12-11.04,12.73-16.01-2.98-2.11-5.77-3.34-7.86-5.55-.03-.2.05-.44.02-.74s0-.5.43-.33c9.09,5.21,17.31,11.83,25.34,18.96s15.61,13.87,23.16,21.51l29.34,29.69ZM613.15,310.78c-.21.56.16,1.05.61,1.35-.37.29-.64.97-.98,1.5l10.18,5.04c1.35.67,2.57.88,3.87.52l1.54.2c-.32.43-1,.55-1.15,1.38,4.09,1.2,8.17,5.54,11.02,3.31.12.26.44.58.42.89s-.41.61-.33.92c.05.18,8.2,5.91,9.37,3.91.23.05.5.29.5.85-.04.09-.92.77-.57,1.02.98.71,8.58,6.29,9.28,5.43.67,1.2,1.84,1.97,3.1,3.06.8.69,1.92,1.68,3.14,1.84,1.12.15,2.05-.99,3.15-1.21-.61-1.54-1.58-2.19-2.77-2.34,0-.39-.22-.77-.98-.84-.02-1.33-.92-2.37-2.62-2.63-.06-.11-.16-.25-.4-.48,1.25-.17-4.64-5.88-5.18-5.26.04-.64.29-1.52-.64-2.06-.3-.17-.62-.38-.93-.9-.48-.79-1.4-.95-2.64-1.18-.72-1.83-2.55-3.18-4.22-4.17-.39-.23-.82-.89-1.4-.68.97-.77-2.57-3.45-3.18-3.94-.36-.29-.65-.88-1.16-.97-.92-1.52-2.45-2.97-4.07-3.76-.34-.16-.56-.61-.99-.62-1.56-2.54-4.97-3.9-6.86-5.99l-.49-.54c.36-.59-4.69-5.51-5.62-4.66-.13-.23-.43-.34-.57-.56-1.77-2.7-4.84-4.35-7.54-6.29-4.39,4.96-8.12,9.74-12,15.2,2.8,2.12,5.83,2.93,8.9,4.5l2.25-1.84ZM615,322.43l-4.82-8.22c-1.76-1.95-5.02-2.37-7.26-3.82.02,1.71.81,3.02,1.83,4.08,4.92,5.06-.81,5.61,10.25,7.96ZM628.67,327.73l-4.25-6.96c-3.92-1.69-7.44-3.42-11.16-5.51,1.23,3.07,2.91,5.53,4.5,8.43l10.92,4.05ZM637.45,331.36c-.73-1.97-1.02-3.55-1.83-4.8-2.57-1.59-5.13-2.93-7.87-3.93,3.54,5.43,3.93,7.63,9.7,8.73ZM646.33,335.85c-2.06-5.86-3.47-5.73-8.68-8.12.42,5.28,5.59,6.57,8.68,8.12ZM656.65,341.1c-.09-2.44-7.02-6.34-8.91-7.27-.39,4.25,6.26,5.55,8.91,7.27ZM677.03,351.92c-2.78-3.62-5.81-6.44-8.99-9.52-.7-.68-2.76.45-3.11,1.27l12.11,8.25Z"/><path class="e" d="M257.62,246.6l-6.46,3.48c3.93,9.99,7.01,19.79,9.58,30.27,2.63,10.7,5.91,20.59,9.43,31.08,6.41,19.11,12.44,37.93,16.74,57.78-1.84,1.24-3.7,1.51-5.78,2.48l9.62,29.14c.06.65,0,1.61-.48.49-.22-.67-.43-1.65-.94-1.25-.18.14-.33.49-.5.73l-10.16-28.78c-4.33,1.01-7.91,1.98-12.19,2.19-2.42-5.58-4.41-11.11-5.97-17.15l-13.95-53.97c-3.83-14.81-6.9-29.25-11.27-43.84-.25-.83-.74-1.29-1.37-1.19.48-.42.27-1.38.32-1.92,3.53-1.5,6.91-3.52,10.35-5.29,2.26,2.33,12.51-5.94,13.04-4.24ZM268.03,372.57c6.43-.48,11.78-1.37,17.19-4.1-3.5-16.88-8.58-32.82-13.96-49.1-4.32-13.08-8.58-25.56-11.93-38.89-2.3-9.17-4.72-17.85-8.24-26.6-.43-1.06-1.13-2.62-2.21-2.95l-12.53,6.25,3.61,12.82,11.74,46.98,9.61,36.56c1.73,6.59,3.74,12.72,6.73,19.04Z"/><path class="h" d="M168.76,153.26c-1.01,1.9-1.67,4.51-2.34,6.65-1.86,5.95-2.25,11.95.3,17.67,2.35,5.29,5.83,9.61,10.09,13.41l10.74,9.58c4.78,4.27,13.19,11.38,13.28,18.12.07,5.4-2.1,10.41-5.66,14.46-4.81,5.46-10.42,10.09-16.86,13.55-6.86,3.69-24.83,5.92-32.75,5.49-.14,2.06.3,3.4.43,4.87-2.72,2.74-2.23-6.99-2.67-5.53l.99-3.3.05-1.49c.69-.45.47-1.48.58-2.1,1.21-1.25,1.91-3.3,3.51-4.19.52-.29.62-1.17,1.07-1.38.65-.29,1.21.2,1.67.49-1.23,3.18-4.59,5.16-5.28,9.89,3.24,1.22,15.59.09,18.4-1.44,2.07-2.64,1.14-6.36,1.42-9.65,1.44.54-.7,5.44,1.61,6.73-.2.79-.25,1.6,0,2.7,3.93-.31,18.58-4.92,16.69-10.47.75.17.39,1.13.43,2.14.5-.53.83-.9,1.41-1.18,4.91-2.39,8.87-7.47,11.26-12.53,2.27-4.8,1.43-9.41-1.69-13.36-9.93-12.54-18.76-15.95-29.02-28.67l-4.93-6.11c.25-.49.43-1.01.57-1.54.26.36.6.65.89,1.13.44-1.14.1-1.86.14-2.66.73.28,1.09-7.31-.46-5.74l.06-1.96c.26.24.97-.08.84-.39-.34-.81-.6-1.34-1-1.77-1.07-1.14-.99-3.04-1.7-4.23.2-.67.44-1.34.78-1.95.3.96,1.41,1.8,1.34,3.43,1.65-2.66,1.59-4.84,3.14-7.03.51,1,.77-.28.95-.61.29-.52.26-1.02-.32-1.09.28-.22.24-.79.58-1,.44.41.92.77,1.43,1.07Z"/><path class="h" d="M51.57,89.44c-.01.64-.55,1.53-.81,2.14-1.24.63-1.39,2.23-1.22,3.5.02.17-.04.36-.03.53-.22.14-.53.45-.74.68-.19.21-.34.62.09.87l-.06,1.04c-.33,1.32-2.92,4.58-1.4,5.71-.73,9.94,3.15,19.67,11.09,26.28,7,5.83,14.95,9.72,23.17,13.73,8.78,4.28,27.79,12.03,31.18,20.61-.27.87.95.98.95.12.25.09.36.51.59.63-.43.07-.41.37-.36.57.09.37.46.68.45.94-.1,2.76.93,5.5.57,8.27.02-.17-2.46,6.29-1.25,5.23-.21.37-.57,1.14-.65,1.56-3.4.37,1.95-5.15-.44-7.37.39-8.86-5.82-14.65-13.14-19.07-12.88-7.79-25.88-10.7-39.87-20.28-9.93-6.79-16.06-17.99-14.74-30.19.72-6.64,2.91-12.78,5.51-18.55,1.22.47,1.11,1.89,1.11,3.03Z"/><path class="h" d="M156.92,268.5c-.36,0-.77.15,0,0,.14.02.3-.05.44,0-.21.39.38.38.62.45l.93.25c-.43.65-1.23,1.01-1.96,1.29-.35.08-.92-.26-1.24-.14-.77.28-.66,1.04-1.09,1.69l-24.4,36.25-13,18.7-7.81,10.4c-.49.65-.42,1.73.35,2.2l9.41,5.69c1.01.33,2.69-1.78,3.28-2.83,6.75-12.07,13.95-23.46,21.35-35.15,6.59-10.41,11.75-23.56,18.53-34.54-.67-.94-1.5-1-2.21-1.14.18-1.17,2.81,1.04,3.12-.8.28,0,.69-.16.97-.11,0,.59.44.98.99,1.22-1.11.24-1.23.72-1.5,1.22-3.74,6.84-7.69,13.54-11.07,20.83-2.2,4.73-4.61,8.95-7.39,13.4-6.59,10.52-13.22,20.66-19.12,31.6-1.76,3.27-3.56,6.23-5.94,9.01l-6.04-3.44c-1.83,2.97-3.69,5.67-5.02,8.59-.34.04-.62.09-1.04.29-.35.16-.47.47.03.77.21.39-.42.85-.62,1.06-.24-.54-.84-.68-1.39-.62,2.11-3.62,3.67-7.69,6.4-11.32l-6.37-4.13,12.61-17.01,16.06-23.43,10.05-14.82c3.26-4.8,6.71-9.49,9.45-14.39.71-.2,1.43-.72,1.6-1.54.34.17.72.27,1.03.51Z"/><path class="e" d="M520.81,233.3v1.46c-.65-.41-1.73-.17-2.44-.4-.24-.29-.83-.41-1.09-.65-3.47-3.18-12.66-5.84-13.53-6.72-.7-.71-1.71-.37-2.95-1.01-.47.3-.31.99-.31,1.5.03-2.39-6.68-3.66-10.23-4.96.34,3.18-.41,6.23-.47,9.11-.84-3.81,1.5-9.88-1.56-10.2-.57-.06-1.25-.22-1.65-.66-.29-.31-.57-.56-1.04-.45-.16.04-.36-.02-.52-.04-.04-.79-1.01-.58-1.56-.48-.17,0-.35-.05-.52-.04.49-1.09-5.97-2.78-6.02-1.11l-.72,23.4-.07-24.24c-4.54-1.74-8.78-3.21-13.45-4.08-.36,3.57.11,6.55.03,9.58-1.21-.83,0,8.28-.82,8.35-.86-1.54.78-11.51-1.27-10.04l-.46-8.49c-2.18-.65-18.63-4.68-18.33-2.79-.02-.3-.54-.67-.69-1.03-.17-.4-.82-.04-1.18.05-5.65-1.73-12.4-.45-17.81-2.06l-.88-.26c-.26-.08-.5.36-.58.7-1.03-1.25-13.07-1.52-15.11-1.55-.57-2.1,2.46.04,4.21-1.58,22.23.49,45.71,4.02,67.12,11.33l18.59,6.35c8.95,3.06,17.08,7.01,25.3,10.97Z"/><path class="h" d="M144.95,244.63c-.12.62.11,1.65-.58,2.1-.1-1.09-1.23-1.12-2.23-1.41-7.93-2.36-15.56-4.18-23.67-5.97-12.35-2.72-23.96-6.29-35.69-11.16-1.64,2.62-3,4.74-3.55,7.95,14.41,4.82,28.69,8.78,43.39,12.18,3.39.78,16.71,2.59,20.34,2.39.35-1.18.58-2.11,1.36-2.49l-.99,3.3c.44-1.46-.05,8.26,2.67,5.53.02.29.3.79.42,1.06-1.2,1.32-1.1,2.91-.45,4.51-.97-.08-1.83.33-3.09.71-.21-.39-.55-.68-.97-.81.76-.07,1.69-1.16,3.01-1-.03-1.77-.82-3.2-1.88-4.75l-9.41,1.39c-.2-.2-.49-.56-.78-.47-.44.15-1.05.44-.92.91-1.16.18-2.39.1-3.54.37-.38-.57-1.07-.26-1.71-.46.58-.58,1.09-.42,1.17-.83,4.51-.43,9.4-.37,13.46-1.8l1.07-.37c.72-.25,1.23-2.85.35-2.95-23.96-2.75-42.72-7.93-65.54-15.51-.14-1.63.84-2.82,1.4-4.37-.61-.43-1.17-.94-1.7-1.03.42-.46.88-.93,1.02-1.55.45.13.9.35,1.37.32.9-.07,1.55-3.23,2.33-4.01l16.07,5.92c11.67,4.3,34.8,8.09,47.28,12.32Z"/><path class="i" d="M192.28,66.47c-.35.46-.74.91-.93,1.47-13.59-13.27-19.86-20.31-37.04-30-14.42-8.12-30.41-16.37-47.25-16.44l4.72-.3c-1.58-1.72-6.63-.26-6.27-1.24,6.61-.74,19.33,1.99,26.36,4.85,13.06,5.31,25.42,11.74,36.85,20.1,8.77,6.41,16.42,13.82,23.56,21.55Z"/><path class="e" d="M558.78,255.04c7.55,4.85,15.84,8.79,22.83,14.43l-.57.7c-2.56-.17-3.55-2.75-6.23-3.12-.47-.07-.9-.48-1.39-.51-2.02-2.31-5.02-3.56-8.25-5.45-3.23,10.27-6.58,20.12-11.76,29.51-.89.44-2.72-.08-3.47-.28-.43-.95-1.19-1.16-2.18-.91s-3.63-.36-3.69-1.52c5.76-10.98,8.8-20.86,11.25-32.31l3.45-.53ZM552.57,289.19c5.15-9.47,8.43-18.97,11.46-28.96-2.57-1.54-4.66-3.25-7.23-4.4-2.61,11.33-5.82,21.56-10.83,31.58,2.34,1.15,4.22,2.07,6.61,1.78Z"/><path class="h" d="M303.45,223.91c.9.73,2.2.69,3.01,1.56-5.34.54-14.86,5.06-20.3,7.18-1.52.59-3.21.44-4.93,1.43-2.56,1.47-5.34,2.08-7.51,3.84-.93.75-3.39.64-3.61,2.52-4.02,2.03-8.5,4.01-12.49,6.16-.52-1.7-10.78,6.57-13.04,4.24l6.81-3.51c-.53,1.11,4.25-.98,4.67-2.26.06-.17.37-.22.44-.38-.13.55.7.63,1.09.24.21-.21.93-.7.14-.83,3.63-2.42,7.76-3.96,11.81-6.12,11.02-5.9,22.4-10.12,33.91-14.08ZM249.31,249.04c0-.14-.12-.26-.26-.26s-.26.12-.26.26.12.26.26.26.26-.12.26-.26Z"/><path class="e" d="M682.4,358.97c.69-.19,2.32-.28,1.95-1.58-.24-.84-1.06-1.42-1.11-2.18.77.78,1.62,1.55,2.7,2.52,7.17-2.48,14.58,1.54,15.91,8.9.61,3.38-.56,6.44-3.45,8.24-5.6,3.49-13.01,2.2-17.14-2.92-3.38-4.2-2.03-9.28,1.14-12.98ZM686.64,374.18c4.37,2.48,10.53,1.2,12.54-3.54,1.85-4.37-.61-8.73-4.17-10.99-3.99-2.54-8.22-1.81-11.42,1.57-1.94,2.05-2.3,4.38-1.74,7.64.34,2.01,2.16,3.82,4.8,5.32Z"/><path class="i" d="M558.78,255.04l-3.45.53c-.8-1.6-11.59-7.75-13.8-8.85-.39-.2-.7.9-.83,1.03.03-.65-.08-1.3-.45-1.97-.31-.55-1.29-.26-1.73-.61-5.36-4.24-11.91-6.77-17.7-10.41v-1.46c13.12,6.32,25.7,13.86,37.97,21.73Z"/><path class="h" d="M595.68,278.36c.13.02.3-.07.42-.01.15.22.33.47.59.57,3.33,1.3,5.74,4.42,8.71,6.12-.42-.17-.45.02-.43.33s-.05.53-.02.74c-.95-.34-2.22-.72-3.36-1.56-3.27,4.96-6.1,9.99-9.92,14.51-1.27-.66-2.27-1.07-3.28-.84.42-.68.9-1.28.36-2.05.82.37,1.53,1.04,2.29.85,1.43-.35,8.32-10.94,9.48-13.46l-6.54-4.55c-2.37,5.54-5.43,10-8.52,14.85.69,1.09,1.58,1.37,2.32,2.19-.19.6-.53,1.15-1.02,1.55.34-2.77-4.94-1.04-2.64-4.33,3.35-4.79,6.6-9.48,8.43-14.82,1.04-.17,2.09-.28,3.13-.1Z"/><path class="h" d="M234.23,256.13c-.05.54.16,1.5-.32,1.92-2.76,2.45-8.62,3.11-8.57,5.34-.25-.22-.28-.54-.67-1.12-.3.55-.76.83-1.28,1.05-3.27,1.35-6.57,2.66-10.12,3.89-1.01.35-1.28,1.45-1.28,2.45l-.08,28.39c0,.37-.16.65-.41.58l-.06-24.86c0-.51-.77-.91-1.03-.61.02-1.67-.15-3.36.01-5.03.06-.6.39-1.2-.21-1.8l24.01-10.19Z"/><path class="i" d="M595.68,278.36c-1.04-.18-2.1-.07-3.13.1-2.68-2.36-5.85-4.71-9.28-5.69-.33-.09-.57-.62-.99-.58-.18-.67-.66-1.61-1.24-2.02l.57-.7c5.01,2.3,9.69,5.52,14.06,8.89Z"/><path class="i" d="M182.73,128.8c.58.05,1.17.15,1.67.47-1.1,1.36-1.89,2.86-3.15,4.14-.58-.22-.58-1.3-1.04-1.53.56-1.21,1.38-2.38,2.53-3.09Z"/><path class="h" d="M163.23,270.81c-.31,1.84-2.95-.36-3.12.8-1.1-.23-2.2-.52-3.16-1.13.73-.28,1.53-.64,1.96-1.29,1.49.4,3.13.57,4.33,1.61Z"/><path class="h" d="M55.72,80.49c.21.02.46.04.69.16.29.15.38.54.39.88-.76.77-1.16,2.18-2.2,3.17-.41.12-.81.29-1.34.38-.42.07-.68-.38-.76-.85l.5-.59c.8-.11,1.21-.85,1.05-1.62.32-.73,1.13-1.12,1.68-1.53Z"/><path class="e" d="M256.06,245.08c-.42,1.27-5.19,3.36-4.67,2.26,1.38-.71,2.74-2.62,4.67-2.26Z"/><path class="h" d="M258.14,469.6c-1.2.08-2.44-.4-3.64-.05,1.55-1.14,3.81-.67,6.81-.41-1.02.43-2.13.38-3.17.45Z"/><path class="h" d="M210.22,266.32c.59.6.27,1.2.21,1.8l-1.17.22.03-1.91c.29-.08.66,0,.93-.12Z"/><path class="h" d="M278.95,467.93c0,.45-.74.44-1.08.47-.33-.65-1.11-.26-2.09-.79,1-.52,2.34-.45,3.18.32Z"/><path class="e" d="M257.72,244.11c.79.13.06.62-.14.83-.38.39-1.21.31-1.09-.24.23-.5.88-.35,1.23-.59Z"/><path class="e" d="M408.71,204.65c-.87,0-1.73-.09-2.6-.15.6-.63,2.14-.67,2.6.15Z"/><path class="i" d="M593.58,319.33c-.52-.06-1.48.25-1.63-.46.53.08,1.4-.16,1.63.46Z"/><path class="h" d="M52.99,83.63c.14-.65.8-1.04,1.05-1.62.16.77-.25,1.5-1.05,1.62Z"/><path class="h" d="M157.98,268.94c-.23-.06-.83-.06-.62-.45.22.07.79.09.62.45Z"/><path class="i" d="M596.68,278.92c-.26-.1-.44-.35-.59-.57.24.11.76.21.59.57Z"/><path class="j" d="M90.61,432.55c-6.62-3.78-27.01-16.25-31.99-20.58-4.24-3.68-7.89-7.57-12.34-11-3.86-2.98-6.83-6.67-9.92-10.38l-9.35-11.24,7.56-16.61c6.39-14.04,15.38-26.4,24.66-39.11,10.05,20.83,21.24,30.1,39.84,42.1.69,1.5.09,2.91.15,4.62.82,23.77,3.68,47.08,8.97,70.76-6.54-1.88-11.93-5.35-17.58-8.58Z"/><path class="j" d="M306.46,225.47c12,45.63,26.88,90.57,43.63,134.85,3.1,8.2,6.58,15.67,10.55,23.46-7.11,4.28-14.37,8.22-22,10.36l-3.66,1.03c-.38.11-.93.01-1.03.56l-.47.06c-.37.05-1.23-.12-1.16.46-.78-.11-2.06.98-2.97.4-.69-.76-1.25-2.16-1.58-3.06l-11.25-30.68,6.83-2.83c1.19-.49.43-2.29.1-3.32l-6.56-20.49c-4.01-12.53-7.62-24.71-11.37-37.32l-7.39-24.83c-2.44-8.2-4.89-16-6.92-24.3-1.28-5.25-2.46-10.29-4.5-15.02-.21-.48.25-1.4-.53-1.59l-.02-.56c5.44-2.12,14.96-6.64,20.3-7.18Z"/><path class="j" d="M326.29,395.26c.18.46,0,1.11.37,1.53.1.14-.07.49-.01.68-10.84,3.85-22.47,5.39-34.24,7l-1.67-3.65-9.62-29.14c2.08-.97,3.94-1.24,5.78-2.48-4.3-19.85-10.33-38.67-16.74-57.78-3.52-10.49-6.8-20.38-9.43-31.08-2.57-10.48-5.65-20.28-9.58-30.27l6.46-3.48c3.99-2.15,8.46-4.13,12.49-6.16,2.21,6.47,3.92,13.01,5.74,19.88l7.5,28.25,5.63,17.8,7.1,26.1c3.07,11.28,6.05,22.22,10.35,33.16l7.64-2.16,12.23,31.79Z"/><path class="j" d="M166.84,460.56c-10.36-2.19-19.95-5.4-29.98-8.4-8.77-2.63-16.79-6.12-25.49-9.5-4-14.06-6.25-28.09-7.72-42.68-1.1-10.89-2.24-21.26-2.22-32.72,16.04,9.09,32.35,15.95,49.75,21.77l2.24,12.38,6.35,32.08c1.81,9.15,4.4,17.54,7.06,27.07Z"/><path class="j" d="M377.64,208.26c1.98,5.04,2.95,10.35,3.91,15.93,1.47,8.57,3.56,16.58,5.5,25.11l9.34,41.03,5.86,24,8.29-1.49,8.59,26.77c.35,1.09.38,2.21.75,3.76-5.12,3.52-9.8,7.03-14.33,10.73-3.44,2.8-7.72,4.74-11.13,7.87-6.28-12.92-11.11-25.6-16.15-39.07l6.35-2.77c-2.61-7.74-4.96-15.32-7.01-23.26l-7.01-27.23-12.81-48.91c-.87-3.32-1.7-6.17-3.17-9.42,7.77-1.97,15.38-3.75,23.02-3.03Z"/><path class="j" d="M288.82,400.8c.42,1.18.76,2.54.85,3.99-14.16,1.59-27.7,2.23-41.59,1.71-.93-.03-2.14-.27-2.51-1.08-.21-.46-.43-1.04-.5-1.74.11-.5-.2-.85-.37-1.26-.12-.27-.37-.71-.41-.99-2.78-16.86-5.22-33.56-7.49-50.9l-8.33-63.77-3.03-21.91c-.03-.18-.03-.37-.04-.55-.03-.3-.04-.61-.04-.91-.05-2.23,5.81-2.89,8.57-5.34.63-.1,1.12.37,1.37,1.19,4.37,14.59,7.45,29.03,11.27,43.84l13.95,53.97c1.56,6.05,3.55,11.57,5.97,17.15,4.28-.21,7.86-1.18,12.19-2.19l10.16,28.78Z"/><path class="j" d="M201.06,402.98l23.81,63.86c.07.2.03.43.04.63-.48.28-1.04.09-1.56.05-17.82-1.14-35.43-3.13-53.36-6.46l-6.81-22.4-8.9-44.63c-.25-1.26-.39-2.74.5-3.82,15.95,5.38,30.48,9.02,46.27,12.76Z"/><path class="j" d="M242.21,401.39c.06.29-.05.71-.1,1.01-.22,1.28.4,2.45.46,3.71-10.35-.14-28.44-3.2-37.87-4.6-.64-.1-2.15-.74-2.22-1.63-.69-8.03-1.04-15.8-1.04-23.9l8.32.08c.31-2.68-.02-5.09.05-7.38l.8-25.09.56-14.84.35-30.12c.25.07.41-.21.41-.58l.08-28.39c0-1,.27-2.1,1.28-2.45,3.56-1.23,6.85-2.55,10.12-3.89l5.95,43.49,5.62,45.81c2.03,16.58,3.83,32.8,7.23,48.78Z"/><path class="j" d="M107.48,355.24c.21-.21.83-.67.62-1.06l1.01-1.06c1.33-2.93,3.19-5.62,5.02-8.59l6.04,3.44c2.38-2.78,4.17-5.74,5.94-9.01,5.9-10.94,12.54-21.07,19.12-31.6,2.78-4.44,5.19-8.66,7.39-13.4,3.38-7.29,7.34-13.98,11.07-20.83,3.02-.21,6.02.55,9.43,1l-5.17,21.38-7.13,29.74c-2.87,11.96-5.15,23.62-8.35,35.75l7.01,2.33-7.68,23.43c-17.47-6.01-33.95-12.87-49.78-21.97,1.93-3.47,4.23-6.46,5.46-9.54Z"/><path class="j" d="M154.3,269.53c-2.74,4.9-6.2,9.59-9.45,14.39l-10.05,14.82-16.06,23.43-12.61,17.01,6.37,4.13c-2.73,3.62-4.3,7.69-6.4,11.32-1.7,2.92-4.41,5.35-5.85,8.99-18.01-10.82-29.16-21.87-38.16-41.11,13.11-9.06,25.37-14.99,38.38-23.82l30.22-19c6.61-4.16,13.07-7.87,19.47-12.47,1.58.93,2.65,2.05,4.14,2.32Z"/><path class="j" d="M17.69,363.75c-5.05-8.01-8.36-16.17-10.5-25.16-1.57-6.59-3.22-12.87-3.65-19.66,1.88-3.42,4.18-6.28,6.77-9.06,5.45-6.07,11.52-10.95,18.23-15.64l23.02-16.12c-.02,13.27,1.21,25.7,4.93,37.94.57,1.86,1.54,3.36,1.46,5.43-7.77,10.93-15.06,21.74-21.71,33.36-4.16,7.26-7.14,14.54-10.69,22.5-3.15-4.43-4.95-9.01-7.84-13.59Z"/><path class="j" d="M205.7,403.55c11.72,2.83,23.85,3.76,36.11,4.73,1.41.11,2.77.29,3.36,1.41-.1.48.08,1.01.61,1.08.23,1.38,1.43,2.47,2.01,3.62l17.11,33.76,8.54,17.21c-.77.65-1.41,1.32-2.76,1.03l-1.25.09c-1.84.3-3.72.53-5.58.35-.55-.05-1.19.08-1.73.2-1.62.37-3.33.66-4.94.41l-.6-.09h-.52c-1.24,0-2.41.61-3.67.51h-13.98s-2.08.01-2.08.01c-2.92-.06-5.89.02-8.77-.43l-13.12-35.23-10.84-28.47c.54-.54,1.47-.35,2.1-.2Z"/><path class="j" d="M273.66,461.66c.03-.17-.06-.36,0-.52.17-.5-.32-.72-.49-1.06l-22.31-44.09c-.09-.18-.32-.35-.37-.54-.49-1.93-1.68-3.59-2.72-5.25-.04-.46-.61-.81-.41-1.55,14.63.5,28.85-.15,43.62-1.69l31.94,49.91c-15.54,4.33-30.99,7.36-46.74,8.97-1.16-1.67-1.36-3.23-2.52-4.17Z"/><path class="j" d="M402.48,205.69c.14-.07.36.04.52,0,.63.94,1.68.54,2.6.55,2.04.02,14.08.3,15.11,1.55.32,11.38,2.24,22.39,3.88,33.98l9.13,64.37c2.39.14,4.41-.77,6.67-.35l3.72,13.59c.56,2.05.68,4.35,1.21,6.83l-23.24,15.65c-1.15-1.28-1-2.94-1.43-4.29l-7.92-25.23c2.2-.75,4.13-.87,5.9-1.68.02-3.11-1.18-5.7-1.64-8.36l-6.38-37.35-7.16-41.59-2.52-14.92c-.12-.73-.56-1.5.04-2.13.53-.13,1.03-.36,1.52-.61Z"/><path class="j" d="M196.41,272.14c-.5,19.34-2.11,38.48-3.62,58.13l-3.4,44.4c3.11.79,6.19.65,9.73,1l.92,21.04c.04.99-.06,2.02-.09,3.45-15.55-3.37-30.52-7.51-46.03-12.68l7.56-23.89,9.95,1.96c.45-.06.81.04,1.12-.11s.25-.66.35-.99c3.18-10.71,5.25-21.59,6.89-32.99l7.79-54.09c.87-1.08.19-2.49.74-4.03,2.72-.59,5.5-1.19,8.07-1.21Z"/><path class="j" d="M145.97,262.63c.21.52.42,1.14,1.04,1.25.1.99,1.26,1.32,1.4,2.21l-9.49,6.43c-17.63,10.04-33.85,21.65-51.26,32.15l-26.48,15.95c-5.63-14.81-7.37-29.55-6.58-44.73,2.57-1.07,4.91-1.53,7.29-1.67,3.69-.87,7.14-1.21,10.81-1.5.5,1.89.51,3.37,1.26,5.27,8.32-2.27,16.35-3.6,24.89-4.87,15.12-2.25,29.68-5.44,44.04-9.78,1.26-.38,2.13-.79,3.09-.71Z"/><path class="j" d="M66.62,233.28c-9.21,12.76-12.97,25.82-14.81,41.71-3.97,3.74-8.17,6.78-12.67,9.79l-15.12,10.32c-8.03,5.48-14.63,11.98-20.76,19.9-3.45-27.9,7.26-49.25,25.6-68.7l12.83-5.36,25.12-9.5c.59.89.03,1.44-.19,1.83Z"/><path class="j" d="M364.68,442.26c-13.03,5.94-25.93,10.42-39.55,14.02l-31.61-49.6c12.21-1.73,23.32-3.72,34.6-6.95l19.16,22.59,17.4,19.94Z"/><path class="j" d="M395.21,418.08c.61.49,1.29,1.26,2.05,1.5.29.75.92,1.22,1.59,1.62.91.54,1.87,1.05,2.7,2.14-11.18,6.75-22.31,13.09-34.6,17.99-3.33-3.06-6.13-6.32-9.11-9.87l-27.11-32.34c1.34-.33,2.38-1.33,3.21-1.27,1.34.1,2.06-.84,3.12-1.17l4.2-1.54c7.16-2.62,14.06-5.88,21.08-9.43,12.01,12.1,19.85,21.74,32.86,32.37Z"/><path class="j" d="M460.63,221.65c.18,3.3.23,6.41.37,10.06l2.23,60.09c.29,7.8.52,15.06,1.52,22.4-.21.45.17,1.52-.67,1.93-5.67,2.73-10.99,5.8-16.58,8.87l-1.79-5.61c-.16-.39.04-1.11-.11-1.56-.16-.5.14-1.38-.49-1.6l-2.43-10.58,6.56-1.9c-2.5-16.16-2.83-31.88-4.03-47.99l-3.38-45.38c-.3-1.89,16.15,2.13,18.33,2.79l.46,8.49Z"/><path class="j" d="M429.47,400.97c.66.52.78,1.63,1.9,2.34-8.89,6.84-18.12,12.81-27.69,18.71l-6.86-4.94c-7.42-6.32-14.02-12.96-20.61-19.99l-11.89-12.69c10.38-5.99,19.73-12.26,29.3-19.17,3.15,2.51,5.18,5.41,7.86,8.22,9.11,9.58,17.78,19.51,27.99,27.52Z"/><path class="j" d="M429.92,399.45c-12.08-11.38-22.96-23.08-34.2-35.72,2.95-1.5,5.3-4.57,7.92-6.33l17.77-12.34c12.16,12.51,24.18,24.55,37.98,35.6l-26.1,21.3c-1.2-1.12-2.09-2.11-3.36-2.5Z"/><path class="j" d="M72.9,231l3.99.65c.53.09,1.09.6,1.7,1.03-.56,1.56-1.54,2.75-1.4,4.37,22.82,7.59,41.58,12.77,65.54,15.51.88.1.37,2.7-.35,2.95-.39,0-.88-.04-1.07.37-4.06,1.42-8.95,1.37-13.46,1.8-.71.07-1.49-.06-2.01.58l-1.1.04c-5.81.19-11.48,2.15-17.48,3.26-12.4,2.3-23.26,2.44-35.24,5.09-.08,1.39.49,2.54.19,3.85-4.5,1.2-8.86,1.35-12.96,2.7-1.23.4-2.9.27-4.39.27,1.19-13.52,5.57-25.54,12.15-36.6.35.19.52-.29.64-.54.07-.15,0-.36.03-.52,2.47-1.31,1.7-5.37,5.21-4.8Z"/><path class="l" d="M210.41,273.15l-.67,48.3-1.33,33.67c-.02.55-.15,1.1-.13,1.66l.06,12.01v.93s-.06.63-.06.63l-.02,3.58c0,.41-.17.7-.36.88-.13.12-.39.14-.61.12h-.6s-15.28-1.23-15.28-1.23c.13-11.16,1.19-21.78,2.04-32.81l3.14-40.57c.74-9.59,1.5-18.83,1.37-28.17.57-.83,1.41-1.23,2.57-1.53l8.73-2.27,1.17-.22c-.17,1.66,0,3.36-.01,5.03Z"/><path class="g" d="M180.33,273.71c1.32-.11,2.84.09,4.12-.32.61-.03,1.24-.08,2.12.48l-8.15,57.04c-1.61,11.24-3.84,21.84-6.42,32.56-4.1.14-12.38-1.84-17.24-3.24l5.2-23.26c3.64-16.27,6.96-32.13,11.45-48.19,1.07-3.81,2.3-7.81,2.66-11.41.49-.82,1.03-2.41,1.13-3.52,1.67-.48,3.57-.02,5.13-.15Z"/><path class="j" d="M135.03,228.06l12.34,10.06c.83.67,1.43,1.38,1.08,2.32-1.6.89-2.29,2.95-3.51,4.19-12.48-4.24-35.61-8.03-47.28-12.32l-16.07-5.92c-.78.78-1.42,3.94-2.33,4.01-.46.04-.92-.18-1.37-.32-.92-.16-2.09-.55-3-.58-.05-.51-.81-.32-1.17-.43-.19-.22-.63-.41-.47-.72,2.17-4.09,21.57-23.51,26.71-28.43l35.06,28.14Z"/><path class="j" d="M479.93,361.86l-18.94,17.37c-13.53-10.8-25.64-22.6-37.6-35.52l22.98-15.54,14.54,16.39,19.02,17.31Z"/><path class="j" d="M520.81,234.76c5.79,3.64,12.34,6.16,17.7,10.41-.13,5.94-.85,11.71-2.33,17.76l-8.39,34.42-25.53,4.9,1.41-8.25c1.99-.1,3.59.38,5.44.08l2.73-19.42,6.41-37.2c.2-1.18.37-2.17.12-3.1.71.22,1.79-.02,2.45.4Z"/><path class="j" d="M476.21,242.07l-1.21,30.07c-.96,1.39.04,3.2-.38,4.72s.27,3.18.01,4.61c-.81,4.47-.64,9.07-.93,13.82l4.93.52-.02,13.8-11.68,5.04c-.83-7-1.21-13.9-1.48-21.31l-2.36-64.75c-.07-2-.41-3.57-.37-5.25.08-3.03-.39-6.01-.03-9.58,4.67.87,8.91,2.34,13.45,4.08l.07,24.24Z"/><path class="j" d="M500.49,227.49c.09,12.95-.57,25.79-1.77,38.96l-2.41,26.53,5.25.6c.21,2.34-1.49,4.46-.46,6.52.08.16,0,.42.02.6-.18.16-.36.34-.52.52-.21.14-.39.31-.52.52v1.1c-6.34,2-12.77,3.5-19.28,6.23l-.09-13.09,4.98-.26c.71-2.36.66-4.67.57-6.89-.01-.33.11-.69.16-1.02.12-.72.15-1.44.2-2.17.02-.27-.07-.82.07-1.04,1.06-1.6-.02-3.74.41-5.72.64-2.99.4-5.81.64-8.82l.51-6.24.43-8.29c.41-7.96.94-15.92,1.11-23.88.06-2.88.81-5.93.47-9.11,3.55,1.3,10.26,2.56,10.23,4.96Z"/><path class="j" d="M481.45,360.19c-13.05-10.57-22.45-19.9-32.95-33l17.46-9.66c9.77,10.31,19.73,19.71,30.66,28.84l-15.17,13.82Z"/><path class="f" d="M482.95,219.79c.17,0,.35.04.52.04.31.54,1.01.44,1.56.48.16.01.36.07.52.04.17.41.63.49,1.04.45.4.44,1.08.6,1.65.66.38,7.27.1,15.91-.4,23.67l-1.04,16.28-.62,8.65-.44,6.32-.65,10.26-.06,1.17c-.02.5.07,1.03,0,1.53l-.77,5.1c-2.96.12-5.76.09-8.71-.2-.26-2.75-.3-5.31.16-8.01.23-1.36-.13-2.57-.07-3.64l1.94-32.72c.63-10.66.62-20.8.26-31.66,2.4.17,3.41,1.7,5.12,1.6Z"/><path class="j" d="M555.33,255.56c-2.45,11.46-5.49,21.34-11.25,32.31.06,1.16,2.68,1.77,3.69,1.52-.34,2.18-1.41,4.19-2.31,6.66l-15.42,1.04,7.35-30.09c1.59-6.53,3.04-12.8,3.31-19.26.13-.13.44-1.23.83-1.03,2.21,1.1,13.01,7.26,13.8,8.85Z"/><path class="h" d="M286.16,232.65l.02.56c-.76.46.02,1.21.53,1.59,2.05,4.73,3.22,9.77,4.5,15.02,2.03,8.31,4.48,16.11,6.92,24.3l7.39,24.83c3.75,12.61,7.36,24.8,11.37,37.32l6.56,20.49c.33,1.03,1.09,2.83-.1,3.32l-6.83,2.83,11.25,30.68c-.19.77-.74,1.38-1.48,1.67l-12.23-31.79-7.64,2.16c-4.3-10.95-7.29-21.88-10.35-33.16l-7.1-26.1-5.63-17.8-7.5-28.25c-1.82-6.87-3.53-13.41-5.74-19.88.22-1.88,2.68-1.77,3.61-2.52-.49.66-1.27.91-2.26,1.75,2.69,7.82,4.52,15.68,6.74,23.72l3.83,13.85c2.19,7.92,4.13,15.54,6.87,23.29,2.11,5.96,3.06,11.98,4.85,18l4.4,14.83c3.01,10.14,5.73,20.02,9.6,30.17l12.9-3.87c1.21-.36,1.72-1.46,1.28-2.68l-12.47-38.95-9.94-34.68c-4.11-14.33-8.59-28.05-12.01-42.51-.64-2.73-1.72-5.23-3.22-7.54-3.59,1.74-6.42,3.6-10.55,4.62,2.17-1.76,4.95-2.37,7.51-3.84,1.72-.99,3.41-.84,4.93-1.43Z"/><path class="j" d="M511.43,334.14c-10.88-7.42-19.8-13.93-29.7-23.26,6.15-2.55,12.25-4.37,18.79-5.98,8.11,7.25,15.98,14.12,25.11,19.97-5.08,2.89-9.22,5.67-14.2,9.26Z"/><path class="j" d="M509.43,335.59l-11.36,9.3c-10.69-8.83-20.45-17.84-30.01-28.14,3.81-2.3,7.58-3.74,11.6-5.3,8,7.66,16.19,14.16,25.02,20.41,1.61,1.14,3,2.03,4.76,3.73Z"/><path class="j" d="M544.08,317.2c-5.33,2.02-10.86,3.84-16.56,6.77-8.71-6.07-16.72-12.22-24.6-19.69,8.51-2.16,16.63-3.67,25.21-4.9l8.54,10.48,7.41,7.34Z"/><path class="k" d="M135.55,227.4c-7.5-7.72-16.78-14-25.32-21.25-2.21-1.88-8.96-6.26-8.93-8.38,1.59-1.03,2.78-2.48,4.42-4.21,16.79,12.57,32.74,25.16,48.4,39.7-1.36,1.85-2.71,3.29-4.36,4.9l-12.01-9.74c-.74-.6-1.59-.39-2.19-1.01Z"/><path class="h" d="M197.96,272.15c.13,9.34-.62,18.58-1.37,28.17l-3.14,40.57c-.85,11.03-1.91,21.65-2.04,32.81l15.28,1.24c-.06.64.51.61.6,0,.22.02.49,0,.61-.12.19-.18.35-.46.36-.88l.02-3.58c.62.13.72-.7.05-.63v-.93s1.46-.11,1.46-.11c-.07,2.29.27,4.7-.05,7.38l-8.32-.08c0,8.1.35,15.88,1.04,23.9.08.9,1.58,1.54,2.22,1.63-.15.31-.54.3-1.07.69.69.58,1.55.44,2.61.96.08.3-.35.41-.53.4-.63-.15-1.56-.34-2.1.2l10.84,28.47,13.12,35.23c1.36,3.64-4.73,1.56-8.42,1.8,1.69-.69,3.12-.72,4.21-1.72.52.03,1.08.23,1.56-.05-.04.37.24.47.34.35.22-.25.26-.61.17-.73-.13-.19-.35-.35-.55-.25l-23.81-63.86c-.18-.49-.77-.52-1.15-.73,1.06-.66,1.73-.05,2.14-.56-1.24-1.76-.06-3.34-.72-4.96-.88,1.13.3,2.28-.65,3.27-.61-1.31.34-2.57-.63-3.3l-.92-21.04c-3.54-.35-6.62-.2-9.73-1l3.4-44.4c1.5-19.65,3.11-38.79,3.62-58.13.17-.22.42-.42.63-.37.36.08.68.22.92.38Z"/><path class="h" d="M422.16,207.34c.61,11.43,2.25,22.7,3.94,34.27l2.47,16.91,6.59,45.81c3.54.09,6.53-.63,9.89-.96,1.16-.11,2.52-.74,2.29-2.19-1.44-9.05-1.86-17.69-2.49-26.78l-3.68-52.59c-.31-4.41-.63-8.39-1.21-12.43.36-.09,1.01-.44,1.18-.05.15.36.67.72.69,1.03l3.38,45.38c1.2,16.11,1.52,31.83,4.03,47.99l-6.56,1.9,2.43,10.58c.12.53-.34,1.49.49,1.6.14.44-.06,1.16.11,1.56-.35-.07-.55-.73-.95-.96-.24-.14-.43.91-.67.94l-3.72-13.59c-2.26-.42-4.28.48-6.67.35l-9.13-64.37c-1.64-11.59-3.56-22.6-3.88-33.98.08-.35.31-.78.58-.7l.88.26Z"/><path class="j" d="M573.42,266.53c-2.46,7.58-6.12,14.68-9.78,22.33.87,1.37,2.57,1.18,3.93,2.15l-2.61,6.37-15-.96c-.18-.01-.37-.02-.55.01-.42-.62-1.25-.49-1.92-.53.95-1.81,1.3-3.91,2.45-5.6.75.2,2.58.73,3.47.28,5.18-9.39,8.53-19.24,11.76-29.51,3.23,1.89,6.22,3.14,8.25,5.45Z"/><path class="j" d="M592.54,278.46c-1.83,5.34-5.08,10.03-8.43,14.82-2.3,3.29,2.98,1.56,2.64,4.33-.83,1.32-1.71,2.68-2.97,3.63-.86.2-1.77,0-2.79-.28-4.15-1.16-8.22-1.81-12.47-2.67-.82-.17-1.44-.52-1.57-1.16l2.67-5.33,3.79.69,9.85-19.73c3.42.98,6.6,3.33,9.28,5.69Z"/><path class="h" d="M225.35,263.39c0,.3.02.61.04.91-.27-.13-.51-.08-.74.05s-.34.34-.27.77c.03.21.43.36.75.29.19-.04.37-.26.31-.55l3.03,21.91,8.33,63.77c2.27,17.34,4.71,34.05,7.49,50.9l-2.08-.04c-3.4-15.98-5.19-32.2-7.23-48.78l-5.62-45.81-5.95-43.49c.52-.21.98-.5,1.28-1.05.39.58.42.91.67,1.12Z"/><path class="h" d="M400.96,206.29c-.6.63-.16,1.4-.04,2.13-.76.02-.98.78-1.04,1.44-.59-.86-.6-1.97-1.02-3.26-.74-1.06-13.41.37-14.11.54-1.87.47-3.76-.33-5.86.74,1.96,5.3,3.27,10.52,4.15,16.1,1.23,7.75,3.16,14.99,4.9,22.61l5.44,23.68,10.3,42.47c3.73-.51,7.26-1.49,10.95-2.33,3.31-.75,1.48-4.37.78-8.21.46.41,1.09.48,1.57.07.45,2.66,1.66,5.25,1.64,8.36-1.77.81-3.69.94-5.9,1.68l7.92,25.23-1.51,2.04-8.59-26.77-8.29,1.49-5.86-24-9.34-41.03c-1.94-8.53-4.03-16.54-5.5-25.11-.96-5.58-1.93-10.89-3.91-15.93,1-1.77,2.64-1.42,4.62-1.61l6.18-.58c4.3-.4,8.52-.85,12.51.22Z"/><path class="j" d="M604.95,286.11c2.09,2.21,4.88,3.44,7.86,5.55-4.61,4.97-8.75,10.39-12.73,16.01-5.02-1.81-9.23-3.96-13.86-4.9-.36-1.58.83-2.37,2.17-4.55,1.01-.23,2,.18,3.28.84,3.82-4.52,6.65-9.55,9.92-14.51,1.14.83,2.41,1.22,3.36,1.56Z"/><path class="j" d="M559.74,314.54l-12.87,2.26c-6.13-5.07-10.91-10.95-16.05-17.53,4.54-.73,9.31-1.24,14.39-1.12l6.08,7.41,8.45,8.99Z"/><path class="e" d="M124.75,258.3c-.25.16-.53.31-.76.41-.62.24-.35.97.22.97-4.62,1.27-9.43,1.73-14.36,2.81-7.84,1.72-15.53,2.71-23.56,3.28-4.28.31-8.25.79-12.55,1.93.18,2.86.65,5.49,1.46,8.41,8.5-2.14,16.3-3.71,24.72-4.79,12.22-1.56,23.95-3.93,35.75-7.34,2.24-.65,4.16-1.27,6.24-1.45.42.13.76.42.97.81-14.36,4.35-28.92,7.53-44.04,9.78-8.54,1.27-16.57,2.6-24.89,4.87-.75-1.89-.75-3.38-1.26-5.27-3.66.29-7.12.63-10.81,1.5l-2.62-1.03c4.1-1.35,8.47-1.5,12.96-2.7.3-1.31-.26-2.46-.19-3.85,11.98-2.65,22.84-2.8,35.24-5.09,6-1.11,11.66-3.06,17.48-3.26Z"/><path class="h" d="M503.75,227c-.61.03-1.23-.14-2.13.06.62,10.28.2,20.19-.65,30.58l-2.78,33.99c3.3.78,6.38,1.18,9.69.86,2.47-20.73,7.07-38.92,9.4-58.76.26.24.84.36,1.09.65.24.93.08,1.92-.12,3.1l-6.41,37.2-2.73,19.42c-1.85.3-3.45-.18-5.44-.08l-1.41,8.25c-.95-.33-.46-1.58-1.15-2.15-1.03-2.06.67-4.19.46-6.52l-5.25-.6,2.41-26.53c1.2-13.17,1.86-26.01,1.77-38.96,0-.52-.16-1.2.31-1.5,1.23.65,2.24.31,2.95,1.01Z"/><path class="j" d="M548.87,298.05c5.41.55,10.98-.2,16.14,1.55,2.24,5.28,6.1,9.47,9.5,14.7-4.25-.41-8.67.58-12.42-.23-3.38-2.87-6.66-6.12-9.3-9.53l-4.33-5.61c-.85-.5-.53-.97.41-.89Z"/><path class="h" d="M462.72,223.34c-.05,1.68.29,3.24.37,5.25l2.36,64.75c.27,7.41.65,14.3,1.48,21.31-.2.08-.86.21-.99-.03-.27-1.45.34-2.85-.44-4.1-.35,1.42-.04,2.83-.74,3.69-1.01-7.34-1.23-14.6-1.52-22.4l-2.23-60.09c-.14-3.65-.19-6.76-.37-10.06,2.05-1.46.41,8.5,1.27,10.04.83-.07-.39-9.18.82-8.35Z"/><path class="j" d="M582.74,302.72l8.87,13.53-14.24-1.63c-3.56-4.93-7.25-9.65-10.22-14.82,5.29.11,10.38,1.94,15.58,2.91Z"/><path class="h" d="M187.59,277.38l-7.79,54.09c-1.64,11.4-3.71,22.28-6.89,32.99-.35-.29-.65-.62-.91-.99,2.58-10.72,4.81-21.33,6.42-32.56l8.15-57.04c-.89-.56-1.51-.51-2.12-.48.45-.14.74-.95,1.33-.77,1.95.58,2.03,3.3,1.81,4.76Z"/><path class="h" d="M250.49,415.44c-.23-.02-.44-.21-.92-.42-.32-.15-.27.61-.27,1,0,.54.65.6,1.01.29.14-.12.3-.2.55-.33l22.31,44.09c-.02.41.05.91.49,1.06-.06.16.04.36,0,.52-1.08.91,1.83,2-.22,3.72l-8.54-17.21-17.11-33.76c1.78-1.9-.96-3.58-.02-4.21,1.03,1.67,2.23,3.32,2.72,5.25Z"/><path class="f" d="M588.74,296.17c-.49-.13-.78-.04-.96-.12-.74-.82-1.63-1.1-2.32-2.19,3.1-4.85,6.16-9.31,8.52-14.85l6.54,4.55c-1.17,2.52-8.06,13.11-9.48,13.46-.77.19-1.48-.48-2.29-.85Z"/><path class="h" d="M482.95,219.79c-1.72.09-2.72-1.44-5.12-1.6.36,10.85.37,21-.26,31.66l-1.94,32.72-.99-1.09c.26-1.43-.43-3.11-.01-4.61,1.22-1.26.32-3.15.38-4.72l1.21-30.07.72-23.4c.05-1.67,6.51.02,6.02,1.11Z"/><path class="i" d="M564.96,297.39c.67.04,1.36,0,2-.26.14.64.76.99,1.57,1.16,4.24.86,8.31,1.51,12.47,2.67,1.03.29,1.93.48,2.79.28-.49.37-.91.89-1.05,1.48-5.21-.97-10.3-2.8-15.58-2.91-.6-.01-1.57-.07-2.14-.2-5.16-1.75-10.74-1.01-16.14-1.55.21-.63.64-1.14,1.09-1.63l15,.96Z"/><path class="h" d="M66.62,233.28c.22-.39.78-.94.19-1.83l-25.12,9.5c-.71-.01-1.58.19-2.08-.42l26.07-10.18c2.59-.99,4.49-1.92,6.08-3.93-.25,1.83-2.24,2.79-3.92,3.91-.11,1.3-.77,2.33-1.22,2.95Z"/><path class="h" d="M238.41,467.87c1.16,1.22,2.63-.08,4.15.9-3.13.26-6.2.24-9.34.01,1.26-.86,2.46.05,3.11-.9h2.08Z"/><path class="h" d="M72.9,231c-3.51-.57-2.74,3.49-5.21,4.8.15-1.12,2.26-6.46,5.27-5.37.2.07-.07.21-.06.57Z"/><path class="h" d="M256.06,467.36c-.02.61.54.61.52,0l.6.09c1.04,1.42-4.78,1.19-4.79.41,1.26.1,2.43-.51,3.67-.51Z"/><path class="h" d="M242.56,406.11c-.06-1.26-.67-2.43-.46-3.71.88-.77,1.57,2.74,1.28,3.16-.15.22-.5.55-.82.55Z"/><path class="h" d="M337.06,396.67c-1.05.33-1.77,1.27-3.12,1.17-.37-.08-.79.11-1.07-.43,1.08.11,4.41-1.89,4.19-.74Z"/><path class="h" d="M180.33,273.71c-1.56.13-3.46-.33-5.13.15-.1,1.11-.64,2.69-1.13,3.52.17-.87-.55-2.63.2-3.46,1.67-1.19,4.44-1.08,6.05-.2Z"/><path class="h" d="M486.43,287.81c-.05.33-.17.69-.16,1.02-.35.31-.8.42-1.25.49.07-.49-.02-1.03,0-1.53l1.4.02Z"/><path class="h" d="M263.85,466.84c.1.36.43.37,1.04.81-.8.39-2.69.62-2.77-.61.54-.12,1.18-.25,1.73-.2Z"/><path class="h" d="M273.18,468.19c-.86.26-1.8.48-3.16.04.74-.63,1.62-.51,3.16-.04Z"/><path class="h" d="M500.08,302.84v-1.1c.19-.15.36-.33.52-.52.16-.18.34-.36.52-.52.09.52.17,1.08-.02,1.71-.13.44-.63.31-1.02.43Z"/><path class="h" d="M245.07,403.68c-.3.1-.62.47-.77.27-.25-.32-.27-1.01-.17-1.24.07-.17.34-.34.57-.29.18.41.49.76.37,1.26Z"/><path class="h" d="M326.65,397.47c-.05-.18.12-.53.01-.68.06-.23-.11-.58.02-.88.15-.36.53-.15.5.08-.06.36.05.61.39.88.5.39,0,1-.37.87-.15-.05-.3-.15-.55-.27Z"/><path class="h" d="M267.47,468.7c-.7.37-1.5.41-2.6,0,.53-.49,1.24-.45,2.6,0Z"/><path class="h" d="M74.9,229.51c-.23.12-.41.66-.78.55-.55-.17-.22-.78-.39-.97.36.11,1.12-.08,1.17.43Z"/><path class="h" d="M270.68,466.4c-.04.34-.11.75-.42.92-.23.13-.48.04-.63-.2-.09-.16-.15-.39-.21-.63l1.25-.09Z"/><path class="h" d="M245.78,410.77c-.53-.07-.71-.6-.61-1.08.23.09.71.02.94.36.15.22-.17.52-.33.71Z"/><path class="h" d="M333.48,395.79c.2.31.06.72-.35.95-.28.16-.56-.44-.81-.48-.07-.58.79-.41,1.16-.46Z"/><path class="h" d="M334.98,395.17c0,.3.18.82-.26,1.06-.26.14-.69-.2-.76-.5.1-.55.65-.45,1.03-.56Z"/><path class="i" d="M549.42,296.44c-.38.07-.75.08-1.28.14-.36.04-1,.02-.64-.66.67.03,1.5-.09,1.92.53Z"/><path class="h" d="M250.87,470.02c-1.19-.11-1.63.13-2.19-.22.67-.59,2.09-.72,2.19.22Z"/><path class="h" d="M398.85,421.2c-.67-.4-1.3-.87-1.59-1.62.84.26,1.45.63,1.59,1.62Z"/><path class="e" d="M147.01,263.88c-.61-.12-.83-.73-1.04-1.25.4.03.91.04.96.47l.08.78Z"/><path class="h" d="M67.66,236.32c-.12.26-.29.73-.64.54-.45-.17-.36-.54-.15-.54.31,0,.71-.03.8,0Z"/><path class="j" d="M71.76,226.42c-1.59,2.01-3.49,2.94-6.08,3.93l-26.07,10.18-6.92,1.95c3.17-4.08,7-7.01,11.59-9.39l22.46-11.1,16-8.05c-3.88,4.36-7.58,8.2-10.97,12.49Z"/><circle class="j" cx="276.57" cy="466.59" r=".26"/><path class="m" d="M156.91,198.33c.4-.93,1.37-1.4,1.49-2.78l-17.57-13.22c-8.52-6.41-17.13-12.34-26.44-17.04-.24-.12-.34-.53-.59-.63-.29-.11-.65-.04-.95-.12-3.4-8.58-22.4-16.33-31.18-20.61-8.22-4.01-16.17-7.9-23.17-13.73-7.94-6.61-11.83-16.34-11.09-26.28.08-1.07.09-2.51,1.34-3.2l28.66,19.82,37.1,25.19c7.72,5.24,14.71,10.68,22.06,16.71,1.68-.89,2.2-2.2,3.56-3.67l9.14,5.97c.51,6.64,2.57,12.61,6.21,18.08l8.09,12.16c2.63,3.96,4.56,8.31,4.52,13.06l-11.16-9.7Z"/><path class="m" d="M105.49,21.5c-.02.49.54.49.52,0h1.04c16.84.07,32.84,8.32,47.25,16.44,17.18,9.68,23.45,16.73,37.04,30,1.49,3.22,5.34,4.91,3.4,7.94l-11.5,14.96c-.45.59-1.88-.71-2.39-1.17l-11-9.9c.91-1.48,2.03-2.32,2.63-4.04-25.91-18.62-51.95-36.1-79.68-52.88,3.38-.94,6.82-1.09,10.09-1.07.85,0,1.21.08,1.56-.26h1.04Z"/><path class="m" d="M54.59,84.69c1.04-.99,1.44-2.4,2.2-3.17l5.74-5.45c8.18,7.36,16.55,13.64,25.75,19.57,13.02,8.38,25.52,16.66,37.95,25.92,9.42,7.02,18.06,14.38,26.18,22.88-1.46,6.15-2.34,11.72-3.08,17.94-3.07-1.7-5.39-3.34-7.7-5.42.67-1.29,1.6-1.85,1.98-3.33-17.32-15.92-35.98-29.64-55.67-42.39-7.44-4.82-14.58-9.08-21.72-14.23-4.45-3.22-8.38-6.76-12.69-10.26-.63-.51.85-1.88,1.05-2.06Z"/><path class="j" d="M157.86,95.7c.72-.19,1.27-1.34,1.58-2.2l-60.05-43.61c-6.27-4.55-12.24-8.6-17.86-13.45-2.32-2-.08-9.83,2.29-10.8,8.78,8.15,17.59,15.27,27.23,21.79l24.15,16.33c10.2,6.9,20.18,13.47,29.91,21.1l3.41-3.62c4.43,3.92,8.4,7.81,13.38,11.68l-10.75,14.59c-4.42-2.93-7.88-6.38-11.86-9.57-.88-.57-1.61-1.3-1.43-2.24Z"/><path class="l" d="M48.8,98.21l.06-1.04c.29-.48.5-1.01.64-1.56-.01-.17.06-.36.03-.53.95-.88.75-2.35,1.22-3.5.25-.62.79-1.5.81-2.14,0-.43.98-1.66,1.49-1.24,9.6,8.02,19.46,14.78,29.99,21.55,17.33,11.15,33.8,22.75,49.43,36.12,3.33,2.85,6.46,5.1,9.49,8.34l-5.32,5.99-13.94-10.74-32.04-21.84-29.55-19.87-10.58-7.59c-.83-.6-1.81-.88-1.75-1.95Z"/><path class="j" d="M84.19,80.16c7.03,5.43,14.57,9.92,22.38,14.87,12.86,8.14,24.97,16.99,37.27,25.86,1.17-.44,1.8-1.54,2.13-2.42.2-.1,1.04-1.23,1.46-.9l11.89,9.18-6.16,15.38c-19.8-19.39-41.11-33.41-64.08-48.23-8.98-5.79-17.32-11.65-25.24-19.04l6.57-6.15c4.28,4.56,9.16,7.87,13.78,11.44Z"/><path class="j" d="M150.49,101.1c.45.28,1.23,1.31,1.79.78l4.05-3.83c4.55,3.86,8.87,7.52,13.73,11.18-3.36,5.31-6.86,10.07-9.86,15.64l-10.01-7.49c-.66-.72-1.34-1.3-1.65-2.06.65-.8,1.52-1.45,2.14-2.78-20.25-15.31-40.64-30.22-62.01-43.55-3.63-3.13-8.18-5.53-12.03-9.22l2.49-8.33,21.01,15.86c16.28,12.29,33.2,23.13,50.34,33.81Z"/><path class="f" d="M155.4,96.82c-.87.92-2.18,1.57-2.7,2.84l-.5.06c-.35.07-.71.12-1.06.15-20.02-12.73-40.01-25.45-58.81-40.22l-10.84-8.52c-.91-.72-1.99-1.17-2.34-2.23,0-1.29.36-2.67.09-3.95,1.69-.21.16-5.32,1.35-7.82,4.12,4.17,8.34,7.06,12.89,10.29l32.77,23.26,31.2,23.02c-.64,1.22-1.25,2.3-2.04,3.13Z"/><path class="j" d="M161.51,177.6l4.93,6.11c10.26,12.73,19.09,16.13,29.02,28.67,3.12,3.95,3.96,8.56,1.69,13.36-2.39,5.06-6.35,10.13-11.26,12.53-.06-.48,0-.95-.01-1.43,0-.33.12-1.07-.35-1.08-1.12-8.11-9.26-18.69-15.11-24.97.2-5.89-1.35-10.97-4.48-15.8l-8.55-13.18c-3.01-4.64-4.96-9.75-4.89-15.22l9.01,11.01Z"/><path class="g" d="M164.72,82.78c-7.07-5.37-13.72-10.18-21.02-14.96-15.86-10.4-35.61-23.1-49.88-35.23-2.88-2.45-5.89-4.32-8.29-7.64,5.28-3.26,7.25-.87,13.5,3.01,20.82,12.92,41,26.37,60.96,40.61,3.63,2.59,7,4.45,10.5,7.56-1.73,2.24-3.18,4.41-5.76,6.65Z"/><path class="d" d="M77.97,62.45c.18.11.3.33.49.42.43.83,4.84,3.83,5.78,4.19.13.16.31.35.49.47,21.38,14.7,43.04,28.99,63.87,45.3-1.44,2.23-3,4.14-4.85,6.25-12.51-9.36-25.09-18.02-38.24-26.49l-21.88-14.09-.48-.49c-.35-.89-1.05-1.68-2.05-1.66-.13-.16-.41-.26-.49-.43-.5-1.09-1.56-1.71-2.64-2.16l-.48-.46c-1.15-1.12-2.14-2.56-3.69-3.15l-2.05-2.59c.87-1.1,2.08-2.98,2.59-4.1.25-.56,1.01-1.7,1.46-2.05.81-.03,1.45,1.22,2.17,1.05Z"/><path class="j" d="M151.2,200.45c.42.29.53.88,1.15,1.04.42.1.49.8,1.06.45.52-.32.72-.67.96-1.08.21-.36.64-.59.93-.88,4.87,2.9,8.88,7.22,12.98,11.35-.66,3.86-1.51,7.33-3.9,10.39l-14.18-8.76c-5.37-3.32-9.91-7.28-15.01-10.97l-20.2-14.6c-.96-.69-2.31-1.5-2.57-2.71-.19-.87.58-2.07.73-2.81.08-.42.44-1.19.65-1.56.47-.81.59-2.46,1.46-3.61l16.55,10.38c6.82,4.28,12.97,8.96,19.39,13.37Z"/><path class="j" d="M163.36,223.33c-2.61,3.25-5.04,6.12-8.22,9.21-11.46-11.07-23.52-20.81-35.97-30.59-4.22-3.32-8.32-6.03-12.25-9.69l3.9-5.49,8.93,6.69,24.59,17.43c4.59,3.26,9.18,5.98,13.9,8.94,1.76.96,3.17,1.81,5.12,3.5Z"/><path class="j" d="M191.28,115.87c-.16-2.92-1.48-5.64-2.4-8.62l-4.34-14.13,11.86-16.72c6.29,7.05,8.29,17.55,8.1,27.2l-12.5,13.27-.71-1Z"/><path class="j" d="M184.05,237.31c1.89,5.55-12.76,10.16-16.69,10.47-.25-1.1-.2-1.9,0-2.7.77-3.15.34-6.15-.09-9.31-.18-4.24-.42-8.29-1.39-12.37,1.81-3.17,3.15-6.18,4.13-10.07,5.62,5.58,13.03,16.44,14.04,23.97Z"/><path class="j" d="M189.93,118.52c.03,2.5-6.12,7.47-7.2,10.28-1.15.71-1.97,1.87-2.53,3.09-1.27-.65-.96-2.35-1.34-3.81l-6.16-19.01,10.47-14.19c3.01,7.86,5.15,15.7,6.76,23.64Z"/><path class="j" d="M169.78,146.28c-2.45-6.96-4.85-13.38-7.89-19.84,2.95-5.27,5.88-9.88,9.59-14.76,3.25,7.7,5,15.16,6.69,22.76l-8.38,11.83Z"/><path class="m" d="M165.74,238.35c-.27,3.29.65,7-1.42,9.65-2.81,1.53-15.16,2.66-18.4,1.44.69-4.73,4.04-6.72,5.28-9.89l13.35-13.78,1.19,12.58Z"/><path class="j" d="M167.32,152.18c-.34.21-.3.78-.58,1-.7.55-.36,1.32-.63,1.7-1.55,2.19-1.5,4.38-3.14,7.03.07-1.63-1.04-2.47-1.34-3.43-1.66-5.29-4.37-9.67-6.71-14.35,1.73-5.25,3.57-10.07,5.97-14.95,3.3,6.72,5.65,13.1,7.28,20.02.24,1.07-.94,2.08-.84,2.99Z"/><path class="h" d="M81.52,36.44c5.62,4.84,11.59,8.9,17.86,13.45l60.05,43.61c-.31.86-.86,2.01-1.58,2.2-.94.13-1.71.43-2.46,1.12.79-.83,1.4-1.91,2.04-3.13l-31.2-23.02-32.77-23.26c-4.55-3.23-8.77-6.12-12.89-10.29-1.19,2.49.35,7.61-1.35,7.82.3-2.75.38-5.47.26-8.49.95-.38,1.71.81,2.02,0Z"/><path class="j" d="M160.85,160.44c.71,1.19.63,3.09,1.7,4.23l.16,2.16-.06,1.96c-.06,1.92-.46,3.99.46,5.74-.03.8.3,1.52-.14,2.66-.29-.49-.63-.78-.89-1.13-3.1-4.22-6.07-8.56-9.99-12.42-.08-5.67.69-10.93,1.98-16.26,3.24,4.33,4.37,8.98,6.79,13.07Z"/><path class="h" d="M151.14,99.86c-.33.35-.55.77-.65,1.24-17.14-10.68-34.06-21.52-50.34-33.81l-21.01-15.86v-2.54c.37,1.06,1.44,1.51,2.35,2.23l10.84,8.52c18.8,14.77,38.78,27.49,58.81,40.22Z"/><path class="e" d="M88.68,68.98c21.37,13.33,41.76,28.24,62.01,43.55-.63,1.33-1.49,1.97-2.14,2.78-1.69.02-2.07,1.79-2.57,3.16-.32.88-.95,1.98-2.13,2.42-12.29-8.87-24.41-17.72-37.27-25.86-7.81-4.95-15.35-9.44-22.38-14.87.22-.02.56-.19.49-.47-.69-.38-.86-.79-1.06-1.18l21.88,14.09c13.15,8.47,25.73,17.12,38.24,26.49,1.85-2.12,3.42-4.03,4.85-6.25-20.83-16.32-42.49-30.6-63.87-45.3,1.88.32,1.55,1.72,3.95,1.45Z"/><path class="h" d="M156.91,198.33c-.36,0-.81-.04-1.08.19-.43.36-.46.96-.54,1.46-.29.29-.71.52-.93.88-.3-.34-.75-.58-1.22-.3-.31.18-.55.6-.79.93-.62-.15-.73-.75-1.15-1.04v-1.01c.68.26,1.44.75,2.23.39.29-.13,2.66-2.87,2.75-3.33.46-2.2-30.33-23.12-34.55-25.56l-7.16-4.14c0-.26-.36-.56-.45-.94-.05-.2-.07-.5.36-.57,9.31,4.7,17.92,10.63,26.44,17.04l17.57,13.22c-.12,1.37-1.1,1.85-1.49,2.78Z"/><path class="h" d="M113.8,164.67c0,.86-1.22.75-.95-.12.3.08.66.01.95.12Z"/><path class="e" d="M77.97,62.45c-.72.18-1.36-1.08-2.17-1.05-.45.35-1.21,1.5-1.46,2.05-.06-.87.53-2.7,1.37-2.85,1-.11,2.01,1.15,2.27,1.84Z"/><path class="e" d="M77.49,73.3c-1.31-.93-2.68-1.88-3.69-3.15,1.54.6,2.54,2.04,3.69,3.15Z"/><path class="e" d="M80.6,75.92c-1.14-.28-1.83-1.37-2.64-2.16,1.08.45,2.14,1.06,2.64,2.16Z"/><path class="i" d="M104.45,21.5c-.35.34-.71.27-1.56.26.2-.63,1.07-.29,1.56-.26Z"/><path class="e" d="M83.15,78.02c-.72-.52-1.5-.96-2.05-1.66,1-.02,1.71.77,2.05,1.66Z"/><path class="h" d="M185.87,236.84c-.51-.13-.3-.71-.35-1.08.47,0,.34.75.35,1.08Z"/><path class="e" d="M84.24,67.06c-.93-.36-5.35-3.36-5.78-4.19,2.1,1.04,4.29,2.37,5.78,4.19Z"/><path class="h" d="M152.2,99.71l.5-.06c-.05.56-.38.66-.5.06Z"/><path class="i" d="M105.49,21.5c.29,0,.45,0,.52,0,.02.49-.54.49-.52,0Z"/><path class="j" d="M392.49,363.17c-9.55,7.15-19.2,13.29-29.64,19.58-6-11.5-10.6-22.89-15.01-34.83-13.24-35.9-24.87-71.99-35.44-108.73l-3.64-14.92,23.69-7.41c5.14,19.15,11.02,37.27,17.14,55.86l17.32,52.58,9.14-1.91,16.43,39.79Z"/><path class="l" d="M382.78,319.3c-1.61,1.39-13.21,4.8-14.95,4.26l-17.25-52.5-11.37-35.47c-2.03-6.33-3.98-12.31-5.44-19.1,5.6-2,11.12-3.35,16.79-4.63,1.83-.41,3.22.31,3.76,2.13,2.38,6.89,3.63,13.83,5.5,20.94l9.73,36.92c4.23,16.03,8.06,31.71,13.23,47.45Z"/><path class="e" d="M402.99,205.69c-.15.04-.38-.07-.52,0-.06-.58.43-.53.79-.54.29,0,.89.08.69.35-.31.42-.72.15-.95.19Z"/><path class="d" d="M343.23,37.21c-4.36,5.17-12.23,6.47-16.79.97-3.97-4.79-1.66-12.97,4.01-15.41,4.34-1.87,9.5-.74,12.79,2.21,3.81,3.42,3.24,8.39-.01,12.23ZM333.04,29.99c-1.33.99-.9,2.61-.33,3.35.79,1.02,2.08.88,2.81.5,1.23-.64,1.19-2.36.7-3.17-.6-.99-2.11-1.48-3.18-.68Z"/><path class="g" d="M276.85,17.65c-3.41-2.32-3.94-13.25,2.66-15.92,3.61-1.46,7.44.23,9.9,2.76s3.69,6.89,1.5,10.33c-2.72,4.27-9.72,5.76-14.06,2.82ZM284.26,12.39c1.22-.46,1.08-2.21.78-3.04-.24-.68-1.2-1.51-2.32-1.19-1.34.39-1.57,1.86-1.11,2.96.33.78,1.21,1.8,2.65,1.26Z"/><path class="j" d="M621.54,299.21c-2.81,2.33-6.02,4.78-8.54,7.58.27.84,1.31,1.5,1.27,2-.04.61-.63,1.57-1.13,1.98l-2.25,1.84c-3.07-1.57-6.1-2.38-8.9-4.5,3.88-5.46,7.62-10.24,12-15.2,2.7,1.94,5.78,3.59,7.54,6.29Z"/><path class="j" d="M635.09,310.96l-7.37,4.32c-.33.68.91,1.73.81,2.21-.15.78-1.4,1.01-1.71,1.69-1.29.36-2.52.15-3.87-.52l-10.18-5.04c.34-.53.61-1.2.98-1.5l2.6-2.08,2.69,1.74c2.06-1.19,8.33-5.33,9.17-6.82,1.9,2.09,5.31,3.45,6.86,5.99Z"/><path class="j" d="M641.31,316.32c.61.49,4.15,3.17,3.18,3.94-2.31.81-4.36,2.32-6.26,3.81-2.85,2.23-6.93-2.11-11.02-3.31.15-.83.83-.95,1.15-1.38,1.41-.89,2.97-.3,4.2,1.15l8.75-4.21Z"/><path class="l" d="M627.73,304.43l-8.7,5.68c-1.65-.78-2.96-1.9-4.34-3.3,1.51-1.99,6.93-5.2,7.42-7.04.93-.85,5.97,4.07,5.62,4.66Z"/><path class="j" d="M628.67,327.73l-10.92-4.05c-1.59-2.89-3.27-5.36-4.5-8.43,3.72,2.09,7.24,3.82,11.16,5.51l4.25,6.96Z"/><path class="j" d="M650.12,325.11c-1.23.5-2.44,1.15-3.67,2.23.18.95.87,1.41,1.23,2.46-1.17,2.01-9.32-3.73-9.37-3.91-.09-.31.3-.62.33-.92,2.54-1.07,5.06-2.36,7.25-4.03,1.67.99,3.5,2.34,4.22,4.17Z"/><path class="j" d="M615,322.43c-11.06-2.36-5.33-2.9-10.25-7.96-1.02-1.05-1.81-2.36-1.83-4.08,2.25,1.45,5.5,1.87,7.26,3.82l4.82,8.22Z"/><path class="j" d="M659.51,334.51c-1.27.37-2.49,1.21-2.61,2.59-.7.86-8.29-4.72-9.28-5.43-.35-.25.53-.93.57-1.02,2.2,1.35,4.59.56,6.14-1.39.54-.62,6.43,5.09,5.18,5.26Z"/><path class="e" d="M622.11,299.77c-.49,1.84-5.91,5.05-7.42,7.04,1.37,1.4,2.68,2.52,4.34,3.3l8.7-5.68.49.54c-.84,1.49-7.11,5.63-9.17,6.82l-2.69-1.74-2.6,2.08c-.46-.3-.82-.79-.61-1.35.5-.41,1.09-1.38,1.13-1.98.03-.49-1-1.16-1.27-2,2.51-2.8,5.73-5.25,8.54-7.58.14.21.44.32.57.56Z"/><path class="d" d="M640.15,315.35c-2.21,1.06-4.38,2.18-6.72,3.64-1.73-.57-3.03-1.74-4.17-3.12l6.82-4.29c1.62.79,3.14,2.24,4.07,3.76Z"/><path class="e" d="M635.09,310.96c.43.02.66.46.99.62l-6.82,4.29c1.14,1.38,2.44,2.55,4.17,3.12,2.34-1.46,4.51-2.58,6.72-3.64.51.09.81.69,1.16.97l-8.75,4.21c-1.23-1.45-2.79-2.04-4.2-1.15l-1.54-.2c.3-.68,1.55-.91,1.71-1.69.09-.48-1.14-1.53-.81-2.21l7.37-4.32Z"/><path class="j" d="M637.45,331.36c-5.77-1.1-6.16-3.3-9.7-8.73,2.74,1,5.3,2.34,7.87,3.93.81,1.25,1.1,2.83,1.83,4.8Z"/><path class="j" d="M677.03,351.92l-12.11-8.25c.35-.82,2.41-1.94,3.11-1.27,3.18,3.08,6.21,5.9,8.99,9.52Z"/><path class="j" d="M646.33,335.85c-3.1-1.56-8.26-2.85-8.68-8.12,5.21,2.4,6.63,2.27,8.68,8.12Z"/><path class="h" d="M652.76,326.28c-1.3-.52-3.61.08-3.56,1.86.04,1.51,1.95,1.87,3.1,1.51.96-.31,1.44-1.33,1.39-2.46.94.55.68,1.42.64,2.06-1.55,1.96-3.94,2.75-6.14,1.39,0-.56-.27-.8-.5-.85-.36-1.05-1.05-1.52-1.23-2.46,1.23-1.08,2.44-1.73,3.67-2.23,1.24.23,2.16.39,2.64,1.18Z"/><path class="j" d="M656.65,341.1c-2.65-1.73-9.3-3.02-8.91-7.27,1.89.93,8.82,4.83,8.91,7.27Z"/><path class="f" d="M652.76,326.28c.32.53.64.73.93.9.05,1.13-.43,2.15-1.39,2.46-1.14.36-3.05,0-3.1-1.51-.05-1.78,2.25-2.38,3.56-1.86Z"/><path class="e" d="M659.91,334.99c-1.02.77-1.23,2.22-.1,2.98.84.57,2.3.76,2.73-.35.76.07.98.45.98.84-1.05.8-2.2,1.49-3.51,1.7-1.26-1.09-2.43-1.86-3.1-3.06.12-1.39,1.35-2.22,2.61-2.59.23.23.34.37.4.48Z"/><path class="j" d="M663.51,338.46c1.19.15,2.16.8,2.77,2.34-1.09.22-2.03,1.36-3.15,1.21-1.22-.16-2.34-1.15-3.14-1.84,1.32-.21,2.46-.91,3.51-1.7Z"/><path class="h" d="M644.49,320.26c.59-.2,1.01.45,1.4.68-2.19,1.66-4.72,2.95-7.25,4.03.02-.32-.3-.63-.42-.89,1.91-1.49,3.96-3.01,6.26-3.81Z"/><path class="l" d="M662.53,337.62c-.43,1.11-1.89.92-2.73.35-1.12-.76-.92-2.21.1-2.98,1.71.27,2.6,1.3,2.62,2.63Z"/><path class="j" d="M595.61,317.33c-1.75-.27-8.01-10.99-8.96-12.9,1.34-.4,11.27,3.74,12.56,4.68,1.74,1.25,2.17,4.03,3.58,5.71s2.5,3.27,3.11,4.94c-3.83-.92-6.99-1.92-10.29-2.43Z"/><path class="d" d="M268.03,372.57c-2.99-6.31-5-12.45-6.73-19.04l-9.61-36.56-11.74-46.98-3.61-12.82,12.53-6.25c1.07.33,1.78,1.89,2.21,2.95,3.52,8.75,5.94,17.43,8.24,26.6,3.35,13.33,7.61,25.81,11.93,38.89,5.38,16.28,10.46,32.21,13.96,49.1-5.41,2.73-10.76,3.62-17.19,4.1Z"/><path class="l" d="M144.36,246.73l-.05,1.49c-.78.38-1.01,1.31-1.36,2.49-3.63.2-16.95-1.61-20.34-2.39-14.7-3.4-28.98-7.36-43.39-12.18.55-3.2,1.91-5.33,3.55-7.95,11.73,4.87,23.34,8.44,35.69,11.16,8.11,1.78,15.74,3.61,23.67,5.97,1,.3,2.13.33,2.23,1.41Z"/><path class="h" d="M163.1,174.54c-.92-1.75-.52-3.82-.46-5.74,1.55-1.57,1.19,6.03.46,5.74Z"/><path class="h" d="M166.11,154.88c.27-.38-.07-1.15.63-1.7.58.07.61.57.32,1.09-.18.32-.44,1.61-.95.61Z"/><path class="h" d="M162.71,166.83l-.16-2.16c.4.43.66.96,1,1.77.13.31-.58.63-.84.39Z"/><path class="g" d="M151.22,199.44c-5.07-4.81-11.07-8.63-17.19-12.5-6.45-4.08-12.49-8.31-18.98-11.87.36-2.77-.67-5.5-.57-8.27l7.16,4.14c4.22,2.44,35,23.36,34.55,25.56-.09.46-2.46,3.19-2.75,3.33-.79.36-1.56-.12-2.22-.39Z"/><path class="h" d="M151.22,199.44v1.01c-6.44-4.42-12.58-9.1-19.4-13.37l-16.55-10.38c-.87,1.14-.99,2.79-1.46,3.61-1.21,1.06,1.27-5.4,1.25-5.23,6.49,3.56,12.53,7.8,18.98,11.87,6.12,3.87,12.12,7.69,17.19,12.5Z"/><path class="h" d="M50.77,91.58c-.48,1.15-.27,2.62-1.22,3.5-.17-1.28-.02-2.88,1.22-3.5Z"/><path class="h" d="M48.87,97.17c-.44-.25-.28-.66-.09-.87.21-.24.52-.55.74-.68-.14.55-.35,1.07-.64,1.56Z"/><path class="f" d="M156.94,270.48c.96.61,2.06.9,3.16,1.13.71.15,1.54.21,2.21,1.14-6.78,10.98-11.94,24.13-18.53,34.54-7.4,11.68-14.59,23.07-21.35,35.15-.58,1.04-2.27,3.15-3.28,2.83l-9.41-5.69c-.77-.46-.84-1.55-.35-2.2l7.81-10.4,13-18.7,24.4-36.25c.44-.65.33-1.41,1.09-1.69.32-.12.88.22,1.24.14Z"/><path class="h" d="M109.11,353.11l-1.01,1.06c-.51-.31-.39-.61-.03-.77.42-.19.7-.25,1.04-.29Z"/><path class="h" d="M156.92,268.5c-.39.08-.48.08-.42.06s.24-.06.42-.06Z"/><path class="g" d="M439.97,209.4c.58,4.04.9,8.02,1.21,12.43l3.68,52.59c.64,9.1,1.06,17.73,2.49,26.78.23,1.45-1.12,2.07-2.29,2.19-3.36.33-6.35,1.05-9.89.96l-6.59-45.81-2.47-16.91c-1.69-11.57-3.33-22.84-3.94-34.27,5.41,1.61,12.16.33,17.81,2.06Z"/><path class="l" d="M503.75,227c.87.88,10.06,3.53,13.53,6.72-2.33,19.84-6.93,38.03-9.4,58.76-3.31.33-6.39-.08-9.69-.86l2.78-33.99c.85-10.39,1.27-20.3.65-30.58.9-.2,1.52-.03,2.13-.06Z"/><path class="h" d="M489.8,231.65c-.17,7.97-.7,15.92-1.11,23.88-1.49,1.2-.78,3.34-1.1,5.21-.46,2.71-.99,12.35-1.09,15.59-.09,2.84-1.33,5.89.2,8.28-.15.22-.05.77-.07,1.04-.38.51-.88.95-1.54.97l.65-10.26.44-6.32.62-8.65,1.04-16.28c.5-7.76.78-16.39.4-23.67,3.06.32.72,6.39,1.56,10.2Z"/><path class="h" d="M485.03,220.3c-.54-.04-1.25.07-1.56-.48.55-.1,1.51-.31,1.56.48Z"/><path class="h" d="M486.58,220.79c-.4.04-.86-.04-1.04-.45.47-.11.75.14,1.04.45Z"/><path class="d" d="M141.91,262.53c-2.08.18-4.01.8-6.24,1.45-11.79,3.41-23.53,5.77-35.75,7.34-8.42,1.08-16.23,2.64-24.72,4.79-.81-2.92-1.28-5.55-1.46-8.41,4.3-1.15,8.27-1.63,12.55-1.93,8.03-.57,15.71-1.56,23.56-3.28,4.94-1.08,9.74-1.54,14.36-2.81.41-.11,1.08-.3,1.49-.26.97.1,1.78-.22,2.69-.43,1.15-.27,2.38-.19,3.54-.37.55-.08,1.43.21,1.7-.45l9.41-1.39c1.06,1.55,1.85,2.98,1.88,4.75-1.32-.16-2.25.94-3.01,1Z"/><path class="e" d="M127.85,257.68c-.08.41-.59.26-1.17.83.64.2,1.33-.11,1.71.46-.91.21-1.73.53-2.69.43l.15-1.15c.52-.64,1.29-.51,2.01-.58Z"/><path class="e" d="M133.63,258.17c-.27.65-1.15.36-1.7.45-.14-.47.47-.77.92-.91.29-.1.58.27.78.47Z"/><path class="e" d="M142.38,255.51l-1.07.37c.18-.41.68-.38,1.07-.37Z"/><path class="d" d="M552.57,289.19c-2.39.29-4.27-.63-6.61-1.78,5.01-10.02,8.22-20.25,10.83-31.58,2.58,1.15,4.66,2.86,7.23,4.4-3.02,9.99-6.3,19.49-11.46,28.96Z"/><path class="g" d="M581.04,270.17c.58.41,1.06,1.36,1.24,2.02-1.95,4.53-4.55,8.74-6.99,13.26-.99,1.84-1.5,3.77-3.18,5.14-1.95-.31-4.24-.72-5.84-2.12-.76-.67.14-2.25.53-2.99,3.17-6.12,6.11-12.05,8.02-18.43,2.68.37,3.67,2.95,6.23,3.12Z"/><path class="h" d="M574.82,267.05c-1.91,6.38-4.85,12.32-8.02,18.43-.38.74-1.29,2.32-.53,2.99,1.6,1.4,3.89,1.81,5.84,2.12,1.68-1.37,2.19-3.3,3.18-5.14,2.44-4.52,5.04-8.73,6.99-13.26.42-.04.66.48.99.58l-9.85,19.73-3.79-.69-2.67,5.33c-.63.26-1.33.3-2,.26l2.61-6.37c-1.36-.97-3.07-.79-3.93-2.15,3.66-7.65,7.32-14.75,9.78-22.33.49.03.92.45,1.39.51Z"/><circle class="e" cx="249.05" cy="249.04" r=".26"/><path class="l" d="M686.64,374.18c-2.64-1.5-4.45-3.3-4.8-5.32-.55-3.26-.2-5.58,1.74-7.64,3.19-3.38,7.43-4.11,11.42-1.57,3.56,2.27,6.03,6.62,4.17,10.99-2.01,4.73-8.17,6.02-12.54,3.54ZM692.15,368.85c1.1-.82.57-2.5-.27-3.16-.59-.46-1.96-.73-2.77-.06-.91.75-.62,2.15-.04,2.85s1.96,1.2,3.07.36Z"/><path class="h" d="M211.51,298.62l-.35,30.12-.56,14.84-.8,25.09-1.46.11-.06-12.01c.91.67.16,1.82.81,3.12.3.23.71-5.96-.68-4.78l1.33-33.67.67-48.3c.27-.3,1.03.1,1.03.61l.06,24.86Z"/><path class="h" d="M286.7,234.79c-.5-.38-1.29-1.13-.53-1.59.77.19.32,1.11.53,1.59Z"/><path class="h" d="M225.39,264.3c.02.18.02.37.04.55.07.29-.12.5-.31.55-.33.08-.72-.08-.75-.29-.07-.42.04-.63.27-.77s.48-.18.74-.05Z"/><path class="h" d="M224.91,467.48c0-.2.03-.43-.04-.63.2-.1.42.06.55.25.09.12.05.49-.17.73-.1.12-.38.02-.34-.35Z"/><path class="h" d="M256.06,467.36h.52c.02.61-.54.61-.52,0Z"/><path class="h" d="M250.49,415.44c.05.19.28.36.37.54-.25.13-.4.2-.55.33-.36.31-1.01.25-1.01-.29,0-.39-.05-1.15.27-1,.48.22.68.4.92.42Z"/><path class="h" d="M273.65,461.13c-.44-.15-.51-.64-.49-1.06.17.34.67.56.49,1.06Z"/><path class="h" d="M416.99,302.29c-.48.42-1.11.34-1.57-.07l-3.06-16.61-6.73-39.99-5.74-35.76c.05-.65.28-1.42,1.04-1.44l2.52,14.92,7.16,41.59,6.38,37.35Z"/><path class="h" d="M445.61,317.83c-.83-.11-.37-1.07-.49-1.6.63.22.33,1.1.49,1.6Z"/><path class="h" d="M125.85,258.26l-.15,1.15c-.41-.04-1.08.15-1.49.26-.57,0-.84-.73-.22-.97.23-.09.52-.24.76-.41l1.1-.04Z"/><path class="h" d="M208.29,356.77c-.02-.56.1-1.11.13-1.66,1.4-1.17.99,5.01.68,4.78-.65-1.31.1-2.45-.81-3.12Z"/><path class="h" d="M208.28,370.34l.05-.63c.67-.07.57.76-.05.63Z"/><path class="h" d="M206.69,374.93h.6c-.09.61-.66.64-.6,0Z"/><path class="h" d="M474.62,276.86c.42-1.52-.58-3.32.38-4.72-.06,1.57.83,3.45-.38,4.72Z"/><path class="h" d="M486.7,284.61c-1.52-2.39-.28-5.44-.2-8.28.1-3.24.63-12.87,1.09-15.59.32-1.87-.4-4.01,1.1-5.21l-.43,8.29-.51,6.24c-.25,3,0,5.82-.64,8.82-.43,1.98.64,4.13-.41,5.72Z"/><path class="h" d="M486.43,287.81l-1.4-.02.06-1.17c.66-.02,1.16-.47,1.54-.97-.05.73-.08,1.45-.2,2.17Z"/><path class="h" d="M500.08,301.74c.13-.21.31-.38.52-.52-.15.19-.33.36-.52.52Z"/><path class="f" d="M273.71,237.92c4.13-1.02,6.96-2.88,10.55-4.62,1.51,2.3,2.58,4.81,3.22,7.54,3.41,14.47,7.9,28.18,12.01,42.51l9.94,34.68,12.47,38.95c.44,1.22-.07,2.32-1.28,2.68l-12.9,3.87c-3.87-10.15-6.59-20.03-9.6-30.17l-4.4-14.83c-1.79-6.02-2.74-12.04-4.85-18-2.74-7.75-4.68-15.37-6.87-23.29l-3.83-13.85c-2.22-8.04-4.05-15.9-6.74-23.72.99-.84,1.77-1.09,2.26-1.75Z"/><path class="d" d="M399.88,209.86l5.74,35.76,6.73,39.99,3.06,16.61c.71,3.84,2.54,7.45-.78,8.21-3.69.84-7.23,1.82-10.95,2.33l-10.3-42.47-5.44-23.68c-1.75-7.62-3.67-14.86-4.9-22.61-.89-5.58-2.2-10.81-4.15-16.1,2.1-1.07,3.99-.28,5.86-.74.69-.17,13.36-1.6,14.11-.54.42,1.29.43,2.4,1.02,3.26Z"/><path class="h" d="M154.37,200.85c-.24.41-.44.76-.96,1.08-.57.35-.64-.35-1.06-.45.24-.33.48-.75.79-.93.48-.28.93-.03,1.22.3Z"/><path class="i" d="M333.04,29.99c1.07-.8,2.58-.31,3.18.68.49.81.54,2.53-.7,3.17-.73.38-2.02.52-2.81-.5-.57-.74-1-2.36.33-3.35Z"/><path class="h" d="M284.26,12.39c-1.44.54-2.32-.48-2.65-1.26-.46-1.1-.23-2.57,1.11-2.96,1.11-.32,2.08.5,2.32,1.19.29.83.43,2.57-.78,3.04Z"/><path class="e" d="M692.15,368.85c-1.12.84-2.5.34-3.07-.36s-.88-2.1.04-2.85c.81-.67,2.18-.4,2.77.06.84.66,1.37,2.33.27,3.16ZM689.82,366.52c-.18.87.31,1.4.69,1.56s1.1-.04,1.16-.36c.13-.71,0-1.26-.36-1.47-.42-.24-1.33-.51-1.49.27Z"/><path class="i" d="M689.82,366.52c.16-.78,1.07-.52,1.49-.27.36.21.49.76.36,1.47-.06.33-.77.53-1.16.36s-.87-.69-.69-1.56Z"/></g></svg>