<?xml version="1.0" encoding="UTF-8"?><svg id="b" xmlns="http://www.w3.org/2000/svg" viewBox="0 0 178.36 231.46"><defs><style>.d{fill:#ffdf44;}.e{fill:#e36b2e;}</style></defs><g id="c"><path class="e" d="M177.97,139.59c.08,2.54-1.22.65-.79-.85.65-.28.65.53.79.85Z"/><path class="e" d="M177.53,142.92c2.15,7.36-11.7,37.8-14.83,31.77,7.49-8.06,3.82-24.93,14.83-31.77Z"/><path class="e" d="M158.15,106.49c-8.85-8.02-22.1-8.85-33.38-9.93,1.06,1.4,4.43,3.28-.57,1.99,8.57,3.74,19.23,5.05,26.71,8.69-1.66,6.37,15.73,8.46,7.24-.75ZM27.57,112.86c-.36,0,2.19-1.48,1.03-1.82-.84-.61-2.28,1.74-1.03,1.82ZM177.65,141.12c-8.2,9.69-9.69,20.45-13.33,33.47-1.7,3.86-.71,4.57-7.89,8.11,8.68,1.27-4.34,9.45-7.59,9.27,4.22.76-3.72,13.41-6.27,10.42-.99,1.26-.71,1.81-2.14.69-.69,0-1.13,2.46-1.91.81-1.31-4.54-.55,1.88-.63,2.08-7.6,4.27-23.46,10.94-26.51,21.36-16.64,2.66-36.39,6.35-51.15-1.66-19.62-5.77,6.06,6.05-14.88.4-17.67-8.44-38.15-22.95-41.89-45.2-2.56-9.23,1.85-18.26,2.69-21-3.89-5.52,1.77-10.95-1.16-16.96,2.23.17.8-5.52,1.76-5.75,1.28-.74,1.96,3.47,2.94-.92,6.01-.86-1.93-2.82-3.43-5.15,4.04-2.76,5.52,2.52,7.54,3.16,3.78-3.64,1.24,1.09,1.83,3.1.84,1.63,2.03-5.04,5.16-2.12,2.31-1.02-4.78-6.07.18-3.56-.73-4.85,3.77-8.25.98-10.37-1.3-.35,2.39-2.44-.38-2.12-.56-.2-.36-.68.18-.94,3.59,3.57.3-7.63,3.76-10.49,5.4-.49.93,6.77,7.3-.54,3.33,2.23,1.39,10.86-2.44,5.41-6.24.9-2.96,4.93-2.07,8.21,4.41-2.17,6.93,4.75-1.97,1.52-2.27.9,3.84,4.82.09,4.96-1.93,5.12,2.13,11.47.32,5.5,3.45-.87,2.49-3.45,2.4-6.01,3.11.74-.52-.77-.74-1.66,11.64-2.94,1.06,1.28,3.32,7.33-.91.89-2.99,1.79-1.68,3.3,3.34-4.38,2.03,3.68-3.52.59-6.16,6.47,4.4,3.27,3.07,7.41-8.48-3.63-3.72,9.02-6,16.32,1.44,9.3-.66,10.53,1.5,19.89,1.03,2.71,4.86,6.03-.76,5.59,1.3.9,5.56,1.86,4.11,4.11-4.83,2.13,2.91.88,3.03,2.4-2.27,4.31-4.76-.37-7.22-2.35-1.94,3.08,3.06,14.8,6.26,9.75-3.11-2.43-3.34-6.1,1.1-4.2,9.47,12.71-6,2.96,3.07,10.87,1.86.72.93-1.15,0-1.48,1.19-2.95,6.22.96,5.97,2.94,4.04-.4,7.18-9.47,4.35,2.64,9.46-1.66,6.19,3.8,1.31-7.51-11.29-7.64-1.71-6.75-12.23-11.16.03-3.97,6.6,3.78,8.82-1.45,3.41,3.79,9.18,7.91,9.03,12.86,27.18,15.06,75.84-3.6,90.47-35.79,5.32-9.29,7.52-20.45,6.72-31.74-.55-2.05,1.3.07,1.93-1.05,2.44-2.6.2-1.28-1.15-1.68-1.05-12.76-7.01-13.71-14.79-18.86-2.01-2.97-5.02.92-7.1.92-1.37-.45,1.03-3.16-2.58-2.87-1.36.02-26.83-2.69-28.55,3.19-.25,1.77-2.42-.36-3.28.21,0,.97-2.13,3.33-4.12,1.74-1.15,1.17.37,5.42-2.49,1.77-1.41,1.05-3.86,1.4-5.36,1.74-.55,3.07,2.46-.91,4.22,1.93-13.16,5.7-10.56-.92-17.55-3.76-3.76-49.11,120.55-40.25,109.35,22.38ZM81.25,114.36c2.84-.15,5.59-1.01,6.84-3.66-2.53.45-6.73.99-6.84,3.66ZM55.96,210.26c.67-.27-.39-1.69-.94-1.06-.51.85.11,1.51.94,1.06ZM51.35,208.18c.79-.1-.72-1.43-.84-.73-.18.67.46.8.84.73ZM49.55,203.1c0-.65-1.01-.65-1,0,0,.65,1,.64,1,0ZM45.06,197.26c.01-.65-1.01-.65-1,0,0,.65,1,.64,1,0ZM44.01,196.3c.36-.34.26-1.64-.1-1.99-1.7-.57-1.98,2.28.1,1.99ZM38.27,205.56c0-.28-.45-.29-.45,0,0,.3.46.29.45,0ZM37.43,192.31c0-.63-1-.64-1,0,0,.64,1,.65,1,0ZM31.92,111.96c-.05,1.21,1.09,1.21,1.03,0-.03-.67-1.01-.67-1.03,0ZM23.46,184.48c.31-.34-.36-.51-.63-.71-.93-.92-.22,1.84.63.71ZM17.13,144.39c.83,1.25,2.55-2.15.11-1.68,0,0-.11,1.68-.11,1.68ZM17.95,141.36c.2-1.22-1.94-1.13-2.09-.32-.21.9,1.77,1,2.09.32ZM14.91,141.82c-1.06-2.88-2.35-4.05-4.5-3.47,2.53,5.01-.36,6.02,4.5,3.47ZM9.31,132.14c.3,0,.29-.46,0-.46-.29,0-.3.46,0,.46ZM9.23,141.36c.52-.58-.49-.84-.85-.73-1.62.48-.33,2.23.85.73ZM7.79,145.16c0-.65-1-.65-1,0-.01.64,1.01.65,1,0Z"/><path class="d" d="M174.69,45.92c5.58,12.64-11.58,27.71-22.84,20.56-12.61-21.86-28.09-39.91-56.17-31.24,46.72-21.95,44.51,50.16,76.23,25.26C186.43,2.98,96.16-7.27,69.74,10.44,105.21-10.43,164.99-.7,174.69,45.92Z"/><path class="e" d="M53.99,62.56c2.9,1.65-5.86,7.65-7.12,11.37-4.04.49-.91,9.41-5.98,7.66-2.07,3.35,1.98,1.49-2.17,7.34-5.26,8.75-2.33,13.58-8.51,7.13.06,2.77-5.54,9.18-.36,10.94-3.35.94-5.35,1.14-4.72-3.62-6.87,1.56.02-.37-2.26,5.49-7.37,4.81-4.73,17.87-13.13,11.1,4.81-.99,7.71-1.19,2.09-3.7,1.04-1.94,3.13-4.24-.26-5.34,4.77-2.28,4.47,1.18,2.5-4.02,2.43-7.71-3.14-2.31,2.48-8.31-3.27-.76,1.03-7.73-2.85-7.19-10.61,10.13-6.4-16.02-.24-23.45C34.98,44.94,71.5-7.12,98.83,6.2c13.55,3.97,22.11-12.83,34.8.35,25.03.64,58.91,46.4,28,60.79-21.01-.24-21.06-37.63-45.2-35.3-24.2-7.25-63.06,42.34-65.64,44.05.4-8.44,27.88-28.29,15.62-26.87-6.09.86,1.96,6.47-4.73,5.19-2.96,3.17-3.62,9.4-7.69,8.15ZM96.66,6.44c.65.01.65-1.01,0-1-.65,0-.65,1,0,1ZM20.49,104.73c1.74-.81-1.22-1.42-1.12-.45-.03.63.84.51,1.12.45Z"/><path class="e" d="M159.64,181.27c7.38-6.97-.11,4.49.33,2.63-3.46-.79-4.5-2.67-.33-2.63Z"/><path class="e" d="M158.15,106.49c5.23,5.32.07,3.19,1.74,6.42-3.94,2.57-4.94-4.27-7.34-1.8-2.15.11-2.33-2.11-1.66-3.85-3.96,1.89-4.71-3.94-7.18-2.72-3.51-4.01-22.96-2.67-16.96-6.26-7.55-3.83,13.94-.28,17.33,1.66,6.65-1.09,2.06,3.01,7.72.33-1.38,4.57,4.46,2.9,6.35,6.22Z"/><path class="e" d="M151.95,132.13c-1.42,7.07-4.57-2.72-4.06-5.93,2.79-.19.48,9.24,4.06,5.93Z"/><path class="e" d="M154.54,190.19c-2.5,2.94-3.39,7.48-6.66,9.78,2.91-6.5.02-8.35,6.66-9.78Z"/><path class="e" d="M149.8,136.92c-.48,2.29-1.64-.6-.63-1.54.42.35.56.88.63,1.54Z"/><path class="e" d="M149.12,138.92c1.42,1.27-.37,7.7-.33,7.11-.88-2.17-.75-5,.33-7.11Z"/><path class="e" d="M143.06,117.14c12.19,14.96-8.01-3.28-14.99-2.42,6.38-5.88,12.27,6.08,14.99,2.42Z"/><path class="e" d="M147.37,153.74c-.59.08-.47-.64.05-.51-.07.14-.05.36-.05.51Z"/><path class="e" d="M146.97,156.04c.01-.22.04-.77.39-.59,0,.21-.09.72-.39.59Z"/><path class="e" d="M146.88,157.68c.9.46.3,1.32-.45,1.4.07-.45-.07-1.26.45-1.4Z"/><path class="e" d="M146.21,200.06c1.7-.42.89,1.33-.15,1.74.16-.48-.22-1.21.15-1.74Z"/><path class="e" d="M145.66,162.88c-.89,2.04-1.74-1.24-.18-1.67.11.5.12.99.18,1.67Z"/><path class="e" d="M145.26,202.63c-8.3,18.11-54.94,32.62-18.27,9.74,4.72-1.89,6.25-6.44,10.87-6.38.08-.21-.68-6.62.63-2.08.86,1.71,1.09-.9,1.91-.81,1.52,1.07,2.46-.67,4.86-.47Z"/><path class="e" d="M142.45,167.12c.63,0,.5.62-.08.45l.08-.45Z"/><path class="e" d="M142.88,165.78c-.12.18-.07.6-.41.53.01-.22.28-.38.41-.53Z"/><path class="e" d="M140.68,169.39c-.08.2-.33.33-.46.49.07-.23.23-.4.46-.49Z"/><path class="e" d="M138.91,171.65l-.16.46c-.53-.09-.2-.4.16-.46Z"/><path class="e" d="M135.33,177.91c.36.21.34.58-.13.45l.13-.45Z"/><path class="e" d="M133.47,180.17c.21.67-.03,1.45-.9,1.36-.02-.6.35-1.19.9-1.36Z"/><path class="e" d="M131.25,216.13c.22.28-.24.4-.45.49.13-.15.25-.4.45-.49Z"/><path class="e" d="M130.42,216.63c.4.67-.63.86-1.04.85-.44-.62.62-1.01,1.04-.85Z"/><path class="e" d="M129.85,184.7c.15-.18.31-.35.51-.5-.05.23-.37.36-.51.5Z"/><path class="e" d="M128.05,114.71c-12.28-6-35.96,8.84-46.38,5.77,1.41-.22,4.04-.86,5.36-1.75,2.9,3.65,1.31-.61,2.49-1.77,7-2.04,34.25-11.89,38.53-2.25Z"/><path class="e" d="M127.97,217.58c-1.19,2.68-5.24,4.24-7.94,5.28,1.46-2.37,5.58-3.87,7.94-5.28Z"/><path class="e" d="M128.1,186.88c-1.01.77-1.11,2.23-2.32,2.7.08-1.23,1.1-2.5,2.32-2.7Z"/><path class="e" d="M125.44,189.59c.04.42-.22.72-.54.93-.09-.41.13-.81.54-.93Z"/><path class="e" d="M123.98,191.86c.04-.23.04-.75.4-.53-.09.21-.28.35-.4.53Z"/><path class="e" d="M118.74,1.77c7.11,1.71-17.96,5.93-19.91,4.45,1.81-7.49,13.77-1.53,19.91-4.45Z"/><path class="e" d="M119.73,222.91c-.65,1.46-3.27,2.89-4.68,3.56.74-1.93,2.7-3.07,4.68-3.56Z"/><path class="e" d="M111.37,227.35c7.21-1.77-1.99,3.38-3.34.48,1.44-.44,2.42.77,3.34-.48Z"/><path class="e" d="M106.18,227.91c.36.67-.73.76-1.08.74-.39-.75.64-.86,1.08-.74Z"/><path class="e" d="M102.94,228.76c.07.43-.45.52-.45.05l.45-.05Z"/><path class="e" d="M101.69,228.82c.67,1.17-2.87.72-3.75.77-.8-1.42,3.14-.83,3.75-.77Z"/><path class="e" d="M97.19,229.64c.06.46-1.45.64-1.43.1.37-.41,1.04-.77,1.43-.1Z"/><path class="e" d="M96.66,5.44c.65,0,.65,1.01,0,1-.65,0-.65-1.01,0-1Z"/><path class="e" d="M94.99,229.75c-4.88,2.26-13.24,1.73-18.98,1.31,3.52-1.27,14.25-.23,18.98-1.31Z"/><path class="e" d="M90.8,91.76c.23-.8,1.05-1.03,1.82-.99-.56.42-1.13.79-1.82.99Z"/><path class="d" d="M92.39,37.24c-1.54-.04-2.75.3-4.28.63,2.12-2.22,9.6-3.8,4.28-.63Z"/><path class="e" d="M90.37,92.13c-.13.32-.5,1.22-.99.5.14-.4.65-.5.99-.5Z"/><path class="d" d="M85.75,40.09c.99-.63.55,1.33-.32.92.16-.16.04-.75.32-.92Z"/><path class="e" d="M88.09,110.7c-1.25,2.65-4,3.51-6.84,3.66.11-2.67,4.31-3.21,6.84-3.66Z"/><path class="e" d="M74.66,231.03c.87.46-6.44.84-5.04-.48,1.7.14,3.66-.67,5.04.48Z"/><path class="e" d="M74.22,123.19c-.22.02-.51-.27-.48-.49.14.17.35.3.48.49Z"/><path class="e" d="M72.43,101.13c-.18.07-.3.35-.51.41-.17-.34.28-.36.51-.41Z"/><path class="e" d="M70.51,120.1c.93.17,1.74.81,1.93,1.76-.96-.12-1.85-.76-1.93-1.76Z"/><path class="e" d="M70.12,48.55c-14.98,21.66-34.86,44.67-34.63,74.68,1.21,1.65-11,.96-4.89,3.51-3.18.21.87,5.16-3.81,6.02,2.99,4.57-2.23,1.6-1.14-1.73,1.47-1.69,1.13-2.21.82-3.77,3.72-.18-2.3-4.01-.09-4.96,3.45.91-.09-1.93,4.89,1.33,3.08-1.51-.69-4.54-2.92-2.85-8.11-15.66,12.12,1.27,4.51-13.62-4.37,4.3-3.12,4.49-5.26.39.17-1.16,4.07.42.41-1.38,1.06-18.73,4.92,2.21,10.72-17.26,4.15-5.85.1-3.98,2.17-7.34,2.74,1.74,4.41-4.05,3.58-6.01,3.13-3.28,11.74-10.93,9.52-13.02,1.66-.31,3.59,1.6,3.45-3.01,2.21,1.62,2.5-4.48,4.23-5.13,8.08.28-4.35-4.11,8.44-5.85Z"/><path class="e" d="M69.28,230.57c-9.93-.45-15.59-1.11-17.64-6.36,4.94.8,16.34,1.13,17.64,6.36Z"/><path class="e" d="M68.35,118.66c.4-.11.8.15.91.55-.39,0-.73-.22-.91-.55Z"/><path class="e" d="M68.22,104.61c.18.54.34,1.97-.78,1.54,0-.41-.03-1.86.78-1.54Z"/><path class="e" d="M63.23,205.84c11.06,4.53-.32,2.21-4.84,1.4.8-3.2-4.02-4.21-5.73-5.75.2.94.61,1.98-.68,1.44-.1-6.48,7.33,2.48,11.25,2.91Z"/><path class="e" d="M67.12,109.51c-.39,3.95-2.04-1.96.3-2.97-.12.92-.64,1.88-.3,2.97Z"/><path class="e" d="M67.06,113.03c-.33,2.22-1.8-.62-.52-1.1.38.26.49.71.52,1.1Z"/><path class="e" d="M66.54,116.56c.63.37,1.18.9,1.31,1.65-.78-.03-1.66-.68-1.31-1.65Z"/><path class="d" d="M64.85,14.93c.05,1.01-1.1,1.27-1.93,1.34.07-1.11,1.09-1.13,1.93-1.34Z"/><path class="d" d="M60.79,17.62c.36.61-.59,1.01-1.03.93-.43-.65.61-.91,1.03-.93Z"/><path class="d" d="M58.51,18.57c2.04-.12-.37,1.75-1.39,1.77.47-.55.64-1.7,1.39-1.77Z"/><path class="d" d="M56.62,20.44c-1.79,1.67-8.95,10.55-11.16,9.43,4.56-2.91,5.5-6.98,11.16-9.43Z"/><path class="e" d="M55.92,209.44c1.1,1.28-1.98,1.33-.9-.22.4-.51.73.15.9.22Z"/><path class="e" d="M51.39,207.67c.8.73-1.26.77-.88-.22.15-.53.67.02.88.22Z"/><path class="e" d="M51.29,227.79s-.09.02-.14.02c-.04-.02,0-.03.14-.02Z"/><path class="e" d="M24.43,191.6c-1.22-5.69,4.53,6.6,7.08.44-.08-1.51-7.92-.25-3.03-2.4,1.44-2.26-2.81-3.21-4.11-4.11,8.1.95-5.73-15.02.44-16.65-1.11-6.37-1.47-19.36.48-23.23-3.72-3.84,8.02-.77,3.47-4.23-7.38-.28-4.24-5.18,2.7-5.11,2.7-4.38-5.24,1.26.3-3.88,5.17-27.27.04,50.87,12.42,58.47-6.51.31-15.99-.31-3.32,3.77-5.89.19,14.76,17.19,9.08,15.21-10.34,3.4.81-7.36-5.87-5.85.97,5.62-4.28,3.2-5.35.18-2.9-1.03-4.87-.56-2.95,1.89-.91.78-5.32-3.04-3.79-3.53,7.25.91-1.22-10.5-4.21-7.03,7.59,10.53-6.89,2.14-3.33-3.95ZM35.19,188.28c0-.38-.57-.37-.56,0,0,.36.56.36.56,0Z"/><path class="e" d="M49.21,195.71c4.25,4.29-.47,2.06-2.23-.06-.4-2.78,1.34-.6,2.23.06Z"/><path class="e" d="M49.05,202.6c.65,0,.65,1.01,0,1-.65,0-.65-1.01,0-1Z"/><path class="e" d="M49.02,227.76c-3.97-.11-23.1-4.74-16.08-7.08,2.87,5.99,12.05,3.3,16.08,7.08Z"/><path class="e" d="M48.74,80.49c-.56,1.73-1.53,3.35-2.41,4.96-1.31.52.74-4.51,2.41-4.96Z"/><path class="e" d="M45.52,191.88c.71.13,1.12.53,1.26,1.23-.62-.17-1.21-.54-1.26-1.23Z"/><path class="e" d="M39.23,223.27c.21,0,7.12,1.4,6.12,2.81-5.72.67-18.86-8.29-6.12-2.81Z"/><path class="d" d="M45.03,31.07c.29,1.27-.55,2.51-1.82,2.76.64-.88.87-2.14,1.82-2.76Z"/><path class="e" d="M44.56,196.76c.65,0,.65,1.01,0,1-.65,0-.65-1.01,0-1Z"/><path class="e" d="M43.91,194.32c.36.35.46,1.65.1,1.99-2.09.29-1.8-2.56-.1-1.99Z"/><path class="d" d="M42.33,35.03c-.55.88-3.15,4.62-3.15,2.28.64-.7,2.1-1.64,3.15-2.28Z"/><path class="e" d="M40.92,207.62c.03.12-.02.13-.22-.03.07.05.14.07.22.03Z"/><path class="d" d="M38.55,38.72c1.05-.57.33,1.03-.29.53.04-.18.14-.41.29-.53Z"/><path class="d" d="M38.25,39.57c.11.61-.26,1.07-.89.98-.07-.52.26-1.23.89-.98Z"/><path class="e" d="M38.05,205.35c.3,0,.29.46,0,.45-.28,0-.29-.45,0-.45Z"/><path class="e" d="M36.93,191.82c.65,0,.64.99,0,.99-.64.01-.65-1.01,0-.99Z"/><path class="d" d="M36.45,40.97c.71-.07.34.15,0,.48,0,0-.01-.5,0-.48Z"/><path class="d" d="M36.4,41.87c.17.31-.09.45-.35.5-.05-.27.03-.52.35-.5Z"/><path class="d" d="M35.63,42.37c-1.09,3.56-5.39,6.75-7.7,9.84,1.16-4,4.9-6.43,7.7-9.84Z"/><path class="e" d="M34.91,187.99c.36,0,.37.57,0,.57-.37,0-.36-.58,0-.57Z"/><path class="e" d="M31.46,218.93c4.87,3.96-5.81,2.25-3.76-3.02-4.56-4.02-8.51-.4-12.84-7.94-9.44-14.42,11.53,6.61,16.6,10.96Z"/><path class="e" d="M32.95,111.96c.05,1.21-1.09,1.21-1.03,0,.02-.67,1-.67,1.03,0Z"/><path class="e" d="M27.91,218.92c5.59,5.78-8.93-5.52-9.41-6.3,3.79,2.35,10.35-.34,9.41,6.3Z"/><path class="e" d="M28.6,111.04c1.16.35-1.39,1.82-1.03,1.82-1.25-.09.19-2.43,1.03-1.82Z"/><path class="e" d="M28.17,194.15c.05.11.09.17.07.17-.27,0-.25-.08-.07-.17Z"/><path class="e" d="M25.54,107.74c-1.41,2.65-3.62,9.51-1.19,11.79-.78-.43-3.83-2.28-2.75-.36,3.1-.09-2.38,2.49,1.62,2.3-.3,4.63-5.1,11.59-2.02,11.82.7,2.95-1.31,1.12-2.62,1.3-2.48.88-1.64,4.42-2.92,2.75-.53-1.99,1.86-6.77-1.83-3.1-1.94-.74-4.03-5.97-7.54-3.16,1.5,2.32,9.44,4.29,3.43,5.15.26,1.44-1.93,3.27-1.9.77,3.25-2.3-4.57-4.54-1.28-8.14-.97-1.91.76-5.69,2.74-5.94,1.2-1.35-1.84-1.91.95-1.89,9.05,6.88,13.16-28.46,15.3-13.29Z"/><path class="e" d="M22.83,183.78c.95.24.72,1.14-.05.91-.21-.11-.8-1.75.05-.91Z"/><path class="e" d="M21.05,104c.28.67-1.62,1.27-1.67.28.02-.63.92-.56,1.67-.28Z"/><path class="e" d="M18.55,143.61c-.95,2.17-1.76.49-1.31-.9.99-.22,1.25.4,1.31.9Z"/><path class="e" d="M16.8,140.35s1.61.38,1.15,1.01c-.93,1.24-3.43-.31-1.15-1.01Z"/><path class="e" d="M16.54,98.6c-1.34,1.96-5.05,8.6-.05,11.44-4.91-.07-3.89.1-3.18,3.53-4.63,5.82,9.8,3.02-4.93,7.36-6.42-.82,3.38-2.83.86-4.92-6.17,2.13,1.4-17.74.14-22.46.88-4.23.89,2.07,2.83.15,5.26-7.33,1.42,3.99,4.33,4.9ZM12.46,101.15c.29,0,.28-.46,0-.45-.29,0-.3.45,0,.45Z"/><path class="e" d="M18.1,212.2c-1.65-.74-3.04-2.41-3.25-4.21.28-1.09,3.15,4,3.25,4.21Z"/><path class="e" d="M13.85,138.57c1.2,4.78-2.1,7.25-3.45-.22,1.36-1.69,1.8,1.97,3.45.22Z"/><path class="e" d="M13.23,205.26c.91.42,1.48,1.44,1.59,2.42-1.17-.13-1.86-1.3-1.59-2.42Z"/><path class="e" d="M13.24,204.88c-2.46,1.09-5.91-12.73-6.49-13.9,2.73,3.65,3.56,9.93,6.49,13.9Z"/><path class="e" d="M12.68,100.93c0,.29-.46.28-.45,0,0-.29.45-.3.45,0Z"/><path class="e" d="M9.31,131.69c.3,0,.3.46,0,.46-.3,0-.3-.46,0-.46Z"/><path class="e" d="M9.44,76.34c.16.45-.12,1.48-.8,1.08-.04-.37.22-1.4.8-1.08Z"/><path class="e" d="M9.36,93.58c1.27,4.65-6.32,24.59-.14,22.46,1.92,2.7-2.95,1.43-3.19,4.85,2.91-1.09,5,2.24,1.4,2.6-1.55,5.56-2.55,8.28,1.47,12.76-6.28,3.27-2.79,13.98-4.79,20.16-2.88-10.12-8.13-56.61,5.25-62.83Z"/><path class="e" d="M8.39,140.63c1.87-.24.4,1.6-.42,1.35-.78-.54-.17-1.17.42-1.35Z"/><path class="e" d="M8.21,79.5c1.37,1.7-.98,4.11-.57,6.03-2.09.37.33-4.73.57-6.03Z"/><path class="e" d="M7.18,89.02c1.15.01-.15,2.1.02,2.84-1.51,1.38-.18-2.09-.02-2.84Z"/><path class="e" d="M7.29,144.66c.65,0,.65,1.01,0,1-.65,0-.65-1.01,0-1Z"/><path class="e" d="M7.74,86.33c-1.24,4.62-2.01,12.15-5.28,15.65,1.06-.2,2.26-11.27,5.28-15.65Z"/><path class="e" d="M6.32,141.54c.21.63-.75,1.56-1.34,1.37-.12-.86.3-1.68,1.34-1.37Z"/><path class="e" d="M6.14,159.87c.61,1.22-1.02,2.94-1.39,1.11-1.29-.12,2.48,5.05-.87,3.56-1.96,2.32-3.62-15.62-2.03-18.39,1.96,3.34-.9,10.63,4.29,13.72ZM4.37,159.98c.67-.4-.02-1.48-.75-.63.05.73.48.77.75.63Z"/><path class="e" d="M4.67,187.87c1.14.12,1.24,1.45,1.68,2.34-1.16-.07-1.59-1.3-1.68-2.34Z"/><path class="e" d="M5,151.37c.71.54.62,1.43-.04,1.91-.58-.36-.56-1.57.04-1.91Z"/><path class="e" d="M6.29,146.07c0-.15-.27,5.29-1.26,4.07.21-.86-1.5-7.88,1.26-4.07Z"/><path class="e" d="M4.9,154.54c1.15.7.29,1.88-.79,1.86.1-.62-.02-1.79.79-1.86Z"/><path class="e" d="M4.6,159.32c.28.71-.92,1.19-.98.03.47-.53.85-.29.98-.03Z"/><path class="e" d="M4.08,185.07c.65.14.43,1.01.43,1.51-.88.47-1.08-1.13-.43-1.51Z"/><path class="e" d="M3.45,180.87c1.77,9.43-4.27-10.35-.35-10.23-.04,3.39-.98,6.81.35,10.23Z"/><path class="e" d="M3.25,166.68c.9.9.35,2.17-.14,3.18-.47-.94-.67-2.42.14-3.18Z"/><path class="e" d="M2.38,104.22c.63-.07.55,1.66-.06,1.52-.59-.49-.36-1.09.06-1.52Z"/><path class="e" d="M2.3,106.63c.54,1.4.12,3.05-.4,4.42-.54-1.4-.61-3.21.4-4.42Z"/><path class="e" d="M1.86,139.75c.25,11.92-1.31-3.98-1.28-8.59,1.38-1.59,1.26,8.16,1.28,8.59Z"/><path class="e" d="M1.78,112.41c.37.89.27,2.83-.86,3.13.16-1.06,0-2.37.86-3.13Z"/><path class="e" d="M.91,119.93c.15,1.27.17,2.55-.07,3.8-.98,1.07-1.22-4.73.07-3.8Z"/><path class="e" d="M.84,124.37c.39.81-.09,1.69.02,2.5-1.15.31-1.14-2.78-.02-2.5Z"/><path class="e" d="M.92,116.33l-.04,1.1c-1.05-.07-.93-1.11.04-1.1Z"/></g></svg>