<?xml version="1.0" encoding="UTF-8"?><svg id="b" xmlns="http://www.w3.org/2000/svg" viewBox="0 0 197.85 243.2"><defs><style>.d{fill:#ffdf44;}.e{fill:#e36b2e;}</style></defs><g id="c"><path class="d" d="M30.5,90.28c-26.53,99.73,65.2,185.93,127.51,74.94C205.72,51.6,82.87-39.84,30.5,90.28ZM197.6,109.79c1.91,51.63-29.13,110.49-78.22,130.78-29.03,7.53-12.16-3.01-31.14-8.37-11.77,3.26-33.79-3.41-36.56,6.93-1.44.32-6.9.86-6.29-2.99C.17,207.1-10.92,118.04,10.59,69.78c-4.96,2.47-13,51.32-5.95,24.6.1-7.09,3.62-18,7.65-24.23-.37-1.93-3-.39-.83-2.62.6,1.53,1.45-1.9,2.92-.39.48-1.45,2.05-5.1-.32-4.24-4.58,9.33.64-3.2,2-6.96C51.15-40.7,204.8-5.3,197.6,109.79ZM26.79,40.39c.56-2.2-3.08.07-1.35.76.72.13,1.17-.26,1.35-.76ZM23.8,114.77c.97-15.36-3.17,2.12-2.99,8.39,3.17,5.81,3.33-5.79,2.99-8.39ZM22.94,103.45c1.69-3.18-2.15-1.67-1.08,2.86,2.37,1.85,1.76-2.19,1.08-2.86ZM18.14,54.62c1.19-1.24,2.9-3.86,1.44-5.56-.75,1.94-1.13,3.51-1.44,5.56ZM5.19,158.46c.08,1.05.61.91.55-.24-.26-.47-.5-.27-.55.24Z"/><path class="d" d="M26.2,39.43c1.3-.04.45,2.16-.76,1.73-1.09-.43-.05-1.42.76-1.73Z"/><path class="d" d="M24.71,109.61c-.1,5.5-1.66,10.04-1.36,15.27-3.64,2.54-2.46-23.05,1.36-15.27Z"/><path class="d" d="M23.66,102.25c-1.51,1.46.78,2.56-.3,4.33-2.89.97-1.52-7.3.3-4.33Z"/><path class="d" d="M22.75,43.49c1.9,1.09.39,1.6-1.11,3.51-.96-1.75.87-1.77,1.11-3.51Z"/><path class="d" d="M19.59,49.07c1.45,1.69-.25,4.32-1.44,5.56.31-2.05.69-3.62,1.44-5.56Z"/><path class="d" d="M15.42,63.58c.4,2.06-2.79,4.89-3.95,4.01,1.74-.42,2.17-6.67,3.95-4.01Z"/><path class="e" d="M12.05,15.85c.99-1.33,1.05,1.08-.1,1.06-.04-.33-.07-.68.1-1.06Z"/><path class="d" d="M12.29,70.2c-6.89,10.2-7.66,23.71-9.35,34.49-4.31-7.64,4.45-34.44,9.35-34.49Z"/><path class="d" d="M5.75,158.22c.05,1.15-.48,1.29-.55.24.05-.51.29-.71.55-.24Z"/><path class="e" d="M3.72,18.19c-.75.84-1.95.78-2.74.03.85-.66,1.61-.72,2.74-.03Z"/></g></svg>