<?xml version="1.0" encoding="UTF-8"?><svg id="a" xmlns="http://www.w3.org/2000/svg" xmlns:xlink="http://www.w3.org/1999/xlink" viewBox="0 0 648.58 800"><defs><style>.d{fill:none;}.e{fill:#ffdf44;}.f{fill:#49a258;}.g{fill:#c54b4f;}.h{fill:#5c97c4;}.i{fill:#e36b2e;}.j{clip-path:url(#c);}.k{clip-path:url(#b);}</style><clipPath id="b"><rect class="d" width="648.58" height="800"/></clipPath><clipPath id="c"><rect class="d" y="0" width="648.58" height="800"/></clipPath></defs><g class="k"><g class="j"><path class="f" d="M256.36,399.01c-1.56.03-3.18.21-4.89-.14-2.47-.5-4.93-.02-7.45-.25l-11.47-1.05c-9.89-.91-12.56-1.37-22.03-4.1-6.26-1.8-8.21-5.5-9.48-4.74-.49.29-1.08,1.27-1.09,2.07l-.25,29.94c-.02,1.98-.5,3.97-.38,5.91.17,2.79-.13,5.35-.17,8.22l-.26,22.65-.78,8.34c-.22,2.38-.04,4.7-.14,7.16l-.38,9.28c-.1,2.55-.62,5.18-.42,7.69.3,3.84-.56,6.99-.38,10.97.38,8.65-1.13,9.79-.22,18.11,2.55,3.82,4.76,7.71,7.47,11.34l5.65,7.55c2.83,3.79,19.59,19.99,21.85,19.4.3-.08.8-.56.72-1.11-.23-1.52.25-2.86.29-4.31.14-5.11-.02-10.1.88-15.15.18-1,.79-1.63,1.62-1.71.82-.07,1.82.71,1.83,1.86l.22,21.61c.07,6.81,1.42,13.21,2.27,19.94l1.72,13.57,3.11,22.67.41,5.5c.1,1.4,1.34,9.11-1.84,9.06-6.15-.09-11.92-1.83-17.75-3.42l-12.87-3.52c-3.58-.98-6.79-2.3-10.18-3.79-3.04-1.34-6.18-2.11-8.98-4.13-.54-.39-1.54-.49-1.98-.28-1.5.71-.67,9.55-.63,11.81l.45,25.24.38,14.28.39,16.12.43,26.15.33,40.53c.02,2.05-.31,4.27.78,6,.57.92,2.68.23,3.47-.39,7.58-5.97,16.07-9.62,25.35-12.21l19.99-5.59,18.12-4.36,12.83-2.78,8.47-1.64c18.53-3.58,36.94-5.74,55.81-7.35,15.42-1.32,30.23-.97,45.49,1.31,6.88,1.03,25.96,3.22,31.21,4.71,8.54,2.42,16.46,6.41,23.67,11.87,1.86-1.62,1.93-4.08,2.52-6.33.76-2.88.62-5.52.8-8.51l.44-7.56c.13-2.23.64-4.42.35-6.73-.28-2.18.2-4.2.34-6.31l.4-5.93.44-7.11c.16-2.62.21-5.03.39-7.64l.41-5.88.42-7.58.45-7.13.41-9.71.41-7.15.43-6.74.41-6.35c.11-1.68.3-3.36.42-5.04l.42-6.31.45-6.32c.16-2.18.48-4.2.53-6.34.07-2.92-5.48.24-6.86.7l-6.05,2.02c-7.77,2.6-15.32,5.19-23.34,6.86-1.26.26-1.94,1.4-1.55,2.55.82,2.43,3.9,10.8,1.89,12.67-1.1,1.02-3.2.44-4.19-.73-4.67-5.47-7.26-15.07-9.45-22.2l-1.48-4.82c-3.28-10.7-7.86-20.91-13.89-30.33l-10.49-16.41c-.34-.52-.1-1.78.26-2.06,2.15-1.74,9.8,9.76,11.33,9.57.45-.06,1-.38,1.39-.94,10.98-15.7,21.59-24.58,36.61-36.19l8.76-6.78c2.03-1.57,2.55-2.85,2.73-5.38.46-6.48,1.29-12.89,2.1-19.34l1.6-12.69c.2-1.55.31-3.28.39-4.95l.45-8.46.37-5.92.2-10.06c.04-2.08.07-4.05.34-5.92,1.11,0,1.3,1.77,1.01,2.74-.35,1.17.04,1.53.32,2.44.3,1-.2,2.57,1.67,2.89.12-1.29-1.09-5.48.23-5.8.29-.07,1.05-.4,1.05.27,0,.81.19,1.36.62,1.53.53.21,1.29.45,1.29-.24,0-.56-.33-1.02-.28-1.53.04-.41.29-.74.86-.65,1.26,4.48-.7,11.03.12,16.86.04.26-.1.61,0,.84-.96-1.01-.41,5.92-.4,6,.03.24-.03.5-.01.74-1.03.65-.66,2.49-.17,3.42l-.03,1.59c-.43-.92-2.22,13.02-1.22,11.9-.07.19-.02.51-.01.71-1.3-.85-.78,3.83-.41,3.09.08.62-.19,1.32-.04,1.94-.88-1.25-1.3,5.52-1.05,6.52.06.23-.05.5-.02.74-1,.23-.42,1.49-.39,2.22.01.33.14.88,0,1.2-.46,1.02-.59,2.13-.17,3.61.99-.61,2.5-.82,3.28-1.66,1.63-1.77,3.59-2.78,5.48-4.27l10.09-7.98c3.27-2.58,6.84-4.38,10.05-7.21,1.01-.88,2.7-1.66,3.86-2.37l5.53-3.4,10.09-4.68c6.67-3.09,5.56-2.85,13.46-4.57,1.97-.43,9.3-1.25,11.12-.8l7.98,1.97c.25.06.53.16.79.17-.03.7.56,1.12,1.22,1.11l.57.62c-.58,1.15.83,1.51,1.25,2.39.91,1.93.78,4.81.02,6.77-.75,1.94-1.86,3.4-1.9,5.33,1.29-.31,2.67.06,3.07-.99.41.01.82,0,1.22-.06.27.29.71.5,1.06.37.32-.12.59-.45.35-.76l.7-.02c.26.31.7.49,1.05.36.31-.12.61-.43.36-.75.22.02.5-.07.71,0,3.87,1.26,5.07-1.94,17.61,1.52,2.18.6,3.55,1.5,5.36,2.88,6.15,4.66,1.55,6.61,3.25,10.11,2.32-1.04,4.79-.89,6.7-2.11.21-.05.65-.04.83-.17,1.39.62,3.33.57,4.71-.03h.71c-.25.39.15.57.36.65.24.09.54.09.86.17,3.63.9,6.26,3.39,8.92,5.99,1.63,1.6,2.01,4.02,3.71,5.42-.06.22.06.62.07.84-.78,1.7-.61,3.58-.73,5.42l-.05.79c-.31-.23-.67.06-.78.32-.09.22-.04.46-.02.65,0,.11-.01.22-.01.33-.63.89-1.99,1.4-1.71,2.61.02.11-.06.24-.07.35-1.35.72-2.04,2.4-3.25,3.58-1.66,1.61-3.35,2.89-4.56,5.04-.59,1.04-2.16,1.51-2.24,2.78-.01.15-.31.27-.37.41-1.66.74-3.09,2.2-3.93,3.8l-.83.5c-1.12.18-2.07.85-2.09,2.04-.12.12-.27.23-.36.37-.11-.8-4.85,3.32-4.15,3.29l-.98.6c-.16.1-3.96,2.04-3.36,2.42-.09.03-.21.06-.31.06-1.02-.01-2.19.53-2.23,1.64-.1.02-.2.02-.3.06-1.49.57-2.96,1.57-3.91,2.85l-.47.2c-.69.3-1.86.19-1.55,1.2-.13,0-.29.05-.41.01-.96-.3-1.46.53-2.21,1.11-1.46,1.12-3.14,1.87-4.72,2.88-5.1,3.28-10.29,6.01-15.65,8.74-1.6.82-2.95,1.86-4.58,2.66l-14.63,7.19-5.79,2.77c-3.17,1.52-6.23,3.31-9.57,4.3l-4.64,1.37c-6.13,1.81-9.99,4.91-16.94,7.41-2.5.9-4.98,1.93-7.41,2.99l-3.68,1.6c-1.08.47-2.53,1.13-3.4,1.91-1.32,1.19-.85,3.45-.84,5.06l.08,11.82c0,.3.11.63.35.51,0,.86,0,1.93-.03,2.81-.41-.24-.7.14-.72.39-.03.36-.23.95-.14,1.33.48,2.13-.06,3.92-.15,5.89l-.37,8.29c-.13,2.84-.31,5.62-.11,8.29.05.72-.17,1.76-.03,2.42-1.04-.37-.17,3.91-.74,6.93-.45,2.4-.19,4.81-.07,7.08.02.33-.12.87-.02,1.16-1-.6-.3,4.08-.58,5.48,0,.02-1.43,14.03-.43,13.12,0,.37-.01.75-.02,1.13-1.89.06.24,1.47-.9,6.05-.49,2-.14,4.07-.17,5.93v.74c-.19-.15-.61.11-.53.41.4,1.66-.11,3.04-.35,4.64-.36,2.38.06,4.81-.11,7.19l-.49,7.08c-.25,3.65-1.12,6.96-1.32,10.63-.01.22-1.32,5.14-1.43,8.48-.29,8.48-2.81,11.61-3.32,14.05-.77,3.73-3.51,6.49-5.43,9.6-1.36,2.2-4.33,6.21-6.26,6.94-1.78,2.69-3.97,6.08-7.05,7.51-4.84,2.25,1.25.76-6.18,4.85l-4.11,2.26c-2.05.07-4.18.03-5.36,2.38-2.65.07-4.66,1.93-7.11,2.81l-9.67,3.48c-1.84.66-3.27,1.5-5.36,1.94-4.67.99-6.02,2.27-9.78,1.47-1.32-.28-2.71,1.33-3.92,1.29-2.07-.07-4.1.36-6.12.42-1.57.05-2.54.07-3.78,1.23-1.19,1.11-3.18.39-4.67.42-2.09.04-4.01.74-6.11.98-1.43.17-3.04-.65-4.4.75-.8.83-2.25-.34-2.98-.18-1.68.85-3.55.85-5.49,1-6.45.49-19.03,1.21-24.8-.56-2.09-.64-4.2-.08-6.31-.46-2.6-.46-4.82-.27-7.44-.12-4.31.24-7.37-1.07-12.36-1.72-2.99-.39-5.79-1.55-8.96-1.56-5.6-.02-11.58-2.03-15.8-1.67-1.61.14-8.08-.55-9.88-1.03l-3.94-1.05c-1.3-.35-8.41-.72-12.86-2.87-2-.97-4.18-1.25-6.41-1.24-2.27,0-7.92-2.06-9.75-3.18-6.54.09-6.12-.9-11.09-2.87-1.9-.76-4.28-.72-5.8-2.25-1.3-1.31-6.73-4.15-6.38-3.82-2.68-2.43-5.58-4.83-7.62-7.87-4.76-7.06-4.78-15.08-4.05-23.36.07-.82-.26-1.53-.76-1.74.06-.45.05-1.28,0-1.74.3.05.47-.18.57-.36.12-.22,0-.42,0-.72v-5.11c0-1.51.04-2.89,0-4.43l-.14-6.64c-.01-.46-.14-.9-.54-.82.13-3.01-.24-6.22-.26-9.21.24.14.35-.19.36-.51v-23.53c0-.32-.31-.6-.48-.5.05-.45.02-1.18-.02-1.6.74,0,.73-.93-.01-.91.1-2.02-.19-4.24-.26-6.24.25.16.35-.17.35-.52v-34.89c0-.45-.5-.8-.76-.53v-3.21c.19.19.34.09.56-.07.25-.19.25-.25,0-.44-.21-.16-.37-.26-.56-.07v-7.42c.74.27.85-.52.8-1.14-.03-.39-.22-.99-.8-.71-.07-.78.36-1.69.23-2.44.94,3.08.46-14.71.71-12.15l-.49-5.14c-.3-.21-.69-.27-.88-.34-.02-.13-.08-.26-.09-.39-.03-.66-.62-1.41-1.43-1.47-1.64-.11-2.16-1.62-3.17-2.19-.65-.37-1.81.29-2.29-.93-.34-.87-1.37-.54-2.01-.7-3.64-.95-9.02-5.5-11.29-5.32l-.29.02c-.31-1.44-1.92-1.7-3.2-2.46-2.59-1.54-5.59-2.82-7.83-4.75-1.06-.91-1.45-1.03-2.83-1.51-4.98-1.75-9.18-5.01-13.69-7.65-2.02-1.18-3.99-2.12-5.68-3.77-.57-.56-1.08-1.01-1.85-.84-.25.06-.55-.14-.8-.13.26-.3-.09-.65-.33-.77-.21-.1-.45-.07-.64-.04-.08-.15-.29-.24-.39-.39-.08-.65-.66-.96-1.28-.89-.09,0-.2-.02-.28-.05-.21-.82-1.01-1.51-1.9-1.87-1.27-.52-1.84-1.6-2.8-2.33-1.65-1.25-3.21-2.27-4.66-3.81-4.35-4.61-4.43-3.37-7.79-6.07-1.85-1.49-4.53-2-5.43-4.67-3.52-.43-15.93-11.51-16.98-12.12-1.67-.97-2.46-2.84-4-4.07-5.08-4.06-6.41-8.89-6.26-15.32.27-11.14,7.39-14.02,4.77-16.44-1.15-1.07-1.49-2.74-2.38-3.93-1.96-2.6-2.85-5.87-3.91-8.29-1.17-2.67-1.63-5.13-1.7-8.02-.06-2.83,1.15-5.01,2.48-7.38,1.79-3.21,3.13-2.87,5-4.69.24.01.5-.04.75-.06,4.04-.43,8,.26,12.31,1.84.28-2.77-1.71-4.17-2.89-5.93-1.14-1.69-2.01-3.25-3.42-4.69-.98-.99-1.28-2.64-2.08-3.88-2.48-3.89-.91-9.32,2.98-11.59,5.49-3.21,11.32-3.87,17.34-2.47,4.13.96,8.22,1.61,12.25,3.1,3.69,1.37,7.34,2.88,10.61,4.91l7.53,4.68c4.43,2.75,8.73,5.35,13,8.4l2.75,1.97c2.92,2.09,5.55,4.59,8.63,6.46,5.1,3.1,11.54,8.24,16.08,12.33l4.83,4.34c2.61,2.35,4.97,4.79,7.33,7.35l3.28,3.56c1.18-.91,1.11-2.33,1.08-3.74l-.23-11.02c-.03-1.31.56-2.88.27-4.16.21.08.49-.1.5-.43l.08-8.79c0-.38.44-.69.15-.91-.21-.16-.36-.26-.55-.08l-.02-.67c.79.27.56-.65.67-1,.18-.55-.19-.89-.41-1.19l.05-3.31c.3.08.49-.48.48-.9l-.09-11.04v-1.63c0,.18.52-7.36.57-8.31.12-2.34-.54-4.9.74-6.84l.25,4.22c.07,1.2.77,1.95,1.38,2.65-1.67,4.28,3.45,6.86-.29,8.67,1.1.86,1.38,1.58,1.36,3.14.29-.01,1.88,0,1.93-.52l.41-4.29.41-7.95c.08-1.65-.08-3.07-.05-4.73l.3-17.21c.03-1.76-.11-3.33,0-5.04l.36-5.91.44-4.65c.18-1.91.63-3.71.08-5.64-.47-1.66.02-3.38-.03-5.04-.07-2.2-.83-12.66,1.18-12.9,3.19-.84,5.84,1.54,7.78,3.57,1.74.75,4.01,1.44,5.88,1.93l6.8,1.79c4.95,1.3,9.71,1.44,14.71,1.78,2.76.19,5.31.78,8.12.86l7.02.2c.8.02,7.34.13,6.14,1.22M233.19,568.11c-.13-1.63-.88-2.56-1.96-3.39l-7.62-5.84c-4.57-3.5-8.62-7.18-12.53-11.44l-3.44-3.75c-2.88-3.14-5.68-6.06-8.02-9.71l-9.53-14.88c-2.62-4.09-5.17-8.15-8.51-11.66-1.8-1.89-3.54-3.79-5.49-5.49l-7.65-6.64c-2.52-2.18-5.04-4.24-7.67-6.31-13.53-10.63-17.61-15.35-33.31-24.37-7.41-4.26-15.26-7.51-23.71-9.04-3.39-.61-13.72-1.29-14.99,2.46-.72,2.11.54,4.07,1.67,5.75,2.28,3.38,4.76,6.32,7.34,9.49,7.86,9.64,16.71,19.47,25.79,28.07l6.28,5.94c7.12,6.73,15.16,12.02,23.04,17.8l4.19,3.07,15.22,10.45,21.13,14.65c3.63,2.52,6.95,5.01,10.4,7.74,4.14,3.28,8.28,6.21,12.67,9.24,1.63,1.12,17.19,12.7,17.76,10.52.54-2.06-.77-9.17-1.05-12.66M398.67,583.34l23.27-15.16,10.81-6.95c4.72-3.03,9.13-6.15,13.6-9.56l8.66-6.6,20-15.29,6.18-4.8,3.59-3.14c1.77-1.55,3.51-2.89,5.27-4.45l8.74-7.78c4.99-4.44,9.49-9.11,14.31-13.83,2.63-2.58,5.34-5.22,7.04-8.56.54-1.07,1.49-3.94.17-4.61-10.42-5.36-24.99.82-34.65,5.89-5.88,3.09-11.43,6.19-16.61,10.4l-19.51,15.88-19.11,15.86-11.2,9.05-2.66,2.35c-1.19,1.05-2.25,1.92-3.43,2.94l-2.96,2.57-3.09,2.76c-4.83,4.3-14.95,14.83-18.85,19.95-.61.8.43,2.07.83,2.72,2.33,3.81,4.14,7.78,6.83,11.3.67.88,2.08-.46,2.8-.92M234.81,587.26c-3.22-1.76-5.83-3.3-8.61-5.23l-21.65-15.01-10.14-7.14-14.36-9.61c-5.86-3.92-11.37-7.62-17.44-11.31-10.25-6.23-20.04-12.72-29.24-20.37l-10.85-9.02c-6.14-5.1-11.41-11-16.59-17.06-2.06-2.41-4.09-4.1-7.07-5.23-3.66-1.38-13.03-4.78-16.57-4.78-2.96,0-5.38,1.98-5.39,5.06-.02,4.53.49,9.61,3.21,13.41,3.73,5.21,8.75,9.02,13.74,12.87,1.57,1.21,3.04,2.21,4.52,3.51,8.41,7.38,17.16,13.91,26.89,19.47l16.03,9.17c2.09,1.19,3.95,2.49,6.03,3.75l21.99,13.37,19.04,10.94,31.12,16.81,16.71,8.72c.04-4.41-.67-8.23-1.36-12.33M400.15,588.11c-2.95,1.52-.44,5.05.44,7.58,2.81-.09,4.99-1.59,7.54-2.67,12.9-5.46,25.21-11.36,37.55-17.99l23.09-12.42,29.59-17.13c14.61-8.46,28.19-18.01,41.32-28.56,3.44-2.77,13.03-12.28,12.14-15.93-.52-2.13-9.28-3.48-11.83-3.52-12.47-.22-25.22,7.69-34.63,15.42l-8.09,6.65-4.96,4.35-15.1,13.03c-8.39,7.24-17.1,13.4-25.93,20.04-6.36,4.78-12.9,8.65-19.74,12.69l-9.36,5.53c-7.36,4.35-14.31,8.94-22.03,12.92M414.66,609.2c16.79-4.62,32.78-10.91,48.86-17.53l10.54-4.34,13.68-6.04,6.17-2.73c23.06-10.22,34.08-14.21,55.33-29.4,6.83-4.88,12.77-10.35,19.04-15.94,3.41-3.04,13.4-14.25,9.89-18.38-4.76-5.6-9.34-6.4-16.31-3.62-8.06,3.21-11.45,7.65-17.22,11.48l-15.21,10.08-7.54,4.67-15.74,9.88-14.1,8.69c-15.63,9.63-43.95,25.51-60.28,32.77l-13.41,5.96c-4.74,2.1-9.58,3.62-14.17,6.07-1.36.72,1.75,7.49,2.39,9,.87,2.06,4.27.44,8.11-.61M236.99,606.93c-1.1-1.09-2.84-1.6-4.04-2.12-4.06-1.78-7.86-3.53-11.78-5.56l-12.74-6.6-15.64-8.02-11.4-5.93-36.9-20.24c-6.08-3.34-15.86-10.43-21.57-14.66l-12.11-8.99-7.42-5.71-17.36-13.3c-.76-.58-1.77-.65-2.58-.4-.54.16-.87.84-1.33,1.55-6.01,9.32-2.33,17.31,5.86,23.42l16.43,12.25c7.79,5.81,13.3,10.94,21.47,16.88l8.05,5.85c7.65,5.55,15.76,9.91,24.24,14.06l14.13,6.92,22.2,11.55c13.2,6.87,27.15,11.49,41.87,13.78.63.1,1.45.22,1.72-.05.23-.22.47-.93.41-1.38l-1.51-13.31ZM327.36,791.53c2.06.06,3.84.09,5.79.02l10.7-.39c20.62-.75,40.64-6.24,59.57-14.46,4.44-1.92,8.14-4.37,12.2-6.74,1.88-1.1,3.23-2.67,4.9-3.93,6.26-4.71,11.43-12.68,10.91-20.6-.12-1.85-2.48-3.21-3.9-4.09-3.57-2.22-6.75-4.67-10.68-6.14-4.67-1.75-9.54-2.45-14.53-3.14l-25.57-3.52c-3.12-.43-6.16-.63-9.26-.86l-5.07-.39c-7.57-.57-15.03-.3-22.53.14l-7.65.45c-24.09,1.41-65.07,8.92-88.92,15l-11.36,2.89c-4.53,1.15-39.71,10.46-32.09,18.53,11.5,12.19,77.19,23.2,95.43,24.95l20.01,1.92,12.05.36Z"/><path class="f" d="M294.29,197.64c.03.13-.02.29,0,.42-.15.05-.43.13-.5.27-.12.26,0,.55.19.57.24.03.47-.01.66,0,.37.6.22,1.49.34,2.1-.63.95-.33,2.78-.52,4.06,1.39,1.23,1.01,2.84,1.16,4.6.06.7,1.96,1.39,1.09,2.61.85.07.84-.5,1.21-.74,1.79,6.12,3.47,12.2,4.96,18.67l8.29,35.85,3.98,17.96,6.97,36.18,13.45.29,16.85,1.09,2.78-25.83,6.05-42.38c1.42-9.96,4.08-19.22,6.24-28.73,1.24-.44,3.15-5.07,2.95-6.33-.31-1.91.9-3.24,1.4-4.87l.9-2.94c.4-1.32.49-3.22,1.95-3.96,1.13-.58,1.92-1.69,1.27-2.98-.81-1.61,0-2.52.34-3.86.75-2.92,1.79-5.46,3.14-8.24.61-1.26.61-2.63,1.72-3.84.6-.65.06-2.45,1.25-2.8.68-.2,1.59.16,2.39.07-.25,1.76.18,2.87,1.07,4.34-1.02.44-2.23.62-2.55,1.65.07.62.89.11,1.65.11-.88,1.17-3.23,10.05-3.11,10.5.09.34-.29.87-.39,1.18-2.82,2.15-1.72,5.25-4.54,6.58,1.93.71.08,3.81-.04,3.9-.19.14-.57,0-1.01-.15-.77,1.11-.1,2.34-.15,3.7-.21,5.72-1.59,3.27-1.95,7.45-.21,2.36-1.39,4.7-2.27,6.83-.59,1.45.46,2.7.24,3.62l-1.43,5.88.52.74c.08.12-1.02.21-1.03.45-.05,1.31-.69,2.76-.85,4.14l-.53,4.54c-.07.63.07,1.4.46,1.64.31,1.84-.63,3.56-.58,5.39-.47-.26-.86.2-.8.7.03.23-.07.81.4.68-.1.19-.23.58-.32.77-1.08.45-1.13,1.46-1.37,2.5-.24,1.02-2.49,2.39-1.01,3.8-.77,1.02-.86,2.2-.1,3.49.35-.47.64-.8,1.12-.83-.04.23-.02.5-.02.73-.47-.1-.57.48-.75.77-.27.45.42.73.4,1.04l-.1,1.94c-.29.04-.66-.02-.97.09-.34.12-.36.62-.01.84.19.12.4.17.59.11l-2.95,23.88-.88,8.49c-.55,5.35-1.35,10.39-1.47,15.84,4.84.44,9.31,1.51,14.02,2.42l19.33,3.71c4.06-8.4,8.72-16.12,14.01-23.84,4.96-7.24,10.53-13.74,16.2-20.11,3.46,1.4,2.86-5.65,4.74-2.52.26-.84.98-1.46,1.85-1.69,1.33-.36,1.42-1.37,2.03-2.23,1.1-1.53,3.41-1.9,4.56-3.33.24-.3.25-1.51.9-1.68.34-.09.48-.04,1.15.19-1.02-1.67,4.87-3.12,5.78-3.01.13-.82-.6-.63-1.05-1.41.91-.12,1.84-.64,2.54-.61.65.65,1.33.76,2.12,1.9-1.56-.47-1.68.05-2.39.7-.89.82-.6,1.42-.33,2.94-1.13-.19-1.93.32-3.14.34-.62,1.6-1.94,2.53-3.4,3.55-.47.33-.03,1.96-.73,2.17-2.38.72-4.23,4.19-4.07,4.02-1.32,1.44-2.39,2.81-3.7,4.32l-2.37,2.73c-8.04,9.27-8.5,8.91-15.54,19.78l-1.66,2.57-2.28,3.61c-1.13,1.79-3.9,6.34-4.5,8.12-.53,1.58-2.6,3.3-1.77,5.48.14.38.74.36,1.32.49l9.9,2.3c2.31.54,4.18,1.11,6.21,2.24l4.53,2.53c2.06,1.15,3.53,2.63,5.18,4.08,1.87,1.65,2.54,3.14,3.15,5.47,1.14,4.38,2.53,8.57,3.37,13.06l.8,4.29.71,3.08c.62,2.7,1.65,5.41,1.35,8.2-.07.66-.87,1.16-.65,2.06.12.49,1.16.54,1.25,1.22-.14.64-.85-.2-1.05-.11-.2.1-.27,1.14-.03,1.28.98.56.91,1.91,1.24,2.92,3.91,12.02,1.74,12.49,3.73,21.48.52,2.34.67,4.73.88,7.15l1.01,11.51c.4,4.56.08,9.04.2,13.45-.17.2-.47.34-.62.46-.28.21-.32.7-.02.74.45.05.72.08.98.07-.18,1.9.29,3.99-.29,5.81-.34,1.06,0,2.31.08,3.51.05.63.07,1.8.25,2.38-.56-.09-.82.25-.86.65-.05.52.28.97.28,1.53,0,.69-.77.44-1.29.24-.43-.17-.62-.72-.62-1.53,0-.67-.75-.34-1.05-.27-1.33.32-.11,4.51-.23,5.8-1.88-.32-1.37-1.89-1.68-2.89-.28-.91-.67-1.27-.32-2.44.29-.97.11-2.75-1.01-2.74l.11-.8c.38-.03.78-.12,1.07-.4.31-.31.42-.99.21-1.54-1.4-3.61.74-8.18-1.76-7.9l-.04-12.07c.64,1.28.66-9.07-.4-6.44-.01-1.36-.38-2.71-.4-4.23l-.05-4.49c.58-.22.43-1,.5-1.56.07-.51-.12-1.36-.89-1.13.02-1.25,0-2.72-.11-4.12l-.36-4.58c.54.77.9-6.18-.85-5.49,0-.31.02-.66-.03-.97.55-.1.99-.74.73-1.44-.82-2.28-1.14-12.07-2.75-11.6-.21-1.34-.17-2.79-.06-4.11l.09-1.08c.03-.36-.25-.92-.84-.7-.08-.51-.05-1.06-.1-1.57l.42-.4c.18-.17,0-.41-.15-.52-.25-.18-.44-.27-.62-.08.09-1.61-1.42-12.25-2.14-13.88-.49-1.1-2.16.2-2.8.64-4.79,3.31-9.67,6.47-14.91,9l-10.88,5.27-12.95,5.11c-2.54,1-5.05,2.02-7.62,2.88-2.13.71-4.18,1.25-6.29,2.2-6.53,2.94-13.43,4.48-20.24,6.78-1.34.45-2.77.46-3.88.66.17-.36-.51-.45-.76-.39-1.71.84-3.39.31-5.14.6-.93.16-1.39.76-2.6.9l-4.14.47c-.04-.85-.39-2.31.24-3.12,1.61-2.09,4.31-2.61,6.8-2.9,1.45-.17,2.83-1.31,4.35-1.08,2.23.33,4.39.25,6.07-1.48-1.03-.5-2.35.13-2.71-.55,0-3.71-.85-7.32-.62-10.84.2-3.03-.66-11.96-.55-14.55l.76-17.8c.09-2.09-.23-4.06.27-6.21.39-1.64-.32-3.35-.79-4.83l-3.91-.29c-2.43-2.69-5.19-2.06-7.88-.93-2.28.95-5.09.27-7.46.32l-9.18.19c-1.41.03-1.61,2.72-1.32,3.84.7,2.67.4,4.96.13,7.51-.05.5,1.22,1.05.97,1.58-.28.58-.44,1.21-1.08,1.97-.67-.54-.98-1.36-1.42-2.21-1.64.38-.01,3.66-1.91,3.29l-1.53-9.5c-.19-1.19-.59-2.16-.55-3.38.02-.67-.66-2.01-1.06-2.5-.81-.99-2.73-.21-3.83-.05-2.3.33-4.42.36-6.73.58-3.39.32-6.65,1.08-10.03,1.73l-12,2.3-12.44,3.41c-2.08.57-14.11,3.42-14.37,4.16-.59,1.69-.56,4.38.28,6.04-.39-.77,2.68,3.87,2.18,4.56-.83,1.15-2.06,1.7-2.05,2.3.02,1.59,2.96,1.23,3.85,3.64,1.4,3.75,1.47,7.7,2.36,11.54l1.29,5.53c.14.6-.18,9,.28,10.63l1.9,6.79c.47,1.68,1.78,2.19,3.01,2.22l6.56.13c6.26.12,7.81.22,14.3-.4l9.34-.9c1.71-.16,3.29.04,4.77-.21,8.55-1.46,9.12.95,11.45.35.4-.1.28-1.09.66-1.38,1.84-1.36,6.79-.15,6.66-3.42l-.47-11.16-1.12-10.98c-.27-2.63-.99-5.3-.28-7.9.88-3.21,1.58-6.36,1.23-9.7-.04-.37.45-.81.67-.87.38-.1.93.36.96.85l.14,2.82c.15,2.92.73,5.53.43,8.49-.11,1.05,2.4,7.78.29,10.96-.4.61,1.1,1.36,1.11,1.88.16,4.93-1.92,5.91-1.4,8.41,2.6-.24,3.77,5.62,4.3,7.26.71.39,8.11,2.95,6.63,4.65-.36.41-1.46.54-1.09,1.33-.21.03-.45-.01-.65.06-.03-.43-.83-.53-1.35-.45l-7.58,1.16c-2.73.42-5.82,1.62-8.65.82-1.6-.45-2.05.52-3.27.64l-18.28,1.83c-.42.04-.62.4-.58.66h-1.17c-.06-.65-5.35-.87-4.4.39h-1.08c-.02-.23-.05-.41-.11-.59-.11-.31-.27-.32-.33,0l-.12.6c-.44.15-1.15-.17-1.56.06.66-.55-4.44-1.01-3.5.36-.67.03-1.34.03-2.01.02-.01-.35-.36-.81-.93-.84-.96-.05-1.97.24-2.51.81l-.75-.03c.2-.33-.01-.68-.34-.76.44.1-1.62.02-2.07-.03-.47-.04-.92.34-.71.81l-1.96.05c-.16,0-.33,0-.49,0-.38-.03-.79.03-1.17-.03-.19-.14-.33-.14-.52-.02l-1.61.03c-.16,0-.33,0-.49,0h-3.72c-.19,0-.28-.08-.5-.01-.5.14-1.07-.07-1.58,0-.03-.24-.07-.44-.12-.6-.07-.24-.29-.36-.56-.24-.24.1-.2.62-.29.84-1.16.14-2.45-.05-3.63-.03,1.2-1.1-5.34-1.2-6.14-1.22l-7.02-.2c-2.81-.08-5.36-.67-8.12-.86-5-.34-9.76-.48-14.71-1.78l-6.8-1.79c-1.87-.49-4.13-1.19-5.88-1.93-1.95-2.03-4.6-4.41-7.78-3.57-2,.25-1.25,10.7-1.18,12.9.05,1.67-.44,3.38.03,5.04.55,1.93.1,3.73-.08,5.64l-.44,4.65-.36,5.91c-.1,1.71.04,3.28,0,5.04l-.3,17.21c-.03,1.66.14,3.08.05,4.73l-.41,7.95-.41,4.29c-.05.53-1.63.51-1.93.52.01-1.56-.26-2.28-1.36-3.14,3.74-1.81-1.38-4.39.29-8.67-.6-.71-1.31-1.45-1.38-2.65l-.25-4.22c-.03-.54.03-1.14,0-1.69.25-.16.53-.36.64-.78.08-.3-.26-.47-.62-.47-.27-2.46.44-21.3.82-22.64l1.11-3.88.59-10.87c.29.26.78.43.97.13.15-.25.42-.76.33-1.12-.43-1.67-.14-3.01-.2-4.62l-.13-3.18c-.04-.97-.67-1.08-1.04-1.44-.83-.81-.59-2.19-.46-3.4.42-3.92-.41-7.8.37-11.68.98-4.84,3.13-9.41,5.49-13.59,1.49-2.64,3.76-4.17,5.57-6.19,3.01-3.36,11.31-7.23,13.38-9.17,1.29-1.21.36-3.77-.39-5.15l-3.57-6.61c-.74-1.37-1.38-2.88-2.1-4.2l-1.64-3c-.71-1.3-1.49-2.38-2.23-3.68l-2.77-4.86c-1.17-2.07-2.54-4.15-2.98-6.44-.38-.42-1.65-.69-1.74-1.47-.21-1.95-1.65-2.98-2.62-4.38l-2.93-4.23c-1.64-2.36-2.87-4.53-4.89-6.58-.96-.98-6.79-10.11-11.03-14.64-1.11-1.19-2.18-2.62-3.14-3.91-.91-1.23-1.96-2.01-2.87-3.07l-2.72-3.19c-1.64-1.91-2.81-3.77-4.65-5.55-1.6-1.54-3.93-3.03-4.97-5-.83-1.58-1.69-2.62-3.21-3.15-.59-.29-1.53-1.38-2.02-1.89l-2.89-3c-1.51-1.57-3.01-3.53-5.04-4.5-4.49-2.13-2.46-2.3-6.52-5.34-.94-.7-1.68-1.33-2.57-2.04l-10.07-8.03c.78-1.13,1.32-2.34.53-3.51-1.12.46-.85,1.49-1.42,2.27-.43.59-1.7.03-2.01-.56-.31-.58-.12-1.32-.71-1.11-.43.15-.96-.29-1.11.11-.15.4-.05.81-.07,1.12-1.15-.07-1.93-1.37-2.83-1.76.31-.14.62-.16,1.3-.7-1.54-.13-2.36-1.64-3.77-2.3-1.77-.83-3.47-1.81-3.73-3.91-.93-.1-1.98-1.06-2.76-1.2-1.12-.2-1.98-.2-2.37-1.38-.21-.62-.11-2.14.53-2.26.36.25.56.72.81.62.28-.11.3-.6.58-.75.56-.31.67.28.55.59-.12.33-.14.6-.24.98.67-.05.79-.55,1.51-.75.51,1.25,1.69,1.16,2.62,1.66,2.24,1.2,4.16,2.64,6.24,4.02.24.16.07,1.16.29,1.1l1.11-.27,6.76,4.45c1.8,1.18,10.47,5.88,10.21,8.32.47.07,1.07-.33,1.5-.1.45.24.63.74,1.13,1.24.47-.29.43-.69.54-.95,1.39,1.28,3.23,2.04,4.95,3.48,7.19,5.96,13.85,12.08,20.26,18.95,20.32,21.81,37.17,46.09,50.59,72.71l5.03,9.99c2.43-.45,4.19-1.75,6.35-2.63l16.34-6.67c-3.87-12.56-8.42-24.17-13.26-36.08-6.03-14.82-13.39-28.65-20.34-42.77.23-.05.58-.12.64-.32.05-.19-.07-.42-.23-.62-1.35-1.62.76-2.72-.01-4.29.2.4-1.6-1.72-2.67-1.4-.62-1.08-2.01-2.26-2.58-3.37l-1.57-3.1c-.95-1.87-7.45-10.39-6.85-12.41.11-.37.65-.92.47-1.29-.13-.26-.41-.72-.84-.62-.23.05-.58.5-1,.78-.78-.63-1.65-1.51-2.32-2.5l-8.29-12.24c.17-.54.85-1.01.41-1.61-.6.42-.25,1.08-.94,1.32-.55-.67-.26-1.53.03-1.99.21-.33,1.18-.55,1.28-1-.45-.74-.93-1.92-1.61-2.26l-1.22-.61c-.18-.09.36-1.07.19-1.25-.78-.79-2.66-.66-3.57.45-.85-.72-.16-1.46-.31-2.07-2.71-1.2-5.12-3.76-5.55-6.75-.53-.04-1.07.12-1.45-.02-1.2-.43-1.51-3.39-1.72-3.67-.32-.42-1.35-.16-1.53-.68-.35-1.01.84-2.4.11-2.59-.99-.26-2.36.49-2.67.06-.21-.29.06-.96-.14-1.21-1.12-1.4-1.47-2.84-2.03-4.4-.32-.88-4.89-.45-4.61-3.67.07-.8.55-1.47,1.03-1.5,1.34-.09,2.09,2.39,3.36,3.28.77.54,2.63-.38,3.33.52.39.51,4.56,5.09,4.86,3.6.11.22.51.43.56.7-.22.42-.58.94-.48,1.51.07.37,1,.29,1.22.63.61.97,2.96,3.99,3.3,2.52.11.25.59.48.61.81-2.38,1.79,2.96,1.39,1.26,5.37,5.33,1.94,4.64,6.05,7.61,5.61l.02.34c-1.28.89.5,1.53,1.52,3.36.36-.14.36-.54.49-.78.86.42,1.45,1.23,1.71,2.15-.25.16-.93.19-.79.61,0,.03,1.49,2.13,2.07,1.1.14.15.49.43.3.7-.99,1.44,2.05,3.33,2.48,3.08,11.82,15.11,27.54,42.65,35.56,60.54l8.48,18.92,6.24,16.09,7.16,20.89c19.5-6.32,37.73-11.53,58.33-12.41-1.08-7.21-2.13-13.44-3.57-20.17l-10.96-50.94-8-32.97c.37-.19.58-.53.78-.89.25-.47.03-.91-.27-1.41.67-.24,1.45-.73,1.53-1.46-1.24-.77-1.02-2.77-1.9-3.53l-1.24-1.06c-.36-.3,0-1.12.07-1.78.07-.6-.88-.76-.98-1.28-.58-2.94-1.12-5.69-1.45-8.67-1.94-.68-.76-2.4-1.08-3.61-.34-1.29-2.11-2.64-1.08-4.47-1.68-2.71-.27-4.84-.91-7.13-.51-1.82-1.52-4.49.2-5.98,1.06-.44.63,1.67.93,2.14.64.99,1.9,2.18.87,3.51,1.52.54,1.25,2.03,1.85,2.98.67,1.07.04,1.49,0,2.38l-.2,4.86c1.2.23,2.21.91,2.24,2.04.03,1.31.84,1.75,1.54,2.63.58.72.62,1.92,1.7,1.85M288.37,193.52c-.37.52.1.9.53.76.17-.05.48.13.64-.23.14-.3-.06-.64-.23-.62-.25.03-.78-.14-.93.08M127.27,230.76c.05.68.45.72.69.59.23-.12.33-.39.21-.63-.11-.24-.47-.47-.91.04M207.48,239.86c-.39.52.16.88.51.77.18-.06.5.12.65-.23.13-.3-.06-.64-.23-.62-.28.03-.77-.14-.94.09M216.23,257.68c0-.12-.09-.21-.21-.21s-.21.09-.21.21.09.21.21.21.21-.09.21-.21M363.25,379.01l13.81-4.94c.47-.17,1.61-.7,1.74-1.33,2.55-12.48,6.08-24.52,10.71-36.41-1.18-1.32-2.66-1.27-4.16-1.56l-11.56-2.22-14.45-2.1-.48,9.02-.41,10.89c-.18,4.85-.32,9.65-.09,14.57l.37,7.97c.1,2.24.59,4.38.28,6.64,1.54.39,2.74,0,4.24-.54M424.64,351.3c1.21-.97,1.09-2.55.16-3.72-2.69-3.36-6.36-5.48-10.5-6.77-4.48-1.39-8.87-2.39-13.51-3.34-.77-.16-2.03-.09-2.42.6-2.22,3.97-3.33,8.16-4.94,12.37-.95,2.48-5.98,17.78-4.6,18.65,1.23.77,12.15-4.77,14.2-5.71,6.73-3.07,15.97-7.58,21.6-12.08M234.1,369.24c.34,1.53,1.52,2.68.33,4.31-.25.34-.08,1.12.24,1.31.2.13.9.18.89.44-.02.64-.65,1-.53,1.42.32,1.11,1.29-.07,1.09,3.71,3.1-.05,2.71,5.94,2.75,7.99.04,2.03,2.28,3.71,3.99,4.11.45.84.24,1.64.72,2.27,1.61.11,2.68-.7,4.19-.77.56,1.28,2.76,2.23,3.6,1.08.55-.76.35-1.88,1.12-2.28.75-.4,1.46-.18,2.24-.06l3.12.48c.92.14,2.51-.97,3.49-1.19,1.14-5.94.96,1.26,2.96-7-2.05-.53-1.36,3.13-2.72,2.47-.21-.1-.49-.8-.42-1.08.59-2.32-.47-4.22-.63-6.32-.15-2.02-.15-3.6-1.03-5.38-1.57-3.17-1.77-6.78-2.44-10.17l-1.31-6.65c-.23-1.15-3.21-11.62-3.25-12.48-.05-1.05.35-1.86-.26-2.45-1.98-1.91-5.67.25-8.6,1.3-1.03.37-2.14.4-3.14,1.03-1.92,1.2-4.08,1.61-6.11,2.5-1.96.87-3.69,1.96-5.91,2.4-1.29.26-1.14,2.52-1.92,2.99-1.48.89-3.63.19-5.31.68-1.85.54-9.7,5.97-11.6,7.79-1.76,1.69-6.26,8.42-7.09,11.32-.83,2.9-.08,6.48,1.81,8.72,2.05,2.43,4.38,4.64,7.37,5.56,5.55,1.69,5.39,1.61,10.98,2.8l2.92.63c1.52.32,2.98-.13,4.65.6,1.46.64,5.01.62,5.56-1.09.18-2.81-1.52-5.46-1.96-8.07-.43-2.58-2.8-8.68-3.9-12.53-.46-1.61-.49-3.15-1.23-4.79-.63-1.4.06-4.31,1.35-3.95,1.57.43,1.58,2.76,2.17,3.64.94,1.43,1.42,2.95,1.81,4.7M234.41,375.89c-.03-.63-.94-.63-.97,0-.05,1.13,1.02,1.13.97,0M195.59,378.6c0-.12-.09-.21-.21-.21s-.21.09-.21.21.09.21.21.21.21-.09.21-.21M199.85,383.02c0-.26-.21-.47-.47-.47s-.47.21-.47.47.21.47.47.47.47-.21.47-.47M196.06,385.55c0-.26-.21-.47-.47-.47s-.47.21-.47.47.21.47.47.47.47-.21.47-.47M195.84,388.31c.02-.61-.16-.67-.47-.44-.02.02-.73,1.33-.44,1.46.19.08.65.43.77.28.15-.2.13-.75.14-1.29M442.95,445.38c0-.26-.21-.47-.47-.47s-.47.21-.47.47.21.47.47.47.47-.21.47-.47M441.52,448.21c-.47.24-.31.69,0,1.21.12.21.46,0,.64-.28.15-.23.39-.47.14-.8-.17-.21-.43-.3-.77-.13"/><path class="i" d="M444.6,115.51l-2.89-6.25c-2.75-13.91,7.58-26.59,19.22-31.7,3.48-1.53,6.9-1.77,10.6-1.71,7.45.12,14.19,3.3,18.32,9.52,2.43,3.65,2.98,7.96,2.79,12.4-.26,5.9-2.87,10.97-6.31,15.64-4.86,6.6-12.01,10.62-20.23,11.45-9.5.96-16.29-1.66-21.5-9.36"/><path class="e" d="M600.59,220.77c.37-4.8,1.8-5.97,2.44-9.98,7.74-12.73,22.49-19.56,36.17-11.29,8.83,5.34,11.4,14.66,7.83,24.18-2.48,6.61-7.7,11.64-13.84,15.07-6.65,3.71-14.12,3.49-21.09.82-7.92-3.03-12.45-10.53-11.5-18.8"/><path class="f" d="M603.03,210.79c-.64,4.01-2.07,5.19-2.44,9.98-.49-.96-1.31-1.61-2.63-1.36-1.09.2-1.98-.23-3.07-.27-16.74-.67-33.23.68-49.66,3.97-7.07,1.42-13.61,3.03-20.28,5.49-6.89,2.54-13.52,4.82-20.15,8.1-9.26,4.58-18.02,9.41-26.64,15.06l-8.9,5.83c-3.34,2.19-6.56,4.33-9.64,6.87-2.11,1.74-4.54,3-6.47,4.87-1.97,1.91-4.47,3.21-6.9,5.4l-9.91,8.98c-1.94,1.75-3.47,3.56-5.2,5.38l-6.81,7.16c-5.18,5.45-16.41,22.29-19.5,29.42-.52,1.2-2.05,2.11-1.64,4.02,3.36,1.05,6.86,1.64,10.42,2.25,3.22.56,6.13,2.48,9.23,3.87,3.87,1.74,6.85,4.81,9.76,7.8.94.97.78,2.18,1.12,3.49,2.86,11.21,5.22,22.2,7.11,33.64,1.77,10.73,3.54,20.89,4.51,31.77,1.19,13.33,1.94,26.22,1.65,39.56-.05,2.13.31,3.91-.16,6.01-.52,2.32.56,7.94-.86,8.77-.82-5.83,1.14-12.39-.12-16.86-.18-.57-.2-1.75-.25-2.38.85-.86,1.11-2.84-.08-3.51.58-1.82.11-3.91.29-5.81.04-.44.02-.96-.34-1.27-.12-4.41.2-8.88-.2-13.45l-1.01-11.51c-.21-2.41-.36-4.81-.88-7.15-1.99-8.99.17-9.46-3.73-21.48-.33-1.01-.26-2.36-1.24-2.92-.24-.14-.17-1.18.03-1.28.2-.1.91.75,1.05.11-.08-.67-1.12-.72-1.24-1.22-.22-.9.58-1.41.65-2.06.29-2.79-.73-5.51-1.35-8.2l-.71-3.08-.8-4.29c-.84-4.5-2.23-8.69-3.37-13.06-.61-2.33-1.28-3.82-3.15-5.47-1.65-1.45-3.12-2.92-5.18-4.08l-4.53-2.53c-2.03-1.14-3.9-1.71-6.21-2.24l-9.9-2.3c-.57-.13-1.17-.11-1.32-.49-.83-2.18,1.23-3.9,1.77-5.48.6-1.78,3.37-6.33,4.5-8.12l2.28-3.61,1.66-2.57c7.04-10.88,7.5-10.52,15.54-19.79l2.37-2.73c1.31-1.51,2.38-2.88,3.7-4.32-.16.18,1.69-3.29,4.07-4.02.71-.21.27-1.85.73-2.17,1.46-1.02,2.78-1.95,3.4-3.55,1.21-.03,2.01-.54,3.14-.34-.27-1.52-.56-2.12.33-2.94.71-.65.83-1.17,2.39-.7-.79-1.14-1.47-1.25-2.12-1.9-.7-.03-1.63.49-2.54.61.45.78,1.18.58,1.05,1.41-.91-.1-6.79,1.34-5.78,3.01-.67-.23-.81-.28-1.15-.19-.65.17-.66,1.38-.9,1.68-1.15,1.43-3.46,1.8-4.56,3.33-.61.86-.7,1.87-2.03,2.23-.87.24-1.59.85-1.85,1.69-1.88-3.13-1.28,3.91-4.74,2.52l3.55-3.99c13.07-14.68,51.71-40.28,70.39-49.56,19.13-9.51,39.1-15.78,60.38-18.37,11.15-1.36,21.97-2.22,33.08-1.97,4.17.09,8.09.57,12.02.27M441.64,269.48c0-.12-.09-.21-.21-.21s-.21.09-.21.21.09.21.21.21.21-.09.21-.21"/><path class="h" d="M82.8,98.51l-4.31,4.75c-1.31-.23-1.72.73-2.65,1.25-7.98,4.46-18.07,3.83-25.42-1.93-5.01-3.92-8.08-9.9-9.11-16.04-1.43-8.54,2.28-16.3,9.87-20.25,8.1-4.22,17.6-3.1,24.82,2.38,9.78,7.43,13.2,18.98,6.81,29.84"/><path class="g" d="M42.67,186.79l-.64,1.85c-.56,1.66-1.86,3.02-1.91,4.69-2.45,3.33-5.22,6.36-9.13,7.67-1.91.64-4.4,1.27-6.45,1.17-10.32-.52-23.01-9.11-24.35-18.75-.8-5.78,1.2-10.17,4.47-14.47,1.9-2.49,4.08-4.19,6.78-5.95,5.41-3.52,12.35-4.88,18.34-1.7,4.7,2.49,8.85,6.06,11.36,10.83,2.39,4.54,1.91,9.82,1.54,14.66"/><path class="f" d="M210.78,36.71c-2.22,1.26-1.96,2.24-5.56,4.21-12.19,6.32-25.8-2.1-29.45-14.21-1.54-5.09-.62-10.12,2.14-14.54,5.83-9.33,17.81-16.41,28.36-9.24,5.29,3.6,9.03,9.36,10.19,15.69,1.24,6.82-1.4,12.76-5.67,18.09"/><path class="f" d="M294.29,197.64c-1.08.06-1.13-1.13-1.7-1.85-.7-.88-1.51-1.32-1.54-2.63-.03-1.13-1.04-1.82-2.24-2.04l.2-4.86c.04-.88.67-1.31,0-2.37-.6-.95-.33-2.44-1.85-2.98,1.03-1.33-.22-2.52-.87-3.51-.3-.47.13-2.58-.93-2.14-1.72,1.49-.71,4.17-.2,5.98.64,2.29-.76,4.42.91,7.13-1.03,1.83.74,3.18,1.08,4.47.32,1.21-.86,2.93,1.08,3.61.33,2.98.87,5.73,1.45,8.67.1.52,1.06.68.98,1.28-.08.66-.43,1.48-.07,1.78l1.24,1.05c.89.75.67,2.75,1.9,3.53-.07.73-.86,1.22-1.52,1.46.31.5.53.93.27,1.41-.19.36-.41.71-.78.89l-12.43-43.03c-4.5-15.56-12.8-36.86-19.66-51.63-7.33-15.77-14.31-26.71-23.77-41.09-4.73-7.19-9.73-13.65-14.99-20.43l-13.81-17.78c-.58-.75-.94-1.53-1.82-1.64,3.6-1.97,3.34-2.95,5.56-4.21,3.24,3.56,6.15,7.39,9.23,11.35l13.47,17.29c4.94,6.34,9.29,12.76,13.77,19.49,11.37,17.07,20.92,36.57,28.56,55.62,6.21,15.5,14.5,41.32,18.47,57.19M285.33,188.58c0-.12-.09-.21-.21-.21s-.21.09-.21.21.09.21.21.21.21-.09.21-.21"/><path class="f" d="M176.59,188.86c-.3,1.49-4.46-3.1-4.86-3.6-.7-.9-2.56.02-3.33-.52-1.27-.89-2.02-3.36-3.36-3.28-.49.03-.96.7-1.03,1.5-.29,3.22,4.29,2.79,4.61,3.67.56,1.55.9,2.99,2.03,4.4.2.25-.06.92.14,1.21.31.44,1.68-.31,2.67-.06.73.19-.46,1.58-.11,2.59.18.52,1.22.27,1.53.68.21.28.52,3.24,1.72,3.67.37.13.92-.02,1.45.02.43,2.99,2.84,5.55,5.55,6.75.15.61-.53,1.35.31,2.07.91-1.12,2.79-1.25,3.57-.45.18.18-.37,1.16-.19,1.25l1.22.61c.67.33,1.16,1.51,1.61,2.26-.1.45-1.07.67-1.28,1-.3.46-.58,1.32-.03,1.99.7-.24.34-.9.94-1.32.44.6-.24,1.08-.41,1.61l8.29,12.24c.66.98,1.54,1.87,2.32,2.5.43-.27.77-.72,1-.78.43-.1.71.36.84.62.18.36-.36.91-.47,1.29-.6,2.02,5.9,10.54,6.85,12.41l1.57,3.1c.56,1.12,1.96,2.29,2.58,3.37,1.07-.32,2.86,1.8,2.67,1.4.77,1.57-1.34,2.67.01,4.29.16.2.28.44.23.62-.05.2-.41.27-.64.32-13.45-22.75-27.79-44.45-45.63-64.34l-9.82-10.94-17.85-18.81c-15.4-16.23-31.47-31.3-48.05-46.24-3.98-3.59-7.71-6.82-11.9-10.07-1.07-.83-2.16-1.6-2.83-2.61l4.31-4.75c6.28,4.5,12.19,9.49,18.21,14.66,8.04,6.89,15.62,13.65,23.1,21.12l18.74,18.72,18.17,18.49c1.66,1.68,2.94,3.47,4.7,5.04,1.8,1.6,3.26,3.43,4.87,5.23,2.12,2.38,4.6,4.4,6,7.1"/><path class="f" d="M444.6,115.51l-12.6,10.09c-3.25,2.61-5.9,5.52-8.87,8.42-9.34,9.14-19.08,21.41-25.42,32.86-5.86,10.57-10.92,21.19-14.79,32.66-.27.8-.56,1.59-1.08,1.94-.12-.45,2.23-9.34,3.11-10.5-.75,0-1.58.51-1.65-.11.32-1.03,1.53-1.21,2.55-1.65-.89-1.47-1.32-2.58-1.06-4.34-.8.09-1.71-.27-2.39-.07-1.19.36-.65,2.15-1.25,2.8-1.11,1.2-1.11,2.58-1.72,3.83-1.34,2.78-2.39,5.32-3.14,8.24-.34,1.34-1.15,2.25-.34,3.86.65,1.29-.13,2.4-1.26,2.98-1.46.74-1.55,2.64-1.95,3.96l-.9,2.94c-.5,1.63-1.7,2.96-1.4,4.87.2,1.25-1.71,5.88-2.95,6.33,3.53-15.59,8.67-30.5,15.49-45.27,6.34-13.71,13.86-26.7,23.67-38.21,10.37-12.17,21.84-23.3,35.06-31.89l2.89,6.25Z"/><path class="f" d="M144.65,239.31c-.11.26-.07.66-.54.95-.5-.5-.68-1-1.13-1.24-.43-.23-1.02.17-1.5.1.26-2.44-8.41-7.14-10.21-8.32l-6.76-4.45-1.11.27c-.22.05-.05-.95-.29-1.1-2.07-1.37-4-2.81-6.24-4.02-.93-.5-2.11-.41-2.62-1.66-.72.2-.84.7-1.51.75.1-.38.12-.64.24-.98.12-.32,0-.9-.55-.59-.28.15-.3.64-.58.75-.25.1-.45-.37-.81-.62-.64.12-.74,1.64-.53,2.26.4,1.18,1.25,1.18,2.37,1.38.78.14,1.83,1.1,2.76,1.2.25,2.1,1.96,3.08,3.73,3.91,1.41.66,2.24,2.17,3.77,2.3-.67.54-.99.56-1.3.7-3.07-1.35-5.72-3.4-8.82-5.16l-25.52-14.48c-11.27-6.4-22.9-11.17-35.32-14.86-4.17-1.24-7.98-2.49-12.06-3.08.06-1.67,1.35-3.03,1.91-4.69l.64-1.85c1.78-.2,3.34.63,5.24,1.11,14.77,3.76,28.73,9.38,42.05,16.83l16.79,9.38c11.64,6.5,23.81,12.2,33.5,21.14l4.41,4.06Z"/><path class="f" d="M184.22,741.18c.5.21.83.92.76,1.74-.72,8.28-.7,16.3,4.05,23.36,2.05,3.04,4.94,5.44,7.63,7.87-.36-.32,5.07,2.52,6.38,3.82,1.53,1.53,3.9,1.49,5.8,2.25,4.97,1.97,4.55,2.96,11.09,2.87,1.84,1.12,7.49,3.19,9.75,3.18,2.23,0,4.41.28,6.41,1.24,4.45,2.15,11.56,2.53,12.86,2.87l3.94,1.05c1.8.48,8.27,1.16,9.88,1.02,4.21-.36,10.19,1.65,15.8,1.67,3.17.01,5.96,1.17,8.96,1.56,4.98.65,8.05,1.96,12.36,1.72,2.62-.15,4.85-.34,7.44.12,2.11.38,4.22-.18,6.31.46,5.77,1.77,18.34,1.05,24.8.56,1.94-.15,3.81-.15,5.49-1,.72-.16,2.18,1.01,2.98.18,1.35-1.39,2.97-.58,4.4-.75,2.1-.24,4.02-.94,6.11-.98,1.49-.03,3.48.69,4.67-.42,1.24-1.16,2.21-1.18,3.78-1.23,2.02-.06,4.05-.48,6.12-.42,1.22.04,2.61-1.56,3.92-1.29,3.76.79,5.11-.49,9.78-1.47,2.09-.44,3.52-1.28,5.36-1.94l9.67-3.48c2.45-.88,4.46-2.74,7.11-2.81,1.18-2.34,3.31-2.31,5.36-2.38l4.11-2.26c7.44-4.09,1.34-2.6,6.18-4.85,3.08-1.43,5.27-4.82,7.05-7.51,1.93-.73,4.9-4.73,6.26-6.94,1.92-3.12,4.66-5.88,5.43-9.6.51-2.44,3.02-5.57,3.32-14.05.12-3.34,1.42-8.26,1.43-8.48.2-3.66,1.06-6.98,1.32-10.63l.49-7.08c.17-2.38-.25-4.82.11-7.19.24-1.6.75-2.98.35-4.64-.07-.29.34-.56.52-.41-.03,2.51.13,5.27.1,8l-.06,4.94-1.77,19.71c-.4,4.5-1.21,8.83-2.46,13.16l-1.51,5.24c-.28.97-.79,2.33-1.29,3.22l-3.92,7.05c-5.21,9.36-16.11,18.75-26.13,23.56-9.55,4.59-19.3,8.24-29.61,11.02-10.29,2.77-21.02,4.24-31.63,5.93,1.58-.25-10.5.84-8.82.82-3.92.06-7.58-.02-11.47.31-3.1.26-6.34,0-9.42-.08l-10.77-.29-8.3-.45c-4.67-.25-9.09-.87-13.68-1.49l-15.63-2.09-6.6-.93-12.85-1.95-5.16-.75-11.38-2.42-12.23-2.99c-5.88-1.44-11.51-3.02-17.16-5.11-7.74-2.86-16.07-7.27-20.28-14.62-1.27-2.22-2.7-4.35-3.11-7.01-.96-6.24-1.26-12.51-.4-18.55"/><path class="f" d="M194.67,392.3l.07,10.23-.59,10.87-1.11,3.88c-.38,1.34-1.09,20.17-.82,22.64-.27.42-.04.84-.02,1.25.03.55-.04,1.15,0,1.69-1.28,1.94-.62,4.5-.74,6.84-.05.95-.58,8.49-.58,8.31-.25,0-.43-.15-.48-.31.23.71.24-10.98.25-11.89.01-1.25.76-2.41.49-3.8-.29-1.46.13-2.88.19-4.32l.38-10.37-.03-3.97c-.03-4.59.6-9.01.78-13.67l.91-22.85c.15-3.89-.16-7.61.61-11.4,1.56-7.71,5.95-14.1,11.7-19.36,3.99-3.66,8.59-6.03,13.48-8.66l-7.48-14.5c-2.61-5.06-5.24-9.64-8.19-14.62-10.75-18.16-23.39-34.83-37.72-50.24-2.15-2.32-9.04-9.54-10.99-11.07-1.78-1.4-3.3-3.15-5.06-4.65l-7.02-5.99c-5.16-4.4-10.6-8.19-16.16-12.07-.73-.51-1.59-.87-1.84-1.57.02-.31-.08-.72.07-1.12.15-.4.67.05,1.11-.11.59-.21.4.53.71,1.11.31.59,1.58,1.15,2.01.56.57-.78.3-1.81,1.42-2.27.79,1.17.24,2.38-.53,3.51l10.07,8.03c.89.71,1.63,1.33,2.57,2.04,4.07,3.03,2.03,3.21,6.52,5.34,2.03.97,3.53,2.93,5.04,4.5l2.89,3c.5.52,1.44,1.6,2.02,1.89,1.52.53,2.38,1.56,3.21,3.15,1.03,1.97,3.37,3.46,4.97,5,1.84,1.78,3.02,3.63,4.65,5.55l2.72,3.19c.91,1.06,1.96,1.84,2.87,3.07.96,1.29,2.03,2.73,3.14,3.91,4.25,4.53,10.07,13.66,11.03,14.64,2.02,2.06,3.25,4.22,4.89,6.58l2.93,4.23c.97,1.4,2.41,2.43,2.62,4.38.09.77,1.36,1.05,1.74,1.47.45,2.3,1.81,4.38,2.99,6.44l2.77,4.86c.74,1.3,1.52,2.37,2.23,3.68l1.64,3c.72,1.32,1.36,2.82,2.1,4.2l3.57,6.61c.74,1.38,1.68,3.94.39,5.15-2.07,1.94-10.37,5.82-13.38,9.17-1.81,2.02-4.08,3.55-5.57,6.19-2.37,4.18-4.52,8.75-5.5,13.59-.78,3.88.04,7.76-.37,11.68-.13,1.21-.36,2.58.46,3.4"/><path class="f" d="M189.75,492.09l.23,11.02c.03,1.42.1,2.84-1.08,3.74l-3.28-3.56c-2.36-2.56-4.71-4.99-7.33-7.35l-4.83-4.34c-4.54-4.09-10.98-9.23-16.08-12.33-3.08-1.87-5.71-4.37-8.63-6.46l-2.75-1.97c-4.27-3.05-8.57-5.65-13-8.4l-7.53-4.68c-3.27-2.03-6.92-3.54-10.61-4.91-4.02-1.49-8.12-2.14-12.25-3.1-6.02-1.4-11.85-.73-17.34,2.47-3.89,2.28-5.46,7.71-2.97,11.59.8,1.24,1.1,2.89,2.08,3.88,1.41,1.44,2.29,3,3.42,4.69,1.18,1.76,3.17,3.15,2.89,5.93-4.32-1.58-8.28-2.27-12.31-1.84-.16-2.01,8.96-.17,10.59.07-.28-1.76-1.62-2.65-2.44-3.85l-3.71-5.47c-2.16-3.18-3.37-7.28-2.28-11.02.82-2.82,3.5-4.65,5.91-5.66,12.53-5.23,19.45-.42,31.67,2.1,5.44,2.46,10.43,5.65,15.65,8.65,1.25.72,2.29,1.05,3.33,2.15,1.39,1.47,3.48,2.18,5.15,3.36l4.4,3.08c1.6,1.12,2.99,2.35,4.67,3.36,2.63,1.57,4.73,3.66,7.25,5.4,1.35.93,2.76,1.8,4.07,2.67l4.08,2.68,5.09,4.11,4.53,4.32,1.94,1.9,6.42,6.18c1.33,1.28,2.6,2.41,3.73,4.17,1.9-3.77-.43-9.18,1.3-12.57"/><path class="f" d="M547.85,557.56c.08.76-3.79,3.01-4.48,3.42l-9.51,5.66-7.64,4.09-6.17,3.51c-2.63,1.5-5.31,2.94-8.11,4.07-3.41,1.38-6.47,2.99-9.76,4.56-4.32,2.06-8.6,3.73-13.03,5.59l-20.11,8.46-12,4.91c-1.42.58-2.37,1.53-2.37,3.26l.05,13.47c0,.6-.24,1.01-.47,1.3-.24.12-.35-.21-.35-.51l-.08-11.82c-.01-1.6-.48-3.86.84-5.06.86-.78,2.31-1.44,3.4-1.91l3.68-1.6c2.43-1.06,4.91-2.09,7.41-2.99,6.94-2.5,10.81-5.6,16.94-7.41l4.63-1.37c3.34-.99,6.4-2.78,9.57-4.3l5.79-2.77,14.63-7.19c1.63-.8,2.98-1.84,4.58-2.66,5.36-2.74,10.56-5.47,15.65-8.75,1.58-1.02,3.26-1.76,4.72-2.88.75-.58,1.25-1.41,2.21-1.11"/><path class="f" d="M77.64,476.53c-1.87,1.82-3.2,1.48-5,4.69-1.33,2.38-2.55,4.55-2.49,7.38.06,2.89.52,5.35,1.7,8.02,1.06,2.41,1.95,5.69,3.91,8.29.89,1.18,1.23,2.86,2.38,3.93,2.62,2.42-4.5,5.3-4.77,16.44-.15,6.43,1.18,11.26,6.25,15.32,1.54,1.23,2.33,3.1,4,4.07,1.05.61,13.47,11.7,16.98,12.12.9,2.67,3.58,3.18,5.43,4.67,3.35,2.7,3.43,1.46,7.79,6.07,1.45,1.54,3.01,2.56,4.66,3.81.96.73,1.54,1.81,2.8,2.33.89.36,1.69,1.06,1.9,1.87-2.25-.69-3.82-2.56-5.74-4.07l-3.98-3.13c-1.13-.89-2.19-1.73-3.36-2.58l-7.6-5.5-5.09-3.71c-1.34-.98-2.8-1.6-4.05-2.71l-2.9-2.58-9.16-7.66c-4.28-3.57-8.1-7.71-8.8-13.57-.68-5.66-.02-11.12,2.93-16.22.62-1.07,2.42-2.47,2.13-3.9-.69-2.35-3.07-3.89-3.96-6.15-1.47-3.75-3.17-7.35-4.2-11.32-.6-2.3-.09-5.04.03-7.33.16-3.08,4.84-8.75,8.19-8.61"/><path class="f" d="M522.96,476.42l-7.98-1.97c-1.82-.45-9.14.37-11.12.8-7.9,1.72-6.79,1.47-13.46,4.57l-10.09,4.68-5.53,3.4c-1.15.71-2.85,1.48-3.86,2.37-3.22,2.83-6.79,4.63-10.05,7.21l-10.09,7.98c-1.89,1.5-3.85,2.51-5.48,4.27-.78.84-2.28,1.05-3.28,1.66-.42-1.48-.29-2.59.17-3.61.73.1.5,1.16.83,2.11,2.77-1.84,5.46-3.63,8.06-5.74l6.02-4.9c1.23-1,2.45-2.03,3.72-2.96,2.4-1.77,5.01-3.14,7.23-5.09,4.16-3.64,15.64-9.49,20.99-11.75l4.76-2.01c6.84-2.89,23.41-6.25,29.13-1.01"/><path class="f" d="M368.85,252c-.4-.24-.54-1.01-.46-1.64l.53-4.54c.16-1.37.8-2.82.85-4.14,0-.24,1.11-.33,1.03-.45l-.52-.74,1.43-5.88c.23-.93-.83-2.18-.24-3.62.88-2.13,2.06-4.47,2.27-6.83.36-4.18,1.74-1.73,1.95-7.45.05-1.37-.62-2.59.15-3.7.43.15.82.29,1.01.15.12-.09,1.98-3.18.04-3.9,2.82-1.33,1.72-4.43,4.54-6.58-4.85,15.36-9.06,30.85-11.68,46.95-.16,1-.35,1.85-.9,2.37"/><path class="f" d="M566.35,503.35c-1.91,1.21-4.38,1.07-6.7,2.11-1.7-3.5,2.9-5.46-3.25-10.11-1.81-1.37-3.18-2.28-5.36-2.88-12.54-3.46-13.73-.25-17.61-1.52.28-.83,1.38-.22,2.14-.34,3.23-.51,6.31-.85,9.47-.32,3.8.64,7.21,1.38,10.61,3.37,2.08,1.21,4.56,3.19,4.61,5.7l.09,4.48c2.45.52,3.42-1.14,5.99-.48"/><path class="f" d="M162.02,598.77l-18.09-9.92c-4.04-2.22-7.76-4.45-11.63-6.98,0,0-5.07-2.27-5.36-4.07.77-.17,1.27.28,1.85.84,1.69,1.65,3.66,2.59,5.69,3.77,4.5,2.63,8.7,5.9,13.69,7.65,1.38.48,1.77.6,2.83,1.51,2.25,1.93,5.24,3.2,7.83,4.75,1.27.76,2.89,1.02,3.2,2.46"/><path class="f" d="M183.44,678.84c-.36-.38-.53-.93-.52-1.73l.11-34.22c.26-.27.77.08.77.53v34.89c0,.35-.11.68-.36.52"/><path class="f" d="M182.5,609.37c-1.97-.38-3.69-1.56-5.61-2.54l-6.4-3.27-7.38-3.99c-.28-.15-.6-.07-.73-.3-.09-.14-.15-.33-.07-.53,2.27-.18,7.65,4.37,11.29,5.32.64.17,1.66-.17,2.01.7.48,1.22,1.64.56,2.29.93,1.02.57,1.54,2.08,3.17,2.2.81.06,1.4.8,1.43,1.47"/><path class="f" d="M190.68,206c-2.97.44-2.28-3.66-7.61-5.61,1.7-3.98-3.64-3.58-1.26-5.37.77.2,1.14.96,1.69,1.65,2.52,3.14,5.1,6.06,7.18,9.33"/><path class="f" d="M183.85,712.14c-.31-.37-.61-.96-.57-1.72.44-7.77-.45-15.38.44-22.82.17-.1.48.18.48.5v23.53c0,.32-.11.66-.35.51"/><path class="f" d="M454.22,622.68l-.37,10.61c-.08,2.33-.3,4.46-.34,6.74l-.11,6.31c0,.39-.35.8-.67.54-.2-2.67-.02-5.45.11-8.29l.37-8.29c.09-1.98.63-3.76.15-5.89-.09-.38.11-.97.14-1.33.02-.25.31-.63.72-.39"/><path class="f" d="M586.45,515.38c-1.7-1.4-2.08-3.82-3.71-5.42-2.65-2.6-5.29-5.09-8.92-5.99-.32-.08-.62-.08-.86-.17-.2-.08-.61-.26-.36-.63,6.01.09,14.85,8.33,13.84,12.22"/><path class="f" d="M527.99,491.82c-.41,1.04-1.79.68-3.07.99.04-1.93,1.15-3.38,1.9-5.33.76-1.97.89-4.84-.02-6.77-.42-.88-1.82-1.25-1.25-2.39.83.19,1.54.73,1.94,1.64,3.48,7.88-4.47,11.91.5,11.87"/><path class="f" d="M297.92,211.53c-.37.25-.36.81-1.21.74.87-1.22-1.04-1.91-1.09-2.61-.15-1.76.22-3.38-1.16-4.6.19-1.28-.11-3.1.53-4.06,1.88,3.15,1.92,7.04,2.94,10.53"/><path class="f" d="M184.23,739.43c-.57-5.98-.37-12.09-.12-18.09.4-.08.53.36.54.82l.14,6.64c.03,1.54,0,2.92,0,4.43v5.11c0,.3.12.5,0,.72-.1.18-.27.41-.57.36"/><path class="f" d="M183.26,627.39c-.67-3.9.36-12.37-.66-17.64.19.07.58.13.88.34l.49,5.14c-.24-2.56.23,15.23-.71,12.15"/><path class="f" d="M450.86,683.06c-1,.91.42-13.09.43-13.12.27-1.39-.43-6.08.58-5.48.87,2.49.06,5.23-.05,7.97-.09,2.2-.07,4.18-.49,6.35-.29,1.5.59,3.2-.46,4.28"/><path class="f" d="M366.19,268.5c-.48.03-.77.36-1.12.83-.77-1.29-.67-2.47.1-3.49-1.47-1.41.78-2.78,1.01-3.8.24-1.04.29-2.06,1.37-2.5-.34,2.95-.8,6.02-1.36,8.96"/><path class="f" d="M451.88,663.31c-.11-2.27-.38-4.68.07-7.08.57-3.02-.3-7.29.74-6.93.71,2.37-.01,4.95-.05,7.58l-.08,5.89c0,.39-.37.78-.68.54"/><path class="f" d="M444.12,491.37c-1.01,1.13.78-12.81,1.22-11.9.59.25.3.76.14,1.37-.92,3.59-.09,7.25-1.36,10.53"/><path class="f" d="M450.84,684.19l-.33,10.21c-.02.75.1,1.93-.74,1.77.02-1.86-.33-3.94.17-5.93,1.14-4.58-.99-5.99.9-6.05"/><path class="f" d="M190.88,459.63l.09,11.04c0,.42-.18.98-.48.9-.03,2.18-1.21-14.69.4-11.94"/><path class="f" d="M583.14,526.69c-.09,1.25-8.2,10.91-10.05,11.4.08-1.26,1.65-1.73,2.24-2.78,1.21-2.15,2.9-3.43,4.56-5.04,1.21-1.18,1.9-2.85,3.25-3.58"/><path class="f" d="M190.02,487.93c-.3-1.31-.81-9.72.19-10.21.19-.18.34-.08.55.08.29.22-.15.53-.15.91l-.08,8.79c0,.33-.29.51-.5.43"/><path class="f" d="M181.2,194.21c-.35,1.47-2.69-1.55-3.3-2.52-.22-.35-1.15-.26-1.22-.63-.11-.57.26-1.09.48-1.51,1.6,1.2,3.21,2.81,4.04,4.66"/><path class="f" d="M443.66,497.11c.13.55-.23,7.8-1.05,6.52-.25-1,.17-7.77,1.05-6.52"/><path class="f" d="M445.56,473.71c0-.08-.56-7.01.4-6,.47,1.1.69,6.97-.4,6"/><path class="f" d="M585.79,521.64c.12-1.84-.05-3.72.73-5.42.78-.36-.07,7.1-.73,5.42"/><path class="f" d="M192.71,208.92c-.14.24-.13.64-.49.78-1.03-1.84-2.8-2.47-1.52-3.36,1.04.4,1.66,1.56,2.01,2.58"/><path class="f" d="M198.47,216.57c-.43.25-3.47-1.64-2.48-3.08,1.54.21,1.69,2.07,2.48,3.08"/><path class="f" d="M568.79,542.3c.84-1.61,2.27-3.06,3.93-3.8-.75,1.68-2.38,2.86-3.93,3.8"/><path class="f" d="M554.19,553.28c-.57,1.56-2.44,2.21-3.91,2.85.95-1.29,2.42-2.28,3.91-2.85"/><path class="f" d="M571.89,503.15c-1.38.6-3.32.65-4.71.03,1.29-.88,3.36-.81,4.71-.03"/><path class="f" d="M194.42,211.07c.87.08,1.16,1.01,1.28,1.72-.58,1.02-2.06-1.07-2.07-1.1-.14-.42.55-.45.79-.61"/><path class="f" d="M445.37,477.88c-.49-.93-.86-2.77.17-3.42.53,1.06.62,2.49-.17,3.42"/><path class="f" d="M565.5,545.22c-1.01,1.48-2.67,2.38-4.15,3.29-.71.03,4.04-4.09,4.15-3.29"/><path class="f" d="M567.96,542.8c-.31.99-1.04,1.85-2.09,2.04.01-1.19.97-1.86,2.09-2.04"/><path class="f" d="M444.11,492.08c.02,1.06.39,2.26-.41,3.09-.37.74-.89-3.93.41-3.09"/><path class="f" d="M583.21,526.34c-.28-1.21,1.08-1.72,1.71-2.61-.01,1.17-.4,2.54-1.71,2.61"/><path class="f" d="M560.38,549.11c-.55,1.37-2.04,1.91-3.36,2.42-.61-.38,3.19-2.32,3.36-2.42"/><path class="f" d="M556.71,551.59c-.11,1.07-1.29,1.42-2.23,1.64.04-1.11,1.21-1.65,2.23-1.64"/><path class="f" d="M442.2,506.58c-.03-.73-.61-1.99.39-2.22.32.39.4.9.34,1.43-.04.34-.18,1.03-.73.79"/><path class="f" d="M190.18,477.06c-.02-.71-.37-1.68.25-2.18.22.3.59.64.41,1.19-.11.35.12,1.26-.67,1"/><path class="f" d="M549.81,556.34c.02.84-.77,1.26-1.55,1.2-.31-1.01.85-.9,1.55-1.2"/><path class="f" d="M183.02,631.69c0-.61.06-1.26,0-1.85.58-.28.77.32.8.71.04.62-.06,1.41-.8,1.14"/><path class="f" d="M524.97,477.7c-.66.01-1.25-.42-1.22-1.11.36,0,.74.03.99.41.11.17.06.52.23.7"/><path class="f" d="M365.83,271.04c.02-.3-.67-.59-.4-1.04.18-.29.28-.88.75-.77.02.6.25,1.43-.34,1.81"/><path class="f" d="M530.62,491.37c.24.31-.03.64-.35.76-.36.13-.8-.08-1.06-.37.17-.56.95-.38,1.41-.39"/><path class="f" d="M532.73,490.96c.26.31-.04.63-.36.75-.36.13-.8-.05-1.05-.36.15-.57.95-.43,1.41-.39"/><path class="f" d="M365.73,272.97c-.02.4-.35.71-.39,1.03-.19.06-.41,0-.59-.11-.35-.22-.32-.72.01-.84.31-.11.67-.05.97-.09"/><path class="f" d="M124.77,576.48c-.3,0-.62,0-.95-.14-.27-.1-.54-.4-.33-.75.62-.07,1.2.24,1.28.89"/><path class="f" d="M368.27,257.39c.01.52-.16.94-.4,1.38-.47.13-.37-.45-.4-.68-.05-.5.34-.96.8-.7"/><path class="f" d="M126.13,577.67c-.28.02-.61-.02-.81-.26-.12-.14-.07-.39-.16-.54.19-.03.43-.07.64.04.24.12.59.47.33.77"/><path class="f" d="M183.71,685.99c-.38-.35-.03-.58-.01-.91.74-.01.75.91.01.91"/><path class="f" d="M585.73,522.43c-.02.29,0,.62-.24.89-.15.18-.33.28-.56.08-.02-.19-.07-.43.02-.65.11-.26.47-.55.77-.32"/><path class="f" d="M294.64,198.9c-.19-.01-.42.03-.66,0-.19-.02-.32-.31-.19-.57.06-.14.34-.22.5-.27.36.15.2.59.36.84"/><path class="f" d="M183.02,639.69v-.58c.18-.19.34-.09.56.07.25.19.25.25,0,.44-.21.16-.37.26-.56.07"/><path class="e" d="M327.36,791.53l-12.05-.36-20.01-1.92c-18.24-1.75-83.93-12.76-95.43-24.95-7.61-8.07,27.56-17.37,32.09-18.53l11.36-2.89c23.85-6.08,64.84-13.59,88.92-15l7.65-.45c7.51-.44,14.97-.71,22.53-.14l5.07.39c3.1.24,6.13.43,9.26.86l25.57,3.52c4.99.69,9.86,1.38,14.53,3.14,3.92,1.47,7.11,3.93,10.68,6.14,1.42.88,3.78,2.24,3.9,4.09.52,7.92-4.65,15.89-10.91,20.6-1.67,1.26-3.02,2.83-4.9,3.93-4.06,2.37-7.77,4.82-12.2,6.74-18.93,8.22-38.95,13.71-59.57,14.46l-10.7.39c-1.95.07-3.73.05-5.79-.02"/><path class="i" d="M414.66,609.2c-3.84,1.06-7.24,2.68-8.11.61-.64-1.52-3.74-8.28-2.39-9,4.6-2.45,9.43-3.96,14.17-6.07l13.41-5.96c16.34-7.25,44.66-23.14,60.28-32.77l14.1-8.69,15.74-9.88,7.54-4.67,15.21-10.08c5.77-3.82,9.16-8.26,17.22-11.48,6.98-2.78,11.55-1.98,16.31,3.62,3.51,4.13-6.48,15.34-9.89,18.38-6.27,5.59-12.21,11.06-19.04,15.94-21.25,15.19-32.26,19.18-55.33,29.4l-6.17,2.73-13.68,6.04-10.54,4.34c-16.09,6.62-32.08,12.91-48.86,17.53"/><path class="g" d="M398.67,583.34c-.72.47-2.13,1.8-2.8.92-2.68-3.52-4.5-7.49-6.83-11.3-.4-.65-1.44-1.92-.83-2.72,3.9-5.12,14.03-15.65,18.85-19.95l3.09-2.76,2.96-2.57c1.18-1.02,2.24-1.9,3.43-2.94l2.66-2.35,11.2-9.05,19.11-15.86,19.51-15.88c5.18-4.22,10.73-7.32,16.61-10.4,9.66-5.07,24.23-11.25,34.65-5.89,1.32.68.37,3.55-.17,4.61-1.7,3.33-4.41,5.98-7.04,8.56-4.82,4.72-9.31,9.39-14.31,13.83l-8.74,7.78c-1.75,1.56-3.5,2.91-5.27,4.45l-3.59,3.14-6.18,4.8-20,15.29-8.66,6.6c-4.47,3.4-8.88,6.52-13.6,9.56l-10.81,6.95-23.27,15.16Z"/><path class="e" d="M236.99,606.93l1.51,13.31c.05.45-.19,1.16-.41,1.38-.27.26-1.09.15-1.72.05-14.72-2.3-28.66-6.92-41.87-13.78l-22.2-11.55-14.13-6.92c-8.48-4.15-16.59-8.51-24.24-14.06l-8.05-5.85c-8.18-5.94-13.68-11.07-21.47-16.88l-16.43-12.25c-8.19-6.1-11.86-14.1-5.86-23.42.46-.71.79-1.38,1.33-1.55.82-.25,1.82-.19,2.58.4l17.36,13.3,7.42,5.71,12.11,8.99c5.71,4.23,15.49,11.32,21.57,14.66l36.9,20.24,11.4,5.93,15.64,8.02,12.74,6.6c3.92,2.03,7.72,3.78,11.78,5.56,1.19.52,2.93,1.03,4.04,2.12"/><path class="g" d="M234.81,587.26c.69,4.1,1.4,7.92,1.36,12.33l-16.71-8.72-31.12-16.81-19.04-10.94-21.99-13.37c-2.08-1.26-3.94-2.56-6.03-3.75l-16.03-9.17c-9.72-5.56-18.48-12.09-26.89-19.47-1.48-1.3-2.96-2.29-4.52-3.51-4.99-3.85-10.01-7.66-13.74-12.87-2.72-3.8-3.24-8.88-3.21-13.41.02-3.08,2.43-5.06,5.39-5.06,3.53,0,12.91,3.41,16.57,4.78,2.99,1.12,5.02,2.82,7.07,5.23,5.18,6.06,10.46,11.96,16.59,17.06l10.85,9.02c9.2,7.64,18.99,14.14,29.24,20.37,6.07,3.69,11.58,7.39,17.44,11.31l14.36,9.61,10.14,7.14,21.65,15.01c2.78,1.92,5.39,3.46,8.61,5.23"/><path class="e" d="M400.15,588.11c7.72-3.98,14.67-8.57,22.03-12.92l9.36-5.53c6.83-4.04,13.37-7.9,19.74-12.69,8.83-6.64,17.55-12.8,25.93-20.04l15.1-13.03,4.96-4.35,8.09-6.65c9.4-7.73,22.16-15.65,34.63-15.42,2.55.05,11.31,1.39,11.83,3.52.89,3.65-8.7,13.16-12.14,15.93-13.13,10.55-26.7,20.1-41.32,28.56l-29.59,17.13-23.09,12.42c-12.34,6.63-24.65,12.53-37.55,17.99-2.55,1.08-4.73,2.58-7.54,2.67-.88-2.53-3.38-6.06-.44-7.58"/><path class="i" d="M432.8,371.13c-.02.3-.04.96.35.99.05.51.02,1.06.1,1.57.09.62.09,1.52.75,1.78-.11,1.32-.15,2.77.06,4.11l2.02,13.05c.05.31.02.65.03.97.05,1.86.71,3.68.85,5.49l.36,4.58c.11,1.41.13,2.87.11,4.12-.01,1.06.38,1.73.39,2.69l.05,4.49c.02,1.52.39,2.87.4,4.23l.05,5.92c0,.31.11.63.36.52l.04,12.07c.01,3.28.95,6.63.49,9.84l-.11.8c-.27,1.87-.3,3.84-.34,5.92l-.2,10.06-.37,5.92-.45,8.46c-.09,1.67-.2,3.39-.4,4.95l-1.6,12.69c-.81,6.45-1.64,12.87-2.1,19.34-.18,2.54-.71,3.81-2.73,5.38l-8.76,6.78c-15.01,11.62-25.63,20.49-36.61,36.19-.39.56-.94.88-1.39.94-1.54.19-9.18-11.31-11.33-9.57-.35.29-.59,1.54-.26,2.06l10.49,16.41c6.02,9.43,10.61,19.63,13.89,30.33l1.48,4.82c2.19,7.14,4.77,16.73,9.45,22.2.99,1.17,3.09,1.75,4.19.73,2.02-1.87-1.07-10.25-1.89-12.67-.39-1.15.29-2.29,1.55-2.55,8.02-1.67,15.57-4.26,23.34-6.86l6.05-2.02c1.38-.46,6.93-3.62,6.86-.7-.05,2.14-.37,4.16-.53,6.34l-.45,6.32-.42,6.31c-.11,1.68-.31,3.35-.42,5.04l-.41,6.35-.43,6.74-.41,7.15-.41,9.71-.45,7.13-.42,7.58-.41,5.88c-.18,2.6-.23,5.02-.39,7.64l-.44,7.11-.4,5.93c-.14,2.11-.62,4.13-.34,6.31.3,2.31-.22,4.5-.35,6.73l-.44,7.56c-.17,2.99-.04,5.63-.8,8.51-.59,2.25-.67,4.71-2.52,6.33-7.21-5.46-15.13-9.45-23.67-11.87-5.25-1.49-24.33-3.68-31.21-4.71-15.26-2.28-30.07-2.62-45.49-1.31-18.87,1.61-37.28,3.77-55.81,7.35l-8.47,1.64-12.83,2.78-18.12,4.36-19.99,5.59c-9.27,2.59-17.77,6.24-25.35,12.21-.78.62-2.89,1.31-3.47.39-1.08-1.74-.76-3.95-.78-6l-.33-40.53-.43-26.15-.39-16.12-.38-14.28-.45-25.24c-.04-2.26-.87-11.1.63-11.81.44-.21,1.45-.11,1.98.28,2.81,2.03,5.95,2.8,8.98,4.13,3.39,1.49,6.6,2.81,10.18,3.79l12.87,3.52c5.82,1.59,11.6,3.34,17.75,3.42,3.18.04,1.95-7.66,1.84-9.06l-.41-5.5-3.11-22.67-1.72-13.57c-.85-6.72-2.2-13.13-2.27-19.94l-.22-21.61c-.01-1.15-1.01-1.93-1.83-1.86-.83.07-1.44.71-1.62,1.71-.9,5.04-.74,10.04-.88,15.15-.04,1.46-.52,2.79-.29,4.31.08.55-.41,1.03-.72,1.11-2.27.59-19.02-15.61-21.85-19.4l-5.65-7.55c-2.72-3.63-4.93-7.51-7.47-11.34-.91-8.32.6-9.46.22-18.11-.17-3.98.69-7.13.38-10.97-.2-2.51.32-5.14.42-7.69l.37-9.28c.1-2.47-.09-4.78.14-7.16l.78-8.34.26-22.65c.03-2.87.34-5.43.17-8.22-.12-1.94.37-3.93.38-5.91l.25-29.94c0-.8.6-1.77,1.09-2.07,1.28-.76,3.23,2.94,9.48,4.74,9.47,2.73,12.14,3.2,22.03,4.1l11.47,1.05c2.52.23,4.98-.25,7.45.25,1.71.35,3.33.17,4.89.14,1.17-.02,2.47.16,3.63.03h.96c.51-.06,1.08.15,1.58,0l.5.02h3.72c-.09.51.58.51.49,0l1.61-.03.52.02c.37.06.78,0,1.17.03-.11.5.6.51.49,0l1.96-.05c1.04-.03,2.08-.07,3.11-.03l.75.03,3.44.03c.67,0,1.34,0,2.01-.02,1.2-.06,2.45.29,3.5-.36.4-.23,1.12.1,1.56-.06h.56s1.08,0,1.08,0c1.48,0,3.14.46,4.4-.39h1.17c2.05,0,4.09-.14,6.32-.35l16.19-1.53c2.32-.22,15.94-2.35,17.19-2.79.2-.07.44-.03.65-.06,5.45-.81,11.17-1.52,16.16-3.7,1.11-.2,2.55-.21,3.88-.66,6.81-2.3,13.71-3.84,20.24-6.78,2.11-.95,4.15-1.49,6.29-2.2,2.57-.86,5.08-1.87,7.62-2.88l12.95-5.11,10.88-5.27c5.24-2.54,10.12-5.7,14.91-9,.65-.45,2.31-1.74,2.8-.64.73,1.63,2.23,12.27,2.14,13.88M292.57,723.84l18.38-2.54c2.67-.37,5.21-.89,7.92-.98,7.13-.22,10.82-1.28,18.28-1.73l7.15-.43,13.93-.19c8.37-.12,16.3.89,24.53,1.97l10.01,1.31,13.14,1.65c5.67.71,10.79,2.09,16.02,4.25,3.56,1.47,7.01,2.69,10.1,5.11.1.08,4.6,2.97,5.13,2.84.29-.07.75-.54.84-1.04l1-5.17.49-6.24.39-8.45.42-7.62.45-6.31.41-6.77c.11-1.8.23-3.65.39-5.47l.5-5.86.39-7.98c.12-2.51.25-4.83.37-7.29l.6-11.74c.13-2.56.36-5.02.49-7.58l.45-8.84.43-5.9.37-5.5.46-7.56.37-5.9c.13-2.1.8-4.15.19-6.23-1.27-.3-2.2.7-3.29,1.15-2.45,1-4.94,1.76-7.51,2.6l-7.71,2.53c-5.19,1.71-10.31,3.36-15.92,4.22-.29,2.23.9,3.93,1.45,5.95.41,1.51,1.6,7.97,0,9.21-3.07,2.38-6.22-.78-8.06-3.42-2.03-2.92-3.25-5.96-4.33-9.29l-5.58-17.09c-1.45-4.44-3.67-8.42-5.41-12.73l-2.2-5.44c-1.96-4.85-4.41-9.41-7.33-13.73l-6.8-10.05c-1.32-1.95-2.95-3.75-2.22-6.39.28-1.03,1.34-1.68,2.38-1.39,3.32.92,7.05,6.75,10.3,9.21l4.08-4.87,7.42-8.58c3.97-4.59,8.32-8.43,12.96-12.35l8.17-6.91c2.15-1.82,13.93-10.58,14.77-11.85,1.31-1.98.87-4.97,1.19-7.29l2.61-19.27.82-9.73,1.37-19.18.29-15.84c.02-1.23,0-2.22-.02-3.46l-.21-14.74-.44-9.29-.43-8-.43-6.28c-.76-11.01-2.64-21.58-4.39-32.46-.72-4.51-.84-8.94-1.95-13.24-.76-1.06-2.26.51-2.95.94-7.23,4.44-9.31,5.91-17.2,9.61l-5.17,2.43-16.1,6.61-11.55,4.15-7.21,2.83c-1.99.78-10.18,2.99-12.76,3.71l-11.22,3.11c-4.83,1.34-9.74,1.78-14.72,2.56l-11.37,1.77-6.31.5c-2.34.19-4.45.59-6.78.81l-11.79,1.16-17.96.6c-5.81.19-11.48.22-17.27,0l-11.69-.43c-5.68-.21-11.06-.43-16.73-1.29-4.81-.73-7.01-.67-12.32-1.7-5.41-1.05-10.43-2.42-15.01-5.67-.46-.33-1.33-.37-1.69-.13-.26.18-.71.69-.72,1.23l-.46,27.35-.36,16.15-.41,20.19-.46,10.86-.36,11.02-.43,9.61-.47,17.68-.27,6.67c-.1,2.46-.8,5.59.67,7.85l3.81,5.86c4.48,6.9,9.32,13.18,15.17,18.89,3.39,3.31,8.58,8.62,12.71,10.3.61,1.16.96-6.75,1.02-7.55l.45-6.73c.15-2.21-.19-4.49,1.44-6.28,1.17-1.29,3.76-.56,4.45,1.22,1.53,3.97.61,8.32.48,12.58-.13,3.94.51,15.06,1,18.85l4.09,31.71c.7,5.44,4.89,27.85,1.8,30.77-.89.84-2,1.51-3.58,1.29-9.79-1.37-15.88-3.13-25.26-5.87-6.11-1.78-12.05-3.47-17.77-6.19-2.21-1.06-4.28-1.74-6.81-2.7l.37,31.77.36,14,.4,19.38.42,26.51.33,40.16.5,4.34c.09.79,1.75.24,2.29-.12,5.96-3.98,11.96-7.56,18.82-9.72l11.68-3.68,7.02-1.82c4.85-1.26,9.48-2.67,14.37-3.75,1.91-.42,5.41-1.57,8.38-2.19l12.34-2.58c1.38-.29,2.53-.59,3.89-.83l12.58-2.26c2.35-.42,4.59-1.01,7.17-1.36"/><path class="i" d="M233.19,568.11c.28,3.49,1.58,10.6,1.05,12.66-.57,2.18-16.13-9.4-17.76-10.52-4.39-3.02-8.53-5.96-12.67-9.23-3.45-2.73-6.76-5.22-10.4-7.74l-21.13-14.65-15.22-10.45-4.19-3.07c-7.88-5.78-15.92-11.06-23.04-17.8l-6.28-5.94c-9.09-8.6-17.93-18.43-25.79-28.07-2.59-3.17-5.06-6.1-7.34-9.49-1.13-1.68-2.39-3.64-1.67-5.75,1.28-3.75,11.6-3.07,14.99-2.46,8.45,1.53,16.29,4.78,23.71,9.04,15.7,9.02,19.78,13.74,33.31,24.37,2.64,2.07,5.16,4.13,7.67,6.31l7.65,6.64c1.96,1.7,3.7,3.6,5.49,5.49,3.34,3.51,5.9,7.57,8.51,11.66l9.53,14.88c2.34,3.65,5.14,6.57,8.02,9.71l3.44,3.75c3.91,4.26,7.96,7.94,12.53,11.44l7.62,5.83c1.08.83,1.83,1.75,1.96,3.39M208.04,562.55l16.07,11.52c1.16.83,2.24,1.41,3.47,2.03,1.6.81,2.76,2.39,4.8,2.94.88-1.87-.63-9.48-.77-12.15-9.01-6.86-20.47-16.26-27.59-25.03-7.15-8.81-12.9-18.32-18.85-27.89-.39-.63-6.38-7.6-7.41-8.61-1.26-1.24-2.69-2.42-4.02-3.56l-6.61-5.66-19.4-15.9c-2.35-1.93-4.51-3.6-7-5.28l-10.09-6.82c-7.81-5.28-24.23-11.95-33.24-11.78-1.76.03-7.64.41-7.52,2.92.06,1.35.8,2.81,1.6,3.87l4.52,5.95c1.95,2.57,4.3,4.69,6.1,7.33.78,1.14,1.55,2.06,2.45,3.06l2.8,3.15,5.73,6.1c6.45,6.87,13.15,14.1,20.47,20.03l7.61,6.17c3.45,2.8,6.9,5.17,10.51,7.68l14.43,10.04,11.49,7.96,11.9,8.27,13.7,9.79,4.86,3.89Z"/><path class="e" d="M363.25,379.01c-1.5.54-2.7.92-4.24.54.31-2.27-.18-4.41-.28-6.64l-.37-7.97c-.23-4.92-.09-9.72.09-14.57l.41-10.89.48-9.02,14.45,2.1,11.56,2.22c1.5.29,2.98.24,4.16,1.56-4.64,11.89-8.16,23.93-10.71,36.41-.13.63-1.26,1.16-1.74,1.33l-13.81,4.94Z"/><path class="f" d="M351.08,389.79c-4.99,2.19-10.71,2.9-16.16,3.7-.37-.79.73-.92,1.09-1.33,1.48-1.7-5.92-4.26-6.63-4.65-.53-1.64-1.71-7.5-4.3-7.26-.52-2.5,1.56-3.48,1.4-8.41-.02-.52-1.52-1.27-1.11-1.88,2.12-3.18-.4-9.91-.29-10.96.31-2.96-.28-5.57-.43-8.49l-.14-2.82c-.02-.49-.58-.94-.96-.85-.22.06-.71.49-.68.87.35,3.34-.35,6.49-1.23,9.7-.72,2.6,0,5.27.28,7.9l1.12,10.98.47,11.16c.14,3.27-4.82,2.06-6.66,3.42-.39.28-.26,1.28-.66,1.38-2.33.6-2.9-1.81-11.45-.35-1.48.25-3.06.04-4.77.21l-9.34.9c-6.49.62-8.04.52-14.3.4l-6.56-.13c-1.23-.02-2.54-.54-3.01-2.22l-1.9-6.79c-.46-1.63-.14-10.03-.28-10.63l-1.29-5.53c-.89-3.84-.97-7.79-2.36-11.54-.9-2.4-3.84-2.05-3.85-3.64,0-.6,1.22-1.15,2.05-2.3.5-.69-2.57-5.34-2.18-4.56-.84-1.66-.87-4.35-.28-6.04.26-.74,12.29-3.59,14.37-4.16l12.44-3.41,12-2.3c3.38-.65,6.64-1.42,10.03-1.73,2.31-.22,4.43-.25,6.73-.58,1.1-.16,3.02-.94,3.83.05.4.5,1.08,1.84,1.06,2.5-.04,1.22.36,2.19.55,3.38l1.53,9.5c1.89.37.26-2.91,1.91-3.29.44.85.76,1.67,1.42,2.21.64-.76.8-1.39,1.08-1.97.26-.53-1.02-1.08-.97-1.58.26-2.55.57-4.83-.13-7.51-.29-1.12-.09-3.81,1.32-3.84l9.18-.19c2.37-.05,5.18.63,7.46-.32,2.7-1.13,5.46-1.76,7.88.93l3.91.29c.47,1.48,1.17,3.2.79,4.83-.51,2.16-.18,4.13-.27,6.21l-.76,17.8c-.11,2.6.75,11.53.55,14.55-.23,3.53.61,7.13.62,10.84.36.68,1.68.05,2.71.55-1.68,1.73-3.84,1.81-6.07,1.48-1.52-.22-2.89.92-4.34,1.08-2.49.29-5.19.81-6.8,2.9-.63.81-.28,2.27-.24,3.12l4.14-.47c1.2-.14,1.67-.74,2.6-.9,1.75-.29,3.43.23,5.14-.6.25-.06.93.03.76.39M351.8,382.16c.61-2.41-.06-4-.21-5.88l-.44-5.47c-.73-9.11-.2-18.09.13-27.16l.32-8.63c.07-1.98.82-4.03-.07-5.82-4.75-.73-9.24-.42-13.85-.72-4.61-.3-9.15-.28-13.87-.11-.38,3.24.62,6.09,1.01,9.15l2.17,17.25,1.31,10.58,1.7,18.5c.06.71-.11,2.89.9,2.9,7.12-.81,14.04-2.65,20.9-4.6M285.1,391.67c11.29-.48,22.24-1.33,33.5-2.76.92-.12,2.88.12,3.14-1.01.89-3.86-1.1-24.17-1.79-29.34l-1.59-12.01-2.47-16.48c-.12-.8-1.15-1.15-1.9-1.1-10.57.65-25.03,3.26-35.29,6.02l-10.63,2.86c-3.31.89-6.68,1.43-9.85,2.94.7,3.61,1.8,6.8,2.67,10.26,2.97,11.82,5.24,23.6,7.14,35.72.22,1.42-.2,3.59.97,4.49,5.35.97,10.67.63,16.09.4"/><path class="e" d="M424.64,351.3c-5.63,4.5-14.87,9.01-21.6,12.08-2.05.94-12.97,6.48-14.2,5.71-1.38-.87,3.65-16.17,4.6-18.65,1.61-4.21,2.72-8.4,4.94-12.37.38-.69,1.65-.76,2.42-.6,4.65.95,9.03,1.95,13.51,3.34,4.13,1.29,7.81,3.41,10.5,6.77.93,1.16,1.06,2.75-.16,3.72"/><path class="f" d="M234.1,369.24c-.39-1.75-.87-3.27-1.81-4.7-.58-.88-.6-3.21-2.17-3.64-1.29-.36-1.98,2.55-1.35,3.95.74,1.64.77,3.18,1.23,4.79,1.1,3.86,3.47,9.95,3.9,12.53.44,2.61,2.14,5.26,1.96,8.07-.55,1.71-4.1,1.73-5.56,1.09-1.67-.73-3.13-.28-4.65-.6l-2.92-.63c-5.59-1.2-5.44-1.11-10.98-2.8-3-.92-5.32-3.13-7.37-5.56-1.89-2.24-2.64-5.82-1.81-8.72.83-2.9,5.33-9.64,7.09-11.32,1.89-1.82,9.75-7.24,11.6-7.79,1.67-.49,3.83.21,5.31-.68.78-.47.63-2.73,1.92-2.99,2.22-.44,3.95-1.54,5.91-2.4,2.03-.9,4.19-1.3,6.11-2.5,1-.62,2.11-.66,3.14-1.03,2.93-1.05,6.62-3.21,8.6-1.3.61.59.21,1.4.26,2.45.04.87,3.02,11.33,3.25,12.48l1.31,6.65c.67,3.39.87,7,2.44,10.17.88,1.78.88,3.36,1.03,5.38.16,2.1,1.21,4,.63,6.32-.07.28.21.97.42,1.08,1.35.66.67-3,2.72-2.47-2,8.26-1.82,1.06-2.96,7-.98.22-2.57,1.33-3.49,1.19l-3.12-.48c-.78-.12-1.49-.34-2.24.06-.78.41-.57,1.53-1.12,2.28-.85,1.15-3.04.21-3.6-1.08-1.51.07-2.58.88-4.18.77-.48-.62-.27-1.43-.72-2.27-1.71-.41-3.95-2.08-3.99-4.11-.04-2.06.35-8.05-2.75-7.99.2-3.78-.77-2.6-1.09-3.71-.12-.41.51-.77.53-1.42.01-.26-.68-.31-.89-.44-.32-.2-.48-.97-.24-1.31,1.18-1.63,0-2.78-.33-4.31M247.84,391.02c4.17.24,8.09.63,12.64.18-1.79-15.08-5.08-29.63-8.99-44.23-.32-1.19-.32-3.18-1.6-3.63-5.62,1.55-10.77,4.01-16.07,6.24-1.77.74-3.6.91-5.17,2.37,5.29,11.4,9.38,23.01,12.01,35.23.21.99-.02,2.52.75,3.12,1.85,1.09,4.25.59,6.42.72M234.21,390.17c.54-1.66-.23-2.84-.61-4.32-2.61-10.02-6.08-19.56-10-29.17-.28-.68-.57-1.23-.96-1.39-2.65-1.05-21.95,11.44-17.97,23.32,1.09,3.24,3.68,6.07,7.36,7.44,5.4,2.01,16.27,3.81,22.18,4.12"/><path class="f" d="M334.28,393.55c-1.25.43-14.87,2.57-17.19,2.79l-16.19,1.53c-2.23.21-4.27.34-6.32.35-.04-.25.16-.62.58-.66l18.28-1.83c1.21-.12,1.67-1.1,3.27-.64,2.83.8,5.93-.4,8.65-.82l7.58-1.16c.52-.08,1.32.02,1.35.45"/><path class="f" d="M439.2,447.56c.46-3.21-.48-6.56-.49-9.84,2.5-.28.37,4.29,1.76,7.9.21.55.11,1.23-.21,1.54-.28.27-.69.36-1.07.4"/><path class="f" d="M194.74,402.53l-.07-10.23c.37.36,1,.46,1.04,1.44l.13,3.18c.06,1.61-.23,2.96.2,4.62.09.35-.18.86-.33,1.12-.18.3-.68.13-.97-.13"/><path class="f" d="M436.08,392.63l-2.02-13.05c1.61-.47,1.93,9.33,2.75,11.6.25.7-.18,1.35-.73,1.44"/><path class="f" d="M436.95,399.1c-.14-1.81-.81-3.63-.85-5.49,1.76-.69,1.4,6.27.85,5.49"/><path class="f" d="M438.67,425.66c-.24.11-.36-.21-.36-.52l-.05-5.92c1.07-2.62,1.05,7.72.4,6.44"/><path class="f" d="M293.41,398.22c-1.26.84-2.92.38-4.4.39-.95-1.25,4.34-1.04,4.4-.39"/><path class="f" d="M285.81,398.67c-1.05.65-2.3.31-3.5.36-.94-1.37,4.16-.92,3.5-.36"/><path class="f" d="M445.6,447.63c-.07-1.2-.42-2.45-.08-3.51,1.19.67.93,2.64.08,3.51"/><path class="f" d="M276.12,399c-1.03-.04-2.08,0-3.11.03-.22-.47.24-.86.71-.81.45.04,2.51.13,2.07.03.32.08.53.43.34.76"/><path class="f" d="M280.3,399.06l-3.44-.03c.55-.57,1.56-.86,2.51-.81.56.03.91.49.93.84"/><path class="f" d="M437.82,410.49c-.01-.95-.4-1.63-.39-2.69.77-.23.96.62.89,1.13-.07.56.08,1.34-.5,1.56"/><path class="f" d="M195.84,388.31c-.02.54.01,1.09-.14,1.29-.12.16-.59-.19-.77-.28-.29-.13.42-1.44.44-1.46.31-.23.49-.17.47.44"/><path class="f" d="M441.52,448.21c.34-.17.6-.08.77.13.25.32,0,.57-.14.8-.17.28-.52.49-.64.28-.3-.52-.47-.97,0-1.21"/><path class="f" d="M445.8,438.31c-.26,0-.53-.02-.98-.07-.3-.03-.26-.53.02-.74.15-.11.45-.26.62-.46.36.31.38.82.34,1.27"/><path class="f" d="M192.19,441.17c-.02-.41-.25-.83.02-1.25.36,0,.69.17.62.47-.11.42-.39.62-.64.78"/><path class="f" d="M434,375.47c-.65-.26-.65-1.16-.75-1.78.59-.23.87.33.84.7l-.09,1.08Z"/><path class="f" d="M207.48,239.86c.17-.23.65-.05.94-.09.17-.02.37.32.23.62-.16.35-.47.17-.65.23-.36.11-.9-.25-.51-.77"/><path class="f" d="M288.37,193.52c.16-.22.68-.05.93-.08.17-.02.37.32.23.62-.16.35-.47.17-.64.22-.43.13-.9-.25-.53-.76"/><path class="f" d="M234.41,375.89c.05,1.13-1.02,1.13-.97,0,.03-.63.94-.63.97,0"/><path class="f" d="M442.95,445.38c0,.26-.21.47-.47.47s-.47-.21-.47-.47.21-.47.47-.47.47.21.47.47"/><path class="f" d="M260.95,399.03h-.96c.09-.22.05-.74.29-.84.27-.12.49,0,.56.24.05.16.08.36.12.6"/><path class="f" d="M127.27,230.76c.44-.5.8-.28.91-.04.11.24.02.51-.21.63-.25.13-.64.08-.69-.59"/><path class="f" d="M196.06,385.55c0,.26-.21.47-.47.47s-.47-.21-.47-.47.21-.47.47-.47.47.21.47.47"/><path class="f" d="M199.85,383.02c0,.26-.21.47-.47.47s-.47-.21-.47-.47.21-.47.47-.47.47.21.47.47"/><path class="f" d="M433.15,372.12c-.39-.03-.37-.69-.35-.99.18-.19.36-.1.62.08.15.1.33.34.15.52l-.42.4Z"/><path class="f" d="M287.93,398.61h-.56s.12-.59.12-.59c.06-.32.22-.32.33,0,.06.18.09.37.11.59"/><path class="f" d="M270.55,399.07c.16.01.33.01.49,0,.11.51-.6.49-.49,0"/><path class="f" d="M266.76,399.05c.16,0,.33,0,.49,0,.09.52-.58.52-.49,0"/><path class="f" d="M269.38,399.04l-.52-.02c.19-.12.34-.12.52.02"/><path class="f" d="M216.23,257.68c0,.12-.09.21-.21.21s-.21-.09-.21-.21.09-.21.21-.21.21.09.21.21"/><path class="f" d="M263.04,399.06l-.5-.02c.23-.06.31.02.5.02"/><path class="f" d="M195.59,378.6c0,.12-.09.21-.21.21s-.21-.09-.21-.21.09-.21.21-.21.21.09.21.21"/><path class="f" d="M441.64,269.48c0,.12-.09.21-.21.21s-.21-.09-.21-.21.09-.21.21-.21.21.09.21.21"/><path class="f" d="M285.33,188.58c0,.12-.09.21-.21.21s-.21-.09-.21-.21.09-.21.21-.21.21.09.21.21"/><path class="i" d="M292.57,723.84c-2.58.36-4.82.94-7.17,1.36l-12.58,2.27c-1.36.24-2.51.54-3.89.83l-12.34,2.58c-2.97.62-6.46,1.77-8.38,2.19-4.89,1.08-9.52,2.49-14.37,3.75l-7.02,1.82-11.68,3.68c-6.86,2.16-12.86,5.74-18.82,9.71-.54.36-2.2.9-2.29.12l-.5-4.34-.33-40.16-.42-26.51-.4-19.38-.36-14-.37-31.77c2.53.96,4.59,1.65,6.81,2.71,5.72,2.73,11.66,4.41,17.77,6.19,9.38,2.74,15.47,4.49,25.26,5.87,1.58.22,2.69-.45,3.58-1.29,3.09-2.91-1.09-25.33-1.8-30.76l-4.09-31.71c-.49-3.79-1.13-14.91-1-18.85.14-4.26,1.05-8.61-.48-12.58-.69-1.78-3.28-2.51-4.45-1.22-1.63,1.79-1.29,4.07-1.44,6.28l-.45,6.73c-.05.8-.41,8.71-1.02,7.55-4.12-1.67-9.32-6.99-12.71-10.3-5.85-5.71-10.69-11.99-15.17-18.89l-3.81-5.86c-1.46-2.25-.77-5.38-.67-7.85l.27-6.67.47-17.68.43-9.61.36-11.02.46-10.86.41-20.19.36-16.15.46-27.35c0-.54.46-1.05.72-1.24.36-.25,1.23-.2,1.69.13,4.57,3.25,9.6,4.62,15.01,5.67,5.3,1.03,7.51.97,12.32,1.7,5.67.86,11.05,1.08,16.73,1.29l11.69.43c5.79.21,11.46.19,17.27,0l17.96-.6,11.79-1.16c2.33-.23,4.44-.63,6.78-.81l6.31-.5,11.37-1.77c4.97-.78,9.89-1.22,14.72-2.56l11.22-3.11c2.59-.72,10.77-2.93,12.76-3.71l7.21-2.83,11.55-4.15,16.1-6.61,5.17-2.43c7.88-3.7,9.96-5.16,17.2-9.61.69-.42,2.19-1.99,2.95-.94,1.11,4.3,1.22,8.72,1.95,13.24,1.74,10.88,3.63,21.45,4.39,32.46l.43,6.28.43,8,.44,9.29.21,14.74c.02,1.25.04,2.24.02,3.46l-.29,15.84-1.37,19.18-.82,9.73-2.61,19.27c-.31,2.32.13,5.31-1.19,7.29-.84,1.26-12.62,10.03-14.77,11.85l-8.17,6.91c-4.64,3.92-8.98,7.76-12.96,12.35l-7.42,8.58-4.08,4.87c-3.25-2.46-6.98-8.28-10.3-9.21-1.04-.29-2.09.37-2.38,1.39-.73,2.64.9,4.44,2.22,6.39l6.8,10.05c2.92,4.32,5.37,8.88,7.33,13.73l2.2,5.44c1.74,4.31,3.96,8.28,5.41,12.73l5.58,17.09c1.09,3.33,2.3,6.37,4.33,9.29,1.84,2.64,4.99,5.8,8.06,3.42,1.6-1.24.42-7.71,0-9.21-.55-2.02-1.74-3.71-1.45-5.95,5.62-.86,10.73-2.51,15.92-4.22l7.71-2.53c2.57-.84,5.06-1.61,7.51-2.6,1.09-.44,2.02-1.45,3.29-1.15.61,2.08-.06,4.12-.19,6.23l-.37,5.9-.46,7.56-.37,5.5-.43,5.9-.45,8.84c-.13,2.56-.36,5.02-.49,7.58l-.6,11.74c-.13,2.46-.25,4.78-.37,7.29l-.39,7.98-.5,5.86c-.15,1.82-.28,3.67-.39,5.47l-.41,6.77-.45,6.31-.41,7.62-.39,8.44-.49,6.24-1,5.17c-.1.49-.55.96-.84,1.04-.54.13-5.04-2.76-5.13-2.84-3.09-2.43-6.54-3.65-10.1-5.11-5.23-2.16-10.34-3.54-16.01-4.25l-13.14-1.65-10.01-1.31c-8.24-1.08-16.16-2.09-24.53-1.97l-13.93.19-7.15.43c-7.46.45-11.15,1.5-18.28,1.73-2.71.08-5.24.61-7.92.98l-18.39,2.54ZM346.61,450.47c3.44.26,6.33.26,9.51.04,3.55-.25,6.97-.1,10.55-.55l11.93-1.49c2.09-.26,3.16-1.32,3.78-3.2.46-1.39-.39-3.38-2.08-4.37-2.39-1.38-5.55-.72-8.24-.27l-5.06.85c-10.25,1.72-20.34,1.3-30.69.15-2.81-.31-9.18-1.41-9.68,2.69-.18,1.46,1.76,3.44,3.78,3.96,3.61.93,7.19,1.5,10.9,1.79l5.3.4ZM282.44,453.65c1.98-.03,2.74-1.69,2.9-3.18.46-4.35-4.57-3.75-9.46-4l-7.99-.41-8.61-.31c-1.98-.07-3.62-.09-5.6-.03l-8.62.28c-1.41.05-2.84.94-3.03,2.12-.14.87.44,2.9,1.66,3.16,3.87.82,7.97,1.38,12.13,1.63l4.29.26,8.14.33c4.66.19,9.37.22,14.21.14M346.89,536.66c1.59-.42,1.58-2.38,1.62-3.42.04-.94-.61-2.49-1.94-2.85-5.49-1.51-13.63,3.47-29.27-2.26l-8.12-2.98c-4.98-1.83-10.53-.92-15.71,0-1.12-1.34-.39-2.76-.34-4.13l.32-8.85.42-13.49c.41-13.1.28-16.75-.5-29.76-.16-2.67-.22-5.29-1.69-7.66-.53-.86-2.07-.8-2.93-.48-.68.26-1.59,1.28-1.6,2.39l-.15,25.17c-.01,2-.58,3.86-.33,5.9.15,1.23-.72,11.27-.77,13.48l-.22,8.82c-.12,4.72-1.35,13.35-.39,17.32.29,1.19,1.49,1.97,2.21,2.31.84.38,2.3.08,3.11-.41,8.07-4.77,11.01-5.19,19.03-2.33l6.82,2.44c1.49.53,3.16,1.21,4.75,1.52,8.52,1.63,17.17,1.51,25.66-.73M277.56,629.21c5.06,1.44,17.54,2.77,23.11,3.02,10.25.47,18.27.25,28.45-1.14,3.56-.48,7.06-.69,10.43-1.78,1.86-.6,2.89-1.72,3.04-3.49.12-1.4-.43-3.32-2.17-3.67-3.51-.7-7.03-.12-10.5.45l-5.14.84c-7.94,1.3-17.77,1.2-25.96.97-2.28-.06-4.4-.47-6.76-.39-4.04.14-15.36-2.39-16.88.54-.83,1.6.65,4.13,2.39,4.63M311.45,669.81c2.2-4.13,1.16-15.57.27-20.03-.25-1.28-1.67-3.35-3.07-2.84-2.84,1.03-3.39,4.35-3.54,7.01-.25,4.46-1.44,13.95,1.84,17.06,1.44,1.36,3.62.48,4.5-1.19M337.13,663.47c-2.37-1.43-5.78,2.44-7.43,4.09-1.36,1.36-6.28,5.78-2.85,8.24,3.88,2.8,12.86-10.78,10.28-12.34M289.76,674.3c-1.71-2.33-7.54-9.56-10.62-7.75-.97.57-1.3,2.04-.73,3.29,1.44,3.23,7.5,10.97,11,7.71.63-.59,1.01-2.35.35-3.25M324.06,702.66c2.83-5.71,1.93-12.62-.99-17.7-4.84-8.4-14.91-11.12-23.4-6.42-5.39,2.98-9.92,8.4-11.27,14.48-1.4,6.34.58,12.9,5.62,16.57,10.04,7.32,24.43,4.4,30.04-6.93M341.48,696.17c5.19-.49,15.47-1,19.4-3.89.97-.71.92-2.53.28-3.53-1.96-3.04-10.25-1.53-13.51-1.12-4.21.53-13.07.89-13.71,4.93-.17,1.11.65,2.21,1.68,2.87,1.78,1.12,3.85.93,5.85.74M279.76,694.65c-1.76-1.52-4.37-2.16-6.63-2.24l-13.93-.48c-1.68-.06-3.62-.03-4.87.89-1,.74-1.48,1.9-1.31,2.94.14.87,1.08,1.85,2.28,2.13,7.04,1.67,14.27,2.18,21.57,1.95,1.33-.04,2.22-1.07,2.8-1.73.66-.76,1.04-2.64.09-3.46"/><path class="i" d="M208.04,562.55l-4.86-3.89-13.7-9.79-11.9-8.27-11.49-7.96-14.43-10.04c-3.6-2.51-7.06-4.88-10.51-7.68l-7.61-6.17c-7.32-5.93-14.02-13.16-20.47-20.03l-5.73-6.1-2.8-3.15c-.9-1.01-1.67-1.92-2.45-3.06-1.81-2.64-4.15-4.76-6.1-7.33l-4.52-5.95c-.81-1.06-1.54-2.52-1.6-3.87-.12-2.51,5.76-2.89,7.52-2.92,9.01-.18,25.43,6.5,33.24,11.78l10.09,6.82c2.49,1.68,4.65,3.36,7,5.28l19.4,15.9,6.61,5.66c1.33,1.14,2.76,2.32,4.02,3.56,1.02,1.01,7.02,7.98,7.41,8.61,5.96,9.56,11.7,19.08,18.85,27.89,7.12,8.77,18.57,18.17,27.59,25.03.13,2.68,1.64,10.28.77,12.15-2.04-.55-3.2-2.14-4.8-2.94-1.23-.62-2.31-1.2-3.47-2.03l-16.07-11.52Z"/><path class="e" d="M285.1,391.67c-5.42.23-10.74.57-16.09-.4-1.17-.9-.75-3.07-.97-4.49-1.9-12.13-4.17-23.91-7.14-35.72-.87-3.46-1.97-6.65-2.67-10.26,3.17-1.52,6.54-2.05,9.85-2.94l10.63-2.86c10.26-2.76,24.72-5.37,35.29-6.02.76-.05,1.78.3,1.9,1.1l2.47,16.48,1.59,12.01c.69,5.17,2.67,25.48,1.79,29.34-.26,1.14-2.23.9-3.14,1.01-11.26,1.43-22.21,2.28-33.5,2.76"/><path class="e" d="M351.8,382.16c-6.86,1.95-13.78,3.79-20.9,4.6-1.01-.02-.84-2.19-.9-2.9l-1.7-18.5-1.31-10.58-2.17-17.25c-.39-3.06-1.39-5.91-1.01-9.15,4.72-.17,9.25-.18,13.87.11,4.61.3,9.11,0,13.85.72.89,1.78.14,3.84.07,5.82l-.32,8.63c-.33,9.07-.86,18.05-.13,27.16l.44,5.47c.15,1.88.82,3.47.21,5.88"/><path class="e" d="M247.84,391.02c-2.16-.13-4.57.37-6.42-.72-.77-.61-.54-2.13-.75-3.12-2.63-12.22-6.72-23.83-12.01-35.23,1.57-1.46,3.4-1.62,5.17-2.37,5.29-2.23,10.45-4.69,16.07-6.24,1.28.45,1.28,2.44,1.6,3.63,3.91,14.6,7.19,29.15,8.99,44.23-4.55.45-8.47.06-12.64-.18"/><path class="e" d="M234.21,390.17c-5.9-.31-16.78-2.1-22.18-4.12-3.68-1.37-6.28-4.2-7.36-7.44-3.98-11.87,15.32-24.37,17.97-23.32.39.15.68.71.96,1.39,3.92,9.61,7.39,19.15,10,29.17.38,1.48,1.15,2.66.61,4.32"/><path class="e" d="M324.06,702.66c-5.61,11.33-20,14.25-30.04,6.93-5.04-3.68-7.03-10.24-5.62-16.57,1.34-6.08,5.88-11.5,11.27-14.48,8.49-4.7,18.56-1.98,23.4,6.42,2.93,5.08,3.82,11.99.99,17.7"/><path class="h" d="M277.56,629.21c-1.75-.5-3.22-3.03-2.39-4.63,1.52-2.93,12.84-.41,16.88-.54,2.36-.08,4.48.32,6.76.39,8.2.23,18.03.33,25.96-.97l5.14-.84c3.47-.57,6.99-1.15,10.5-.45,1.75.35,2.29,2.27,2.17,3.67-.14,1.76-1.18,2.89-3.03,3.49-3.37,1.09-6.87,1.3-10.43,1.78-10.18,1.38-18.2,1.61-28.45,1.14-5.56-.26-18.05-1.58-23.11-3.02"/><path class="h" d="M346.89,536.66c-8.49,2.24-17.13,2.35-25.66.73-1.59-.3-3.26-.98-4.75-1.52l-6.82-2.44c-8.02-2.86-10.96-2.44-19.03,2.33-.81.48-2.27.79-3.11.41-.72-.33-1.92-1.12-2.21-2.31-.97-3.97.27-12.59.39-17.32l.22-8.82c.05-2.21.93-12.24.77-13.48-.26-2.04.32-3.9.33-5.9l.15-25.17c0-1.11.92-2.13,1.6-2.39.85-.32,2.4-.38,2.93.48,1.47,2.37,1.53,4.98,1.69,7.66.77,13,.9,16.66.5,29.76l-.42,13.49-.32,8.85c-.05,1.37-.78,2.79.34,4.13,5.18-.92,10.73-1.82,15.71,0l8.12,2.98c15.64,5.73,23.78.75,29.27,2.26,1.33.36,1.97,1.91,1.94,2.85-.04,1.04-.04,3-1.62,3.42M336.55,532.64c-13.01,1.71-24.73-5.64-30.26-6.27-2.75-.31-5.55-.56-8.22-.03l-5.93,1.17c-2.02-1.86-1.09-4.4-.96-6.75l.44-8.37.42-8.86.3-8.65c.16-4.77.2-9.62.03-14.39l-.26-7.34c-.05-1.41-.74-11.03-2.27-10.42-.34.14-1.13.73-1.14,1.3l-.2,30.91c0,.98-.94,9.58-.99,12.44l-.27,15.32c-.06,3.52-.55,7.12-.07,10.61.19,1.41,2.56,1.08,3.49.41,4.6-3.32,10.43-5.29,15.86-3.26l7.36,2.74c3.78,1.41,7.39,2.62,11.49,2.91,6.63.46,13.25.85,19.55-1.07,1-.31,1.73-1.48,1.47-2.15-.29-.74-1.11-1.4-2.1-1.27l-7.74,1.02Z"/><path class="h" d="M282.44,453.65c-4.85.08-9.55.05-14.21-.14l-8.14-.33-4.29-.26c-4.16-.25-8.25-.81-12.13-1.63-1.22-.26-1.8-2.29-1.66-3.16.19-1.18,1.62-2.07,3.03-2.12l8.62-.28c1.99-.07,3.62-.05,5.6.03l8.61.31,7.99.41c4.89.25,9.92-.35,9.46,4-.16,1.48-.92,3.14-2.9,3.18"/><path class="e" d="M341.48,696.17c-2,.19-4.07.38-5.85-.74-1.04-.65-1.86-1.76-1.68-2.87.64-4.05,9.5-4.4,13.71-4.93,3.26-.41,11.54-1.92,13.51,1.12.65,1.01.7,2.82-.28,3.53-3.93,2.89-14.21,3.4-19.4,3.89"/><path class="e" d="M279.76,694.65c.95.82.57,2.7-.09,3.46-.58.66-1.47,1.69-2.8,1.73-7.3.24-14.53-.28-21.57-1.95-1.2-.28-2.14-1.26-2.28-2.13-.17-1.05.32-2.21,1.31-2.94,1.25-.92,3.19-.95,4.87-.89l13.93.48c2.26.08,4.88.72,6.63,2.24"/><path class="i" d="M346.61,450.47l-5.3-.4c-3.71-.28-7.29-.86-10.9-1.79-2.02-.52-3.96-2.5-3.78-3.96.5-4.1,6.87-3,9.68-2.69,10.35,1.15,20.44,1.56,30.69-.15l5.06-.85c2.68-.45,5.85-1.11,8.24.27,1.7.98,2.54,2.98,2.08,4.36-.62,1.88-1.69,2.94-3.78,3.2l-11.93,1.49c-3.58.45-7,.3-10.55.55-3.17.23-6.07.22-9.51-.04M346.36,448.97c4.9.42,19.11-.02,23.7-.87,2.95-.54,11.96-.11,10.73-4.42-.35-1.23-1.76-2.3-3.24-2.13l-17.25,2.05-5.45.16c-2.92.09-5.6.3-8.52.08l-7.06-.54c-2.66-.2-10.99-1.78-10.95,1.45.05,3.41,15.34,3.98,18.03,4.21"/><path class="e" d="M311.45,669.81c-.89,1.67-3.07,2.55-4.5,1.19-3.28-3.1-2.09-12.6-1.84-17.06.15-2.65.7-5.98,3.54-7.01,1.41-.51,2.82,1.57,3.07,2.84.89,4.46,1.93,15.9-.27,20.03"/><path class="e" d="M337.13,663.47c2.58,1.55-6.39,15.13-10.28,12.34-3.43-2.47,1.5-6.88,2.85-8.24,1.64-1.65,5.05-5.52,7.43-4.09"/><path class="e" d="M289.76,674.3c.67.91.29,2.66-.35,3.25-3.5,3.26-9.56-4.48-11-7.71-.56-1.26-.24-2.72.73-3.29,3.07-1.81,8.91,5.43,10.62,7.75"/><path class="h" d="M336.55,532.64l7.74-1.02c.99-.13,1.81.53,2.1,1.27.26.67-.47,1.84-1.47,2.15-6.3,1.93-12.92,1.54-19.55,1.07-4.1-.29-7.71-1.5-11.49-2.91l-7.36-2.74c-5.44-2.03-11.26-.06-15.86,3.26-.93.67-3.3,1-3.49-.41-.48-3.49,0-7.09.07-10.61l.27-15.32c.05-2.86.98-11.46.99-12.44l.2-30.91c0-.56.8-1.16,1.14-1.3,1.53-.61,2.22,9.01,2.27,10.42l.26,7.34c.17,4.77.13,9.62-.03,14.39l-.3,8.65-.42,8.86-.44,8.37c-.12,2.34-1.05,4.88.96,6.75l5.93-1.17c2.66-.53,5.47-.28,8.22.03,5.53.63,17.25,7.98,30.26,6.27"/><path class="h" d="M346.36,448.97c-2.7-.23-17.99-.8-18.03-4.21-.04-3.23,8.28-1.66,10.95-1.45l7.06.54c2.92.22,5.6,0,8.52-.08l5.45-.16,17.25-2.05c1.48-.18,2.89.9,3.24,2.13,1.23,4.31-7.78,3.88-10.73,4.42-4.6.85-18.81,1.29-23.7.87"/></g></g></svg>