<?xml version="1.0" encoding="UTF-8"?><svg id="a" xmlns="http://www.w3.org/2000/svg" xmlns:xlink="http://www.w3.org/1999/xlink" viewBox="0 0 591.85 800"><defs><style>.d{fill:none;}.e{fill:#ffdf44;}.f{fill:#49a258;}.g{fill:#c54b4f;}.h{fill:#5c97c4;}.i{clip-path:url(#c);}.j{clip-path:url(#b);}.k{fill:#d0b63b;}</style><clipPath id="b"><rect class="d" width="591.85" height="800"/></clipPath><clipPath id="c"><rect class="d" y="0" width="591.85" height="800"/></clipPath></defs><g class="j"><g class="i"><path class="g" d="M396.45,323.29c-2.18.3-4.48,1.43-6.44.11.4-4.46-1.3-8.8-1.88-13.6-2.1-17.53-5.17-34.4-11.17-51.1-4.07-11.33-9.87-21.26-15.35-31.9-7.2-13.99-10.7-19.18-24.35-26.35-3-1.57-5.86-1.58-8.91-.34-16.06,6.54-26.79,19.65-31.26,36.3-3.04,11.34-3.58,22.59-3.59,34l-.02,32.59c0,6.59-.58,13.2.99,20.13.65,2.86,3.73,5.12,4.15,8.2l-3.22,2.15c-1.17.78.05,2.38.16,3.53l.78,8.15c.11,1.19.04,2.38.19,3.56l3.73,31.23c.51,4.26,1.77,7.89,2.52,11.68,2.34,11.84,6.03,23.58,11.65,34.66,2.96,5.83,7.45,10.21,10.96,15.29l-7.52-4.78c-.33-3.53-.94-6.79-4.33-9.05-4.56,8.71,6.8,11.7,6.75,16.68-.9-.98-1.91-1.9-2.85-2.83-6.91-8.79-12.02-18.54-15.6-29.52-4.88-14.98-8.14-29.7-9.58-45.42l-3.41-37.32c-1.71-18.69-3.74-84.8,4.66-101.01,1.35-1.86,1.75-4.25,2.08-6.5,6.85-11.78,16.97-21.86,29.59-27.4,5.77-2.53,10.47-1.82,15.66.84,9.12,4.68,16.31,10.92,21.45,20.04,7.09,12.59,13.34,25.16,19.45,38.35,6.23,17.91,10.08,35.72,12.26,54.49.62,5.35,2.21,10.13,2.42,15.12"/><path class="f" d="M399.23,337.83l-5.06-.07c-.02-.67-.12-1.55-.64-1.65-.59-.11-1.43-.58-2.15-.5l-17.68,1.92c-1.82.2-3.57.86-4.87-.35,35.93-4.39,72.09-7.42,108.57-8.42,5.55-.15,10.49.5,15.89.79,22.25,1.22,43.53,6.23,64.3,15.48-2.28-17.91-.53-38.69,6.51-56.12-30.09,17.85-59.99,32.64-95.05,34.37l-11.62.57-13.06.73-13.04.73-19.57,1.13c-12.05.7-20.32,1.36-32.31,2.34-4.03.33-23.71,1.48-24.44,5.07-.74,3.6,10.49,1.76,10.28,3.83-4.9.85-9.9.94-15.2,1.2l-26.21,1.31c-9.61.48-18.57,2.8-27.51,4.98l-.78-8.15,13.88-2.16,49.08-4.73c5.23-.5,9.96-2.6,15.5-1.63-2.15-.37,17.6-.87,15.47-2.54-4.45-1.69-8.43.78-11.97-1.09,5.61-1.89,8.93.5,12.48-1.46,1.96,1.31,4.26.18,6.44-.11.62,0,1.48.06,2.07.26l5.24,1.8c3.24,1.11,6.67-.35,10.01-.52l22.33-1.14c2.34-.12,22.49-1.13,22.73-1.09,2.63.44,18.21-1.49,21.85-1.71,2.76-.17,4.99-1.78,7.16-2.13,3.22-.51,6.33,2.3,13.87-4.89,1.17-.29,2.25-1.13,3.55-.92.28.05.61.06,1,.03.33-.02.55-.23.45-.66.23,0,.5-.09.73-.06.57.08,1.35.15,1.46-.57,21.45-8.2,41.59-18.95,61.36-31.36,14.29-1.52,21.12,17.84,21.53,30.18.4,12.07-1.44,24.15-4.89,35.68-1.91,6.37-6.99,10.77-13.35,11.17-5.42.34-8.4-3.4-12.48-5.78-11.16-6.5-23.33-10.19-36.03-13.29-24.83-6.06-50.05-6.12-75.53-4.37l-30,2.06c-6.97.48-13.69,1.94-20.27,1.85M569.13,289.84c-6.98,5.19-13.92,61.35-.94,60.54,1.12,2.24,3.52,3.03,6.35,2.75,7.28-.72,10.18-12.55,11.25-19,2.5-15.02,4.66-37.68-8.36-48.12-1.62-1.3-3.63-2.1-5.2-1.36-1.84.87-3.04,2.69-3.09,5.2"/><path class="f" d="M162.31,311.87c-.06.5.47.97.46,1.43-.19,28.17,4,56.16,11.09,83.8,6.83,26.63,23.21,51.94,37.33,75.13.43.7,1.26.88,1.64,1.17-.08,1.36,1.21,2.03,2.1,2.44,3.93,8,20.09,13.89,29.27,14.07,8.41.16,16.31-4.28,21.76-10.61,4.58-5.31,6.6-12.28,7.2-18.84,4.09-10.33-1.34-12.57,7.82-14.25l-3.51,20.17c-2.44,14.06-12.39,24.55-26.65,27.71l2.25,31.22c.5,6.9-.44,13.65-1.23,20.56-1.31,5.65-3.47,10.58-6.1,15.71-12.38,24.1-11.56,37.87-12.53,64.17-1.33.25-2.46,2.31-4.26,1.2-.93-.58-2.04-2.11-2.81-3.14,1.31-7.05,1.05-14.32,1.55-21.99,1.1-16.61,5.76-32.21,14.09-46.6,7.89-14.62,4.45-44,2.59-60.14-12.25-1.5-25.62-5.36-33.3-15.32-13.26-17.18-23.38-36.11-32.74-55.59-14.02-29.18-21.35-83.48-20.85-115.51,2.16.17,2.96,2.44,4.81,3.23"/><path class="g" d="M157.79,292.25c1.46.9,2.48,3.38,4.89,2.88-.02.18.01.41,0,.59-1.06.88,1.1,1.08,1.71,1.36.3.13.67.16.96.32.99,1.37,3.06,1.78,1.79,4.17-1.1-.04-2.06-.5-2.92-.68-.4-.31-.96-.4-1.3-.81-.21-.24-.55-.39-.81-.56-.18-.11-.48.07-.67-.03-.25-.27-.49-.64-.85-.79-.46-.2-.93-.38-1.29-.74-1.22-1.25-2.7-2.3-4.39-2.77-.23-.06-.49,0-.73-.05-.15-1.82-1.93-1.65-2.99-2.26-8.27-4.76-15.85-10.75-22.83-17.66-3.83-3.8-5.61-9.39-9.87-12.67-9.72-7.49-21.02-11.67-31.75-17.58-10.42-5.74-19.68-12.43-29.46-19.02-7.9-6.17-14.22-12.82-18.72-22.61-3.48,8.52-8.84,15.22-15.27,22.16,6.85.64,12.94.34,18.47,3.56,15.19,10.48,25.45,11.84,39.31,24.49,3.27,2.98,7.01,5.26,11.15,6.83,6.38,2.43,11.78,5.84,17.59,9.28,5.38,3.19,10.56,5.95,15.3,10.22,10.91,9.84,18.36,8.1,38.31,28.33.36,1.35,0,2.77-1.11,3.65-1.85-.8-2.65-3.06-4.81-3.23-3.09-5.72-20.3-15.84-26.75-19.32-8.57-4.62-7.47-7.36-22.44-15.3-5.21-2.76-9.8-6.52-15.39-8.5-14.09-4.97-15.14-11.51-31.66-20.5l-23.91-13.02c-11.85-6.45-28.29,3.55-34.64-1.95-10.8-9.36,13.21-48.07,31.06-44.37,9.32,1.93,2.84,18.66,23.96,34.65,1.95,1.48,3.43,3.31,5.59,4.65l24.62,15.27c11.38,7.06,31.97,12.59,39.02,25.36,2.41,4.36,5.42,7.97,9.32,11.09,7.08,5.65,14.05,10.95,21.51,15.56M12.69,225.41c3.94-.33,6.8-3.37,9.7-6.31,5.65-5.73,13.07-15.22,12.05-24.09-.14-1.24-.19-2.91-1.18-3.56-1.13-.74-2.84-1.16-4.47-.6-17.96,6.13-28.64,27.93-23.38,34.65,1.7,2.17,5.47,1.66,7.28-.09"/><path class="f" d="M390.65,794.92c-.93,1-1.51,2.25-2.06,3.49l-.74.12-2.47-.07-3.36-.69c-.82-1.38-2.87-1.28-4.17-2.36l-5.85-4.84c-.33-1.24-.95-1.97-1.6-2.26.07-1.04-.56-1.97-1.6-2.19-.49-1.48-1.7-2.07-2.21-2.99-2.18-3.96-4.47-7.2-5.98-11.54-1.4,2.14-2.34,4.31-3.14,6.62-.4,1.14-1.85,1.74-1.57,2.79-.79-.12-.69,1.03-.86,1.55-1.02,1.12-1.96,2.63-2.69,3.75-4.2,6.39-11.22,9.79-18.89,9.29-.31-18.26,12.07-27.52,26.86-33.51,2.24.51,3.44-.88,4.85-1.33,16.28-5.16,29.27-7.04,45.36-3.26,1.53.36,5.38,1.77,4.19,3.66-7.2,11.47-22.74,10.55-35.01,9.03l6.97,6.08c5.64,4.92,6.29,11.99,3.97,18.66"/><path class="g" d="M403.66,4.87c-1.25.91-1.77,2.4-1.45,3.9-.17-.13-.5-.03-.68-.14-.16-.35-.44-.63-.8-.78-4.89-2.11-9.94-4.21-15.6-3.38-3.09.45-5.97,1.68-7.44,4.11-.44.73-.92,1.34-.6,2.5,3.38,12.39,18.99,19.65,30.17,20.65,1.03,1.05,2.75,1.05,3.74-.06l1.96-.1c.42-.02.9-.17.89-.67.21,0,.56-.12.73-.03,1.43,1.06,3.51,1.7,3.58,3.65-2.26,1.16-4.45,2.65-7.03,3.01,2.06-3.78-8.92-2.04-8.87-2.04-9.86-.78-17.68-6.41-25.36-13.84-1.43,10.57-5.83,18.3-12.38,25.33-5.45,5.85-9.06,12.49-13.66,18.89l-13.97,19.46c-6.18,8.61-11.92,16.95-17.46,26.02-4.31,7.04-9.73,12.91-14.61,19.51-14.71,19.89-29.46,35-48.42,50.2-.55-1.31-3.2-2.43-1.35-4.24,11.3-10,15.82-13.29,26.42-25.07l6.92-7.68,17.37-22.46c5.79-7.48,10.11-15.25,15.6-22.96l26.78-37.65c3.97-5.58,7.21-11.37,12.17-16.14,9.74-9.39,13.63-21.51,11.77-34.99-.73-5.26,5.57-9.22,10.08-9.69,5.8-.6,11.22.38,16.46,2.58l5.06,2.12Z"/><path class="f" d="M84.71,589.53c-1.51.93-1.49,2.67-2.15,3.59-11.59,9.76-24.3,19.66-40,13.53.73-8.25,11.95-14.63,18.71-17.1,1.8-.66,3.14-.47,4.94-1.38-1.85-1.63-3.39-.42-4.85-.93-8.82-4.3-16.03-6.77-20.61-16.45,10.46-4.3,22.48-2.85,29.37,4.98l6.29,7.15c-.64-3.16-2.22-6.14-2.38-9.2-.37-7.23.68-13.72,3.93-19.9,13.08,4.24,10.07,26.47,6.75,35.71"/><path class="g" d="M394.17,337.76l5.06.07c2.45,22.61-.08,45.24-7.77,66.98-4.35,12.3-9.55,23.39-18.03,33.48-6.75,8.05-16.16,13.72-26.19,16.99-8.79,2.86-18.18-1.27-24.15-7.14-.05-.22.06-.49-.02-.7-.09-.26-.31-.79-.62-.85-1.16-.26-1.46-1.39-2.14-2.13.05-4.98-11.31-7.97-6.75-16.68,3.39,2.25,4,5.51,4.33,9.05l7.52,4.78c.17.25.38.49.57.72.61,2.3,3.03,4.28,5.25,4.59,5.23,3.56,11.34,4,17.33,1.35,5.9-2.62,11.8-5.23,16.18-10.11,29.98-33.41,27.93-64.21,28.22-99.55v-.68c.36.05.84-.16,1.2-.15"/><path class="g" d="M411.14,37.53c-16.98,10.74-20.93,7.19-37.61,22.7-11.48,10.68-19.92,20.26-24.66,35.84-2.04,6.71-6.51,12.1-10.19,17.96-11.05,17.6-17.53,23.12-32.25,37.25l-14.45,13.88-25.33,24.71c-1.83,1.78-4.01,2.89-5.14,4.94-1.39-1.01-.85-3.73-1.49-4.92l25.59-25.23,24.62-23.35c5.64-5.35,10.67-10.93,15.78-16.82,5.16-5.95,8.82-12.75,13.34-19.14,4.45-6.3,5.91-13.27,9.14-20.23,8.83-19.07,24.78-34.17,43.72-42.9,4.48-2.06,8.4-3.42,12.29-5.84-1-.49-1.78-.31-2.22-.87-.04,0,10.93-1.74,8.87,2.04"/><path class="h" d="M323,675.28c-2.55-.13-3.11-3.3-4.25-4.99l20.82-.27c-2.04-6.48-.86-12.01,2.96-18.25-16.61,1.99-30.07-.09-45.42,1.34l-8.71.81-14.5.62-20.09.57c-14.21.4-28.06-.56-42.22-1.91-4.29-.41-8.32-.48-12.52.05l-24.59,3.07c-15.02,1.87-18.27-.58-31.9.01-.06-.25,0-.54-.06-.8l30.28-.24c6-.05,22.63-3.91,34.24-3.67,3.61.07,6.95,1.4,10.29.79-.55-1.38-1.79-1.56-2.22-2.11,1.69.18,3.38.28,5.07.35-.04.56-.21,2.28.86,2.37,4.36.39,8.54,1.13,12.96,1.09l23.19-.23c3.67-.04,7.09-.58,10.87-.58,4.83,0,26.57-.7,29.1-1.74.55-.23.52-.91.69-2.2-2.98-1.31-6.23.08-9.53.21l-20.25.82-6.59.59c-5.61.5-10.95-.08-16.64.25.13-1.19,1.07-.81,1.62-.93,2.16-.07,4.21-.86,6.37-.57-.11.68.58.77,1.09.77s1.2-.09,1.09-.77c4.67-.26,9.5.14,14.53-.2l10.85-.72,9.49-.59c12.51-.78,24.51-1.33,37.02-.86,15.13.56,24.18-5.54,30.49.58,6.43,6.24,1.95,24.02-8.79,26.08-8.67,1.67-17.28.16-25.58,1.25M349.65,668.46c7.04-4.74,6.51-16.01,3.9-17.56-6.52-3.87-13.27,14.94-8.52,17.99,1.27.82,3.11.59,4.62-.43"/><path class="f" d="M255.05,176.81c-1.84,1.81.8,2.93,1.35,4.24,1.23,2.94,2.13,6.03,3.62,8.83.64,1.19.1,3.91,1.49,4.92,1.92,10.22,3.54,21.4,3.39,31.9-1.74-.29-3.74.13-5.52.04.73-5.08-.36-10.23-.65-15.12-.85-14.56-6.01-28.9-14.89-41.06-8.81-12.06-26.43-16.18-38.76-7.5-7.5,5.28-12.76,13.24-16.21,21.02-1.16.92-2.16,2.26-2.84,3.65-2.88,5.87-6.91,11.37-9.48,17.37-2.65.63-.45-6.66-1.97-5.87,7.5-16.18,13.34-26.87,26.23-40.25,18.35-11.45,41.78-4.6,51.44,14.76.71,1.42,1.27,2.92,2.79,3.09"/><path class="h" d="M133.26,652.73c1.82.82,1.3,3.37,1.98,4.81-10.49,1.68-19.1,7.18-30.99,7.81,3.52,5.06,4.91,9.29,4.88,15.18,11.34-3.73,22.21-4.86,33.63-3.5,12.13,1.45,32.88-2.12,45.18-5.11,6.68-1.62,13.06-2.17,19.98-1.88,7.9.33,22.47,10.04,43.95,5.55,11.15-2.33,21.93-3.98,33.26-4.48l10.55-.47c4.54-.2,8.77-.9,13.04-.64.25.53,1.49.7,1.45,1.53-8.78-.05-19.61.58-29.02,1.28l-8.07.6c-5.07.38-9.88.57-14.59,2.83-1.15.55-2.94-.29-4.2.08-20.6,6.11-37.89-4.82-48.63-5.3-10.94-.49-21.25,3.36-31.82,5.09-8.92,1.46-21.37,3.51-29.8,2.46-6.49-.81-25.02-1.93-29.98,2.69,1.25,3.22,10.35-1.63,11.88.36-13.6,1.04-26.62,12.12-36.46-1.93-3.83-5.47-6.92-13.77-1.69-18.28,1.69-1.45,4.12-2.36,6.74-1.88,15.96,2.91,24.22-4.11,38.73-6.8M103.72,680.42c2.07-9.54-8.82-18.51-12.37-15.46-3.5,3.01,1.11,11.66,5.75,15.73,1.48,1.3,6.01,2.56,6.63-.26"/><path class="k" d="M317.47,441.61c.95.93,1.96,1.85,2.85,2.83.68.74.98,1.87,2.14,2.13.08.35.05,1.18.62.85.08.21-.03.48.02.7-1.64-.02-3.33-.66-5.07-1.35-8.89-3.52-18.05-4.09-27.41-2.36l-9.63,1.77c-9.16,1.69-3.73,3.93-7.82,14.25-13.07-2.35-26.09.13-38.29,5.92l-19.95,9.46c-.89-.42-2.18-1.09-2.1-2.44,17.25-17.35,48.86-26.49,72.69-32.4,10.84-2.69,21.62-2.26,31.95.62"/><path class="g" d="M226.15,623.79c.76,1.03,1.88,2.56,2.81,3.14,1.8,1.11,2.93-.95,4.26-1.2,7.13-1.32,15.02,2.98,17.37,9.98,1.8,5.36.06,10.5-4.24,13.24-4.33,2.75-9.45,3.21-13.93.61-.81-.47-1.17-1.94-2.44-1.64-.97.23-1.81.6-1.86,1.66-2.68.17-5.24,1.2-7.94,1.09-1.69-.07-3.39-.17-5.07-.35-1.83-.11-3.39-1.69-5.16-2.08-.1-.82-.92-1.05-1.43-1.53-5.68-5.28-6.65-14.53-.68-20.13,5.04-4.73,12.41-4.88,18.33-2.78M225.16,642.21c1.94-3.44.79-9.52-2.04-12.03-3.73-3.31-11.09-.68-12.52,3.68-1.37,4.17,1.17,7.76,4.09,9.42,2.94,1.67,8.35,2.7,10.47-1.07M244.81,640.6c.82-5.62-6.16-10.39-10.53-7.96-1.96,2.59-.79,8.56,1.45,10.95,2.51,2.68,8.46,1.27,9.08-2.99"/><path class="h" d="M310.15,671.54l.67.67c.27.42,1.12,1.48.65,2.07-4.96.53-9.87-.4-14.83.46-5.34.92-10.6.04-15.94.64-7.48.85-14.65,1.2-21.33,3.55-8.32,2.92-17.7,3.46-26.75,2.48-7.93-.86-14.88-3.79-22.48-5.77-5.75-1.5-11.79-.41-17.63.72-17.91,3.47-32.15,6.78-50.61,5.63-5.52-.34-10.78-.68-15.97-.36-1.53-1.98-10.63,2.87-11.88-.36,4.96-4.63,23.49-3.5,29.98-2.69,8.43,1.05,20.88-1,29.8-2.46,10.57-1.73,20.88-5.58,31.82-5.09,10.74.48,28.03,11.41,48.63,5.3,1.26-.37,3.05.47,4.2-.08,4.71-2.26,9.52-2.45,14.59-2.83l8.07-.6c9.41-.7,20.24-1.33,29.02-1.28"/><path class="g" d="M318.75,670.29c1.13,1.69,1.7,4.86,4.25,4.99,2.57,4.33,6.29,7.95,9.52,12.22,9.95,13.13,7.73,17.82,14.38,25.51,4.56,5.27,6.87,11.17,9.09,17.69,3.44,10.13,6.89,19.89,9.17,30.04-1.41.45-2.61,1.84-4.85,1.33-1.03-6.38-3.16-12.67-5.51-19.04l-7.29-19.72c-1.82-4.91-6.96-7.95-9.07-12.6l-5.19-11.42c-2.1-4.62-15.82-21.04-20.06-24.28-.48-.98-1-2.52-2.36-2.8l-.67-.67c.03-.84-1.21-1.01-1.45-1.53-.83-1.79-2.5-3.12-3.32-5.19-.78-1.96-.14-4.01,1.65-4.68,4.17-1.56,7.92,8.96,11.73,10.17"/><path class="g" d="M140.98,651.3c.58,1.19-.14,3.5,1.54,4.24.05.26,0,.54.06.8.54,2.11,1.66,4.16,1.89,6.6.22,2.31-1.04,4.02-3.06,4.2-3.29.29-3.48-3.75-6.18-9.58-.67-1.45-.15-3.99-1.98-4.81-1.55-6.86-4.94-13.93-7.45-20.77-1.46-3.97-4.58-6.29-7.54-8.74-3.62-3-6.47-6.44-9.8-9.77-7.9-7.92-16.52-14.76-25.91-20.34.66-.91.64-2.65,2.15-3.59,7.05,3.12,13.55,7.64,19.31,13.2l15.12,14.56c3.75,3.61,8.09,6.33,10.68,10.95,4.3,7.67,6.63,15.98,11.16,23.07"/><path class="f" d="M176.56,205.08c-2.17,5.05-3.54,10.75-5.35,16.33-4.21,12.98-5.13,26.3-6.61,39.77-.99,8.97-.44,17.6-1.25,26.53l-.67,7.41c-2.4.5-3.43-1.98-4.89-2.88,1.18-26.78,1.9-46.33,8.54-72.93,1.85-7.43,5.26-13.63,8.26-20.1,1.51-.79-.68,6.5,1.97,5.87"/><path class="k" d="M191.81,187.08c.64,2.27,2.34,4.08,4.17,5.98,8.19,8.52,17.18,15.97,27.55,21.77,11.3,6.32,23.3,11.27,35.86,11.9,1.78.09,3.78-.33,5.52-.04,10.37,1.75,20.93-1.13,30.72-4.84-.33,2.25-.73,4.64-2.08,6.5-.03-.7-.64-.66-1.03-.65-.26.01-13.64,5.19-31.07,3.22-24.92-2.82-47.77-17.08-65.37-34.37-3.25-1.34-8.06-9.22-10.03-8.84.68-1.39,1.68-2.73,2.84-3.65.94.96,1.82,2.21,2.93,3.02"/><path class="f" d="M501.71,313.87c-7.54,7.19-10.65,4.38-13.87,4.89-2.17.34-4.41,1.96-7.16,2.13-3.63.22-19.21,2.15-21.85,1.71-.24-.04-20.39.97-22.73,1.09l-22.33,1.14c-3.34.17-6.77,1.63-10.01.52l-5.24-1.8,45.04-2.96,26.15-1.32c11.18-.57,21.57-2.81,31.99-5.4"/><path class="h" d="M196.24,648.36c-.45,1.65,12.42,0,13.7-.13,1.77.39,3.33,1.97,5.16,2.08.43.55,1.67.73,2.22,2.11-3.34.61-6.68-.72-10.29-.79-11.6-.24-28.24,3.63-34.24,3.67l-30.28.24c-1.69-.74-.97-3.05-1.54-4.24,13.86-.34,25.31,1.23,39.31-.78-2.31,1.65,13.17-.59,8.82-.86.32-.18.88-.54,1.26-.56-.02.89,1.19.62,1.85.68.54.05.71-.64,1.13-.85.88-.45,1.97-.33,2.9-.57"/><path class="h" d="M246.46,650.32c-.55.12-1.49-.26-1.62.93,5.69-.33,11.02.25,16.64-.25l6.59-.59,20.25-.82c3.3-.13,6.55-1.52,9.53-.21-.18,1.3-.15,1.98-.69,2.2-2.52,1.04-24.27,1.74-29.1,1.74-3.78,0-7.2.55-10.87.58l-23.19.23c-4.42.04-8.59-.7-12.96-1.09-1.06-.09-.9-1.81-.86-2.37,2.7.11,5.25-.93,7.94-1.09-.06,1.15.89.96,1.91.95.56,0,1.36-.12,1.69-.89l.7-.08c4.48,2.6,9.61,2.14,13.93-.61.14.44.17.91.11,1.37"/><path class="g" d="M418.17,34.51c-.08-1.95-2.15-2.6-3.59-3.65l2.5-2.36c2.24-2.11-.3-6.69-2.44-9.29-3.57-4.34-8.19-7.23-12.44-10.44-.32-1.5.2-2.99,1.45-3.9,8.08,3.39,21.48,13.93,18.59,25.07-.66,2.56-2.25,3.63-4.08,4.58"/><path class="h" d="M313.18,675.01c-3.18.4-6.45-.31-9.9.52-4.15,1.01-8.45-.27-12.66.49-2.51.45-4.8.4-7.36.64l-23.9,2.26c6.68-2.34,13.85-2.7,21.33-3.55,5.35-.61,10.6.28,15.94-.65,4.96-.86,9.87.08,14.83-.45.48-.58-.38-1.64-.65-2.07,1.36.28,1.88,1.82,2.36,2.8"/><path class="h" d="M209.94,648.23c-1.28.12-14.15,1.78-13.7.13,3.6-.92,10.7-.13,12.27-1.65.51.48,1.33.71,1.43,1.53"/><path class="h" d="M189.1,649.66c4.36.27-11.12,2.5-8.82.86,2.9-.42,5.76-1.27,8.82-.86"/><path class="h" d="M193.34,648.93c-.42.21-.59.9-1.13.85-.67-.06-1.87.21-1.85-.68l2.98-.17Z"/><path class="h" d="M255,649.75c.11.68-.58.77-1.09.77s-1.2-.09-1.09-.77c.7.09,1.48.04,2.18,0"/><path class="f" d="M508.9,311.69c-.12.72-.9.66-1.46.57.3-.57.99-.39,1.46-.57"/><path class="f" d="M506.71,312.32c.1.44-.12.64-.45.66-.39.03-.72.02-1-.03.28-.53.91-.61,1.45-.64"/><path class="e" d="M293.54,228.35c-8.4,16.21-6.37,82.33-4.66,101.01l3.41,37.32c1.44,15.72,4.7,30.44,9.58,45.42,3.58,10.97,8.68,20.73,15.6,29.52-10.33-2.88-21.11-3.31-31.95-.62-23.83,5.91-55.44,15.05-72.69,32.4-.38-.29-1.21-.46-1.64-1.17-14.12-23.19-30.51-48.5-37.33-75.13-7.09-27.65-11.28-55.63-11.09-83.8,2.14.88,11.99,11.54,12.58,13.65-3.83,6.51-9.06,18.92-1,24.48,3.01,2.07,6.56,2.32,9.92.35,11.8-6.91,21.33-20.39,26.15-32.89,1.14-2.95.13-6.02-1.49-7.83-4.83-5.4-18.5-.77-22.9,3.65-1.24-.52-2.43-1.84-3.56-3.03-5.29-5.55-10.64-10.74-17.12-14.28-.29-.16-.66-.18-.96-.32-.23-.78-.96-1.17-1.71-1.36.02-.17-.01-.41,0-.59l.67-7.41c.81-8.94.26-17.57,1.25-26.53,1.49-13.47,2.4-26.79,6.61-39.77,1.81-5.58,3.18-11.28,5.35-16.33,2.57-6,6.61-11.5,9.48-17.37,1.97-.38,6.78,7.5,10.03,8.84,17.6,17.28,40.45,31.55,65.37,34.37,17.43,1.97,30.81-3.21,31.07-3.22.39-.02,1-.05,1.03.65"/><path class="e" d="M390.01,323.41c-3.55,1.96-6.87-.43-12.48,1.46-.33-.17-.88.15-1.24.03-2.11-.66-4.25.44-6.65.57-3.14.17-6.22-.37-8.79.82-.3.08-.95.1-1.26.04-1.79-.38-4.67.52-6.66.76-1.71.2-3.41.41-5.13.45-.41-.57-.68-1.23-.85-1.91,5.28-9.86,4.7-27.19-7.75-29.21-1.61-.26-3.31-.63-5.2-.62l-2.18.02c-1.84-11.07-9.23-28.94-20.17-34.15-8.01-3.82-14.92,2.91-18.16,8.76,0-11.4.55-22.66,3.59-34,4.47-16.66,15.2-29.76,31.26-36.3,3.06-1.25,5.91-1.24,8.91.34,13.65,7.17,17.15,12.36,24.35,26.35,5.47,10.64,11.28,20.56,15.35,31.9,6,16.71,9.07,33.57,11.17,51.1.57,4.8,2.28,9.14,1.88,13.6"/><path class="e" d="M392.97,338.59c-.3,35.33,1.75,66.14-28.22,99.55-4.38,4.89-10.28,7.5-16.18,10.11-5.98,2.65-12.09,2.21-17.33-1.35-1.94-1.32-3.76-2.8-5.25-4.59-.2-.23-.4-.47-.57-.72-3.51-5.08-8-9.46-10.96-15.29-5.63-11.08-9.31-22.82-11.65-34.66,6.73,4.4,14.69,3,20.01-3.61,9.27-11.53,13.43-30.09,14.2-44.39,1.42.01,3.66.07,4.96-.61,2.44,1.29,5.53.71,8.06-.29.87-.34,1.95-.12,2.84-.38,2.23,1.24,5,.5,7.37-.27l1.25-.04c1.78-.05,4.05.82,5.33-.68l1.94-.03c1.54-.02,3.54.68,4.61-.67.77.22,1.82-.22,2.63-.07,1.56.29,3.09-.14,4.55-.68.65-.11,1.32.02,1.97-.06l10.45-1.27Z"/><path class="k" d="M328.84,343.67c.29.16.67.6,1.06.43.28-.13.5-.37.68-.51l6.43.06c-.77,14.3-4.94,32.86-14.2,44.39-5.31,6.61-13.28,8-20.01,3.61-.75-3.79-2.01-7.42-2.52-11.68l-3.73-31.23c3.16.52,6-1.14,9.1-1.58.56-.08,1.68.11,1.71-.68l1.19-.04c.79-.03,2.18.31,2.44-.69.57.14,1.3-.17,1.9-.06.49.08,1.06.1,1.62-.24.35-.21.59-.51.16-.92.64.04,1.29,0,1.93-.01,1.3,1.41,2.58.21,3.8-.22,2.6-.91,5.78-.46,8.45-.62"/><path class="k" d="M331.83,295.82c-3.3.02-5.5,3.51-8.15,7.23-4.61-8.69-13.27-11.5-21.85-8.21-4.11,1.58-6.69,4.34-8.35,8.18l.02-32.59c3.24-5.85,10.15-12.58,18.16-8.76,10.93,5.22,18.33,23.08,20.17,34.15"/><path class="f" d="M331.83,295.82l2.18-.02c1.33,1.31,3.46.51,5.2.62,12.45,2.02,13.03,19.35,7.75,29.21-.36.67-1.89.62-1.89,2.12,1.02.4,1.89-.2,2.74-.22,1.72-.04,3.42-.25,5.13-.45-1.2.73,8.54,1.34,6.66-.76.31.06.96.04,1.26-.04,2.74,1.44,6.22.07,9.52,0l5.04-.11c.74-.02,1.36-.71.88-1.28.36.11.91-.21,1.24-.03,3.54,1.87,7.52-.61,11.97,1.09,2.12,1.67-17.62,2.16-15.47,2.54-5.54-.97-10.27,1.13-15.5,1.63l-49.08,4.73-13.88,2.16c-.11-1.14-1.33-2.75-.16-3.53l3.22-2.15c-.42-3.08-3.51-5.34-4.15-8.2-1.57-6.92-1-13.54-.99-20.13,1.66-3.84,4.24-6.6,8.35-8.18,8.58-3.29,17.24-.48,21.85,8.21,2.64-3.71,4.84-7.2,8.15-7.23M319.79,321.81c2.73-6.16,2.57-13.47-.92-18.88-3.15-4.88-8.98-6.75-14.12-5.02-9.89,3.31-9.79,16.24-7.26,22.69,1.96,5.01,5.78,8.04,10.91,8.29,4.58.22,9.17-2.05,11.39-7.08M341.99,324.97c5.5-6.3,6.15-16.3.87-22.72-2.89-3.51-8.39-3.25-11.85-1.29-3.67,2.08-5.66,6.13-5.38,10.73.2,3.27-1.28,14,6.35,16.17,3.63,1.03,7.3.23,10.02-2.88M326.39,329.17c-.89-2.85-1.74-3.7-3.31-5.38-1.7,2.11-3,3.59-4.25,5.77,2.74.39,5.11.79,7.56-.38"/><path class="f" d="M394.17,337.76c-.36,0-.84.21-1.19.15-1.33-.2-12.33.24-10.46,1.95-.65.08-1.32-.05-1.97.06-.71-.64-1.67-.74-2.56-.73-.89,0-2.44.11-1.99,1.41-.81-.15-1.86.29-2.63.07-.83-.45-1.62-.85-2.64-.77-.87.06-2.4.09-1.97,1.45l-1.94.03c-.74-1.04-6.56-1.13-5.33.68l-1.25.04c-2.22-1.01-5.43-1.37-7.37.27-.89.26-1.97.03-2.84.38-2.53-1.1-5.7-.94-8.06.3-1.3.68-3.54.62-4.96.61l-6.43-.06c.17-.46-.24-.61-.54-.65-.6-.09-1.42.1-1.2.73-2.66.16-5.84-.29-8.45.62-.82-1.08-3.23-1.14-3.8.22-.64.02-1.29.05-1.93.01-.33-.02-.7-.13-1.16-.04-.46.09-1.1.61-.62,1.21-.6-.1-1.33.2-1.9.06-.44-.23-.82-.7-1.25-.71-.88-.02-1.66.62-1.2,1.4l-1.19.04c-.27-.36-.82-.8-1.17-.63-.49.24-.98.89-.54,1.31-3.1.44-5.94,2.1-9.1,1.58-.14-1.19-.07-2.37-.19-3.56,8.95-2.18,17.9-4.5,27.51-4.98l26.21-1.31c5.3-.26,10.3-.36,15.2-1.2,1.17-.2,2.39-.17,3.55-.5,1.3,1.21,3.05.55,4.87.35l17.68-1.92c.72-.08,1.57.39,2.15.5.52.1.63.99.64,1.65"/><path class="e" d="M368.83,337.17c-1.15.34-2.37.3-3.55.5.22-2.07-11.02-.23-10.28-3.83.74-3.59,20.41-4.73,24.44-5.07,11.99-.99,20.26-1.64,32.31-2.34l19.57-1.13,13.04-.73,13.06-.73,11.62-.57c35.06-1.73,64.96-16.53,95.05-34.37-7.04,17.43-8.79,38.21-6.51,56.12-20.77-9.24-42.05-14.25-64.3-15.47-5.4-.3-10.34-.95-15.89-.8-36.48,1-72.64,4.03-108.57,8.42"/><path class="k" d="M568.19,350.38c-12.98.81-6.04-55.34.94-60.54,5.89,6.87,8.82,16.7,8.96,26.19.13,9.42-1.71,29.17-9.89,34.35"/><path class="e" d="M568.19,350.38c8.19-5.18,10.03-24.93,9.89-34.35-.13-9.49-3.07-19.32-8.96-26.19.05-2.51,1.25-4.32,3.09-5.2,1.57-.74,3.59.06,5.2,1.36,13.02,10.45,10.86,33.1,8.36,48.12-1.07,6.46-3.97,18.28-11.25,19-2.82.28-5.22-.51-6.35-2.75"/><path class="e" d="M273.16,460.45c-.6,6.57-2.62,13.53-7.2,18.84-5.45,6.33-13.35,10.78-21.76,10.61-9.18-.18-25.34-6.07-29.27-14.07l19.95-9.46c12.2-5.79,25.21-8.27,38.29-5.92"/><path class="g" d="M188.94,342.13c-.32.92-1.43,1.83-2.25,2.24l-8.56-13.08c-.94-1.22-.28-4.41-2.79-4.33-.59-2.11-10.44-12.78-12.58-13.66,0-.46-.52-.93-.46-1.43,1.12-.88,1.47-2.29,1.11-3.65,6.54,6.63,14.17,12.2,19.06,20.95,2.38,4.27,5.41,8.26,6.46,12.96"/><path class="e" d="M151.18,292.88c.86.92,2.02,1.46,2.99,2.26.23.05.5,0,.73.05,1.08,1.38,2.69,2.38,4.39,2.77.36.36.83.54,1.29.74-.26.5.52.62.85.79.18.1.49-.08.67.03-.27.52.5.47.81.56.35.4.91.5,1.3.81,11.6,8.99,20.58,18.45,29.46,30.86.77,1.07,1.52,2.06,2.49,2.55-1.08,2.95-4.48,6.18-7.21,7.84-1.05-4.7-4.08-8.69-6.46-12.96-4.89-8.75-12.53-14.32-19.06-20.95-19.95-20.23-27.4-18.49-38.31-28.33-4.74-4.28-9.92-7.04-15.3-10.22-5.81-3.44-11.21-6.85-17.59-9.28-4.13-1.57-7.88-3.85-11.15-6.83-13.86-12.65-24.12-14.01-39.31-24.49-5.53-3.22-11.62-2.92-18.47-3.56,6.43-6.94,11.78-13.64,15.27-22.16,4.49,9.78,10.82,16.44,18.72,22.61,9.78,6.59,19.04,13.28,29.46,19.02,10.73,5.91,22.03,10.08,31.75,17.58,4.26,3.28,6.04,8.87,9.87,12.67,6.98,6.91,14.56,12.9,22.83,17.66"/><path class="k" d="M34.43,195.01c1.02,8.87-6.4,18.35-12.05,24.09-2.9,2.94-5.76,5.98-9.7,6.31.14-12.88,6.06-24.82,18.26-31.09.67-.35,1.44-1.11,2.34-.85.5.15.7,1.05,1.14,1.54"/><path class="e" d="M34.43,195.01c-.44-.49-.64-1.39-1.14-1.54-.9-.27-1.67.5-2.34.85-12.2,6.27-18.12,18.21-18.26,31.09-1.81,1.74-5.58,2.26-7.28.09-5.26-6.71,5.42-28.52,23.38-34.65,1.63-.56,3.34-.14,4.47.6.99.65,1.03,2.32,1.18,3.56"/><path class="g" d="M186.03,314.71c.12,1.78,1.57,2.91,2.85,3.5,2.48,4.34,6.96,8.42,9.05,13.07.28,1.34-1.02,2.36-1.77,3.03-.96-.49-1.72-1.48-2.49-2.55-8.88-12.41-17.86-21.87-29.46-30.85.87.17,1.82.64,2.92.68,1.27-2.39-.8-2.8-1.79-4.17,6.48,3.54,11.83,8.73,17.12,14.28,1.13,1.19,2.33,2.51,3.56,3.03"/><path class="g" d="M154.17,295.14c-.97-.8-2.13-1.34-2.99-2.26,1.06.61,2.84.44,2.99,2.26"/><path class="g" d="M159.29,297.96c-1.71-.39-3.32-1.39-4.39-2.77,1.7.46,3.18,1.52,4.39,2.77"/><path class="g" d="M164.39,297.08c-.62-.27-2.77-.48-1.71-1.36.75.18,1.48.58,1.71,1.36"/><path class="g" d="M161.43,299.49c-.32-.18-1.1-.29-.85-.79.35.15.6.52.85.79"/><path class="g" d="M162.91,300.08c-.32-.09-1.08-.04-.81-.56.27.17.61.32.81.56"/><path class="e" d="M402.27,35.48c.44.57,1.22.38,2.22.87-3.89,2.42-7.81,3.77-12.29,5.84-18.94,8.73-34.88,23.83-43.72,42.9-3.23,6.97-4.69,13.94-9.14,20.23-4.51,6.39-8.17,13.19-13.34,19.14-5.11,5.89-10.14,11.47-15.78,16.82l-24.62,23.35-25.59,25.23c-1.5-2.8-2.39-5.88-3.62-8.83,18.96-15.2,33.71-30.3,48.42-50.2,4.88-6.6,10.3-12.47,14.61-19.51,5.54-9.07,11.28-17.41,17.46-26.02l13.97-19.46c4.6-6.4,8.21-13.04,13.66-18.89,6.55-7.03,10.96-14.75,12.38-25.33,7.68,7.43,15.5,13.06,25.36,13.84"/><path class="k" d="M412.92,30.92c-.28.21-.17.43.05.65l-1.96.1-3.74.06c-11.18-1-26.79-8.26-30.17-20.65-.32-1.16.16-1.76.6-2.5,8.34-1.13,20.28,4.17,26.59,10.25,2.45,1.4,4.35,3.34,5.74,5.79,1.87,1.79,2.81,3.99,2.88,6.3"/><path class="e" d="M400.74,7.85c.23.29.48.58.8.78.18.12.51.01.68.14,4.25,3.22,8.87,6.11,12.44,10.44,2.14,2.6,4.68,7.18,2.44,9.29l-2.5,2.36c-.17-.09-.52.03-.73.03l-.94.02c-.07-2.31-1.01-4.51-2.88-6.3-1.39-2.45-3.29-4.39-5.74-5.79-6.31-6.08-18.25-11.38-26.59-10.25,1.46-2.43,4.34-3.66,7.44-4.11,5.66-.83,10.71,1.27,15.6,3.38"/><path class="g" d="M411.01,31.67c-.99,1.11-2.7,1.1-3.74.06l3.74-.06Z"/><path class="g" d="M412.97,31.56c-.22-.22-.33-.43-.05-.65l.94-.02c0,.5-.47.65-.89.67"/><path class="g" d="M401.54,8.63c-.31-.2-.57-.49-.8-.78.35.15.64.43.8.78"/><path class="f" d="M392.98,337.91v.68s-10.46,1.27-10.46,1.27c-1.87-1.71,9.13-2.16,10.46-1.95"/><path class="g" d="M331.24,446.9c-2.23-.31-4.64-2.29-5.25-4.59,1.5,1.79,3.32,3.27,5.25,4.59"/><path class="g" d="M323.08,447.43c-.57.32-.53-.5-.62-.85.31.07.52.6.62.85"/><path class="e" d="M318.75,670.29c-3.81-1.2-7.56-11.72-11.73-10.17-1.79.67-2.43,2.72-1.65,4.68.83,2.08,2.49,3.4,3.32,5.19-4.26-.26-8.5.44-13.04.64l-10.55.47c-11.33.5-22.11,2.15-33.26,4.48-21.48,4.49-36.05-5.22-43.95-5.55-6.92-.29-13.3.26-19.98,1.88-12.3,2.99-33.05,6.56-45.18,5.11-11.42-1.36-22.29-.23-33.63,3.5.03-5.89-1.36-10.12-4.88-15.18,11.88-.64,20.49-6.13,30.99-7.81,2.7,5.83,2.9,9.87,6.18,9.58,2.02-.18,3.28-1.88,3.06-4.2-.23-2.43-1.35-4.49-1.89-6.6,13.63-.6,16.88,1.86,31.9-.01l24.59-3.07c4.2-.52,8.23-.46,12.52-.05,14.16,1.36,28.01,2.32,42.22,1.91l20.09-.57,14.5-.62,8.71-.81c15.35-1.43,28.81.65,45.42-1.34-3.82,6.24-5,11.77-2.96,18.25l-20.82.27Z"/><path class="e" d="M349.65,668.46c-1.51,1.02-3.35,1.25-4.62.43-4.75-3.05,2-21.86,8.52-17.99,2.62,1.55,3.14,12.82-3.9,17.56"/><path class="e" d="M258.74,211.6c-.15,1.34-.03,2.56-.48,4.58-30.09-3.04-43.48-12.46-66.44-29.11-1.11-.8-1.99-2.05-2.93-3.02,3.45-7.77,8.72-15.73,16.21-21.02,12.32-8.68,29.95-4.56,38.76,7.5,8.88,12.16,14.04,26.5,14.89,41.06"/><path class="e" d="M258.74,211.6c.28,4.89,1.38,10.05.65,15.12-12.56-.63-24.56-5.58-35.86-11.9-10.37-5.8-19.36-13.25-27.55-21.77-1.83-1.9-3.53-3.71-4.17-5.98,22.97,16.65,36.36,26.07,66.44,29.11.46-2.02.34-3.24.48-4.58"/><path class="e" d="M103.72,680.42c-.61,2.82-5.14,1.57-6.63.26-4.63-4.07-9.25-12.72-5.75-15.73,3.56-3.05,14.44,5.93,12.37,15.46"/><path class="h" d="M231.71,649.64c-.33.76-1.13.88-1.69.89-1.03,0-1.97.2-1.91-.95,1.18-.07,2.41.35,3.6.07"/><path class="h" d="M175.34,326.95c2.51-.08,1.84,3.11,2.79,4.34-2.05,1.4-4.7,12.66-1.93,15.67,2.74,2.97,8.66.03,10.49-2.59.82-.41,1.93-1.31,2.25-2.24,2.74-1.66,6.13-4.89,7.21-7.84.75-.66,2.05-1.68,1.77-3.03,4.37-3.39,7.5-9.92,7.71-15.8.18-5.04-14.39-.09-16.75,2.73-1.28-.59-2.73-1.72-2.85-3.5,4.4-4.42,18.07-9.04,22.9-3.65,1.62,1.81,2.63,4.88,1.49,7.83-4.82,12.5-14.35,25.98-26.15,32.89-3.36,1.96-6.91,1.72-9.92-.35-8.06-5.55-2.83-17.97,1-24.48"/><path class="f" d="M376.29,324.9c.48.57-.15,1.26-.88,1.28l-5.04.11c-3.29.07-6.77,1.45-9.52,0,2.57-1.2,5.65-.65,8.79-.82,2.39-.13,4.54-1.23,6.65-.57"/><path class="f" d="M359.59,326.33c1.87,2.09-7.86,1.48-6.66.76,1.99-.23,4.87-1.13,6.66-.76"/><path class="f" d="M347.8,327.54c-.84.02-1.72.62-2.74.22,0-1.5,1.53-1.45,1.89-2.12.17.68.44,1.34.85,1.91"/><path class="k" d="M339.21,296.42c-1.74-.11-3.87.69-5.2-.62,1.88-.01,3.59.36,5.2.62"/><path class="f" d="M350.03,342.73c-2.53,1-5.62,1.58-8.06.3,2.36-1.23,5.52-1.39,8.06-.3"/><path class="f" d="M360.24,342.09c-2.37.77-5.14,1.5-7.37.27,1.94-1.63,5.15-1.27,7.37-.27"/><path class="f" d="M366.82,341.37c-1.28,1.5-3.55.63-5.33.68-1.23-1.81,4.58-1.73,5.33-.68"/><path class="f" d="M373.37,340.67c-1.07,1.35-3.08.65-4.61.67-.42-1.36,1.11-1.38,1.97-1.45,1.02-.07,1.81.32,2.64.77"/><path class="f" d="M380.55,339.92c-1.46.54-3,.97-4.55.68-.44-1.31,1.11-1.41,1.99-1.41.9,0,1.85.1,2.56.73"/><path class="f" d="M320.4,344.28c-1.22.43-2.5,1.63-3.8.22.58-1.36,2.98-1.3,3.8-.22"/><path class="f" d="M310.98,345.74c-.26,1-1.65.66-2.44.69-.46-.78.32-1.42,1.2-1.4.43.01.8.48,1.25.71"/><path class="f" d="M314.66,344.52c.43.41.19.72-.16.92-.57.34-1.13.32-1.62.24-.48-.6.16-1.12.62-1.21.46-.09.83.02,1.16.04"/><path class="f" d="M307.35,346.47c-.03.79-1.15.6-1.71.68-.44-.42.05-1.07.54-1.31.34-.17.89.27,1.17.63"/><path class="f" d="M330.58,343.59c-.19.14-.41.38-.68.51-.39.17-.76-.27-1.06-.43-.22-.64.6-.82,1.2-.73.31.05.71.19.54.65"/><path class="k" d="M326.39,329.17c-2.46,1.17-4.82.77-7.56.38,1.25-2.18,2.55-3.65,4.25-5.77,1.57,1.69,2.42,2.53,3.31,5.38"/><path class="k" d="M186.69,344.37c-1.83,2.62-7.76,5.56-10.49,2.59-2.77-3.01-.12-14.27,1.93-15.67l8.56,13.08Z"/><path class="k" d="M197.93,331.27c-2.09-4.65-6.57-8.73-9.05-13.07,2.36-2.83,16.93-7.77,16.75-2.73-.2,5.88-3.34,12.4-7.71,15.8"/><path class="f" d="M307.94,304.17c2.72-.95,5.02.59,5.96,2.67,1,2.21-.39,4.79-2.62,5.69-2.06.83-4.7-.11-5.56-1.81-1.22-2.41-.67-5.53,2.22-6.55"/><path class="f" d="M333.58,305.36c2.34-.76,4.57.49,5.34,2.56.78,2.09-.21,4.7-2.65,5.64-1.8.69-4.6-.52-5.4-2.49-.91-2.21.23-4.9,2.71-5.71"/></g></g></svg>