<?xml version="1.0" encoding="UTF-8"?><svg id="a" xmlns="http://www.w3.org/2000/svg" xmlns:xlink="http://www.w3.org/1999/xlink" viewBox="0 0 753.38 800"><defs><style>.d{fill:none;}.e{fill:#ffdf44;}.f{fill:#49a258;}.g{fill:#c54b4f;}.h{fill:#5c97c4;}.i{fill:#e36b2e;}.j{clip-path:url(#c);}.k{clip-path:url(#b);}</style><clipPath id="b"><rect class="d" width="753.38" height="800"/></clipPath><clipPath id="c"><rect class="d" y="0" width="753.37" height="800"/></clipPath></defs><g class="k"><g class="j"><path class="f" d="M352.23,208.68c-.11,2.62.6,5.27.84,8.06l.48,5.45c.15,1.74.24,3.3.4,5.02l1.36,14.14.19,7.62c.16,6.41.77,6.3.53,14.56l-.21,7.2c-.06,2.18-.22,4.18-.44,6.39l-1.56,15.48-.55,9.39-1.03,11.42c-.15,1.61-1.26,4.05-.01,5.38,1.46,1.57,4.53,1.17,5.96-.05.82-.04,1.68.47,2.69.47l24,.11c5.37.02,10.87-.96,14.81-4.72,5.96-5.69,5.49-14.8-.08-20.47-3.86-3.94-7.97-6.78-13.22-8.64-8.24-2.92-16.95-4.4-25.53-3.93.11-2.15.46-4.32,1.3-6.32,14.52.05,31.11,2.98,41.7,14.03,5.67,5.92,8.16,14.41,5.3,22.14-1.57,17.53,3.3,28.23,1.46,47.32-1.37,14.15-1.12,27.9-1.98,41.98l-1.21,19.67c-.32,5.16-.76,10.17.11,15.04.36.58-6.72,7.72-7.17,6.72l.38-3.58c.31-2.89-.13-5.72-.09-8.69l.17-14.95.82-7.65c.28-2.65.28-5.11.43-7.73l.38-6.83.3-16.31.39-6.39c.53-8.78,1.76-17.31,1.09-26.05l-.48-6.31-1.11-10.22c-.22-2.05.47-4.25-.95-6.15-11.25,6.71-24.44,4.62-37.46,4.5l-34.62-.31-3.6-.09c-2.39-.06-4.66.45-6.93.16l-3.12-.41c-2.14-.28-4.19.17-6.41.14l-21.2-.31-6-.37c-2.72-.17-8.41-2.75-8.38-1.12.04,3.32,1.19,6.53,1.55,9.89l2.06,19.43c.82,7.69,1.88,14.91,1.7,22.72-.11,4.63,1.43,9.03,1.58,13.65.25,7.72.58,15.32-.02,23.06l-.88,11.39-.42,11.33c-.13,3.54-.69,6.99-.28,10.36-.35,4.06-6.09-5.54-6.35-5.82-.19-8.11.38-16.17.9-24.5l.51-8.2c.54-8.69-.6-16.87-1.09-25.49l-.94-16.38-1-9.88-1.87-19.01-4.37-22.28c-.79-4.03,1.93-8.16,4.15-11.35,4.68-6.74,11.06-11.31,17.92-15.54,13.1-8.09,24.29-14.82,40.17-14.75-.15.77.66,7.07-.83,6.71-.19-.85-.89-.48-1.52-.45-10.1.43-18.74,4.3-27.23,9.4-8.6,5.16-19.86,12.17-25.08,20.75-.95,1.57-1.22,2.96-.65,4.49,1.43,3.83,8.35,5.09,12.03,5.19l15.38.39,24.01.22c.78-1.31.5-2.38,1.16-3.2l.11,3.55c1.77.16,3.38.33,5.15-.16l1.17-12.88.53-7.69.36-6.83,1.35-15.45,2.06-19.98.52-9.44.85-8.81c.65-6.76.09-23.49-1.16-30.22,3.04-1.28,13.09.41,16.76,1"/><path class="h" d="M409.82,532.89c-2.92.7-6.52,2.73-7.28,5.81-1.16-.11-2.22.53-3.3,1.24l-11.49,7.56c-3.62,2.38-7.03,4.82-10.96,6.66-2.59,1.22-5.16,2.34-7.58,3.84-1.93,1.19-2.38,5.56-5.02,5.24-2.26-.28-1.54-10.63-1.4-13.18l.46-8.15.44-5.46c.36-4.47.7-8.78.09-13.25-.76-5.62-.87-14.09-.5-19.85l.47-7.22c.17-2.59.15-4.71-.01-7.31l-.51-8.15c-.18-2.86-2.23-15.99,1.85-15.9,2.89.06,2.24,3.69,3.31,5.62.7,1.38,11.79-7.97,11.82-8l20.12-20.25c.46,1,7.53-6.14,7.18-6.72.53-.02,1.22-.1,1.75-.61,16.83-16.25,19.46-23.45,41.83-34.44,4.61-2.26,9.32-3.89,14.48-3.51,3.02.23,6.06,1.49,7.29,4.33,3.42,7.92-3.55,20.06-8.01,27.36,3.74-1.11,6.94-1.62,10.32-.57,7.51,2.32,11.17,9.8,8.88,17.27-3.01,9.79-6.31,12.04-13.3,19.19,8.02,8.74,1.65,21.21-4.95,28.24-2.66,2.83-25.09,20.19-28.75,22.49l-25.89,16.28c-.69.43-1.2.78-1.36,1.44M369.21,500.62c-.27,2.81-.37,5.38-.16,8.41,3.81-2.36,6.22-5.63,9.52-8.3,4.97-4.02,9.24-8.57,14.5-12.26,7.01-4.92,13.32-9.89,19.52-15.9,8.31-8.05,16.48-15.66,25.37-23.12,5.99-5.02,11.34-10.3,16.39-16.33,4.99-5.96,13.12-19.33,13.54-27.22.35-6.6-12.33-1.74-15.28-.26-5.11,2.57-9.86,5.64-14.58,8.88-2.81,1.93-5.15,4.22-7.55,6.6l-18.41,18.22c-8.76,8.67-17.73,16.58-26.49,25.23-4.09,4.03-14.79,10.57-16.27,13.64-1.02,2.13-.03,5.07.03,7.43.12,5.04.35,9.83-.13,14.97M370.91,526.14c6.16-2.6,11.46-6.18,17.15-9.53,6.65-3.92,12.87-7.76,19.3-12.04l21.24-14.12c4.13-2.75,7.99-5.43,11.84-8.62l8.14-6.74c3.71-3.07,7.22-6.04,11.05-8.98,5.94-4.57,11.4-9.4,15.97-15.33,2.31-2.99,3.46-6.19,3.21-10.02-.12-1.85.07-3.94-1.6-5.31-4.68-3.84-10.77-1.99-15.53.98-3.74,2.34-7.59,4.68-10.87,7.76-5.13,4.81-10.31,9.14-15.51,13.89l-7.56,6.91-7.26,6.85-11.33,10.88-7.27,5.85c-3.94,3.18-8.21,5.56-11.98,8.95l-14.77,13.29-4.46,3.77c-1.83,1.54-.91,9.52.23,11.56M384.59,543.38l20.71-13.78c8.72-5.8,26.66-16.38,33.01-21.31l6.37-4.95,10.54-8.09c6.85-5.25,12.78-11.69,14.41-20.42.28-1.51.07-4.21-1.54-4.67-4.02-1.15-7.82,1.05-10.73,3.6l-7.78,6.82c-7.32,6.41-15.31,11.47-23.28,17.09-6.76,4.76-13.26,9.14-20.51,13.1-2,1.09-3.78,2.6-5.71,3.82l-5.25,3.35-24.59,14.7c-1.63,1.31-1.07,4.32-1.21,6.03-.37,4.35-.7,8.29-.3,12.54,1.79,1.59,13.81-6.47,15.85-7.83"/><path class="f" d="M276.06,521.89c-.68,1.38-.34,2.96-.59,4.6.07-.44-1.16,13.98-1.15,13.25l-.31,13-.3,5.98c-.8,15.72-5.1,30.87-5.26,44.16l-.29,23.39-.46,6.37c-.16,2.25-.2,4.54-.45,6.77l-1.02,8.97c-.59,5.16-.77,6.53-1.22,11.91-.39,4.62-.1,8.95-.02,13.57l.25,14.01c0,.08.54,6.38.46,6.13.09.28.79.6,1.34.43,19.15-5.93,29.56-6.11,49.6-5.28l9.63.4,17.62,1.34c6.83.52,13.56,1.92,19.48,5.46,4.26,2.55,8.98,9.28,14.91,9.94,1.4-3.32,1.49-6.95,1.87-10.42l.98-9.01,2.39-13.45,4.52-28.08,1.89-13.63,1.13-9.26c.41-3.37.78-6.52,1.48-9.87l5.35-25.32,2.08-18.61c1.13-10.14,3.27-20,2.6-29.94.75-3.07,4.36-5.1,7.28-5.81.01,11.25-1.45,24.25-3.31,35.72-.68,4.15-.99,8.12-1.28,12.32-.53,7.73-2.01,15.02-3.81,22.55-2.75,11.48-4.41,22.59-5.65,34.31-1.37,13.04-3.9,25.42-5.96,38.35-1.37,8.63-2.82,16.75-3.51,25.41-.42,5.24-.48,10.45-2.63,15.26-3.51,7.87-12.1,11.89-19.79,13.74-.56.13-1.21.1-1.6-.29-.27-.27-1.63-4.54-1.41-5.14.07-.12.07-.35.06-.49,5.5-1.26,11.41-2.92,15.14-7.77,2.27-2.96-3.2-5.31-6.42-7.31-4.77-2.97-7.68-7.82-12.49-9.3-3.67-1.13-12.49-3.05-16.24-2.73-3.05-1.35-6.51-.74-10.05-1.09-5-.5-9.8-1.05-14.58-.77-2.18.13-4.61.1-6.89-.34-2.67-.52-5.16.11-7.61-.01-11.04-.54-22.36,1.96-32.95,5.65-2.24.78-4.01,2.22-5.51,3.8,1.32,3.09,3.58,5.01,5.92,7.2,6.74,6.29,14.49,9.51,23.15,11.39-.05.22-.04.62.32.53l.05.75c.11,1.63-.78,3.18-.93,4.67l-2.61-.1c-1.76-.07-3.27-.85-5.03-1.4-6.8-2.16-12.91-5.53-18.25-10.28-5.67-5.06-9.84-8.64-8.45-16.42,2.49-13.95.88-17.82.62-31.25-.09-4.4.1-8.65.53-12.97l2.4-24.2.38-7.28.29-19.69c.13-8.74.94-16.93,2.68-25.51,3.57-17.56,2.7-39.09,4.88-58.15.14-1.25-.27-2.46.46-3.32l5.5,2.17c.41.16.93.71.78,1.02"/><path class="h" d="M272.88,439.46c.26.29,6,9.88,6.35,5.82.1.81.38,2.38.78,3.22,2.53,3.95,13.48,22.15,18.52,20.66.85-2.15-.64-9.9,1.36-10.6,1.67-.58,4.37,2.17,4.46,6.1l.36,15.47,1.15,11.49c1.26,12.57,4.24,17.39,6.83,27.6,1.1,4.36,3.09,8.14,5.1,12.12.66,1.3,5.58,12.54,1.34,11.86-3.63-.58-5.07-7.54-7-9.3-1.72-1.56-4.74-1.05-6.86-1.74l-11.36-3.68c-4.35-1.41-8.6-2.95-12.71-4.93-1.78-.86-3.13-2.32-5.14-1.65.15-.31-.37-.86-.78-1.02l-5.5-2.17c-.12-.63-.5-1.15-1.29-1.48l-12.14-5.1c-3.96-1.66-7.71-3.24-11.47-5.4l-18.65-10.72c-9.59-5.51-19.4-10.32-27.75-17.58l-7.29-6.34c-3.2-2.78-5.48-6.57-5.8-10.86-.14-1.9.76-3.56,1.14-5.26,1.2-5.34,5.43-8.58,11.26-8.26-1.97-2.61-4.3-4.08-6.33-6.26-2.54-2.72-4.68-5.91-5.93-9.46-1.63-4.64.41-14.41,5.95-16.22,3.04-.99,6.06.16,9.75.09-4.58-8.09-3.72-18.26,3.66-23.95,3.97-3.06,9.95-2.63,14.09-.12,7.85,4.74,14.44,10.3,21.18,16.44l17.54,15.98c5.45,4.96,10.35,10,15.17,15.27M297.57,475.89c-1.85-1.32-3.96-2.31-5.71-3.8-5.52-4.72-13.91-16.35-18.09-22.7-2.97-4.5-14.72-17.13-19.01-20.94l-24.94-22.14-10.12-7.62c-2.22-1.67-4.63-2.66-7.32-3.13-3.26-.57-6.05,1.27-7.27,4.29-1.65,4.08-1.73,8.36.15,12.5,1.32,2.9,2.74,6.2,5.19,8.32l12.39,10.74c2.55,2.21,4.94,4.4,7.54,6.55l11.45,9.42c5.46,4.49,10.72,8.78,15.81,13.64,3.79,3.62,7.86,6.26,12.11,9.28,9.27,6.59,18.82,12.29,29.01,17.92,1.1-2.31,1.07-10.71-1.18-12.31M301.62,504.77c.91-2.33-.09-4.5-.36-6.51-.38-2.82-2.05-3.51-4.14-4.77l-18.6-11.21c-6.44-3.88-12.52-7.75-18.2-12.61l-16.39-14.03-18.61-15.37c-4.22-3.49-8.03-6.94-12.04-10.63-3.74-3.45-17.95-13.82-21.83-6.79-1.8,3.25-1.55,7.46.24,10.6,3.25,5.69,34.03,31.57,40.21,36.02l12.94,9.33c4.32,3.12,8.93,5.44,13.44,8.26,7.05,4.4,20.44,9.52,28.52,12.4l14.84,5.31ZM310.64,527.46c-2.41-4.72-3.99-9.28-5.49-14.2-.36-1.19-1.16-2.22-2.41-2.61-6.46-2.02-12.48-4.58-18.8-7l-13.51-5.18c-6.52-2.5-12.36-5.7-18.29-9.36l-11.75-7.26c-2.73-1.69-4.96-3.64-7.54-5.6-7.54-5.71-14.71-11.44-21.88-17.59-3.25-2.79-6.74-4.87-10.75-6.05-4-1.17-7.74.82-8.57,4.96-.38,1.89-.87,4.09-.06,5.95,3.57,8.16,24.11,20.99,32.36,25.26,12.12,6.27,21.76,13.35,33.97,18.22,9.03,3.6,17.5,7.51,26.14,11.97,6.11,3.15,12.55,4.8,19.07,6.78,2.48.75,4.66,1.66,7.49,1.7"/><path class="g" d="M320.56,727.81c1.38-.5-.94,4.51.86,4.96-.59-.1-.9.26-1.06.95l-1.53,6.64-4.68,18.55c-.93,3.69-2.52,7.33-5.24,9.96-8.02,7.74-15.81,5.33-26.15,11.45-7.38,4.36-14.86,7.5-23.19,9.97-12.52,3.72-25.83.48-37.72-4.31-3.75-1.51-7.41-2.16-11.34-2.71-9.65-1.33-17.73,1.93-33.31-.76-8.08-1.39-13.34,1.58-22.37.29-10.95-1.57-13.43,2.79-24.35,1.38-8.66-1.12-17.04-1.84-25.61-3.08l-2.55-.37c-5.87-.85-11.68-1.29-17.6-.36-4.1.64-10.52,3.33-15.74,2.01l-6.09-1.53c-6.99-1.76-8.11,4.31-16.31,2.24-3.58-.91-7.17-1.46-10.89-1.88-9.68-1.11-17.39,5.21-27.93-2.84-1.6-1.22-2.94-2.17-4.17-3.99-2.68-3.96-3.93-8.86-3.49-13.96.59-6.79,2.24-13.6,5.53-19.64,2.18-4.01,6.7-6.83,11.1-7.62,4.26-.76,8.32-.57,12.59-.48,2.52.06,5.11,1.09,7.48,1.93l14.67,5.25c6.63,2.37,12.99,2.07,19.89.69,7.61-1.52,25.81,2.09,32.65.84,10.32-1.89,13.74,1,21.03-.74,1.63-.39,3.25-.3,4.94-.52,28.5-3.69,22.47,1.23,43.39,1.67,17.41.37,26.62,6.05,41.75,7.23l3.76.29c2.03.16,3.84.42,5.84.57l4.6.33,4.01.58,21.86,3.91c.49.09,1.37.57,1.89.29.15-.09.53.02.7,0,4.75,1.28,10.08,1.23,15.23.67,6.38-.7,11.94-4.38,14.78-10.12,2.59-5.22,3.54-10.75,4.1-16.29.15-1.48,1.04-3.04.93-4.67,1.55,1.33-.09,7.44-.42,9.2-1.29,6.83-4.19,16.49-10.71,19.98-8.85,4.74-18.13,3.92-27.66,2.02l-8.05-1.6c-3.86-.77-12.9-2.33-16.64-2.44-6.36-.19-15.29-1.71-21.77-2.68-3.66-.55-7.07-1.57-10.63-2.45-11.11-2.75-13.43-3.32-25.18-3.77-3.51-.14-6.66-.23-10.09-.94-6.97-1.44-15.45-2.6-22.57-1.77l-19.33,2.25c-4.48.52-8.91-.44-13.52.08-4.07.46-8.32.53-12.44.08l-9.01-.97c-13.04-1.41-20.48,1.74-24.04,1.4-2.93-.28-5.8-.81-8.56-1.78l-18.82-6.58c-5.06-1.77-19.21-2.17-24.47,4.03-2.21,2.61-3.49,5.15-4.62,8.21l-1.1,2.98c-2.08,5.67-2.84,11.57-1.66,17.46.76,3.8,2.52,6.33,5.38,8.81,12.59,10.92,18.07,1.14,34.32,4.75,2.71.6,5.41,1.05,8.19,1.23,5.69.37,8.76-4.59,14.64-2.27,5.46,2.15,11.08,2.07,16.64.41,9.33-2.78,20.34-1.13,29.9.16l15.21,2.04c5.52.74,10.93,1.26,16.37-.34,9.29-2.75,11.55.79,23.7-.72,3.99-.5,7.81-.71,11.77,0,13.78,2.48,24.02-.73,34.8.77,7.24,1.01,19.63,7.66,34.03,8.44,8.21.44,16.1-2,23.73-5.1,7.53-3.06,15.36-8.72,22.64-10.51,4.64-1.14,9.55-2.02,13.43-5.15,3.98-3.21,6.29-8.03,7.43-12.95l2.52-10.92c.93-4.02,2.41-7.8,2.75-12,.06-.79.86-1.47.79-2.3-.12-1.44.25-2.73.82-3.88"/><path class="g" d="M361.38,249.84c-.29-2.88-.83-5.71-.54-8.64.51.58.87,1.5,1.75,1.48.28,1.16-.45,3.02.4,4.06,1.19,1.46,3.48.71,5.08.85,5.06.45,14.47-1.24,19.14-3.47,2.06-.98,3.67-2.44,5.51-3.51,6.29-3.65,8.57-8.33,10.47-15.61,1.12-4.29,3.22-8.2,3.41-12.72.51-12.38-.37-24.23-2.59-36.33l-3.69-20.03c-.66-3.59-1.21-7.09-1.65-10.77l-2.36-19.94-.61-7.79c-.3-3.75-.53-7.18-.14-10.87l.95-9.05.98-10.47.45-8.13,1.56-20.87c.36-4.84,1.49-9.38,1.62-14.19l.3-11.12c.13-4.69.36-9.06-2.7-12.5-3.06-3.43-5.75-6.42-10.13-8.18-6.86-2.75-13.47-5.52-20.67-7.34-5.95-1.5-8.81-3.09-15.24-3.52-3.72-.25-7.13-.47-10.87,0l-6.45.8c-2.69.33-5.3.54-7.98,1.3-3.04.86-15.08,3.03-16.93,4.31-1.36.94-3.14,1.35-4.3,2.43-2.5,2.32-4.12,5.72-5.31,8.79-.54,1.41.26,2.9-.36,4.16-1.4,2.83-1.11,6.08-1.47,9.12l-1.43,11.98c-.87,7.26-.53,14.76-1.12,18.59-1.09,7.01-1.36,13.67-1.45,20.79-.08,7.12-.5,14.01-1.17,21.04l-1.91,20.25c-.37,3.97-.79,7.77-1.01,11.81l-.54,9.93-1.02,10.34-1.65,10.96c-.48,3.21-.92,2.91-.69,5.51-.1-1.15-.93,7.93-.95,8.13-.43,3.22.48,6.65-.37,9.73-.77,2.78-.25,5.32-.74,7.85-.94,4.85-1.41,10.02.13,14.61.8,2.38,2.89,3.89,4.42,5.52,7.35,7.86,23.54,17.48,33.76,21.02,1.92.66,3.9.61,5.95,2.01.82-2.05.38-3.66.36-5.38.17-.45.45-1.07.46-1.83l.04-15.07c.27-.29.84.1.84.55v19.94c0,1.16-.81,2.14-.95,3.01-8.59-1.73-16.35-5.65-23.89-10.4-5.09-3.2-10.06-5.86-14.49-9.99-3.28-3.06-6.97-5.88-8.46-10.42-.54-1.65-.33-9.36-.04-11.62.56-4.45,1.91-8.63,1.8-13.2-.17-7.12.34-13.88,1.66-20.92,2.01-10.67,3.15-21.09,3.52-31.92l.21-6.12,1.2-9.22,1.83-24.3.41-6.83.97-21.31c.25-5.43.46-7.8.88-13.11l1.43-18.17c.98-5.18,1.85-10.12,2.33-15.45.13-1.4.72-3.4,1.15-4.6l1.46-4.05c2.08-5.75,17.03-8.15,22.12-8.99l11.96-1.97c11.55-1.91,22.75-.02,33.9,3.44l8.59,2.67c5.88,1.82,16.98,6.42,21.01,11.14.64.75.74,2.17,1.38,3.05,1.77,2.46,2.2,5.4,1.88,8.42-.17,1.61-.75,14.76-.69,15.95.07,1.43-.71,3.07-.84,4.72l-2.81,35.95-2.04,24.67c-.61,7.31,2.96,25.63,3.13,31.01.2,6.37,1.38,12.26,2.66,18.53,1.35,6.67,5.61,31.42,5.6,36.96l-.04,14.95c-.01,4.26-1.73,8.18-3.17,12.1-1.34,3.65-2.09,7.49-4.16,10.75-3.29,5.19-8.55,8.45-14.21,10.55-10.12,3.76-13.27,2.84-23.58,3.09-.7.02-.97.82-1.23,1.13"/><path class="g" d="M571.25,729.12l.41.02,6.91.07c3.28.03,6.81,1.52,9.16,3.84,1.89,1.87,3.51,3.65,6.09,4.54,4.21,1.46,9.49,7.1,13.2,6.56,4.23-.61,8.03-1.98,12.29-2.24,6.58-.4,12.93-.07,19.51-.03l6.45.04h2.2s13.12.83,13.12.83l20.01,2.69c.25.03.62-.05.85.05,2.8,1.36,6.13,1.41,9.18,2.6,5.8,2.28,11.46,2.41,17.58,1.69,4.97-.59,9.81.8,14.6,2.01,6.85,1.73,13.31,4.43,18.7,8.95,6.36,5.32,10.22,12.83,10.32,21.01.06,5.02-.7,10.01-4.51,13.2-3.2,2.68-6.92,3.66-11.03,3.64l-24.45-.14c-6.15-.04-11.51-3.23-16.96-5.66l-15-6.68c-4.44-1.98-8.72-3.87-13.03-5.62-.1-.04-.24-.03-.35-.04-.48-.71-1.51-1.05-2.33-1.37-13.89-5.43-17.13,2.46-35.1-4.35-5.05-1.92-14.27-.43-20.72-2.46-3.7-1.17-7.46-1.22-11.23-1.94-6.39-1.23-12.48-.43-18.05,2.83-8.64,5.05-13.95-.88-26.16,2.42-3.29.89-6.39,1.07-9.79,1.06l-14.05-.04c-2.13,0-4.18.5-5.97-.28,1.22-.82,2.76-.25,4.15-.4.44-.05.93.04,1.36-.08l.45-.02c1.34-.07,2.7-.44,4.04-.35-.12.53.62.61.53.04l11.32-.02c6.99,0,11.1-2.88,22.66-1.64,3.75.4,7.46.44,10.9-1.52,13.08-7.47,24.18-.86,40.28-.14,4.89.22,9.22.43,13.83,2.23,1.66.65,3.68,1.37,5.49,1.74,5.24,1.1,14.76-.72,19.55.09,5.44.92,10.1,3.44,15.06,5.66l11.29,5.06,14.12,5.88c5.08,2.11,9.96,4.63,15.63,4.68l21.17.21c8.14.08,13.74-2.92,15.78-11.03.47-1.87.12-3.88.09-5.87-.14-8.95-6.85-17.99-14.29-22.24-3.14-1.8-6.29-3.31-9.66-4.51-.87-.31-7.32-1.72-8.32-2.02-5.28-1.56-16.78.05-21.66-.86-1.88-.35-3.65-1.56-5.73-1.31-1.48.18-2.12-.81-3.01-1.34-2.16-1.27-4.82-.82-6.99-1.51-1.3-.41-2.44-.55-3.78-.84l-4.86-1.02c-1.9-.4-3.62-.47-5.6-.66l-14.03-1.36c-2.04-.2-3.93-.2-5.98-.25l-12.5-.36c-1.33-.04-2.52.11-3.78.03-8.98-.58-10.72.64-16.77,1.46l-4.82.65c-6.59.9-7.49-2.12-13.96-5.27-11-5.37-8.47-10.7-24.18-9.01-2.65.28-4.99-.24-7.35-.83l-11.26-2.82c-8.52-2.13-18.14.03-26.02,3.66-4.54,2.09-9.33,2.76-14,4.2l-3.58,1.1c-2.98.92-6,1.75-8.93,2.67l-12.13,3.83c-4.96,1.57-10.54,4.4-15.97,2.92-6.74-1.84-12.97-5.04-19.45-7.58-3.29-1.29-6.24-1.91-9.75-2.3-11.6-1.3-5.44,1.72-17.46-.5-7.23-1.34-14.15-.77-21.36.41l-9.67,1.58c-3.52.57-6.96.79-10.36,1.65l-3.69.93c-4.26,1.07-9.03,1.85-13.16-.36-4.59-2.45-7.43-11.44-5.9-13.88-.22.6,1.14,4.87,1.41,5.14.38.39,1.04.42,1.6.29-.69,1.77-.43,3.52.88,5.19,4.42,5.59,12.61,2.72,17.36,1.62,7.83-1.82,15.86-2.22,24-3.37,17.88-2.53,17.81,1.63,29.28.43,10.8-1.13,21.69,3.29,31.19,8.24,4.64,2.41,9.37,2.6,14.29.92,9.92-3.39,19.53-7.06,29.77-9.53,6.3-1.52,12.09-3,17.96-5.68,8.76-4,17.97-4.54,27.21-1.9,2.98.85,13.66,4.21,15.42,2.67"/><path class="h" d="M335.47,207.68c1.25,6.73,1.81,23.46,1.16,30.22l-.84,8.81-.52,9.44-2.06,19.98-1.35,15.45-.36,6.83-.53,7.69-1.17,12.88c-1.78.48-3.38.31-5.15.16l-.11-3.55c-.04-1.33,0-2.66.01-3.99.77-1.12.74-2.94.12-4.13.06-.55.24-1.28.25-1.81.22.08.54-.1.54-.46v-5.47s0-3.1,0-3.1c.67-.45.77-1.79.13-2.3.11-.87.35-1.8.29-2.68.98-1.64.44-3.66.46-5.52l.02-2.19c.43.1.45-.51.48-.75.03-.36.12-1.15-.42-1.14.03-1.08.11-2.16.02-3.24,1.48.36.68-5.94.83-6.71.87-4.53.92-9.21,1.42-14.07.53-5.05,1.44-9.87,1.28-14.67.15-.87.95-1.85.95-3.01v-19.94c0-.45-.57-.84-.84-.55l-.02-2.1c.71-1.23.7-3.04-.06-4.27l-.04-1.63c-.02-1.05-.26-2.72.57-3.62,1.3-1.4,3.6.02,4.95-.55"/><path class="h" d="M358.98,219.56l.09,1.66c.05.86-.15,1.68.35,2.42.09.61.03,1.44.06,2.07.03.86-.21,1.79.42,2.48-.13.48.28,1.17.07,1.63-.42.94.25,1.65.37,2.44.23,1.44-.12,2.98.42,4.37-.75.41.08,1.31.05,1.93-.04.87.1,1.77,0,2.63-.29,2.93.25,5.76.54,8.64.76,7.46.8,15,.45,22.71-.05,1.06-.24,1.97.32,2.7-.84,2-1.19,4.17-1.3,6.32l-.02.46c-.43-.11-.29.35-.05.49-.2.88.12,1.81.02,2.68-1.23,1.51-.83,3.63-.83,5.52,0,.73-.02,1.46-.07,2.19-.13.17-.15.35-.02.53v1.29c-.7,1.53-.94,3.35-.82,5.06.02.27.02.56,0,.83-.05.63,0,1.26,0,1.89,0,.71-.02,1.48-.06,2.19-.01.21-.43.42-.41.72.02.29.33.52.4.72,0,.68-.05,1.49,0,2.19-.38-.15-.3.34-.31.53l-.08,3.09c-.77-.92-.41,5.64-.4,5.98v.81c-1.42,1.23-4.49,1.62-5.95.05-1.24-1.33-.13-3.77.01-5.38l1.03-11.42.55-9.39,1.56-15.48c.22-2.21.38-4.21.44-6.39l.21-7.2c.24-8.26-.37-8.14-.53-14.56l-.19-7.62-1.36-14.14c-.16-1.72-.25-3.28-.4-5.02l-.48-5.45c-.24-2.79-.95-5.44-.84-8.06,1.5.24,3.38-.02,4.82,1.01,1.74,1.24,1,8.89,1.94,9.87"/><path class="g" d="M527.27,775.92c-1.4.15-2.93-.42-4.15.4-7.19-.2-14.72-.32-21.58-3.37-8.62-3.82-16.76-7.73-26.03-9.82-13.44-3.04-23.92,2.77-36.93,1.07-3.89-.51-7.52-2.11-11.56-1.99-8.32.24-12.87,5.15-21.08,2.88-9.54-2.64-11.23.9-17.45.72-12.88-.36-32.11-3.4-41.48-12.78-5.32-5.33-7.74-12.39-9.32-19.43-.42-1.85-.18-3.92-.49-5.8,1.17,1.26,1.1,3.15,1.47,4.91.64,3.01,2.68,10.3,4.26,12.55.51.74.72,1.14,1.02,1.82,2.09,4.85,6.49,7.89,11.01,10.23,4.16,2.16,8.04,3.78,12.62,4.71l4.93,1c6.5,1.31,10.31,1.85,16.93,1.24l4.96-.45c20.07-1.84,4.89,3.27,25.62-1.2,2.66-.57,5.25-2,7.94-1.52l11.36,2.04c1.27.23,2.84.44,4.08.38l7.25-.34c11.42-.53,16.56-4.85,34.55,1.83,5.6,2.08,10.92,4.41,16.38,6.77,4.63,2,9.56,2.74,14.62,3.08,3.26.21,6.39.62,9.72.61.6,0,1.3-.07,1.35.46"/><path class="f" d="M337.21,727.41c.05.11-.03.28,0,.4.31,1.88.07,3.95.49,5.8l-7.25-.02c-3.15,0-6.09-.89-9.03-.82-1.8-.45.52-5.47-.86-4.96.19-.39.36-.82.41-1.25l16.25.85Z"/><path class="i" d="M400.36,442.14l-20.12,20.25s-11.12,9.37-11.82,8c-1.07-1.92-.42-5.56-3.31-5.62-4.09-.09-2.03,13.04-1.85,15.9l.51,8.15c.16,2.6.18,4.72.01,7.31l-.47,7.21c-.38,5.76-.26,14.23.5,19.85.6,4.47.27,8.78-.09,13.25l-.44,5.46-.46,8.15c-.15,2.55-.86,12.91,1.4,13.18,2.64.32,3.09-4.05,5.02-5.24,2.42-1.5,4.99-2.62,7.58-3.84,3.93-1.85,7.34-4.28,10.96-6.66l11.49-7.55c1.08-.71,2.14-1.35,3.29-1.24.67,9.94-1.47,19.8-2.6,29.94l-2.08,18.61-5.35,25.32c-.71,3.36-1.07,6.51-1.48,9.88l-1.13,9.26-1.89,13.63-4.52,28.08-2.39,13.45-.98,9.01c-.38,3.46-.47,7.1-1.87,10.42-5.93-.66-10.65-7.38-14.91-9.94-5.91-3.54-12.65-4.94-19.48-5.46l-17.62-1.34-9.63-.4c-20.04-.84-30.46-.65-49.6,5.28-.55.17-1.25-.14-1.34-.43.08.25-.46-6.05-.46-6.13l-.25-14.01c-.08-4.62-.37-8.95.02-13.57.45-5.38.64-6.75,1.22-11.91l1.02-8.97c.25-2.23.29-4.51.45-6.76l.46-6.37.29-23.39c.16-13.3,4.46-28.44,5.26-44.16l.3-5.98.31-13c-.02.73,1.21-13.7,1.15-13.25.25-1.64-.09-3.23.59-4.6,2.01-.67,3.36.79,5.14,1.65,4.11,1.98,8.37,3.52,12.71,4.93l11.36,3.68c2.12.69,5.15.18,6.86,1.74,1.93,1.75,3.37,8.72,7,9.3,4.24.68-.68-10.56-1.34-11.86-2.01-3.98-3.99-7.76-5.1-12.12-2.59-10.21-5.57-15.03-6.83-27.6l-1.15-11.49-.36-15.47c-.09-3.93-2.79-6.68-4.46-6.1-2.01.7-.51,8.45-1.36,10.6-5.04,1.49-15.99-16.71-18.52-20.66-.4-.84-.69-2.41-.78-3.22-.41-3.36.15-6.82.28-10.36l.42-11.33.88-11.39c.6-7.74.28-15.35.02-23.06-.15-4.62-1.69-9.02-1.58-13.65.18-7.81-.88-15.03-1.7-22.72l-2.06-19.43c-.36-3.36-1.51-6.58-1.55-9.89-.02-1.63,5.66.95,8.38,1.12l6,.37,21.2.31c2.22.03,4.28-.42,6.41-.14l3.12.41c2.27.3,4.54-.21,6.93-.16l3.6.09,34.62.31c13.02.12,26.21,2.21,37.46-4.5,1.42,1.9.73,4.1.95,6.15l1.11,10.22.48,6.31c.67,8.75-.56,17.28-1.09,26.05l-.39,6.39-.3,16.31-.38,6.83c-.15,2.62-.14,5.08-.43,7.73l-.82,7.65-.17,14.95c-.03,2.97.4,5.8.09,8.69l-.38,3.58ZM312.14,372.81c5.87-3.08,6.59-9.8,3.85-15.08-2.4-4.63-7.39-7.55-12.39-4.9-4.96,2.63-6.42,9.03-3.88,13.92,1.46,2.82,3.28,5.37,6.49,6.26,1.56.43,4.32.66,5.94-.2M369.51,404.57c2.95,2.84,6.65,3.4,10.16,1.92,2.97-1.26,4.77-4.26,5.24-7.91.85-6.62-3.89-12.98-10.91-12.55-4.12.25-7.18,3.84-7.94,7.74-.76,3.88.57,8.01,3.46,10.8M315.57,437.8c4.26-.43,6.63-4.51,6.77-8.39.22-5.83-4.44-11.2-10.43-10.69-4.77.41-7.23,5.41-6.77,9.79.56,5.29,4.7,9.87,10.42,9.29M341.8,545.39c4.77-2.9,5.65-8.33,2.68-12.59-1.26-1.81-3.05-3.12-4.99-3.4-2.22-.32-4.37.38-6.06,1.98-2.17,2.05-2.99,5.08-2.29,8.27,1.1,5.05,6.88,8.04,10.65,5.74M356,586.11c-1.92-1.81-4.96-2.6-7.85-1.87-1.96.5-4.39,2.54-5.31,5.06-2.09,5.75.2,12.24,5.05,15.81,2.8,2.06,5.97,2.55,9.03,1.11,6.61-3.11,5.52-14.03-.92-20.11M306.72,616.35c.82-6.07-4.21-11.34-10.19-10.78-3.99.37-6.85,3.56-8.03,6.76-1.34,3.64-.39,7.77,2.44,10.36,2.79,2.56,6.74,3.04,10.34,1.49,2.67-1.15,4.93-4.09,5.44-7.83M361.04,667.54c2.49-2.27,3.5-5.38,2.86-8.68-.86-4.41-5.2-7.89-9.86-7.59-4.65.3-8.61,3.41-10.47,7.44-1.2,2.61-.84,5.15.4,7.69,2.4,4.88,11.58,6.14,17.07,1.14M290.3,670.37c2.74-3.61,1.98-8.26-.29-11.51-2.15-3.08-6.15-5.01-10.19-4.31-2.61.45-4.38,2.07-5.67,4.33-2.53,4.42-.95,9.97,3.04,12.84,3.76,2.71,10.04,2.67,13.1-1.35"/><path class="e" d="M326.42,278.78c.1,1.08.01,2.16-.02,3.24l-.05,1.89-.02,2.19c-.64,1.67-.58,3.72-.46,5.52.06.89-.19,1.81-.29,2.68-.09.77-.13,1.53-.13,2.3v3.1c-.32-.16-.44.54-.45.93l-.08,5c0,.53-.19,1.27-.25,1.81-.14,1.38-.1,2.75-.12,4.13-.02,1.33-.05,2.66-.01,3.99-.66.82-.38,1.89-1.16,3.2l-24.01-.22-15.38-.39c-3.68-.09-10.59-1.36-12.03-5.19-.57-1.53-.31-2.92.65-4.49,5.22-8.58,16.48-15.6,25.08-20.75,8.49-5.1,17.13-8.97,27.23-9.4.63-.03,1.33-.4,1.52.45"/><path class="e" d="M358.18,318.73v-.81c.3.2.35-.16.35-.51l.04-5.47.08-3.09c.3.16.32-.34.31-.53-.04-.7,0-1.51,0-2.19v-1.44c.06-.71.07-1.48.07-2.19.53.02.44-.79.43-1.14,0-.23.04-.87-.42-.75.02-.27.01-.56,0-.83.62-1.56.84-3.35.83-5.06v-1.29s.02-.53.02-.53c.05-.73.07-1.46.07-2.19.62-1.71.61-3.68.83-5.52.1-.87-.22-1.8-.02-2.68l.05-.49.02-.46c8.58-.48,17.28,1,25.53,3.93,5.25,1.86,9.36,4.7,13.22,8.64,5.57,5.67,6.04,14.78.08,20.47-3.94,3.76-9.44,4.74-14.81,4.72l-24-.11c-1.02,0-1.87-.51-2.69-.47"/><path class="g" d="M359.1,209.82c-.98,2.12,1.31,8.99-.12,9.73-.94-.98-.19-8.63-1.94-9.87-1.44-1.02-3.32-.76-4.82-1.01-3.67-.59-13.72-2.28-16.76-1-1.35.57-3.65-.85-4.95.55-.83.89-.59,2.57-.57,3.62-1.29.89-.72-3.52-.78-4.05.89-1.19,2.45-1.22,3.96-1.45,5.04-.79,9.9-.72,14.79.59,2.9.78,10.78.5,11.17,2.89"/><path class="e" d="M369.21,500.62c.49-5.14.25-9.93.13-14.97-.06-2.36-1.05-5.3-.03-7.43,1.48-3.07,12.18-9.61,16.27-13.64,8.76-8.65,17.72-16.55,26.49-25.23l18.41-18.22c2.4-2.37,4.74-4.67,7.55-6.6,4.73-3.24,9.48-6.31,14.58-8.88,2.95-1.49,15.63-6.34,15.28.26-.42,7.89-8.55,21.26-13.54,27.22-5.05,6.03-10.4,11.3-16.39,16.33-8.89,7.46-17.07,15.07-25.37,23.12-6.2,6.01-12.51,10.98-19.52,15.9-5.26,3.69-9.53,8.24-14.5,12.26-3.31,2.67-5.72,5.94-9.52,8.3-.21-3.03-.11-5.6.16-8.41"/><path class="i" d="M370.91,526.14c-1.14-2.03-2.06-10.01-.23-11.56l4.46-3.77,14.77-13.29c3.77-3.39,8.03-5.77,11.98-8.95l7.27-5.85,11.33-10.88,7.26-6.85,7.56-6.91c5.2-4.75,10.38-9.09,15.51-13.89,3.28-3.07,7.13-5.42,10.88-7.76,4.76-2.97,10.84-4.82,15.53-.98,1.67,1.37,1.48,3.46,1.6,5.31.25,3.83-.9,7.03-3.21,10.02-4.58,5.93-10.03,10.75-15.97,15.33-3.82,2.94-7.34,5.91-11.05,8.98l-8.14,6.74c-3.85,3.19-7.71,5.87-11.84,8.62l-21.24,14.12c-6.43,4.28-12.65,8.12-19.3,12.04-5.69,3.35-10.99,6.93-17.15,9.53"/><path class="g" d="M384.59,543.38c-2.04,1.36-14.07,9.42-15.85,7.83-.4-4.25-.07-8.19.3-12.54.15-1.71-.42-4.72,1.21-6.03l24.59-14.7,5.25-3.35c1.93-1.23,3.71-2.73,5.71-3.82,7.24-3.95,13.75-8.34,20.51-13.1,7.97-5.62,15.96-10.68,23.28-17.09l7.78-6.82c2.91-2.55,6.71-4.75,10.73-3.6,1.6.46,1.82,3.16,1.54,4.67-1.63,8.73-7.56,15.17-14.41,20.42l-10.54,8.09-6.37,4.95c-6.35,4.93-24.29,15.51-33.01,21.31l-20.71,13.78ZM370.68,549.49c4.11-1.37,7.29-3.75,10.61-6.08,3.97-2.78,7.95-5.07,12.07-7.47,5.15-3.01,7.1-5.43,12.24-8.17,1.79-.95,3.13-2.79,4.99-3.5,2.25-.86,3.88-2.08,5.85-3.35l5.47-3.5,6.64-3.91c6.33-3.73,11.71-8.4,17.48-12.84l10.04-7.71c2.68-2.06,4.69-4.61,6.96-7.14,2.76-3.08,6.81-11.28,4.05-13.8-1.6-1.46-3.82-.04-5.31.54-2.86,1.1-3.98,3.74-7.65,6.57l-6.2,4.78c-2,1.54-3.94,3.27-6.04,4.77l-13.46,9.65-7.24,5c-1.96,1.35-4.46,1.6-6.19,3.42-1.27,1.34-2.85,2.83-4.71,3.28-2,.48-2.75,2.13-4.25,3.07l-7.32,4.62c-1.73,1.09-3.37,2.32-5.09,3.35-2.8,1.67-5.96,2.58-8.41,4.82-1.75,1.61-4.18,1.66-5.99,2.82-2.49,1.59-5.1,3.32-7.42,5.16-1.78,1.41-2.69,14.17-1.13,15.63"/><path class="e" d="M357.17,700.25l.02.4-1.58,13.7c-.75,6.52-.55,15.82,2.45,21.77,5.05,10.01,14.72,9.98,24.3,7.39,8.55-2.31,17.18-2.6,25.86-3.79,14.59-2,13.34,1.81,30.19.49,8.13-.64,17.9,3.84,25.08,7.44,8.4,4.21,13.68,4.03,22.92.55,7.9-2.97,15.56-5.88,23.86-7.85,8.25-1.96,16.01-4.09,23.81-7.44,5.81-2.5,11.67-2.35,17.65-1.03,9.95,2.19,11.2,4.53,22.64,3.47,9.3-.86,7.49,3.28,19.41,8.91,4.33,2.05,8.08,7.89,17.09,5.41,3.11-.86,6.18-1.59,9.51-1.74,8.85-.4,17.54-.29,26.43.08,7.32.22,14.28.74,21.54,1.89,8.32.75,16.12,2.58,24.04,5.1,10.81,3.44,13.88-.66,23.96,1.39,11.98,2.44,25.53,7.97,28.9,20.95.56,2.15.49,4.54.57,6.7.15,4.44-2.79,7.81-7.13,8.41-1.91.27-3.83.06-5.8.06l-16.04.05c-4.7.02-8.69-.93-12.98-2.62-5.97-2.35-11.57-4.99-17.38-7.65l-10.81-4.96c-5.34-2.44-10.6-4.66-16.37-5.92-4.34-.94-8.78-.46-13.15-.03-9.82.96-14.63-3.93-20.89-3.93-5.61,0-10.85-.33-16.35-1.39-11.34-2.19-20.29-4.61-31.44,1.19-8.32,4.32-11.27-.49-21.57,1.57-7.16,1.43-14.13.92-21.36,1.26l-4.46.2c-4.5.21-9.03-.08-13.62-.28-5.74-.25-10.77-1.58-15.96-4.03-8.3-3.92-16.53-7.65-25.7-9.13-15.74-2.55-24.78,4.33-40,.54-6.19-1.54-12.51-1.16-18.42,1.11-9.64,3.7-10.34-2.74-24.52.87-4.05,1.03-8.23.28-12.39-.13-8.72-.88-21.17-3.79-27.59-9.7-5.54-5.1-7.89-12.33-8.51-19.65-.42-4.91-1.36-9.41-2.03-14.29-.82-6.01-.58-11.87-.41-17.67v-.41c3.76-.31,12.58,1.6,16.25,2.73"/><path class="i" d="M316.3,695.66l-.02.44-.4,19.06c-.21,9.95-1.23,19.25-4.38,28.64-3.24,9.67-2.05,21.53-14.17,24.96l-8.75,2.48c-6.74,1.91-18.32,9.15-25.81,11.79-1.85.65-10.35,2.66-12.25,2.65-22.62-.01-28.36-8.96-43-8.88-3.8.02-7.51-.23-11.32.18-15.03,1.62-19.22-2.48-31.7-.48-2.61.42-4.94.49-7.51.17-12.4-1.56-17.01,1.83-22.49,1.75-5.1-.08-9.88-1.26-14.96-1.87l-20.79-2.48c-7.68-.92-14.73-.38-22.01,2.03-3.6,1.19-7.72,0-11.19-.94-9.95-2.72-11.75,2.31-16.29,1.7-5.53-.74-10.83-2.12-16.39-2.1-8.58.03-18.71,5.82-25.05-5.44-3.88-6.88-.38-19.08,3.18-25.2,2.24-3.84,5.95-5.45,10.13-5.34,3.68.09,7.33-.68,10.83.55l17.7,6.26c13.68,4.84,19.45,0,30.93.82l18.54,1.31,13.17-.68c4.58-.24,8.98.4,13.59-.16l13.6-1.64c4.75-.57,9.27-.73,14.06.29,7.44,1.58,14.65,2.01,22.23,2.43,8.27.46,15.94,2.59,23.94,4.5,8.4,2.01,16.65,2.91,25.22,3.71,6.92.64,13.36,1.66,20.25,2.98,16.53,3.16,32.62,7.15,45.51-6.22,2.7-4.27,4.58-8.7,5.67-13.83,3.03-14.25,4.58-28.68,4.99-43.08.18-.21.31-.46.42-.72,2.45.12,4.94-.5,7.61.01,2.28.44,4.71.47,6.89.34"/><path class="g" d="M340.92,697.93c-.17,5.8-.41,11.66.41,17.67.67,4.87,1.61,9.38,2.03,14.29.62,7.32,2.97,14.55,8.51,19.65,6.42,5.91,18.87,8.82,27.59,9.7,4.16.42,8.34,1.16,12.39.13,14.18-3.61,14.88,2.83,24.52-.87,5.92-2.27,12.24-2.66,18.42-1.11,15.22,3.8,24.26-3.08,40-.54,9.17,1.48,17.4,5.22,25.7,9.13,5.19,2.45,10.22,3.78,15.96,4.03,4.59.2,9.12.49,13.62.28l4.46-.21c7.23-.33,14.2.18,21.36-1.26,10.3-2.06,13.25,2.75,21.57-1.58,11.15-5.8,20.1-3.38,31.44-1.19,5.5,1.06,10.74,1.39,16.35,1.39,6.26,0,11.08,4.89,20.89,3.93,4.37-.43,8.81-.91,13.15.03,5.77,1.25,11.04,3.47,16.38,5.92l10.81,4.95c5.82,2.67,11.41,5.3,17.38,7.65,4.3,1.69,8.28,2.64,12.98,2.62l16.04-.05c1.98,0,3.89.2,5.8-.06,4.34-.6,7.27-3.97,7.13-8.41-.07-2.16-.01-4.55-.57-6.7-3.36-12.99-16.92-18.52-28.9-20.95-10.08-2.05-13.15,2.04-23.96-1.39-7.92-2.52-15.71-4.35-24.03-5.1-7.26-1.15-14.22-1.67-21.54-1.89-8.89-.37-17.58-.48-26.43-.08-3.33.15-6.4.88-9.51,1.74-9.01,2.48-12.76-3.36-17.09-5.41-11.92-5.63-10.11-9.77-19.41-8.91-11.44,1.06-12.69-1.28-22.64-3.47-5.98-1.32-11.84-1.46-17.65,1.03-7.81,3.36-15.56,5.48-23.81,7.44-8.3,1.97-15.96,4.88-23.86,7.85-9.24,3.48-14.52,3.66-22.92-.55-7.17-3.6-16.95-8.08-25.08-7.44-16.84,1.32-15.6-2.49-30.19-.49-8.68,1.19-17.31,1.47-25.86,3.79-9.58,2.59-19.25,2.63-24.3-7.39-3-5.95-3.2-15.25-2.45-21.77l1.58-13.7c.64.41.6,1.18.6,2.24,1.84-.36,3.05.54,3.96,1.77l.44.59c.04.27.08.58.08.85.08,9.9-1.97,6.02-1.39,17.61l.05.92c0,.14.01.37-.06.49-1.53,2.45,1.31,11.43,5.9,13.88,4.14,2.21,8.9,1.43,13.16.36l3.69-.93c3.4-.86,6.84-1.07,10.36-1.65l9.67-1.58c7.21-1.18,14.13-1.74,21.36-.41,12.02,2.22,5.85-.8,17.46.5,3.51.39,6.46,1.01,9.75,2.3,6.48,2.54,12.71,5.74,19.45,7.58,5.43,1.48,11.01-1.35,15.97-2.92l12.13-3.84c2.92-.92,5.94-1.75,8.93-2.67l3.58-1.1c4.67-1.44,9.46-2.11,14-4.2,7.88-3.63,17.49-5.79,26.02-3.66l11.26,2.82c2.35.59,4.7,1.11,7.35.83,15.71-1.69,13.19,3.64,24.18,9.01,6.46,3.16,7.36,6.17,13.96,5.27l4.82-.65c6.05-.82,7.79-2.04,16.77-1.46,1.26.08,2.45-.07,3.78-.03l12.5.36c2.05.06,3.94.06,5.98.25l14.03,1.36c1.98.19,3.7.26,5.6.66l4.86,1.02c1.33.28,2.48.43,3.78.84,2.17.68,4.83.23,6.99,1.51.89.53,1.53,1.51,3.01,1.34,2.09-.25,3.85.97,5.73,1.31,4.88.9,16.38-.7,21.66.86,1,.3,7.45,1.71,8.32,2.02,3.37,1.19,6.52,2.71,9.66,4.51,7.44,4.25,14.16,13.29,14.29,22.24.03,1.99.38,4.01-.09,5.87-2.03,8.1-7.63,11.11-15.78,11.03l-21.17-.21c-5.66-.06-10.55-2.57-15.63-4.68l-14.12-5.88-11.29-5.06c-4.96-2.22-9.62-4.75-15.06-5.66-4.79-.81-14.32,1.01-19.55-.08-1.81-.38-3.83-1.1-5.49-1.75-4.61-1.79-8.94-2.01-13.83-2.23-16.1-.72-27.2-7.33-40.28.14-3.44,1.96-7.15,1.92-10.9,1.52-11.57-1.24-15.68,1.64-22.67,1.65l-11.32.02-.53-.04c-1.34-.09-2.71.28-4.04.35-.16,0-.27-.03-.45.02-.43.11-.92.03-1.36.08-.05-.53-.75-.46-1.35-.46-3.33.01-6.46-.4-9.72-.61-5.07-.33-9.99-1.07-14.62-3.08-5.47-2.36-10.78-4.69-16.38-6.77-17.99-6.68-23.14-2.36-34.55-1.83l-7.25.34c-1.23.06-2.8-.15-4.08-.38l-11.36-2.04c-2.68-.48-5.28.95-7.94,1.52-20.73,4.48-5.55-.63-25.62,1.2l-4.96.45c-6.62.61-10.42.08-16.93-1.24l-4.93-1c-4.57-.92-8.46-2.55-12.62-4.71-4.52-2.34-8.92-5.38-11.01-10.23-.29-.68-.5-1.08-1.02-1.82-1.57-2.26-3.61-9.54-4.25-12.55-.37-1.76-.3-3.65-1.47-4.91-.02-.12.06-.29,0-.4-.83-1.96-.6-4.14-1.01-6.3-.67-3.56-.82-6.85-.89-10.49-.05-2.94-.75-5.64.14-8.64.29-1-.63-2.99.36-3.72,1.42-.98,3.54-.24,5.1-.33"/><path class="g" d="M301.38,696.02c-.4,14.4-1.95,28.83-4.99,43.08-1.09,5.12-2.97,9.55-5.67,13.83-12.89,13.37-28.97,9.38-45.51,6.22-6.9-1.32-13.34-2.34-20.25-2.98-8.57-.8-16.82-1.7-25.22-3.71-8-1.91-15.67-4.04-23.94-4.5-7.58-.42-14.79-.84-22.23-2.43-4.79-1.02-9.31-.86-14.06-.29l-13.6,1.64c-4.62.56-9.01-.08-13.59.16l-13.17.68-18.54-1.31c-11.48-.81-17.25,4.02-30.93-.82l-17.7-6.26c-3.5-1.24-7.15-.46-10.83-.55-4.18-.1-7.9,1.5-10.13,5.34-3.56,6.12-7.06,18.32-3.18,25.2,6.34,11.26,16.47,5.47,25.05,5.44,5.56-.02,10.86,1.36,16.39,2.1,4.54.61,6.35-4.41,16.29-1.7,3.47.95,7.59,2.13,11.19.94,7.28-2.41,14.33-2.95,22.01-2.03l20.79,2.48c5.08.61,9.86,1.79,14.96,1.87,5.48.09,10.09-3.31,22.49-1.75,2.57.32,4.9.25,7.51-.17,12.47-2.01,16.67,2.1,31.7.48,3.81-.41,7.52-.16,11.32-.18,14.64-.08,20.38,8.86,43,8.88,1.9,0,10.39-2,12.25-2.65,7.49-2.64,19.07-9.88,25.81-11.79l8.75-2.48c12.13-3.43,10.94-15.29,14.17-24.96,3.14-9.39,4.17-18.68,4.38-28.64l.4-19.06,5.1.52c-.06,1.6.4,2.93.4,4.49l-.03,21.27c0,1.53-.64,2.89-.78,4.19-.05.43-.22.86-.41,1.25-.57,1.15-.94,2.44-.82,3.88.07.83-.72,1.5-.79,2.3-.34,4.2-1.82,7.98-2.75,12l-2.52,10.92c-1.14,4.92-3.44,9.74-7.43,12.95-3.88,3.13-8.79,4.01-13.43,5.15-7.28,1.79-15.11,7.45-22.64,10.51-7.63,3.1-15.52,5.55-23.72,5.1-14.4-.78-26.79-7.43-34.03-8.44-10.77-1.5-21.02,1.71-34.8-.77-3.96-.71-7.78-.49-11.77,0-12.15,1.51-14.41-2.02-23.7.72-5.44,1.61-10.85,1.08-16.37.34l-15.21-2.04c-9.56-1.28-20.58-2.94-29.9-.16-5.56,1.66-11.19,1.74-16.64-.41-5.89-2.32-8.95,2.64-14.64,2.27-2.78-.18-5.48-.63-8.19-1.23-16.25-3.61-21.73,6.17-34.32-4.75-2.86-2.48-4.62-5.01-5.38-8.81-1.17-5.89-.42-11.79,1.66-17.46l1.1-2.98c1.13-3.06,2.41-5.6,4.62-8.21,5.26-6.2,19.42-5.8,24.47-4.03l18.82,6.58c2.76.96,5.63,1.49,8.56,1.78,3.56.34,11-2.81,24.04-1.4l9.01.97c4.12.45,8.37.38,12.44-.08,4.6-.52,9.03.44,13.52-.08l19.33-2.25c7.12-.83,15.6.33,22.57,1.77,3.43.71,6.58.8,10.09.94,11.75.45,14.07,1.03,25.18,3.77,3.56.88,6.97,1.9,10.63,2.45,6.47.97,15.41,2.49,21.77,2.68,3.74.11,12.78,1.67,16.64,2.44l8.05,1.6c9.53,1.89,18.81,2.71,27.66-2.02,6.52-3.49,9.41-13.15,10.71-19.98.33-1.76,1.97-7.88.42-9.2l-.05-.75c.86-.2.28-.93-.32-.53l1.89-8.91,1.53-17.9c1.91-.76,3.79-.7,5.54-.52"/><path class="g" d="M301.8,695.3c-.11.26-.24.5-.42.72-1.75-.18-3.63-.25-5.54.52l-1.53,17.9-1.89,8.91c-8.66-1.88-16.42-5.09-23.15-11.39-2.34-2.19-4.61-4.11-5.92-7.2,1.5-1.58,3.27-3.02,5.51-3.8,10.59-3.7,21.91-6.2,32.95-5.65"/><path class="g" d="M340.93,697.52v.41c-1.57.09-3.68-.65-5.11.33-1,.73-.07,2.73-.36,3.72-.88,3-.19,5.7-.14,8.64.07,3.64.22,6.93.89,10.49.4,2.16.18,4.34,1.01,6.3l-16.25-.85c.14-1.3.78-2.67.78-4.19l.03-21.27c0-1.55-.46-2.89-.4-4.49l-5.1-.52.02-.44c4.78-.28,9.58.27,14.58.77,3.55.35,7-.25,10.05,1.09"/><path class="g" d="M360.94,724.63l-.05-.92c4.4-1,8.81-2.68,12.38-5.59.91-.74.54-2.19.45-2.93-.13-1.03-1.26-1.11-2.1-1.83l-1.96-1.69c-5-4.29-6.15-2.76-7.39-5.58,0-.28-.04-.58-.08-.85-.03-.24-.31-.42-.44-.59-.91-1.23-2.12-2.13-3.96-1.77,0-1.06.04-1.82-.6-2.24l-.02-.4c4.81,1.47,7.71,6.33,12.49,9.3,3.22,2,8.7,4.35,6.42,7.31-3.73,4.85-9.64,6.51-15.14,7.77"/><path class="g" d="M292.74,723.86c-.36.09-.37-.31-.32-.53.6-.41,1.18.32.32.53"/><path class="i" d="M297.57,475.89c2.25,1.6,2.27,9.99,1.18,12.31-10.2-5.63-19.74-11.34-29.01-17.92-4.26-3.02-8.32-5.66-12.11-9.28-5.09-4.86-10.35-9.15-15.81-13.64l-11.45-9.42c-2.6-2.14-5-4.34-7.54-6.55l-12.39-10.74c-2.44-2.12-3.87-5.42-5.19-8.32-1.88-4.14-1.79-8.41-.15-12.5,1.22-3.01,4.01-4.86,7.27-4.29,2.69.47,5.1,1.46,7.32,3.13l10.12,7.62,24.94,22.14c4.3,3.81,16.04,16.44,19.01,20.95,4.18,6.35,12.57,17.99,18.09,22.7,1.75,1.49,3.86,2.49,5.71,3.8"/><path class="g" d="M301.62,504.76l-14.84-5.31c-8.07-2.89-21.47-8-28.52-12.4-4.51-2.81-9.11-5.14-13.44-8.26l-12.94-9.33c-6.17-4.45-36.95-30.33-40.21-36.02-1.79-3.14-2.04-7.35-.24-10.6,3.89-7.03,18.09,3.34,21.83,6.79,4.01,3.69,7.81,7.15,12.04,10.63l18.61,15.37,16.39,14.03c5.68,4.86,11.77,8.74,18.2,12.61l18.6,11.21c2.09,1.26,3.76,1.94,4.14,4.77.27,2.01,1.26,4.18.36,6.51"/><path class="e" d="M310.64,527.46c-2.83-.04-5.02-.95-7.49-1.7-6.52-1.99-12.96-3.64-19.07-6.78-8.64-4.45-17.12-8.36-26.14-11.97-12.21-4.87-21.86-11.95-33.97-18.22-8.25-4.27-28.79-17.1-32.36-25.26-.81-1.86-.32-4.07.06-5.95.82-4.14,4.57-6.13,8.57-4.96,4.01,1.18,7.5,3.26,10.75,6.05,7.17,6.15,14.34,11.87,21.88,17.59,2.58,1.95,4.8,3.91,7.54,5.6l11.75,7.26c5.93,3.66,11.77,6.87,18.29,9.36l13.51,5.18c6.32,2.42,12.33,4.98,18.8,7,1.25.39,2.05,1.42,2.41,2.61,1.5,4.92,3.07,9.48,5.49,14.2"/><path class="g" d="M362.59,242.68l9.86-.2c8.43-.17,22.01-5.1,23.09-13.51.28-2.17-5.22-7.19-6.42-7.93-5.64-3.46-11.72-5.72-18.03-7.76l-6.22-2.01c-1.99-.64-3.83-1.46-5.77-1.45-.39-2.39-8.27-2.12-11.17-2.89-4.89-1.31-9.75-1.37-14.79-.59-1.52.24-3.07.26-3.96,1.45-3.86-.17-7.67.68-11.74.97-9.03.65-17.75,1.6-26.74,3.82,1.89,3.11,4.19,5.51,7.01,7.48,7.15,5.02,23.87,16.28,31.87,16.67.02,1.71.46,3.33-.36,5.38-2.06-1.4-4.04-1.35-5.95-2.01-10.22-3.54-26.41-13.16-33.76-21.02-1.52-1.63-3.61-3.13-4.42-5.52-1.55-4.58-1.08-9.76-.13-14.61.49-2.53-.03-5.07.74-7.85.85-3.08-.06-6.51.37-9.73.03-.21.85-9.28.95-8.13-.23-2.6.2-2.29.69-5.51l1.65-10.96,1.02-10.34.54-9.93c.22-4.04.63-7.84,1.01-11.81l1.91-20.25c.66-7.04,1.08-13.93,1.17-21.04.08-7.11.36-13.78,1.45-20.79.59-3.84.25-11.33,1.12-18.59l1.43-11.98c.36-3.04.07-6.28,1.47-9.12.62-1.26-.18-2.76.36-4.16,1.19-3.07,2.81-6.47,5.31-8.79,1.16-1.08,2.95-1.48,4.3-2.43,1.85-1.28,13.89-3.45,16.93-4.31,2.68-.76,5.29-.96,7.98-1.3l6.45-.8c3.74-.46,7.16-.24,10.87,0,6.43.43,9.29,2.02,15.24,3.52,7.2,1.81,13.81,4.59,20.67,7.34,4.39,1.76,7.08,4.75,10.13,8.18,3.06,3.44,2.83,7.82,2.7,12.5l-.3,11.12c-.13,4.82-1.26,9.36-1.62,14.19l-1.56,20.87-.45,8.13-.98,10.47-.95,9.05c-.39,3.69-.15,7.12.14,10.87l.61,7.79,2.36,19.94c.43,3.67.99,7.18,1.65,10.77l3.69,20.03c2.23,12.1,3.1,23.95,2.59,36.33-.19,4.53-2.29,8.43-3.41,12.72-1.9,7.28-4.18,11.96-10.47,15.61-1.83,1.06-3.45,2.52-5.51,3.51-4.67,2.23-14.07,3.92-19.14,3.47-1.6-.14-3.89.61-5.08-.85-.84-1.04-.12-2.9-.4-4.06M379.52,34.33c4.29-1.05,19.63-2.81,16.33-9.63-3.27-6.75-15.52-10.83-22.58-13.11l-10.61-3.41c-13.91-4.47-29.57-1.35-43.62,1.67-3.88.83-7.29,1.65-10.51,4.12-10.55,8.09,31.14,18.89,40.94,19.41l8.19.43c1.5.08,3.07.38,4.56.46,5.75.31,11.34.11,17.29.06M398.7,221.47c4.24-5.84,2.79-16.52,2.63-23.29-.11-4.56-.67-8.76-1.36-13.24l-3.03-19.67c-.73-4.76-2.34-9.05-2.92-13.91-1.6-13.32-3.34-26.4-3.86-39.8-.21-5.31.94-10.25,1.37-15.59l4.2-52.41c.21-2.59.37-4.86.22-7.48-15.38,7.42-29.95,6.39-45.98,3.76-9.14-1.53-17.9-3-26.8-5.44-6.6-1.81-12.53-4.91-18.64-8.17-2.11,15.68-3.07,30.98-3.81,46.5l-.75,15.68c-.44,9.16-.86,18.01-1.82,27.18-.98,9.3-2.11,18.11-2.43,27.41-.32,9.21-1.64,18.01-3.25,27.06-.79,4.43-.9,8.63-1.18,13.07l-1.45,22.52c.4.38,1.36.22,2.29-.04,18.67-5.18,40.54-8.05,59.64-3.74,8.77,1.98,17.08,4.36,25.67,6.94,7.13,2.14,16.41,6.16,21.27,12.64"/><path class="i" d="M362.59,242.68c-.88.02-1.25-.9-1.75-1.48.09-.86-.05-1.77,0-2.63.56,0,.45-.74.48-1.16.02-.34-.43-.49-.54-.76-.54-1.4-.19-2.94-.42-4.37.61-.18.49-1.02.52-1.67.02-.37-.27-1.07-.89-.77.2-.46-.21-1.15-.07-1.63.6-.2.5-1.06.52-1.68.01-.39-.35-1.08-.94-.81-.02-.64.03-1.46-.06-2.07.63-.16.52-1,.54-1.65.01-.38-.27-1.04-.9-.77l-.09-1.66c1.43-.74-.86-7.62.12-9.73,1.94,0,3.78.81,5.77,1.45l6.22,2.01c6.3,2.04,12.38,4.3,18.03,7.76,1.2.74,6.7,5.76,6.42,7.93-1.07,8.4-14.65,13.33-23.09,13.51l-9.86.2Z"/><path class="i" d="M329.17,207.8c.05.53-.51,4.94.78,4.05l.04,1.63c-.77,1.2-.75,3.07.06,4.27l.02,2.1-.04,15.07c0,.76-.28,1.38-.46,1.83-8.01-.39-24.72-11.66-31.87-16.67-2.81-1.97-5.11-4.37-7.01-7.48,8.99-2.22,17.72-3.16,26.74-3.82,4.07-.29,7.88-1.14,11.74-.97"/><path class="g" d="M529.09,775.83l-.45.02c.18-.05.3,0,.45-.02"/><path class="g" d="M533.13,775.48l.53.04c.09.57-.65.49-.53-.04"/><path class="g" d="M330.04,217.74c-.81-1.19-.83-3.06-.06-4.27.76,1.23.76,3.04.06,4.27"/><path class="f" d="M324.91,305.64l.08-5c0-.39.13-1.09.44-.93v5.47c.01.36-.31.54-.53.46"/><path class="f" d="M325.86,291.62c-.12-1.79-.18-3.85.46-5.52-.02,1.85.51,3.88-.46,5.52"/><path class="f" d="M324.54,311.59c.02-1.38-.02-2.76.12-4.13.62,1.2.65,3.02-.12,4.13"/><path class="f" d="M325.44,296.61c0-.77.03-1.54.13-2.3.64.52.54,1.85-.13,2.3"/><path class="f" d="M326.35,283.91l.05-1.89c.54,0,.46.78.42,1.14-.02.24-.05.85-.48.75"/><path class="f" d="M358.18,317.92c0-.34-.37-6.89.4-5.98l-.04,5.47c0,.35-.05.7-.36.51"/><path class="f" d="M359.97,290.71c0-1.89-.4-4,.83-5.52-.22,1.84-.21,3.81-.83,5.52"/><path class="g" d="M359.43,223.63c-.5-.73-.31-1.56-.35-2.42.62-.28.91.39.9.77-.03.65.09,1.5-.54,1.65"/><path class="g" d="M359.91,228.19c-.64-.7-.4-1.63-.42-2.48.59-.27.96.41.94.81-.02.62.09,1.48-.52,1.68"/><path class="g" d="M360.36,232.27c-.13-.79-.8-1.5-.38-2.44.62-.29.91.41.89.77-.03.65.1,1.49-.52,1.67"/><path class="g" d="M360.83,238.57c.03-.62-.8-1.52-.05-1.93.11.27.56.42.54.76-.03.43.08,1.17-.48,1.16"/><path class="f" d="M359.06,299.78c-.11-1.71.13-3.53.83-5.06,0,1.71-.21,3.5-.83,5.06"/><path class="f" d="M359.05,302.5c0-.63-.04-1.26,0-1.89.45-.12.41.51.42.75.01.35.11,1.16-.43,1.14"/><path class="f" d="M358.98,306.13c-.07-.2-.38-.43-.4-.72-.02-.3.4-.51.41-.72v1.44Z"/><path class="f" d="M360.78,282.51c-.24-.14-.38-.6.05-.49l-.05.49Z"/><path class="f" d="M359.88,293.43c-.13-.18-.11-.36.02-.53l-.02.53Z"/><path class="f" d="M358.66,308.85c0-.19-.07-.67.31-.53,0,.19,0,.69-.31.53"/><path class="e" d="M356,586.11c6.44,6.07,7.53,17,.92,20.11-3.06,1.44-6.23.95-9.03-1.11-4.85-3.57-7.14-10.05-5.05-15.81.92-2.52,3.35-4.56,5.31-5.06,2.88-.74,5.93.05,7.85,1.87"/><path class="e" d="M361.04,667.54c-5.49,5-14.67,3.73-17.07-1.14-1.25-2.53-1.61-5.08-.4-7.69,1.86-4.03,5.83-7.14,10.47-7.44,4.67-.3,9,3.17,9.86,7.59.64,3.29-.37,6.41-2.86,8.68"/><path class="e" d="M369.51,404.57c-2.9-2.79-4.23-6.93-3.46-10.8.77-3.91,3.83-7.49,7.94-7.74,7.03-.43,11.77,5.93,10.92,12.55-.47,3.65-2.26,6.65-5.24,7.91-3.51,1.49-7.21.93-10.16-1.92"/><path class="e" d="M312.14,372.81c-1.62.85-4.38.63-5.94.2-3.21-.89-5.02-3.44-6.49-6.26-2.54-4.89-1.07-11.29,3.88-13.92,5-2.65,9.98.27,12.39,4.9,2.74,5.29,2.02,12-3.85,15.08"/><path class="e" d="M306.72,616.35c-.51,3.74-2.77,6.68-5.44,7.83-3.6,1.55-7.55,1.07-10.34-1.49-2.82-2.59-3.78-6.72-2.44-10.36,1.18-3.2,4.04-6.39,8.03-6.76,5.98-.56,11.01,4.71,10.19,10.78"/><path class="e" d="M290.3,670.37c-3.06,4.02-9.34,4.05-13.1,1.35-3.99-2.87-5.57-8.42-3.04-12.84,1.29-2.26,3.06-3.88,5.67-4.33,4.04-.69,8.04,1.23,10.19,4.31,2.27,3.25,3.03,7.9.29,11.51"/><path class="e" d="M315.57,437.8c-5.72.58-9.86-4-10.42-9.29-.47-4.38,2-9.39,6.77-9.79,5.99-.51,10.65,4.86,10.43,10.69-.15,3.89-2.51,7.96-6.77,8.39"/><path class="e" d="M341.8,545.39c-3.78,2.3-9.55-.69-10.65-5.74-.69-3.19.13-6.21,2.29-8.27,1.69-1.6,3.83-2.3,6.06-1.98,1.94.28,3.73,1.6,4.99,3.4,2.97,4.25,2.08,9.69-2.68,12.59"/><path class="g" d="M370.68,549.49c-1.56-1.46-.65-14.21,1.13-15.63,2.32-1.84,4.93-3.58,7.42-5.16,1.82-1.16,4.24-1.21,5.99-2.82,2.44-2.24,5.61-3.15,8.41-4.82,1.71-1.02,3.36-2.25,5.09-3.35l7.32-4.62c1.5-.94,2.25-2.59,4.25-3.07,1.86-.45,3.44-1.93,4.71-3.28,1.73-1.82,4.23-2.07,6.19-3.42l7.24-5,13.46-9.65c2.1-1.51,4.04-3.23,6.04-4.77l6.2-4.78c3.66-2.82,4.78-5.46,7.65-6.57,1.5-.58,3.71-2,5.31-.54,2.76,2.52-1.29,10.72-4.05,13.8-2.27,2.53-4.28,5.08-6.96,7.14l-10.04,7.71c-5.77,4.44-11.15,9.11-17.48,12.84l-6.64,3.91-5.47,3.5c-1.98,1.27-3.6,2.49-5.85,3.35-1.86.71-3.2,2.54-4.99,3.5-5.14,2.73-7.08,5.16-12.24,8.17-4.12,2.41-8.11,4.69-12.07,7.47-3.32,2.33-6.5,4.71-10.61,6.08"/><path class="g" d="M360.89,723.71c-.58-11.59,1.47-7.71,1.39-17.61,1.23,2.82,2.39,1.29,7.39,5.58l1.96,1.69c.83.72,1.97.8,2.1,1.83.09.74.45,2.19-.45,2.93-3.57,2.9-7.97,4.59-12.38,5.59"/><path class="g" d="M362.19,705.25l-.44-.59c.14.18.41.36.44.59"/><path class="e" d="M398.7,221.47c-4.86-6.48-14.14-10.5-21.27-12.64-8.59-2.57-16.9-4.96-25.67-6.94-19.1-4.31-40.97-1.44-59.64,3.74-.93.26-1.89.42-2.29.04l1.45-22.52c.28-4.43.4-8.63,1.18-13.07,1.6-9.06,2.93-17.85,3.25-27.06.32-9.31,1.45-18.11,2.43-27.41.96-9.17,1.39-18.02,1.82-27.18l.75-15.68c.74-15.52,1.7-30.82,3.81-46.5,6.11,3.25,12.04,6.35,18.64,8.17,8.9,2.44,17.66,3.9,26.8,5.44,16.04,2.63,30.6,3.65,45.98-3.76.14,2.61-.01,4.88-.22,7.48l-4.2,52.41c-.43,5.34-1.57,10.27-1.37,15.59.52,13.39,2.25,26.47,3.86,39.8.58,4.86,2.19,9.15,2.92,13.91l3.03,19.67c.69,4.49,1.25,8.69,1.36,13.24.16,6.77,1.61,17.45-2.63,23.29M373.32,103.56l1.61-3.27c3.6-7.28,4.25-20.48,1.18-27.5-1.13-2.59-2.43-5.19-4.12-7.24-3.12-3.79-7.61-5.88-12.63-5.16-5.41.77-9.76,4.81-12.64,9.35-1.68,2.65-2.5,5.3-4,8.27-.8-1.26-.9-2.66-.99-4.04-.34-5.24-2.61-9.53-5.21-13.83-1.4-2.31-3.02-3.71-5.09-5.31-4.78-3.7-10.51-3.55-15.47.18-4.88,3.67-7.74,9.1-9.07,15.3-2.47,11.52-.11,28.45,11.37,34.88,4.71,2.64,10.5,1.72,14.64-1.67,4.57-3.74,5.69-7.73,8.24-12.86,1.67,7.11,2.46,12.49,7.66,18.49,2.09,2.41,5.08,3.64,8.24,4.41,5.44,1.34,13.31-4.01,16.27-10"/><path class="f" d="M379.52,34.33c-5.94.05-11.53.25-17.29-.06-1.5-.08-3.06-.38-4.56-.46l-8.19-.43c-9.81-.52-51.5-11.33-40.94-19.41,3.22-2.46,6.63-3.28,10.51-4.12,14.05-3.02,29.71-6.14,43.62-1.67l10.61,3.41c7.06,2.27,19.31,6.36,22.58,13.11,3.3,6.82-12.04,8.58-16.33,9.63"/><path class="h" d="M373.32,103.56c-2.96,5.99-10.83,11.33-16.27,10-3.16-.78-6.15-2-8.24-4.41-5.2-6.01-5.98-11.38-7.66-18.49-2.55,5.13-3.67,9.11-8.25,12.86-4.14,3.39-9.93,4.3-14.64,1.67-11.48-6.42-13.84-23.35-11.37-34.88,1.33-6.2,4.18-11.63,9.07-15.3,4.96-3.72,10.69-3.88,15.47-.18,2.07,1.6,3.69,3,5.09,5.31,2.6,4.3,4.87,8.6,5.21,13.83.09,1.38.19,2.78.99,4.04,1.5-2.97,2.32-5.62,4-8.27,2.88-4.54,7.24-8.58,12.64-9.35,5.02-.72,9.51,1.37,12.63,5.16,1.69,2.05,2.99,4.65,4.12,7.24,3.07,7.02,2.42,20.22-1.18,27.5l-1.61,3.27ZM334.5,64.58c-1.98-3.91-5.13-7.62-9.59-8.13-12.57-1.44-19.9,21.87-10.5,39.33,2.18,4.05,6.39,7.23,11.06,6.61,11.91-1.59,16.25-23.59,9.03-37.81M364.34,107.62c14.7-10.8,11.63-41.62-2.19-43.21-3.93-.45-7.67,1.78-10.12,4.78-7.73,9.51-8.99,26.91-.29,36.82,3.33,3.79,8.46,4.64,12.59,1.61"/><path class="h" d="M330.15,84.11c-.92,1.64-2.26,2.37-3.54,2.52-1.76.21-3.13-.48-4.23-1.96-2.19-2.96-2.39-7.05-.35-10.14.92-1.39,2.27-2.16,3.76-2.2,1.4-.03,2.87.63,3.84,1.99,2,2.8,2.26,6.65.5,9.79"/><path class="h" d="M363.1,90.86c-1.1,1.75-3,2.47-4.61,2.35-1.65-.13-3.27-1.12-4.08-2.86-2.19-4.71-.24-11.43,4.4-11.62,1.65-.07,3.4.72,4.37,2.37,1.67,2.83,1.77,6.8-.08,9.76"/></g></g></svg>