<?xml version="1.0" encoding="UTF-8"?><svg id="b" xmlns="http://www.w3.org/2000/svg" viewBox="0 0 145.08 260.3"><defs><style>.d{fill:#ffdf44;}</style></defs><g id="c"><path class="d" d="M126.5,18.34c40.7,40.08.64,87.44-15.21,34.63-15.62-43.24-55.09-15.31-52.38,20.34,2.24,64.9,173.46,102.01,26.97,183.63C-28.01,286.98-9.26,103.77,32.04,180.06c.02,36.24,29.75,63.05,53.83,26.16,19.38-50.9-42.48-75.76-60.28-115.65C2.79,30.78,79.23-31.93,126.5,18.34ZM106.43,20.22c3.68-3.53-7.1-12.27-10.35-9,5.82,1.46,7.56,4.17,10.35,9Z"/><path class="d" d="M106.31,14.51c2.46,12.38-3.52-3.56-10.24-3.29,5.53-2.95,4.22,2.35,10.24,3.29Z"/><path class="d" d="M49.99,11.56c.07-.02.11,0,.11,0-.04,0-.08,0-.11,0Z"/></g></svg>