<?xml version="1.0" encoding="UTF-8"?><svg id="b" xmlns="http://www.w3.org/2000/svg" viewBox="0 0 143.24 246.53"><defs><style>.d{fill:#057c12;}</style></defs><g id="c"><path class="d" d="M143.24,61.62c-.26,17.85.62,41.08-3.35,43.46-.93-.99-5.39-7.2-1.17-7.01-.77-2.92-6.93-7.25-3.18-10.1-5.59-8.31,3.76-42.63.59-21.07,8.58,18.06,2.66-35.47,1.29-40.87,7.11,7.8,3.71,24.46,5.82,35.59ZM141.91,93.23c.26-1.77-2.78.15-.69.24.18-.04.51.12.69-.24ZM141.41,96.89c.94-.26.66-2.46.08-2.49-1.13.11-1.42,2.87-.08,2.49Z"/><path class="d" d="M142.68,110.18c-3.7,25.78,3.94,177.01-14.75,94.57-1.54-16.03-6.71-45.69,3.23-52.38,2.17.26-1.97,7.14,2.94,5.64.59,3.93-2.77.05-2.03,2.9,9.9.76-4.21-48.82,10.61-50.73ZM136.98,214.92c.48-5.72-6.64-13.52-2.02-19.75-.82-.07-.36,2.09-1.61.88-1.64-4.79-.55,18.02-.18,19.82,1.36,1.38,1.43-8.67,3.81-.95ZM134.47,165.14c.55-.26,1.12-1.25.69-2.45-2.03-2.23-4.6,4.48-.69,2.45ZM133.58,172.86c1.52,1.28,2.02-7.26-.76-4.42,2.02,1.45-.29,3.5.76,4.42ZM134.72,219.44c0-.29-.45-.3-.45,0,0,.29.46.28.45,0Z"/><path class="d" d="M120.78,196.54c-20.16-28.79,3.76-79.74,2.33-121.38-1.16-9.1-.3-21.6-1.32-30.4.6-7.2-3.77-17.39,4.43-8.17.52-4.5-4.35-9.93,1.81-10.17-9.58-11.82,5.74-5.35,6.16,3.23-4.35,3.23,5.07,7.78,2.45,2.7-3.28-.6.36-2.2-.9-4.57,2.58-14.75,9.61,59.4.48,39.03,3.37-.87,1.14-5.82.16-7.7-3.61,6.98-1.93,16.02-2.69,23.36,6.09,2.39-2.99,8.35,2.69,10.11-1.26,2.52,2.53,3.97,2.38,5.54-4.22-.68.41,6.82,1.33,6.78.75-16.03,6.13,5.67-2,8.92-5.28,10.37-.67,34.13-3.19,47.05-2.43,2.1-4.34-2.94-1.32-.62,1.16-1.64.69-3.43-1.38-1.92-1.51-12.39-.38,1.13-4.73-5.18-7.2,29.98,4.47,58.78,8.08,85.45-3.65.83-.08-18.17-5.13-6.93-2.19-1.87.78-10.61-2.8-9.83-2.13,5.57,9.39,18.78-.64,15.06-.45-3.26.14-8.07-3.75-8.19,4.11-2.62,2.77-11.1-1.81-5.6,5.48,2.16.46,2.55-.06,6.55-1.48.5-4.75-.79-1.91,1.67,9.23-.85-1.88,13.31-4.23,2.06,5.08-5.35-.42-16.07,6.77-17.87-.03-3.57-.36-5.42.67-9.01-7.6-7.61,1.04,1.52-1.52-8.66-9.51,1.26-8.01-5.5-.36-1.31ZM133.38,34.86c0-.29-.45-.3-.45,0,0,.29.46.28.45,0ZM131.38,149.66c-1.55-4.87-3.58.16-4.13,2.49,2.41-2.06,3.29.46,4.13-2.49ZM130.36,46.64c.91-2.28-1.92-2.98-2.59-1.18-.11,1,2.24,1.86,2.59,1.18ZM120.89,189.9c.29-.27-.22-.96-.37-1.31-2.04-1.63-2.07,3.23.37,1.31ZM121.18,226.84c0-.5-.78-.49-.77,0-.01.5.79.51.77,0ZM118.25,189.58c-1.35-1.96-2.72-1.16-2.68.7.93-.37,1.92.31,2.68-.7Z"/><path class="d" d="M142.43,112.82c.03.99-.64,1.11-1.32,1.83-.89-1.77-.52-2.99,1.32-1.83Z"/><path class="d" d="M141.65,92.57c.64.16.14,1.15-.42.9-1.27.11-.58-1.32.42-.9Z"/><path class="d" d="M141.49,94.4c.59.02.87,2.23-.08,2.49-1.35.38-1.05-2.38.08-2.49Z"/><path class="d" d="M138.68,25.95c-1.85.69-1.86-2.07-4-.92,3.41,2.53-1.51,6.73,1.99,7.45,1.45,4.24-4.94,2.47-2.87-4.61-4-2.13-1.85-4.97-4.39-8.15-5.61.98-3.49-3.4-8.62-3.58-16.41-25.18-26.28,20.25-40.98,25-2.2.86-1.94,7.38-5.89,2.54-4.85,4.91,2.56,11.55.1,15.39-9-1.95-6.04-17.2-18.1-19.35,29.86-10.36,55.51-67.58,82.76-13.77ZM134.17,21.51c.08-1.01.43-1.83-.27-2.87-1.03.87-.52,1.96.27,2.87ZM133.59,24.31c.38-.1.33-1.39.03-1.27-.91.31-1.04,1.46-.03,1.27ZM87.12,23.9c-2.02-4.4-27.46,20.73-19.91,23.58.85-6.51,7.21-3.62,10.71-7.55,3.26-3.61,1.59-9.51-.5-2.23-4.46-1.96,2.17-6.77,3.48-8.68,3.96.97-4.7,2.69,3.37,3.79-1.25-4.09-1.23-6.9,2.85-8.91Z"/><path class="d" d="M135.4,209.86c3.55,1.43,1.86,8.07.61,2.13-2.71.14-1.43,5.19-2.83,3.89.34-2.55-3.04-23.51,1.37-19.84-.7-1.03-1.45,10.75.85,13.82Z"/><path class="d" d="M135.17,162.69c.67,2.03-1.1,3.3-2.59,2.54-1.03-1.12,1.69-4.2,2.59-2.54Z"/><path class="d" d="M134.8,238.99c-.88,5.4-.92,0-5.08,0-3,6.32-16.42.33-15.59-5.38,3.19,5.67,12.25,3.47,17.7,3.55-1.02-.71-7.46-19.09-2.66-14.41.54,18.34,3.32-4.7,5.63,16.23ZM134.28,239.64c0-.28-.46-.28-.46,0,0,.3.46.3.46,0Z"/><path class="d" d="M134.58,168.29c.24.79.36,5.76-1,4.57.03-.66-1.16-6.42,1-4.57Z"/><path class="d" d="M134.49,219.21c.29,0,.3.45,0,.45-.29,0-.28-.46,0-.45Z"/><path class="d" d="M133.9,18.64c.71,1.03.35,1.86.27,2.87-.79-.9-1.3-2-.27-2.87Z"/><path class="d" d="M134.05,239.42c.3,0,.29.45,0,.45-.29,0-.3-.45,0-.45Z"/><path class="d" d="M133.63,23.04c.29-.12.35,1.17-.03,1.27-1.03.19-.82-.99.03-1.27Z"/><path class="d" d="M133.15,34.63c.29,0,.3.45,0,.45-.29,0-.28-.46,0-.45Z"/><path class="d" d="M130.59,147.93c2.56,3.09-.87,2.82-3.35,4.24,1.69-1.78-.45-5.23,3.35-4.24Z"/><path class="d" d="M129.54,44.41c.48.14,1.4,1.12.81,2.23-1.8,1.25-4.01-2.33-.81-2.23Z"/><path class="d" d="M123.7,21.41c7.68,8.02-1.37,1.16,2.43,15.49-6.02-6.5-12.14-12.18-21.05-4.66,1.76-3.52,7.46-5.39,11.42-5.64-6.52-17.18,3.1-3.43,5.91.71.63-3.26-5.49-11.6,1.29-5.9ZM125.74,25.87c0-.28-.46-.28-.46,0,0,.3.46.3.46,0Z"/><path class="d" d="M126.24,234.4c3.7,2.14-3.67,4.76-3.59.96-2.3-.92,3.93-4.22-3.39-4.08-2.8-2.59.92-.79,2.23-1.68.45-1.75.83-3.55,2.8-4.46-7.43-4.2,3.69-5.67,1.59,1.3-5.9,1.57,1.38,3.96.36,7.96Z"/><path class="d" d="M126.04,230.1c.39.92.05,1.79.09,2.57-1.06-.09-1.38-3.4-.09-2.57Z"/><path class="d" d="M126.07,19.38c-2.7,3.56-2.88,0-6.09-.22,3.41,9.73,3.63,8.82-3.05,1.1-3.42-5.53-3.65-1.4-.42,6.34-8.06-.74-19.94,12.82-19.44,16.45-7.25.69-3.85,16.75-14.2,22.5,3.45-3.57,1.21,5.13-.51,4.65-4.97-8.33.41,3.59-3.4,4.43-2.21,4.3-11.25,1.15-9.8,4.26-9.86,8.11-19.34-19.82-22.29-23.82-2.89-4.18-22.7-25.33-21.06-14.76,1.28,5.4,2.13,8.33.24,12.33,4.98-4.01,1.41,28.84-.45,32.33-.02.51-.96.88-1.23,1.35,6.54,5.15-2.49,2.3-1.21,6.84,2.1,1.81,14.43-1.05,9.44,2.4-7.98-2.24-18.01,2.38-7.56,2.03-.85,4.11-6.12.26-5.99,3.77,2.11.18,7.65,1.23,3.13,1.83,1.57,3.86-1.48.4-2.16,3.68,3.17,3.54,8.3,14.6,7.38,3.9,1.6-2.03.42,2.54,2.49,2.63,5.82-2.45,4.16,2.76-.79,1.05-.09,4.95,2.4,17-4.58,9.76.51,2.94-.16,7.04,3.72,4.13.04.62-.78.54-.86.88,7.13,4.79-12.29.72-3.27,4.14,7.96,17.56,9.67,46.38,4.9,68.03-1.67,3.49,4.97,17.75-.02,10.68-5.41,4.65,5.56,4.12,1.61,9.25-3.43.87-.64-.95-1.29-2.36-2.58-2.6-2.59,5.87,1.44,4.43-5.81,1.29-10.54,18.22-2.94,8.48,4.8.26-7.55,19.57-6.65,9.28-14.1,2.04-17.7-.12-16.5-15.64,2.08-2.87,4.67.44,1.99,2.15,10.95,7.33-.6-17.99,6.57-19.5.49-1.62-.87-2.86-2.81-3.15,4.82-13.72-5.65,1.46-3.87-14.31-.65-6.13.28-5.78,1.99-12.48,6.63,1.75.57-20.27,3.16-24.61,1.79-5.06,8.6-4.05,8.32-10.07-5.42.24,2.78-3.27.2-6.59-4.87,6.05-7.99-2.36-5.53,8.07-15.8-18.87-1.85-77.63-8.08-107.13-10.45-63.28,32.1-2.67,56.57,4.85,3.2,4.93,4.35,15.2,10.93,16.26,2.46-3.48-7.34-17.73,3.46-13.85,18.04-13.5,25.82-54.44,48.51-25.76ZM71.26,64.78c2.16-10.99-11.8,4-3.56,5.24,3.16-.83.2-6.84,3.56-5.24ZM26.04,54.44c.65,0,.65-1,0-1-.65-.01-.65,1.01,0,1ZM24.96,227.54c-1.85-5.57,2.96-5.75-4.32-5.5.04,4.92-.91,10.96,4.32,5.5ZM14.45,235.26c-.58-2.07,2.41-5.4-1.45-4.2-1.04.2-1.24,6.22,1.45,4.2Z"/><path class="d" d="M125.52,25.65c.3,0,.29.45,0,.45-.29,0-.3-.45,0-.45Z"/><path class="d" d="M122.66,71.81c1.13-.77,1.1,2.83.42,3.32-1.11-.24-.52-2.43-.42-3.32Z"/><path class="d" d="M123.1,76.07c.23,12.53-1.24,25.34-5.02,38.92,1.04-14.39-2.67-32.4,5.02-38.92ZM119.88,98.66c.7-.36.34-1.05-.33-.62-.38.47.13,1.01.33.62Z"/><path class="d" d="M122.52,67.82c.43.38.74.98.07,1.45-.02-.46-.58-1.15-.07-1.45Z"/><path class="d" d="M122.69,206.8c.05,6.92-3.1,8.5-4.89,13.98,2.27,1.06-1.48,13.07-3.66,12.84,2.2-8.63-2.44-50.98,7.29-30.79-4.15,1.15-1.3-.06,1.27,3.97ZM117.66,223.47c0-.29-.45-.3-.45,0,0,.3.45.29.45,0Z"/><path class="d" d="M122.6,70.05c.41-.08.22.38.02.54l-.02-.54Z"/><path class="d" d="M121.75,64.19c1.3-.35.76,1.38.71,2-1.03.08-.78-1.3-.71-2Z"/><path class="d" d="M122.58,62.73c.24.57-.38.67-.84.72-.13-.77.15-1.44.84-.72Z"/><path class="d" d="M122.58,60.95c.21.54-.38.68-.83.72-.11-.75.09-1.46.83-.72Z"/><path class="d" d="M121.59,37.17c2.03.32.48,1.42-.74,1.12-.67-2.22-.34-4.89.74-1.12Z"/><path class="d" d="M121.75,44.89c1.85-2.03-.04,10.64-.04,11.32-2.5-6.29.06-4.56.04-11.32Z"/><path class="d" d="M120.86,39.49c.79-.99,1.9,4.23.87,4.65-.8-1.37-.86-3.1-.87-4.65Z"/><path class="d" d="M120.52,188.58c.91,1.17.12,1.66-.99,1.67-1.23.02-.16-3.27.99-1.67Z"/><path class="d" d="M120.8,226.46c.5,0,.49.78,0,.77-.5.01-.51-.79,0-.77Z"/><path class="d" d="M120.87,194.36c2.34,5.75-6.64-2.55-6.71,1.98-1.28-1.63-.24-6.59-.62-8.63,3.29,5.17-2.36,5.22,7.33,6.65Z"/><path class="d" d="M120.33,98.16c.04.14-.36.36-.45.5-.95.57-.21-1.55.45-.5Z"/><path class="d" d="M117.97,119.84c.18.4.03,1.53-.7,1.1-.04-.38,0-1.43.7-1.1Z"/><path class="d" d="M117.06,122.54c1.34.47,0,2.72-.3,1.01.06-.27-.27-1.2.3-1.01Z"/><path class="d" d="M117.43,223.25c.3,0,.3.46,0,.46-.28,0-.28-.46,0-.46Z"/><path class="d" d="M116.04,188.33c.73.4,1.56-.05,2.21,1.25-1.61,1.25-3.36.85-2.21-1.25Z"/><path class="d" d="M116.8,125.71c1.02.76.04,1.67-.07,2.42-.67-.53-.69-1.95.07-2.42Z"/><path class="d" d="M115.03,141.42c2.48.57-.8,4.42,0-.01h0Z"/><path class="d" d="M114.99,146.37c.69.45.3,1.43-.43,1.06,0-.36-.02-1.02.43-1.06Z"/><path class="d" d="M114.55,148.62c.59.54.56,1.45-.13,1.89-.67-.11-.48-1.87.13-1.89Z"/><path class="d" d="M114.74,156.33c.2.14.34.28.16.58-.88,1.21-1.22-1.39-.16-.58Z"/><path class="d" d="M114.39,158.13c.51-1.38.88,4.67.04,4.05-.71-1.14-.54-2.83-.04-4.05Z"/><path class="d" d="M114.03,166.13c.36.31.4.76,0,1.07-.56.18-.53-1.29,0-1.07Z"/><path class="d" d="M113.95,171.56c1.13.35.61,2.66-.34,2.73-.16-.94.01-1.91.34-2.73Z"/><path class="d" d="M87.29,62.36c5.63-13.92,7.27-21.49,17.79-30.11-13.7,13.78-16.01,56.11-39.31,49.17,3.64-5.85,17.15-2.3,14.44-13.92,3.75,4.21,3.43,2.51,4.56-3.07-4.47,2.17.02-2.21,2.52-2.07Z"/><path class="d" d="M85.48,22.07c3.58,2.43-5.05,5.37-1.2,10.75-3.14-1.32-4.95-.18-2.12-3.23-1.35-2.08-6.63,4.96-6.17,6.46,1.52,4.04,1.91-1.33,3.29-2.26,2.63,4.1-4.7,9.78-8.84,9.25-15.74,9.08,10.28-16.98,15.04-20.97Z"/><path class="d" d="M69.74,59.5c1.06,1.87,3.95,6.08-.39,4.95.4,1.36.28,5.2-1.65,5.57-7.42-3.32,1.47-6.42,2.04-10.52Z"/><path class="d" d="M65.37,81.45c-12.71,4.42-23.82-27.26-32.4-35.51-3.4-2.05.75,5.68-4.63,3.61-10.47-38.34,29.05,26.11,37.03,31.9Z"/><path class="d" d="M57.11,38.31c-11.57,1.75-19.79-15.14-28.28-22.11C-10.52-6.43,11.64,39.4,6.45,64.08,8.88,114.83,2.07,26.09,0,5.91,17.94-15.77,45.9,28.47,57.11,38.31Z"/><path class="d" d="M35.4,94.4c-1.48,9.73,1.82,25.82-8.05,16.35.95,10.69-4.24-.37-7.38-3.9,9.03-8.89-7.23-2.03,5.02-9.28-12.27-1.48,5.47-2.47,10.41-3.17ZM29.37,100.44c2.5-2.07-1.6-3.96-2-1.37.19,1.17,2.47,1.58,2,1.37Z"/><path class="d" d="M35.39,93.96c-2.78-.02-20.31,1.22-8.2-5.11-7-3.31,2.6-5.74-.2-11.58,2.98-6.74-.88-18.88,1.63-25.12-1.07-1.29-4.31,1.91-2.37-1.8,12.78-3.36,5.84,35.01,9.14,43.61Z"/><path class="d" d="M30.57,217c-3.05-.31-4.23-2.65-1.64-4.93,1.75,4.73,3.4,1.15.99-1.62-4.39-8.95,3.59-14.48,1.07-18.58.67-5.03-2.38-43,2.2-31.13.38,26.08,5.89,58.06-7.58,80.97-3.85,6.19,2.33-6.61,3.73-8.18-2.85-6.62-4,9.63-6.44-2.5,4.2-1.57,3.71-6.07,7.79-7.6-3.53.31-3.27-2.2-2.97-4.82.88-1.58,3.06,2.06.67,2.17,2.76,3.32,3.46-3.09,2.19-3.78ZM29.93,231.02c3.49-1.86.65-5.79-2.37-3.73,1.08,1.23,1.77,2.12,2.37,3.73Z"/><path class="d" d="M34.52,113.76c-3.14,13.8-2.76,30.9-3.77,43.56-1.49-7.57.9-14.22-6.07-17.59-.5-2.26,1.37-7.25-2.72-6.88-1.5-3.35,6.08.88,6.92-1.97-2.28-4.97-3.89,2.96-4.43-6.69,10.21,8.45-.77-12.33,10.07-10.43ZM29.03,140.84c0-.36-.57-.37-.57,0,0,.38.57.37.57,0Z"/><path class="d" d="M31.01,227.28c1.09,1.05.45,3.01-1.09,3.73-1.62-2.65-3.26-5.56,1.09-3.73Z"/><path class="d" d="M30.01,98.26c1.23,4.09-5.38.77-1.37-.37.71-.21.94-.09,1.37.37Z"/><path class="d" d="M29.37,100.44c.24.07.31.1.04.16-.13.03-.13-.03-.04-.16Z"/><path class="d" d="M28.73,140.55c.38,0,.37.57,0,.57-.36,0-.37-.57,0-.57Z"/><path class="d" d="M26.5,245.92c-4.68,3.05-19.99-6.34-5.39-4.78-.8,4.02,3.17,3.55,5.39,4.78Z"/><path class="d" d="M26.04,53.44c.65,0,.65,1.01,0,1-.65,0-.65-1.01,0-1Z"/><path class="d" d="M24.23,224.99c2.44,3.08-1.32,5.6-4.19,3.99.1-3.4,1.8-2.59.61-6.95,4.06.53,4.98-1.58,3.58,2.96Z"/><path class="d" d="M20.15,136.98c1.92,3.51-2.34,4.35-2.06,6.47,6.38,2.71-5.49,6.31-6.46,10.19-2.65,4.39,3.53,26.27-3.16,24.61-6.4,50.67-1.71-72.6-1.17-91.81,5.41,12.18-5.94,53.96,6.47,59.23,2.77-.7-4.04-9.58,3.85-5.57,1.55-.37.47-4.09,2.53-3.12Z"/><path class="d" d="M15.28,231.37c-.58,1.25-1.12,2.33-.84,3.9-3.78,1.95-2.3-7.19.84-3.9Z"/><path class="d" d="M10.35,205.02c5.5,1.1-1.17,7.26.41,11.51-.81,1.22,2.92,14.45-.67,11.47-4.34,7.53-6.66-24.37-4.26-30.23,1.65,4.65,8.87-6.12,4.52,7.25ZM6.47,201.26c.45,1.52,1.96.41,3.75.83-.73-1.65-2.81-1.88-3.75-.83ZM9.03,212.74c-3.26-.96-3.35,7.11-.45,5.87,1.25-1.09-.63-3.38.45-5.87ZM6.77,206.31c1.19-.39.06-1.98-.8-1.28-.71,1.01.45,1.4.8,1.28Z"/><path class="d" d="M12.69,242.17c1.78.74-1.68,1.46-1.11.02.28-.04.77-.08,1.11-.02Z"/><path class="d" d="M10.21,202.09c-1.78-.41-3.3.69-3.75-.83.93-1.05,3.02-.83,3.75.83Z"/><path class="d" d="M6.85,213.87c2.46-4.07,2.45,4.17,1.73,4.73-2.49,1.12-2.02-3.33-1.73-4.73Z"/><path class="d" d="M7.29,205.46c.21,1.29-2.23,1.1-1.32-.43.31-.46,1.31.11,1.32.43Z"/><path class="d" d="M5.31,237.55c.3.36.74.86.6,1.41-.83-.08-1.82-1.39-.6-1.41Z"/><path class="d" d="M4.43,228.58c.69.37.49,1.44-.31,1.06,0-.35-.11-.99.31-1.06Z"/></g></svg>