<?xml version="1.0" encoding="UTF-8"?><svg id="a" xmlns="http://www.w3.org/2000/svg" xmlns:xlink="http://www.w3.org/1999/xlink" viewBox="0 0 748.21 800"><defs><style>.d{fill:none;}.e{fill:#ffdf44;}.f{fill:#49a258;}.g{fill:#c54b4f;}.h{fill:#5c97c4;}.i{fill:#e36b2e;}.j{clip-path:url(#c);}.k{clip-path:url(#b);}</style><clipPath id="b"><rect class="d" width="748.21" height="800"/></clipPath><clipPath id="c"><rect class="d" y="0" width="748.21" height="800"/></clipPath></defs><g class="k"><g class="j"><path class="i" d="M261.82,230.97c.15,0,.3.04.44.04.13.2.29.37.47.53,2.48,2.04,4.57,4.3,7.76,5.63.21.09,4.31,2.69,5.57,1.94-.39.2-.77.54-1.23.94.67,1.78,1.94,3.13,2.85,4.78,2.87,5.21,3.9,10.87,4.74,16.77.98,6.87.74,13.63-.73,20.52-2.11,9.94-3.96,19.55-5.4,29.67-.92,6.47-2.61,12.54-2.92,19.11-.12,2.55-.47,5.04-.34,7.58l.32,6.22c.84,16.63,6.47,22.3,5.27,34.19-.68,6.68-2.03,13.1-3.97,19.48-.59,1.93-1.77,3.72-1.4,5.66-.78-.17-.71.98-1.01,1.69-2.33,5.6-6.54,10.36-11.81,13.41-2.69,1.56-5.58,2.37-8.35,3.17-.93-1.16-2.41.92-7.59-.36-1.71-.42-3.55-.05-5.23-.51l-4.57-1.26c-1.45-.4-2.39-2-3.88-1.79-.12.02-.29,0-.41-.04-.79-1.61-2.68-2.34-4.23-3.43-1.13-.8-1.52-2.2-2.6-3.15-1.28-1.12-1.76-3.03-2.81-4.4-6.34-8.25-9.61-18.83-9.61-29.37,0-1.31-.3-2.35-.12-3.69.53-3.91,1.2-7.6,3.42-10.95,1.42-2.14,2.21-4.7,3.56-6.98,2.23-3.77,3.08-12.02,3.28-16.55.11-2.52.51-4.94.82-7.51.41-3.45,2.61-7.07,1.82-10.64-1.08-4.84-2.55-9.54-4.42-14.07-1.77-4.29-4.5-8.2-4.57-13.1-.22-14.06-.91-16.49,2.16-30.51,1.81-8.26,6.09-15.47,12.36-20.93l5.69-4.96c2.79-2.43.34-5.39,7.13-6.22,1.86-.23,3.52-.82,5.38-.83l14.2-.09Z"/><path class="f" d="M320.8,705.43c.02.71.26,1.41.88,1.8.03.28.04.56.09.84.37,2.11.05,4.22-.63,6.43l-2.8,9.17c-1.7,5.57,3.95,12.74,7.4,15.36,2.94,2.23,3.05,5.31,3.16,8.56.42,12.27-3.57,21.64-12.31,29.98-12,11.45-32.67,17.19-48.84,18.67l-25.46,2.32c-15.82,1.44-21.31-6.26-40.76-7.2l-25.37-1.22c-9.6-.46-18.79-1.12-28.4-.23-15,1.4-22.65-2.74-36.83-3.62-8.54-.53-16.4,1.44-24.62,3.23-9.16,2-18.39,2-27.73,1.96-3.56-.01-6.73-.99-10.22-1.25-8-.6-12.22,1.04-20.57-.29-9.94-1.58-19.2-6.51-24.87-14.99-2.37-3.55-2.06-8.22-1.63-12.2-.25-4.92,2.19-8.83,6.56-10.9,3.74-1.78,7.9-2.17,12.14-1.64,12.47,1.54,11.23-1.07,25.46,2.45,4.42,1.09,9.29,2.03,13.76.81,25.06-6.86,36.88,1.64,52.11-.27,23.35-2.93,30.24,4.25,56.33,1.4,9.03-.99,17.54-2.21,26.52-.62,2.19.39,4.35.84,6.41.77.95.41,2.01.44,3.04.41l.98-.03c.24.04.52-.04.76-.02,5.67.4,9.56-2.17,17.33.99,7.94,3.23,22.32,2.48,30.57.64,7.33-1.64,13.86-5.03,20.05-9.09,5.35-3.51,8.68-15.73,9.59-21.83.65-4.33.52-8.75-.26-12.77-.05-.26,0-.56-.02-.82l-.36-4.1c1.15.25,2.74-3.5,3.81-3.43,2.66.18,3.55,2.07,3.41,4.32-.33,5.43.26,11.24-.09,16.46-.56,8.3-3.18,16.46-7.75,23.14-2.46,3.6-5.07,5.62-8.65,7.66-8.21,4.67-16.89,7.52-26.49,8.04-4.58.25-9.16.34-13.76.02l-16.22-1.13c-15.77-1.1-24.91-4.44-41.29-2.66-13.31,1.44-26.24.99-39.46-.84-9.24-1.27-14.74-.77-23.75,1.09-6.81,1.4-13.12-.13-19.74-1.91-8.68-2.32-17.82-1.95-26.56-.14-3.69.76-6.95,2.11-10.73,2.17-7.56.11-14.63-3.28-21.77-3.77-5.03-.35-9.94-.08-15.05-.16-2.72-.04-5.2,1.03-7.57,2.24-1.63.83-1.46,2.78-1.78,4.37-.89,4.41.33,8.41,3.67,11.67,12.2,11.87,27.95,6.31,34.99,7.4l10.64,1.65c11.08,1.71,33.69-2.85,45.11-4.55,11.59-1.73,23.69,3.25,36.09,3.98,7.94.47,15.64.81,23.55.08l17.27-1.6c4.63-.43,9.11-.36,13.64.06,9.36.85,15.02,4.12,20.56,4.6,4.22.36,8.01,1.17,12.07,2.25,18.71,5,24.65-1.23,32.73.19,5.65.99,17.92-.73,23.84-2.06,9.66-2.17,19.15-5.67,26.75-12.03,5.49-4.59,9.64-10.5,11-17.35,1.09-5.51.78-11.29-2.47-15.77-3.22-4.44-6.55-8.61-7.55-14.21-.44-2.45.4-5.09,1.09-7.5,1.41-4.94,2.42-9.74,3.32-14.79,2.12-.31,3.93-.32,5.68-.15"/><path class="f" d="M414.96,695.61c-.03,7.04-.83,14.08-.29,21.37.42,5.6.29,10.83-.57,16.41-.95,6.13-.52,14.48,5.96,17.43,6.51,2.96,13.03,5.55,20.01,7.45,6.65,1.81,13.38,1.26,20.13.46,15.13-1.8,19.27,2.09,32.42,1.73.55-.01,1.11-.03,1.66,0,2.91.12,5.8-.11,8.96-.53l30.55-4.02c6.56-.86,68.57.06,74.12.54l15.56,1.37c10.35.91,6.96-4.83,28.45-4.9h1.79c.41,0,.83.23,1.22-.04.67.16,1.54-.03,2.23-.02,11.72.11,16.16-4.47,30.65-.51,3.9,1.06,8.17,1.89,10.44,5.68,2.32,3.87,1.42,8.96-.92,12.75-1.85,2.97-4.03,5.31-6.4,7.9-14.5,15.86-34.53,18.52-55.03,18.66-7.31.05-14.23-.52-21.34-2.22-6.07-1.45-12.05-2.08-18.25-1.5l-19.87,1.86c-14.1,1.32-20.71-2.02-35.51-2.09-9.61-.04-18.77-.69-28.37-1.24-8.04-.46-15.82-1.04-23.79-.26l-21.04,2.07c-8.28.82-16.08,1.52-24.41.92-6.42-.46-12.64-.2-19.08-.05-9.52.23-18.33-1.86-27.21-4.89-6.03-2.05-11.76-4.09-16.8-8.1-2.01-1.6-3.49-3.58-5.22-5.45-3.97-4.28-6.35-9.49-6.22-15.5l.37-16.48c.36-15.98,1.86-31.5,4.9-46.93,1.33-.34,3.65-1.53,4.96-.53,1.15.87.35,3.3.19,4.56l-2.75,20.75c-.17,1.31-.32,2.78-.38,4.02l-.53,10.63-.22,21.81c-.05,5.15,1.86,10.12,5.37,13.74,8.13,8.41,10.86,8.1,20.77,12,6.94,2.73,13.99,3.82,21.49,3.83l21.27.03c9,.01,17.45-.14,26.31-1.04,7.33-.75,14.31-1.21,21.63-2.46,5.29-.91,10.59-1.95,15.96-1.34l21.41,2.42,10.54,1,7.08.38,5.37.45c5.68.48,15.79,1.64,21.12.87l11.25-1.64c6.8-.99,13.51-1.55,20.3-.31l15,2.72c11.49,2.09,28.77,1.39,40.21-1,6.18-1.29,11.78-3.61,17.15-6.74,5.71-3.33,10.27-7.86,13.06-13.94.91-1.99,1.33-5.64-.82-6.87-3.52-2.01-7.72-2.84-11.73-3.37-8.24-1.08-11.75,2.6-23.64,1.48-8.87-.84-17.49,2.27-24.54,7.44-2.94,2.16-6.82,2.01-9.59.02-3.56-2.56-7.47-3.53-11.8-3.91-1.56-.14-2.95.07-4.55.08l-17.69.13-5.35-.4c-8.99-.68-17.67-.31-26.62-1.73-4.33-.69-8.56-.72-12.87,0l-28.47,4.83c-9.1,1.54-24.01,2.01-33.01.19-7.57-1.54-15.2-1.13-22.86-.32-3.95.42-7.97.22-11.96.04-5.59-.25-10.89-1.74-16.15-3.11-3.81-.99-6.73-3.03-10.21-4.57-6.42-2.86-10.97-7.98-11.55-15.38-.13-1.66-.57-3.45-.33-5.31.99-7.74,1.31-15.36.68-23.12-.36-4.53-.41-14.03.66-18.51,2.18-1.35,5.2-1.46,6.78.32"/><path class="f" d="M534.41,65.22l-.08.83c-.95,1.58-1.13,3.58-2.3,5.26-2.63,3.81-6.45,6.51-10.62,8.53-4.29,3-8.51,5.77-13.19,8.15-.73.37-1.69.32-1.9,1.09-.11-.04-.28.07-.4.06-.35-.06-.91-.13-.93.35-.14-.01-.29.07-.43.04-2.2-.42-4.6,1.5-6.64,1.41-2.71-.12-5.84.34-8.5,0-10.89-3.21-14.78-8.38-18.99-18.84-1.49-3.71-3.61-6.98-4.57-10.92-2.15-8.87-2.36-27.06,6.61-33.02l7.48-4.97c9.3-6.18,8.57-3.62,19.58-7.89,4.48-1.74,9-.09,12.73,2.54,3.59,2.53,14.18,3.33,20.76,11.73,2.9,3.7,2.52,8.61,5.15,14.01,3.55,7.31-3.1,14.2-3.77,21.64"/><path class="e" d="M244.02,57.04c-.84.87-1.57.81-2.55.74-1.79-.12-7.29,4.28-6.68,7.67-7.28,4.56-12.18,7.3-20.89,6.82-3.33-.18-6.29-.24-9.27-1.94-2.33-1.33-5.3-1.52-7.61-3.05-3.93-2.6-7.48-5.73-10.61-9.18-3.74-4.13-4.77-9.25-4.46-14.75.39-6.87,4.03-12.46,7.82-17.9,4.71-6.76,10.42-11.78,18.36-14.51,7.17-2.46,12.7-7.7,18.23-8.19,10.39-.91,8.99.36,17.86,3.74,3.15,1.2,4.88,4.08,6.18,7.02,2.34,5.28,4.45,10.66,4.7,16.55.14,3.33-1.54,6.3-2.73,9.22-3.1,7.65-1.64,10.16-6.66,15.87-.62.71-1.56,1-1.69,1.88"/><path class="i" d="M511.61,417.36l1.32.1c.14.01.36.01.49.03l4.27.69c6.38,1.03,26.22,18.02,31.8,24.35,3.05,3.47,5.62,7.12,7.3,11.35l5.91,14.9c6.46,16.28,3.2,16.11,6.35,30.98,2.14,10.08,2.81,20.04,2.34,30.39l-.32,7.11c-.46,10.12-1.16,19.97-4.09,29.67l-2.69,8.89c-1.56,5.15-3.09,10.15-4.7,15.25l-3.39,10.74-4.73,14.45c-1.33,4.07-3.78,7.61-4.91,11.71-.27.96-.63,1.19-1.17,2.13-4.21,7.3-6.07,19.13-13.05,31.32-2.75,4.8-5.16,9.66-6.71,14.97-.39,1.34-.79,2.33-1.32,3.59l-3.45,8.2c-3.48,8.28-17.32,12.09-25.86,12.44-7.33.3-14.52-.27-21.96-.82l-21.31-1.57c-2.61-.19-5.34-.93-8.01-.86-.43.01-.87-.13-1.3-.06.01-.45-.68-.44-.46.06-.12,0-.26.05-.37.02-2.38-.56-5.24-1.23-7.56-.38-.09.02-.21-.06-.31-.07-.16-.1-.36-.13-.54-.09.03-.46-.95-.44-1.4-.32h-.89c-.13-.04-.33.06-.44,0-1.24-.65-2.66-.33-4.02-.41-.88-.05-1.77-.33-2.64-.05l-.87-.3c-.11-.04-.25.04-.36.03-1.06-.14-2.14-.13-3.21-.11-.29,0-.58.11-.86.1l-3.53-.16c-1.58-1.78-4.6-1.67-6.78-.32-1.06,4.48-1.02,13.98-.65,18.51.62,7.77.31,15.38-.68,23.12-.24,1.86.2,3.66.33,5.31.58,7.4,5.13,12.52,11.55,15.38,3.47,1.55,6.4,3.58,10.21,4.57,5.27,1.37,10.56,2.86,16.15,3.11,3.99.18,8.02.38,11.96-.04,7.66-.81,15.29-1.22,22.86.32,9,1.83,23.91,1.36,33.01-.19l28.47-4.83c4.31-.73,8.54-.7,12.87,0,8.95,1.42,17.63,1.05,26.62,1.73l5.35.4,17.69-.13c1.6-.01,2.99-.22,4.55-.08,4.33.38,8.24,1.36,11.8,3.91,2.77,1.99,6.66,2.14,9.59-.02,7.05-5.17,15.67-8.28,24.54-7.44,11.89,1.12,15.4-2.57,23.64-1.48,4.01.53,8.21,1.36,11.73,3.37,2.16,1.23,1.73,4.89.82,6.87-2.78,6.07-7.34,10.61-13.06,13.94-5.37,3.13-10.97,5.45-17.15,6.74-11.44,2.39-28.72,3.08-40.21,1l-15-2.72c-6.8-1.23-13.5-.67-20.3.31l-11.25,1.64c-5.33.77-15.44-.39-21.12-.87l-5.37-.45-7.08-.38-10.54-1-21.41-2.42c-5.37-.61-10.67.43-15.96,1.34-7.32,1.25-14.31,1.72-21.63,2.46-8.86.9-17.32,1.05-26.31,1.04l-21.27-.03c-7.51,0-14.56-1.11-21.49-3.83-9.91-3.89-12.64-3.59-20.77-12-3.5-3.63-5.42-8.59-5.37-13.74l.22-21.81.53-10.63c.06-1.25.21-2.71.38-4.02l2.75-20.75c.17-1.27.96-3.69-.18-4.56-1.31-.99-3.63.19-4.96.53-1.57.4-3.3.11-4.78.85-.24.12-.68-.09-.95-.04-.44.08-1.11-.17-1.33.34-4.76.28-9.46,1.63-14.17,2.3-9.09,1.29-18.37,1.74-27.53,3.59l-4.49.9c-1.75-.18-3.56-.17-5.68.15-.91,5.06-1.92,9.86-3.32,14.79-.69,2.41-1.52,5.04-1.09,7.5,1,5.61,4.33,9.78,7.55,14.21,3.26,4.49,3.57,10.26,2.47,15.77-1.36,6.85-5.51,12.76-11,17.34-7.6,6.35-17.09,9.85-26.75,12.03-5.91,1.33-18.18,3.05-23.84,2.06-8.07-1.42-14.01,4.81-32.73-.19-4.07-1.09-7.85-1.89-12.07-2.25-5.54-.48-11.2-3.74-20.56-4.6-4.54-.41-9.01-.49-13.64-.06l-17.27,1.6c-7.91.73-15.61.39-23.55-.08-12.4-.73-24.5-5.71-36.09-3.98-11.42,1.7-34.03,6.27-45.11,4.55l-10.64-1.65c-7.03-1.09-22.79,4.47-34.99-7.4-3.35-3.26-4.56-7.25-3.67-11.67.32-1.59.15-3.54,1.78-4.37,2.37-1.2,4.85-2.28,7.56-2.24,5.11.08,10.02-.19,15.05.16,7.14.5,14.22,3.88,21.77,3.77,3.79-.05,7.05-1.4,10.74-2.17,8.74-1.81,17.89-2.18,26.56.14,6.61,1.77,12.92,3.31,19.73,1.91,9-1.86,14.51-2.37,23.75-1.09,13.22,1.83,26.15,2.28,39.46.84,16.37-1.77,25.51,1.56,41.28,2.67l16.22,1.13c4.6.32,9.18.23,13.76-.02,9.6-.52,18.28-3.37,26.49-8.04,3.58-2.04,6.19-4.06,8.65-7.66,4.57-6.68,7.19-14.84,7.75-23.14.35-5.22-.24-11.03.09-16.46.14-2.24-.76-4.13-3.41-4.32-1.07-.07-2.66,3.68-3.81,3.43l-1.83-.4-14.69-.46c-.25,0-.53.04-.78,0-.61-.1-1.22-.15-1.83-.1-.11,0-.34.04-.43-.01-1.2-.8-2.67-.17-4-.42-.74-.14-1.49-.21-2.23-.09-1.97-.71-4.15-.28-6.23-.27h-.82c-.21,0-.49.01-.48.28-3.01-.1-5.85,1.12-8.83,1.43-2.87.3-5.82.61-8.93.34-7-.6-13.72-1.62-20.39-2.88l-.82-.16c-.19-.57-1-.3-1.47-.33-.24-.01-.49,0-.73,0-.39-.42-.96-.43-1.5-.47-.2-.01-.58.04-.74-.07-1.37-.88-3.01-.16-4.52-.46-.27-.05-.63.05-.89-.05-1.09-.44-2.44-.49-3.5.06-.11,0-.26-.1-.37-.06-7.94-5.14-8.99-11.95-13.4-17.6-1.12-1.44-1.93-3.32-2.93-5.02l-3.96-6.75-2.23-4.41c-.69-1.36-1.21-2.53-1.56-3.8-1.43-5.23-3.92-10.06-6.93-14.79l-8.67-13.62c-1.39-2.18-3.18-3.95-4.32-6.31-.34-.69-.59-1.4-1.36-1.23l.14-.93c.33-.16.22-.62-.17-.43-.05-.12-.03-.26-.05-.38-1.47-9.23,1.46-17.45-.27-28.01-1.11-6.74-2.11-13.26-2.62-20.08l-.52-6.94-.4-5.85c-.4-5.92-.36-11.73-.08-17.68l.41-8.49,1.54-14.13c.5-4.63-.79-9.7,0-14.63.23-1.44,1.01-2.86,1.42-4.29,1.59-5.51,6.47-13.21,8.31-18.24,2.12-5.79,3.93-5.08,6.15-9.81,5.52-6.08,11.39-11.52,17.13-17.39l3.08-3.15c1.04-1.06,2.63-1.49,3.17-3.12,2.38-1.05,3.68-3.41,5.64-4.99l3.16-2.55c4.97-4,9.41-8.71,15.31-12.7,6.28-4.24,12.59-11.38,20.61-15.27.54-.26.67-1,.45-1.39-.24-.45-2.45-.92-2.56-1.62,1.5-.21,2.44,1.39,3.88,1.79l4.57,1.26c1.68.46,3.53.09,5.23.51,5.18,1.28,6.66-.8,7.59.36-.37.11-1.08.15-1.33.48l-5.34-.03c-1.51,0-3.73-1.26-5.15-.39-2.28,1.41-4.22,3.02-6.66,4.18-7.88,3.76-14.35,9.07-20.51,14.93-.07-1.75,8.8-8.77,9.96-9.49l14.33-8.9c-2.23-3.86-8.27,1.84-11.34,3.76-3.39,2.11-5.99,4.92-9.02,7.47-2.36,1.99-4.81,3.72-7.23,5.66l-5.92,4.73c-1.99,1.59-3.91,3.12-5.8,4.84l-9.35,8.49c-2.87,2.61-10.13,10.25-11.9,11.52-2.43,1.74-5.18,5.84-7.12,6.99-.15.21.15.86.13,1.08-.03.35-1.22.23-1.34.49-.77,1.71-2.2,2.83-3.4,4.15-1.03,1.14-1.37,2.56-2.67,3.55-1.27.95-1.45,3.09-2.4,4.22-1.88,2.24-1.89,5.01-2.94,7.36-.59,1.31-2.18,2.16-2.39,3.87-.1.82-1.1,2.39-1.54,3.18-1.67,2.97-2.26,5.89-2.93,9.07-.5,2.38.08,4.15.11,6.49l.06,4.17c.02,1.54-.05,2.34-.43,3.66-1.28,4.46-1.24,9.09-1.57,13.69-.18,2.62-.67,5.11-.64,7.76l.21,20.35.43,5.36.39,5.8,3.1,23.83c.3,2.28.35,4.32.08,6.56-.5,4.16-.4,8.41-.66,12.58-.2,3.08.87,5.16,2.39,7.47l2.97,4.49c.83,1.26,2.27,2.74,2.63,3.9.99,3.16,3.05,5.49,5.19,7.95.36.41,2.85,6.1,4.1,7.47,1.9,2.1,5.3,11.71,6.39,14.92-.02-.07,4.45,7.97,3.89,7.26l2.04,2.63c1.29,1.66,2.42,3.8,3.47,5.76l3.98,7.35c7.16,13.22,12.66,9.1,16.22,9.95,8.72,2.07,25.72,5.5,34.24,4.29,4.67-.66,9.07-1.94,13.79-1.87,8.09.13,13.01,1.09,20.9,1.22,2.87.05,5.72-.56,8.62.24,1.39-.76,2.2-2.2,3.65-2.72,1.13-.41,3.88.76,4.04,2.07.55,4.48.68,14.03.58,18.79-.03,1.27-.56,2.25-.37,3.72.24,1.89-.68,4.27-1.2,6.06l-1.17,4.05-3.06,6.71c-2.98,6.55-6.93,9.75-12.87,12.69-3.54,1.75-11.43,5.43-15,5.96-19.34,2.87-42.42.33-61.78-2.26-6.45-.86-12.39-.71-18.75-.05-12.69,1.3-25,1.19-37.63-.46-2.38-.31-4.61-.71-6.87-.76l-4.27-.1c-11.73-.27-17.96,4.1-32.1.45-4.83-1.25-9.85-2.59-14.77-2.33-1.51.08-2.58.56-4.3-.08-.93-.35-3.05.12-4.13.32l-5.23,1c-3.82.73-7.41,2.15-11.36,2.25-11.65.3-16.76-5.32-37.56-3.67-2.27.18-5.51.4-6.92,2.32-1.74,2.38-1.27,5.81-.85,8.58.39,2.58,2.13,4.36,4.02,5.95,6.91,5.83,15.87,7.75,24.89,6.53,10.29-1.39,12.39,1.61,23.97,1.41,3.97-.07,7.73.05,11.67-.29l7.92-.69c6.15-.53,22.44-4.95,29.2-3.95,4.98.73,9.76,1.46,14.7,2.6,13.91,3.2,36.41,2.54,50.56.6,2.94-.4,5.81-.04,8.82-.25,6.83-.48,13.85.37,20.41,2.54,4.61,1.52,8.87,2.16,13.66,2.84,5.71.8,11.07,3.12,16.97,3.18,4.54.05,9.03.22,13.3-1.03.89-.26,1.25-.44,2.32-.48l4.15-.14c5.13-.17,10.26.79,15.38-.06,4.62-.77,9.35-.82,13.66-2.82.85-.4,1.33-.37,2.19-.56,3.56-.81,6.92-2.35,10.36-3.64,2.75-1.03,11.02-6.55,12.47-8.08,6.03-6.36,9.75-12.55,9.14-21.62-.69-10.16-6.37-11.46-8.58-17.34-1.83-4.89-1.82-9.5-.26-14.39,1.44-4.51,1.88-9.1,2.87-13.7.46-2.18,6.32-1.37,8.66-1.86,1.83-.38,3.52-.19,5.33-.46l11.56-1.73,23.03-3.68c5.79-.92,11.77-2.16,17.72-2.48.94,1.87.38,3.8.11,5.76l-2.71,19.89-.68,9.57c-.32,4.51-.16,8.93-.15,13.52,0,1.11.55,2.04-.17,3.12-.57.85.07,1.88-.04,2.81-1.33,11.12.64,18.45,9.27,25.41.97.78,1.58,1.63,2.71,2.23,6.08,3.18,12.4,5.19,18.96,7.2,5.79,1.78,15.14,2.65,21.27,2.07,8.44-.8,19.74.83,29.98.11,4.79-.34,9.29-1.36,14.09-1.41,11.33-.13,23.27-3.87,33.48-3.57,5.96.17,11.71.93,17.51,1.82,4.82.74,9.4.99,14.22,1.37l11.38.89,8.78.97c14.21,1.57,25.33-2.38,39.19-2.36,7.02.01,13.75,1.74,20.76,2.78,3.19.47,13.38,1.8,16.02,1.84,10,.13,19.73-1.15,29.46-3.16,1.59-.33,2.79-1.04,4.26-1.56,7.14-2.52,13.47-6.51,18.34-12.35,2.12-2.54,3.99-5.61,3.77-9.08-.19-3.02-10.49-4.65-13.33-5.2-5.05-.99-12.03,2.86-20.24,1.84-6.95-.86-13.68.5-20.07,3.51-1.95.92-3.38,2.27-5.34,3.59-2.53,1.71-7.37,2.65-10.18.73-4.3-2.93-8.2-4.33-13.41-4.37l-37.92-.29c-9.3-.07-17.19-3.26-27.84-1.59l-38.13,5.96c-4.26.67-19.16.24-23.42-.51-6.55-1.15-12.87-2.04-19.54-1.2-8.94,1.13-20.85.87-29.51-1.9l-5.79-1.86c-2.21-.71-11.35-5.86-13.21-7.47-5.1-4.43-6.61-11.38-6.06-17.77l.77-9.05v-25.62c0-3.94-1.09-6.84,2.18-8.28,2.89-1.27,5.82.39,5.8.39,3.77.8,7.71.24,11.65.48l7.96.47,5.35.41c2.18.17,4.04.31,6.04.29.7,0,1.81.47,2.86.56l23.48,2.07,7.11.39,8.22.33c9.19.37,16.38-.03,24.72-4.5,1.22-.65,2.1-1.49,3.08-2.16,2.3-1.59,3.43-3.1,4.58-5.5,2.11-4.39,3.91-8.65,5.2-13.43.11-.4,5.71-12.3,5.9-12.63,2.52-4.29,4.64-8.54,6.33-13.21l2.81-7.77c1.08-2.99,1.89-5.84,3.22-8.74l6.13-13.45c1.78-3.91,2.72-7.92,4.04-12.05l2.91-9.11,3.17-9.16c1.97-5.68,3.34-12.24,4.62-15.71.51-1.39,2.22-6.98,2.17-8.06-.07-1.46.93-2.64,1.27-3.95,2.12-8.25,1.87-16.5,2.36-24.94l.39-6.75-.13-4.8c-.22-8-.35-15.5-2.1-23.18-1.17-5.15-1.48-10.21-2.09-15.39-.18-1.57-1.03-3.02-1.08-4.64-.08-2.28-.68-4.31-1.45-6.42l-4.25-11.7c-.97-2.68-4.46-9.7-5.95-12.34-2.28-4.04-3.31-4.54-6.21-8.38-1.33-1.77-3.35-2.68-4.7-4.2-4.22-4.73-9.14-7.9-14.18-11.69-5.56-4.18-11.41-7.67-18.86-7.21-.67.04-1.62.08-2.27.81-1.38,1.54-1.59,4.21-.74,5.97,2.44,5.03,8.27,2.97,13.49,3.89.23-.33.69-.73.62-.3-.04.25-.41.55-.44.94,1.14.06,2.13.96,3.19,1.47,1.64.79,3.38.96,4.86,2.21,1.16.99,2.51,2.57,3.97,2.78,1.06.16.66.69,1.28,1.29,3.76,3.61,7.74,7.23,10.9,11.21-.73-.92,3.98,6.46,3.31,5.16,1.87,3.62,3.4,7.29,4.92,11.18,1.99,5.08,4.67,9.72,5.88,14.99.53,2.32,1.19,4.57,1.34,6.88.32,4.72.69,10.77,1.82,15.2.7,2.74,2.2,12.37,2.25,14.72l.22,11.59c.05,2.82-.42,5.35-.61,8.13l-1.35,19.57c-.07,1.02-.37,1.5-.61,2.55l-2.04,8.89c-.47,2.03-1.47,3.78-1.95,5.79-1.01,4.26-4.32,13.41-6.3,17.14-1.7,3.2-2.12,6.74-3.29,10.16-1.14,3.33-2.02,6.58-2.96,9.98-2.32,8.38-8.98,18.43-10.62,23.27l-1.49,4.39-3.8,11.25c-1.14,3.39-2.07,6.8-3.81,9.99l-4.41,8.06-6.97,9.83-2.8,5.13c-1,1.83-1.58,3.85-.83,5.84.44,1.16-.17,2.62-1.5,2.86l-7.98,1.4c-6.65,1.17-13.26.58-20.04.33l-15.52-.58-10.67-.93-23.48-2.39-15.16-1.12c-2.11-.16-4.03-.51-6.17-.3-1.39.13-2.06-1.32-4.34.39-.38.29-.7-.77-1.11-.76-3.68.07-7.29-.24-10.99.13-2.39.24-4.64.94-7.09.68-2.54-.27-4.91.56-7.3.66-1.03.04-1.85.63-2.67.75-1.6.24-3.08-.16-4.76.74-.93.5-2.3-.06-3.34.14l-15.28,2.94-16,2.59c-2.52.41-4.97.64-7.46.84-4.76.38-9.34.98-14.2,1.69-12.01,1.74-23.72,2.84-35.92,2.61-5.73-.11-11.13-.09-16.74-1.1-1.91-.34-9.05-1.32-10.72-1.09l-13.66,1.93c-5.05.71-9.98.03-15-.92-1.72-.32-3.32-.25-5.03-.71-2.78-.75-5.74-.54-8.66-.98-1.61-.24-3.19-.82-4.72-.94-2.75-.21-4.81-1.22-7.11-2.22.54-.16.89-.52.32-.49-4.96-5.28-4.25-6.62-7.35-11.76-5.33-8.84-6.81-11.22-10.45-20.93-1.57-4.19-2.81-8.21-5.56-11.86-2-2.65-3.16-5.73-4.86-8.53-1.67-2.75-7.18-11.52-8.03-13.65-2.71-6.77-3.07-13.9-3.79-21.09l-1.05-10.39-.31-4.55c-.17-2.51-.68-4.95-.77-7.4-.06-1.83.35-3.59-.26-5.45-.91-2.76-.45-5.51-.34-8.27l.22-5.81c.13-3.5-.51-6.75-.48-10.25.1-11.45,1.34-16.33,1.68-26.28.26-7.71.37-15.34,3.3-22.62.93-2.31,1.64-4.68,2.81-6.84.98-1.8,1.72-3.54,2.75-5.31l3.9-6.67c.41-.7.9-1.61,1.63-1.47-3.24,4.62-5.69,9.66-8.28,14.86-3.92,7.87-5.06,16.28-5.23,25.08-.25,12.61-2.45,21.06-1.41,35.2.67,9.1-.27,15.1.67,25.14l2.21,23.47c1.73,18.38,3.07,17.47,11.97,32.82l5.39,9.3c4.99,8.61,5.13,13.97,9.36,21.4l9.34,16.39c1.19,2.09,2.91,5.16,5.31,5.95,4.6,1.51,9.33,2.24,14.12,2.83l18.21,2.26c6.78.84,13.68-3.37,27.52-1.26,12.29,1.88,29.58,1.72,41.89.19l30.88-3.85c9.76-1.22,19.02-2.55,28.58-4.65,23.6-5.2,44.65-4.66,68.57-2.37l21.15,2.02c6.55.63,38.35,2.97,42.75,2.33l15.85-2.29c-2.75-5.01,3.17-14.11,6.03-17.53,2.09-2.49,3.64-4.93,5.26-7.75,8.8-15.35,8.6-25.14,14.57-36.37l4.01-7.55c2.42-4.56,4.29-9.1,5.42-14.19,1.2-5.39,2.82-10.53,4.53-15.71.62-1.87,1.95-3.36,2.05-5.15,0-.09.02-.26-.03-.32.92-.51,1.24-1.77,1.65-2.96,3.26-9.28,6.19-18.54,7.91-28.25,1.1-6.18.69-12.13,1.3-18.32,2.69-27.27-3.05-30.2-3.4-48.44-.1-4.98-3.47-13.62-5.56-18.39l-5.4-12.32c-4.01-9.14-16.38-21.07-25.05-25.17-9.85-4.66-10.55,0-17.06-4.59-.01-.14.04-.34-.02-.46-.89-1.62-.9-3.51-.93-5.34v-.82c.84-.81,1.29-1.93,2.19-2.69.17-.15.32-.32.45-.5.15.01.31-.02.46,0,1.16.17,2.34-.12,3.49-.03"/><path class="h" d="M722.87,73.03c-.97-.13-1.36.73-1.81.89-3.09.87-5.79,1.9-8.38,3.13-6.3.57-11.86-2.43-14.53-7.96-2.06-4.26-8.72-9.89-9.51-18.69-.35-3.87,1.32-7.51,1.64-11.27.62-7.28,5.95-9.8,11.73-13.48,6.1-8.07,10.26-9.33,19.69-6.74l11.44,3.14c4.97,1.36,7.43,5.42,10.38,9.54l2.22,3.09c8.17,11.42-5,35.2-22.86,38.34"/><path class="f" d="M721.06,73.93c1.12,2.96.87,6.24.96,9.38,0,.3-.02.61-.03.91-.01.47.1.94.06,1.41-.03.34,0,.87-.12,1.17-.61.81-.41,1.84-.33,2.81.02.24.03.51,0,.75l-.94,6.79c-.03.2-.13.57-.04.74-1.83,7.3-3.92,14.43-7.43,21.47-4.89,9.8-13.34,24.65-22.21,31.02-9.85,7.08-21.26,10-33.02,11.13-.36.03-.79-.09-1.16-.09h-4.53s-3.52.03-3.52.03c-3.8.03-7.68-.59-11.53-.92-.27-.02-.54,0-.8-.03-9.93-1.39-19.88-2.51-30.22-2.87-8.24-.29-16.28.75-23.93,3.54-5.92,2.16-11.09,5.15-16.63,8.14l-25.99,14.01c-14.9,8.03-28.72,20.04-41.18,31.42-1.71,1.56-3.14,3.09-4.21,4.83-1.12.65-1.63,2.05-2.72,2.91-1.54,1.21-2.77,2.5-4.14,3.89-.76.77-2.42.1-3.27.29-1.79-.88-3.09-.44-3.12-3.08,3.93-13.35,26.26-26.59,37.92-33.97l21.46-13.57,8.47-5.78c5.17-3.53,10.03-7.1,15.31-10.44,8.42-5.33,23.6-8.88,33.57-10.76,5.68-1.07,11.13-1.09,16.87-.46l20.43,2.23c15.77,1.72,26.91,1.41,41.92-3.68,6.48-2.2,11.87-5.72,16.41-10.83,3.91-4.41,7.31-9.13,9.88-14.56,4.88-10.3,7.89-21.1,9.71-32.34.69-4.27.02-8.29-.25-12.34,2.58-1.23,5.28-2.26,8.38-3.13"/><path class="f" d="M244.02,57.04c-.08.23-.5.95-.09,1.21l7.33,4.6,10.67,6.66c5.64,3.52,11.14,7.35,15.69,12.01,11.24,11.5,11.62,28.43,5.88,41.72-1.06.87-1.46,2.34-1.79,3.64-.15.59-.94,1.46-.85,2.09-2.52,3.93-14.15,22.27-15.08,25.35l-.52,1.73c-.67,1.24-1.66,2.61-1.76,4.03-.14.2-.31.54-.36.79-1.41,1.57-2.33,3.88-2.69,5.97-.02.11-.02.25-.02.36-1.94,2.82-2.65,6.43-3.59,9.74-.08.28.02.61-.03.89-.79.65-.4,1.86-.78,2.66-.71,1.52-.59,3.24-.96,4.84-.38,1.62-1.02,3.22-.81,4.94.05.37,0,.9-.07,1.27-1.25,6.29.53,13.25,4.51,18.25-.02.08,0,.27.03.35.48,1.05,1.07,2.35,2.24,2.76.1.15.21.29.32.43.18,1.4,7.46,9.28,9.02,9.36.12.14.24.27.37.39.18.6.72.99,1.35.98l.4.36c.22.58.74,1.01,1.38.99.1.11.32.15.4.27.71,1.26,2.14,1.99,3.54,2.22,2.08,3.88,2.36,9.09-1.69,11.21-1.26.74-5.36-1.86-5.57-1.94-3.19-1.33-5.28-3.59-7.76-5.63-.18-.14-.26-.41-.47-.53-.15,0-.3-.04-.44-.04-.19-.49-.77-.47-1.22-.49.32-.29.26-.59.1-.78-.2-.24-.63-.45-.86-.64-4.32-3.6-7.12-8.32-9.84-13.13-4.01-7.08-5.64-14.46-5.52-22.55.14-9.56,1.42-18.51,5.27-27.32,5.9-13.47,11.23-20.68,17.99-32.9l3.62-6.55c4.26-7.7,5.92-16.28,4.99-24.87-.78-7.22-4.73-12.25-10.28-16.51-9.88-7.57-20.21-14.55-31.29-19.77-.62-3.39,4.89-7.79,6.68-7.67.98.07,1.71.12,2.55-.74"/><path class="i" d="M260.6,230.48c.45.03,1.04,0,1.22.49l-14.2.09c-1.86.01-3.52.6-5.38.83-6.79.83-4.34,3.79-7.13,6.22l-5.69,4.96c-6.27,5.46-10.55,12.67-12.36,20.93-3.07,14.03-2.38,16.45-2.16,30.51.08,4.9,2.8,8.81,4.57,13.1,1.87,4.52,3.34,9.22,4.42,14.07.79,3.56-1.41,7.19-1.82,10.64-.3,2.57-.71,4.99-.82,7.51-.2,4.53-1.05,12.77-3.28,16.55-1.35,2.28-2.14,4.84-3.56,6.98-2.22,3.35-2.89,7.05-3.42,10.95-.18,1.34.12,2.39.12,3.69,0,10.54,3.27,21.12,9.61,29.37,1.05,1.36,1.53,3.27,2.81,4.4,1.09.95,1.47,2.36,2.6,3.15,1.55,1.09,3.44,1.82,4.23,3.43-4.91-1.62-9.52-8.02-12.24-12.57-6.24-10.44-8.68-21.37-7.64-33.54.85-9.9,9.05-14.18,9.46-28.79.17-6,1.19-11.78,2.65-17.57,2.21-8.75-8.4-23.86-8.55-30.9-.3-14.57-.84-18.61,2.53-32.94,1.17-4.98,3.76-9.44,6.84-13.57,2.72-3.65,6.2-6.68,9.57-9.73,1.4-1.27,2.59-2.15,3.21-4.1.56-1.76,2.3-2.88,4.14-3.19l5.7-.95c4.88-.82,9.8-.28,14.56,0"/><path class="i" d="M623.47,1.78c4.35.63,6.36.07,10.14,1.34.13.05.42.04.55,0,1.05,1.29,2.91,1.62,4.26,2.56,6.63,4.65,13.15,14.07,16.54,20.85l.02.37c.02.35.17.63.31.93.12.25-.02.63.07.9l.09,1.81c.03.57.08,1.13.04,1.7l-.13,1.81c-.02.28.02.56.04.83-3.33,9.79-8.81,18.59-17.47,24.72-.48.34-.19,1.25-.26,1.53-.11.07-.3.01-.43.06-.13-.22-.36-.49-.56-.42-.16.06-.6.06-.78.22-2.76,2.33-5.95,3.13-9.17,4.38-3.51,1.36-7.14,1.8-10.7,1.07l-.43-.44c.66-.5,1.52-.36,2.45-.3,4.64.33,9.08-.85,13.07-3.14,3.01-1.73,6.07-2.97,8.68-5.57,8.87-8.86,7.87-8.32,13.48-18.96.86-1.62,1.06-4.24,1.19-6.2.34-5.26-3.84-12.12-7.28-15.74-1.32-1.39-.59-2.44-6.08-6.77-3.2-2.52-6.24-5.46-10.52-5.85l-8.95-.81c-2.42-.22-4.7-.26-6.67,1.07-.42-.95-10.75,3.42-9.96,3.22-5.64,1.45-9.48,4.64-12.49,9.56-2.23,3.65-3.25,7.81-3.92,12.16-1.64,10.73,4.33,24.71,13.3,30.42.46.29,7.91,3.5,7.39,4.67l-.96-.03c-.47-1.01-1.67-.84-2.46-1.22-6.95-3.33-12.47-8.49-15.18-15.97-1.43-3.93-3.26-7.69-3.26-12.06-.01-7.94,1.86-17.01,7.24-22.94,3.6-3.97,15.08-7.79,20.36-9.31,2.9-.84,5.69-.84,8.45-.45"/><path class="e" d="M523.18,724.04c.08.28.19.56.33.82-1.11.21-1.55,1.91-3.06,1.36.33-1.41,2.01-1.43,2.72-2.18"/><path class="e" d="M520.08,726.51c0,.12-.1.22-.22.22s-.22-.1-.22-.22.1-.22.22-.22.22.1.22.22"/><path class="e" d="M312.05,612.66c-.25.12-.71-.06-.97.04,0-.23,0-.48.05-.64.1-.31.38-.37.61-.24.28.15.53.63.31.85"/><path class="e" d="M404.29,84.26c2.95,19.94-5.21,39.6-15.86,56.31-3.38,5.31-7.09,9.86-11.34,14.51-2.65,2.89-5.84,5.03-8.81,7.64l-3.78,3.32-4.33,4.13c-4.4,4.2-8.04,8.72-11.71,13.53-8.23,10.78-13.29,17.88-16.41,31.37-.72,3.11-.79,6.14-1.95,8.9l-7.21,10.87c-4.04,6.09-5.4,22.54-5.17,29.95.2,6.57.44,12.87,1.2,19.33l2,17.03c1.78,15.09,2.65,34.25-2.51,48.63-1.63,4.54-4.23,8.4-4.8,13.41-.82,7.27-1.2,14.7-.5,22.09.6,6.35,3.58,11.83,5.5,17.58-2.78,5.19-3.52,12.17-8,17.24-5.6,6.33-9.88,8.73-18.62,8.65-3.97-.04-7.33-.51-10.63-3.01-6.42-4.86-9.26-11.61-7.76-19.72.19-1.05-.25-1.34-.38-2-.37-1.94.82-3.73,1.4-5.66,1.94-6.38,3.3-12.8,3.97-19.48,1.21-11.89-4.42-17.56-5.27-34.19l-.32-6.22c-.13-2.54.22-5.03.34-7.58.31-6.57,2-12.64,2.92-19.11,1.44-10.11,3.29-19.72,5.4-29.67,1.46-6.9,1.7-13.65.73-20.52-.84-5.9-1.87-11.56-4.74-16.77-.91-1.65-2.18-3-2.85-4.78.46-.4.84-.74,1.23-.94,4.05-2.12,3.77-7.32,1.69-11.21,1.22-1.97,3.24-2.97,5.35-4.03,8.92-4.48,20-4.92,28.89.02l7.55,4.2c1.74-6.22,3.29-12.11,5.5-18.02,2.05-5.48,6.93-11.29,8.38-14.24.75-1.53,1.52-2.81,2.52-4.18l6.04-8.25c4.06-5.54,8.63-10.47,13.2-15.54,1.31-1.45,2.24-2.69,3.89-3.86,7.56-5.33,19.46-17.68,24.45-25.5,9.8-15.37,15.47-36.16,13.12-54.14,2.43.12,4.84-.4,7.64-.13"/><path class="i" d="M262.74,231.54c-.18-.15-.33-.33-.47-.53.21.12.29.38.47.53"/><path class="i" d="M497.93,90.93c1.01,6.38-3.38,18.14-6.51,24.01-2.69,5.05-6.58,9-10.62,12.92-6.73,6.52-15.67,9.16-23.05,14.41l-37.51,26.66c-8.74,6.21-16.84,12.56-24.83,19.57-7.02,6.16-19.07,20.29-20.4,29.19-.12.79-1.23,1.64-1.92,2.15-2.94,2.14-4.98,4.72-6.85,8.08,7.24,13.26,4.73,19.44.36,32.53-9.21,27.61,4.77,30.68-3.64,59.75-1.36,4.71-2.15,9.41-3.16,14.21-2.04,9.71-.2,19.27,4.79,27.71,4.68,7.91,7.2,16.4,7.27,25.6-1.46,5.06-3.05,9.9-5.77,14.15-1.5,2.34-4.11,3.79-6.4,5.59-8.39,6.59-18.81,9.82-29.31,6.63-5.45-1.65-8.77-7.4-11.75-11.22-1.92-5.75-4.9-11.23-5.5-17.58-.7-7.39-.32-14.82.5-22.09.57-5.01,3.17-8.86,4.8-13.41,5.15-14.38,4.28-33.54,2.51-48.63l-2-17.03c-.76-6.46-1-12.76-1.2-19.33-.23-7.41,1.13-23.86,5.17-29.95l7.21-10.87c1.28-1.93,4.86-3.85,7.04-4.45,5.42-1.5,10.7-.68,16.09-.2,7,.62,6.27,2.39,10.51,6.16,1.18-7.47,4.04-14.1,8.85-19.83l5.91-7.03c6.72-7.99,14.53-14.6,22.23-21.64l8.4-7.68c11.21-10.25,19.17-18.18,32.93-25.23,10.64-5.45,20.36-11.88,29.31-19.81,3.1-2.75,5.74-5.32,8.2-8.67,5.41-7.35,9.08-15.71,9.87-24.68,2.66.34,5.79-.12,8.5,0"/><path class="g" d="M213.07,441.47c-.15.14-.34.25-.47.4-.64-.04-1.33.23-1.86.81l-5.34,5.74-7.1,7.11c-4.15,4.15-7.62,6.61-11.68,11.85-.97,1.25-2.5,1.97-3.04,3.56-1.05,0-7.88,7.85-7.78,8.55-.17.14-.41.4-.52.59-.49-.61-4.64,4.57-3.95,4.83-.11.17-.31.28-.43.45-.74-.13-1.22.77-1.63,1.47l-3.9,6.67c-1.04,1.77-1.77,3.51-2.75,5.31-1.18,2.15-1.89,4.53-2.81,6.84-2.93,7.29-3.03,14.91-3.3,22.62-.34,9.95-1.58,14.83-1.68,26.28-.03,3.5.6,6.74.48,10.25l-.22,5.81c-.1,2.76-.57,5.5.34,8.27.61,1.86.19,3.62.26,5.45.09,2.46.6,4.89.77,7.4l.32,4.55,1.05,10.39c.73,7.19,1.08,14.31,3.79,21.09.85,2.12,6.36,10.9,8.03,13.65,1.69,2.79,2.85,5.88,4.86,8.53,2.76,3.64,4,7.67,5.56,11.86,3.63,9.71,5.12,12.09,10.45,20.93,3.1,5.14,2.39,6.48,7.35,11.76.57-.03.21.33-.32.49,2.31,1,4.37,2.01,7.11,2.22,1.53.12,3.11.7,4.72.94,2.93.44,5.88.23,8.66.98,1.71.46,3.31.38,5.03.71,5.01.94,9.95,1.63,15,.92l13.66-1.93c1.66-.23,8.81.74,10.72,1.09,5.61,1.01,11.01.99,16.74,1.1,12.2.23,23.9-.87,35.92-2.61,4.86-.7,9.44-1.3,14.2-1.69,2.49-.2,4.94-.43,7.46-.84l16-2.59,15.28-2.94c1.03-.2,2.41.36,3.34-.14,1.68-.9,3.16-.5,4.76-.74.81-.12,1.63-.71,2.67-.75,2.39-.1,4.76-.93,7.3-.66,2.45.26,4.69-.45,7.09-.68,3.71-.37,7.31-.06,10.99-.13.41,0,.72,1.05,1.11.76,2.27-1.71,2.95-.26,4.34-.39,2.15-.2,4.06.15,6.17.3l15.16,1.12,23.48,2.39,10.67.93,15.52.58c6.78.25,13.39.84,20.04-.33l7.98-1.4c1.33-.23,1.94-1.69,1.5-2.86-.75-2-.17-4.01.83-5.84l2.8-5.13,6.97-9.83,4.41-8.06c1.74-3.18,2.67-6.6,3.81-9.99l3.8-11.25,1.49-4.39c1.64-4.84,8.3-14.89,10.62-23.27.94-3.41,1.82-6.65,2.96-9.98,1.17-3.42,1.59-6.96,3.29-10.16,1.98-3.74,5.29-12.88,6.3-17.14.48-2.01,1.49-3.77,1.95-5.79l2.04-8.89c.24-1.05.54-1.54.61-2.55l1.35-19.57c.19-2.78.67-5.31.61-8.13l-.22-11.59c-.04-2.35-1.55-11.97-2.25-14.72-1.13-4.44-1.49-10.48-1.82-15.2-.16-2.31-.81-4.56-1.34-6.88-1.21-5.27-3.89-9.92-5.88-14.99-1.52-3.88-3.05-7.56-4.92-11.18.67,1.3-4.05-6.09-3.31-5.16-3.16-3.98-7.14-7.6-10.9-11.21-.62-.59-.22-1.13-1.28-1.29-1.46-.21-2.81-1.8-3.97-2.78-1.47-1.25-3.21-1.42-4.86-2.21-1.06-.51-2.05-1.41-3.19-1.47.03-.39.4-.69.44-.94.07-.42-.39-.02-.62.3-5.21-.93-11.05,1.14-13.49-3.89-.85-1.76-.64-4.43.74-5.97.65-.73,1.6-.77,2.27-.81,7.45-.45,13.3,3.03,18.86,7.21,5.04,3.79,9.96,6.96,14.18,11.69,1.36,1.52,3.37,2.43,4.7,4.2,2.89,3.84,3.93,4.34,6.21,8.38,1.49,2.64,4.97,9.65,5.95,12.33l4.25,11.7c.77,2.11,1.37,4.15,1.45,6.42.06,1.63.9,3.07,1.08,4.64.61,5.18.92,10.24,2.09,15.39,1.74,7.67,1.88,15.17,2.1,23.18l.13,4.8-.39,6.75c-.49,8.44-.24,16.7-2.36,24.94-.34,1.31-1.33,2.49-1.27,3.95.05,1.08-1.66,6.67-2.17,8.06-1.27,3.47-2.65,10.03-4.62,15.71l-3.17,9.16-2.91,9.11c-1.31,4.12-2.26,8.14-4.04,12.05l-6.13,13.45c-1.32,2.91-2.14,5.75-3.22,8.74l-2.81,7.77c-1.69,4.67-3.81,8.92-6.33,13.21-.19.32-5.79,12.23-5.9,12.63-1.3,4.79-3.1,9.04-5.2,13.43-1.15,2.4-2.28,3.92-4.58,5.5-.98.67-1.86,1.51-3.08,2.16-8.34,4.47-15.53,4.87-24.72,4.5l-8.22-.33-7.11-.39-23.48-2.07c-1.05-.09-2.16-.57-2.86-.56-2,.02-3.86-.12-6.04-.29l-5.35-.41-7.96-.47c-3.94-.23-7.88.32-11.65-.48.02,0-2.91-1.66-5.8-.39-3.27,1.43-2.17,4.34-2.18,8.28v25.62s-.78,9.05-.78,9.05c-.54,6.39.96,13.35,6.06,17.77,1.86,1.61,11,6.76,13.21,7.47l5.79,1.86c8.66,2.77,20.58,3.03,29.51,1.9,6.67-.84,12.99.05,19.54,1.2,4.26.75,19.16,1.17,23.42.51l38.13-5.96c10.64-1.66,18.53,1.52,27.84,1.59l37.92.29c5.21.04,9.1,1.44,13.41,4.37,2.8,1.91,7.64.97,10.18-.73,1.96-1.32,3.38-2.67,5.34-3.59,6.4-3.01,13.13-4.37,20.07-3.51,8.21,1.02,15.19-2.83,20.24-1.84,2.84.56,13.14,2.19,13.33,5.2.21,3.47-1.65,6.54-3.77,9.08-4.87,5.84-11.2,9.83-18.34,12.35-1.47.52-2.67,1.23-4.26,1.56-9.73,2.01-19.47,3.29-29.46,3.16-2.64-.03-12.83-1.36-16.02-1.84-7-1.04-13.73-2.76-20.76-2.78-13.86-.02-24.99,3.93-39.19,2.36l-8.78-.97-11.38-.89c-4.82-.38-9.4-.63-14.22-1.37-5.8-.89-11.55-1.64-17.51-1.82-10.21-.3-22.15,3.45-33.48,3.57-4.8.05-9.3,1.07-14.09,1.41-10.23.72-21.54-.91-29.98-.11-6.13.58-15.48-.29-21.27-2.07-6.56-2.01-12.88-4.02-18.96-7.2-1.13-.59-1.75-1.45-2.71-2.23-8.64-6.97-10.61-14.3-9.27-25.41.11-.93-.52-1.96.04-2.81.72-1.08.17-2,.17-3.12,0-4.58-.17-9.01.15-13.52l.68-9.57,2.71-19.89c.27-1.96.83-3.89-.11-5.76-5.95.33-11.93,1.56-17.72,2.48l-23.03,3.68-11.56,1.73c-1.81.27-3.5.08-5.33.46-2.34.49-8.2-.32-8.66,1.86-.98,4.6-1.42,9.19-2.87,13.7-1.56,4.88-1.57,9.5.26,14.39,2.21,5.88,7.89,7.18,8.58,17.34.62,9.07-3.11,15.26-9.14,21.62-1.45,1.53-9.72,7.05-12.47,8.08-3.43,1.28-6.8,2.83-10.36,3.64-.86.19-1.34.17-2.19.56-4.31,2-9.03,2.06-13.66,2.82-5.11.85-10.24-.11-15.38.06l-4.15.14c-1.06.04-1.43.21-2.32.48-4.27,1.25-8.76,1.08-13.3,1.03-5.9-.06-11.27-2.38-16.97-3.18-4.79-.67-9.05-1.32-13.66-2.84-6.56-2.17-13.58-3.02-20.41-2.54-3,.21-5.88-.15-8.82.25-14.16,1.95-36.65,2.61-50.56-.6-4.95-1.14-9.72-1.86-14.7-2.6-6.76-1-23.05,3.42-29.2,3.95l-7.92.68c-3.93.34-7.7.22-11.67.29-11.58.21-13.69-2.8-23.97-1.41-9.01,1.22-17.98-.7-24.89-6.53-1.89-1.59-3.63-3.37-4.02-5.95-.42-2.77-.88-6.2.85-8.58,1.41-1.93,4.65-2.15,6.92-2.32,20.8-1.65,25.9,3.97,37.56,3.67,3.95-.1,7.54-1.52,11.36-2.25l5.23-1c1.08-.21,3.21-.67,4.13-.32,1.72.65,2.79.16,4.3.08,4.91-.26,9.94,1.08,14.77,2.33,14.14,3.65,20.37-.72,32.1-.45l4.27.1c2.26.05,4.49.45,6.87.76,12.63,1.65,24.95,1.77,37.63.46,6.36-.65,12.3-.81,18.75.05,19.37,2.58,42.44,5.13,61.78,2.26,3.58-.53,11.46-4.21,15-5.96,5.94-2.94,9.89-6.14,12.87-12.69l3.06-6.71,1.17-4.05c.52-1.79,1.44-4.17,1.2-6.06-.19-1.47.35-2.44.37-3.72.1-4.76-.03-14.31-.58-18.79-.16-1.31-2.91-2.47-4.04-2.07-1.45.52-2.26,1.96-3.65,2.72-2.9-.8-5.75-.19-8.62-.24-7.89-.13-12.81-1.09-20.9-1.22-4.72-.08-9.12,1.21-13.79,1.87-8.52,1.21-25.52-2.22-34.24-4.29-3.56-.85-9.06,3.27-16.22-9.95l-3.98-7.35c-1.06-1.95-2.18-4.1-3.47-5.76l-2.04-2.63c.55.71-3.92-7.33-3.89-7.26-1.09-3.21-4.49-12.82-6.39-14.92-1.24-1.38-3.74-7.06-4.1-7.47-2.13-2.46-4.2-4.79-5.19-7.95-.36-1.16-1.8-2.64-2.63-3.9l-2.97-4.5c-1.53-2.31-2.59-4.39-2.39-7.47.27-4.17.17-8.42.66-12.58.27-2.24.22-4.28-.08-6.56l-3.1-23.83-.39-5.8-.43-5.36-.21-20.35c-.03-2.65.46-5.14.64-7.76.32-4.6.29-9.23,1.57-13.69.38-1.33.46-2.12.43-3.66l-.06-4.17c-.03-2.34-.62-4.1-.11-6.49.67-3.17,1.26-6.1,2.93-9.07.44-.79,1.44-2.36,1.54-3.18.21-1.71,1.8-2.56,2.39-3.87,1.05-2.35,1.07-5.12,2.94-7.36.95-1.14,1.13-3.27,2.4-4.22,1.31-.98,1.64-2.41,2.67-3.55,1.2-1.32,2.63-2.44,3.4-4.15.12-.26,1.32-.14,1.34-.49.02-.22-.28-.86-.13-1.08,1.95-1.15,4.69-5.25,7.12-6.99,1.78-1.27,9.03-8.91,11.9-11.52l9.35-8.49c1.89-1.72,3.81-3.25,5.8-4.84l5.92-4.73c2.42-1.93,4.87-3.67,7.23-5.66,3.02-2.55,5.63-5.36,9.02-7.47,3.07-1.91,9.11-7.62,11.34-3.76l-14.33,8.9c-1.16.72-10.04,7.74-9.96,9.49"/><path class="e" d="M508.12,417.39c-.15-.02-.31.01-.46,0-.16.16-.31.33-.45.5-.89.75-1.35,1.88-2.2,2.69-.19-.15-.45-.29-.66-.28.52,0-4.31,4.2-5.74,4.72-1.61.58-3.02,1.35-4.72,1.66-6.89,1.24-14.23-.25-19.6-4.58-2.98-2.4-4.3-5.66-4.83-9.13-.32-2.11.21-4.43.39-6.52.05-.61.18-1.27.09-1.87-.26-1.87,5.4-8.51,1.11-21.03-.86-2.5-1.32-4.82-2.72-7.1-2.17-3.54-3.85-7.28-5.12-11.2-.62-1.9-.63-3.86-.42-5.98,2.23-22.28.99-22.65-4.47-43.02-3.58-13.38-5.42-28.29,1.34-40.86l6.49-12.08c5.69-10.59,11.8-7.88,15.56-17.68,1.19-3.09-1.1-14-2.1-17.27.8-1.66,2.84-1.36,4.49-1.73.85-.19,2.51.48,3.27-.29,1.37-1.39,2.6-2.68,4.14-3.89,1.09-.86,1.6-2.26,2.72-2.91,1.13-.66,11.06-3.65,12.65-3.84,5.27-.65,3.91-1.36,10.69,1.43,4.38,1.81,10.67,8.56,12.14,12.32l2.02,5.17c2.21,5.66,2.76,14.63-.09,19.56-1.45,2.51-8,8-9.4,12.61-1.23,4.06-2.88,7.69-5.75,10.95-2.6,2.96-4.65,6.22-6.79,9.49-2.81,4.28-2.55,5.12-4.37,10.76l-2.05,6.35c-1.67,5.18-2.22,10.88-1.88,16.37l.41,6.68c.08,1.36-.18,2.21.18,3.58l1.07,4.09c.63,2.4.74,4.92,1.19,7.38l1.66,9.03c1.09,5.93,3.62,8.22,6.65,14.15l1.51,2.97,3.81,6.7c2.88,5.07,3.12,14.7.5,20.4-.97,2.11-2.22,4.01-3.27,6.02-2.7,5.16-4.74,10.5-6.99,15.69"/><path class="i" d="M404.29,84.26c-2.8-.27-5.22.25-7.64.13-2.84-.13-5.24-.91-7.5-2.32-6.17-3.85-11.46-8.5-16.61-13.63-3.47-3.46-6.68-7.09-8.15-11.89-1.55-5.05-1.56-10.58.16-15.46,3.28-9.28,11.95-14.7,18.59-22.34,10.14-11.67,14.3-6.54,18.19-8.54,7.87-4.05,16.44-4.29,24.76-1.72,3.59,1.11,6.12,2.62,8.86,5.08,2.95,2.65,5.55,5.08,7.43,8.72,1.48,2.88,2.57,5.56,3.18,8.87,1.51,8.24,4.07,18.75-2.57,26.13-7.45,8.28-12.03,8.7-19.29,15.29-2.81,2.55-6.07,3.96-9.19,5.97-3.41,2.2-6.62,4.19-10.21,5.71"/><path class="e" d="M609.29,63.76c1.83.06,4.02,2.07,6.31,2.25l.43.44c-.86,4.87-3.38,12.36-5.38,17.22l-2.34,5.68-6.15,13.3-3.53,7.67c-4.92,10.69-6.27,12.08-14.37,19.93-3.46,3.35-7.75,5.74-12.07,7.93l-13.85,7.01-13.63,6.42-20.88,9.6-14.51,7.31c-4.4,2.22-8.89,3.83-13.09,6.36-2.65,1.6-5.34,2.84-7.89,4.48l-6.51,4.2c-4.09,2.63-13.9,10.09-17.21,12.03-1.23.72-1.95,1.89-2.98,2.78l-3.09,2.67c-2.4,2.07-4.71,4.07-6.76,6.52l-6.07,7.26c-.67.8-1.56,1.39-1.51,2.41-1.4-.05-1.9,1.22-2.97,1.99-5,3.59-13.1,13.7-16.17,19.41l-6,11.19-10.19,23.02c-6.76,15.27-5.83,25.81-5.4,42.11.25,9.35,4.35,14.42,4.94,22.18.48,6.36.32,12.5-1.43,18.66-1.47,5.18-2.36,10.4-4.17,15.42-3.53,9.76-5.79,24.52-3.89,34.87.77,4.22,1.5,8.47,2.75,12.35-1.01.24-.55,1.56-1.04,2.18-4.3,5.46-10.95,3.86-17,1.98-9.84-3.06-17.77-10.01-17.55-20.73,2.72-4.25,4.31-9.09,5.77-14.15-.07-9.19-2.59-17.69-7.27-25.6-4.99-8.44-6.83-18.01-4.79-27.71,1.01-4.8,1.8-9.5,3.16-14.21,8.4-29.08-5.57-32.14,3.64-59.75,4.37-13.1,6.87-19.28-.36-32.53,1.87-3.36,3.91-5.94,6.85-8.08.69-.5,1.81-1.35,1.92-2.15,9.05-4.51,18.84-7.26,29.21-7.01,7.89.19,9.79,5.51,11.58,6.25,3.69,1.55,7.05,3.06,9.98,5.95.52.52,1.99,1.09,2.54.3,3.33-4.82,6.47-9.64,10.41-13.99,9.32-10.29,31.48-29.02,43.54-35.49l6.72-3.61c7.95-4.27,15.48-8.72,23.67-12.67,8.71-4.2,16.84-8.63,25.8-12.34,10.34-4.28,20.49-8.21,30.26-13.57,4.07-2.23,7.43-4.83,10.82-7.91,12.41-11.25,11.34-24.64,18.56-39.43l8.43-17.28c.57-1.18,1.74-1.94,1.81-3.17l.96.03Z"/><path class="i" d="M479.62,228.36c1,3.27,3.29,14.18,2.1,17.27-3.76,9.79-9.87,7.09-15.56,17.68l-6.49,12.08c-6.76,12.57-4.92,27.48-1.34,40.86,5.45,20.37,6.7,20.74,4.47,43.02-.21,2.12-.2,4.08.42,5.98,1.28,3.92,2.96,7.67,5.12,11.2,1.39,2.28,1.86,4.6,2.71,7.1,4.29,12.51-1.36,19.16-1.11,21.03-.65.15-.51,1.11-.87,1.43-1.73,1.54-2.41,4.06-4,5.69-3.02,3.08-5.82,6.45-9.34,9.26-4.85,3.88-10.35,6.33-16.11,8.69-9.83,4.03-24.42,5.39-32.12-3.04-2.07-2.26-4.9-5.28-5.83-8.17-1.25-3.88-1.98-8.14-2.75-12.35-1.89-10.35.36-25.11,3.89-34.87,1.82-5.02,2.7-10.24,4.17-15.42,1.75-6.16,1.91-12.3,1.43-18.66-.59-7.76-4.69-12.83-4.94-22.18-.43-16.3-1.36-26.85,5.4-42.11l10.19-23.02,6-11.19c3.06-5.71,11.16-15.82,16.17-19.41,1.07-.76,1.57-2.04,2.97-1.99,2.4.09,14.68-9.8,26.37,1.23,2.73,2.57,5.43,5,7.27,8.32.45.81.95,1.48,1.78,1.58"/><path class="g" d="M615.6,66.01c-2.29-.18-4.48-2.19-6.31-2.25.51-1.18-6.94-4.38-7.39-4.67-8.97-5.71-14.94-19.69-13.3-30.42.66-4.34,1.68-8.5,3.92-12.16,3-4.92,6.85-8.1,12.49-9.56-.79.2,9.54-4.16,9.96-3.22,1.97-1.33,4.25-1.29,6.67-1.07l8.95.81c4.28.39,7.32,3.33,10.52,5.85,5.49,4.33,4.77,5.38,6.08,6.77,3.45,3.63,7.63,10.48,7.28,15.74-.13,1.96-.33,4.57-1.19,6.2-5.6,10.64-4.61,10.1-13.48,18.96-2.6,2.6-5.67,3.85-8.68,5.57-3.99,2.29-8.43,3.47-13.07,3.14-.93-.07-1.79-.2-2.45.3"/><path class="e" d="M325.79,577.53c-.84.36-1.68.91-1.95,1.82-.37-.16-.77-.26-1.17-.33,3.63-4.68,8.03-8.69,11.47-13.79,3.6-5.34,6.61-10.52,8.83-16.61,3.06-8.37,4.72-16.87,5.65-25.74.57-5.42,2.49-18.91,2.35-23.81-.36-13.14-4.61-25.61-11.66-36.51-5.91-9.15-13.91-15.29-23.39-20.32-20.85-11.06-39.57-14.31-62.75-8.68-8.99,2.18-16.96,6.25-23.87,12.14-16.6,14.13-29.12,30.44-37.09,50.85-2.31,5.92-3.92,11.7-4.51,18.1l-1.78,19.47c-.9,9.86.33,19.08,3.73,28.41,3.07,8.42,8.23,15.74,14.5,22.11,1.43,1.45,2.35,3.22,4.01,4.07,4.98,7.04,11.88,12.99,19.83,16.99,5.97,3.01,12.51,3.62,19.24,3.46,17.57-.41,34.32-5.53,49.78-13.64,5.29-2.77,10.28-5.06,15.17-8.39.45-.31,1.09-.14,1.42-.19-.2.58-.7,1.12-.81,1.74-1-.08-2.03.26-2.89,1.02-2.23,1.95-8.79,4.68-10.23,5.75-1.11.82-1.87,1.32-3.13,1.88l-7.61,3.37c-4.73,2.09-16.43,5.99-21.41,6.87-9.23,1.63-17.9,3.9-27.39,2.41-1.31-.21-2.49.39-3.64.03-6.1-1.93-11.97-4.18-17.01-8.18l-4.26-3.37c-5.69-4.51-11.04-12.46-15.21-16.6-4.34-4.32-7.15-9.27-9.79-14.63-4.27-8.68-5.99-18.46-5.59-28.19.1-2.3.02-4.51.3-6.77l.81-6.6c.97-7.9.57-16.02,3.33-23.51l3.25-8.81c.37-1,.87-1.91.57-2.8,1.11-.88,1.99-2.49,2.17-4.01.14-1.2,1.26-1.49,1.64-2.39l1.85-4.41c.56-1.34,2.46-2.26,2.53-3.78.01-.24.35-.62.48-.81,1.81-1.12,2.76-3.47,3.44-5.44.2-.32.68-.92,1-1.12,1.07-.66,2.06-2.33,2.51-3.55.34-.59,1.36-1.11,1.46-1.83.9-.25,1.41-1.02,1.8-1.82.27-.57.62-1.1.8-1.72,1.35-.5,2.62-1.69,2.76-3.16,1.08-.45,1.52-1.64,2.55-2.16.28-.14,8.03-7.34,7.15-6.7,3.42-2.51,6.49-5.51,10.2-7.96,1.53-1,3.27-1.71,4.88-2.62,6.24-3.52,13.25-4.72,20.33-5.95,12.99-2.25,30.44-1.43,42.41,3.96l10.15,4.57c4.16,1.87,8.15,4.04,11.95,6.64,2.41,1.64,9.69,7.7,11.28,9.92l3.13,4.35c4.19,5.82,9.63,17.32,10.99,24.25l.78,3.99c1.37,6.99.59,13.52-.01,20.47-.3,3.45-.02,6.54-.88,9.94-.46,1.81-.28,7.93-1.2,11.97l-.67,2.95-1.71,6.74c-.8,3.14-1.9,5.96-2.94,9.01-1.39,4.09-3.02,7.84-5.54,11.41-1.79,2.54-3.18,5.31-5.11,7.7-1.28,1.58-2.76,2.88-3.88,4.57-.98,1.48-2.32,2.78-3.39,3.97"/><path class="e" d="M505.96,570.51c-1.04.07-1.31,1.2-1.9,1.79-.68.43-1.57.7-2.17,1.31-.45.46-1,.82-1.32,1.41l-.4.04c-.31-.11-.75-.21-.93.18-.09.19-.09.44-.03.64l-9.64,6.32c-2.76,1.81-5.7,3.13-8.12,5.15-.35,0-.73.09-.87.44-.11-.03-.3,0-.4.03-1.29.44-2.93,1-3.69,2.13-.46.02-1.01-.02-1.23.48-.58-.34-.97.35-1.34.47l-3.03.95c-.2.06-.64.09-.57.39-1.4,0-2.61.78-3.99.97-1.07.14-2.28.63-3.02,1.24-1.87-.35-4.02.74-5.87.94l-8.42.91c-.68.07-1.38.02-2.07.09-9.8.88-19.63-.05-29.4-1.01-1.05-.1-2.28-.49-3.49-.39-1.73.14-2.96-.54-4.51-.83-3.5-.65-6.71-1.6-9.76-3.11-1.74-.86-3.63-2.07-5.66-1.85-.93-.25-1.74-1-2.29-1.84,13.81,4.15,14.31,6.02,29.7,7.33l11.42.97c2.15.18,3.89-.02,5.98-.09,8.11-.28,15.99-.41,23.93-2.44,13.34-3.42,27.33-11.88,37.95-20.52,7.38-5.99,13.72-12.7,18.46-20.97,5.4-9.43,9.28-19.37,9.99-30.29,1.2-18.27-2.01-32.22-9.42-48.65-6-13.31-15.65-24.4-27.93-32.41-5.82-3.8-12.31-4.8-19.13-5.27-3.29-.23-6.61-.47-10-.16-8.18.75-15.69,3.38-23.24,6.37-12.24,4.84-25.48,14.1-35.18,22.94l-5.37,4.9c-6.43,5.86-12.01,12.79-15.21,21.16-4.78,12.53-7.6,25.62-8.2,39.03l-1.02,22.68c-.46,10.31-.26,20.53,6.23,29.34.34,4.58,3.18,8.65,6.55,11.99.78.78,1.72,1.29,1.83,2.28-2.65-.78-4.21-3.5-5.93-5.75-2.06-2.7-3.43-5.64-4.44-8.91-.26-.83-.65-1.58-1.27-1.94-.55-2.37-2.85-5.35-3.21-8.47l-.97-8.4c-.45-3.91.02-7.86.15-11.78l.38-11.68.37-5.36.51-11.58,1.19-6.65c.66-3.65,1.89-7.04,1.29-10.74,1.92-.53,1.47-2.08,1.83-3.37l2.36-8.3c1.64-5.78,7.77-15.71,11.78-20.07.78-.86,1.78-1.48,2.6-2.26l5.67-5.41c1.26-1.2,2.89-2.28,3.95-3.62,2.04-2.59,8.04-6.5,11.05-8.5l9.56-6.35c5.49-3.65,25.08-11.48,30.99-11.9,2.6-.18,5.12-.89,7.59-.79l10.03.39c4.9.19,10.09.71,14.56,3.26,5.17,2.95,10.04,6.59,14.46,10.53,4.56,4.07,7.97,8.67,11.44,13.52,2.96,4.14,5.07,8.37,6.93,13.09l2.66,6.75c.98,2.5,2.15,4.79,2.41,7.59.21,2.33,1.26,4.48,1.64,6.77,1.69,10.27,2.19,16.91,1.39,27.42-.5,6.51-3.99,18.42-6.86,24.09-3.23,6.39-7.19,12.06-11.93,17.27-1.92,2.11-3.94,3.86-5.39,6.08"/><path class="e" d="M469.84,406.46c-.17,2.09-.71,4.4-.39,6.52-.44.09-.25.67-.71.91-.02-1.1-.26-2.8-1.44-2.92-.78-.08-1.53.89-2.24.74,1.59-1.62,2.27-4.15,4-5.69.08.36.44.48.78.44"/><path class="i" d="M212.6,441.88c-5.88,6.62-12.65,12.32-18.87,18.83l-11.08,11.6c-2.35,2.46-4.3,5.16-6.86,7.19-.09-.71,6.74-8.55,7.79-8.55.54-1.59,2.07-2.31,3.04-3.56,4.06-5.24,7.54-7.7,11.68-11.85l7.1-7.11,5.34-5.74c.54-.58,1.22-.85,1.86-.81"/><path class="i" d="M175.27,480.09c-1.02,1.83-2.77,3.1-3.95,4.83-.69-.26,3.46-5.44,3.95-4.83"/><path class="f" d="M323.84,579.35c-.04.14.06.34.05.49,0,.15,0,.31,0,.46.12,6.36-1.08,12.47-4.62,18.08-3.42,5.42-7.31,10.16-11.44,15.1l-18.8,22.49c-6.27,7.49-12.56,15.32-10.61,25.65,1.02,5.4,4.8,8.98,9.78,10.92,11.97,4.64,32.4,3.32,44.66-.73,8.01-2.64,14.3-7.83,20.18-13.55,3.63-3.53,8.64-4.84,13.37-6.13,6.01-1.64,11.91-2.38,18.04-1.35,13.32,2.24,14.99,9.88,37.06,12.22,3.7.39,7.41.61,10.84-.83,9.96-4.17,13.35-16.77,13.9-26.7.92-16.4-11.22-20.56-24.56-24.76l-14.77-4.66c-5.36-2.17-10.53-4.95-15.26-8.72-.76-.61-1.25-1.48-2.18-1.45-.04-.14-.27-.21-.34-.34-.11-.99-1.05-1.51-1.83-2.29-3.37-3.34-6.21-7.41-6.55-11.99,1.3.94,2.71,2.23,4.46,2.99.06.02.19.04.45.11,1.55,1.64,3.95,1.84,6.12,2.98.55.84,1.36,1.59,2.29,1.84,3.22,5.64,14.06,10.47,20.39,11.86,2.84.62,5.4,1.6,8.22,2.43,7.95,2.32,15.58,5.2,22.34,10.15,4.54,3.32,6.91,8.69,8.03,14.17,1.47,7.18.19,14.27-1.71,21.26-3.03,11.12-11.8,21.18-24.02,21.46-4.35.1-8.31-.01-12.52-.89-26.15-5.44-27.12-20.96-57.07-6.03-6.86,6.87-20.01,15.65-29.68,17.55-14.01,2.76-38.07,3.77-49.87-5.35-10.07-7.77-10.75-19.33-5.03-29.92,5.56-10.29,15.78-22.99,23.3-32.21,5.27-6.46,14.98-17.19,16.29-24.97.1-.62.61-1.16.81-1.74,3.52-2.06,6.59-4.72,9.08-7.93.4.07.8.17,1.17.33"/><path class="e" d="M435.09,683.87c.56-1.18,1.94-.81,3.1-1.36.55-.26.82-1.1,1.41-1.12.58-.02,1.02.48,1.59.76,1.41.7,2.87-.28,4.28-.12,2,.23,3.77,1.82,5.79,1.88.81.02,1.67-.88,2.95-.04-.36-4.28,6.47-3.08,2.4-5.93.62-.68,1.28-1.48,2.31-2.13,1.05,1.12.67,2.47.61,3.73-.05,1.1,1.09,1.44,1.76,1.55,1.22.2,6.77-3.69,7.48-5.51,3.73,3.71,5.11,1.41,5.76,1.43.73.03.62,1.09,1.14,1.47.87.64,2.27-.14,3.29-.44-.56-2.18-.97-4.36-2.46-5.8-.39-.27-1.85.99-2.07-.25-.07-.38.51-.88.64-1.19.38-.9-1.53-1.78-.81-2.83.16-.24.55-.57,1.08-.66l4.35-.74c1.75,1.61,1.45,3.6.84,5.64-.27.88.7,1.74.62,2.6-.06.6-.47,1.11-.45,1.58.04.65.72.95,1.38,1.72-.74.97-1.81,2.33-3.07,2.72-.81.25-1.74-.97-2.52-.54-2.59,1.43-.46,1.35-3.17,3.43-1.32,1.01-2.3-1.52-3.18-.11-1.55,2.47,2.95-.3,3.76,2.38.2.65.54,1.1.95,1.56-2.8.47-5.32-.05-7.98-.06h-4.46c-7.15-.03-14.66.7-21.79-.59-2.07-.38-4.17.49-6.26-.63,1.34-.47,2.66-.09,3.11-1.86-.6-.41-1.35-.11-2.37-.54M438.37,683.9c-.68.72.01.7.31.71.66.01.81-.39.63-.7-.17-.29-.56-.41-.94,0"/><path class="e" d="M551.57,585.64c.05.06.03.24.03.32-.71-.08-1.46.25-1.68,1.13l-.73,2.97c-.36-.57-.28-1.01-.97-.63.51,1.33-1.13,2.66-.94,3.66.4,2.1-.05,3.23-.96,5.1-.38.79-.12,1.5-1,1.54-.99.04-1.3-.51-1.44-1.49-.08-.55-.24-1.1-.52-1.3-.45-.32-1.15-.22-1.4.18-.14.22-.05.95-.3,1.23-1.05,1.17-2.77.17-4.12.38-.7.11-.98,1.28-1.39.75-.45-.58-.98-1.23-.82-1.62.63-1.52,1.28.69,3.22-1.26.63-.63,1.02-1.03.39-1.59-1.41-1.26-2.3.51-3.31-.75-1.28-1.59.88-4.05,1.96-5.69,1.53-.2,1.72-1,2.47-1.98.93-1.21,1.09-1.84,1.25-3.18.27-2.18,3.31-2.12,4.89-1.47.58.24,1.29-.39,1.73-.1.34.23,1.27.56.75,1.2-.36.44-.86.98-.56,1.43.15.22.81.31,1.06.23.52-.18-.06-2.64.81-1.99,2.08,1.56.37-.5,1.6,2.94M545.48,596.29c.17-.65.49-.87.34-1.13-.14-.25-.42-.33-.67-.23-.28.12-.27.45-.2.9-.17.73.19,1.16.53.46M540.26,595.69c-.37.3-.25.69.06.93.25.19.71.18,1.04-.25.15-.2-.14-.44-.5-.68-.14-.1-.26-.27-.6,0"/><path class="e" d="M450.39,680.46c-.95.09-1.6-.34-2.14-.76-.88-.68-.7-3.96.19-4.27.47-.16,1.42.23,1.74.92.59,1.27.15,2.67.2,4.1"/><path class="e" d="M485.68,613.85c.03-.27.96-.09,1.18-.05.21.04.07.43.02.64-.07.26-.55.48-.76.51-.41.05-.5-.6-.44-1.1"/><path class="e" d="M459.94,670.96c.17-.17.43.1.57.15.19.06.64.42.36.62-.33.24-.53.08-.73.04-.25-.05-.63-.4-.21-.81"/><path class="e" d="M336.91,686.88c.17-.22.76-.06.97-.08.2-.02.4.33.26.66-.16.37-.5.19-.68.24-.34.11-1-.24-.55-.81"/><path class="e" d="M560.51,512.85c0,.27-.22.49-.49.49s-.49-.22-.49-.49.22-.49.49-.49.49.22.49.49"/><path class="e" d="M560.51,535.93c0,.27-.22.49-.49.49s-.49-.22-.49-.49.22-.49.49-.49.49.22.49.49"/><path class="e" d="M543.64,605.01c.06,1.14-.47,1.27-.54.24.06-.51.29-.71.54-.24"/><path class="e" d="M555.18,527.34c0,.14-.12.26-.26.26s-.26-.12-.26-.26.12-.26.26-.26.26.12.26.26"/><path class="e" d="M544.48,603.59c0,.12-.1.22-.22.22s-.22-.1-.22-.22.1-.22.22-.22.22.1.22.22"/><path class="e" d="M545.37,600.93c0,.12-.1.22-.22.22s-.22-.1-.22-.22.1-.22.22-.22.22.1.22.22"/><path class="e" d="M422.07,680.19c1.16,2.83,7.97,1.11,9.6,2.37.65.5,1.18,2.02,1.37,2.91.2.93-1.05.95-1.51,1.05-.62.13-1.21-.55-1.7-.77-7.68,3.04-12.15-2.3-21.13-1.09l1.47.87c-3.97,1.26-5.85-1.66-8.35-.62.1-2.59-3.37,1.88-4.42-.77-.57,1.02-1.41,1.11-2.3.74-2.64-1.12-2.74,1.51-4.6-.65-.98-.01-1.05.1-.06.62-1.32.73-8.86,1.45-11.18.83-1.89-.51-3.78.65-5.45.82-1.85.19-3.34.1-4.82,1.43-.91.82-2.68-.32-3.71.06-1.16.43-2.38.86-3.41-.11-.97-.92-1.77.15-2.54.06-2.46-.28-4.83-1.04-7.43-.2-1.13.36-2.39-.39-3.11-.57-1.15.92-2.62.25-4.04.33.28-.02-4.62,1.81-4.79-.5-.02-.3.05-.9.45-.98.69-.14,1.2.02,1.81-.22.45-.18.43-1.08.9-1.59.56-.6,1.35-.8,1.57-1.35.27-.67-.26-1.72-.08-2.3.85-1.12,2.8-1.68,2.7-3.49-.04-.8-1.32-.83-2.17-1.17.66-1.39,2.01-2.17,3.39-2.76,1.11-.47,1.68-1.5,2.63-2.12,6.41-4.17,4.96-5.85,12.74-8.62,1.47-.52,2.62-1.47,4.46-.9,1.23.38,2.01-.56,2.32-1.64.96-3.36-.04,2.58,2.39,1.78.36-.12-.59-1.4-.37-1.63,4.04-2.13,9.4-1.34,13.83-.11,1.77.49,2.72,1.22,4.27,2.03,1.6.84,8.71,3.63,9.43,4.54.21.26.25,1.27-.29,1.36-.93.15-2.68,1.2-3.51.93-3.12-2.08-6.39-3.58-10.35-2.46-.39.11-1.03-.24-1.4-.19-.59.09-.5,1.35-.93,1.56-1.57.74-2.98,1.06-3.15,3.57-.9-.25-1.53-.9-1.82-1.47-.4-.78-.21-2.09.11-2.9-.71-.77-1.66-.69-2.58-1.24.13-.62.8-2.2.26-2.55-2.1-1.33-2.77,2.11-3.94,2.54-1.61.6-3.95.06-4.77,2.33-1.6,4.42,3.36,4.28,5.49,6.72,1.85,2.11-3.44,5.65-2,8.03,5.97-1.31,4.34-.2,9.88-1.52,3.34-.79,7.27.66,10.38-.45,3.49-1.24,6.8-2.68,10.25-.22.41.29,1.49.06,1.95-.12,1.18-.45.45-4.06,2.59-2.85,2.07,1.17,6.65,1.23,7.58-1.34-.6-4.67-7.44-.37-8.41-3.58l-1.18.61c-.12.06-4.27-2.51-2.26-4.83.93.44,2.22-.04,3.16.29,2.76.98,5.54,1.36,8.41,2.05,3.87.92,7.8.8,11.83.89l5.26.12c.78.02,1.91-.47,2.72-.25,1.17-.87,3-2.24,4.55-1.2.11.74-.6,1.8-1.11,2.07-2.01,1.07-2.64-1.05-4.87.35-1.17.74-.15,3.19-.86,6.01-4.55,2.64-6.59-2.02-9.17,1.45M395.44,681.91c0-.27-.22-.49-.49-.49s-.49.22-.49.49.22.49.49.49.49-.22.49-.49M396.72,684.35c0-.12-.1-.22-.22-.22s-.22.1-.22.22.1.22.22.22.22-.1.22-.22M421.13,685.24c0-.12-.1-.22-.22-.22s-.22.1-.22.22.1.22.22.22.22-.1.22-.22"/><path class="e" d="M469.84,406.46c-.33.04-.7-.08-.78-.44.36-.32.22-1.28.87-1.43.08.61-.04,1.27-.09,1.87"/><path class="e" d="M406.96,606.04c-1.38-.43-2.81-.18-4.4-1-3.05-1.58-12.05-5.96-13.04-9.17.94-.03,1.42.84,2.18,1.45,4.73,3.78,9.9,6.55,15.26,8.72"/><path class="e" d="M372.93,579.68c.54-.52,1.28.2,1.58.49.43.43.24,1.1-.29,1.62-.44.44-.93.18-1.41-.41-.31-.38-.71-.91.12-1.71"/><path class="e" d="M297.82,629.11c0,.27-.22.49-.49.49s-.49-.22-.49-.49.22-.49.49-.49.49.22.49.49"/><path class="e" d="M346.51,586.33c.46-.53.84-.29.96-.04.12.25.02.53-.23.66-.26.14-.68.09-.73-.62"/><path class="e" d="M323.9,580.3c0-.15-.02-.31,0-.46.55-.05.55.38,0,.46"/><path class="e" d="M299.1,628c0,.12-.1.22-.22.22s-.22-.1-.22-.22.1-.22.22-.22.22.1.22.22"/><path class="h" d="M322.67,579.02c-2.49,3.21-5.56,5.87-9.08,7.93-.34.04-.97-.12-1.42.19-4.89,3.33-9.88,5.62-15.17,8.39-15.46,8.12-32.21,13.23-49.78,13.64-6.73.16-13.27-.46-19.24-3.46-7.94-4-14.84-9.95-19.83-16.99,2.32.97,3.59,3.37,5.37,5.3,1.92,2.08,4.42,3.54,6.55,5.41,2.79,2.45,5.67,4.13,9.07,5.7,6.51,3.01,13.62,3.48,20.76,2.96,4.6-.34,8.86-.73,13.38-1.74,3.22-.72,6.3-1.07,9.55-2.06,9.47-2.89,18.51-6.59,27.18-11.38,3.15-1.74,6.1-3.17,9.12-5.11.82-.53,1.79-1.46,2.48-1.76,3.18-1.36,8.08-5.6,10.17-7.93l7.3-8.16c2.04-2.28,6.98-9.27,7.82-11.77.18-.54,1.14-1.01,1.47-1.64,4.43-8.31,8.03-22.75,9.19-32.13l1.03-8.33c1.64-13.23,2.57-26.58-3.25-38.88-1.16-2.44-1.68-4.92-3-7.24l-1.41-2.48c-7.11-12.48-14.45-18.72-27.13-24.99l-5.3-2.62c-10.16-5.02-20.38-7.24-31.73-8.1-6.39-.48-17.72,1.42-24.22,2.95-8.61,2.03-15.99,6.18-22.64,12.03-9.11,7.99-9.42,7.15-17.4,17.3-5.35,6.81-10.39,13.48-14.27,21.29-2.04,4.11-4.08,7.82-5.39,12.32-1.1,3.78-2.61,5.51-2.72,8.4-.08,2.07-.97,3.9-1.17,5.83l-1.07,10.43-.92,8.78c-.57,5.49-1.52,11.22-.28,16.4l.76,3.18c.67,2.79,1.05,5.33,1.81,8.04,2.11,7.49,6.42,15.12,11.64,20.86,1.06,1.17,1.73,2.5,3.07,3.58,1.7,1.37,2.72,3.46,4.16,5.57-1.66-.84-2.58-2.61-4.01-4.07-6.27-6.37-11.43-13.69-14.5-22.11-3.4-9.33-4.63-18.55-3.73-28.41l1.78-19.47c.59-6.41,2.2-12.19,4.51-18.1,7.97-20.41,20.49-36.71,37.09-50.85,6.91-5.88,14.88-9.95,23.87-12.14,23.18-5.63,41.91-2.38,62.75,8.68,9.47,5.03,17.48,11.17,23.39,20.32,7.04,10.9,11.29,23.37,11.66,36.51.14,4.9-1.78,18.39-2.35,23.81-.93,8.87-2.59,17.37-5.65,25.74-2.22,6.08-5.23,11.26-8.83,16.61-3.43,5.1-7.83,9.11-11.47,13.79"/><path class="h" d="M391.83,587.33c-2.16-1.14-4.57-1.33-6.12-2.98,2.21,1.02,4.7,1.3,7.14,2.11l5.38,1.78c5.96,1.97,11.55,4.11,17.85,4.76l15.73,1.61c2.78.28,5.17.03,7.97-.03l5.66-.13c3.12-.07,6.19-.89,9.28-1.05,3.32-.17,13.73-2.63,16.59-4.17,2.37-1.28,5.08-1.87,7.25-3.46.69-.5,1.15-.59,1.83-.93,2.85-1.4,5.63-3.05,8.29-4.8l4.32-2.84c3.72-2.45,7.02-5.3,10.52-8.14,4.81-3.92,8.25-8.93,12.03-13.77,5.39-6.9,10.06-18.1,11.64-26.92,1.79-9.97,1.42-11.87,1.22-22.12-.04-2.19-.87-4.23-1.1-6.34-.43-3.88-1.2-7.59-2.42-11.34-3.8-11.72-8.75-23.94-17.17-33.11-2.57-2.8-4.69-5.76-7.86-8.11-4.31-3.2-8.35-6.88-13.55-8.87-7.01-2.67-14.58-2.96-22.17-2.83-8.13.14-15.4,3.07-22.87,5.96-5.44,2.11-10.56,4.25-15.37,7.66-4.24,2.24-7.78,5.06-11.65,7.89-8.28,6.06-15.74,12.88-22.16,20.9-4.48,5.6-7.8,11.88-9.49,18.78-.69,2.82-1.51,5.27-2.4,7.96-.9,2.73-1.09,5.65-1.83,8.44-.79,2.98-.61,5.9-1,8.84-.18,1.35-.7,2.58-.77,4.11l-.98,23.18c-.49,11.55-1.28,24.05,7.84,33.13.64.63,1.81.74,1.81,1.75-1.75-.76-3.16-2.05-4.46-2.99-6.5-8.81-6.7-19.03-6.23-29.34l1.02-22.68c.6-13.42,3.42-26.5,8.2-39.03,3.2-8.38,8.78-15.3,15.21-21.16l5.38-4.9c9.7-8.84,22.95-18.1,35.18-22.94,7.55-2.99,15.06-5.62,23.24-6.37,3.39-.31,6.7-.07,10,.16,6.82.47,13.31,1.47,19.13,5.27,12.28,8.01,21.92,19.1,27.93,32.41,7.41,16.43,10.62,30.38,9.42,48.65-.72,10.92-4.59,20.86-9.99,30.29-4.74,8.27-11.08,14.98-18.46,20.97-10.63,8.63-24.62,17.1-37.95,20.52-7.94,2.03-15.83,2.17-23.93,2.44-2.1.07-3.83.27-5.98.09l-11.42-.97c-15.39-1.31-15.89-3.18-29.7-7.33"/><path class="h" d="M385.71,584.35c-.26-.06-.39-.08-.45-.11,0-1.01-1.18-1.11-1.81-1.75-9.12-9.09-8.33-21.59-7.84-33.13l.98-23.18c.06-1.53.58-2.76.77-4.11.39-2.94.21-5.87,1-8.84.74-2.79.94-5.71,1.83-8.44.88-2.69,1.71-5.14,2.4-7.96,1.69-6.9,5-13.19,9.49-18.79,6.42-8.02,13.88-14.84,22.16-20.9,3.87-2.83,7.41-5.65,11.65-7.89,4.81-3.41,9.94-5.55,15.37-7.66,7.46-2.89,14.74-5.82,22.87-5.96,7.59-.13,15.16.15,22.17,2.83,5.21,1.98,9.24,5.67,13.55,8.87,3.17,2.35,5.28,5.31,7.86,8.11,8.42,9.17,13.37,21.39,17.17,33.11,1.21,3.75,1.99,7.46,2.42,11.34.23,2.1,1.06,4.14,1.1,6.34.2,10.25.57,12.15-1.22,22.12-1.58,8.82-6.25,20.02-11.64,26.92-3.78,4.85-7.22,9.85-12.03,13.77-3.5,2.85-6.79,5.7-10.52,8.14l-4.32,2.84c-2.66,1.75-5.44,3.41-8.29,4.8-.68.33-1.14.42-1.83.93-2.17,1.58-4.88,2.18-7.25,3.46-2.87,1.55-13.27,4-16.59,4.17-3.09.16-6.16.98-9.28,1.05l-5.66.13c-2.8.07-5.19.32-7.97.03l-15.73-1.61c-6.3-.64-11.9-2.78-17.85-4.76l-5.38-1.78c-2.44-.81-4.94-1.09-7.14-2.11M500.9,453.85c.1-1.09-1.12-1.35-1.84-2.09-4.61-4.77-10.12-8.44-16.38-10.6-1.93-.66-3.33-.47-5.32-.26-10.13,1.08-3.97-1.93-14.98-.8l-6.1.63c-12.64,1.3-36.49,15.56-46.55,24.79-3.18,2.91-10.66,9.67-12.82,12.95-1.99,3.01-4.39,5.79-5.93,9.06-2.48,5.29-4.95,10.36-6.11,16.03l-2.65,12.97c-3.42,16.71-.34,23.74-1.69,34.8-.84,6.84-.71,13.39,1.37,20.05.55,1.75,1.83,3.42,2.79,4.96,2.18,3.5,5.5,5.35,9.47,6.08,7.3,1.34,13.83,4.59,20.94,6.42,5.93,1.52,12,1.27,17.99,2.22,3.13.5,5.86.17,8.95.05,8.46-.32,16.78-.89,24.76-3.73,5.9-2.1,11.2-4.72,16.43-8.03,1.17-.74,2.4-1.55,3.59-2.1,1.49-.69,2.4-1.7,3.69-2.55,3.06-2.03,5.9-4.02,8.69-6.47l5.94-5.21,2.72-2.95c1.65-1.79,3.4-3.7,4.74-5.76,8.63-13.27,14.1-32.18,12.08-47.88-1.14-8.81-2.78-17.29-6-25.48-3.99-10.15-9.2-20.28-17.76-27.09"/><path class="e" d="M559.04,487.67c-.1-4.98-3.47-13.62-5.56-18.39l-5.4-12.32c-4.01-9.14-16.38-21.07-25.05-25.17-9.85-4.66-10.55,0-17.06-4.59-.01-.14.04-.34-.02-.46-.89-1.62-.9-3.51-.93-5.34v-.82c-.21-.15-.46-.29-.68-.28.52,0-4.31,4.2-5.74,4.72-1.61.58-3.02,1.35-4.72,1.66-6.89,1.24-14.23-.25-19.6-4.58-2.98-2.4-4.3-5.66-4.83-9.13-.44.09-.25.67-.71.91-.02-1.1-.26-2.8-1.44-2.92-.78-.08-1.53.89-2.24.74-3.02,3.08-5.82,6.45-9.34,9.26-4.85,3.88-10.35,6.33-16.11,8.69-9.83,4.03-24.42,5.39-32.12-3.04-2.07-2.26-4.9-5.28-5.83-8.17-1.01.24-.55,1.56-1.04,2.18-4.3,5.46-10.95,3.86-17,1.98-9.84-3.06-17.78-10.01-17.55-20.73-1.5,2.34-4.11,3.79-6.4,5.59-8.39,6.59-18.81,9.82-29.31,6.63-5.45-1.65-8.77-7.4-11.75-11.22-2.78,5.19-3.52,12.17-8,17.24-5.6,6.33-9.88,8.73-18.62,8.65-3.97-.04-7.33-.51-10.63-3.01-6.42-4.86-9.26-11.61-7.76-19.72.19-1.05-.25-1.34-.38-2-.78-.17-.71.98-1.01,1.69-2.33,5.6-6.54,10.36-11.81,13.41-2.69,1.56-5.58,2.37-8.35,3.17-.36.11-1.08.15-1.33.48l-5.34-.03c-1.51,0-3.73-1.26-5.15-.39-2.28,1.41-4.22,3.02-6.66,4.18-7.88,3.76-14.35,9.07-20.51,14.93-.15.14-.34.25-.47.4-5.88,6.62-12.65,12.32-18.87,18.83l-11.08,11.6c-2.35,2.46-4.3,5.16-6.86,7.19-.17.14-.41.4-.52.59-1.02,1.83-2.77,3.1-3.95,4.83-.11.17-.31.28-.43.45-3.24,4.62-5.69,9.66-8.28,14.86-3.93,7.87-5.06,16.28-5.23,25.08-.25,12.61-2.45,21.06-1.41,35.2.67,9.1-.27,15.1.67,25.14l2.21,23.47c1.73,18.38,3.07,17.47,11.97,32.82l5.39,9.3c4.99,8.61,5.13,13.97,9.36,21.4l9.34,16.39c1.19,2.09,2.91,5.16,5.31,5.95,4.6,1.51,9.33,2.24,14.12,2.83l18.21,2.26c6.78.84,13.68-3.37,27.51-1.26,12.29,1.88,29.58,1.72,41.89.19l30.88-3.85c9.76-1.22,19.02-2.55,28.58-4.65,23.6-5.2,44.65-4.66,68.57-2.37l21.15,2.02c6.55.63,38.35,2.97,42.75,2.33l15.85-2.29c-2.76-5.01,3.17-14.11,6.03-17.53,2.09-2.49,3.64-4.93,5.26-7.75,8.8-15.35,8.6-25.14,14.57-36.37l4.01-7.55c2.42-4.56,4.29-9.1,5.42-14.19,1.2-5.39,2.82-10.53,4.53-15.71.62-1.87,1.95-3.36,2.05-5.15-.71-.08-1.46.25-1.68,1.13l-.73,2.97c-.36-.57-.28-1.01-.97-.63.51,1.33-1.13,2.66-.94,3.66.4,2.1-.05,3.23-.96,5.1-.38.79-.12,1.5-1,1.54-.99.04-1.3-.51-1.44-1.49-.08-.55-.24-1.11-.52-1.3-.45-.32-1.15-.22-1.4.18-.14.22-.05.95-.3,1.23-1.05,1.17-2.77.17-4.12.38-.7.11-.98,1.28-1.39.75-.45-.58-.98-1.23-.82-1.62.63-1.52,1.28.69,3.22-1.26.63-.63,1.02-1.03.39-1.59-1.41-1.26-2.3.51-3.31-.75-1.28-1.59.88-4.05,1.96-5.69,1.53-.2,1.72-1,2.47-1.98.93-1.22,1.09-1.84,1.25-3.18.27-2.18,3.31-2.12,4.89-1.47.58.24,1.29-.39,1.72-.1.34.23,1.27.56.76,1.2-.36.44-.86.98-.56,1.43.15.22.81.31,1.06.23.52-.18-.06-2.64.81-1.99,2.08,1.56.37-.5,1.6,2.94.92-.51,1.24-1.77,1.65-2.96,3.26-9.28,6.19-18.54,7.91-28.25,1.1-6.18.69-12.13,1.3-18.32,2.69-27.27-3.05-30.2-3.4-48.44M545.15,600.71c.12,0,.22.1.22.22s-.1.22-.22.22-.22-.1-.22-.22.1-.22.22-.22M544.26,603.37c.12,0,.22.1.22.22s-.1.22-.22.22-.22-.1-.22-.22.1-.22.22-.22M543.64,605.01c.06,1.14-.47,1.27-.54.24.06-.51.29-.71.54-.24M504.49,423.12c.03-.35.08-.68.14-.96.03-.14.06-.26.09-.37.06-.22.13-.37.19-.43-.06.06-.12.21-.19.43-.03.11-.06.23-.09.37-.06.28-.1.6-.14.96-.02.26-.04.54-.05.82,0-.28.02-.56.05-.82M372.93,579.68c.54-.52,1.28.2,1.58.49.43.43.24,1.1-.29,1.62-.44.44-.93.18-1.41-.41-.31-.38-.71-.91.12-1.71M371.13,578.31c-.06-.03-.14-.05-.24-.06.1,0,.18.02.24.06M338.14,687.46c-.16.37-.5.19-.68.24-.34.11-1-.24-.55-.81.17-.22.76-.06.97-.08.2-.02.4.33.26.66M431.24,678.74c-4.55,2.64-6.59-2.02-9.17,1.45,1.16,2.83,7.97,1.11,9.6,2.37.65.5,1.18,2.02,1.37,2.91.2.93-1.05.95-1.51,1.05-.62.13-1.21-.55-1.7-.77-7.68,3.04-12.15-2.3-21.13-1.1l1.47.87c-3.97,1.26-5.85-1.66-8.35-.62.1-2.59-3.37,1.88-4.42-.77-.57,1.02-1.41,1.11-2.3.74-2.64-1.12-2.74,1.51-4.6-.65-.98-.02-1.05.1-.06.62-1.32.73-8.86,1.45-11.18.83-1.89-.51-3.78.65-5.45.82-1.85.19-3.34.1-4.82,1.43-.91.82-2.68-.32-3.71.06-1.16.43-2.38.86-3.41-.11-.97-.92-1.77.15-2.54.06-2.46-.28-4.83-1.04-7.43-.2-1.13.36-2.39-.39-3.11-.57-1.15.92-2.62.25-4.04.34.28-.02-4.62,1.81-4.79-.5-.02-.3.05-.9.45-.98.69-.14,1.2.02,1.81-.22.45-.18.43-1.08.9-1.59.56-.6,1.35-.8,1.57-1.35.27-.67-.26-1.72-.08-2.3.85-1.12,2.8-1.68,2.7-3.49-.04-.8-1.32-.83-2.17-1.17.66-1.39,2.01-2.17,3.39-2.76,1.11-.47,1.68-1.5,2.63-2.12,6.41-4.17,4.96-5.85,12.74-8.62,1.47-.52,2.62-1.47,4.46-.9,1.23.38,2.01-.56,2.32-1.64.96-3.36-.04,2.58,2.39,1.78.36-.12-.59-1.4-.37-1.63,4.04-2.13,9.4-1.34,13.83-.11,1.77.49,2.72,1.22,4.27,2.03,1.6.84,8.71,3.63,9.43,4.54.21.26.25,1.27-.29,1.36-.93.15-2.68,1.2-3.51.93-3.12-2.08-6.39-3.58-10.35-2.46-.39.11-1.03-.24-1.4-.19-.59.09-.5,1.35-.93,1.56-1.57.74-2.98,1.06-3.15,3.57-.9-.25-1.53-.9-1.82-1.47-.4-.78-.21-2.09.11-2.9-.71-.77-1.66-.69-2.58-1.24.13-.62.8-2.2.26-2.55-2.1-1.33-2.77,2.11-3.94,2.54-1.61.6-3.95.06-4.77,2.33-1.6,4.41,3.36,4.28,5.49,6.72,1.85,2.11-3.44,5.65-2,8.03,5.97-1.31,4.34-.2,9.88-1.52,3.34-.79,7.27.66,10.38-.45,3.49-1.24,6.8-2.68,10.25-.22.41.29,1.49.06,1.95-.12,1.18-.45.45-4.06,2.59-2.85,2.07,1.17,6.65,1.23,7.58-1.34-.6-4.67-7.44-.37-8.41-3.58l-1.18.61c-.12.06-4.26-2.51-2.26-4.83.93.44,2.22-.04,3.16.29,2.76.98,5.54,1.36,8.41,2.05,3.87.92,7.8.8,11.83.89l5.26.12c.78.02,1.91-.47,2.72-.25,1.17-.87,3-2.24,4.55-1.2.11.74-.6,1.8-1.11,2.07-2.01,1.07-2.64-1.05-4.87.35-1.17.74-.15,3.19-.86,6.01M479.02,680.82c-.81.25-1.74-.97-2.52-.54-2.59,1.43-.46,1.35-3.17,3.43-1.32,1.01-2.3-1.52-3.18-.11-1.55,2.47,2.95-.3,3.76,2.38.2.65.54,1.1.95,1.56-2.8.47-5.32-.05-7.98-.06h-4.46c-7.15-.03-14.66.7-21.79-.59-2.07-.38-4.17.49-6.26-.63,1.34-.48,2.66-.09,3.11-1.86-.6-.41-1.35-.11-2.37-.54.56-1.18,1.94-.81,3.1-1.36.55-.26.82-1.11,1.41-1.12.58-.02,1.02.48,1.59.76,1.41.7,2.87-.28,4.28-.12,2,.23,3.77,1.82,5.78,1.88.81.02,1.67-.88,2.95-.04-.36-4.28,6.47-3.08,2.4-5.92.62-.68,1.28-1.48,2.31-2.13,1.05,1.12.67,2.47.61,3.73-.05,1.1,1.09,1.44,1.76,1.55,1.22.2,6.77-3.69,7.48-5.51,3.73,3.71,5.11,1.41,5.76,1.43.73.03.62,1.09,1.14,1.47.87.64,2.27-.14,3.29-.44-.56-2.18-.97-4.36-2.46-5.8-.39-.27-1.85.99-2.07-.25-.07-.38.51-.88.64-1.19.38-.9-1.53-1.78-.81-2.83.16-.24.55-.57,1.08-.66l4.35-.74c1.75,1.61,1.45,3.6.84,5.64-.27.88.7,1.74.62,2.6-.06.6-.47,1.11-.45,1.58.04.65.72.95,1.38,1.72-.74.97-1.81,2.33-3.07,2.72M450.39,680.46c-.95.09-1.6-.34-2.14-.76-.88-.68-.7-3.96.19-4.27.47-.16,1.42.23,1.74.92.59,1.27.15,2.67.2,4.1M456.47,596.74c.18.21.45.43.76.65.12.09.25.17.38.26.13.08.26.17.38.25.12.08.24.16.35.23-.11-.07-.23-.15-.35-.23-.12-.08-.25-.16-.38-.25-.13-.08-.26-.17-.38-.26-.31-.22-.59-.44-.76-.65-.21-.25-.27-.48-.06-.66-.21.18-.15.41.06.66M457.12,596.17c.05,0,.09,0,.13-.01.05,0,.1-.02.13-.04-.03.02-.08.03-.13.04-.04,0-.08.01-.13.01M454.63,605.55c-.2.04-.4.07-.6.08.2-.01.4-.04.6-.08M453.64,602.53c.17,0,.32.02.48.05.26.05.51.13.81.19.24.05.5.09.82.1-.32,0-.58-.05-.82-.1-.3-.06-.55-.14-.81-.19-.15-.03-.31-.05-.48-.05M456.47,604.85c-.16.09-.33.17-.49.24.17-.07.33-.15.49-.24M457.6,604c.2-.21.37-.45.51-.73-.14.27-.31.52-.51.73-.13.14-.27.27-.42.39.15-.12.29-.25.42-.39M452.97,597.81h0c.07-.01.16-.05.24-.09-.08.04-.16.07-.24.09M452.16,603.01c-.46.25-1.01.63-1.7,1.17.41.35.81.63,1.2.86-.4-.22-.79-.51-1.2-.86.69-.54,1.24-.91,1.7-1.17M459.94,670.96c.17-.16.43.11.57.15.19.06.64.42.36.62-.33.23-.53.08-.73.04-.25-.05-.63-.4-.21-.81M467.73,596.73s-.07,0-.11,0c-.07-.02-.14-.06-.2-.13-.06-.07-.12-.17-.17-.29-.07-.19-.13-.43-.15-.75.02.31.07.56.15.75.05.12.11.22.17.29.06.07.13.11.2.13.03,0,.07.01.11,0M470.68,592.62c.06-.01.12-.06.17-.12-.05.06-.11.11-.17.12M469.56,594.65c-.12.05-.24.11-.35.18.11-.08.23-.14.35-.18.19-.07.38-.11.58-.11-.2,0-.39.04-.58.11M479.72,591.85c-.11.08-.22.15-.32.21.1-.06.21-.13.32-.21M477.2,589.65c.11-.04.23-.09.36-.14-.13.05-.25.1-.36.14M476.67,589.86c-.06.03-.11.04-.14.06.03-.01.08-.03.14-.06.06-.03.14-.06.23-.09-.09.04-.17.07-.23.09M474.45,595.49c.22.18.46.35.72.51.17.1.35.2.52.28-.18-.08-.36-.18-.52-.28-.25-.16-.5-.33-.72-.51-.05-.04-.1-.08-.16-.11-.1-.07-.2-.13-.3-.19.1.05.2.11.3.19.05.04.1.07.16.11M473.66,592.69c.17-.09.37-.17.61-.25-.25.09-.45.17-.61.25M473.01,593.8c-.02.15-.02.28,0,.39.01.11.03.2.06.28-.03-.08-.05-.17-.06-.28-.01-.11,0-.24,0-.39.05-.49.18-.77.44-.97-.26.21-.39.48-.44.97M486.88,614.43c-.07.26-.55.48-.76.51-.41.05-.5-.6-.43-1.1.03-.27.96-.09,1.18-.05.21.04.08.43.02.64M500.01,578.39c-.08-.02-.15-.03-.21-.03.06,0,.14,0,.21.03M500.09,575.58c.06-.08.1-.18.11-.29,0,.11-.05.21-.11.29M500.93,579.61c-.1.18-.23.33-.36.46-.14.13-.29.24-.45.33-.16.09-.34.16-.52.22-.36.11-.75.15-1.13.14.38,0,.77-.03,1.13-.14.18-.05.35-.12.52-.22.16-.09.31-.2.45-.33.14-.13.26-.29.36-.46.19-.33-.08-.72-.44-.97-.12-.09-.24-.16-.36-.2.12.05.25.12.36.2.35.26.63.64.44.97M502.03,578.52c.05.09.09.18.14.26-.04-.08-.09-.17-.14-.26M502.41,579.17c.06.07.12.11.19.12-.06,0-.13-.05-.19-.12M503.88,575.06c.02-.13.06-.24.11-.34-.05.1-.09.21-.11.34-.07.43.29.64.74.78-.45-.15-.82-.35-.74-.78M511.83,574.58c.1.3.23.6.38.87-.15-.27-.28-.56-.38-.87M511.32,572.25c-.08-.44-.15-.85-.25-1.18.1.33.17.74.25,1.18.08.44.15.92.26,1.39-.11-.47-.18-.95-.26-1.39M510.51,568.77c.18-.07.3-.25.3-.46s-.12-.38-.3-.46c.18.07.3.25.3.46s-.12.38-.3.46M509.97,568.67c-.09-.09-.15-.21-.15-.35s.06-.26.15-.35c-.09.09-.15.21-.15.35s.06.26.15.35M506.19,570.93c.16.24.32.38.47.46-.16-.08-.32-.23-.47-.46M505.07,573.83c-.11.06-.22.12-.32.19-.16.09-.31.19-.44.31.13-.11.28-.21.44-.31.11-.06.21-.12.32-.19M505.85,576.26c-.13-.09-.32-.16-.54-.23-.11-.03-.23-.06-.34-.09.12.03.23.06.34.09.22.06.42.13.54.23.14.11.24.24.31.38-.07-.14-.16-.27-.31-.38M507.01,578.61c-.07.05-.15.11-.22.17.07-.06.15-.11.22-.17.14-.11.29-.2.43-.29-.14.09-.28.19-.43.29M506.79,571.44c.08.02.16.03.24.03-.08,0-.16,0-.24-.03M510.22,578.11h0c.04-.22.07-.43.09-.63-.02.2-.05.41-.09.63M530.14,523.06c-.5,6.51-3.99,18.42-6.86,24.09-3.23,6.39-7.19,12.06-11.93,17.27-1.92,2.11-3.94,3.86-5.39,6.08-1.04.07-1.31,1.2-1.9,1.79-.68.43-1.57.7-2.17,1.31-.45.46-1,.82-1.32,1.41l-.4.04c-.31-.11-.75-.21-.93.18-.09.19-.09.44-.03.64l-9.64,6.32c-2.76,1.81-5.7,3.13-8.12,5.15-.35,0-.73.09-.87.44-.11-.03-.3,0-.4.03-1.29.44-2.93,1-3.69,2.13-.46.02-1.01-.02-1.23.48-.58-.34-.97.35-1.34.47l-3.03.95c-.2.06-.64.09-.57.39-1.4,0-2.61.78-3.99.97-1.07.14-2.28.63-3.02,1.24-1.87-.35-4.02.74-5.87.94.01.1.05.23.07.35-.02-.12-.06-.25-.07-.35l-8.42.9c-.68.07-1.38.02-2.07.09-9.8.88-19.63-.05-29.4-1.01-1.05-.1-2.28-.49-3.49-.39-1.73.14-2.96-.54-4.51-.83-3.5-.65-6.71-1.6-9.76-3.11-1.74-.86-3.63-2.07-5.66-1.85,3.22,5.64,14.06,10.47,20.39,11.86,2.84.62,5.4,1.6,8.22,2.43,7.95,2.32,15.58,5.2,22.34,10.15,4.54,3.32,6.91,8.69,8.03,14.17,1.47,7.18.19,14.27-1.71,21.26-3.03,11.12-11.8,21.18-24.02,21.46-4.35.1-8.31-.01-12.52-.89-26.15-5.44-27.12-20.96-57.07-6.03-6.86,6.87-20.01,15.65-29.68,17.55-14.01,2.76-38.07,3.77-49.87-5.35-10.07-7.77-10.75-19.33-5.03-29.92,5.56-10.29,15.78-22.99,23.3-32.21,5.27-6.46,14.98-17.19,16.3-24.97-1-.08-2.03.26-2.89,1.02-2.23,1.95-8.79,4.68-10.23,5.75-1.11.82-1.87,1.32-3.13,1.88l-7.61,3.37c-4.73,2.09-16.43,5.99-21.41,6.87-9.23,1.63-17.9,3.9-27.39,2.41-1.31-.21-2.49.39-3.64.03-6.1-1.93-11.97-4.18-17.01-8.18l-4.26-3.37c-5.69-4.51-11.04-12.46-15.21-16.6-4.34-4.32-7.15-9.27-9.79-14.63-4.28-8.68-5.99-18.46-5.59-28.19.1-2.3.02-4.51.3-6.77l.81-6.6c.97-7.9.57-16.02,3.33-23.51l3.25-8.81c.37-1,.87-1.91.57-2.8,1.11-.88,1.99-2.49,2.17-4.01.14-1.2,1.26-1.49,1.64-2.39l1.85-4.41c.56-1.34,2.46-2.26,2.53-3.78.01-.24.35-.62.48-.81,1.81-1.12,2.76-3.47,3.44-5.44.2-.32.68-.92,1-1.12,1.07-.66,2.06-2.33,2.51-3.55.34-.59,1.36-1.11,1.46-1.83.9-.25,1.41-1.02,1.8-1.82.27-.57.62-1.1.8-1.72,1.35-.5,2.62-1.69,2.76-3.16,1.08-.45,1.52-1.64,2.55-2.16.28-.14,8.03-7.34,7.15-6.7,3.42-2.51,6.49-5.51,10.2-7.96,1.53-1,3.27-1.71,4.88-2.62,6.24-3.52,13.25-4.72,20.33-5.95,12.99-2.25,30.44-1.43,42.41,3.96l10.16,4.57c4.16,1.88,8.15,4.04,11.95,6.64,2.4,1.64,9.69,7.7,11.28,9.92l3.13,4.35c4.19,5.82,9.63,17.32,10.99,24.25l.78,3.99c1.37,6.99.59,13.52,0,20.47-.3,3.45-.02,6.54-.88,9.94-.46,1.81-.28,7.93-1.2,11.97l-.67,2.95-1.71,6.73c-.8,3.14-1.9,5.96-2.94,9.01-1.39,4.09-3.02,7.84-5.54,11.41-1.79,2.54-3.18,5.31-5.11,7.7-1.28,1.58-2.76,2.88-3.88,4.57-.98,1.48-2.32,2.78-3.39,3.97-.84.36-1.68.91-1.95,1.82-.04.14.06.34.05.49.55-.05.55.38,0,.46.12,6.36-1.08,12.47-4.62,18.08-3.42,5.42-7.31,10.16-11.44,15.1l-18.8,22.49c-6.27,7.49-12.56,15.32-10.61,25.65,1.02,5.4,4.8,8.99,9.78,10.92,11.97,4.64,32.4,3.32,44.66-.73,8.01-2.64,14.3-7.83,20.18-13.55,3.64-3.53,8.64-4.84,13.37-6.13,6.01-1.64,11.91-2.38,18.04-1.35,13.32,2.24,14.99,9.88,37.06,12.22,3.7.39,7.41.61,10.84-.83,9.96-4.17,13.35-16.77,13.9-26.7.92-16.4-11.22-20.56-24.56-24.76l-14.77-4.66c-1.38-.43-2.81-.18-4.4-1-3.05-1.58-12.05-5.96-13.04-9.17-.04-.14-.27-.21-.34-.34-2.65-.78-4.21-3.5-5.93-5.75-2.06-2.7-3.43-5.64-4.44-8.91-.26-.83-.65-1.58-1.27-1.94-.55-2.37-2.85-5.35-3.21-8.47l-.97-8.4c-.45-3.91.02-7.86.15-11.78l.38-11.68.37-5.36.51-11.58,1.19-6.65c.66-3.65,1.89-7.04,1.29-10.74,1.92-.53,1.47-2.08,1.83-3.37l2.35-8.3c1.64-5.78,7.77-15.71,11.78-20.07.78-.86,1.78-1.48,2.6-2.26l5.66-5.41c1.26-1.2,2.89-2.28,3.95-3.62,2.04-2.59,8.04-6.5,11.05-8.5l9.56-6.35c5.49-3.65,25.08-11.48,30.99-11.9,2.6-.18,5.12-.89,7.59-.79l10.03.39c4.9.19,10.09.71,14.56,3.26,5.17,2.95,10.04,6.59,14.46,10.53,4.56,4.07,7.97,8.67,11.44,13.53,2.96,4.14,5.07,8.37,6.93,13.09l2.66,6.75c.98,2.5,2.15,4.79,2.41,7.59.21,2.33,1.26,4.48,1.64,6.77,1.69,10.27,2.19,16.91,1.39,27.42M449.42,597.22s-.05,0-.08-.01c-.05-.02-.09-.04-.13-.08.04.04.08.07.13.08.02,0,.05.01.08.01M444.67,599.14c-1.27.09-2.53.14-3.79.16,1.26-.02,2.52-.07,3.79-.16M435.83,599.24c-.43-.01-.85-.03-1.28-.04-.23,0-.47-.01-.7-.01.23,0,.47,0,.7.01.43.02.86.03,1.28.04M433.5,599.19c-.12,0-.23,0-.35,0,.12,0,.23,0,.35,0M428.33,597.64c-.39-.02-.76-.12-1.11-.24-.27-.09-.53-.2-.79-.29.26.1.52.2.79.29.36.12.73.22,1.11.24M347.24,586.96c-.26.14-.68.09-.73-.62.46-.53.84-.29.96-.04.12.25.02.53-.23.66M311.08,612.69c0-.23,0-.48.05-.64.1-.31.38-.37.61-.24.28.15.53.63.31.85-.25.12-.71-.06-.97.04M299.1,628c0,.12-.1.22-.22.22s-.22-.1-.22-.22.1-.22.22-.22.22.1.22.22M297.82,629.11c0,.27-.22.49-.49.49s-.49-.22-.49-.49.22-.49.49-.49.49.22.49.49M551.77,557.44c.15-.05.3-.09.43-.1.03,0,.06,0,.1,0-.03,0-.06,0-.1,0-.13.01-.27.06-.43.1s-.32.1-.49.13c-.09.02-.17.02-.26.02.09,0,.18,0,.26-.02.17-.03.34-.08.49-.13M549.21,555.84c-.14-.18-.3-.3-.5-.32.2.02.36.14.5.32M551.51,559.58c.23-.03.45-.07.64-.12-.19.05-.41.09-.64.12M554.92,527.6c-.14,0-.26-.12-.26-.26s.12-.26.26-.26.26.12.26.26-.12.26-.26.26M560.02,536.42c-.27,0-.49-.22-.49-.49s.22-.49.49-.49.49.22.49.49-.22.49-.49.49M560.02,513.35c-.27,0-.49-.22-.49-.49s.22-.49.49-.49.49.22.49.49-.22.49-.49.49"/><path class="e" d="M394.95,681.42c-.27,0-.49.22-.49.49s.22.49.49.49.49-.22.49-.49-.22-.49-.49-.49"/><path class="e" d="M420.9,685.02c-.12,0-.22.1-.22.22s.1.22.22.22.22-.1.22-.22-.1-.22-.22-.22"/><path class="e" d="M396.5,684.13c-.12,0-.22.1-.22.22s.1.22.22.22.22-.1.22-.22-.1-.22-.22-.22"/><path class="e" d="M438.37,683.9c-.68.72.01.7.31.71.66.01.82-.39.63-.7-.17-.29-.56-.41-.94,0"/><path class="e" d="M540.86,595.68c-.14-.1-.26-.27-.6,0-.37.3-.25.69.06.93.25.19.71.18,1.04-.25.15-.2-.14-.44-.5-.68"/><path class="e" d="M545.48,596.29c.17-.65.49-.87.34-1.13-.14-.25-.42-.33-.67-.23-.28.12-.27.45-.2.9-.17.73.19,1.16.53.46"/><path class="h" d="M208.15,588.71c-1.44-2.11-2.46-4.19-4.16-5.57-1.33-1.08-2.01-2.41-3.07-3.58-5.22-5.74-9.53-13.37-11.64-20.86-.76-2.71-1.14-5.25-1.81-8.04l-.76-3.18c-1.24-5.18-.3-10.9.28-16.4l.92-8.78,1.07-10.43c.2-1.92,1.09-3.75,1.17-5.83.11-2.89,1.62-4.62,2.72-8.4,1.31-4.5,3.34-8.22,5.39-12.32,3.88-7.81,8.92-14.48,14.27-21.29,7.98-10.15,8.29-9.3,17.4-17.3,6.65-5.84,14.03-10,22.64-12.03,6.51-1.53,17.83-3.43,24.22-2.95,11.35.86,21.56,3.08,31.73,8.1l5.3,2.62c12.68,6.26,20.02,12.5,27.13,24.99l1.41,2.48c1.32,2.32,1.85,4.8,3,7.24,5.83,12.3,4.89,25.66,3.25,38.88l-1.03,8.33c-1.16,9.38-4.76,23.82-9.19,32.13-.33.62-1.29,1.09-1.47,1.64-.85,2.5-5.78,9.48-7.82,11.77l-7.3,8.16c-2.09,2.34-6.99,6.57-10.17,7.93-.69.3-1.66,1.23-2.48,1.76-3.02,1.94-5.97,3.37-9.12,5.11-8.67,4.79-17.71,8.49-27.18,11.38-3.26.99-6.34,1.34-9.55,2.06-4.52,1.01-8.78,1.4-13.38,1.74-7.15.52-14.25.06-20.76-2.96-3.39-1.57-6.28-3.25-9.07-5.7-2.13-1.87-4.63-3.33-6.55-5.41-1.78-1.93-3.05-4.33-5.37-5.3M214.76,587.44c.57,3.55,6.75,6.19,8.18,9.92,4.76,1.9,5.89,3.83,11.29,5.63,3.36,1.12,6.84.54,10.28.95,2.19.26,4.03.24,6.14.14,5.92-.26,21.18-3.51,25.94-5.53l11.52-4.89c14.1-5.98,24.2-10.03,34.33-21.96l5.26-6.2c1.42-1.68,2.31-3.52,3.68-5.22,5.11-6.3,8.52-17.6,10.35-25.54.59-2.55.8-5.18,1.06-7.82l.89-8.8.79-5.89c.52-3.91,1.19-7.81,1.07-11.86-.34-11.18-3.79-21.62-8.53-31.63-3.07-6.47-7.81-11.5-13.48-15.78-1.46-1.1-2.66-2.45-4.33-3.22l-10.92-5.09c-8.73-4.07-17.74-7.4-27.35-8.87-2.88-.44-11.52-.34-14.68.05-7.99.97-18.77,4.26-25.73,8.26-3.88,2.23-7.25,4.62-10.61,7.56-2.06,1.81-4.28,3.29-6.16,5.41l-7.7,8.72c-2.46,2.78-4.12,6.1-6.51,8.96-1.68,2-2.51,4.17-3.75,6.45l-5.29,9.78c-1.04,1.92-1.6,4.03-2.67,5.84-1.56,2.65-3.63,8.25-4.09,11.5l-.83,5.82c-.58,4.06-.92,7.93-1.33,11.99-.6,5.95-1.64,11.68-1.09,17.66.31,3.33,1.25,6.34,2.01,9.53,1.17,4.94,3.39,9.19,6.16,13.38l5.12,7.74c2.64,3.99,6.87,9.99,10.98,12.99"/><path class="h" d="M500.9,453.85c-.26-.03-.72.06-1.05-.22-4.16-3.64-13.9-12.54-20.19-12.04l-5.28.42c-2.16.17-3.64-.23-5.54-1.22-1.93-1-4.72.13-6.84.18-7.36.16-20.82,5.3-27.32,8.76-12.87,6.85-24.66,15.36-34.4,26.22-5.19,5.79-9.07,12.16-11.65,19.46-4.29,12.12-6.85,24.5-7.14,37.39-.14,6.47.56,12.57-.06,18.9-.96,9.86-.69,21.98,8.2,28.19,1.81,1.26,4.06,1.34,6.21,1.75,10.32,1.94,11.89,5.42,25.25,7.25,9.54,1.31,18.77,1.53,28.41.87,8.13-.56,15.65-2.11,22.98-5.64,14.07-6.78,28.69-16.7,38.25-29.08,7.98-10.33,12.79-26.12,13.49-39.11.12-2.28.26-4.23-.02-6.61-2.43-20.7-7.8-37.67-21.69-53.38-.6-.68-1.58-.87-1.61-2.08,8.56,6.81,13.77,16.94,17.76,27.09,3.22,8.2,4.87,16.67,6,25.48,2.03,15.69-3.45,34.6-12.08,47.88-1.34,2.06-3.09,3.97-4.74,5.76l-2.72,2.95-5.94,5.21c-2.79,2.45-5.64,4.44-8.69,6.47-1.28.85-2.2,1.87-3.69,2.55-1.2.55-2.43,1.36-3.59,2.1-5.23,3.3-10.53,5.93-16.43,8.03-7.98,2.83-16.3,3.41-24.76,3.73-3.08.12-5.81.45-8.95-.05-5.99-.95-12.06-.69-17.99-2.22-7.11-1.83-13.64-5.08-20.94-6.42-3.97-.73-7.29-2.58-9.47-6.08-.96-1.54-2.24-3.22-2.79-4.96-2.08-6.66-2.21-13.21-1.37-20.05,1.35-11.06-1.73-18.08,1.69-34.8l2.65-12.97c1.16-5.67,3.62-10.74,6.11-16.03,1.54-3.27,3.94-6.05,5.93-9.06,2.16-3.28,9.65-10.04,12.82-12.95,10.06-9.22,33.91-23.49,46.55-24.79l6.1-.63c11.01-1.13,4.85,1.88,14.98.8,1.99-.21,3.39-.41,5.32.26,6.26,2.16,11.78,5.83,16.38,10.6.72.74,1.94,1,1.84,2.09"/><path class="h" d="M214.76,587.44c1.33.39,3.74,4.29,5.31,4.47.34.52.9.77,1.24,1.21,4.19,5.4,10.81,8.9,17.85,9.79,8.04,1.01,15.61.5,23.52-1.43,11.36-2.78,22.1-7.03,32.73-11.96,7.76-3.6,15.1-7.47,21.46-13.19,4.13-3.71,7.34-7.94,10.69-12.36,6.38-8.43,10.91-17.61,12.88-28.09,1.22-6.48,2.64-21.2,3.52-28.76l.84-7.13c.5-4.3-2.98-16.91-4.55-21.22-4.39-12.03-7.29-17.16-17.33-25.22-4.68-3.76-10.09-6.03-15.64-8.4-7.12-3.04-13.88-6.19-21.61-7.62-13.67-2.53-27.91-.57-40.47,5.29-6.4,2.98-11.55,7.23-16.94,11.56-3.3,2.65-5.96,5.48-8.56,8.8-4.44,5.66-8.98,10.95-12.36,17.37-4.05,7.7-8.51,14.94-11.12,23.29-2.44,7.81-5.38,31.68-4.79,39.53,1.26,16.87,13.8,31.52,23.35,44.08-4.1-3-8.34-9-10.98-12.99l-5.12-7.74c-2.77-4.19-4.99-8.44-6.16-13.38-.76-3.19-1.7-6.2-2.01-9.53-.55-5.97.49-11.7,1.09-17.66.41-4.06.75-7.93,1.33-11.99l.83-5.82c.46-3.25,2.53-8.85,4.09-11.5,1.07-1.81,1.63-3.92,2.67-5.84l5.29-9.78c1.23-2.28,2.07-4.45,3.75-6.45,2.4-2.86,4.06-6.17,6.51-8.96l7.7-8.72c1.87-2.12,4.09-3.6,6.16-5.41,3.36-2.94,6.73-5.33,10.61-7.56,6.95-4,17.73-7.28,25.73-8.26,3.16-.38,11.8-.49,14.68-.05,9.61,1.46,18.62,4.8,27.35,8.87l10.92,5.09c1.67.78,2.86,2.12,4.33,3.22,5.67,4.28,10.42,9.31,13.48,15.78,4.74,10.01,8.19,20.45,8.53,31.63.12,4.05-.55,7.95-1.07,11.86l-.79,5.89-.89,8.8c-.27,2.64-.48,5.27-1.06,7.82-1.82,7.94-5.24,19.24-10.35,25.54-1.38,1.7-2.26,3.55-3.68,5.22l-5.26,6.2c-10.13,11.93-20.23,15.98-34.33,21.96l-11.52,4.89c-4.76,2.02-20.03,5.27-25.94,5.53-2.11.09-3.95.12-6.14-.14-3.44-.41-6.92.17-10.28-.95-5.4-1.8-6.54-3.73-11.29-5.63-1.43-3.72-7.6-6.37-8.18-9.92"/><path class="e" d="M500.9,453.85c.03,1.21,1.01,1.4,1.61,2.08,13.9,15.71,19.27,32.68,21.69,53.38.28,2.38.14,4.33.02,6.61-.7,12.99-5.51,28.78-13.49,39.11-9.56,12.38-24.18,22.3-38.25,29.08-7.33,3.53-14.84,5.08-22.98,5.64-9.63.66-18.87.44-28.41-.87-13.36-1.83-14.93-5.31-25.25-7.25-2.15-.4-4.4-.49-6.21-1.75-8.89-6.21-9.16-18.33-8.2-28.19.62-6.33-.09-12.44.06-18.9.29-12.89,2.85-25.27,7.14-37.39,2.58-7.3,6.46-13.67,11.65-19.46,9.75-10.86,21.53-19.38,34.4-26.22,6.51-3.46,19.97-8.6,27.32-8.76,2.12-.04,4.91-1.18,6.84-.18,1.9.99,3.37,1.4,5.54,1.22l5.28-.42c6.29-.5,16.03,8.4,20.19,12.04.32.28.79.19,1.05.22M449.16,588.6c5.88-.22,11.33-1.06,16.57-3.06,4.71-1.8,9.15-3.58,13.4-6.25,2.56-1.61,5.2-2.86,7.7-4.63,3.15-2.25,6.33-4.19,9.31-6.78,1.5-1.31,2.61-2.57,4.12-3.87l2.85-2.46c5.48-4.74,11.48-13.45,14.15-20.46.84-2.21,1.64-4.41,2.22-6.73.59-2.4-.07-6.4,1.34-7.64.01,1.27.4,1.48.92.63l.61-4.65c1.07-8.14.69-15.79-.96-23.77-1.87-9.04-2.79-14.31-7.26-22.63-3.24-6.03-2.49-6.88-7.73-13.27-2.16-2.64-4-5.32-6.51-7.7-3.42-3.25-6.8-6.17-10.92-8.6-1.04-.62-1.7-1.55-3.05-1.89-1.83-.47-3.72-2.2-5.78-2.02-2.34.21-4.48.37-6.71.1l-7.13-.86c-3.5-.42-7.25.42-10.75.99-5.44.88-15.09,5.51-20.47,7.87-3.08,1.35-5.7,3.47-8.65,5.11-10.97,6.11-31.34,23.62-34.84,35.36-.64,2.14-5.63,11.96-6.43,19.67l-.51,4.9c-.65,6.32-2.13,12.36-2.11,18.73l.03,12.22c.03,9.67-1.88,14.09,1.37,23.06.87,2.4,1.74,4.46,3.45,6.36,3.93,4.35,10.08,4.23,10.91,4.52l10.26,3.61c1.85.65,3.52,1.54,5.37,2.11,8.02,2.46,26.08,2.4,35.21,2.06"/><path class="e" d="M221.32,593.12c.21-.16.5-.39.78-.29.27.1.44.45.69.75,1.84,2.16,4.33,3.42,6.65,4.94,4.83,3.17,10.31,3.55,15.95,3.69,11.79.3,22.7-2.7,33.47-6.99l7.66-3.05,6-2.76c3.12-1.43,6.06-2.63,9.15-4.21,7.84-4,14.93-9.21,20.32-16.16,2.68-3.45,5.32-6.53,7.72-10.12,5.51-8.25,8.16-15.19,10.02-25.01,1.34-7.1,2.53-14.16,2.94-21.46l.25-4.54.83-4.46c.56-3-1.32-12.61-2.17-16.04-1.46-5.85-3.66-11.85-6.39-17.07-1.95-3.73-2.34-5.13-5.56-8.42-5.06-5.17-8.87-9.4-15.66-12.4l-11.33-5c-1.6-.71-3.02-1.45-4.75-2l-6.69-2.15c-10.46-3.36-26.23-3.61-35.79-.1l-8.19,3.01c-2.35.87-4.54,2.22-6.79,3.39-2.75,1.44-11.74,8.74-13.85,10.95l-4.78,5.01-5.91,6.93-2.12,3.23c-2.21,3.37-4.47,6.47-6.5,9.92-1.07,1.82-1.65,3.77-2.84,5.5-2.63,3.84-3.82,8.32-5.96,12.33-1.41,2.65-2.08,5.19-2.61,8.22l-.86,4.87c-.65,3.69-1.34,7.2-1.43,10.91l-.18,7.78c-.06,2.39-.3,4.74-.44,7.1-.89,14.21,6.07,24.45,13.75,35.25l2.94,4.14c3.29,4.63,7.42,8.53,10.45,13.09-1.58-.18-3.99-4.08-5.31-4.47-9.55-12.56-22.09-27.21-23.35-44.08-.59-7.85,2.35-31.72,4.79-39.53,2.61-8.35,7.07-15.6,11.12-23.29,3.38-6.42,7.92-11.71,12.36-17.37,2.6-3.32,5.27-6.15,8.56-8.8,5.38-4.32,10.54-8.58,16.94-11.56,12.56-5.85,26.8-7.82,40.47-5.29,7.74,1.43,14.5,4.58,21.61,7.62,5.55,2.37,10.96,4.64,15.64,8.4,10.04,8.06,12.94,13.19,17.33,25.22,1.57,4.31,5.06,16.92,4.55,21.22l-.84,7.13c-.89,7.56-2.31,22.28-3.52,28.76-1.97,10.48-6.5,19.66-12.88,28.09-3.34,4.42-6.56,8.65-10.69,12.36-6.36,5.72-13.7,9.6-21.46,13.19-10.63,4.93-21.37,9.18-32.73,11.96-7.91,1.93-15.48,2.44-23.52,1.43-7.04-.88-13.65-4.38-17.85-9.79"/><path class="e" d="M221.32,593.12c-.34-.44-.9-.69-1.24-1.21-3.02-4.56-7.15-8.46-10.44-13.09l-2.94-4.14c-7.68-10.81-14.63-21.04-13.75-35.25.15-2.35.39-4.71.44-7.1l.18-7.78c.09-3.71.78-7.22,1.43-10.91l.85-4.87c.53-3.03,1.2-5.57,2.61-8.22,2.14-4.02,3.33-8.49,5.96-12.33,1.19-1.73,1.77-3.67,2.84-5.5,2.03-3.45,4.29-6.56,6.5-9.93l2.12-3.23,5.91-6.93,4.78-5.01c2.11-2.22,11.1-9.51,13.85-10.95,2.24-1.18,4.43-2.53,6.79-3.39l8.19-3.01c9.56-3.51,25.32-3.26,35.79.1l6.69,2.15c1.72.55,3.15,1.3,4.75,2l11.33,5c6.79,3,10.6,7.22,15.66,12.4,3.22,3.29,3.61,4.69,5.56,8.42,2.73,5.23,4.93,11.23,6.39,17.07.86,3.43,2.73,13.04,2.17,16.04l-.83,4.46-.25,4.54c-.41,7.3-1.6,14.36-2.94,21.46-1.86,9.82-4.51,16.76-10.02,25.01-2.4,3.59-5.04,6.67-7.72,10.12-5.38,6.95-12.47,12.16-20.32,16.16-3.09,1.58-6.03,2.77-9.15,4.21l-6,2.76-7.66,3.05c-10.77,4.3-21.68,7.29-33.47,6.99-5.64-.14-11.12-.52-15.95-3.69-2.32-1.53-4.81-2.78-6.65-4.94-.25-.29-.42-.65-.69-.75-.28-.11-.57.13-.78.29M291.4,570.28c2.06-.72,4.17-1.03,6.16-1.86,10.66-4.45,14.5-7.28,19.77-17.36,1.63-3.12,3.33-5.93,4.61-9.26,1.79-4.66,2.82-9.45,4.2-14.24.9-3.12,1.93-6.09,2.21-9.39.62-7.13.91-14.18-.59-21.18-.73-3.42-5.02-11.89-6.93-14.8-1.77-2.69-3.95-5.17-6.24-7.34l-9.18-8.7c-1.59-1.51-3.37-2.93-5.29-4.01l-4.19-2.36c-8.15-4.6-17.14-6.41-26.56-6.39-6.03.01-11.64.55-17.45,2.16-3.66,1.01-7.17,1.94-10.47,4.25-5.79,4.04-9.97,9.88-13.69,15.86-1.18,1.9-2.03,3.34-2.81,5.4-1.2,3.19-2.72,6.12-3.69,9.45-.97,3.31-2.08,6.53-2.81,9.97-.29,1.39.31,2.92-1.02,4.03.29,3.37-.62,6.49-1.07,9.76l-.98,7.09c-1.3,9.42,6.9,31.94,13.91,38.26,1.79,1.61,3.58,3.34,5.96,4.22,1.85.69,3.27,2.07,5.04,2.86.95.42,2.05.59,3.06.97,10.66,4.05,18.89,3.79,30.06,3.73,4.68-.02,14.08.27,17.99-1.1"/><path class="e" d="M449.16,588.6c-9.13.34-27.2.41-35.21-2.06-1.85-.57-3.53-1.46-5.37-2.11l-10.26-3.61c-.83-.29-6.98-.17-10.91-4.52-1.72-1.9-2.59-3.96-3.45-6.36-3.25-8.97-1.34-13.39-1.37-23.06l-.04-12.22c-.02-6.37,1.46-12.42,2.11-18.73l.51-4.9c.8-7.71,5.79-17.53,6.43-19.67,3.51-11.74,23.87-29.25,34.84-35.36,2.95-1.64,5.57-3.76,8.65-5.11,5.38-2.36,15.02-6.99,20.47-7.87,3.51-.57,7.26-1.41,10.75-.99l7.13.86c2.23.27,4.37.11,6.71-.1,2.06-.18,3.94,1.55,5.78,2.02,1.36.34,2.01,1.28,3.05,1.89,4.11,2.43,7.5,5.35,10.92,8.6,2.51,2.38,4.34,5.06,6.51,7.7,5.23,6.39,4.48,7.24,7.73,13.27,4.47,8.32,5.39,13.59,7.26,22.63,1.65,7.98,2.03,15.64.96,23.77l-.61,4.65c-.52.85-.91.64-.92-.63-1.41,1.25-.75,5.25-1.34,7.64-.58,2.32-1.38,4.52-2.22,6.73-2.66,7.01-8.66,15.71-14.15,20.46l-2.85,2.46c-1.51,1.31-2.62,2.56-4.12,3.87-2.98,2.59-6.15,4.53-9.31,6.78-2.49,1.78-5.14,3.02-7.7,4.63-4.25,2.68-8.69,4.45-13.4,6.25-5.24,2-10.69,2.84-16.57,3.06M469.21,567.9c10.68-3.6,19.9-6.57,25.2-17.3,4.49-9.08,7.67-15.9,11.05-25.68,1.17-3.39,1.41-7.11,2.06-10.75.65-3.63.65-13.21-.12-16.31l-1.73-6.99c-.38-1.55-1.22-2.68-1.87-3.98-2.42-4.86-5.47-9.04-9-13.13-5.53-6.42-15-11.07-23.12-13.15-1.56-.4-3.26.11-4.87-.03-7.66-.66-21.5-1.37-28.3,1.34-6.02,2.39-10.98,5.75-15.79,9.9-3.42,2.95-6.65,6.07-9.24,9.82-1.31,1.91-6.16,10.24-6.74,11.93-1.25,3.65-2.76,7.29-3.46,11.21-1.7,9.52-1.74,19.49.03,29.23,1.54,8.48,5.44,15.98,8.81,23.71,1.08,2.47,2.13,4.39,4.01,6.21,1.15,1.12,2.06,2.34,3.54,3.18,1.3.74,1.83,2.27,3.2,2.86,7.24,3.12,14.91,4.6,22.64,3.13,2.47-.47,4.95-.51,7.42-1.02l9.22-1.89c2.37-.49,4.62-1.48,7.04-2.3"/><path class="e" d="M291.4,570.28c-3.91,1.37-13.31,1.08-17.99,1.1-11.17.06-19.4.32-30.06-3.73-1.01-.38-2.11-.55-3.06-.97-1.77-.79-3.19-2.17-5.04-2.86-2.38-.89-4.17-2.61-5.96-4.22-7.02-6.32-15.21-28.84-13.91-38.26l.98-7.09c.45-3.27,1.37-6.38,1.07-9.76,1.33-1.11.72-2.65,1.02-4.03.73-3.44,1.84-6.66,2.81-9.97.97-3.32,2.49-6.25,3.69-9.45.77-2.06,1.63-3.51,2.81-5.4,3.72-5.98,7.89-11.82,13.69-15.86,3.31-2.31,6.81-3.24,10.47-4.25,5.81-1.6,11.42-2.15,17.45-2.16,9.42-.02,18.41,1.8,26.56,6.39l4.19,2.36c1.92,1.08,3.71,2.51,5.29,4.01l9.18,8.7c2.29,2.18,4.47,4.65,6.24,7.34,1.91,2.91,6.2,11.39,6.93,14.8,1.49,7,1.2,14.04.59,21.18-.29,3.31-1.32,6.27-2.21,9.39-1.38,4.8-2.41,9.58-4.2,14.25-1.27,3.32-2.98,6.13-4.61,9.26-5.26,10.08-9.1,12.92-19.77,17.36-1.99.83-4.1,1.14-6.16,1.86M233.44,560.74c4.13,4.69,19.42,9.05,25.44,9.12l27.34.34c7.43-1.5,14.41-3.57,20.54-7.96,4.28-3.06,7.14-7.54,9.65-12.09,1.84-3.34,3.69-6.54,4.83-10.18,4.81-15.35,9.7-28.15,4.67-44.53-2.07-6.76-5.89-12.34-10.33-17.63-2.72-3.24-5.86-5.63-8.78-8.57-9.72-9.78-22.26-14.73-36.14-14.59-8.9.09-17.67.63-25.82,4.56-4.31,2.08-7.51,5.74-10.53,9.32-4.21,5.01-7.32,10.29-9.78,16.35-2.7,6.65-4.75,13.28-5.79,20.44-.69,4.73-1.56,9.19-1.98,13.97-.69,7.89.97,15.65,4.17,22.89l3.58,8.1c1.87,4.24,4.61,7.8,8.94,10.46"/><path class="e" d="M469.21,567.9c-2.42.82-4.67,1.81-7.04,2.3l-9.22,1.89c-2.47.51-4.95.55-7.42,1.02-7.73,1.48-15.4,0-22.64-3.13-1.37-.59-1.89-2.12-3.2-2.86-1.48-.84-2.39-2.06-3.54-3.18-1.88-1.83-2.93-3.74-4.01-6.21-3.37-7.73-7.27-15.23-8.81-23.71-1.77-9.74-1.74-19.71-.03-29.23.7-3.92,2.21-7.57,3.46-11.21.58-1.69,5.43-10.02,6.74-11.93,2.58-3.75,5.82-6.87,9.24-9.82,4.81-4.15,9.77-7.51,15.8-9.9,6.8-2.7,20.64-1.99,28.3-1.34,1.61.14,3.31-.37,4.87.03,8.12,2.08,17.59,6.74,23.12,13.15,3.53,4.09,6.58,8.27,9,13.13.65,1.3,1.49,2.43,1.87,3.98l1.73,6.99c.77,3.11.77,12.68.12,16.31-.65,3.63-.89,7.36-2.06,10.75-3.38,9.78-6.56,16.6-11.05,25.68-5.3,10.72-14.52,13.69-25.2,17.3M423.41,567.86c5.46,4.19,13.16,5.43,20.37,4.51,11.43-1.46,22.32-4.12,32.94-8.42,5.63-2.28,10.73-5.63,14.38-10.41,3.78-4.94,5.77-10.58,8.25-16.23,3.8-8.67,6.74-17.33,7.61-26.9,2.01-22.05-14.03-44.38-35.7-48.5-5.3-1.01-22.25-1.5-27.37-.28-7.9,1.89-14.82,6.05-20.64,11.6-2.04,1.95-3.96,3.68-5.79,5.86-14.83,17.62-18.31,42.16-10.2,63.66,2.49,6.61,4.93,13.05,8.97,18.89,1.77,2.55,4.36,4.26,7.17,6.22"/><path class="h" d="M233.44,560.74c1.29-.18,2.11,1.09,3.33,1.6,2.11.89,4.07,1.76,6.06,2.83,2.89,1.55,6.18,1.8,9.27,2.76,4.22,1.32,14.17,1.62,18.63,1.44,2.45-.1,4.56.65,7.15-.12,1.27-.38,2.84.48,4.22.34,7.78-.8,14.96-2.64,21.76-6.74,5.93-3.57,9.57-9.58,12.86-15.53,2.27-4.11,3.8-8.21,5.12-12.71l3.12-10.62c4.19-14.28,2.23-27.57-5.81-40.06-3.08-4.79-11.39-12.56-15.85-16.59-3.88-3.51-8.09-5.85-12.91-7.93-7.06-3.05-14.61-4.06-22.36-3.83-3.02.09-5.74-.05-8.76.63-5,1.13-10.55,1.58-15.01,4.51-7.35,4.82-12.81,11.92-16.62,19.73-2.54,5.2-4.65,10.22-5.92,15.8-.64,2.79-1.61,5.4-2.05,8.21l-1.85,11.95c-1.11,7.18.12,16.08,2.87,22.8l3.49,8.51c1.58,3.86,3.73,7.36,6.69,10.33.8.8,1.99,1.16,2.55,2.69-4.32-2.67-7.07-6.22-8.94-10.46l-3.58-8.1c-3.2-7.24-4.86-15-4.17-22.89.42-4.79,1.29-9.24,1.98-13.97,1.04-7.16,3.1-13.78,5.79-20.44,2.46-6.06,5.57-11.34,9.78-16.35,3.01-3.58,6.22-7.25,10.53-9.32,8.15-3.93,16.92-4.47,25.82-4.56,13.87-.15,26.42,4.8,36.14,14.59,2.92,2.94,6.06,5.33,8.78,8.57,4.44,5.29,8.25,10.87,10.33,17.63,5.03,16.38.14,29.18-4.67,44.53-1.14,3.65-2.99,6.84-4.83,10.18-2.51,4.55-5.36,9.03-9.65,12.09-6.14,4.39-13.11,6.46-20.54,7.96l-27.34-.34c-6.01-.07-21.31-4.43-25.44-9.12"/><path class="h" d="M423.41,567.86c6.95,2.84,11.04,4.12,19.04,3.37l3.33-.32c5.19-.49,10.3-.89,15.26-2.58l5.24-1.79c10.48-3.58,15.35-4.42,23.57-12.9,1.3-1.34,1.59-3.23,2.64-4.56,1.99-2.53,5.48-11.45,6.97-14.86,5.37-12.32,8.03-24.01,5.62-37.36-.89-4.94-3.02-8.89-5.38-13.12-1.72-3.08-4.21-5.31-6.31-8.03-2.14-2.77-4.27-4.79-7.27-6.65-4.94-3.06-11.54-6.36-17.51-6.6l-8.89-.35c-4.37-.17-8.65-.65-12.95-.07-10.41,1.42-17.44,6.59-24.72,13.59-8.03,7.72-13.68,17.39-16.16,28.3-1.67,7.33-2.28,10.6-1.81,18.26.73,11.8,7.32,33.57,12.95,39.11l6.39,6.56c-2.81-1.97-5.4-3.67-7.17-6.22-4.04-5.83-6.48-12.28-8.97-18.89-8.11-21.5-4.63-46.04,10.2-63.66,1.83-2.18,3.75-3.91,5.79-5.86,5.82-5.55,12.73-9.7,20.64-11.6,5.12-1.23,22.07-.73,27.37.28,21.67,4.12,37.7,26.44,35.7,48.5-.87,9.58-3.81,18.24-7.61,26.9-2.48,5.65-4.47,11.28-8.25,16.23-3.65,4.78-8.75,8.13-14.38,10.41-10.63,4.3-21.52,6.96-32.94,8.42-7.21.92-14.91-.32-20.37-4.51"/><path class="h" d="M233.44,560.74c-.56-1.54-1.75-1.89-2.55-2.69-2.96-2.98-5.11-6.47-6.69-10.33l-3.49-8.51c-2.75-6.72-3.98-15.62-2.87-22.8l1.85-11.95c.44-2.81,1.41-5.42,2.05-8.21,1.28-5.58,3.38-10.6,5.92-15.8,3.81-7.81,9.27-14.91,16.62-19.73,4.46-2.93,10-3.38,15.01-4.51,3.01-.68,5.74-.55,8.76-.63,7.75-.23,15.3.78,22.36,3.83,4.82,2.08,9.02,4.41,12.91,7.93,4.46,4.03,12.76,11.81,15.85,16.59,8.04,12.49,10,25.78,5.81,40.06l-3.12,10.62c-1.32,4.5-2.85,8.61-5.12,12.71-3.29,5.95-6.93,11.96-12.86,15.53-6.8,4.1-13.99,5.94-21.76,6.74-1.38.14-2.95-.72-4.22-.34-2.6.77-4.7.02-7.15.12-4.46.18-14.41-.13-18.63-1.44-3.09-.96-6.37-1.22-9.27-2.76-1.99-1.07-3.95-1.94-6.06-2.83-1.22-.51-2.04-1.77-3.33-1.6M232.54,552.85c1.42,5.93,18.11,11.79,23.55,11.8l25.66.07c8.59.02,19.03-3.6,23.68-10.91l5.32-8.37c2.33-3.66,4-7.28,5.71-11.24,2.6-6.04,5.34-11.98,5.94-18.65.67-7.53.03-14.89-2.29-21.79-2.7-5.26-5.66-9.79-9.73-13.94-1.38-1.41-2.56-3.13-4-4.38-9.64-8.4-16.96-12.4-29.72-14.52-4.17-.69-8.36-.33-12.63-.3-5.03.03-9.49,2-14.12,3.57-.99.33-1.18.23-2.07.96-6.46,5.4-8.16,5.85-12.82,13.3l-2.22,3.55c-2.33,3.73-6.47,14.26-7.6,18.5-3.42,12.83-5.98,25.76-.91,38.35,1.5,3.73,4.91,12.26,8.25,14.01"/><path class="h" d="M423.41,567.86l-6.39-6.56c-5.63-5.54-12.22-27.32-12.95-39.11-.47-7.66.14-10.92,1.81-18.26,2.48-10.92,8.12-20.59,16.16-28.3,7.28-7,14.31-12.17,24.72-13.59,4.3-.59,8.58-.1,12.95.07l8.89.35c5.97.23,12.57,3.54,17.51,6.6,3,1.86,5.13,3.88,7.27,6.65,2.1,2.72,4.59,4.95,6.31,8.03,2.36,4.23,4.49,8.18,5.38,13.12,2.41,13.36-.25,25.04-5.62,37.36-1.49,3.41-4.98,12.33-6.97,14.86-1.05,1.33-1.34,3.22-2.64,4.56-8.22,8.48-13.09,9.32-23.57,12.9l-5.24,1.79c-4.97,1.7-10.07,2.09-15.26,2.58l-3.33.32c-7.99.76-12.09-.52-19.04-3.37M424.2,562.1c.55,2.73,11.21,5.26,13.9,5.39,7.61.35,10.42-1.25,17.86-2.94l6.08-1.37c5.63-1.27,16.34-4.99,20.86-8.49,6.05-4.69,8.9-12.52,11.65-19.34l3.69-9.15c1.25-3.09,1.97-6.3,2.83-9.46,1.61-5.96,1.86-12.19-.05-18.14-1.15-3.59-2.33-6.92-4.5-10.09-2.8-4.1-5.23-8.46-9.28-11.59-12.46-9.64-32.58-15.05-47.21-9.4-14.5,5.59-24.91,20.78-29.5,34.96-2.68,8.29-3.64,19.93-1.97,28.3,1.66,8.35,5.12,15.95,8.92,23.51,1.58,3.14,3.31,6.57,6.72,7.81"/><path class="h" d="M232.54,552.85c1.43.75,2.17,2.37,3.65,3.42,7.73,5.49,16.97,8.25,26.49,7.55.86-.06,7.69.93,13.35.39,8.56-.82,7.81.52,16.95-2.37,5.76-1.82,9.84-5.63,13.1-10.58,4.32-6.55,7.61-13.33,10.91-20.48,6.6-14.3,6.99-31.23-2.13-44.36-2.74-3.95-6.08-7.13-9.43-10.5-5.17-5.2-11.09-8.87-18.01-11.28-21.49-7.49-43.72-3.03-54.09,18.85-3.07,6.48-6.17,12.85-7.93,19.92-1.28,5.16-2.36,10.32-2.93,15.59-1.32,12.12,3.64,24.04,10.09,33.85-3.34-1.75-6.74-10.28-8.25-14.01-5.08-12.6-2.52-25.52.91-38.35,1.13-4.24,5.27-14.77,7.6-18.5l2.22-3.55c4.66-7.45,6.36-7.9,12.82-13.3.88-.74,1.08-.63,2.07-.96,4.64-1.57,9.09-3.53,14.12-3.57,4.27-.03,8.45-.39,12.63.3,12.76,2.12,20.09,6.12,29.72,14.52,1.44,1.26,2.62,2.97,4,4.38,4.07,4.16,7.03,8.69,9.73,13.94,2.32,6.9,2.96,14.26,2.29,21.79-.6,6.67-3.34,12.61-5.94,18.65-1.71,3.97-3.38,7.58-5.71,11.24l-5.32,8.37c-4.65,7.31-15.08,10.94-23.68,10.91l-25.66-.07c-5.44-.01-22.14-5.87-23.55-11.8"/><path class="h" d="M424.2,562.1c6.5,3.68,13.61,5.43,21.35,3.92,10.39-2.03,20.54-4.65,30.37-8.42,5.52-2.12,9.51-5.98,12.31-10.93,3.03-5.36,5.08-10.83,7.41-16.54,2.38-5.81,4.58-11.43,5.34-17.71.54-4.46.81-8.83-.63-13.16-2.64-7.97-7.01-15.22-13.1-20.93-2.96-2.77-6.17-4.61-9.78-6.35-12.64-6.08-28.73-8.28-41.52-1.6-3.46,1.81-6.32,4.33-9.03,7.02-10.12,10.02-16.18,22.6-17.77,36.73-1.89,16.84,2.45,25.59,9.54,40.54,1.36,2.87,3.2,5.2,5.51,7.42-3.41-1.24-5.15-4.67-6.72-7.81-3.8-7.57-7.26-15.16-8.92-23.51-1.67-8.38-.71-20.02,1.97-28.3,4.59-14.18,15.01-29.37,29.5-34.96,14.63-5.65,34.75-.24,47.21,9.4,4.05,3.13,6.49,7.49,9.28,11.59,2.17,3.17,3.35,6.5,4.5,10.09,1.91,5.95,1.65,12.18.05,18.14-.85,3.16-1.58,6.37-2.83,9.46l-3.69,9.15c-2.75,6.82-5.61,14.65-11.65,19.34-4.52,3.5-15.23,7.22-20.86,8.49l-6.08,1.37c-7.44,1.68-10.25,3.29-17.86,2.94-2.7-.13-13.35-2.66-13.9-5.39"/><path class="e" d="M232.54,552.85c-6.44-9.81-11.4-21.73-10.09-33.85.57-5.27,1.65-10.43,2.93-15.59,1.76-7.07,4.85-13.44,7.93-19.92,10.36-21.88,32.6-26.34,54.09-18.85,6.93,2.41,12.85,6.08,18.01,11.28,3.35,3.37,6.69,6.55,9.43,10.5,9.12,13.13,8.73,30.06,2.13,44.36-3.3,7.14-6.58,13.93-10.91,20.48-3.26,4.94-7.34,8.76-13.1,10.58-9.13,2.89-8.39,1.55-16.95,2.37-5.67.54-12.5-.45-13.35-.39-9.52.7-18.75-2.06-26.49-7.55-1.47-1.05-2.21-2.67-3.65-3.42M299.44,556.89c3.81-3.79,7.07-7.89,9.36-12.66,1.04-2.16,2.56-3.99,3.55-6.14l1.65-3.6,3.96-9.44c1.34-3.21,2.48-6.72,2.58-10.15l.15-5.63c.11-4.2-1.36-9.91-2.61-13.95-.48-1.56-1.13-2.51-2-3.91l-3.54-5.72c-3.41-5.5-11.94-12.49-17.95-16.23-6.59-4.09-13.48-5.92-21.18-6.61-7.45-.66-14.79-.22-21.77,3.1-5.85,2.78-10.81,7.57-14.34,13.02-.89,1.38-1.89,2.64-2.58,4.03-3.89,7.89-7.44,15.94-9.17,24.53-.65,3.22-1.81,6.18-1.84,9.38l-.12,11.02c-.03,2.3,1.19,4.26,1.51,6.27.72,4.48,4.87,11.6,7.12,15.71,2.18,3.98,5.94,6.05,9.74,8.23,5.37,3.09,10.71,4.6,17,4.75,7.46.18,14.87.55,22.33.02l5.85-.42c2.67-.19,4.98-1.75,7.34-2.64,1.8-.68,3.41-1.39,4.98-2.96"/><path class="e" d="M424.2,562.1c-2.31-2.22-4.15-4.55-5.51-7.42-7.09-14.95-11.43-23.7-9.54-40.54,1.59-14.13,7.65-26.71,17.77-36.73,2.72-2.69,5.57-5.21,9.03-7.02,12.79-6.68,28.88-4.47,41.52,1.6,3.61,1.73,6.82,3.57,9.78,6.35,6.09,5.7,10.46,12.95,13.1,20.93,1.43,4.33,1.17,8.7.63,13.16-.76,6.28-2.96,11.89-5.34,17.71-2.33,5.71-4.38,11.18-7.41,16.54-2.8,4.95-6.79,8.81-12.31,10.93-9.82,3.77-19.98,6.38-30.37,8.42-7.74,1.51-14.85-.24-21.35-3.92M476.13,556.21c5.24-2.03,9.6-7.31,11.99-11.96l3.26-6.33c1.38-2.69,1.41-8.61,3.41-8.27.01-2.24,1.56-3.84,2.02-5.83,1.85-7.9,4.19-11.96,3.22-20.62-.24-2.15-3.39-10.4-4.55-12.36-2.54-4.32-5.55-8.53-9.24-12-2.14-2.01-10.62-6.52-13.64-7.68-5.51-2.11-11.42-3.15-17.23-3.65-12.88-1.11-25.91,6.37-32.79,16.67l-5.31,7.95c-3.18,4.76-6.97,16.43-7.23,22.45l-.33,7.61c-.4,9.35,4.43,20.67,8.71,28.9,3.43,6.6,2.75,7.48,8.25,10.85,8.78,5.38,17.26,3.15,25,1.51l5.48-1.17,8.11-2.14c3.72-.98,7.18-2.49,10.88-3.92"/><path class="e" d="M299.44,556.89c-1.58,1.57-3.19,2.28-4.98,2.96-2.36.89-4.67,2.45-7.34,2.64l-5.85.42c-7.47.54-14.88.16-22.33-.02-6.29-.15-11.62-1.66-17-4.75-3.8-2.18-7.56-4.25-9.74-8.23-2.25-4.1-6.4-11.22-7.12-15.71-.32-2.01-1.53-3.97-1.51-6.27l.12-11.02c.04-3.2,1.2-6.16,1.84-9.38,1.72-8.59,5.27-16.64,9.17-24.53.69-1.39,1.68-2.65,2.58-4.03,3.53-5.45,8.49-10.24,14.34-13.02,6.98-3.32,14.32-3.77,21.77-3.1,7.7.69,14.59,2.52,21.18,6.61,6.01,3.73,14.54,10.72,17.95,16.23l3.54,5.72c.87,1.4,1.51,2.35,2,3.91,1.26,4.04,2.73,9.74,2.61,13.95l-.15,5.63c-.09,3.43-1.23,6.94-2.58,10.15l-3.96,9.44-1.65,3.6c-.99,2.15-2.51,3.98-3.55,6.14-2.29,4.77-5.55,8.87-9.36,12.66M289.36,536.38c4.97-2.11,10.2-5.01,13.04-9.98,4.33-7.56,5.13-16.68,3.35-25.08-.28-1.34-1.24-2.9-1.29-4.08-.04-.73-1.06-1.93-1.42-2.55l-1.94-3.31c-.93-1.59-7.55-7.21-9.84-8.76-2.11-1.43-4.52-2.33-6.79-3.44-5.83-2.86-16.97-2.43-22.83-.31-4.63,1.67-8.2,4.19-11.44,7.71-1.46,1.59-2.64,2.88-3.56,4.95-.68,1.54-1.98,2.77-2.42,4.63-2.62,11.17-4.65,19.44.34,29.95.62,1.32,6.42,8.38,6.59,8.48,1.5.9,2.71,2.5,4.31,3.19,9.27,3.99,8.93,2.88,18.35,2.89,3.85,0,11.81-2.71,15.55-4.3"/><path class="e" d="M476.13,556.21c-3.7,1.43-7.17,2.94-10.88,3.92l-8.11,2.14-5.48,1.17c-7.75,1.65-16.22,3.88-25-1.51-5.5-3.37-4.82-4.25-8.25-10.85-4.28-8.24-9.11-19.55-8.71-28.9l.33-7.61c.26-6.02,4.05-17.69,7.23-22.45l5.31-7.95c6.88-10.3,19.9-17.77,32.79-16.67,5.81.5,11.72,1.53,17.23,3.65,3.03,1.16,11.5,5.67,13.64,7.68,3.69,3.47,6.7,7.68,9.24,12,1.16,1.97,4.31,10.22,4.55,12.36.98,8.66-1.37,12.73-3.22,20.62-.47,1.99-2.01,3.59-2.02,5.83-2-.33-2.03,5.58-3.41,8.27l-3.26,6.33c-2.39,4.64-6.76,9.93-11.99,11.96M480.54,535c1.07.28,1.41-.79,1.97-1.51,4.25-5.43,5.93-11.52,6.79-18.23.84-6.55-.44-14.08-3.63-19.97-6.29-11.61-15.46-11.44-28.07-9.3l-6.38,1.08c-6.06,1.03-11.9,3.14-16.04,7.84-5.21,5.91-7.89,21.49-6.81,25.41l.99,3.61c.44,1.61.59,3.65,1.24,5.24,3.99,9.84,7.29,15.28,18.23,17.6,5.79,1.23,11.13.7,16.93-.91,5.76-1.89,11.43-5.56,14.77-10.87"/><path class="e" d="M289.36,536.38c-3.74,1.59-11.7,4.31-15.55,4.3-9.42,0-9.09,1.1-18.35-2.89-1.6-.69-2.81-2.29-4.31-3.19-.17-.1-5.96-7.16-6.59-8.48-4.98-10.51-2.96-18.78-.34-29.95.44-1.86,1.73-3.1,2.42-4.63.92-2.07,2.1-3.36,3.56-4.95,3.23-3.52,6.81-6.04,11.44-7.71,5.87-2.12,17.01-2.54,22.83.31,2.27,1.11,4.67,2,6.79,3.44,2.28,1.55,8.91,7.18,9.84,8.76l1.94,3.31c.36.62,1.38,1.82,1.42,2.55.06,1.17,1.01,2.74,1.29,4.08,1.78,8.4.97,17.51-3.36,25.08-2.84,4.96-8.06,7.87-13.04,9.98M298.21,490.71c-8.41-11.84-27.69-16.56-40.5-8.59-5.16,3.21-9.1,7.32-11.36,12.99-2.48,6.23-4.07,12.91-3.68,19.67.35,6.17,3.47,11.53,7.2,16.26,10,12.68,27.49,9.66,40.37,3.56,9.35-4.43,13.46-8.86,14.67-19.54,1.16-10.26.04-16.26-6.69-24.35"/><path class="e" d="M480.54,535c.3-.48.28-1.17.82-1.85,3.81-4.75,5.62-10.33,6.72-16.42,1.64-9.1-.74-18.79-6.79-25.79-3.9-4.51-11.55-5.74-17.19-4.86l-13.51,2.11c-4.51.71-8.91,2.38-12.41,5.37-2.69,2.3-4.35,5.65-5.62,8.9-4.43,11.32-3.46,26.33,4.58,35.66.56.64.74,1.63,1.68,2.37,13.69,10.83,30.35,5.67,41.72-5.5-3.34,5.32-9.01,8.98-14.77,10.87-5.8,1.61-11.14,2.14-16.93.91-10.94-2.33-14.24-7.76-18.23-17.6-.65-1.59-.8-3.64-1.24-5.24l-.99-3.61c-1.08-3.93,1.59-19.5,6.81-25.41,4.14-4.7,9.98-6.81,16.04-7.84l6.38-1.08c12.61-2.13,21.78-2.31,28.07,9.3,3.19,5.88,4.47,13.41,3.63,19.97-.86,6.71-2.54,12.8-6.79,18.23-.57.72-.9,1.79-1.97,1.51"/><path class="h" d="M298.21,490.71c-2.49-1.29-4.29-3.62-6.69-5.36-5.04-3.65-10.57-6.18-16.8-6.32-5.7-.13-10.9.64-15.75,3.4-6.27,3.57-10.91,8.83-12.97,15.96-1.72,5.97-3.43,12.53-2.22,18.85,1.25,6.59,5.54,12.21,10.13,16.82,4.87,4.88,15.52,5.57,22.2,4.16,7.28-1.54,14.37-3.83,20.44-8.43,1.43-1.08,2.77-2.71,3.84-4.12,2.73-3.6,3.23-7.98,3.74-12.37.84-7.22-.39-14.34-4.84-20.11-.47-.61-.91-1.19-1.06-2.47,6.73,8.1,7.85,14.1,6.69,24.35-1.21,10.69-5.32,15.11-14.67,19.54-12.88,6.11-30.37,9.13-40.37-3.56-3.73-4.73-6.85-10.09-7.2-16.26-.38-6.76,1.2-13.45,3.68-19.67,2.26-5.67,6.2-9.78,11.36-12.99,12.8-7.97,32.09-3.25,40.5,8.59"/><path class="h" d="M480.54,535c-11.37,11.17-28.04,16.33-41.72,5.5-.94-.74-1.13-1.73-1.68-2.37,9.78,9.03,22.24,9.43,33.95,3.03,2.21-1.21,3.66-2.79,5.46-4.39,6.59-5.89,9.89-12.84,10.89-21.67.99-8.76-.97-15.18-5.83-22.37-2.49-3.69-6.77-5.49-11.36-5.94-4.49-.45-8.92.47-13.41,1.37-3.7.74-7.5.87-10.98,2.4-2.44,1.08-5.21,2.07-7.33,3.86-2.76,2.35-4.59,6.18-5.68,9.63-2.23,7.05-2.23,9.64-1.86,17.2.26,5.31,3.61,11.89,6.16,16.89-8.04-9.33-9.01-24.34-4.58-35.66,1.27-3.25,2.93-6.6,5.62-8.9,3.5-2.99,7.9-4.66,12.41-5.37l13.51-2.11c5.64-.88,13.29.35,17.19,4.86,6.05,7,8.44,16.69,6.79,25.79-1.1,6.08-2.91,11.66-6.72,16.42-.54.67-.52,1.37-.82,1.85"/><path class="h" d="M298.21,490.71c.15,1.28.59,1.86,1.06,2.47,4.45,5.77,5.68,12.89,4.84,20.11-.51,4.38-1,8.76-3.74,12.37-1.07,1.41-2.41,3.04-3.84,4.12-6.06,4.61-13.15,6.89-20.44,8.43-6.68,1.41-17.33.72-22.2-4.16-4.59-4.61-8.88-10.23-10.13-16.82-1.2-6.32.5-12.87,2.22-18.85,2.05-7.14,6.7-12.4,12.97-15.96,4.86-2.76,10.05-3.54,15.75-3.4,6.23.15,11.77,2.67,16.8,6.32,2.4,1.74,4.2,4.07,6.69,5.36M257.37,531.08c.66,2.56,7.69,3.97,10.6,4.11,8.98.45,17.42-2.44,25.13-6.97,3.17-1.86,5.59-4.47,6.51-8.23,2.51-10.12,1.6-20.45-6.32-27.93-4.21-3.98-9.41-6.9-14.91-8.49-7.78-2.24-15.43-.18-21.64,4.87-5.17,4.21-7.7,10.58-8.75,17.22-2.55,9.54.53,20.52,9.37,25.42"/><path class="h" d="M437.13,538.13c-2.54-5-5.9-11.58-6.16-16.89-.37-7.56-.37-10.15,1.86-17.2,1.09-3.45,2.92-7.28,5.68-9.63,2.12-1.8,4.88-2.78,7.33-3.86,3.48-1.53,7.28-1.66,10.98-2.4,4.48-.9,8.91-1.81,13.41-1.37,4.59.46,8.87,2.26,11.36,5.94,4.86,7.2,6.82,13.61,5.83,22.37-1,8.83-4.3,15.78-10.89,21.67-1.8,1.61-3.25,3.19-5.46,4.39-11.71,6.39-24.17,6-33.95-3.03M469.77,537.06c3.79-2.31,7.97-5.66,9.88-9.57,1.21-2.47,2.32-4.68,3.01-7.4,1.17-4.64,2.14-9.31,1.15-14.01-.44-2.1-1.37-3.96-1.96-5.97-1.43-4.87-4.92-8.49-10.07-9.5-1.71-.34-3.95-.89-5.8-.64l-12.71,1.75c-4.17.57-7.72,1.69-11.12,4.02-1.7,1.16-3.12,2.29-4.18,4.21-3.1,5.62-4.53,14.13-3.68,20.5l.82,6.19c.41,3.06,2.55,5.6,4.59,8.08,7.77,9.47,20.14,8.38,30.07,2.33"/><path class="h" d="M257.37,531.08c10.89,6.86,29.39,1.68,38.71-6.55,2.7-2.38,3.08-6.52,3.59-9.85,1.26-8.13-1.05-16.33-6.98-22.05-3.71-3.57-8.17-6.07-12.92-7.97-7.61-3.03-19.93.04-25.32,7.56-5.01,6.98-7.28,15.87-6.04,24.41.85,5.89,4.94,10.41,8.97,14.44-8.84-4.89-11.92-15.87-9.37-25.42,1.05-6.64,3.57-13.01,8.75-17.22,6.21-5.06,13.87-7.12,21.64-4.87,5.5,1.59,10.69,4.51,14.91,8.49,7.92,7.48,8.82,17.81,6.32,27.93-.93,3.75-3.35,6.37-6.51,8.23-7.71,4.53-16.15,7.42-25.13,6.97-2.91-.15-9.94-1.56-10.6-4.11"/><path class="h" d="M469.77,537.06c-9.93,6.05-22.29,7.13-30.07-2.33-2.04-2.48-4.18-5.02-4.59-8.08l-.82-6.19c-.85-6.37.58-14.88,3.68-20.5,1.06-1.92,2.48-3.05,4.18-4.21,3.4-2.33,6.95-3.45,11.12-4.02l12.71-1.75c1.86-.26,4.09.3,5.8.64,5.15,1.01,8.64,4.63,10.07,9.5.59,2.01,1.52,3.87,1.96,5.97.99,4.7.02,9.37-1.15,14.01-.68,2.72-1.8,4.93-3.01,7.4-1.91,3.91-6.09,7.26-9.88,9.56M480.51,523.46c3.74-8.97,3.73-18.43-1.49-26.8-4.44-7.13-12.54-5.66-19.03-4.93-7.31.82-16.91,1.75-21.1,8.74-4.72,7.87-5.63,20.58-1.46,29.04,2.12,4.3,5.36,8.14,9.99,9.88,12.58,4.72,27.88-3.46,33.08-15.93"/><path class="e" d="M257.37,531.08c-4.03-4.02-8.12-8.54-8.97-14.44-1.23-8.54,1.03-17.43,6.04-24.41,5.4-7.51,17.72-10.59,25.32-7.56,4.75,1.89,9.21,4.39,12.92,7.96,5.93,5.71,8.24,13.92,6.98,22.05-.51,3.32-.89,7.47-3.59,9.85-9.32,8.22-27.81,13.41-38.71,6.55M281.94,531.23c.13-.02,7.45-3.62,8.36-3.99,4.34-1.77,6.77-4.98,7.75-9.41,1.85-8.35.87-14.68-4-21.59-2.44-3.47-5.42-5.48-9-7.59-5.75-3.38-11.95-4.93-18.7-3.07-1.89.52-3.86,1.62-5.67,2.64-1.13.63-1.74,1.93-3.27,2.07-4.58,5.25-7.51,11.6-7.86,18.65-.19,3.87-.62,7.5,1.13,11.56,1.67,3.85,4.62,7.21,8.05,9.67,8.17,5.85,16.52,2.01,23.22,1.05"/><path class="e" d="M480.51,523.46c-5.2,12.47-20.5,20.65-33.08,15.93-4.63-1.74-7.87-5.59-9.99-9.88-4.18-8.46-3.26-21.17,1.46-29.04,4.19-6.99,13.79-7.92,21.1-8.74,6.49-.73,14.59-2.19,19.03,4.93,5.22,8.37,5.23,17.83,1.49,26.8M457.85,539.34c4.1-.75,7.81-2.5,11.53-4.44,2.8-1.46,4.91-3.94,6.87-6.52,9.69-12.75,6.09-33.89-5.13-35.77-4.49-.75-8.77,0-13.2.49-6.14.69-12.58,1.6-16.8,6.41-4.24,4.84-5.1,10.76-4.99,16.92.13,7.2.3,10.62,4.83,16.37,2.64,3.34,5.24,5.24,9.41,5.97,2.31.4,4.69,1.02,7.47.58"/><path class="e" d="M281.94,531.23c-6.7.96-15.05,4.8-23.22-1.05-3.44-2.46-6.39-5.82-8.05-9.67-1.76-4.06-1.32-7.7-1.13-11.56.35-7.05,3.28-13.4,7.86-18.65,1.53-.14,2.15-1.44,3.27-2.07,1.81-1.02,3.78-2.12,5.67-2.64,6.76-1.86,12.96-.31,18.7,3.07,3.58,2.11,6.57,4.12,9,7.59,4.86,6.91,5.84,13.24,4,21.59-.98,4.43-3.41,7.64-7.75,9.41-.91.37-8.22,3.97-8.36,3.99M278.9,502.44c-.47-1.22-.96-2.1-2.35-2.55-4.94-1.57-9.18,1.62-10.69,6.37-.7,2.2-1.6,4.2-.24,6.35,1.48,2.34,3.77,3.96,6.49,3.88,6.54-.19,8.41-9.9,6.79-14.06"/><path class="e" d="M457.85,539.34c-2.78.44-5.16-.18-7.47-.58-4.17-.73-6.78-2.63-9.41-5.97-4.54-5.75-4.71-9.16-4.83-16.37-.11-6.16.75-12.08,4.99-16.92,4.21-4.81,10.66-5.71,16.8-6.41,4.43-.5,8.7-1.25,13.2-.49,11.22,1.88,14.83,23.03,5.13,35.78-1.96,2.58-4.07,5.05-6.87,6.52-3.71,1.94-7.43,3.69-11.53,4.44M458.33,522.62c5.42.07,10.12-4.98,8.93-10.24-.78-3.46-4.99-4.44-7.91-4.46-3.62-.02-6.47,1.1-8.46,4.1l.11,4.82c.05,2.41,1.24,4.91,3.69,5.84.77.29,2.18-.08,3.65-.06"/><path class="e" d="M278.9,502.44c1.61,4.16-.25,13.87-6.79,14.06-2.73.08-5.02-1.55-6.49-3.88-1.36-2.15-.46-4.16.24-6.35,1.52-4.75,5.75-7.94,10.69-6.37,1.39.44,1.88,1.33,2.35,2.55M273.87,514.76c4.09-2.24,6.21-10.37,2.66-13.26-1.03-.84-2.47-1.08-3.96-.62-4.48,1.39-7.65,8.43-4.51,12.26,1.14,1.39,3.57,2.84,5.81,1.62"/><path class="e" d="M458.33,522.62c-1.47-.02-2.88.35-3.65.06-2.45-.93-3.64-3.43-3.69-5.84l-.11-4.82c1.99-3,4.85-4.12,8.46-4.1,2.92.02,7.13,1,7.91,4.46,1.19,5.26-3.51,10.3-8.93,10.24M466.03,516.35c1.28-3.08,0-5.86-2.93-6.87-3.05-1.06-7.06-1.38-9.62,1.21-2.41,2.43-2.16,7.76.7,9.84,4.16,3.01,10,.28,11.85-4.17"/><path class="h" d="M273.87,514.76c-2.24,1.22-4.66-.23-5.81-1.62-3.15-3.83.02-10.86,4.51-12.26,1.49-.46,2.93-.22,3.96.62,3.55,2.89,1.43,11.02-2.66,13.26M273.91,513.64c3.58-3.13,5-9.43,1.77-11.4-1.13-.69-2.8-.86-4.04,0-3.52,2.45-5.89,8.56-2.05,11.15,1.09.73,2.98,1.43,4.33.25"/><path class="h" d="M466.04,516.35c-1.85,4.45-7.7,7.18-11.85,4.17-2.86-2.07-3.11-7.41-.7-9.84,2.56-2.59,6.57-2.27,9.62-1.21,2.93,1.02,4.21,3.79,2.93,6.87M463.12,518.59c1.81-1.48,3.4-4.49,1.84-6.57-2.1-2.8-6.52-2.93-9.26-1.53-2.58,1.31-3.45,3.04-3,5.83.38,2.37,1.91,4.19,4.6,4.36,2.06.13,3.99-.59,5.82-2.09"/><path class="h" d="M273.91,513.64c-1.35,1.18-3.24.48-4.33-.25-3.84-2.59-1.47-8.7,2.05-11.15,1.24-.86,2.91-.69,4.04,0,3.23,1.97,1.81,8.28-1.77,11.4"/><path class="h" d="M463.12,518.59c-1.83,1.5-3.76,2.22-5.82,2.09-2.69-.17-4.22-1.99-4.6-4.36-.44-2.8.42-4.52,3-5.83,2.74-1.39,7.15-1.27,9.26,1.53,1.56,2.07-.03,5.08-1.84,6.57"/></g></g></svg>