<?xml version="1.0" encoding="UTF-8"?><svg id="a" xmlns="http://www.w3.org/2000/svg" xmlns:xlink="http://www.w3.org/1999/xlink" viewBox="0 0 800 789.87"><defs><style>.d{fill:none;}.e{fill:#ffdf44;}.f{fill:#49a258;}.g{fill:#c54b4f;}.h{fill:#5c97c4;}.i{fill:#e36b2e;}.j{clip-path:url(#c);}.k{clip-path:url(#b);}</style><clipPath id="b"><rect class="d" width="800" height="789.87"/></clipPath><clipPath id="c"><rect class="d" width="800" height="789.87"/></clipPath></defs><g class="k"><g class="j"><path class="i" d="M32.62,617.61c5.4,2.28,7.47,8.04,9.05,13.43.04,1.45.07,4.01-.26,5.45-.59,2.62-2.7,4.69-3.93,7-1.82-.13-3.07,1.98-4.24,2.75l-9.52,2.73c-3.77,1.08-7.7.87-11.59.49-2.5-.24-4.78-2.03-6.94-3.17-.18-1.03-1.32-2.1-2.02-2.73-3.63-8.55-4.76-9.85-.05-18.32.51-.51,1.46-1.48,1.9-2.06,2.78-1.73,6.33-4.29,9.55-5.39.88-.3,2.58-.54,3.43-.89,3.97-.37,10.59-.98,14.62.72"/><path class="h" d="M125.62.01l3.49.18c1.18,1.27,3.17,1.5,4.79,1.56l5.55,4.8c2.3,1.99,2.26,5.8,1.8,8.9-.04.25-.03.58-.14.8-1.66,3.24-3.64,6.53-7.05,8-.41-1.17-1.24-2.16-1.79-3.27,3.85-.46,8.08-5.79,6.02-10.13-2.9-6.11-12.29-9.46-18.35-6.2-6.89,3.7-9.02,12.95-6.11,19.44,1.49,3.32,5.21,3.04,8.22,2.7,5.62-.63,5.12-9.21,8.6-6.5-2.34.39-4.13,5.72-3.95,5.95.31.41,1.1,1.14,1.67,1.26-1.27,0-2.18,1.36-3.29,1.62-2.8.66-6.1,1.51-8.99.81-2.08-.5-4.77-2.79-5.7-4.69-1.53-3.14-1.59-6.72-.9-9.92.67-3.1,1.88-5.9,3.26-8.79,1.53-1.26,3.05-2.59,4.19-4.22,2.83-1.14,5.58-2.46,8.68-2.3"/><path class="g" d="M52.02,630.65c1.47.1,3.33-.21,4.74.17,4.59,1.25,9.47.82,13.99,2.42.67.24,1.6.26,2.31.22,1.02,1.17,2.67,1.35,4.16,1.35.52,0,1.1.04,1.61-.07,2.19,2.85,6.85,1.79,9.65,3.46,2.79,1.67,5.91,2.43,8.8,3.88,3.55,1.79,7.36,3.59,10.62,5.88l8.24,5.8c2.89,2.03,5.04,6.22,8.91,7.07-.09.69.83,1.53,1.55,1.47,2.18,2.99,5.36,5.24,8.22,7.6.66.55,1.53,1.09,2.28,1.43,1.69,2.59,4.29,4.41,6.5,6.56l2.47,2.4c2.23,2.17,4.16,4.68,6.66,6.52.23.17.48.67.66.88-.04,1.11,1.12,1.64,1.59,2.42l9.64,16.12c2.33,3.89,2.33,9.14,4.97,12.96.44.64-.25,2.2.89,2.54l.04,1.48c.01.4.05,1.29.66.95.1.76-.02,1.57.16,2.31l2.44,9.83,1.56,8.79,1.55,9.93c.33,2.08.51,4.4.2,6.42l-.36,2.36c-2.21.37-4.97-.19-7.21,0l-1.53-9.7c-.42-2.67-.4-5.32-.76-8-.45-3.37-.32-6.93-1.76-10.06-.67-6.4-3.36-12.57-5.64-18.61-1.2-3.17-2.48-6.55-4.84-8.95-.42-1.68-1.47-3.09-2.28-4.6-.31-.58-.98-1.69-1.71-1.79-5.27-8.1-12.71-15.08-20.29-21.12-.16-.33-.85-.46-.95-.8-.67-2.13-3.33-2.57-4.61-3.96-4.33-4.7-9.48-8.74-14.61-13.12-1.2-1.02-2.53-1.25-3.39-2.32-2.29-2.83-5.52-5.05-8.79-6.58-.34-.16-.63-.52-.95-.73-.28-.19-.45-.62-.81-.7-.24-.06-.56.06-.81.06-1.48-2.49-4.66-3.03-7.19-4.14-3.15-1.39-6.31-2.96-9.77-3.35-5.14-2.41-10.73-4.12-16.33-5.05-3.57-1.53-7.54-1.9-11.4-2.22-1.73-.92-3.69-.71-5.57-.74-1.38-.03-2.86-.39-4.13-.86.32-1.44.3-4.01.26-5.45,3.45-.1,6.9-.62,10.36-.39"/><path class="h" d="M132.27,20.99c.55,1.11,1.38,2.1,1.79,3.27.17.48.58,1.04.65,1.53.46,3.15,2.85,5.86,3.23,8.88l.85,6.69c.04.29.06.68.17.94l.71,1.65-.08,2.35c-.04,1.08.03,2.17.18,3.25.18,1.29.08,2.59.08,3.88v1.05c0,2.41,1.31,5.76.58,8.06-1.02,3.23-.31,6.51-.86,9.81-.43,2.56-.43,5.59-.92,8.05l-2.29,11.56c-.52,2.63-1.19,5.24-1.62,7.88-.04.25-.11.52-.12.78-1.91,2.54-1.32,6.2-2.29,9.04-.97,2.83-2.9,5.6-2.63,8.83-.16.31-.6.53-.71.86-1.01,2.97-1.96,5.92-2.54,8.98-.78,1.45-1.66,3.34-2.24,5.01-1.76,5.06-4.43,9.85-5.53,15.1-2.07,2.59-5.32,1.28-8.21,1.34.32-1.16.41-2.37.58-3.56l.11-.79c.61.4.74-.5.88-.9.79-2.42,1.3-5.08,2.49-7.35,1.45-2.78,2-5.85,3.04-8.71,1.12-3.1,3.74-6.05,3.39-9.62,2.17-2.1,2.76-6.54,3.22-9.21.41-.8.87-2.33.82-3.25,1.42-1.17,1.03-3.46,1.82-4.87,1.83-3.26,1.94-7.12,3.11-10.6,1.09-3.24,1.43-6.51,2.13-9.82.67-3.2,1.43-6.36,1.83-9.67.21-1.76-.16-3.95.27-5.62,1.09-4.17.61-8.62.46-12.96-.03-.82-.04-1.64-.01-2.47.04-1.04.6-2.62-.47-3.25.21-1.15-.31-2.26-.3-3.38.03-3.38-.79-6.48-2.19-9.46-1.07-2.26-.12-6.09-3.29-6.75-.58-.12-1.36-.84-1.67-1.26-.18-.23,1.61-5.56,3.95-5.95.4.31,1.34.13,1.62.69"/><path class="g" d="M132.27,20.99c-.28-.56-1.23-.39-1.62-.69-3.48-2.71-2.98,5.87-8.6,6.5-3.01.34-6.73.62-8.22-2.7-2.91-6.49-.78-15.74,6.11-19.44,6.06-3.25,15.46.09,18.35,6.2,2.06,4.34-2.17,9.67-6.02,10.13"/><path class="f" d="M505.04,689.06c.02.3.24.6.21.9-.07.88.4,1.9.62,2.67-.9,1.97.68,4.38.62,6.29-.1,3.06.46,5.93.75,8.94.31,3.25.63,6.43.71,9.66l.2,7.29,1.22,6.86c1.19,6.69,6.42,11.47,12.63,12.68,5.59,3.57,12.67,5.92,19.32,6.61,2.26,2.16,5.65.88,8.23,1.56,3.28.87,6.44.79,9.86.74,2.92-.05,5.88,1.26,8.85.81.26-.04.56.05.82.08l17.87,2.38c2.94.39,5.88,1.27,8.93.8.99-.15,2.16.72,3.22.3-.08.6.47.39.81.39h1.62c4.3.02,8.68.46,12.99.19,6.51-.41,13.05-.39,19.54-.86l8.06-.59c5.66-.41,11.4-.17,17.05-.91.28-.04.66-.06.93.03.7.23,1.7-.34,2.35-.08,2.91,1.16,5.97.67,8.89-.02,2.31-.55,4.97.38,7.31.04.28-.04.59-.08.88-.1l9.04-.77c3.29-.28,6.42-.94,9.62-1.59l7.95-1.59,9.94-2.42c3.03-.74,6.49-.6,9.62-.96,2.76-.32,6,.17,8.84.11,3-.06,6.39,1.47,9.19,2.4,2.33.77,4.23,3.11,6.45,4.13l2.92,6.51.11,2.18c.07,1.42-.02,2.82-.02,4.26-2.12.36-3.63,2.33-4.73,4.08-1.42.28-2.65,1.13-4,1.59-2.93,1-5.98,1.56-8.98,2.32-1.06.27-2.81-.42-3.31.78-1.57-.08-3.15-.03-4.71.09l-13.15,1.05c-2.38.19-4.94.96-7.35.67-2.94-.36-5.9.2-8.82,0-3.3-.22-6.5-.21-9.82-.07-2.91.12-5.92-.74-8.83.05-.28.08-.61-.05-.9-.03-2.75.18-5.64-.4-8.21.72-8.79-.87-22.21,2.7-31.49,1.58-2.34-.28-4.04.92-5.76.93l-7.98.04c-.28,0-.61,0-.88-.04-3.21-.61-6.54.72-9.63.62l-9.06-.3-9.62-.15c-2.54-.04-5.68.28-8.17-.19-7.55-1.44-15.22-1.73-22.87-2.46-1.83-.18-3.72-.12-5.54-.45-2.99-.55-6-.81-9.02-.99-3.24-.2-6.4-1.46-9.66-.96-2.67-1.5-5.87-1.18-8.83-1.55-2.77-.34-5.56-1.99-8.27-1.14-.39-.53-1.07-.46-1.63-.64l-17.82-5.66c-.53-.85-1.5-1.74-2.73-2.2-5.95-2.25-10.59-5.88-15.14-9.75-.61-.52-1.1-1.18-1.65-1.76-.21-.22-.64-.62-.75-.88-.65-2.8-3.06-5.25-3.4-8.16-.35-2.96-1.38-6.1-1.54-9.02-.16-3.01.45-6.3.49-9.35.04-3.07.57-6.12.04-9.2-.5-2.94.52-6.25-1.14-8.85l-.36-8.26c-.04-.99,0-2-.02-2.99.19-.41.22-1.41.58-1.59.36-.17,1.57.55,1.63,1.17l1.27,13.42c.12,1.26.25,2.36,1.53,2.33-.03.51-.01,1.01-.01,1.52-1.1-3.1-1.1,16.2.02,13.13l-.04,1.43c-.72-.45-1.28.23-1.43.68-.17.52-.23,1.15-.16,1.84l.88,8.97c.18,1.88-.08,3.85,1.79,4.06.06.28.3.68.24.95-.57,2.52,4.33,9.51,6.15,9.55.19.24.59.4.72.68,1.8,3.84,6.61,5.25,10.43,7.4,1.53.86,2.62,2.18,4.22,1.61.21-.08.52.03.75.04-.26.63-.06,1.36.56,1.59.63.24,1.3.06,1.9,0,.23-.02.59-.05.81.03,11.31,5.68,17.47,5.81,30.08,7.49l12.99,1.73c4.5.6,8.68.37,13.06,1.75,4.15,1.3,9.3-.61,13.29.88,2.81,1.05,4.76,1.06,7.79,1.07l50.24.13c4.04.01,6.94-.98,10.7-1.19l16.73-.9c1.42-.08,3.45-.46,3.47-1.82,1.25.33,2.71-.35,3.98-.1-.34.47.33.66.94.77l38.01-.07c4.07,0,7.69-.91,11.55-1.33,2.5-.27,24.46-1.61,22.7-5.15.22-.08.5,0,.74-.04.82-.16,1.34-.81,1.69-1.53.15-.31.5-.52.69-.79,4.3-.81,1.51-8.7-1.94-11.46-5.17-4.15-22.02-7.94-24.82-3.24-.44,0-1.14.15-1.52,0-3.05-2.49-12.7,2.39-18.58,2.86-1.62.13-3.77.25-3.54,1.98-.45.12-.97-.01-1.43.05-2.45-1.67-5.53.48-8.47.55l-29.33.71c-2.35.06-16.28.54-16.66.86-.29.25-.46.66-.13,1.07-.73-.1-1.52.21-2.23.06.34-.47-.32-.7-.95-.71l-50.85-.22c-.37,0-11.58-3.01-11.65-.7-.45-.09-.96-.02-1.43-.05.28-1.25-2.08-2.37-3.53-2.25-6.36.5-12.24-1.09-18.54-1.49-4.59-.28-8.64-.19-13.11-1.56l-16.91-5.16c-.24-.07-.56-.02-.81,0-.32-1.49-1.91-1.77-3.25-1.55-.23.04-.49-.05-.72-.02.03-1.88-1.98-1.54-3.42-2.53-4.28-2.95-7.72-8.31-8.15-13.67-.3-3.67-.94-6.75-1.14-10.33l-.9-16.5c.04.68-3.31-16.1.63-14.8"/><path class="f" d="M414.76,617.73c-.42,6.91,1.13,13.84,1.45,21.13l.82,18.66.81,13.79.18,27.53.17,4.95.42,31.73c.04,2.99-.14,6.24-.71,8.8-.72,3.25-3.47,6.23-3.2,9.75-2.33.11-3.13,3.23-3.97,5.01-1.73.87-3.29,2.22-4.05,4.01-1.89-.33-3.55,2.45-4.82,3.23l-8.99,3.83c-3.23,1.38-6.02,3.22-8.86,4.09-3.32,1.02-6.47,2.09-9.68,3.42-2.76,1.13-6.19.79-8.94,2.47-1.75,1.07-4.68.76-6.58,1.6-.7.31-1.94.24-2.55.8-3.1-.28-6.61,1.52-9.67,1.6l-9.76.24c-2.61.06-5.45.5-8.04.51l-9.58.04-9.23-.43-9.48-.19-9.15-.05c-2.96-.02-5.81-.1-8.77-.06l-9.93.13c-3.12.04-5.75.37-8.81.66l-9.71.95-8.85.83-6.52.63-15.5,1.89c-1.6.19-3.26.54-4.87.55l-10.55.06h-8.83c-9.81-.03-19.63-1.04-29.43-1.66-1.96-.13-4.52.35-6.38-.15-3.14-.84-6.4-.79-9.72-.66-.28.01-.59.04-.87.01-2.97-.35-5.93-.56-8.91-.62-2.96-.06-5.91-.39-8.87-.16-.3.02-.61-.03-.91-.03h-7.16c-.58,0-1.18.1-1.76.15l-9.7.75c-2.75.21-5.53.7-8.31.73l-9.43.12c-2.51.03-5.7-.15-8.15-.31-3.21-1.67-6.92-1.58-10.41-2.46-2.71-.69-5.46-2.47-8.32-2.36-.6-.67-1.64-.85-2.44-1.17-2.65-1.07-5.44-1.71-8.13-2.63-2.66-.91-5.29-2.79-8.03-3.46-.35-1.25-1.48-2.59-2.59-3.21,0-2.74-1.85-6-1.52-8.76,1.39-6.78,6.38-11.05,12.13-14.54l.81.06c2.77.21,6-1.81,8.82-1.11,2.81.7,6.53.45,9.14,1.72,3.07,1.5,6.53,1.25,9.52,2.28,6.12,2.1,12.5,3.04,18.82,4.21l8.9,1.65c2.93.54,5.79,1.09,8.94,1.6l9.8,1.59,8.95.85c2.9.28,5.84,1.51,8.81.78.24-.06.61-.04.85.02,2.63.69,5.37.37,8.05.68,2.72.31,5.36.28,8.06.05,2.24-.2,5,.36,7.21,0,.77.64,1.94,1.11,3.37.97l9.74-.91,9.21-.6c3.55-.23,6.93-.32,10.37-.77,2.59-.34,5.7-.79,8.21-.97,3.3-.24,6.29-.45,9.68-.78l9-.88,8.7-.78c3.17-.28,6.19.09,9.29-.79,2.77-.8,6.5.86,9.41-.18.86-.31,2.35.08,3.28.04l15.54-.65,9.01-.11c2.95-.03,5.71.12,8.66.03,3.32-.1,6.62.21,9.97-.09,3.12-.28,5.95.39,8.92-.75-.79.3,10.31-.13,8.76-1.69.2.09.5-.07.71,0,3.21,1.04,6.79-1.68,9.14-2.31,3.31.19,6.09-1.52,9.09-2.55,5.68-1.95,13.86-4.79,18.6-9.02,1.57-1.4,4.79-1.76,5.67-4.08,1.11-.61,2.92-1.62,3.26-3.09,3.61-.37,4.16-5.35,6.24-7.18,2.78-2.45,2.25-5.19,3.54-8.15,1.53-3.5,3.39-6.39,3.13-10.55-.13-2.12,3.01-5.53,1.58-8.13.39-.68.68-1.58.71-2.41l.14-4.25c.31-9.13.49-18.31-.41-27.77l-1.82-19.2-2.15-18.87c.28-2.16,1.99-1.79,3.5-2.29.03,3.08,1.56,6.31,1.41,9.7-.18,4.09,1.06,7.67,1.44,11.57l1.72,17.69c1.13,11.67.52,23.16,0,34.85-.17,3.93-1.36,7.93-2.05,11.65-2.61,14-9.87,25.47-21.9,33.1-18.12,11.51-38.61,16.78-59.87,18.14-7.63.49-14.59-.43-22.18-.13l-15.43.61c-9.44.37-18.46.3-27.83,1.1l-21.64,1.86c-4.53.39-8.64,1.26-13.15,1.53l-16.98,1.01c-9.27.55-18.25.47-27.53-.05l-15.45-.85-16.99-1.76-11.29-1.64-7.5-1.39c-14.32-2.65-27.89-6.64-41.92-9.5-8.53-1.73-17.28,3.2-18.93,10.91-1.07,5,.91,9.17,5.18,10.86,10.4,4.11,20.99,7.47,32.09,9.15,6.26.95,11.85.37,17.96.17l15.11-.5c7.24-.24,14.5-.7,21.76.02,6.36.63,12.64-.44,18.91.58,9.89,1.6,19.45,1,29.49,1.49,9.63.46,18.96,1.31,28.6.23l14.49-1.62c4.05-.45,8.23-1.16,12.27-1.58l17.66-1.83c23.49-2.43,63.44,3.19,87.75-1.7,13.31-2.68,25.51-7.35,38.07-12.21,14.89-5.76,23.24-19.05,22.82-35.22l-.39-14.77-.78-38.35-.72-30.21c-.13-5.28-1.01-10.35-1.35-15.61l-.89-13.86c1.32-.26,2.44-1.03,3.97-.82"/><path class="h" d="M143.69,146.28l8.93-.1c3.19-.04,6.57-.3,9.74.08,2.95.35,5.9.58,8.92.65l5.72.13c.57.64,1.65.58,2.41.73.54.11,1.17-.05,1.69-.03l5.54.18c3.99,2.11,8.83,1.34,13.05,2.36,2.59.62,5.65,1.47,8.22,2.35,2.91,1,6.85,1.37,9.61,2.41l19.36,7.27,17.28,9.86c3.44,1.96,6.35,5.14,9.67,7.33,2.48,1.63,4.32,5.08,7.22,6.2.09.82,1.51,1.28,1.77,1.89.8,1.84,4.22,4.23,5.56,5.73,2.47,2.76,5.98,8.26,8.88,10.5,1.19,1.32,3.03,4.37,4.12,5.78l2.41,3.13c1.48,2.58,3.43,6.74,5.57,9-.21.83.89,1.79.98,2.46.27,2.06,3.4,5.33,4.02,7.28.89,2.83,2.46,7.18,4.29,9.86,1.78,2.62.9,6.9,3.07,9.47.76.91.42,2.53,1.39,3.34l.09.81c.1.91.56,1.64.76,2.44.2.76.28,1.79.81,2.38-.43,2.93,1.55,6.16,1.74,9.01.42,6.26.92,12.57.73,18.85-.09,3.11-1.05,6.46-1.59,9.54-.51,2.91-2.7,5.39-3.93,8.03l-2.53,2.59c-2.14,2.2-4.91,4.47-6.42,7.16-.75.12-1.2,1.25-1.7,1.6-2.94,2.04-5.81,4.42-8.06,7.21-1.9-.3-2.21-1.05-2.44-2.87,3.72-3.01,7.66-5.99,10.57-9.82,1.3.42,8.1-6.25,8.18-8.24,0-.24,0-.48.04-.72.38.37.66.23.89-.14.2-.32.4-.6.47-.92l.22-.99c2.53-.37.55-4.28.87-6.95h.72c.38.02.92.13,1.2-.03.79-.48.14-1.59.31-2.38,3.2-14.85-1.1-25.25-4.42-38.06-.18-.69-9.6-27.95-9.26-19.59h-1c-.32-1.27-1.53-2.57-1.27-4.36.43-2.93-1.17-4.87-2.52-7.08-2.56-4.18-4.72-8.53-8.13-12.23-2.67-2.89-4.22-6.73-7.44-8.66-.14-.09-.34-.17-.51-.19-.15-2.89-10.38-12.45-13.13-14.75-2.47-2.07-4.25-5.04-7.36-5.97-3.05-.91-4.81-3.95-8.03-4.39-.53-.07-.92-.57-1.5-.81-.99,2.49-.64,4.51-1.44,7.35-2.2-6.01,2.24-8-1.18-10.01-13.42-7.9-42.35-19.13-57.83-19.13-2,0-5.09-1.91-5.54-.25-1.79,6.57-.11,5.58-2.6,5.79l.03-.8c1.59-.9,1.51-3.85.09-4.9-.45-.34-1.05-.47-1.53-.75,1.97-2.03-17.44-3.48-15.54-1.7-1.16-.28-2.66-.05-3.85-.05.47-.48-.16-1.53-.94-1.53h-25.17c-.79,0-1.44,1.01-.95,1.5-.63,0-1.64-.18-2.22.07,1.61-1.62-11.46.69-12.86,1.73-.4.3.05,1.28.49,1.21.5-.08,1.04.25,1.62.33l.09.68c.11.87,1.07.95,1.82,1.24-1.16,1.09-1.96.35-2.63.38-1.04-.17-2.05-.5-3.07-.76.39-.65-.25-1.23-.7-1.39-.68-.25-1.29-.09-1.85-.02-.25.03-.56,0-.81-.03-4.4-3.94-23.24,3.93-25.98,8.89-2.95,2.29-5.69,5.74-8.23,8.63-9.62,10.93-11.95,24.36-9.74,38.32,2.23,14.11,8.1,26.2,16.24,37.44,1.72,2.38,3.7,6.05,7.38,5.86l1.7-.09c3.15,1.06,8.45,3.95,10.49.03.46.06,1-.03,1.45-.03.4,0,1.06,1.1,1.73.82,5.04-2.09,9.84-.42,14.74-.87.45-.04.95.19,1.4.1-.47.52.22,1.34.96,1.49,9.82,1.99,19.01,4.78,27.83,8.99.41-.61.64-.87.75-.89l1.58-.04c.99.51,2.83,1.33,3.98.78-.1,3.47,1.39,2.67,6.37,7.39,4.69,4.44,9.65,8.53,13.65,14.09.95,1.32,3.65.16,5.05.82-.75.58-1.8.95-2.01,1.87-.27,1.16.41,1.94,1.14,2.89,4.25,5.56,5.45,13.74,7.52,14.38.15.05.38.04.54.02,1.89,1.28.53,3.21.88,4.67l6.2,25.75c.26,1.07,1.38,1.48,2.02,1.42.13.37.66.56.92.81-2.72,5.58,11.16,11.03,13.83,11.12l.69.02c-.12.4.09.79.4.89.58.2,1.62-.04,1.27-.74l1.42.05c-3.71,1.64,11.98,2.01,9.87,2.28l6.49-.84c.77-.1,1.41-.98.95-1.48l1.33-.05c-.77,2.01,9.85-2.74,9.09-3.36.21-.07.5.07.69-.02,2.33-1.13,5.35-1.66,6.62-4.04.13-.24.5-.62.76-.68l1.19-.28c.53-.13.88-.81.58-1.43.18-.06.41-.03.6-.02l1.84.09c.06.46.68,1.14.7,1.64-3.94,4.2-9.3,6.54-14.53,8.87-2.88,1.29-5.9,3.05-8.91,3.21l-2.45.13c-.8.07-2.14-.47-2.5.49-1.6-.66-3.41.45-4.97.22-2.88-.43-5.76-1.27-8.69-.9-2.67-1.88-6.13-2.02-9.1-3.21-1.55-.62-2.82-2.91-4.87-2.58-.9-1.56-2.48-2.56-3.95-3.55l-4.05-8.38-2.5-9.78c-1.68-6.56-2.84-13.34-5.57-19.55-.63-2.98-2.05-5.68-3.57-8.28-.92-1.58-1.35-3.49-2.82-4.71-.17-1.47-1.6-3.25-2.62-4.02-.25-.19-.42-.91-.91-.81-1.06-2.38-2.78-5.4-5.56-5.51.22-.73-.72-1.26-.76-1.83-.09-1.42-1.81-1.74-2.55-2.42-1.33-2.65-4-3.96-6.38-5.53-1.94-1.29-3.48-3.11-5.92-3.48-.79-.92-2.01-1.78-3.19-2.3-3.2-1.42-6.12-3.66-9.67-3.99-2.56-1.79-5.78-2.68-8.89-2.64-2.85-1.98-6.55-2.1-9.85-3.05-2.98-.85-5.91-1.58-8.99-1.65-3.23-.08-6.78-.53-9.5,1.51-3.29-.49-6.61,1.2-9.88.89-2.87-.27-5.88-1.62-8.11-3.3-1.68-1.26-3.04-3.14-4.91-4.1-1.08-2.37-2.68-4.6-4.62-6.39-.65-.6-.51-2.24-1.72-2.45-.12-.26-.1-.6-.24-.85-3.27-5.75-6.07-11.71-8.69-17.78-.11-3.45-1.86-6.6-2.51-9.92-.72-3.69-.71-7.54-1.01-11.27-.07-.9.28-2.42-.02-3.19.18-4.42.51-8.81,1.93-13.02.08-.23-.14-.58-.04-.81,2.91-6.52,6.65-12.35,11.29-17.77.48-.56,1.38-.8,1.53-1.66.14-.28.68-.65.94-.87,5.24-4.49,10.59-8.57,17.01-11.19.28-.12.57-.29.87-.36,4.03-.96,8.02-2.56,12.2-2.64,2.88-.05,6.14,1.25,8.21-1.34.33-.41,1.27-.28,1.68-.57,2.39,1.59,4.84-.69,6.99-.94l7.45-.62,8.88-.03Z"/><path class="e" d="M782.48,628.42c.23,1.06,1.77.6,2.57.62l4.81.12c2.42,2.14,5.27,3.9,7.93,5.76.28,1.2.59,2.53,1.69,3.22l.32,5.62c.13,2.35.77,6-1.36,7.76l-8.07,6.69c-6.05.82-10.38,4.18-17.57,3.39-.92-.1-2.34-.15-3.22-.07-1.56-2.06-4.35-2.81-6.4-4.35h-.57c.09-1.73-.76-3.29-1.97-4.42.17-1.13-.81-2.4-1.02-3.43-.34-1.72-.73-3.95-.74-5.66,2.58-7.3,5.86-10.36,13.08-13.67,2.74-1.26,6.49.03,9.15-1.65.3-.17,1,.06,1.37.07"/><path class="e" d="M483.82,609.5c6.79.25,13.02,3.22,19.47,5.2l-3.7,29.17c-1.01,8-.76,16.13-.04,24.22l1.73,19.32,2.74,29.39c1.11,11.91-.18,23.67,13.98,30.1.23-.02.49.06.72.02.36,1.45,1.94,1.67,3.24,1.55.25-.02.57-.07.81,0,.46,1.69,2.35,1.83,3.96,2.48,8.96,3.63,17.93,5.2,27.51,5.93,2.51.19,4.86.64,7.56.6,4.58-.06,8.86,1.21,13.05,1.44.46.03.97-.04,1.43.05,3.26.68,6.9,1.12,10.56,1.52l7.43.82h37.2c2.92.01,5.61-1.27,8.26-.71.71.15,1.51-.15,2.23-.06,4.27.57,8.55-.48,13.1-.53l25.98-.32c5.46-.07,10.5-1.63,15.5-2.35.46-.07.98.06,1.43-.05,7.31-1.88,14.68-3.53,22.12-4.84.39.14,1.08-.02,1.52,0,8.68.19,23.08-2.28,27.52,8.56.89,2.17-.46,4.32-.76,6.15-.19.28-.54.49-.69.79-.79.21-1.4.77-1.69,1.53-.23.05-.52-.04-.74.04-9.22,3.3-18.86,4.55-29.05,4.66l-37.51.41c-2.41.03-4.52,1.14-6.63.71-1.27-.26-2.73.43-3.98.1-.33-.09-14.62,1.19-17.03,1.31l-17.07.89-13,.65c-7.87.39-15.65.54-23.47,0l-8.2-.56-11.37-.89c-12.82-1-25.06-2.69-37.78-4.11-10.62-1.18-20.63-3.19-30.42-6.44-.22-.07-.58-.05-.81-.03-.27-1.12-1.4-1.55-2.46-1.59-.23,0-.53-.12-.75-.04-.54-1.5-2.58-1.41-3.99-2.3l-10.66-6.71c-.13-.28-.53-.44-.72-.68-2.39-3.01-4.39-6.15-6.15-9.55.06-.27-.18-.67-.24-.95-1.04-5.14-1.24-10.32-1.08-15.55l.04-1.43-.02-13.13c0-.51-.02-1.01.01-1.52l-4.54-36.46c-2.33-18.75,3.83-46.84.36-66.36,2.17-.24,3.55-.52,5.05-.47"/><path class="h" d="M337.82,305.3c1.91-.51,4.38.85,6.37.01.77-.33,2.43-.14,3.25.03,2.68.55,5.43.39,8.12.82l19.53,3.09c2.95.47,5.73,1.5,8.77,1.73,2.92.22,5.89,2.49,9,2.29.24-.01.65.11.86.23,2.51,1.44,5.52,1.45,8.18,2.37l18.67,6.49c1.52,1.18,3.76,2.11,5.62,2.89l4.89,2.04c2.47,1.71,5.13,3.16,8.05,3.93.95,1.65,3.61,2.23,5.01,3.36,1.49,1.2,3.38,2.13,4.88,3.14,2.61,2.18,5.45,5.03,8.61,6.43.22.8,1.52,1.27,1.97,1.77,1.01,2.19,4.78,3.77,6.28,5.54,1.71,2.03,2.96,4.58,5.63,5.74,1.01,1.58,2.17,3.79,3.94,4.83.7,1.29,1.56,2.96,2.61,4.15,2.57,2.88,4.48,6.38,7.41,8.9.23.2.49.52.65.78,3.89,6.27,8.26,12.41,13.06,17.99,1.63,1.89,2.53,4.79,4.7,6.24.05,1.53,2.36,2.83,2.76,4.02.89,2.62,4.8,6.6,6.33,9.01,1.89,2.97,3.78,5.91,5.72,8.94l3.2,4.99c.77,1.2,1.61,4.02,3.09,4.84,1.97,6.07,7.26,12.01,9.83,17.81l8.33,18.8c1.17,2.64,2.33,5.98,3.16,8.76l5.63,18.79c.79,2.64-.35,6.37,1.57,8.89.43.57.06,1.76.37,2.44.81,1.78.69,3.87,1.34,5.68.68,1.87.45,3.99,1.51,5.68-.86,1.12.83,3.04.98,4.09l.8,5.65c.2,1.44.69,2.98,1.52,4.09-.37,2.85.79,5.97,1,8.84.04.51-.11,1.08.7.87-.76,3.11,1.08,6.01,1.6,8.84.52,2.85-.26,6.15.82,9.02.1.25.19.59.19.87.02,3,.98,5.91,1.37,8.8.66,4.85.03,10.12,1.74,14.69.11.32.32.6.46.92.21.45.42.69.81.2-.09.42.07.89,0,1.31-.19.25-.32.54-.47.81-1.4,2.49-1.41,6.48,0,8.93,0,.23-.01.6-.11.81-1.29,2.8.3,6.18.05,8.98l-1.65,18.62c-.28,3.22-.47,6.78-1.34,9.87-.81,2.9-1.33,5.73-1.95,8.62-.65,3.01-3.91,5.87-3.91,9.24v.77c-3.04,1.6-3.78,5.61-5.85,8.09-1.43,1.71-2.64,3.05-3.73,5.03-.84,1.53-3.33,1.96-3.96,4.01-.46,1.49-4.2,1.79-4.39,3.79-3.11,2-6.04,4.33-8.97,6.59-.23.18-.46.57-.73.66-3.24,1.09-5.95,3.28-8.96,4.85-1.6.83-3.54,1.12-4.8,2.55-1.59-.34-3.39,1.23-4.91,1.49-2.48.41-4.57,2.18-7.17,1.99-.23-.77-.7-1.79-.62-2.67,7.72-1.39,14.57-5.07,21.56-8.96,6.99-3.89,12.97-8.13,18.42-13.97,3.93-4.21,7.55-8.1,10.16-13.36,4.97-9.99,7.47-20.66,9.14-31.68.64-4.24.04-7.31-.32-10.8-.53-5.27.14-10.8.02-16.09-.07-2.96,1.82-6.15.02-10.02-.59-1.27,1.13-9.48-1.59-8.04.03-.42.07-1.02-.05-1.42.66,0,1.05-1.58.91-2.54l-2.8-18.39c-.08-.55-1.14-.74-1.29-.38.09-.45-.1-.96-.05-1.42,1.83-.63-.15-10.09-1.59-8.32.06-.47-.07-.95-.05-1.42,1.54.22-.2-9.44-1.6-7.57l-.05-1.53c.58-.82.73-2.06-.43-2.86-.68-.46-1.14-.85-1.4-1.43-.23-.53,1.28-1.14,1.25-1.64-.29-4.43-1.3-8.72-2.42-13.19l-2.42-9.68c-4.07-16.29-7.72-32.12-15.31-47.13-2.3-4.55-8.7-23.3-13.3-18.2-.34-1.43,1-2.04,1.18-3.2-.92-4.18-3.92-7.22-5.73-10.95-2.04-4.2-4.91-7.42-7.52-11.19-5.98-8.63-11.72-17.17-18.21-25.59-1.7-2.21-8.59-13.65-10.51-13.15-.32-.45-.67-1.04-.85-1.56-.4-1.12-1.09-2.08-2.32-2.31-.1-.25-.43-.74-.66-.88-.28-2.07-1.51-4.2-3.95-4.84-19.11,28.51-39.71,25.37-63.96,44.98-6.88,5.56-18.06,24.34-23.11,32.19-.16.5-.48.92-.69,1.39-1.73.05-2.2,1.97-3.36,3.23-2.34,2.53-5.27,4.4-6.32,7.45-.36,1.06-1.17,1.58-1.88,2.36-3.42,1.08-6.38,4.13-8.06,7.26-.16.07-.38.12-.55.11-1.93,0-2.85,1.88-4.35,3.23-1.26,1.14-3.3,1.48-3.21,3.24-.2.08-.43.09-.63.15-.47.15-9.53,5.31-8.36,6.28-.19.07-.43-.01-.61.07-5.95,2.62-11.72,5.57-18.35,6.9-.89.18.4,1.48.37,1.97-.05.83.1,2.2-.04,3.07-2.28,14.04,8.63,36.01,11.07,52.81.23,1.58.22,3.11,1.04,4.1.87,1.07,2.59,1.25,4.19,1.02l12.26-1.76c-.94,3.82-11.56,1.66-15.44,4.16-2.08,2.61-.46,6.75-.64,9.75-.32,5.42-.45,10.51-.1,16.06.06.34.41.33.59.14.13.27-.2.69-.04,1.43-2.01-3.08-2.39,14.52-2.44,15.53-.18,3.88-1.92,7.61-.69,11.41l4.9,1.2c-1.44.84-2.35.3-3.65.39-1.03.08-1.29,1.05-1.18,2.35.06.78-.28,1.62-.17,2.4-1.79-2.33-2.39,11.52-1.6,14,.13.42-.06,1.01-.06,1.45-1.78.49-1.5,3.01-1.7,4.8l-1.95,17.22c-.25,2.16.07,3.78,2.32,4.88-7.46,5.93-2.29,19.3,2.69,24.1,7.42,7.16,16.61,13.74,26.54,14.92.53.06,1.08.08,1.6.2.36,1.67,2.4,1.16,3.85,1.77,3.66,1.54,7.16,2.14,10.69,1.25.4-.1,1,.02,1.42.05-.45.6.11,1.46.95,1.49l4.76.18c-.03.82-.32,1.73-.71,2.41h-4.02c-3.25.01-6.56-1.15-9.89-1.12-4.47-1.59-9.1-2.92-13.71-4.01-1.12-1.35-3.19-1.23-4.61-2.08-1.84-1.1-3.71-2.27-5.86-2.64-.27-1.14-1.83-1.11-2.65-1.76l-9.13-7.17c-3.13-2.46-4.24-7.04-7-9.87.06-3.12-1.34-6.3-1.18-9.44l.47-9.12c.3-5.89,2.25-11.93,1.65-17.91.79.29.62-.38.76-.81.92-2.84.31-6.11.97-8.92.75-3.2,1.21-6.35,1.39-9.68l.49-9.08c.17-3.21,1.42-6.36,1.05-9.65-.19-1.68-.14-3.88.3-5.54,1.87-6.93,1.3-14.23,2.3-21.33.45-3.19.17-6.3.11-9.49-.12-6.32.07-12.96-2.54-18.59.13-3.18-.94-5.98-1.54-9.12-.59-3.05-1.79-5.87-2.63-8.81l-4.95-17.26c-.13-.45-.54-.98-.52-1.45.11-3.01-.71-5.96-.93-8.96-.22-3,.16-6.07-.69-8.98-.06-.22-.08-.59-.03-.81.7-3.11-.75-6.07-1.1-9.07-.37-3.17-1.2-5.92-2.28-8.87-.99-2.7-1.82-6.75-3.86-8.77-.29-.43-.6-1.34-.89-1.84-3.48-6.19-7.87-12.11-12.9-17.05-.99-.97-2.66-2.95-3.52-3.98l-4.82-5.77c-1.77-2.11-3.37-3.55-5.3-5.4-5.28-5.09-11.73-9.86-19.04-11.43-.31-.07-.53-.48-.83-.59-.77-.27-1.57-.43-2.37-.5-.27-.17-.51-.47-.81-.59-4.46-1.69-9.24-1.66-13.81-2.33-2.89-.43-5.72-1.72-8.82-1.92-2.29-.14-5.73-3.47-6.4-5.49-.74-2.47,1.05-5.73.81-8.26.45,0,.59-.32.72-.67,1.13-3.01,3.17-5.63,3.86-8.8,2.77-2.17,3.81-5.82,5.55-8.77l4.8-8.15c2.11-3.59,5.6-6.29,7.45-9.9,1.26-1.53,3.52-3.08,5.1-4.33.79.42,1.85,1.29,1.71,2.44-7.37,8.03-13.48,17.02-18.96,26.79-1.49,2.65-11.72,19.81-5.56,19.64.03.38.05.81.23,1.13.99,1.82,5.02-1.94,6.75-.8.74.49.4,2.28.83,2.85.84,1.1,8.06,1.92,6.07.9.43.21,1.04.06,1.51.13-.28.71.7,1.25,1.57,1.38,32.45,4.76,39.34,29.42,46.48,27.47.44-.12,1.32-.48.84-1.25.46-.05,1.13.13,1.55-.06l2.41,1.28c-.82,1.1-4.63-.06-3.96,2.11.14,1.26.9,2.34,1.94,3.52,8.04,9.25,14.34,19.89,17.12,32,.64,2.77.23,5.72,2.2,8.1,11.83,1.84,45.48-28.9,50.79-36.62l17.79-25.86c14.68-21.34,36-23.36,54.25-36.03,6.26-4.35,15.82-12.08,17.35-19.78-5.72-9.28-22.95-22.07-32.25-27.47-12.33-7.17-25.21-12.02-38.75-16.39-1.63-.52-3.24-.79-4.49-.13-3.1-.97-.64,4.08-2.16,4.85-.72-1.65-.12-3.11-1.15-4.07l-.09-1.68c3.11-2.92-8.6-4.17-11.16-4.61-2.44-.42-4.55-2.17-6.69-1.09-.37.19-1.02-.15-1.44-.09,4.11-1.32-22.81-4.89-19.67-3.16-.73-.36-2.23-.09-3.05-.07,3.05-2.32-14.16-2.2-12.37.04-1-.03-2.18.23-3.14.05-1.11-.21-2.15-.57-3.24-.08-2.92,1.3-.43,6.66-2.98,6.8-.57-1.61-.22-2.77-1.05-3.56-.28-.27-.49-.5-.81-.75-1.6-1.24-3.47.49-5.06,1.55l-18.05,12c-2.11,1.4-3.96,2.91-6.15,3.43-.53-.64-.75-1.44-.81-2.26,2.35-.86,4.06-2.81,6.24-3.97,5.93-3.16,10.98-7.81,16.57-11.4,5.49-3.52,12.54-4.1,18.67-5.75"/><path class="g" d="M754.93,643.62c1.16-.55,2.76.05,3.95.06.01,1.7.4,3.94.74,5.66-5.18.73-10.44,1.91-15.2,4.07-.47.21-1.24.31-1.65.63-2.85-.12-5.62,1.89-8.22,2.77-6.96,2.35-13.92,5.57-19.44,10.44-2.18.77-4.27,2.12-5.53,4.08-4.05,2.2-7.49,5.84-9.82,9.76-3.38,1.62-4.23,6.05-6.41,8.75-2.16,2.68-3.75,5.4-5.13,8.62-1.22,2.85-2.21,5.68-3.26,8.54-1.29,3.51-3.32,6.85-3.97,10.65-.18,1.04-1.24,2.13-1.56,3.23-.48,1.68-.68,4.15-1.52,5.65-1.71,3.05-2.44,6.4-3.42,9.8-.86,3-1.3,5.98-1.51,9.05-.21,2.96-1.78,5.74-1.69,8.78l.05,1.62c-2.92.7-5.98,1.18-8.89.02.65-2.73.3-6.2.9-8.92l2.32-10.61c.62-2.83,1.35-6.35,2.57-8.86,3.07-6.31,4.17-13.4,7.1-19.67l9.06-19.37c1.1-2.34,3.61-4.32,3.81-7.11,2.64-2.32,6.32-7.41,8.38-9.92.34-.42,1.15-1.16,1.58-1.47l6.06-4.4c1.29-.93,2.22-1.6,2.18-2.83.22,0,.59-.04.82-.1,3.7-1,6.35-4.29,9.75-5.84l6.93-3.14c.28-.13.7-.74,1-.71.6.06,1.21-.85,1.69-.84,2.97.05,5.33-2.83,8.03-3.35,4.12-.8,8.01-2.39,12.24-3.85,2.62-.91,5.72-.09,8.05-1.2"/><path class="h" d="M564.21,611.21c.35,3.49.96,6.56.32,10.8-1.67,11.02-4.18,21.69-9.14,31.68-2.61,5.26-6.23,9.15-10.16,13.36-5.45,5.83-11.43,10.08-18.42,13.97-6.99,3.89-13.84,7.56-21.56,8.96.03-.3-.2-.6-.21-.9l-.14-2.43c.27.02.97,1.98,1.66,1.77,19.69-6.15,39.51-18.92,49.22-38.25-5.44-6.1-11.41-10.63-17.98-15.03-3.36-2.25-29.89-20.74-31.32-16.57.12-1.85-1.41-3.31-3.19-3.86-6.45-1.98-12.67-4.95-19.47-5.2-2.52-1.92-6.05-.14-8.9-.65-6.32-1.13-12.67-.83-19.55-.09l-10.4,1.13-24.21,5.46-6.01,2.38c-1.53-.21-2.65.56-3.97.82-7.48,1.48-14.73,4.13-21.98,6.53-1.51.5-3.22.12-3.5,2.29-1.73.04-3.84.3-5.81,1.2-14.61,6.66-32.4,15.77-43.15,27.34-3.79,9.27.69,18.4,7.97,24.23,11.73,9.4,10.33,6.27,21.97,12.38-9.94-1.18-19.12-7.76-26.54-14.92-4.97-4.8-10.15-18.17-2.69-24.1-2.25-1.1-2.56-2.72-2.32-4.88l1.95-17.22c.2-1.79-.08-4.31,1.7-4.8.12,6.83-2.92,14.63-.98,23.27,14.65-12.48,30.28-21.78,47.93-27.45l16.54-5.31c24.97-8.02,61.87-17.55,87.47-10.33,20.4,5.75,38.47,16.22,55.21,28.94,4.46,3.39,8.33,6.64,12.31,11.13,5.44-8.36,5.53-26.67,7.34-35.64"/><path class="f" d="M506.47,618.55c-.24,3.8-.6,7.67-1.3,11.81-2.29,13.68-2.48,27.32-1.43,41.18l1.15,15.09.14,2.43c-3.94-1.3-.6,15.48-.63,14.8l.9,16.5c.19,3.57.84,6.66,1.14,10.33.43,5.36,3.87,10.73,8.15,13.67,1.44.99,3.45.65,3.42,2.53-14.17-6.44-12.87-18.2-13.98-30.1l-2.74-29.39-1.73-19.32c-.72-8.09-.97-16.22.04-24.22l3.7-29.17c1.77.54,3.3,2.01,3.19,3.86"/><path class="f" d="M483.82,609.5c-1.5-.05-2.88.23-5.05.47,3.48,19.52-2.69,47.61-.36,66.36l4.54,36.46c-1.29.03-1.41-1.07-1.53-2.33l-1.27-13.42c-.06-.62-1.27-1.34-1.63-1.17-.36.17-.39,1.17-.58,1.59-.67.3-1.25-.16-.61-.78-3.07-21.36-3.94-24.09-2.53-46.37.3-4.71.23-9.12.84-13.78,1.03-7.87.91-15.31.07-22.7-.13-1.13.41-2.81-.78-3.46l-.02-1.5c2.85.51,6.37-1.27,8.9.65"/><path class="h" d="M477.95,697.44c.03.99-.02,2,.02,2.99-.55-.04-1.03.59-1.46.73-3.35.24-6.57,1.25-9.84,1.94-2.89.61-6.03.08-8.74,1.39-3.22-.52-6.43.37-9.65.3-3.02-.06-6.02.18-9.04.29-1.93.07-3.84-.15-5.75-.25l-12.16-.67c-1.05-.06-2.08-.37-3.14-.36l-.17-4.95c1.3.88,3.1,1.63,5.07,1.64l34.58.11c7.54-1.93,12.52-1.54,19.67-3.92-.64.62-.06,1.08.61.78"/><path class="f" d="M668.1,775.39c-.02,1.36-2.05,1.74-3.47,1.82l-16.73.9c-3.76.2-6.65,1.2-10.7,1.19l-50.24-.13c-3.03,0-4.98-.02-7.79-1.07-3.99-1.49-9.14.43-13.29-.88-4.38-1.37-8.56-1.14-13.06-1.75l-12.99-1.73c-12.6-1.68-18.76-1.81-30.08-7.49,9.79,3.25,19.81,5.26,30.42,6.44,12.72,1.42,24.95,3.11,37.78,4.11l11.37.89,8.2.56c7.83.53,15.6.39,23.47,0l13-.65,17.07-.89c2.4-.13,16.7-1.4,17.03-1.31"/><path class="f" d="M745.28,769.51c1.76,3.54-20.2,4.88-22.7,5.15-3.86.42-7.48,1.32-11.55,1.33l-38.01.07c-.6-.11-1.27-.3-.94-.77,2.11.43,4.23-.69,6.63-.71l37.51-.41c10.19-.11,19.83-1.36,29.05-4.66"/><path class="f" d="M639.75,760.6c-2.65-.56-5.35.72-8.26.72h-37.2s-7.43-.83-7.43-.83c-3.67-.4-7.3-.84-10.56-1.52.07-2.31,11.28.7,11.65.7l50.85.22c.63.01,1.29.24.95.71"/><path class="f" d="M696.57,757.35c-5,.72-10.04,2.28-15.5,2.35l-25.98.32c-4.56.06-8.83,1.1-13.1.53-.33-.41-.16-.82.13-1.07.37-.32,14.3-.81,16.66-.86l29.33-.71c2.94-.07,6.02-2.22,8.47-.55"/><path class="f" d="M574.87,758.92c-4.19-.23-8.47-1.5-13.05-1.44-2.69.03-5.04-.41-7.56-.6-9.58-.73-18.55-2.3-27.51-5.93-1.61-.65-3.5-.79-3.96-2.48l16.91,5.16c4.47,1.36,8.52,1.27,13.11,1.56,6.3.39,12.17,1.99,18.54,1.48,1.45-.11,3.81,1,3.53,2.25"/><path class="f" d="M748.4,767.15c.31-1.82,1.65-3.97.76-6.15-4.44-10.83-18.84-8.37-27.52-8.56,2.8-4.7,19.65-.91,24.82,3.24,3.45,2.77,6.24,10.65,1.94,11.46"/><path class="f" d="M720.12,752.46c-7.44,1.31-14.81,2.95-22.12,4.84-.24-1.72,1.92-1.84,3.54-1.98,5.89-.48,15.53-5.35,18.58-2.86"/><path class="f" d="M482.92,728.86c-.16,5.23.04,10.41,1.08,15.55-1.87-.21-1.61-2.18-1.79-4.06l-.88-8.97c-.07-.69,0-1.32.16-1.84.15-.45.71-1.12,1.43-.68"/><path class="f" d="M505.75,764.6c-1.6.57-2.69-.75-4.22-1.61-3.82-2.15-8.64-3.56-10.43-7.4l10.66,6.71c1.41.89,3.45.8,3.99,2.3"/><path class="f" d="M482.96,727.43c-1.12,3.08-1.11-16.23-.02-13.13l.02,13.13Z"/><path class="f" d="M490.38,754.91c-1.82-.04-6.72-7.03-6.15-9.55,1.76,3.4,3.76,6.54,6.15,9.55"/><path class="f" d="M521.97,748.47c-1.31.12-2.89-.1-3.24-1.55,1.34-.22,2.92.06,3.24,1.55"/><path class="f" d="M508.96,766.23c-.6.06-1.27.25-1.9,0-.62-.23-.82-.96-.56-1.59,1.06.04,2.19.47,2.46,1.59"/><path class="f" d="M746.01,769.47c.3-.76.91-1.32,1.69-1.53-.36.72-.87,1.36-1.69,1.53"/><path class="i" d="M410.79,618.55l.89,13.86c.34,5.26,1.22,10.33,1.35,15.61l.72,30.21.78,38.35.39,14.77c.42,16.17-7.93,29.46-22.82,35.22-12.55,4.85-24.76,9.53-38.07,12.21-24.31,4.89-64.26-.73-87.75,1.7l-17.66,1.83c-4.04.42-8.22,1.13-12.27,1.58l-14.49,1.62c-9.64,1.08-18.97.23-28.6-.23-10.04-.48-19.6.12-29.49-1.49-6.27-1.02-12.55.06-18.91-.58-7.26-.72-14.51-.27-21.76-.02l-15.11.5c-6.1.2-11.7.78-17.96-.17-11.1-1.68-21.69-5.03-32.09-9.15-4.27-1.69-6.24-5.86-5.18-10.86,1.64-7.71,10.4-12.65,18.93-10.91,14.03,2.85,27.61,6.85,41.93,9.5l7.49,1.39,11.29,1.64,16.99,1.76,15.44.85c9.28.51,18.26.6,27.53.05l16.98-1.01c4.51-.27,8.62-1.14,13.15-1.53l21.64-1.86c9.37-.81,18.39-.73,27.83-1.1l15.43-.61c7.59-.3,14.55.61,22.18.13,21.26-1.36,41.75-6.63,59.87-18.14,12.02-7.64,19.29-19.1,21.9-33.1.69-3.73,1.88-7.72,2.05-11.65.52-11.7,1.13-23.18,0-34.85l-1.72-17.69c-.38-3.9-1.62-7.48-1.44-11.57.15-3.4-1.38-6.62-1.41-9.71,7.25-2.4,14.5-5.04,21.98-6.53"/><path class="g" d="M474.93,608.85l.02,1.5c.02,1.15-.4,2.82.78,3.46.84,7.39.96,14.83-.07,22.7-.61,4.66-.54,9.07-.84,13.78-1.41,22.28-.54,25.02,2.53,46.37-7.15,2.38-12.13,1.99-19.67,3.92l-34.58-.11c-1.98,0-3.77-.75-5.07-1.64l-.18-27.53-.81-13.79-.82-18.67c-.32-7.29-1.87-14.22-1.45-21.13l6.01-2.38,24.21-5.46,10.4-1.13c6.88-.75,13.23-1.04,19.55.09"/><path class="g" d="M385.31,627.36l2.15,18.87,1.82,19.2c.9,9.46.72,18.65.41,27.77-.7,2.85-3.28,2.76-5.85,2.58-.42-.03-1.01-.15-1.42-.05-4.7-1.43-9.69-1.9-14.54-3.02-.52-.12-1.07-.14-1.6-.2-11.64-6.1-10.24-2.98-21.97-12.38-7.28-5.83-11.76-14.96-7.97-24.23,10.75-11.57,28.55-20.68,43.15-27.34,1.98-.9,4.08-1.17,5.81-1.2"/><path class="h" d="M389.55,697.45l-4.76-.18c-.83-.03-1.39-.9-.95-1.49,2.57.18,5.15.27,5.85-2.58l-.14,4.25Z"/><path class="f" d="M246.85,171.89c1.47,24.09-14.8,19.88-13.89,37.58.22,4.35.38,8.56-1,12.67-7.38,22-19.75,28.85-31.31,45.1-3.91,5.5-12.78,17.47-19.92,16.86-1.47-.13-1.74-1.92-2.98-3.1l-5.84-5.58c-2.11-2.01-4.08-3.82-6.38-5.09-4.98-4.72-6.47-3.91-6.37-7.39,8.44-4.05,14.37-12.67,13.45-22.55-.4-4.24-1.22-7.99.23-12.25,2.02-5.95,2.6-12.17,3.58-18.37.63-3.98,1.99-7.59,3.06-11.51,5.23-19.17-3.24-18.94,1.57-35.92,2.62-2.52,2.58-6.34,2.43-9.83.45-1.66,3.54.25,5.54.25,15.49,0,44.42,11.23,57.84,19.13"/><path class="i" d="M259,179.75l17.74,17.63c1.07,1.06,1.21,2.92,2.75,3.09.17.02.37.1.51.19.58,2.42,3.07,3.8,4.44,6.02-.81-1.32,13.13,19.39,11.29,17.05,1.98,2.53,1.06,5.81.91,8.44-.23,4.09-2.49,5.78-4.95,8.37-8.37,8.82-14.04,5.84-22.83,16.12-11.1,12.98-19.31,11.79-30.03,19.57l-18.81,13.66c-7.97,5.79-16.64,9.94-25.42,14.42-1.08.55-2.4-.06-3.17.08-.16.03-.38.03-.54-.02-.67-5.87-3.96-10.96-7.55-16.74,7.18-3.1,12.39-8.05,16.97-14.24l5.56-7.51c10.76-14.52,21.05-21.43,28.51-41.12,5.27-13.9-3.18-18.71,7.46-29.09,6.54-6.37,6.98-12.85,9.13-20.32,3.22.44,4.98,3.48,8.03,4.39"/><path class="i" d="M133,150.07l27.07.02c1.19,0,2.69-.23,3.85.05,3.12.75,11.74,1.38,15.54,1.7.48.28,1.08.42,1.53.75.04,1.64-.03,3.27-.09,4.9l-.03.8c-2.54,1.58-2.51,5.57-3.61,8.12-2.81,6.56,2.74,16.78.23,26.63l-4.22,16.59c-1.04,4.09-.79,8.53-2.17,12.66-6.87,20.49,8.65,24.12-15.92,39.86l-1.58.04c-2.07-2.54-28.54-9.8-29.54-9.59-.44.09-.94-.14-1.4-.1-5.01-2.3-11.58-2.53-16.48.04-.45,0-.99.09-1.45.03l-2.36-.94c.92-2.47,3.8-2.67,4.89-4.69,1.18-2.21,3.06-3.46,4.49-5.44,9.78-13.54,16.86-28.51,21.71-44.62,1.03-3.42.65-6.92,1.91-10.36,1.19-3.25-.17-6.52-.62-9.69-1.24-8.77-6.14-20.1-14.64-22.75l-.09-.68c-.8-2.17,5.7-1.1,10.75-3.27.58-.25,1.59-.07,2.22-.07"/><path class="e" d="M312.54,293.07h-.72c-5.52-.02-11.08-1.65-17.01-.57-33.96,6.17-67.26,22.95-93.38,44.54-.26-.25-.79-.44-.92-.81-1.25-3.66-2.16-7.48-3.2-11.57l-4.37-17.03c12.99-3.68,32.51-18.03,42.95-26.3,2.88-2.28,16.94-9.83,20.79-11.05,8.04-2.56,14.83-14.38,20.94-17.05,7.01-3.07,13.31-6.59,18.41-12.41,1.94-2.21,4.06-4.88,3.34-7.8h1c9.11,19.63,15.74,38.07,12.18,60.06"/><path class="e" d="M112.88,153.51c.26.02.56.06.81.03.52.94,1.59,1.16,2.55,1.41,1.02.27,2.03.6,3.07.76.83,1.25,2.09,2.07,3.42,2.74,12.86,13.52,11.03,30.29,4.93,47.07-5.63,15.49-18.26,40.18-33.41,47.03l-1.7.09c-3.07-.97-5.15-3.62-7.38-5.86-8.14-11.24-14.02-23.33-16.24-37.44-2.21-13.97.12-27.39,9.74-38.32,2.54-2.88,5.28-6.33,8.23-8.63,7.48-5.81,16.54-9.76,25.98-8.89M101.72,181.46c1.94-2.16,2.62-5.91,1.86-8.44-.55-1.84-2.12-4.49-4.73-5.62-6.48-2.81-13.88,1.4-17.37,7.23-1.83,3.06-2.39,5.87-.73,8.88,3.9,7.07,15.61,3.92,20.97-2.05M123.21,182.46c.14-.18.52-.21.95-.62,2.14-2,4.04-5.45,3.06-8.6-1.08-3.51-4.23-5.51-8.01-5.25-5.7.39-11.86,4.58-12.62,10.64-.71,5.71,5.97,9.08,10.69,7.64,2.54-.77,4.51-1.32,5.91-3.81M88.17,229.42c5.24,2.02,10.04-.21,13.42-3.6,2.88-2.89,3.91-6.4,2.61-10.59-.89-2.88-3.61-5.68-7.26-6.76-5.31-1.58-9.24,1.28-13.24,4.33-2.83,2.16-5.04,4.09-3.33,8.38,1.22,3.07,4.05,6.78,7.79,8.23"/><path class="i" d="M244.24,313.15c5.88,6.8,10.87,14.94,13.24,23.58l-.27,1.73c-.19,0-.42-.04-.6.02-.83.26-1.51.88-1.77,1.71-.26.06-.63.44-.76.68,2.29-2.04-10.85,5.49-6.62,4.04-.19.09-.49-.04-.69.02-3.03.98-6.3,1.81-9.09,3.36l-1.33.05c-5.84.22-11.47.25-17.31.04l-1.42-.05-1.67-.15-.69-.02c1.75-1.25-9.73-3.74-12.91-8.06,11.8-10.73,28.63-19.74,41.89-26.94"/><path class="h" d="M263.25,81.14c-1.67-.2-3.35-.09-5.02.03-1.38.07-2.81-.04-4.18.17l-8.76,1.34-9.01.99-9.78,1.56c-.58.09-1.34-.06-1.62.63-2.08.21-4.31.38-6.33,1.01-3.81,1.18-7.92,1.28-11.53,3.01-.67.32-1.69.27-2.44.45-2.28.53-4.42,1.22-6.56,2.07-2.7,1.08-6.19.98-8.11,3.42-.68-1.23-19.12,7.58-18.6,8.88-2.72,1.01-5.38,2.58-7.21,4.84-.31.38-1.1.78-1.53,1.03-7.47,4.28-22.49,19.21-26.91,25.81-.52.78-1.53,1.7-1.84,2.6-2.66,1.98-4.81,5.01-6.43,7.95-2.15.25-4.6,2.53-6.99.94l6.4-10.56c2.93-1.86,5.38-5.29,7.2-8.13.65-.27,1.14-1.34,1.64-1.73,2.81-2.19,5.65-4.67,7.43-7.78,3.71-2.72,7.07-6.02,10.43-9.18.24-.23.56-.69.86-.81,3.09-1.18,5.4-3.85,7.81-5.93,1.72-.84,3.91-1.78,5.65-2.92,1.14-.75,2.6-1.67,3.64-2.47,3.27-1.34,7.02-2.85,9.71-5.13,1.2.44,2.34-1.09,3.2-1.33l5.62-1.63,8.93-3.4c3.46-1.32,6.99-2.38,10.61-3.03l10.49-1.88c2.17-.39,4.66-.12,6.52-1.56,3.39.73,6.6-1.29,9.88-1.57,3.52-.3,6.86-1.1,10.32-1.51l8.1-.96c2.67-.32,5.76.76,8.27-.64,1.47.03,1.76,1.31,1.61,2.61-.12,1.02-.58,2.09-1.45,2.8"/><path class="i" d="M296.37,296.27c3.42-.43,6.99.21,10.43.01,1.11-.06,2.61.2,3.49.9.81.64.79,1.9.65,2.83l-.22.99c-.35-.23-.67-.14-.91.16-.21.27-.41.58-.46.9-.04.23-.03.48-.04.72-4.59,6.04-4.27,3.09-8.18,8.24-2.91,3.84-6.85,6.82-10.57,9.82-4.48,1.78-18.49-14.96-18.01-18.72,7.4-.04,15.71-4.82,23.8-5.85"/><path class="h" d="M250.97,175.36c-2.16,7.47-2.6,13.95-9.13,20.32-10.64,10.38-2.19,15.18-7.46,29.09-7.46,19.69-17.75,26.6-28.51,41.12l-5.56,7.51c-4.59,6.19-9.8,11.14-16.97,14.24,3.59,5.78,6.88,10.86,7.55,16.74-2.07-.64-3.27-8.82-7.52-14.38-.73-.96-1.42-1.73-1.14-2.89.21-.91,1.26-1.29,2.01-1.87-1.4-.65-4.1.5-5.05-.82-4.01-5.56-8.96-9.64-13.65-14.09,2.29,1.27,4.27,3.08,6.38,5.09l5.85,5.58c1.23,1.18,1.51,2.98,2.98,3.1,7.15.62,16.01-11.35,19.92-16.86,11.56-16.25,23.92-23.11,31.31-45.1,1.38-4.11,1.23-8.31,1-12.67-.91-17.7,15.36-13.49,13.89-37.58,3.42,2.01-1.02,4,1.18,10.01.8-2.84.45-4.86,1.44-7.35.58.24.97.74,1.5.81"/><path class="h" d="M299.36,233.01c.73,2.92-1.4,5.59-3.34,7.8-5.1,5.82-11.4,9.34-18.41,12.41-6.11,2.68-12.9,14.5-20.94,17.05-3.84,1.22-17.91,8.77-20.79,11.05-10.44,8.27-29.97,22.62-42.95,26.3l4.37,17.03c1.05,4.09,1.96,7.91,3.2,11.57-.64.07-1.76-.34-2.02-1.42l-6.2-25.75c-.35-1.45,1.01-3.39-.88-4.67.78-.14,2.09.47,3.17-.08,8.78-4.48,17.44-8.63,25.42-14.42l18.81-13.66c10.72-7.78,18.93-6.59,30.03-19.57,8.79-10.28,14.46-7.3,22.83-16.12,2.46-2.59,4.72-4.27,4.95-8.37.15-2.63,1.07-5.91-.91-8.44,1.84,2.34-12.1-18.37-11.29-17.05-1.37-2.23-3.86-3.61-4.44-6.02,3.22,1.93,4.77,5.78,7.44,8.66,3.42,3.7,5.58,8.05,8.13,12.23,1.35,2.22,2.95,4.15,2.52,7.08-.26,1.79.95,3.09,1.27,4.37"/><path class="h" d="M311.82,293.07c-.32,2.67,1.66,6.58-.87,6.95.14-.94.16-2.19-.65-2.83-.88-.7-2.38-.96-3.49-.9.61-1.58,2.94.61,3.65-2.19-7.86.08-15.34-1.41-22.81,1.36,3.33,1.8,6.44-1.64,8.73.82-8.1,1.03-16.4,5.81-23.8,5.85l-3.28.02c-.66,0-1.28,1.09-1.32,2.17-2.09-.26-4.14.15-6.23,1.19-4.57,2.28-13.74,4.66-12.53,7.08-.51-.84-1.89-1.36-2.71-1.38-1.21-.02-1.87,1.06-2.25,1.95-13.25,7.2-30.09,16.21-41.89,26.94,3.18,4.33,14.66,6.81,12.91,8.06-2.67-.09-16.55-5.55-13.83-11.12,26.11-21.59,59.42-38.37,93.38-44.54,5.93-1.08,11.49.56,17.01.57"/><path class="h" d="M181.04,162.34c.05-.59-.37-1.07,0,0-4.82,16.97,3.66,16.75-1.57,35.92-1.07,3.92-2.43,7.53-3.06,11.51-.98,6.2-1.56,12.41-3.58,18.37-1.45,4.27-.62,8.01-.23,12.25.93,9.89-5.01,18.5-13.45,22.55-1.14.55-2.99-.27-3.98-.78,24.57-15.74,9.05-19.36,15.92-39.86,1.39-4.13,1.13-8.57,2.17-12.66l4.22-16.58c2.51-9.86-3.04-20.07-.23-26.63,1.1-2.55,1.07-6.54,3.61-8.12,2.49-.21.81.78,2.6-5.79.16,3.48.19,7.31-2.43,9.83"/><path class="h" d="M104.74,252.59c-2.03,3.91-7.34,1.03-10.49-.03,15.14-6.86,27.78-31.55,33.41-47.03,6.1-16.78,7.92-33.55-4.93-47.07.38.43.64.25,1.09-.1.43-.34.36-.64.03-.82-.24-.13-.64-.88-.88-.78-.33.13-.72.91-.24,1.7-1.32-.67-2.59-1.49-3.42-2.74.67-.03,1.47.71,2.63-.38-.75-.29-1.71-.37-1.82-1.24,8.5,2.65,13.4,13.99,14.64,22.75.45,3.17,1.81,6.43.62,9.69-1.26,3.44-.88,6.94-1.91,10.36-4.85,16.11-11.93,31.08-21.71,44.62-1.43,1.98-3.31,3.23-4.49,5.44-1.09,2.02-3.96,2.22-4.89,4.69l2.36.94Z"/><path class="f" d="M249.2,312.57c1.83,2.99,4.68,5.49,6.37,8.93l10.43,21.19c7.84,15.92,20.34,17.54,27.89,31.55-1.09.88-1,3.88-3.27,4.12,1.73-4.38-17.25-20.4-20.95-22.14.14-1.15-.92-2.02-1.71-2.44-.66-1.84-1.99-4.05-3.53-5.5-.52-.49-.65-1.43-1.41-1.74-.37-2.3-1.84-4.59-3.28-6.34-.01-.5-.64-1.19-.7-1.64-.12-.96-.63-1.63-1.57-1.82-2.37-8.64-7.36-16.78-13.24-23.58.37-.89,1.04-1.98,2.25-1.96.83.01,2.2.54,2.71,1.38"/><path class="f" d="M272.57,302.12c-.48,3.76,13.53,20.49,18.01,18.72.23,1.83.54,2.57,2.44,2.87.97,1.06,2.02,2.07,3.33,2.71.07.82.28,1.63.81,2.26.43.52.98.92,1.64,1.1,1.59,8.2,7.87,14.45,13.88,20.15-.37.54.14,1.68-.54,2.37-.42.42-1.11.8-1.89.83-.78-1.21-1.84-2.41-3.17-3.48-12.55-10.18-8.86-18.67-17.87-23.57-9.47-5.15-15.88-12.84-21.24-21.79.04-1.07.66-2.16,1.32-2.17l3.28-.02Z"/><path class="h" d="M312.54,293.07c3.56-21.99-3.06-40.43-12.18-60.07-.34-8.36,9.08,18.9,9.26,19.59,3.32,12.8,7.62,23.21,4.42,38.06-.17.79.48,1.91-.31,2.38-.27.17-.81.06-1.2.04"/><path class="h" d="M153.6,262.2c-.11.03-.34.29-.75.89-8.82-4.21-18.01-7.01-27.83-8.99-.73-.15-1.43-.96-.96-1.49,1-.21,27.46,7.05,29.54,9.59"/><path class="h" d="M160.06,150.1l-27.07-.02c-.49-.49.17-1.5.95-1.5h25.17c.78,0,1.41,1.04.94,1.52"/><path class="h" d="M122.66,252.51c-4.9.44-9.71-1.22-14.74.87-.67.28-1.33-.82-1.73-.82,4.9-2.58,11.46-2.35,16.48-.04"/><path class="h" d="M236.36,348.35c.46.5-.17,1.38-.95,1.48l-6.49.84c2.1-.27-13.58-.63-9.87-2.28,5.84.21,11.48.18,17.31-.04"/><path class="h" d="M179.46,151.85c-3.8-.32-12.42-.95-15.54-1.7-1.89-1.77,17.51-.32,15.54,1.7"/><path class="h" d="M130.77,150.14c-5.05,2.17-11.54,1.11-10.75,3.27-.59-.08-1.13-.41-1.62-.33-.44.07-.89-.91-.49-1.21,1.4-1.04,14.47-3.35,12.86-1.73"/><path class="h" d="M279.49,200.48c-1.54-.18-1.68-2.03-2.75-3.09l-17.74-17.63c3.11.93,4.88,3.9,7.36,5.97,2.75,2.3,12.99,11.86,13.13,14.75"/><path class="h" d="M246.78,344.94c.76.62-9.85,5.37-9.09,3.36,2.78-1.54,6.05-2.37,9.09-3.36"/><path class="h" d="M112.88,153.51c-9.44-.88-18.5,3.07-25.98,8.89,2.75-4.96,21.59-12.83,25.98-8.89"/><path class="h" d="M301.15,311.01c3.9-5.14,3.59-2.2,8.18-8.24-.07,1.98-6.88,8.65-8.18,8.24"/><path class="h" d="M180.9,157.51c.06-1.63.13-3.27.09-4.9,1.42,1.06,1.5,4.01-.09,4.9"/><path class="h" d="M254.09,340.87c-1.27,2.38-4.29,2.91-6.62,4.04-4.23,1.44,8.91-6.08,6.62-4.04"/><path class="h" d="M259.05,338.55l-1.84-.09.27-1.73c.94.19,1.45.86,1.57,1.82"/><path class="h" d="M116.24,154.95c-.96-.25-2.03-.47-2.55-1.41.56-.07,1.17-.23,1.85.02.45.16,1.09.74.7,1.39"/><path class="h" d="M92.55,252.65c-3.68.19-5.66-3.47-7.38-5.86,2.23,2.23,4.31,4.89,7.38,5.86"/><path class="h" d="M254.85,340.2c.26-.84.93-1.45,1.77-1.71.3.62-.04,1.3-.57,1.43l-1.19.28Z"/><path class="h" d="M217.63,348.33c.34.7-.69.94-1.27.74-.31-.11-.52-.49-.4-.89l1.67.15Z"/><path class="h" d="M310.73,301c-.07.31-.27.6-.47.92-.23.37-.51.51-.89.14.05-.32.25-.62.46-.9.23-.3.55-.39.9-.16"/><path class="e" d="M543.84,534.87c-18.08,9.46-22.88,23.89-53.69,21.51-24.64-1.91-41.95,2.37-65.08,9.13-8.57,2.5-15.99,6.29-23.84,10.34l-10.23,5.28-29.48,15.94c-4.63,2.5-16.64,8.97-20.25,6.12-.73-.57,2.52-22.88,2.01-25.34-.15-.74.17-1.15.04-1.43-.14-2,.82-3.35.83-4.99l.05-20.23c13.11-1.69,26.23-3.97,38.03-9.88,10.97-5.49,14.88-15.67,21.85-25.92,3.78-5.56,15.17-11.71,21.64-13.62,8.8-2.6,16.95-6.27,23.97-12.59l11.35-10.23c7.29-6.57,14.89-11.62,23.86-15.35l14.91-6.19c9.42-3.91,17.25-9.76,24.32-16.93,2.61.92,2.69,3.14,3.7,4.96,9.96,17.82,16.64,36.34,21.05,56.13l4.69,21.05c.35,1.55,2.22,5.71.26,6.07-4.62.84-6.76,4.46-9.99,6.15"/><path class="g" d="M477.42,371.1c.24.14.56.63.66.88.36,1.1,1.06,2.22,2.32,2.31.18.52.53,1.11.85,1.56l26.32,37.1c5.33,7.51,9.8,14.95,14.54,23.15-14.61,18.68-32.9,18.45-51.71,31.17-7.57,5.12-14.04,11.19-20.9,17.14-22.6,19.58-38.34,8.32-56.07,39.67-4.11,7.89-10.75,13.16-19.13,16.06-9.97,3.45-19.91,5.64-30.55,6.8-2.41-12.36-7.04-23.42-9.49-35.42l-3.5-17.15c.35-1.62.76-3.49-.42-4.22.14-.87,0-2.24.04-3.07,1.49-1.31,3.36-2.23,5.71-2.38,1.64-.86,13.96-4.92,12.27-6.49.18-.08.43,0,.61-.07,3.18-1.19,6.65-3.31,8.36-6.28.2-.07.43-.07.63-.15,3.02-1.24,6.23-3.45,7.56-6.47.17,0,.39-.05.55-.12,3.3-1.44,5.67-4.59,8.06-7.26.7-.79,1.51-1.31,1.88-2.36,3.98-2.52,7.73-6.37,9.68-10.68.21-.47.54-.89.69-1.39.91-.25,1.78-.82,2.46-1.85l11.58-17.52c20.05-30.33,52.05-23.91,73.36-55.92,1.94.9,2.85,2.5,3.62,2.96"/><path class="i" d="M556.1,534.06l.05,1.53c.09,2.6.57,5.18,1.6,7.57-.03.47.11.95.05,1.42-.36,2.87,1.01,5.54,1.59,8.32-.05.46.14.96.05,1.42-.27,1.32,2.57,19.23,3.18,21.31.12.41.08,1,.05,1.42-.44,6.04.32,12.15,1.57,18.06.12,5.3-.55,10.83-.01,16.09-1.81,8.97-1.9,27.28-7.34,35.64-3.97-4.49-7.85-7.74-12.31-11.13-16.74-12.72-34.81-23.19-55.21-28.94-25.6-7.22-62.5,2.32-87.47,10.33l-16.54,5.31c-17.65,5.67-33.28,14.97-47.93,27.45-1.95-8.63,1.09-16.43.98-23.27,0-.44.19-1.03.06-1.45.55-4.33,2.13-10.13,1.6-14-.11-.79.24-1.62.17-2.4l10.59-3.07,13.5-6.93c15.49-7.95,29.96-16.74,46.15-23.54,17.63-7.41,56.21-18.38,74.09-15.08,7.59,1.4,14.51.89,22.14-.8,10.99-2.43,20.06-8.92,29.13-15.54,5.79-4.23,12-7.35,18.08-11.24.8-.51,1.94,1.29,2.19,1.5"/><path class="f" d="M309.45,437.77c16.21-3.36,21.33-25.68,36.31-40.93,7.59-7.72,14.31-15.32,19.67-24.86,2.95-5.25,6.6-9.83,8.62-15.73,1.21-3.54,2.52-7.51,5.04-10.39l8.33-9.52c4.55-5.2,7.03-10.69,7.97-17.22,1.25-.66,2.86-.4,4.49.13,13.54,4.37,26.42,9.22,38.75,16.39,9.3,5.4,26.52,18.19,32.25,27.47-1.52,7.7-11.09,15.44-17.35,19.78-18.25,12.67-39.57,14.69-54.25,36.03l-17.79,25.86c-5.31,7.72-38.96,38.46-50.79,36.62-1.98-2.39-1.57-5.33-2.2-8.1-2.78-12.11-9.08-22.76-17.12-32-1.03-1.19-1.79-2.26-1.94-3.52"/><path class="i" d="M337.64,309.24c4.12.14,8.25.08,12.37-.04.82-.02,2.32-.29,3.05.07-.14-.07,20.28,3.06,19.67,3.16.42-.07,1.07.27,1.44.09,3.56,2.1,14.15,2.35,17.85,5.7l.09,1.68c-1.52,12.91-15.49,20.57-18.8,29.71-2.88,7.97-12.47,26.73-18.32,32.14-2.19,2.03-3.74,4.31-5.75,6.44-14.82,15.77-15.24,19.09-26.95,36.31-3.03,4.46-6.88,7.37-11.28,9.88-.41.18-1.09,0-1.55.06-3.14.33-4.76-1.91-6.94-3.95l-7.14-6.66c-10-9.34-21.72-15.04-34.81-16.98-.47-.07-1.09.08-1.51-.13-1.29-.63-3.15-.37-3.64-2.63,20.53-6.95,37.44-20.06,50.77-36.98,10.75-13.65,23.6-36.04,24.45-53.29.13-2.65,1.86-3.72,3.88-4.53.96.18,2.15-.09,3.14-.05"/><path class="e" d="M290.63,378.36c-1.57.16-1.97,2.29-3.27,3.3-12.55,9.78-26.84,17.85-42.2,20.99-6.17.17,4.07-16.99,5.56-19.64,5.48-9.77,11.6-18.76,18.96-26.79,3.7,1.75,22.68,17.76,20.95,22.14"/><path class="h" d="M556.1,534.06c-.25-.21-1.4-2.01-2.19-1.5-6.08,3.89-12.29,7.01-18.08,11.24-9.07,6.62-18.14,13.11-29.13,15.54-7.63,1.69-14.55,2.2-22.14.8-17.88-3.3-56.46,7.67-74.09,15.08-16.19,6.8-30.66,15.59-46.15,23.54l-13.5,6.93-10.59,3.07c-.11-1.3.15-2.28,1.18-2.35,1.3-.09,2.21.45,3.65-.39l-4.9-1.2c-1.23-3.79.51-7.53.69-11.41.05-1.01.43-18.61,2.44-15.53.51,2.46-2.74,24.76-2.01,25.34,3.61,2.85,15.62-3.62,20.25-6.12l29.48-15.94,10.23-5.28c7.85-4.05,15.27-7.84,23.84-10.34,23.14-6.76,40.45-11.04,65.08-9.13,30.8,2.38,35.61-12.05,53.69-21.51.11.44-.18.79.31,1.82,1.69-1.86,4.64-1.33,5.73-3.95-2.46-.67-3.37,1.59-6.04,2.13,3.23-1.69,5.37-5.31,9.99-6.15,1.96-.35.08-4.51-.26-6.07l-4.69-21.05c-4.41-19.79-11.08-38.31-21.05-56.13-1.02-1.82-1.09-4.04-3.7-4.96-7.07,7.16-14.9,13.02-24.32,16.93l-14.91,6.19c-8.97,3.72-16.57,8.78-23.86,15.35l-11.35,10.23c-7.01,6.32-15.16,9.99-23.97,12.59-6.47,1.91-17.86,8.06-21.64,13.62-6.98,10.25-10.89,20.43-21.85,25.92-11.79,5.91-24.92,8.19-38.03,9.88l-.05,20.22c0,1.64-.97,2.99-.83,4.99-.18.2-.53.2-.59-.14-.34-5.55-.21-10.64.1-16.06.18-3-1.44-7.14.64-9.75,3.89-2.5,14.5-.34,15.44-4.16l-12.26,1.76c-1.6.23-3.32.05-4.19-1.02-.81-1-.81-2.52-1.04-4.1-2.44-16.8-13.35-38.76-11.07-52.81,1.18.73.77,2.6.42,4.22l3.5,17.15c2.45,12,7.08,23.06,9.49,35.42,10.64-1.16,20.58-3.35,30.55-6.8,8.37-2.9,15.02-8.17,19.12-16.06,17.73-31.35,33.47-20.1,56.07-39.67,6.86-5.95,13.33-12.02,20.9-17.14,18.8-12.72,37.09-12.49,51.71-31.17-4.74-8.2-9.21-15.64-14.54-23.15l-26.32-37.1c1.92-.5,8.81,10.95,10.51,13.15,6.49,8.41,12.23,16.96,18.21,25.59,2.62,3.78,5.49,6.99,7.52,11.19,1.81,3.74,4.81,6.77,5.73,10.95-.18,1.16-1.52,1.77-1.18,3.2,4.6-5.1,11,13.66,13.3,18.2,7.59,15.01,11.24,30.83,15.31,47.13l2.42,9.68c1.12,4.47,2.13,8.76,2.42,13.19.03.51-1.48,1.11-1.25,1.65.25.58.72.96,1.4,1.43,1.16.8,1.01,2.04.43,2.86M552.82,531.32c0-.22-.18-.41-.41-.41s-.41.18-.41.41.18.41.41.41.41-.18.41-.41M543.08,537c0-.22-.18-.41-.41-.41s-.41.18-.41.41.18.41.41.41.41-.18.41-.41"/><path class="h" d="M334.49,309.3c-2.01.81-3.74,1.87-3.88,4.53-.85,17.25-13.69,39.64-24.45,53.29-13.33,16.92-30.24,30.03-50.77,36.98.49,2.26,2.35,2.01,3.64,2.63,1.99,1.03-5.23.2-6.07-.9-.43-.57-.09-2.36-.83-2.85-1.73-1.14-5.77,2.63-6.75.8-.17-.32-.2-.75-.23-1.13,15.35-3.14,29.65-11.21,42.2-20.99,1.29-1.01,1.7-3.13,3.27-3.3,2.27-.24,2.17-3.23,3.27-4.12,3.53-2.86,15.53-16.47,16.35-21.11.78-.03,1.47-.41,1.88-.83.68-.69.17-1.84.54-2.37,7.8-11,12.2-24.2,14.55-37.48.82.79.47,1.95,1.05,3.56,2.55-.14.06-5.5,2.98-6.8,1.09-.49,2.13-.12,3.24.08"/><path class="e" d="M327.23,312.45c-2.35,13.29-6.75,26.48-14.55,37.48-6-5.7-12.29-11.95-13.88-20.15,8.69-6.24,17.92-13.62,27.62-18.08.31.24.53.47.81.75"/><path class="h" d="M395.4,319.12c-.95,6.54-3.43,12.02-7.97,17.22l-8.33,9.52c-2.52,2.88-3.82,6.85-5.04,10.39-2.02,5.9-5.67,10.48-8.63,15.73-5.37,9.54-12.09,17.13-19.67,24.86-14.98,15.25-20.11,37.57-36.31,40.93-.66-2.16,3.14-1,3.96-2.11l-2.41-1.27c4.39-2.51,8.25-5.43,11.28-9.88,11.72-17.22,12.13-20.54,26.95-36.32,2.01-2.14,3.56-4.42,5.75-6.44,5.85-5.41,15.44-24.17,18.32-32.14,3.31-9.15,17.27-16.81,18.8-29.71,1.03.96.43,2.43,1.15,4.07,1.52-.77-.94-5.82,2.16-4.85M315.79,433.91c0-.22-.18-.41-.41-.41s-.41.18-.41.41.18.41.41.41.41-.18.41-.41"/><path class="h" d="M477.42,371.1c-.76-.46-1.68-2.06-3.62-2.96-21.31,32.01-53.3,25.59-73.36,55.92l-11.58,17.52c-.68,1.03-1.56,1.6-2.46,1.85,5.05-7.85,16.23-26.63,23.11-32.19,24.25-19.61,44.85-16.46,63.96-44.98,2.45.64,3.67,2.77,3.95,4.84"/><path class="h" d="M309.45,434.45c.48.78-.4,1.13-.84,1.25-7.14,1.96-14.04-22.71-46.49-27.47-.87-.13-1.84-.67-1.57-1.38,13.09,1.94,24.8,7.64,34.81,16.98l7.14,6.66c2.18,2.04,3.81,4.29,6.94,3.95"/><path class="h" d="M372.73,312.43c.61-.1-19.8-3.23-19.67-3.16-3.15-1.73,23.78,1.84,19.67,3.16"/><path class="h" d="M562.61,575.63c-.6-2.09-3.45-19.99-3.18-21.31.14-.36,1.2-.16,1.29.38l2.8,18.39c.15.96-.24,2.53-.91,2.54"/><path class="h" d="M348.38,478.22c1.69,1.57-10.64,5.63-12.27,6.49-2.35.15-4.22,1.06-5.71,2.38.03-.49-1.26-1.8-.37-1.97,6.63-1.33,12.4-4.27,18.35-6.9"/><path class="h" d="M392.01,318.22c-3.7-3.35-14.28-3.6-17.85-5.7,2.14-1.08,4.25.68,6.69,1.09,2.56.44,14.27,1.69,11.16,4.61"/><path class="h" d="M564.23,595.11c-1.25-5.91-2.01-12.02-1.57-18.06,2.72-1.44,1,6.77,1.59,8.04,1.8,3.87-.09,7.05-.02,10.02"/><path class="h" d="M382.43,695.73c-3.53.89-7.03.29-10.69-1.25-1.45-.61-3.49-.1-3.85-1.77,4.85,1.12,9.84,1.59,14.54,3.02"/><path class="h" d="M385.71,444.83c-1.95,4.31-5.7,8.16-9.68,10.68,1.04-3.05,3.98-4.92,6.32-7.45,1.16-1.26,1.63-3.18,3.36-3.23"/><path class="h" d="M340.05,611.15c.53,3.87-1.05,9.67-1.6,14-.79-2.48-.19-16.33,1.6-14"/><path class="h" d="M350.01,309.21c-4.12.11-8.25.18-12.37.04-1.79-2.24,15.42-2.35,12.37-.04"/><path class="h" d="M374.15,457.87c-2.39,2.67-4.76,5.82-8.06,7.26,1.68-3.14,4.64-6.18,8.06-7.26"/><path class="h" d="M357.35,471.87c-1.7,2.97-5.17,5.09-8.36,6.28-1.17-.97,7.89-6.13,8.36-6.28"/><path class="h" d="M365.54,465.24c-1.33,3.02-4.54,5.23-7.56,6.47-.09-1.76,1.95-2.11,3.21-3.24,1.5-1.35,2.41-3.23,4.35-3.23"/><path class="h" d="M559.38,552.9c-.58-2.78-1.95-5.45-1.59-8.32,1.44-1.77,3.42,7.69,1.59,8.32"/><path class="h" d="M557.75,543.16c-1.02-2.38-1.51-4.97-1.6-7.57,1.4-1.87,3.14,7.79,1.6,7.57"/><path class="h" d="M480.41,374.29c-1.26-.09-1.97-1.2-2.32-2.31,1.23.23,1.93,1.19,2.32,2.31"/><path class="h" d="M326.42,311.71c-9.69,4.46-18.93,11.84-27.62,18.08-.66-.19-1.2-.59-1.64-1.1,2.2-.52,4.05-2.03,6.15-3.43l18.05-12c1.59-1.05,3.46-2.78,5.06-1.55"/><path class="g" d="M504.9,686.63l-1.15-15.09c-1.06-13.86-.86-27.5,1.43-41.18.69-4.14,1.06-8.01,1.3-11.81,1.44-4.17,27.96,14.33,31.32,16.57,6.58,4.4,12.55,8.93,17.98,15.03-9.71,19.33-29.53,32.1-49.22,38.25-.69.22-1.39-1.75-1.66-1.77"/><path class="h" d="M475.73,613.81c-1.18-.64-.76-2.31-.78-3.46,1.18.65.65,2.33.78,3.46"/><path class="h" d="M88.17,229.42c-3.75-1.44-6.57-5.16-7.8-8.23-1.71-4.29.5-6.23,3.33-8.38,4-3.05,7.93-5.91,13.24-4.33,3.65,1.08,6.37,3.88,7.26,6.76,1.29,4.19.26,7.7-2.61,10.59-3.38,3.39-8.18,5.62-13.42,3.6M82.65,217.46c-.04,5.22,5.25,10.12,10.28,9.42,4.69-.65,9.84-5.17,8.31-10.65-1.36-4.87-9.48-6.51-12.43-2.52-1.65,2.23-3.25,3.23-6.16,3.75"/><path class="h" d="M101.72,181.46c-5.36,5.96-17.06,9.11-20.97,2.05-1.66-3.01-1.1-5.82.73-8.88,3.5-5.83,10.89-10.04,17.37-7.23,2.6,1.13,4.17,3.78,4.73,5.62.76,2.53.08,6.29-1.86,8.44M99.09,180.64c2.51-2.78,2.73-7.81-.57-9.57-5.85-3.13-12.23.54-14.85,6.09-.8,1.69-1.26,3.07-.62,4.84,1.44,3.95,10.78,4.43,16.03-1.36"/><path class="h" d="M124.16,181.84c.38-2.76,2.36-5.59,1.5-8.94-.6-2.33-4.53-3.85-6.65-3.77-2.87.11-6.18,1.32-6.92,3.99-.64,2.31-4.29,4-3.12,7.07,1.59,4.16,6.67,4.4,10.3,3.2.63-.21,1.46,0,1.7-.88.08-.28.64-.35.75-.6l1.49.54c-1.4,2.49-3.37,3.04-5.91,3.81-4.72,1.44-11.41-1.93-10.69-7.64.76-6.06,6.92-10.25,12.62-10.64,3.78-.26,6.92,1.74,8.01,5.25.97,3.15-.92,6.6-3.06,8.6"/><path class="h" d="M124.16,181.84c-.43.41-.81.44-.95.62l-1.49-.54c1.05-2.49,3.8-5.57,1.67-8.26-2.89-3.64-7.77-2.28-11.3-.53.75-2.68,4.05-3.88,6.92-3.99,2.13-.08,6.05,1.43,6.65,3.77.86,3.35-1.12,6.18-1.5,8.94"/><path class="h" d="M290.65,68.3c.31,1.14,1.3,2.72,1.49,3.93,1.12,7.09-2.29,13.33-8.9,16.12-3.43.58-6.93.92-10.36.22-.49-.1-1.26-.38-1.75-.25-.37-.53-1.01-.71-1.63-.79-1.64-1.06-3.11-2.42-4.91-3.16l-1.35-3.23c.87-.7,1.33-1.78,1.45-2.8.15-1.29-.14-2.57-1.61-2.61.17-1.14.19-2.3,0-3.44.29-.18.44-.5.66-.74,3.09-3.3,5.98-6.92,10.69-8.07,6.4-1.56,12.1.25,16.22,4.82M285.98,83.38c3.84-3.64,4.24-10.82.81-14.5-3.11-3.34-8.4-3.76-12.5-2.21-3.27,1.23-6.63,4.18-7.84,8.29-1.19,4.03.58,8.06,4.52,9.93,4.45,2.11,10.82,2.45,15.01-1.51"/><path class="h" d="M306.8,296.28c-3.44.2-7.01-.45-10.43-.01-2.29-2.47-5.4.98-8.73-.82,7.47-2.77,14.94-1.27,22.81-1.36-.71,2.8-3.04.62-3.65,2.19"/><path class="g" d="M267.97,304.3c5.36,8.95,11.76,16.64,21.24,21.79,9.02,4.9,5.32,13.39,17.87,23.57,1.32,1.07,2.39,2.27,3.17,3.48-.82,4.64-12.83,18.25-16.35,21.11-7.55-14.02-20.05-15.63-27.89-31.55l-10.43-21.19c-1.69-3.44-4.54-5.94-6.37-8.93-1.21-2.42,7.96-4.79,12.53-7.08,2.09-1.05,4.14-1.46,6.23-1.19"/><path class="h" d="M181.04,162.34c-.18-.53-.17-.68-.12-.62s.14.33.12.62"/><path class="h" d="M122.72,158.45c-.48-.79-.09-1.58.24-1.7.25-.1.64.66.89.78.33.17.4.48-.04.82-.45.35-.71.53-1.09.1"/><path class="h" d="M543.84,534.87c2.67-.54,3.58-2.8,6.04-2.13-1.1,2.62-4.05,2.09-5.73,3.95-.48-1.03-.2-1.38-.31-1.82"/><path class="h" d="M543.08,537c0,.22-.18.41-.41.41s-.41-.18-.41-.41.18-.41.41-.41.41.18.41.41"/><path class="h" d="M552.82,531.32c0,.22-.18.41-.41.41s-.41-.18-.41-.41.18-.41.41-.41.41.18.41.41"/><path class="h" d="M315.79,433.91c0,.22-.18.41-.41.41s-.41-.18-.41-.41.18-.41.41-.41.41.18.41.41"/><path class="h" d="M120.97,182.52c-.25.87-1.08.67-1.7.88-.05-.82,1.15-.7,1.7-.88"/><path class="e" d="M285.98,83.38c-4.19,3.97-10.56,3.62-15.01,1.51-3.95-1.87-5.71-5.9-4.52-9.93,1.21-4.12,4.57-7.06,7.84-8.29,4.11-1.54,9.39-1.12,12.5,2.21,3.42,3.67,3.03,10.85-.81,14.5"/><path class="h" d="M91.94,172.64c1.89-.3,3.67.85,4.14,2,.91,2.23-.38,4.16-1.77,4.54-2.43.67-4.56.2-4.88-1.85-.32-2.05.09-4.31,2.5-4.69"/><path class="h" d="M117.17,173.28c2.05-.21,3.34,1.31,3.56,2.65.39,2.34-.86,3.74-2.8,4.02-2.05.3-3.9-.52-3.99-2.59-.08-1.86,1.13-3.87,3.23-4.08"/></g></g></svg>