<?xml version="1.0" encoding="UTF-8"?><svg id="a" xmlns="http://www.w3.org/2000/svg" xmlns:xlink="http://www.w3.org/1999/xlink" viewBox="0 0 625.57 800"><defs><style>.d{fill:none;}.e{fill:#ffdf44;}.f{fill:#49a258;}.g{fill:#c54b4f;}.h{fill:#e36b2e;}.i{fill:#fefefe;}.j{clip-path:url(#c);}.k{clip-path:url(#b);}</style><clipPath id="b"><rect class="d" width="625.57" height="800"/></clipPath><clipPath id="c"><rect class="d" width="625.57" height="800"/></clipPath></defs><g class="k"><g class="j"><path class="i" d="M472.83,135.3c-15.15,1.27-21.81-4.21-37.76-3.11l-46.62,3.23c-3.26-16.1-7.3-20.33-20.51-27.87-15.72-8.97-32.66-13.3-50.87-12.62-13.3.5-26,2.49-38.01,8.2-13.52,6.43-30.89,24.43-34.23,38.49-13.05.58-26.03,1.84-39.31,4.19-31.08,5.49-53.22-.43-83.37,7.88-10.74,2.96-20.4,6.99-31.42,8.69-7.35,1.13-14.25,3.27-21.39,5.57-6.92-2.02-14.37-.95-19.12,4.52-4.2,4.83-6.57,10.49-6.26,16.98.18,3.88,2.88,6.7,6.64,7.41,28.02,5.31,16.86-4.04,33.67-3.22-.1,1.2-.43,2.81-1.18,4.2-7.93,14.73-5.83,26.97-9.65,36.39-1.72,4.25-5.97,6.16-8.9,9.3-3.83,4.1-7.24,8.54-10.52,13.12-4.44,6.2-4.11,14.08-1.74,20.97,10.51-1.32,16.8-11.03,21.41-20.67,4.61,12.58,14.01,22,27.21,26.27-.8-20.19-2.62-34.83-21.71-45.67,4.98-14.71,3.63-25.78,10.12-39.6.12-2.32,2.5-3.64,3.16-5.23,5.68.12,11.2-.63,17.31-1.68l81.04-13.85c25.27-4.32,28.4-.77,48.25-.86.32,1.98-.54,3.83-.58,5.8l-.09,3.89-.62,10.11c-.07,1.14.06,2.58-.09,3.74-1.09,8.33,2.4,14.71-2.65,13.2-11.85-3.44-36.44,3.1-47.26,9.54-12.32,7.33-22.33,17.13-31.2,28.42-8.97,11.41-18.29,21.66-28.14,31.75-4.85,3.01-9.04,7.66-10.77,13.12-.18.57-.84,1.03-.81,1.71.01.27-.12.56-.08.82-2.13-.61-3.02,16.6-3.36,19.45-.8,6.82-1.01,13.62.37,19.97.11.52.16,1.13.2,1.66l.66,9.77c.15,2.27-.22,4.13.75,5.79.51.9-.13,2.42.22,3.39-.24,1.12-.33,2.65-1.68,2.86.03-.21-.05-.44-.07-.66-.03-.35-.13-.72-.3-1.1-.21-.48-.77-.74-1.35-.63-.09-.72-.83-1.16-1.16-1.72-8.3-14.36-19.43-26.74-31.05-39.02-4.12-4.35-8.68-8.4-13.98-11.13-5.05-2.61-32.69-13.18-38.51-9.38l-1.74,1.13c-2.97,1.94-3.66,5.6-2.17,8.63.24.48.57,1.08.74,1.58.22.64.07,1.49.93,1.7l-.26,1.1c-9.88,3.78-10.15,14.79-7.78,24.28-4.3-.12-7.21.88-9.33,3.36-.97,1.13-2.3,1.88-3.22,3.21-1.23,1.78-3.78,3.07-3.34,5.76-.49.43-.4,1.13-.74,1.58-.86,1.14-.76,2.21-.01,3.35.27.68.44,1.72.68,2.46.52,1.58,1.27,3.07,2.6,4.14.07.22-.06.53.03.73.43.91,1.35,1.39,2.25,1.76.83,1.93,2.51,4.18,4.47,5.18,2.67,3.44,5.74,6.75,9.63,8.75.53.27.91.81,1.55.92.21.9,1.21.98,1.79,1.46,5.65,4.7,12.65,7.38,19.54,10.71l28.74,13.87c4.73,2.28,9.04,5.05,13.89,5.95.32,1.42,2.13,1.44,3.35,1.58.27.03.55.08.82.06,1.52,2.31,16.66,6.01,19.84,6.19.46.03,1.05-.06,1.48.09,1.37.48,2.77.93,4.24.82.2-.01.46.05.63.03l.02,25.51c0,1.37.35,2.46.89,3.31l.06,1.44c.05,1.11.31,2.24,1.41,2.66-.11.63.75,1.08.82,1.58.24,1.77,1.57,2.84,2.65,4.12.87,1.03,1.51,2.35,3.04,2.58.12.94.85,1.64,1.82,1.62.25,0,.59.15.82.06,2.55,2.9,7.05,3.33,10.8,3.79.73.09,1.52-.08,2.25.08,4.07.92,8.34,1.56,12.51,1.55h10.36c3.33-.01,6.84-.48,10-1.53.71-.24,1.59.04,2.32-.09,3.07-.51,6.3-.41,9.22-1.55.79-.31,2.2-.2,3.05-.16,5.56.29,11.18-.29,16.7.02l2.25.13,4.94.85c3.33.57,6.5.64,9.85.72l13.91.33-1.83,24.41-7.05,122.07-2.37,60.74-.33,31.86c-.25,23.73-19.53,44.77-40.82,50.24-7.11,1.83-14.13,2.15-21.39,3.02-12.62,1.51-35.84,1.75-45.68-6.65-14.01-11.97-19.03-35.23-18.93-52.99.03-5.81.34-11.49-2.68-16.37-3.06-4.93-7.91-7.56-13.56-6.21-15.41,3.66-62.85,29.28-57.73,49.64,2.66,9.56,27.95-.72,34.49-3.06,20.25,27.73,17.33,48.58,49.72,66.57,29.13,16.17,63.17,15.5,91.58-1.98,11.87-7.3,23.28-14.92,33.81-24.22,6.27-5.55,11.28-11.61,16.19-18.25,5.72-7.74,8.6-16.01,9.58-25.89,3.5-35.35,6.31-70.25,6.91-105.85l1.15-67.79c.46-27.17,1.61-53.57,4.36-80.09,2.5.6,4.92.62,7.45.45,1.72-.12,3.83-.22,5.52.1,5.82,1.1,22.65,1.45,28.01,0,1.47-.4,3.2.09,4.7-.1,4.14-.51,8.45-.36,12.45-1.59.73-.22,1.58.05,2.32-.05,6.14-.87,12.17-.94,18.31.03.46.07,1-.08,1.45.06,3.26.96,6.69,1.13,10.05,1.56.75.1,1.56,0,2.32.06,2.21.14,4.42.11,6.63.03l1.45-.05c2.83-.1,6.06-.38,8.32-2.17.25.07.56-.08.82-.06,2.01.14,3.88-.57,5.81-.99,1.54-.34,3.23.06,4.79.01.86-.03,1.74-.03,2.59,0,1.28.05,2.63-.25,3.9-.08,2.65.33,5.09-.68,7.51-1.59,2.12-.8,4.67-.86,6.56-2.25,2.75-.22,5.13-1.75,7.91-3.14,13.56-6.76,26.04-15,38.52-23.5,5.83-3.97,9.13-9.44,11.07-16.04,2.25-7.63,4.56-14.92,4.78-23.03l1.05-37.76c.16-5.58.77-10.67.48-16.48l39.54-17.16c12.85-5.58,25.19-11.01,36.74-18.98,4.5-3.11,8.82-6.5,9.95-12.2.68-3.44-2.07-6.45-5.18-7.82-4.79-2.1-9.9-.8-15.25-.29,1.04-3.27,2.45-6.29,1.95-9.48-1.5-9.65-11.98-8.09-19.45-6.76,3.44-6.26.93-13.08-4.72-15.73-7.76-3.63-14.64-.24-22.83,3.2-5.92,2.49-12.09,5.11-16.44,9.84-.5.54-1.6.63-1.77,1.54-1.79.49-3.06,1.84-4.01,3.37-2.9,1.86-5.65,4.35-7.44,7.3-.22.05-.46.02-.68.05-.58.05-1.16.09-1.74.08-.01-9.27.45-18.52,1.35-27.74l1.05-10.73c.59-6.04.69-12.07-.75-17.96-.13-.52-.12-1.1-.17-1.64-.07-.87-.8-1.48-1.44-1.89.02-2.89-3.9-2.29-5.6-3.47-4-2.79-7.28-4.59-12.62-3.91l-26.97,3.4c-22.56,2.84-44.51,1.79-67.17,2.04l-19.42.22-34.64-3.73c-7.32-.79-14.98.14-20.56,3.92-.29-.05-.59-.07-.89-.05-.19.13-.66.18-.69-.16-1.21-12.55.43-24.62,1.44-36.78,8.49.6,16.66.09,25.61-.77l58.12-5.64c.27,14.28-8.24,13.86-13.35,21.67-1.04,1.59-1.24,3.57-.83,5.34.32,1.36,1.89,3.09,3.94,3.72,15.68,4.85,34.96,9.28,49.28-.79,4.73-3.33,6.86-9.44,3.45-14.2-2.58-3.61-7.19-4.39-10.69-6.48-3.74-2.23-2.5-6.95-3.1-10.13l42.17.43c34.83.36,55.64.49,90.18-8.18,2.8-2.18,5.08-1.15,7.51.92,2.8,2.4,7.6,4.01,10.65,1.36,3.65-3.17,4.69-8.66,4.61-13.31-.08-4.6-3.08-7.31-7.02-8.66-4.96-1.7-9.51-4.36-14.84-4.75l-19.25-1.41c-9.07-.66-17.7-.99-26.3-.04-1.84-14.09,10.62-42.04,18.02-54.9,4.59-7.99,10.66-15.32,18.57-20.09,11.49-6.94,24.24-10.11,37.24-12.9l19.44-4.17c13.66,14.08.48,10.17,21.91,22.17,10.19,5.7,21.53,7.9,32.68,3.87-3.56-11.55-8.63-21.77-15.46-30.98-1.94-2.62-5.46-3.23-8.46-4.77.92-1.7,2.44-3.26,4.08-4.77,9.81-8.98,11.88-15.3,17.43-28.34-8.02-1.31-15.55,1.18-22.92,4.16-19.69,7.96-18.75,23.18-29.16,31.34-10.17,7.97-31.86,2.31-61.07,21.02-8.42,5.39-14.43,12.79-19.2,21.59-8.33,15.38-17.97,39.86-17.98,56.83"/><path class="g" d="M271.23,464.28c-2.75,26.53-3.9,52.92-4.36,80.09l-1.15,67.79c-.6,35.6-3.41,70.5-6.91,105.85-.98,9.88-3.85,18.15-9.58,25.89-4.91,6.64-9.92,12.7-16.19,18.25-10.52,9.3-21.93,16.91-33.81,24.22-28.41,17.47-62.45,18.15-91.58,1.98-32.39-17.98-29.47-38.84-49.72-66.57-6.54,2.34-31.83,12.63-34.49,3.06-5.12-20.37,42.31-45.98,57.73-49.64,5.65-1.34,10.51,1.28,13.56,6.21,3.03,4.89,2.72,10.56,2.68,16.37-.1,17.76,4.92,41.02,18.93,52.99,9.84,8.41,33.06,8.16,45.68,6.66,7.26-.87,14.27-1.19,21.39-3.02,21.29-5.47,40.57-26.5,40.82-50.24l.33-31.86,2.37-60.74,7.05-122.07,1.83-24.41,5.1-.32c.2-.01.45.09.65.06-1.61,13.4-1.11,27.64-1.99,40.64l-.84,12.28-.79,22.18-.84,12.23-.83,24.67-.84,13.88-.78,22.21-.86,13.86-.74,20.56c-.14,3.81-.88,7.44-.95,11.3l-.74,40.32c-.52,28.72-25.44,62.94-54.06,64l-19.12.71c-15.34.57-29.42,2.29-43.6-5.27-17.77-9.47-20.79-36.16-24.44-53.69-.53-1.58-3.62.24-4.69.88l-20.51,12.19c-.91.54-1.76.99-1.83,1.85-.05.59.13,1.74.71,2.55,8.03,11.35,14.72,22.95,21.69,34.98,4.37,7.55,8.97,14.7,15.81,20.15,10.83,8.64,23.64,12.59,37.1,14.71,21.69,3.42,45.43-3.66,64.28-14.12,8.92-4.95,16.09-10.78,23.71-17.33,7.36-6.33,13.34-13.54,18.55-21.86,6.47-10.33,8.11-22.15,8.49-34.14.13-4.3.91-8.49,1.03-12.75l.64-22.38.92-12.1.74-28.04.85-15.58.8-28.7.85-14.72.63-20.88.76-9.11.8-17.24,1.82-23.63,1.68-20.17c.44-5.28,1.44-10.28,1.23-15.19.24,0,.49-.08.72-.06,1.4.15,2.89-.05,4.27.28M49.38,717.24c11.67-3.47,41.68-13.9,42.31-27.54.13-2.86-1.2-5.62-2.74-7.01-8.98-8.11-58.24,27.91-55.13,34.7,1.66,3.61,11.26,1.14,15.56-.14"/><path class="f" d="M126.86,289.46c-4.04,3.92-5.83,10.04-4.95,15.45.09.53-.06,1.13-.06,1.67-3.26-3.81-1.62,30.84-1.52,32.83.05.93,1.07,1.07,1.58.86,0,1.38.4,3.39.03,4.7-.62,2.21-.89,17.02,1.56,14.95-.11.82.3,1.78.1,2.57-.83,3.34-.09,6.84-.08,10.59l.07,27.01c0,.81.99,1.39,1.52.94,0,.73-.05,1.48,0,2.2-1.81-.4-1.65,1.65-1.64,3,0,.99.12,2.63,1.66,2.17-.02.62-.02,1.58.1,2.16-.73-3.01-.91,17.46,1.51,13.34-.14.73.3,1.63.08,2.33-1.1,3.54-.06,7.17.92,10.72,3.28,11.96,11.95,20.69,24.41,22.07.45.05,14.12,2.78,12.56-.62.52.05,1.11-.16,1.63-.06,1.54.32,8.23.98,7.43-1.56l1.58-.06c6.81-.26,13.67-.2,20.96-.1l38.61.55c.71.01,1.32.82,2.14.73.5-.05.61-.47.47-1.19.51.1,1.12.05,1.64.05-.01.32-.03.84.18,1.67l17.52.18c-2.31-.02,10.34-.71,6.21-1.88.44,0,.91-.11,1.34-.04.89.14,23.81,1.42,22.27-1.46.48.05,1.03-.02,1.51-.08-.42,1.78,1.75,1.57,3.03,1.59.99.02,2.64-.13,2.18-1.65.66.03,1.51.11,2.15-.05.06.53.92.83,1.78.83l18.12-.1c14.63-.08,28.89-.95,43.38,1.07.74.1,1.37-.5,1.67-.67.33-.19.45-.69.14-1.08.75-.02,1.75-.24,2.47-.05,2.88.77,13.81-1.12,13.75-4.9.77-1.23,2.88-2.07,3.35-3.49,4.92-1.55,4.29-9.78,4.07-13.87-.37-6.84.42-13.54.57-20.44.05-2.16,1.09-4.53-.53-5.88.14-1.17.16-2.65.05-3.82,1.3,2.02,2.19-7.13,2.18-6.52h3.55c.47,3.41-.71,6.36-.96,10.08-1,15.44-1.54,31.07.32,46.43.5,4.16,7.63,4.12,10.41,3.13,6.25-2.24,13.39-7.19,15.59-6.39,1.43.52,3.6,2.01,3.29,4.05-.25,1.65-2.78,2.27-4.06,2.29-1.87.03-1.83,1.41-2.51,1.92-1.89,1.39-4.44,1.45-6.56,2.25,1.44-1.6-9.75.15-7.51,1.59-1.28-.16-2.62.14-3.9.08.27-.76-.83-.79-1.3-.79-.47,0-1.57.02-1.3.79-1.55.05-3.25-.35-4.79-.01,1.42-.58-5.73-2.06-5.81.99-.26-.02-.57.13-.82.06-1.38-.38-10.02.48-8.32,2.17l-1.45.05c-1.75-1.23-4.9-1.41-6.63-.03-.76-.05-1.57.04-2.32-.06,2.47-1.71-11.65-3.35-10.05-1.56-.45-.13-.98.02-1.45-.06.45-.49-.14-1.53-.93-1.53h-16.42c-.79,0-1.46,1-.96,1.51-.74.1-1.59-.17-2.32.05,1.53-1.82-15.49-.06-12.45,1.59-1.51.19-3.24-.3-4.7.1.34-.46-.34-.67-.93-.76h-26.16c-.59.09-1.27.3-.93.76-1.69-.32-3.8-.22-5.52-.1.52-.49-.21-1.53-.96-1.49-7.09.32-11.43-2.52-10.76.77-.24-.03-.48.05-.72.06-8.21.11-16.59-.69-24.65.77-.2.04-.45-.07-.65-.06.5-.58-.1-1.48-.93-1.49l-18.79-.26c.41,0-15.19-1.77-14.08.17l-2.25-.13c.4-.47-.21-1.47-.96-1.47h-14.71c-.88,0-1.48,1.04-1.04,1.45-.85-.04-2.26-.15-3.05.16,1.21-1.8-11.15-.4-9.22,1.55-.73.12-1.61-.15-2.32.09,2.13-1.81-13,.1-10,1.52h-10.36c4.15-1.31-15.23-3.29-12.51-1.54-.72-.16-1.52.01-2.25-.08.45-.92-.58-1.53-1.6-1.72l-5.54-1.03c-1.42-.26-2.37-1.57-3.67-1.05-.23.09-.57-.06-.82-.06.08-.55.13-1.49-.46-1.7-.47-.17-1.01.04-1.36.08-1.53-.23-2.17-1.55-3.04-2.58-.31-1.66-1.27-3.14-2.65-4.12-.07-.5-.93-.95-.82-1.58.11-.58.25-1.22.03-1.97-.14-.47-.75-1.15-1.44-.69l-.06-1.44c.46.34.66-.35.77-.93l-.08-27.61c-.16-.38-1.29-.32-1.59-.28-.17.03-.44-.04-.63-.03.49-1.39-1.04-1.77-2.19-1.63-.64.08-1.9-.19-2.06.8-.43-.15-1.02-.07-1.48-.1.29-.75-.61-1.49-1.61-1.67-7.37-1.27-15.02-4.74-18.22-4.52-.27.02-.55-.03-.82-.06-.5-1.58-2.08-1.35-3.35-1.58-4.85-.9-9.16-3.67-13.89-5.95l-28.74-13.87c-6.9-3.33-13.9-6.02-19.54-10.71-.31-.75-.97-1.33-1.79-1.46-.64-.1-1.02-.65-1.55-.92.33-1.56-1.26-1.82-2.48-2.55-2.93-1.76-4.37-4.76-7.16-6.19-1.96-1.01-3.63-3.26-4.47-5.18-.44-1.02-.85-2.05-2.25-1.76-.1-.21.04-.51-.03-.73-.55-1.66-.35-4.44-2.6-4.14-.24-.74-.41-1.77-.68-2.46.99.11.86-1.36.81-2-.04-.43,0-1.54-.79-1.35.33-.44.24-1.15.74-1.58,1.66-1.45,3.26-3.51,3.34-5.76.92-1.33,2.26-2.08,3.22-3.21,2.04.35,3.34-1.9,5.75-1.73,1.19.08,2.45.29,3.2-.41,1.97-1.84.15-12.35,1.3-17.34.87-3.79,4.76-5.54,6.86-8.15l.26-1.1c.57-.11.95-.81.7-1.23-.39-.65-1.15-.43-1.63-.46-.17-.5-.5-1.1-.74-1.58,1.86-.03-1.63-3.73,2.17-8.63l1.74-1.13c.59,2.41,11.84-1.81,10.85,2.82-.26-.04-.55.31-.8.36-1.11-.17-2.39.35-3.48.06-5.54-1.49-2.04,12.11.27,15.64-3.08-.19-3.04-1.55-4.63-1.51-1.87.05-1.96.44-2.92,1.55-1.15,1.32-3.34,2.19-4.05,3.96-.45.11-1.35-.11-1.66.51-.44.88.47,1.59.88,2.11v3.82c-.72.9-.66,1.76-.68,3.01-.02,1.3.73,1.54,2.14,1.37.15,1.25.21,2.51.27,3.76.04.79-.05,1.63.4,2.47.35.66,1.17.96,2,.99.28.2.36.68.64.85-1.21.47-2.32,1.14-3.36,1.9-5.31.04-11.37.76-15.63,4.19-2.84,2.28-3.22,5.29-1.4,8,2.49,3.72,14.92,18.41,18.65,18.62.25.29.76.49.92.83,1.62,3.54,6.17,4.57,9.44,6.95,1.71,1.25,3.37,2.13,5.23,2.09.28,0,.64.09.9.18,5.22,3.98,11.81,6.19,18.16,8.01.21.06.48,0,.7,0-.42.68.1,1.46.62,1.62.8.24,1.48.01,2.1-.05.22-.02.55-.02.76.05.12.39.42.91,1.06,1.18l13.77,5.93c1.39.6,2.56,1.11,3.82.97.25-.03.69-.09.92,0-1.54,1.92,17.6,7.84,19.45,8.38,4.72,1.36,8.83,3.67,14.04,3.67.74-3.74,1-7.9.09-12.12l-10.3-4c-2.14-.83-3.83-2.37-5.94-2.17-.28.03-.67-.13-.94-.22-2.46-2.26-5.84-4.17-9.12-4.78l-.66-.12c1.45.39-6.27-5.24-4.82-4.51-.55-.28-1.21.21-1.86.43-.6.2-1.2-.75-1.68-.86-4.88-4.84-11.06-8.33-17.19-11.93-.75-4.2-5.3-2.59-7.06-5.97-.39-.76-.06-1.83.47-2.64l20.68,14.77c2.91,2.07,5.72,4.03,8.82,5.04-.36.4-.14.8.13,1.12.5.61,1.21.39,1.78.39,1.78-.01,2.89,1.69,4.64,1.77-.37.4-.15.81.13,1.13.51.59,1.19.46,1.79.39.44-.05.92.14,1.37.12-.37.41-.12.78.14,1.1.5.63,1.18.38,1.76.43.82.06,1.52.72,2.28.89-.1.35-.21.93.04,1.22.46.56,1.29.38,1.85.23l.67.07c.05.54.24,1.08.73,1.46.62.48,1.39.07,1.85-.55.68.12,1.72.43,2.22.86.3.25-.15,1.37.57,1.58.5.15,1.02-.36,1.25-.78l1.46.19c.12,1.5,1.28,1.81,2.16,1.87,2.04.15,2.65-.32,2.89-1.65.39-2.16-.47-2.65-1.53-3.62,3.98,3.61-10.61-10.34-5.28-6.46.17-2.42,5.97,2.69,6.6.02.18-.75,1.61-14.45,1.66-14.35-.22-.48-.95-.65-1.57-.62-.07-.56-.78-.93-1-1.34-.7-2.63-2.94-4.6-5.34-5.8-.26-.26-.62-.79-.92-1.01-.31-1.5-.91-3.07-2.54-3.43-.36-.24-.58-.7-.95-.92l-.08-.7c1.63.31,3.26.64,4.92.72.32.56,1.07,1,1.16,1.72.06.52-.24,1.42.34,1.73.42.23.99.04,1.31,0,.02.22.1.45.07.66-.21,1.26,2.72,2.38,2.76,1.39.03-1.86.83-4.53-1.08-4.25-.35-.97.29-2.49-.22-3.39,1.18,2.69,1.04-18.76-1.4-15.56-.04-.52-.09-1.14-.2-1.66.54.34.61-.32.62-.94l.45-20.46c.07-3.35,1.63-6.1.88-9.63-.62-2.91,1.48-5.71,1.04-8.39-.04-.27.09-.55.08-.82.41,0,.77-.22.82-.52.08-.47.06-.87-.01-1.19,1.73-5.46,5.92-10.11,10.77-13.12-1.64,1.68-1.8,4.59-1.57,6.69"/><path class="f" d="M412.18,457.64c.69-.51.64-1.88,2.51-1.92,1.28-.02,3.8-.64,4.06-2.29.31-2.05-1.86-3.54-3.29-4.05v-1.78s.62-.04.62-.04c1.19-.08,2.48-.34,2.61-1.65.22,0,.47-.06.68-.01.6.13,1.35.2,1.82-.37.28-.34.4-.79.11-1.2.27-.04.59-.06.85-.15,4.22-1.58,21.68-9.61,23.49-13.56.25-.11.59-.08.81-.23,2.43-1.57,5.74-2.87,6.74-5.67.25-.2.6-.5.82-.75l.83-.9c.24-.26.48-.52.71-.78,2.26-1.28,4.33-3.27,4.95-5.84.05-.21.11-.42.19-.62,3.45-1.22,10.54-24.34,7.29-25.61.05-.47.06-.97.05-1.44.5.47,1.52-.15,1.52-.94v-14.79c0-.79-1.04-1.4-1.53-.94.02-.75-.13-1.52-.05-2.26.46.34.72-.32.76-.93.84-7.57-1.41-20.12-.67-25.44.2-1.43-.49-2.42-1.71-2.88-.54-.2-1.34-.44-1.73.58h-.8c-.37,0-.8-.05-1.23-.22-.55-.22-.68-.92-.52-1.52l56.64-24.87c.33-.14.57-.4.86-.59,3.75-2.39,7.89-6.04,12.11-5.88l1.34.05c.61.02.78-.9.53-1.55.76-.36,1.5-.75,2.36-.86.42-.05.83-.44.9-.84,4.33-1.98,17.71-9.11,18.12-14.53.41-.08.84-.15,1.12-.27.63-.28.56-1.25.41-1.91-.14-.6-1.21-.32-1.65-.4-2.77-2.61-7.66-2.12-11.41-.67l-18.82,7.28c-.39.15-.66.54-.9.85l-.82.04c-.37.02-.64.44-.84.75-.26.07-.57-.06-.82.04-1.38.52-3.56.54-3.27,2.4-.37.24-.96.85-1.47.74-.35-.19-.83-.99-1.3-.73-.65.36-.28,1.25-.5,1.67-.29.53-1.07.59-1.56.78-.38.15-.63.6-.91.86-.24.07-.57.07-.82.04-.57-.06-1.23-.29-1.89-.01-.55.23-.42,1.15-.56,1.6-2.18,1.52-4.76,3.02-7.23,4.05-.35.15-.73.5-1,.78-1.3,1.32-3.06,2.02-4.81,2.56-.35.11-.6.53-.9.73-1.73,1.13-3.49,2.85-5.58,3.31-1.97.43-4.72.92-5.08,3.32-.4.43-.96.56-1.47.8-.35.17-.72.5-1,.77-1.33,1.33-2.91,2.45-4.84,2.55-.39.02-.69.56-.91.82l-.82.05c-.37.02-.64.44-.83.76-.26.06-.55,0-.82.04-.35.17-.64.45-.8.8-.26.07-.56,0-.82.04-.36.15-.65.41-.85.74-.26.07-.56-.05-.82.04-.37.13-1.04.3-.79.8-.97.57-2.1.77-3.21.87-.3.21-.61.43-.86.7-.35.39-.92.89-1.5.79-.35-.06-.59-.56-.87-.68-.38-.17-.85,0-.95.32-.16.52-.2.9,0,1.23-.96.65-1.97.74-3.07.93-2.25.39-5.7.53-6.03,3.14-3.63.72-6.8,2.91-10.47,3.38-.37.05-1.15.3-.9.79l-1.56.15c-.36.04-1.22.08-.94.65l-1.53.08c-.41.02-.97.16-.84.69-1.68,1.11-3.74,1.99-5.71,1.79l-2.11-.21c-.75-.08-1.87.6-1.34,1.71-1.54.49-3.12.94-4.75.94-.46,0-.72.25-.84.71l-.22.85c-4.28,2.38-.66-14.86-4.63-14.12l-.05-1.43c3.07-1.8-4.67-24.48-6.63-28.65.9-1.69,2.51-1.92,2.67-3.2.38.14,1.15-.36,1.54-.19,1.11.48,1.73-.9,3.32-.88,1.25,4.17-2.57,14.22,3.07,17.14,1.66.86,4.21-.11,4.21-1.55h.68s1.11.08,1.11.08l-.19,2.28c-.33.16-.53.66-.83.9-.33.25-.58.59-.87.88l-.77.77c-.91.41-2.1.77-2.3,1.88-.08.44-.1.99-.09,1.43-1.52,1.64-1.23,4.59-1.43,6.4,5.38-.1,8.34-2.57,12.06-4.69l15.77-9c.77-.44,1.29-.9,1.41-1.56.5-.28.9-.88,1.53-.99.38-.07.63-.59.96-.77.46-.42.98-.76,1.61-.85,2.21-.32,3.95-1.8,5.97-3.09l8.43-5.36c5.95-3.78,12.3-6.96,16.75-12.14l.82-.03c1.86-1.37,4.25-1.87,6.15-3.6,4.28-3.9,12.54-7.65,13.52-10.98.12-.29.59-.56.83-.78,2.57-.56,4.25-2.99,5.75-5.04.85-.66,1.01-2.23,2.41-2.36.83-.08,1.41-1.08,1.59-1.78.06-.23-.06-.51.02-.73.3-.02,1.08.24,1.29,0,.08-.09.75-6.81-1.85-6.54-.11-.24-.21-.54-.26-.8-.05-.28.08-.58.07-.86-.21-4.15,4.91-2.35,4.07-5.69,5.65,2.64,8.16,9.46,4.72,15.73,7.47-1.32,17.95-2.89,19.45,6.76.5,3.18-.92,6.21-1.95,9.48,5.35-.51,10.46-1.82,15.26.29,3.12,1.37,5.87,4.37,5.18,7.82-1.13,5.7-5.44,9.09-9.95,12.2-11.55,7.97-23.9,13.4-36.74,18.98l-39.54,17.16c.3,5.81-.32,10.9-.47,16.48l-1.05,37.76c-.23,8.12-2.53,15.4-4.78,23.03-1.95,6.6-5.24,12.07-11.07,16.04-12.48,8.5-24.96,16.74-38.52,23.5-2.78,1.39-5.16,2.92-7.91,3.14M528.48,269.63l-2.98.15c-.59-.5-1.19-.89-1.83-.59-1.09.5-1.88,1.1-1.73,2.17-.44.04-.92.14-1.36.11-1.64-.11-3.43.54-3.47,2.38-5.29,3.17-10.02,7.29-15.56,10.02-.92.45-10.76,5.88-9.81,7.07-.2.08-.49.15-.71.16-.39.02-.82-.07-1.26.1-.54.21-.9.87-.59,1.49-1.7.7-2.81,2.14-4.65,2.58-2.07.49-4.49,2.02-5.28,3.99-.71.33-1.53.81-2.28,1.01-1.15.32-2.31.7-2.4,2.09-2.26,1.06-3.92,3.24-6.47,3.53-.79.09-1.6.1-2.42.48-.7.33-1.12,1.05-1.03,1.93-1.07.56-1.79,1.53-3.16,1.62-1.54.11-3.63.64-3.49,2.43-.97.38-1.96.75-2.98.97-.37.08-.85-.15-1.33,0-.6.19-.74.9-.52,1.53-1.21.78-2.43,1.84-3.94,1.94-1.37.09-2.76.61-2.83,2.18-.41.06-.85.04-1.27.06-.38.02-.83-.18-1.27,0-.53.22-1.09.92-.63,1.52-.99.31-1.95.77-2.98.97-.37.07-.85-.16-1.31,0-.56.2-.92.87-.58,1.5-2.71,1.01-5.1,2.9-7.96,3.4-1.12.2-2.5.01-2.65,1.57-.7.44-1.38.93-2.28.88-.36-.02-.78-.06-1.26.07-.56.16-.5,1-.58,1.48-2.53,1.66-1.4,5.27-1.52,8.02-.05,1.25-.27,1.83,1.15,1.84,1.3,0,2.71-.15,2.22-1.69l1.29-.07c.5.7,1.28.81,1.83.58,1.11-.47,1.87-1.12,1.84-2.15l1.24-.06c.5.68,1.25.8,1.83.57,1.06-.42,1.88-1.02,1.76-2.07,1.69-.22,3.95-.67,5.46-1.68-.24.43.42.79.92.7,1.8-1.17,10.8-3.42,9.14-4.87,1.06-.29,1.89-.84,3.06-.92,1.68-.11,4.46-.3,4.32-2.36.66-.25,1.48-.87,2.21-.79.39.05.76,1.02,1.31.71.56-.32.42-1.16.56-1.57l8.98-4.06c.5.17,1.12.31,1.5.07.62-.39.78-1.07,1.03-1.51,2.32-.49,3.95-2.91,6.44-3.05,1.24-.07,2.37-.48,2.45-1.91.51-.08,1.04-.18,1.54-.3,2.8-.68,5.78-2.28,7.48-4.62.51-.07,1.26-.21,1.7-.47,1.97-1.17,5-1.64,5.85-3.85,1.7-.48,2.92-1.84,4.57-2.41.35-.12.86.05,1.31-.18.44-.23,1.19-.79.69-1.44,1.05-.18,1.98-.83,3-1.1,2.79-.74,4.71-2.74,6.6-4.56,2.45-2.36,5.91-4.16,9-5.33,1.11-.42,2.69-.26,2.47-2.01.25-.02.54-.21.79-.18.57.06,1.27.1,1.62-.45.23-.35.04-.89.2-1.2.49-.93,1.45-1.49,2.45-1.77,2.54-.7,3.86-4,4.83-6.39.51-1.24-.07-3.31.11-4.73.36-2.82-2.09-2.57-3.14-3.45-.88-.74-.83-2.52-3.08-1.73-.77.27-2.67-.05-2.14,1.65"/><path class="g" d="M350.59,138.5c2.66.66,4.72,3,4.9,5.74-2.05-.28-4.15.65-6.53.69l-32.5.51-33.08,2.26c-6.77.46-13.17,1.54-19.8-1.04-10.33.45-20.53-.9-30.78.47l-12.34,1.65c-3.48.47-6.96,1.26-10.45,1.75l-10.12,1.43c-5.92.84-11.36,1.21-17.36,1.54l-15.52.85-12.37.71c-6.63.38-13.04,1.64-19.58,2.35-10.11,1.09-19.1,4.64-28.93,7.03l-30.66,7.45c-.3,3.44.77,6.85,1.96,10.3.63,1.81-.13,5.36,1.96,6.21,2.76,1.12,5.62-1.02,8.12-.58-.1.21.07.54.02.77-1.18,1.56-1.51,3.95-3.27,5.06-16.81-.83-5.65,8.53-33.67,3.22-3.77-.71-6.46-3.52-6.64-7.41-.31-6.48,2.06-12.15,6.27-16.97,4.75-5.46,12.2-6.54,19.12-4.52,7.14-2.3,14.04-4.44,21.39-5.57,11.02-1.69,20.68-5.73,31.42-8.69,30.15-8.31,52.29-2.4,83.37-7.88,13.28-2.35,26.26-3.61,39.31-4.19,1.57-.07,3.39-.04,4.96,0l18.82.49c2.48.06,4.39.47,6.52.25,2.45-.25,5.22,1.18,7.48-.5,22.08.72,45.7-3.64,67.97-3.38M68.94,191.61c7.4-3.48,1.89-17.2-3.48-18.5-10.36-2.51-17.38,13.36-14.79,16.5,3.28,3.96,14.47,3.78,18.26,2"/><path class="f" d="M388.45,135.43c.41,2.01.62,4.29.8,6.35.18,2.01.53,4.22.48,6.59l-.31,14.76c-.04,2.12.21,3.78.58,5.75.6,3.18-.65,7.9,3.1,10.13,3.51,2.09,8.11,2.87,10.69,6.48,3.41,4.76,1.28,10.87-3.45,14.2-14.32,10.07-33.6,5.64-49.28.79-2.05-.64-3.62-2.37-3.94-3.72-.41-1.77-.21-3.74.83-5.34,5.1-7.81,13.62-7.38,13.35-21.67l-.12-6.47c-.13-6.64-1.4-13.85-5.69-19.03-.18-2.74-2.25-5.08-4.9-5.74-4.3-4.77-10.62-6.89-17.03-9.04-14.28-4.78-29.82-3.81-42.65,4.14-3.54,2.2-6.8,4.8-8.29,8.27-2.26,1.68-5.03.25-7.48.5-.33-2.27,2.07-3.09,3.47-4.41,10.79-10.12,23.67-14.27,38.08-14.79,18.42-.67,40.6,10.93,41.39,16.84l.17,1.26c.06.48.83,1.17,1.45.64,1.21,3.21,3.51,6.08,3.42,9.58,0,.37-.11.79.02,1.27.14.53.73,1.17,1.38.68l.07,2.14c0,.23-.5.46-.53.78-.05.47.33.86.67,1.14l.03,1.36c.1,5.29-.33,10.62,0,15.91.17,2.59-1.27,4.58-1.85,7.14-.57-.33-.7.49-.82.88-.06.21-.04.47-.03.7-.96-.54-1.65.39-1.61,1.37.04.88.62,1.36,1.58,1.39l.18,1.43c-.19.87-.92,1.42-1.75,1.65l-.75.04c-.18-.25-.38-.61-.69-.74-.53-.21-1.13-.08-1.76.81-.1,0-.32-.02-.7.02-.94.1-1.6.75-1.66,1.68-.07,1.05-.25,2.1-.22,3.77-.57.34-.64.83.1.9,10.82,7.34,30.55,6.93,42.78.16,1.71-.94,3.63-1.95,3.81-3.94.37-4.06-5.16-6.69-6.83-6.65-1.14.03-2.18,1.28-3.65,2.27-1.11.06-2.16.61-2.54,1.7-.52.17-1.22.49-2.34.94-.37.13-14.63-.42-7.47-2.25l6.49-.49c.25.77.76.96.91.07,1.43-1.49,1.89-3.48,1.56-5.49-.1-.58.31-1.26,0-2.04-.18-.44-.71-1.18-1.45-.7l-.22-4.62c-.1-2.01.21-4.03,0-6.05-.07-.66-.09-1.54.03-2.18.22-.45.78-.91.97-1.43.35-.96-.93-1.51-.9-2.16l.14-3.77c2.28,3.09,2.26-14.03,0-10.95l-.15-4.59c1.05-1.55.56-5-1.51-5.24l-.21-2.98c-.03-.37.11-.8-.03-1.27-.15-.52-.76-1.14-1.4-.67.03-1.72-1.33-3-1.74-4.64-.09-.36.04-.83-.19-1.24-.25-.45-.8-1.23-1.43-.71-2.4-5.25-6.7-9.61-11.4-12.94.22-.41.07-.79-.12-1.09-.42-.66-1.29-.32-1.73-.56-2.93-1.63-5.61-3.76-8.76-4.93.42-.41.13-.78-.15-1.11-.53-.61-1.2-.36-1.79-.41l-2.17-.19c.36-.42.15-.79-.16-1.09-.54-.52-1.2-.33-1.76-.38l-2.18-.17c.48-.72-.25-1.31-.73-1.47-.7-.23-1.41.06-2.01.02l-2.99-.21c-.25-2.07-3.63-2.49-5.22-1.58l-2.15-.06c.5-.82-.31-1.32-.77-1.46-.88-.27-2.11.05-2.81.04l-8.72-.22c.49-1.52-1.25-1.61-2.2-1.62-1.33-.02-3.42-.17-3.01,1.62l-6.25.07c.09-.75-.91-.77-1.41-.77-.54,0-1.56.09-1.37.86l-2.16.05c-.81-.1-1.93-.18-2.9-.16-.67.01-1.98.36-1.49,1.59l-3.89.17c-.59.03-1.22-.21-1.97.03-.47.15-1.2.72-.71,1.43l-1.34.05c-.71-.79-1.71-.51-2.42-.26-1.07.37-2.27.68-1.96,1.88l-2.17.18c-.37.03-.8-.11-1.26.04-.52.16-1.13.77-.67,1.41-2.63.43-4.89,2.05-7.22,3.29-.36.19-.68.45-.91.79-1.08.17-2.13.44-3.11.93-.32.16-.84-.05-1.2.21-.43.3-1.22.79-.7,1.42-.84.03-1.61.37-2.25.88-.22.18-.83-.07-1.16.12-.49.29-.62.91-.55,1.47-.49.22-.91.76-1.5.82-.35.04-.77.04-1.19.23-.48.21-.58.91-.64,1.42-7.69,6.19-13.96,14.8-16.36,24.4-1.57-.04-3.39-.07-4.96,0,3.34-14.05,20.71-32.06,34.23-38.49,12.01-5.71,24.71-7.7,38.01-8.2,18.21-.69,35.15,3.65,50.87,12.62,13.22,7.54,17.26,11.78,20.51,27.87"/><path class="f" d="M601.65,33.46c-5.04-2.22-9.93-2.38-15.34-.5-4.25,1.47-18.97,2.91-15.33,10.22l-19.44,4.17c-13,2.79-25.76,5.97-37.24,12.9-7.91,4.78-13.97,12.1-18.57,20.09-7.4,12.87-19.86,40.81-18.02,54.9-1.53,1.88-.33,4.35-.67,6.48-.87,5.38-.43,9.91-3.03,12.99-.45.53-2.41.1-2.31-.85.45-4.23,1.39-8.06,1.11-12.04-.15-2.12.02-4.39.02-6.53,0-16.97,9.64-41.46,17.98-56.83,4.77-8.8,10.78-16.19,19.2-21.59,29.21-18.71,50.9-13.05,61.07-21.02,10.41-8.16,9.47-23.38,29.16-31.34,7.38-2.98,14.9-5.47,22.92-4.16-5.54,13.04-7.61,19.35-17.43,28.34-1.64,1.5-3.16,3.07-4.08,4.77"/><path class="f" d="M93.92,186.9c-.92,1.9-1.34,3.86-1.45,5.83-.67,1.59-3.04,2.91-3.16,5.23-6.49,13.83-5.14,24.89-10.12,39.6,19.09,10.84,20.91,25.48,21.71,45.67-13.2-4.27-22.6-13.69-27.21-26.27-4.61,9.65-10.9,19.35-21.41,20.67-2.37-6.88-2.7-14.77,1.74-20.97,3.28-4.58,6.69-9.03,10.52-13.12,2.93-3.14,7.18-5.05,8.9-9.3,3.82-9.43,1.72-21.66,9.65-36.39.75-1.39,1.08-3,1.18-4.2,1.76-1.11,2.09-3.49,3.27-5.06.71-.94,2.89-1.17,3.14-3.1,1.53.47,2.25,1.05,3.24,1.41"/><path class="g" d="M361.31,169.74l-58.12,5.65c-8.95.87-17.12,1.38-25.61.77-.2-.01-.41,0-.61.02-1.21-1.99-4.16-.7-5.77-.76-6.98-2.68-16.04,1.1-26.31.99l-2.3-.02-1.65-.05h-1.87c-19.85.1-22.97-3.45-48.25.87l-81.04,13.85c-6.1,1.04-11.63,1.8-17.31,1.68.11-1.97.54-3.93,1.45-5.83.23.09.6,0,.85-.02,9.39-.57,18.78-1.86,28.45-3.44l12.7-2.07,49.99-8.08,12.36-1.67,10.56-1.02c7.3-.7,14.09-1.1,21.33-.15,11.32,1.49,22.35,1.3,33.49-.87,11.03-2.15,20.93,2.85,36.99.37l9.16-1.41c4.89-.75,9.78-1.29,14.71-1.77l18.76-1.83c6.18-.6,12.35.31,17.91-1.67l.12,6.47Z"/><path class="g" d="M390,168.87c-.37-1.96-.62-3.63-.58-5.75l80.92.03,12.33-1.45c4.07-.48,7.67-.74,11.7-1.45l8.26-1.46c6.11-1.08,12.01-2.27,17.68-4.84,2.93-1.33,4.63-3.52,4.03-6.57-.51-2.55-2.76-4.17-5.67-4.75-16.32-3.25-25.4-3.24-41.63-.91.34-2.13-.86-4.6.67-6.48,8.6-.96,17.23-.63,26.3.04l19.25,1.41c5.33.39,9.87,3.05,14.84,4.75,3.94,1.35,6.94,4.06,7.02,8.66.08,4.64-.97,10.14-4.61,13.31-3.05,2.65-7.85,1.04-10.65-1.36-2.42-2.07-4.7-3.11-7.51-.92-34.53,8.67-55.35,8.54-90.18,8.18l-42.17-.43ZM540.21,152.89c.6-4.06-1.39-6.61-5.16-6.93-1.52-.13-3.2,0-4.18,1.01.1-.1-4.11,9.21,2.42,11.08,3.44.99,6.31-.96,6.92-5.16"/><path class="f" d="M601.65,33.46c3.01,1.54,6.52,2.15,8.46,4.77,6.83,9.21,11.9,19.44,15.46,30.98-11.15,4.03-22.5,1.83-32.68-3.87-21.43-11.99-8.25-8.09-21.91-22.17-3.64-7.31,11.08-8.75,15.33-10.22,5.42-1.87,10.3-1.72,15.34.5"/><path class="f" d="M464.7,214.69c-.08.56-.02,1.18.41,1.73.26.33.59.55,1.03.17.04.54.04,1.11.17,1.63l-2.6,5.55c5.07,4.04.98,11.07,3.35,12.41l-1.05,10.73-5.26-1.09c.31-2.59.01-5.85-.96-8.14l.05-3.08c.42-.07.81-.11,1.12-.25.39-.18.54-.56.41-1.02-.16-.56-1.18-.41-1.53-.63l-.05-3.08c1.63-1.34.41-2.99-.44-4.53-3.75-6.8-14.25-3.3-12.03-2.03-.25.08-.56.09-.83.1-1.88.11-3.24,1.58-5.01,2.15-2.43-2.17,6.52-7,7.84-10.49-3.56-2.58-7.23-2.59-10.98-1.83-3.92.8-8.21-.24-11.95.89-3.36,1.02-6.5,1.04-9.92,1.63-12.99,2.23-22.4-.31-33.32,1.78l-7.02,1.34c-6.88,1.32-13.38,1.66-20.23.35-10.81-2.07-21.94.13-33.11-1.11l-13.96-1.55-8.16-1.44c-15.52-2.74-22.08,3.15-22.95-1.73,5.58-3.78,13.24-4.71,20.56-3.92l34.64,3.73,19.42-.22c22.66-.26,44.61.8,67.17-2.05l26.97-3.4c5.34-.67,8.62,1.12,12.62,3.91,1.7,1.19,5.62.58,5.6,3.47"/><path class="f" d="M235.03,213.07c.2.15.33.92.6,1.08.22.13,1.16-.59,1.04.29l-23.39,5.78c-2.69.66-5.04,1.77-7.93,2.13-6.86.85-13.89,3.43-17.89,8.83-.19.05-.35.42-.79.77-.2.16-.38.43-.85.88-.14.14-.31.46-.77.77-2.84.57-4.54,3.32-5.8,5.8-.17.14-.35.38-.76.77-.18.17-.39.42-.85.89l-.77.78-.87.86c-.14.14-.36.35-.67.79-2.92,2.25-6.56,4.62-7.58,8.23-1.23,1.36-2.18,2.61-3.95,4.07-7.1,5.82-13.54,12.47-19.92,19.62-.08,1.14.65,2.41,1.15.94.8.05,1.63.19,3.06.01-1.59,1.29,14.22,1.42,12.5-1.58.27-.03.71.13,1.44-.05,2.46,1.49,5.99.18,9.04-.16l4.09-.46.1,2.14c-1.02.06-2.58.41-2.58,1.61l-2.57.09c-.27,0-7.96-1.06-7.28,1.55-.81-.1-1.76.28-2.55.08-3.48-.88-6.75.27-10.44,1.42-1.55.48-3.85-.27-4.05,1.67-.46-.15-1.06.19-1.55.13-6.06-.73-12.89,2.31-17.39,6.68-.23-2.11-.07-5.01,1.57-6.69,9.85-10.09,19.17-20.34,28.14-31.75,8.87-11.28,18.88-21.09,31.2-28.42,10.82-6.44,35.41-12.97,47.26-9.54"/><path class="g" d="M472.83,135.3c0,2.13-.17,4.41-.02,6.53l-22.2-2.97c-14.9-2-34.51,1.84-38.45,1.45-7.96-.78-15.43.66-22.91,1.47-.18-2.06-.4-4.34-.8-6.35l46.62-3.23c15.95-1.11,22.6,4.38,37.76,3.11"/><path class="f" d="M441.48,225.3c-.36.53-.6,1.12-.74,1.74-.18.05-.39.02-.56.1-2.07,1.02-4.67,1.83-6.54,3.14.29-.61-.49-2.92-1.7-2.33-6.88,3.37-13.34,7.07-19.47,11.65-1.14.85-.53,2.36-.22,3.21.23,1.04-9.74,6.69-10.57,6.52-.09-.87-.6-1.61-1.49-1.66-1-.06-1.99.29-2.91.6.4-1.42,2.1-2.07,3.52-2.97l15.47-9.86c3.31-2.11,6.59-3.71,9.84-5.87,5.74-3.82,11.71-6.63,17.72-10.14,1.52-.89,4.22-3.77,2.52-5.08-8.2-1.37-16.47.59-24.67,1.7l-11.71,1.58c-2.92.39-4.95.35-7.87-.04-17.52-2.31-31.84,6-44.92,2.96-5.75-1.33-11.79-2.54-17.58-1.26-5.16,1.13-9.95.02-15.1-.29-5.2-.31-10.04-.23-15.13-1.43-13.98-3.3-19.49-1.69-33.97-1.35.87,3.8.34,7.72.72,11.74l1.93,20.73c.26,2.84.71,5.39,1.43,7.82-.47-.04-1.71.15-1.98-.31-.13-4.79-.94-9.31-1.34-14.08l-1.25-14.73c-.22-2.63-1.45-4.82-1.04-7.72.28-1.96.3-3.92.06-5.55,1.09.15,2.24-.1,2.92-1.02.3-.02.59,0,.89.05.87,4.89,7.43-1.01,22.95,1.73l8.16,1.44,13.96,1.55c11.17,1.24,22.29-.96,33.11,1.11,6.85,1.31,13.35.97,20.23-.35l7.02-1.34c10.92-2.09,20.33.44,33.32-1.78,3.42-.59,6.56-.61,9.92-1.63,3.74-1.14,8.03-.09,11.95-.89,3.74-.76,7.41-.75,10.98,1.83-1.32,3.49-10.27,8.33-7.84,10.49"/><path class="f" d="M111.05,357.21c-1.66-.08-3.29-.41-4.92-.72-.06-.51-4.18-7.75-5.48-7.06l-1.9-3.35c-2.83-5-5.2-12.67-10.03-14.37l-1.31-.46c-.26-.54-.77-1.02-.94-1.59-.55-1.85-7.49-10.03-10.27-9.9l-1.14-.98c-.08-1.89-2-1.69-3.17-2.37-2.59-1.49-4.97-3.37-7.45-5.03-.71-.48-1.06-1.72-2.26-2.3l-12.86-6.15c-1.53-.73-3.01-1.17-4.31-.42l-1.93-.25c-.49-2-2.99-1.49-4.72-1.77.99-4.63-10.26-.41-10.85-2.82,5.82-3.79,33.45,6.78,38.51,9.38,5.3,2.73,9.86,6.78,13.98,11.13,11.63,12.28,22.75,24.66,31.05,39.02"/><path class="f" d="M242.58,176.38c1.4,9.57-1.7,19.53.75,27.91,1.01,3.44-.74,7.7-.05,11.22-.96,0-.9,1.42-.84,2.1.04.44.04,1.58.84,1.39l.08,25.2c-.72.33-.68,1.68-1.71,1.73-1.74-3.03-.39-19.75-3.16-18.05l-.08-1.54c.77.29.72-.93.71-1.71l-.21-12.39c-.02-.91,1.37-14.9-1.23-12.37.15-1.16.02-2.6.09-3.74,2.27,2.6,1.56-12.34.62-10.11l.09-3.89c2.41-.4,2.12-3.79,2.45-5.81l1.65.05Z"/><path class="f" d="M276.97,176.18c.2-.01.41-.03.61-.01-1.01,12.16-2.65,24.24-1.44,36.78.03.34.51.3.69.16-.68.92-1.83,1.17-2.92,1.02-.88-6.08.93-14.79-1.95-13.27,0-1.98.62-4.46-.89-5.89l.14-14.53c1.82.36,1.04-2.95,2.39-3.8.98-.62,2.29-.37,3.35-.45"/><path class="f" d="M497.61,255.82l-10.02,7.34c-1.08.79-2.86.88-2.45,2.49-.3.19-.54.5-.81.72-3.12.67-4.82,4.26-8.19,4.09-1.06-.42-2.17-.66-3.3-.8.7-.49,1.22-1.73,1.67-2.45.95-1.52,2.22-2.87,4.01-3.37.82-.22,1.51-.69,1.77-1.54,4.35-4.73,10.52-7.36,16.44-9.84.63,1.01.88,2.17.89,3.35"/><path class="f" d="M466.01,246.9c-.9,9.22-1.36,18.47-1.35,27.74-1.52-1.7-.33-3.91-3.08-5.49-.68-.39-1.67.2-2.41.63.34-7.19.77-17.13,1.58-23.97l5.26,1.09Z"/><path class="f" d="M464.65,274.64c.36.4-.43,1.64.47,1.67.77.03,1.02-.14,1.19-.47.26-.47.32-.9.07-1.28.22-.02.46,0,.68-.05,2.64-.59,3.67-3.37,5.77-4.85,1.13.14,2.24.38,3.3.8v1.78c-.26.11-.54.5-.77.7-2.92,1.2-5.97,2.96-7.52,5.77-.5.26-.88.64-1.44.85-1.26.46-3.06,1.07-3.4,2.54-.3,1.29-1.5,1.79-2.37,2.36l-2.04-.9c-.41-4.56.36-9.18.57-13.78.74-.43,1.73-1.02,2.41-.63,2.75,1.58,1.57,3.79,3.08,5.49"/><path class="f" d="M238.41,226.34c-.17-3.44.29-6.89-1.23-10.94-5.42,1.68-10.86,2.49-16.34,4.05l-7.61,2.17c-6.29,1.79-12.82,2.34-18.92,4.93-2.55,1.08-3.91,3.77-6.85,4.63,4-5.4,11.04-7.98,17.89-8.83,2.89-.36,5.23-1.46,7.93-2.13l23.39-5.78c.12-.88-.82-.16-1.04-.29-.27-.16-.4-.93-.6-1.08,5.05,1.52,1.56-4.87,2.65-13.2,2.6-2.53,1.22,11.46,1.23,12.37l.21,12.39c.01.78.06,2-.71,1.71"/><path class="f" d="M519.56,249.27c.84,3.35-4.28,1.55-4.07,5.69l-.88.11c-.57.03-1.12-.82-1.57-.82.02-.1.2-1.48-.21-1.55-11.39-1.01-7.25.64-15.21,3.12,0-1.18-.26-2.35-.89-3.35,8.19-3.44,15.07-6.83,22.83-3.2"/><path class="f" d="M113.78,337.85c-1.37-6.36-1.17-13.15-.37-19.97.34-2.85,1.23-20.06,3.36-19.45.43,2.69-1.67,5.48-1.04,8.39.76,3.53-.8,6.28-.87,9.63l-.45,20.46c-.01.62-.08,1.28-.62.94"/><path class="f" d="M240.93,464.78l-5.1.32-13.91-.33c-3.35-.08-6.52-.15-9.85-.72l-4.94-.85c-1.1-1.93,14.5-.16,14.08-.17l18.79.26c.83.01,1.43.9.93,1.49"/><path class="f" d="M117.04,446.9c-.53-.84-.89-1.93-.89-3.31l-.02-25.51c.31-.04,1.43-.1,1.59.28l.08,27.61c-.11.58-.31,1.27-.77.93"/><path class="f" d="M312.21,464.84c-5.36,1.45-22.19,1.1-28.01,0-.34-.46.34-.67.93-.76h26.16c.59.09,1.27.3.93.76"/><path class="f" d="M467.06,236.17c-2.37-1.35,1.73-8.37-3.35-12.41l2.6-5.55c1.44,5.89,1.34,11.92.75,17.96"/><path class="f" d="M109.78,417.14c-3.18-.18-18.32-3.88-19.84-6.19,3.21-.22,10.86,3.25,18.22,4.52,1,.17,1.9.92,1.61,1.67"/><path class="f" d="M25.02,311.82c-2.11,2.62-5.99,4.36-6.86,8.15-1.15,4.99.67,15.5-1.3,17.34-.75.7-2.02.5-3.2.41-2.4-.17-3.71,2.09-5.75,1.73,2.12-2.48,5.04-3.48,9.33-3.36-2.37-9.5-2.1-20.51,7.78-24.28"/><path class="f" d="M115.38,355.07c-.97-1.65-.6-3.51-.75-5.79l-.66-9.78c2.44-3.2,2.58,18.25,1.4,15.56"/><path class="f" d="M204.88,463.07c-5.52-.31-11.15.27-16.7-.02-.44-.41.16-1.45,1.04-1.45h14.71c.75,0,1.36,1,.96,1.47"/><path class="f" d="M349.99,463.13c-6.13-.97-12.17-.9-18.31-.03-.5-.51.17-1.5.96-1.5h16.42c.79,0,1.38,1.04.93,1.53"/><path class="f" d="M329.36,463.15c-3.99,1.23-8.31,1.08-12.45,1.59-3.05-1.65,13.98-3.41,12.45-1.59"/><path class="f" d="M278.68,464.73c-2.53.17-4.95.15-7.45-.45-1.38-.33-2.87-.13-4.27-.28-.67-3.29,3.68-.45,10.76-.77.75-.03,1.48,1.01.96,1.49"/><path class="f" d="M153.23,466.38c-4.17,0-8.45-.63-12.51-1.55-2.72-1.75,16.66.24,12.51,1.55"/><path class="f" d="M138.46,464.75c-3.75-.46-8.25-.89-10.8-3.79,1.29-.52,2.25.78,3.67,1.05l5.54,1.03c1.02.19,2.05.8,1.6,1.72"/><path class="f" d="M25.77,298.81c-3.79,4.91-.31,8.6-2.17,8.63-1.49-3.03-.81-6.69,2.17-8.63"/><path class="f" d="M173.59,464.85c-3.16,1.04-6.67,1.51-10,1.52-3-1.42,12.14-3.33,10-1.52"/><path class="f" d="M361.48,464.75c-3.36-.43-6.79-.61-10.05-1.56-1.6-1.79,12.52-.15,10.05,1.56"/><path class="f" d="M185.12,463.21c-2.91,1.15-6.14,1.04-9.22,1.55-1.94-1.95,10.42-3.35,9.22-1.55"/><path class="f" d="M237.77,196.13l.62-10.11c.94-2.23,1.65,12.71-.62,10.11"/><path class="f" d="M380.2,462.6c-2.26,1.79-5.48,2.07-8.32,2.17-1.71-1.7,6.93-2.55,8.32-2.17"/><path class="f" d="M405.62,459.88c-2.42.92-4.86,1.93-7.51,1.59-2.24-1.44,8.96-3.2,7.51-1.59"/><path class="f" d="M113.93,361.31c1.34-.21,1.43-1.74,1.68-2.86,1.91-.28,1.11,2.4,1.08,4.25-.04.98-2.96-.13-2.76-1.39"/><path class="f" d="M240.93,176.33c-.33,2.02-.04,5.41-2.45,5.81.05-1.97.9-3.82.58-5.8h1.87Z"/><path class="f" d="M1.35,348.43c-.44-2.69,2.11-3.98,3.34-5.76-.09,2.25-1.68,4.31-3.34,5.76"/><path class="f" d="M386.83,461.55c-1.92.42-3.8,1.13-5.81.99.08-3.05,7.23-1.57,5.81-.99"/><path class="f" d="M370.43,464.83c-2.21.08-4.42.11-6.63-.03,1.72-1.38,4.88-1.2,6.63.03"/><path class="f" d="M115.5,418.06c-1.47.1-2.87-.34-4.24-.82.16-.99,1.42-.72,2.06-.8,1.14-.15,2.68.24,2.19,1.63"/><path class="f" d="M20.26,376.39c-3.89-1.99-6.96-5.3-9.63-8.75,2.79,1.44,4.23,4.43,7.16,6.19,1.22.73,2.81,1,2.48,2.55"/><path class="f" d="M472.83,269.67c-2.09,1.48-3.13,4.26-5.77,4.85,1.79-2.95,4.54-5.45,7.44-7.3-.45.72-.98,1.96-1.67,2.45"/><path class="f" d="M.59,353.36c-.74-1.14-.85-2.21.01-3.35.79-.19.76.92.79,1.35.05.64.18,2.11-.81,2"/><path class="f" d="M3.88,359.96c-1.33-1.07-2.08-2.56-2.6-4.14,2.24-.29,2.05,2.48,2.6,4.14"/><path class="f" d="M89.12,410.88c-1.21-.14-3.03-.17-3.35-1.58,1.27.24,2.85,0,3.35,1.58"/><path class="f" d="M118.51,451c-1.1-.42-1.37-1.55-1.41-2.66.69-.46,1.31.22,1.44.69.22.75.09,1.39-.03,1.97"/><path class="f" d="M25.28,310.72c-.86-.21-.72-1.06-.93-1.7.48.03,1.24-.18,1.63.46.25.42-.13,1.12-.7,1.23"/><path class="f" d="M126.84,460.9c-.96.02-1.7-.68-1.82-1.62.34-.05.89-.25,1.36-.08.59.21.54,1.15.46,1.7"/><path class="f" d="M466.39,274.57c.25.38.19.81-.07,1.28-.18.32-.42.5-1.19.47-.9-.04-.11-1.27-.47-1.67.58.01,1.16-.02,1.73-.08"/><path class="f" d="M113.86,360.66c-.32.05-.89.24-1.31,0-.58-.32-.28-1.22-.34-1.73.58-.12,1.14.15,1.35.63.17.38.28.75.3,1.1"/><path class="f" d="M394.21,461.56c-.86-.04-1.74-.04-2.59,0-.27-.76.83-.79,1.3-.79.47,0,1.56.04,1.3.79"/><path class="f" d="M466.14,216.58c-.44.38-.78.16-1.03-.17-.43-.55-.49-1.17-.41-1.73.64.41,1.37,1.02,1.44,1.89"/><path class="f" d="M116.85,297.6c-.04-.68.63-1.14.81-1.71.08.33.1.72.01,1.19-.05.3-.42.53-.82.52"/><path class="f" d="M121.98,456.69c-1.08-1.28-2.41-2.35-2.65-4.12,1.38.97,2.34,2.46,2.65,4.12"/><path class="f" d="M6.16,362.46c-.9-.37-1.82-.85-2.25-1.76,1.4-.29,1.81.74,2.25,1.76"/><path class="f" d="M23.6,378.77c-.58-.48-1.58-.57-1.79-1.46.82.13,1.48.71,1.79,1.46"/><path class="f" d="M478.52,263.85c.16-.91,1.27-1,1.77-1.54-.26.85-.95,1.32-1.77,1.54"/><path class="e" d="M266.23,464.06c.21,4.91-.79,9.91-1.23,15.19l-1.68,20.17-1.82,23.63-.8,17.24-.76,9.11-.63,20.88-.85,14.72-.8,28.7-.85,15.58-.74,28.04-.92,12.1-.64,22.38c-.12,4.26-.89,8.45-1.03,12.75-.37,11.99-2.02,23.82-8.49,34.14-5.21,8.32-11.19,15.54-18.55,21.86-7.62,6.55-14.79,12.38-23.71,17.33-18.85,10.46-42.59,17.54-64.28,14.12-13.46-2.12-26.27-6.08-37.1-14.71-6.84-5.45-11.44-12.61-15.81-20.15-6.97-12.03-13.67-23.63-21.69-34.98-.58-.81-.76-1.96-.71-2.55.07-.85.92-1.3,1.83-1.85l20.51-12.19c1.07-.64,4.16-2.45,4.69-.88,3.65,17.52,6.67,44.22,24.44,53.69,14.18,7.56,28.26,5.84,43.6,5.27l19.12-.71c28.62-1.06,53.54-35.28,54.06-64l.74-40.32c.07-3.86.82-7.48.95-11.3l.74-20.56.86-13.86.78-22.2.84-13.88.82-24.67.84-12.23.79-22.18.84-12.28c.89-13,.38-27.24,1.99-40.64,8.06-1.46,16.44-.66,24.65-.77"/><path class="f" d="M49.38,717.24c-4.3,1.28-13.9,3.76-15.56.14-3.11-6.79,46.15-42.81,55.13-34.7,1.53,1.39,2.87,4.15,2.74,7.01-.63,13.64-30.64,24.07-42.31,27.54"/><path class="h" d="M303,263.09l48.34-.14c.41,0,1.27-.02,1.63.17,2.99.79,9.54,2.14,12.47,1.52.43-.09,1.14,0,1.57.11,2.95.72,5.95,1.62,9.01,1.6,2.77,1.23,5.72,4.18,5.69,7.38-.52-.31-.65.33-.65.95l-.02,14.73c0,.79.98,1.48,1.5.96v1.37c-1.3,1.34-1.01,3.8.16,5.21-.08.8.28,1.67.16,2.47-.58,3.77.09,7.59,1.44,11.14l.19,2.75c.24,3.46.22,7.08,1.46,10.39-.1.83.1,1.73.04,2.57-.3,4.6,1.53,9.08,1.58,14.05l.27,28.45-.29,4.08c-.48,6.9-1.2,3.79-1.53,15.76l-.06,2.36c-1.05,3.75-1.95,7.74-1.58,11.68.11,1.18.1,2.66-.05,3.82-.49-3.55-1.44,15.36-1.4,13.39l-.45,21.13c-.04,2.12-1.7,3.93-2.26,5.67-.46,1.42-2.58,2.26-3.35,3.49-4.34,2.39-8.99,3.65-13.75,4.9-.72-.19-1.72.03-2.47.05-3.22.08-6.44-.94-9.95-.89l-8.2.13c-6.42.1-12.52-1.09-18.96-.34-9.53,1.1-19.06-1.12-27.97,1.05-.64.16-1.49.07-2.15.05-1.74-.07-3.47-.13-5.21.06-.48.05-1.03.12-1.51.08-5.9-.55-11.76-.14-18.01.88-1.5.25-3.64-1.06-4.26.58-.43-.07-.9.04-1.34.04l-23.9.03c-.52,0-1.13.05-1.64-.05-2.23-.45-4.7-1.54-7.41-1.55l-45.85-.15c-3.37-.01-6.3.33-8.92,1.71l-1.58.06c-2.55.1-4.99.89-7.43,1.56-.51-.11-1.1.1-1.63.06-3.92-.34-7.96.25-12.11-.43-11.49-1.88-20.2-9.7-23.53-20.83-1.12-3.73-.99-7.55-2.26-10.91.22-.7-.22-1.6-.08-2.33.41-2.2-.83-11.11-1.51-13.34-.11-.57-.12-1.54-.1-2.16.06-1.73.1-3.44-.02-5.17-.05-.73,0-1.47,0-2.2l.07-26.29c.01-4.38-.02-8.54-1.58-12.25.2-.8-.21-1.75-.1-2.57.21-1.51-.89-14.1-1.56-14.95.37-1.31-.03-3.32-.03-4.7l-.07-33.68c0-.54.15-1.14.06-1.67l2.49-8.96c2.22-7.99,13.56-11.69,19.85-13.17.49.06,1.09-.28,1.55-.13.15.05,13.48-2.1,14.49-3.09.79.2,1.74-.18,2.55-.08,2.53.31,4.87-.93,7.28-1.55l2.57-.09c3.32-.12,6.82-.62,10-1.54.95.26,2.1-.29,3.07-.1,3.21.64,6.35-.55,9.96-.95,1.85-.21,4.12.93,5.11-.63.85.29,2.06-.11,2.97-.05,5.5.36,23.71-.84,28.65-3.2l1.97-.18c11.72-1.08,10.11-.46,23.19-2.69,8.45-1.44,19.28-2.05,25.99-3.73.45.12,1-.13,1.46-.07,3.39.41,12.63-.56,15.84-1.53l2.1-.08ZM256.21,302.58c-.36-.12-1.03-.04-1.43-.03-7,.21-13.47,3.41-19.48,7.47-6.04,4.08-17.78,12.44-19.95,18.84-.35.37-.28,1.21-.82,1.49-.65-.11-1.17.19-1.46.62-.41.61,0,1.37-.23,1.9-.21.48-.85.86-.79,1.49-2.6-.08-6.3,13.38-6.19,16.42.02.51-.18,1.12-.24,1.63-.05.41-1.09.91-.99,1.77.77,6.59-.98,13.08.9,19.05.23.73.22,1.67.28,2.43.56,6.45,4.18,12.8,8.95,17.16.26.23.59.57.74.88,1.16,2.38,3.14,4.81,5.7,5.63.58.19,1.07.84,1.68.95.12,1.24,1.05,2.04,2.27,2.13.31.02.65.21.95.31,4.98,6.66,21.01,10.61,29.35,11.14l2.43.15c-1.02,1.28,15.17,1.23,14.29.07.82-.3,2.14-.01,3.02-.1,11.37-1.15,22.56-5.25,32.18-12.03,1.53-1.08,2.95-1.9,3.31-3.46.47-.29.89-.69,1.38-.95,5.86-3.15,10.01-8.85,14.26-14.45,5.55-7.31,9.36-16.1,10.35-24.9.08-.69-.08-1.52.14-2.19,1.61-4.94,1.1-11.26-1.7-15.66.08-.36-.05-1.1-.15-1.46-1.8-6.6-6.19-13.35-12.2-16.63-.49-.27-.98-.58-1.44-.88-.51-1.77-2.35-3.08-4.25-4.26-10.03-6.2-21.25-11.02-32.61-12.65-.59-.08-1.36-.36-1.94-.26-2.07-1.55-4.74-1.79-7.26-1.59-1.02.08-2.05-.11-3.07-.12-.02-.59-.92-.8-1.78-.79l-13.15.1c-.63,0-1.29.3-1.02.79"/><path class="h" d="M37.56,300.85c1.68.95,3.63,1.17,5.52,1.42l1.93.25c1.33,1.42,3.59,1.53,5.56,2.45l13.87,6.42c2.48,1.66,4.86,3.54,7.45,5.03.64,1.25,1.78,2.14,3.17,2.37l1.14.98c3.52,3.01,6.29,7.34,10.27,9.9.17.57.68,1.05.94,1.59.55,1.17,9.99,15.22,11.34,14.83l1.9,3.35c1.55,2.74,2.74,6.09,5.57,7.76.37.22.59.68.95.92.13,1.56,1.34,2.56,2.54,3.43.31.22.66.75.92,1.01.72,2.55,3.09,4.47,5.34,5.8.22.41.92.77,1,1.34.4,1.85-.43,3.72-.71,5.87-.37,2.85.82,5.72-.83,8.58-5.66-2.7-9.86-6.34-14.74-9.49-8.42-5.43-16.67-10.94-23.99-17.85l-14.36-13.55-16.45-16.36c-6.04-6-18.07-17.36-11.8-25.98,1.09.29,2.37-.23,3.48-.06"/><path class="e" d="M27.57,344.49c.2.07.5.08.71.07,6.16,4.41,11.63,9.91,18.16,13.64.36.22.65.65,1.06.79,2.4,3.35,6.14,5.55,9.66,8.21,4.63,3.5,20.55,15.54,24.5,16.4.49.1,1.09,1.06,1.68.86,1.71,2.02,4.08,3.59,6.68,4.07l.66.12c1.93,2.8,5.95,3.68,9.12,4.78.27.09.66.25.94.22,3.63,3.74,9.5,4.21,14.28,6.95,2.05,2.21,1.33,7.68.72,10.34-9.97-2.13-24.25-7.55-32.35-11.05-.23-.1-.66-.04-.92,0-5.76-3.44-12.25-5.96-18.64-8.08-.21-.07-.54-.07-.76-.05.58-.75-.3-1.24-.75-1.38-.76-.24-1.37-.2-1.98-.19-.22,0-.49.06-.7,0-5.69-3.26-11.97-5.77-18.16-8.01-.26-.09-.63-.19-.9-.18l-14.67-9.04c-.16-.35-.67-.54-.92-.83-5.1-5.95-22.88-20.09-17.49-24.99,5.57-5.07,13.52-5.15,20.08-2.66"/><path class="g" d="M110.27,384.65c-5.33-3.88,9.26,10.08,5.28,6.46-.04,1.2,0,2.38-.41,3.87l-3.11-.47-1.46-.19c-.25-.76-1.15-.75-1.83-.8-.51-.43-1.54-.74-2.22-.86-.64-.75-1.65-.81-2.58-.91l-.67-.07c.52-.65-.33-1.1-.75-1.2l-1.14-.26c-.75-.17-1.45-.83-2.28-.89.51-.64-.19-1.19-.69-1.38-.43-.16-.84-.18-1.21-.16-.45.03-.93-.17-1.37-.12.53-.66-.21-1.17-.7-1.34-.44-.16-.85-.16-1.22-.17-1.75-.08-2.86-1.78-4.64-1.77.43-.46.12-.74-.18-1.03-.54-.53-1.23-.31-1.73-.48-3.09-1.02-5.91-2.97-8.82-5.04l-20.68-14.77c-.14-.64-1.07-.9-1.42-1.32.01.01-13.71-12.53-14.77-11.72,0-1.13-1.1-1.17-1.8-1.6-2.12-1.3-3.98-3.55-6.63-3.45-.22-1.51-1.87-1.94-3.19-2.29-.8-1.38-2.01-2.43-3.35-3.26-.28-.17-.36-.66-.64-.85-.34-1.36-.66-3.58-2.39-3.45-.06-1.25-.12-2.51-.27-3.76-.19-1.53-.35-3.23-1.46-4.38v-3.82c.98-.36.62-1.78.77-2.62.71-1.76,2.9-2.63,4.05-3.96,3.47-.74,6.31.8,8.62,3.56,3.14,3.76,6.79,6.86,9.67,10.88,5.05,7.06,10.99,12.86,17.54,18.5,2.56,2.21,4.7,4.42,7.46,6.49l35.06,26.38c1.65,1.24,3.41,2.56,5.14,2.25"/><path class="f" d="M34.08,300.91c-6.28,8.63,5.76,19.98,11.8,25.98l16.45,16.36,14.36,13.55c7.31,6.9,15.57,12.41,23.99,17.85,4.88,3.15,9.07,6.79,14.74,9.49,1.66-2.86.46-5.72.83-8.58.28-2.15,1.11-4.02.71-5.87.62-.03,1.35.14,1.57.62-.05-.1-1.48,13.6-1.66,14.35-.63,2.68-6.44-2.43-6.6-.02-1.73.31-3.49-1.02-5.14-2.25l-35.06-26.38c-2.75-2.07-4.89-4.28-7.46-6.49-6.55-5.64-12.49-11.44-17.54-18.5-2.88-4.02-6.53-7.12-9.67-10.88-2.31-2.76-5.15-4.3-8.62-3.56.97-1.11,1.05-1.49,2.92-1.55,1.59-.05,1.55,1.32,4.63,1.51-2.3-3.52-5.8-17.12-.27-15.64M35.83,317.69c0-.23-.18-.41-.41-.41s-.41.18-.41.41.18.41.41.41.41-.18.41-.41"/><path class="f" d="M415.45,447.59v1.78c-2.19-.8-9.32,4.15-15.58,6.39-2.78,1-9.91,1.04-10.41-3.13-1.86-15.36-1.32-30.99-.32-46.43.24-3.72,1.42-6.67.96-10.09-.5-3.61,1.67-7.63,1.54-11.52-.35-10.85,1.1-20.94-.53-31.97-2.06.46-.49,16.53-3.28,16.14l-.27-28.45c-.05-4.97-1.87-9.45-1.58-14.05,3.19-.56.43,5.4,3.68,5.56,1.06-4.89.09-9.34-.46-13.85-.76-6.19-.18-12.62-1.32-19.02-.73-4.11-.76-7.86-1.76-11.82-1.22-4.83-.72-10.44-.36-15.72.38-5.52,4.13-9.58,6.19-14.16,2.9-2.72,7.27-4.77,9.73-7.93.82.17,10.8-5.48,10.57-6.52,7.58-3.28,14.62-7.8,21.39-12.54,1.87-1.31,4.47-2.13,6.54-3.14.35,1.56-1.42,1.65-2.6,2.38l-19.79,12.19c-7.75,4.78-15.96,8.66-22.79,14.8-8,7.19-9.47,18.65-7.84,28.81,1.28,7.95,2.02,11.79,2.6,19.7l.84,11.37,1.41,25.86c.67,12.2,2.15,24.25,1.12,36.52l-1.03,12.25c-.6,7.17-2.17,14.18-2.02,21.37.13,5.93-.42,11.4-.66,17.22-.19,4.68,1.32,9.04.58,14.03-.48,3.28-.51,8.45,2.23,10.64,6.01,4.79,18.56-6.38,23.22-6.68M389.97,350.83c1.69-.43,1.13-3.31.1-3.26-1.49.07-1.14,3.52-.1,3.26"/><path class="f" d="M237.54,456.72c.14.73.03,1.14-.47,1.19-.82.09-1.43-.72-2.14-.73l-38.61-.55c-7.3-.1-14.15-.16-20.96.1,2.62-1.38,5.56-1.72,8.92-1.71l45.85.15c2.71,0,5.18,1.1,7.41,1.55"/><path class="f" d="M390.1,396.12h-3.55c.03-1.68-.65-3.48-.6-5.15l.06-2.36c2.37,3.91,2.24-18.24,1.53-15.76l.29-4.08c2.78.39,1.22-15.68,3.28-16.14,1.63,11.03.18,21.11.53,31.97.13,3.89-2.04,7.91-1.54,11.52"/><path class="f" d="M360.65,455.11c.31.39.19.89-.14,1.08-.3.18-.92.77-1.67.67-14.49-2.02-28.75-1.15-43.38-1.07l-18.12.1c-.86,0-1.72-.3-1.78-.83,8.91-2.17,18.44.05,27.97-1.05,6.44-.75,12.54.45,18.96.34l8.2-.13c3.51-.06,6.72.97,9.95.89"/><path class="f" d="M164.71,458.41c1.55,3.4-12.12.67-12.56.62-12.46-1.38-21.13-10.11-24.41-22.07-.97-3.55-2.02-7.18-.92-10.72,1.27,3.36,1.14,7.18,2.26,10.91,3.33,11.13,12.04,18.95,23.53,20.83,4.15.68,8.18.1,12.11.43"/><path class="f" d="M83.38,399.9c8.1,3.5,22.38,8.92,32.35,11.05.61-2.67,1.33-8.13-.72-10.34-4.79-2.74-10.65-3.21-14.29-6.95,2.12-.2,3.8,1.33,5.94,2.17l10.3,4c.91,4.22.65,8.38-.09,12.12-5.21,0-9.33-2.32-14.04-3.67-1.86-.53-20.99-6.46-19.45-8.38"/><path class="f" d="M121.85,306.59l.07,33.68c-.51.21-1.53.07-1.58-.86-.11-1.98-1.75-36.63,1.52-32.83"/><path class="f" d="M380.22,446.66c.57-1.74,2.22-3.55,2.26-5.67l.45-21.13c-.04,1.97.91-16.95,1.4-13.39,1.63,1.35.58,3.72.53,5.88-.15,6.9-.94,13.6-.57,20.44.22,4.09.85,12.31-4.07,13.87"/><path class="f" d="M125.12,401.04c-.53.45-1.52-.13-1.52-.94l-.07-27.01c0-3.75-.75-7.25.08-10.59,1.56,3.71,1.59,7.87,1.58,12.25l-.07,26.29Z"/><path class="f" d="M144.25,282.79c-6.29,1.47-17.63,5.18-19.85,13.17l-2.49,8.96c-.88-5.41.91-11.53,4.95-15.45,4.5-4.36,11.32-7.41,17.38-6.68"/><path class="f" d="M263.08,456.75c4.13,1.17-8.52,1.86-6.21,1.88l-17.51-.18c-.2-.84-.19-1.35-.18-1.67l23.9-.03Z"/><path class="f" d="M286.69,455.25c1.54,2.88-21.39,1.6-22.27,1.46.62-1.64,2.76-.33,4.26-.58,6.25-1.02,12.11-1.43,18.01-.88"/><path class="f" d="M23.37,341.33c.61,2.22,4.03.86,4.2,3.16-6.56-2.49-14.5-2.41-20.08,2.66-5.39,4.9,12.39,19.04,17.49,24.99-3.74-.21-16.16-14.91-18.65-18.62-1.81-2.71-1.43-5.72,1.41-8,4.26-3.42,10.32-4.14,15.63-4.19"/><path class="f" d="M59.64,390.2c-6.34-1.82-12.94-4.02-18.16-8.01,6.18,2.23,12.47,4.75,18.16,8.01"/><path class="f" d="M82.47,399.89c-1.26.15-2.43-.37-3.82-.97l-13.77-5.93c-.64-.28-.94-.79-1.06-1.18,6.4,2.11,12.88,4.64,18.64,8.08"/><path class="f" d="M123.51,359.93c-2.45,2.07-2.18-12.75-1.56-14.95.67.86,1.77,13.45,1.56,14.95"/><path class="f" d="M376.87,450.15c.06,3.79-10.87,5.68-13.75,4.9,4.76-1.26,9.41-2.51,13.75-4.9"/><path class="f" d="M126.74,423.91c-2.42,4.12-2.24-16.35-1.51-13.34.68,2.23,1.92,11.14,1.51,13.34"/><path class="f" d="M386.55,396.13c.01-.61-.88,8.54-2.18,6.52-.37-3.94.53-7.93,1.58-11.68-.05,1.67.63,3.47.6,5.15"/><path class="f" d="M30.08,342.69l-.73,1.65c-.36.04-.71.21-1.08.22-.21,0-.51,0-.71-.07-.17-2.3-3.6-.94-4.2-3.16,1.04-.76,2.16-1.43,3.36-1.9,1.34.83,2.55,1.89,3.35,3.26"/><path class="f" d="M40.58,382.02c-1.86.03-3.52-.85-5.23-2.09-3.27-2.39-7.83-3.41-9.44-6.95l14.67,9.04Z"/><path class="f" d="M106.13,356.49l.08.7c-2.83-1.66-4.02-5.02-5.57-7.76,1.31-.7,5.42,6.54,5.48,7.06"/><path class="f" d="M112.04,394.51l3.11.47c.42-1.49.38-2.67.41-3.87,1.06.97,1.92,1.46,1.53,3.62-.24,1.32-.85,1.8-2.89,1.65-.89-.07-2.05-.38-2.16-1.87"/><path class="f" d="M173.77,456.79c.8,2.54-5.89,1.89-7.43,1.56,2.44-.68,4.88-1.47,7.43-1.56"/><path class="f" d="M115.97,368.35c-2.25-1.33-4.62-3.25-5.34-5.8,2.4,1.2,4.64,3.17,5.34,5.8"/><path class="f" d="M43.08,302.27c-1.89-.25-3.84-.46-5.52-1.42.25-.05.54-.4.8-.36,1.73.28,4.23-.23,4.72,1.77"/><path class="f" d="M293.41,455.1c.46,1.52-1.19,1.67-2.18,1.65-1.28-.02-3.45.19-3.03-1.59,1.74-.2,3.47-.14,5.21-.06"/><path class="f" d="M125.12,403.25c.12,1.72.08,3.44.02,5.17-1.54.46-1.66-1.18-1.66-2.17,0-1.35-.17-3.4,1.64-3"/><path class="f" d="M23.43,331.36c-1.42.18-2.16-.06-2.14-1.37.02-1.25-.04-2.11.68-3.01,1.11,1.15,1.27,2.84,1.46,4.38"/><path class="f" d="M26.09,338.57c-.83-.03-1.65-.33-2-.99-.44-.84-.36-1.67-.4-2.47,1.74-.12,2.06,2.09,2.39,3.45"/><path class="f" d="M109.7,361.54c-1.2-.86-2.41-1.87-2.54-3.43,1.63.35,2.23,1.92,2.54,3.43"/><path class="f" d="M63.06,391.77c-.62.06-1.3.29-2.1.05-.53-.16-1.04-.94-.62-1.62.6-.01,1.22-.06,1.98.18.44.14,1.32.63.75,1.38"/><path class="f" d="M22.75,320.54c-.16.84.21,2.25-.78,2.62-.41-.52-1.32-1.23-.88-2.11.31-.62,1.21-.4,1.66-.51"/><path class="f" d="M106.53,392.66c-.46.62-1.22,1.03-1.85.55-.49-.38-.68-.92-.73-1.46.93.1,1.94.16,2.58.91"/><path class="f" d="M110.58,394.31c-.23.42-.76.92-1.25.78-.72-.21-.27-1.33-.57-1.58.68.05,1.58.04,1.83.8"/><path class="g" d="M459.78,229.62l.05,3.08v1.9s-.05,3.08-.05,3.08c-.05,3.62-1.09,12.66-1.27,17.38l-.67,17.73c-.08,2.06-.85,3.73-.2,5.95.65,2.23-.58,4.19-1.28,5.86-1.33.67-2.55,1.77-3.2,3.12-3.41,2.21-6.4,5.22-9,8.34-.22.27-.51.5-.77.74-.3.28-.58.59-.89.85-.26.22-.5.52-.79.69-1.17.7-15.82,12.11-15.7,13.98h-.68c-1.01.76-2.3,1-3.39.56-4.23-1.71-1.24-13.08-3.48-16.97-.62-1.09-3.39.63-3.73,1.69-.39-.17-1.16.33-1.54.19-9.78-3.56,3.55,18.76,3.96,31.85l.05,1.43c.23,7.22,2.04,14.29,1.63,21.57-.07,1.27-.15,2.65-.05,3.91.23,2.71-2.41,16.77.08,19.28.74.75,5.1.84,5.53-.01.28-.56.1-1.39.16-2,.03-.27.03-.55.03-.82,3.63-.04-.18-18.4,1.99-20.54,2.03-2,3.46,4.16,11.8-.01,8.52-4.26,17.69-6.5,25.45-11.31h.8c.17-.03,1.41-.37,1.43.09l.39,9.56c.16,3.83,1.85,16.07,1.54,19.02-.08.74.07,1.51.05,2.26-.17,5.55-.18,11.11,0,16.66.02.47,0,.97-.05,1.44-.93,8.91-3.77,17.4-7.29,25.61-.08.2-.14.41-.19.62-2.17,1.38-3.26,3.94-4.95,5.84-.23.26-.48.52-.71.78l-.83.9c-.23.25-.57.54-.82.75-1.92.03-2.26,2.54-4.07,3.3-1.34.56-2.88.94-2.68,2.38-.23.15-.56.12-.81.23-3.51,1.54-6.42,4.19-10.11,6.05-4.73,2.38-9.54,4.39-13.38,7.51-.25.1-.58.11-.85.15-.37.06-.77.05-1.21.23-.46.2-1.25.67-.72,1.34-.21-.05-.46.02-.68.01-.58-.02-1.2,0-1.84.27-.47.19-1.28.67-.77,1.39l-.63.04c-4.66.3-17.21,11.47-23.22,6.68-2.74-2.18-2.71-7.36-2.23-10.64.74-4.99-.77-9.35-.58-14.03.24-5.81.79-11.28.66-17.22-.15-7.18,1.41-14.19,2.02-21.37l1.03-12.25c1.03-12.27-.45-24.32-1.12-36.52l-1.41-25.86-.84-11.37c-.58-7.92-1.32-11.76-2.6-19.7-1.64-10.16-.16-21.62,7.84-28.81,6.84-6.15,15.04-10.03,22.79-14.8l19.79-12.19c1.18-.73,2.95-.82,2.6-2.38.16-.08.38-.05.56-.1,2.27-.6,4.31-2.05,5.76-3.88.26-.02.58-.02.83-.1,3.06-1.01,7.2-1.77,10.05.73,1.52,1.33,1.63,4.23,2.42,5.83"/><path class="h" d="M528.48,269.63c1.73-.09,3.48.12,5.22.08,1.05.89,3.51.64,3.14,3.45-.18,1.42.4,3.49-.11,4.73.56-2.68-5.46,7.04-4.83,6.39-.99.27-1.96.84-2.45,1.77-.57-.07-1.23.03-1.65.51-.26.3-.29.75-.18,1.13-.25-.02-.53.16-.79.18-1.17.1-2.3.79-2.47,2.01-3.09,1.17-6.55,2.97-9,5.33-2.52.81-5.56,2.02-6.6,4.56-1.02.27-1.94.92-3,1.1-.57.1-1.22,0-1.76.61-.24.27-.66.56-.25,1.02-1.65.57-2.87,1.93-4.57,2.41-2.26.64-4.73,1.71-5.85,3.85-.44.27-1.19.4-1.7.47-.55.07-9.17,4.03-7.48,4.62-.5.12-1.03.23-1.54.3-1.12.17-2.32.66-2.45,1.91-2.49.14-4.11,2.56-6.44,3.05-1.01.12-2.09.44-2.53,1.44l-8.98,4.06c-.66.14-1.7.04-1.86.86-.74-.08-1.56.54-2.21.79-1.53.58-4.38.29-4.32,2.36-1.17.08-2,.63-3.06.92-3.52.95-7.05,2.14-10.05,4.16-1.5,1.01-3.77,1.46-5.46,1.68-1.34.17-2.74.32-3.59,1.51l-1.24.06c-1.37.07-2.78.47-3.67,1.57l-1.29.07-3.37-.15c.12-2.75-1-6.36,1.52-8.02.56.02,1.15-.11,1.68-.53.33-.26.54-.58.17-1.02.9.06,1.58-.43,2.28-.88.44-.28,1.37.23,1.9-.2.39-.31,1.36-.63.75-1.38,2.86-.5,5.25-2.39,7.96-3.4.49-.18,1.15-.04,1.7-.52.33-.29.69-.5.19-.99,1.03-.2,1.99-.66,2.98-.97.52-.16,1.18.03,1.72-.51.28-.28.59-.56.18-1.02.42-.02.86,0,1.27-.06,1.27-.17,2.65-.81,2.83-2.18,1.51-.1,2.72-1.16,3.94-1.94.4-.26,1.16-.07,1.66-.55.32-.31.7-.48.19-.98,1.02-.22,2.01-.59,2.98-.97,1.35-.53,2.74-1.13,3.49-2.43,1.37-.1,2.09-1.06,3.16-1.62,1.27-.67,3.65-.34,3.44-2.41,2.55-.3,4.21-2.48,6.47-3.53,1.03-.48,2.24-.64,2.4-2.09.75-.2,1.56-.69,2.28-1.01,1.94-.89,4.64-1.84,5.28-3.99,1.84-.44,2.95-1.88,4.65-2.58.49-.2,1.23.03,1.72-.51.3-.32.49-.64.13-1.09.22-.01.51-.07.71-.16,3.64-1.48,7.6-3.81,9.81-7.07,5.55-2.73,10.27-6.85,15.56-10.02,1.45-.26,3.53-.59,3.47-2.38.44.03.92-.07,1.36-.11,1.33-.11,2.7-.51,3.56-1.58l2.98-.15Z"/><path class="e" d="M513.04,254.25c.46,0,1,.85,1.57.82.29.05.5.64.82.75.05.26.15.56.26.8.91,2.07,1.35,4.37.56,6.54-.08.22.04.5-.02.73-.79.31-1.35.97-1.59,1.78-1.41.13-1.57,1.7-2.41,2.36-2,1.57-3.85,3.33-5.75,5.04-.24.22-.71.49-.83.78l-19.67,14.58-.82.03-15.31,10.1c-5.46,3.61-11.07,6.75-15.85,10.49-.63.09-1.16.42-1.61.85-.3.27-.72.42-.96.77-.63.12-1.03.71-1.53.99l-18.29,10.23c-3.03,1.69-5.85,3.42-9.36,3.51l-.16-4.89c-.01-.44,0-1,.09-1.44,1.15.07,1.98-.82,2.3-1.88l.77-.77c.37-.2.68-.5.87-.88.3-.23.5-.73.83-.9,3.49-1.71,6.55-4.44,9.07-7.39.2-.23.43-.53.68-.7,3.52-2.4,22.53-17.96,23.94-22.12.87-.57,2.07-1.07,2.37-2.36,1.75.43,2.96-.95,3.4-2.54.57-.21.94-.59,1.44-.85,2.84-1.46,5.11-3.7,7.52-5.77.23-.2.51-.59.77-.7,3.32-.89,5.59-3.71,8.19-5.87.27-.23.52-.54.81-.72,7.11-4.5,13.41-10.3,22.25-12.28,2.02-.45,3.92.87,5.65.88"/><path class="g" d="M554.81,287.78l.12,2.58c-.4,5.42-13.79,12.55-18.12,14.53-.39.18-.76.42-.9.84-.86.1-1.59.49-2.36.86-.46.22-1.13.06-1.68.52-.35.3-.71.47-.19.98-4.22-.16-8.36,3.49-12.11,5.88-.35.07-1.14-.08-.86.59l-56.64,24.87c-.74.32-1.68.61-2.45.85-4.11,1.23-7.97,3.44-12.41,4.55l-4.6,1.16c-.62.16-1.65-.13-1.87.74-.66.07-1.53-.01-2.19.16-1.73.45-3.8.29-5.19,1.48l-3.83.17c-1.99.09-3.99-.14-5.99-.07-.59-.23-1.13-.58-1.59-1.01-.1-.74-.29-1.52-.1-2.23l.22-.85c.38-.1,1.17-.04.84-.71,1.63,0,3.21-.45,4.75-.94,1.18-.37,2.93-.17,3.45-1.5,1.97.2,4.03-.68,5.71-1.79.3-.2.74-.26.84-.69l1.53-.08c.36-.02,1.24-.08.94-.65l1.56-.15c.41-.04,1.25-.21.9-.79,3.67-.47,6.84-2.65,10.47-3.38.54-.11,7.78-2.19,6.03-3.14,1.1-.19,2.11-.27,3.07-.93.53-.36,1.53-.08,1.83-.87.58.1,1.16-.4,1.5-.79.4-.07,1.18,0,.86-.7,1.11-.1,2.24-.3,3.21-.87.33-.19.58-.5.79-.8.25-.09.56.03.82-.04.38-.1.71-.37.85-.74.27-.05.56.03.82-.04.39-.1.71-.42.8-.81.27-.04.56.02.82-.04.39-.09.72-.38.83-.76l.82-.05c.4-.02,1.25-.22.91-.82,1.92-.09,3.5-1.22,4.84-2.55.41-.14.77-.4,1-.77.51-.24,1.07-.37,1.47-.8,1.97-.53,3.87-1.67,5.08-3.32,2.09-.45,3.85-2.18,5.58-3.31.41-.09,1.25-.11.9-.73,1.75-.54,3.51-1.23,4.81-2.56.42-.13.8-.38,1-.78,2.48-1.03,5.06-2.54,7.23-4.05,1.08.03,2.15-.49,2.45-1.58.25.03.58.03.82-.04.39-.12,1.23-.3.91-.86.48-.19,1.27-.25,1.56-.78.72-.01,1.49-.23,1.8-.94.51.1,1.1-.5,1.47-.74,1.39-.18,2.77-.96,3.27-2.4.25-.1.56.04.82-.04.38-.11.69-.39.84-.75l.82-.04c.4-.02,1.24-.25.9-.85l18.82-7.28c3.75-1.45,8.64-1.94,11.41.67"/><path class="f" d="M463.83,341.16c-7.76,4.81-16.93,7.05-25.45,11.31-8.34,4.17-9.77-1.98-11.8.01-2.17,2.14,1.64,20.49-1.99,20.54-.12-6.79-.55-13.7.79-20.74.59-3.07,6.21,1.97,9.82.42l22.44-9.63c.81-.35,1.57-.43,1.92-1.08.26-.48.17-1.15.06-1.73.77-.23,1.72-.52,2.45-.85-.16.6-.03,1.31.52,1.52.43.17.86.21,1.23.22"/><path class="f" d="M413.2,297.8c-.16,1.28-1.77,1.52-2.67,3.2,1.96,4.17,9.71,26.85,6.63,28.65-.41-13.09-13.74-35.41-3.96-31.85"/><path class="f" d="M445.65,430.6c-1.81,3.95-19.27,11.98-23.49,13.56,3.83-3.12,8.64-5.13,13.37-7.51,3.69-1.86,6.6-4.52,10.11-6.05"/><path class="f" d="M467.99,369.83c.31-2.95-1.38-15.19-1.54-19.02l-.39-9.56c-.02-.46-1.25-.11-1.43-.09.39-1.02,1.19-.79,1.73-.58,1.22.46,1.91,1.45,1.71,2.88-.74,5.32,1.51,17.87.67,25.44-.03.61-.3,1.27-.76.93"/><path class="f" d="M425.34,312.31c0,1.43-2.55,2.41-4.21,1.55-5.64-2.92-1.82-12.97-3.07-17.14-1.58-.01-2.21,1.37-3.32.89.34-1.06,3.11-2.78,3.73-1.69,2.24,3.89-.74,15.26,3.48,16.97,1.1.44,2.39.2,3.39-.57"/><path class="f" d="M460.71,415.8c3.52-8.22,6.37-16.7,7.29-25.61,3.24,1.28-3.84,24.4-7.29,25.61"/><path class="f" d="M421.84,345.2c-.18.71,0,1.49.1,2.23-2.21.17-1.45,6.32-3.11,5.22.41-7.29-1.4-14.35-1.63-21.57,3.98-.74.35,16.5,4.63,14.12"/><path class="f" d="M468.04,388.75c-.18-5.55-.18-11.11,0-16.66.49-.46,1.53.15,1.53.94v14.79c0,.79-1.03,1.41-1.52.94"/><path class="f" d="M432.76,307.7c1.05.66,2.22.06,3.25-.41-2.52,2.95-5.58,5.67-9.07,7.39l.19-2.28c1.49-1.94,3.16-4.15,5.63-4.7"/><path class="f" d="M501.53,283.88c-2.21,3.26-6.17,5.59-9.81,7.07-.96-1.18,8.88-6.61,9.81-7.07"/><path class="f" d="M449.89,311.68c-.12.66-.64,1.12-1.41,1.56l-15.77,9c-3.72,2.12-6.68,4.59-12.06,4.69.2-1.81-.09-4.77,1.43-6.4l.16,4.89c3.51-.09,6.34-1.82,9.36-3.51l18.29-10.23Z"/><path class="f" d="M454,309.07c4.78-3.74,10.38-6.88,15.85-10.49l15.31-10.1c-4.45,5.18-10.8,8.36-16.75,12.14l-8.43,5.36c-2.03,1.29-3.76,2.77-5.97,3.09"/><path class="f" d="M450.78,329.56c1.66,1.44-7.33,3.7-9.14,4.87-.49.08-1.16-.28-.92-.7,3-2.02,6.53-3.21,10.05-4.16"/><path class="f" d="M491.65,309.25c-1.7,2.35-4.68,3.94-7.48,4.62-1.69-.6,6.93-4.55,7.48-4.62"/><path class="f" d="M515.38,295.22c-1.9,1.82-3.82,3.82-6.6,4.56,1.04-2.54,4.08-3.75,6.6-4.56"/><path class="f" d="M516.24,263.17c.79-2.17.35-4.47-.56-6.54,2.6-.27,1.93,6.45,1.85,6.54-.21.24-.99-.02-1.29,0"/><path class="f" d="M499.2,304.92c-.85,2.21-3.88,2.68-5.85,3.85,1.11-2.15,3.59-3.22,5.85-3.85"/><path class="f" d="M459.09,330.54c1.75.95-5.49,3.03-6.03,3.14.33-2.61,3.79-2.75,6.03-3.14"/><path class="f" d="M533.7,269.71c-1.74.04-3.49-.17-5.22-.08-.53-1.7,1.37-1.38,2.14-1.65,2.25-.79,2.2.99,3.08,1.73"/><path class="f" d="M485.97,288.45l19.67-14.58c-.98,3.33-9.23,7.08-13.52,10.98-1.91,1.74-4.29,2.23-6.15,3.6"/><path class="f" d="M458.16,326.28c.13,2.06-2.65,2.25-4.32,2.36-.06-2.07,2.79-1.78,4.32-2.36"/><path class="f" d="M520.57,271.48c.06,1.79-2.02,2.12-3.47,2.38.04-1.84,1.83-2.49,3.47-2.38"/><path class="f" d="M461.48,309.94c-.75,1.29-2.14,1.9-3.49,2.43-.14-1.79,1.95-2.32,3.49-2.43"/><path class="f" d="M425.47,338.61c.49,1.54-.93,1.7-2.22,1.69-1.42,0-1.21-.59-1.15-1.84l3.37.15Z"/><path class="f" d="M536.74,277.9c-.97,2.39-2.29,5.7-4.83,6.39-.62.64,5.4-9.07,4.83-6.39"/><path class="f" d="M468.08,305.9c.21,2.07-2.17,1.75-3.44,2.41-.09-.88.33-1.61,1.03-1.93.82-.39,1.63-.39,2.42-.48"/><path class="f" d="M484.51,295.27c-.64,2.15-3.34,3.1-5.28,3.99.78-1.97,3.21-3.5,5.28-3.99"/><path class="f" d="M525.49,269.79c-.86,1.07-2.23,1.46-3.56,1.58-.15-1.07.64-1.67,1.73-2.17.64-.29,1.23.09,1.83.59"/><path class="f" d="M430.43,336.97c.03,1.03-.73,1.68-1.84,2.15-.55.23-1.32.12-1.83-.58.89-1.1,2.29-1.5,3.67-1.57"/><path class="f" d="M435.27,335.4c.12,1.05-.7,1.65-1.76,2.07-.59.23-1.33.11-1.83-.57.86-1.19,2.26-1.33,3.59-1.51"/><path class="f" d="M449.22,316.79c-.18,1.37-1.56,2.01-2.83,2.18.07-1.57,1.46-2.09,2.83-2.18"/><path class="f" d="M455.57,422.26c1.69-1.9,2.78-4.46,4.95-5.84-.62,2.57-2.69,4.56-4.95,5.84"/><path class="f" d="M476.95,300.28c-.15,1.45-1.37,1.61-2.4,2.09.09-1.39,1.25-1.77,2.4-2.09"/><path class="f" d="M473.75,319.13c-.24.45-.4,1.13-1.03,1.51-.38.24-1.01.1-1.5-.07.43-1,1.51-1.32,2.53-1.44"/><path class="f" d="M526.84,287.88c.22,1.75-1.36,1.59-2.47,2.01.17-1.23,1.3-1.92,2.47-2.01"/><path class="f" d="M482.63,314.18c-.08,1.43-1.21,1.84-2.45,1.91.13-1.25,1.33-1.74,2.45-1.91"/><path class="f" d="M554.93,290.36l-.12-2.58c.44.07,1.51-.2,1.65.4.15.67.22,1.63-.41,1.91-.28.12-.71.19-1.12.27"/><path class="f" d="M431.11,341.21c-.52,1.33-2.28,1.12-3.45,1.5-.53-1.11.59-1.79,1.34-1.71l2.11.21Z"/><path class="f" d="M517.94,298.47c-.29-1.85,1.89-1.88,3.27-2.4-.5,1.43-1.88,2.22-3.27,2.4"/><path class="f" d="M430.4,326.44c.61.75-.35,1.06-.75,1.38-.53.42-1.46-.09-1.9.2.15-1.56,1.53-1.38,2.65-1.57"/><path class="f" d="M489.4,314.84c-1.21,1.66-3.11,2.8-5.08,3.32.36-2.41,3.11-2.9,5.08-3.32"/><path class="f" d="M418.69,445.9c-.14,1.31-1.42,1.58-2.61,1.65-.51-.72.3-1.19.77-1.39.64-.26,1.25-.28,1.84-.27"/><path class="f" d="M511.38,301.83c-.3,1.09-1.37,1.61-2.45,1.58.15-.45.01-1.37.56-1.6.66-.28,1.32-.05,1.89.01"/><path class="f" d="M455.01,313.33c.51.5.13.67-.19.98-.5.48-1.26.29-1.66.55-.23-.63-.08-1.34.52-1.53.48-.15.96.08,1.33,0"/><path class="f" d="M533.56,306.59c.25.64.08,1.57-.53,1.55l-1.34-.05c-.52-.51-.16-.68.19-.98.54-.46,1.21-.3,1.68-.52"/><path class="f" d="M445.13,319.04c.41.46.1.73-.18,1.02-.54.54-1.21.35-1.72.51-.46-.6.1-1.3.63-1.52.44-.18.89,0,1.27,0"/><path class="f" d="M505.78,300.88c.49.65-.25,1.22-.69,1.44-.45.23-.96.06-1.31.18-.41-.46,0-.75.25-1.02.54-.61,1.19-.51,1.76-.6"/><path class="f" d="M516.47,299.21c-.31.71-1.08.93-1.8.94.23-.42-.15-1.31.5-1.67.47-.26.95.53,1.3.73"/><path class="f" d="M421.31,444.31c.29.41.17.86-.11,1.2-.47.58-1.22.51-1.82.37-.53-.67.26-1.14.72-1.34.44-.18.84-.18,1.21-.23"/><path class="f" d="M440.25,321.53c.5.49.14.7-.19.99-.55.47-1.21.33-1.7.52-.35-.64.01-1.3.58-1.5.47-.17.94.07,1.31,0"/><path class="f" d="M453.2,424.69c-1,2.8-4.31,4.1-6.74,5.67-.21-1.44,1.34-1.81,2.68-2.38,1.81-.76,2.14-3.27,4.07-3.3"/><path class="f" d="M529.46,286.05c-.16.3.03.84-.2,1.2-.35.54-1.05.5-1.62.45-.12-.39-.09-.83.18-1.13.42-.48,1.08-.58,1.65-.51"/><path class="f" d="M462.24,324.63c-.13.41,0,1.24-.56,1.57-.55.31-.92-.66-1.31-.71.17-.82,1.21-.72,1.86-.86"/><path class="f" d="M425.46,328.89c.38.44.16.76-.17,1.02-.53.43-1.12.55-1.67.53.08-.48.02-1.33.58-1.48.48-.14.91-.09,1.26-.07"/><path class="f" d="M463.99,328.74c-.3.79-1.3.51-1.83.87-.19-.33-.15-.72,0-1.23.1-.33.57-.49.95-.32.28.12.52.62.87.68"/><path class="f" d="M491.02,291.1c.35.45.16.77-.13,1.09-.49.54-1.23.31-1.72.51-.31-.62.05-1.28.59-1.49.45-.17.88-.08,1.26-.1"/><path class="f" d="M506.48,273.08c1.89-1.71,3.74-3.47,5.75-5.04-1.49,2.06-3.18,4.49-5.75,5.04"/><path class="f" d="M422.16,319.09c.21-1.11,1.39-1.47,2.3-1.88-.33,1.05-1.15,1.94-2.3,1.88"/><path class="f" d="M422.06,344.35c.12-.46.38-.72.84-.71.33.67-.46.62-.84.71"/><path class="f" d="M436.82,339.42c-.13-.53.43-.66.84-.69-.1.43-.54.49-.84.69"/><path class="f" d="M439.19,338.65c-.28-.56.57-.61.94-.65.3.56-.57.63-.94.65"/><path class="f" d="M441.69,337.85c-.25-.5.53-.75.9-.79.34.59-.49.76-.9.79"/><path class="f" d="M465.5,327.95c.25-.27.56-.49.86-.7.32.69-.45.63-.86.7"/><path class="f" d="M469.56,326.38c-.25-.5.42-.67.79-.8-.22.31-.47.61-.79.8"/><path class="f" d="M471.18,325.53c.19-.34.49-.59.85-.74-.14.37-.46.64-.85.74"/><path class="f" d="M472.84,324.75c.16-.36.45-.63.8-.81-.1.39-.41.7-.8.81"/><path class="f" d="M474.46,323.91c.2-.31.46-.74.83-.76-.11.38-.44.67-.83.76"/><path class="f" d="M476.12,323.1c.21-.26.52-.8.91-.82.34.6-.51.8-.91.82"/><path class="f" d="M481.86,319.74c.27-.27.65-.61,1-.77-.22.38-.59.63-1,.77"/><path class="f" d="M425.23,316.45c.29-.29.55-.63.87-.88-.19.38-.5.68-.87.88"/><path class="f" d="M518.71,314.55c-.28-.66.52-.52.86-.59-.29.19-.53.44-.86.59"/><path class="f" d="M435.92,304.8c-1.45.44-2.67,1.45-3.17,2.9-2.46.54-4.14,2.76-5.63,4.7l-1.11-.07c-.12-1.88,14.53-13.29,15.7-13.98-1.58,3.93-4.98,3.56-5.8,6.46"/><path class="f" d="M494.98,311.54c.3-.2.55-.62.9-.73.35.62-.49.65-.9.73"/><path class="f" d="M451.43,310.69c.23-.36.66-.5.96-.77-.33.18-.57.7-.96.77"/><path class="f" d="M500.7,308.25c.27-.27.64-.63,1-.78-.2.4-.58.65-1,.78"/><path class="f" d="M535.91,305.73c.14-.42.51-.66.9-.84-.07.4-.48.79-.9.84"/><path class="f" d="M512.2,301.79c.28-.26.53-.71.91-.86.32.56-.52.74-.91.86"/><path class="f" d="M522.02,296.03c.2-.32.47-.73.84-.75-.15.36-.46.64-.84.75"/><path class="f" d="M523.69,295.24c.24-.31.51-.7.9-.85.34.59-.5.83-.9.85"/><path class="f" d="M454.03,423.94l.83-.9-.83.9Z"/><path class="f" d="M515.42,255.83c-.31-.11-.53-.7-.82-.75l.88-.11c.01.28-.12.59-.07.86"/><path class="f" d="M514.64,265.68c.24-.81.8-1.47,1.59-1.78-.18.7-.76,1.7-1.59,1.78"/><path class="e" d="M355.49,144.24c4.29,5.19,5.57,12.39,5.69,19.03-5.56,1.98-11.73,1.07-17.91,1.67l-18.76,1.83c-4.93.48-9.81,1.02-14.71,1.77l-9.16,1.41c-16.06,2.47-25.97-2.52-36.99-.37-11.14,2.17-22.17,2.37-33.49.87-7.24-.95-14.03-.56-21.33.15l-10.56,1.02-12.36,1.67-49.99,8.08-12.7,2.07c-9.67,1.58-19.06,2.86-28.45,3.44.49-4.29,9.22-13.55,6.51-16.68-3.33-3.85-12.63,15.17-13.76,17.62-2.5-.44-5.36,1.7-8.12.58-2.09-.85-1.34-4.41-1.96-6.21-1.19-3.44-2.26-6.85-1.96-10.3l30.66-7.45c9.83-2.39,18.82-5.93,28.93-7.03,6.55-.71,12.96-1.97,19.58-2.35l12.37-.71,15.52-.85c6-.33,11.44-.7,17.36-1.54l10.12-1.43c3.48-.49,6.96-1.28,10.45-1.75l12.34-1.65c10.25-1.37,20.44-.02,30.78-.47,6.63,2.58,13.03,1.5,19.8,1.04l33.08-2.26,32.5-.51c2.38-.04,4.47-.97,6.53-.69"/><path class="h" d="M309.54,99.24c.45-.01.8.8,1.39.71.55-.08,1.01-.58,1.39-.81l6.25-.07c1.75-.02,3.46-.04,5.21,0l8.72.22c-.54,1.15.79,1.53,1.43,1.56.84.04,1.49-.16,2.14-.14l2.15.06c1.34,1.38,3.38,1.46,5.22,1.58l2.99.21c-.5.73.27,1.28.71,1.42.79.26,1.42-.02,2.03.03l2.18.17c-.48.64.16,1.22.67,1.39.45.15.88.03,1.25.07l2.17.19c-.52.67.23,1.13.7,1.35.42.19.9.05,1.24.17,3.15,1.17,5.83,3.3,8.76,4.93-.32.65.15,1.15.62,1.41.38.21.96.05,1.23.24,4.7,3.33,9,7.69,11.4,12.94.22.48-.11,1.29.58,1.78.3.21.6.64,1.04.17.41,1.64,1.77,2.92,1.74,4.64,0,.56-.1,1.2.37,1.77.27.33.62.57,1.06.17l.21,2.99c.13,1.85.26,3.8,1.51,5.24l.15,4.59c.12,3.64.12,7.31,0,10.95l-.14,3.77c-1.1.66-1.26,2.96-.06,3.59-.12.64-.1,1.52-.03,2.18-1.88-1.41-1.99,4.66-1.07,5.9.19.26.6.58,1.07.16l.22,4.63c.03.6-.25,1.23.01,2.04.14.44.72,1.18,1.44.7.33,2.01-.13,4-1.56,5.49l-.91-.07-6.49.49c-5.11-5.31-7.75,3.56-16.33-.35l-.18-1.43c.07-.92.06-1.84.04-2.76,0-.22-.03-.48.03-.7.33-.19.73-.48.82-.88.58-2.56,2.02-4.55,1.85-7.14.53.55,1.48-.2,1.48-.99v-13.94c0-.79-.97-1.52-1.49-.98l-.03-1.36c.78.24.81-.77.62-1.31-.15-.42-.24-.86-.77-.61l-.07-2.15c-.02-.56.14-1.21-.33-1.79-.27-.34-.64-.57-1.07-.16.09-3.49-2.21-6.37-3.42-9.58-.19-.5.08-1.25-.58-1.72-.32-.23-.61-.64-1.04-.18-.79-5.91-22.96-17.51-41.39-16.84-14.41.53-27.29,4.67-38.08,14.79-1.4,1.32-3.8,2.14-3.47,4.41-2.13.21-4.04-.19-6.52-.25l-18.82-.49c2.4-9.6,8.67-18.21,16.36-24.4.58.07,1.24-.02,1.71-.56.23-.26.32-.68.13-1.09.59-.06,1-.6,1.5-.82.46-.21,1.22.08,1.5-.5.17-.35.23-.74.21-1.09.64-.51,1.41-.86,2.25-.88.59-.02,1.25.06,1.77-.53.27-.3.53-.69.13-1.09.98-.5,2.03-.76,3.11-.93.38-.06,1.14-.26.91-.79,2.33-1.24,4.59-2.86,7.22-3.29.54-.09,1.21.15,1.77-.39.3-.29.57-.62.16-1.06l2.17-.18c1.62-.13,3.43-.16,4.39-1.62l1.34-.05c1.06-.04,2.6-.18,2.68-1.47l3.89-.17c1.7-.08,4.06.78,4.39-1.43l2.16-.05Z"/><path class="i" d="M350.59,138.5c-22.28-.26-45.9,4.09-67.98,3.38,1.49-3.47,4.74-6.08,8.29-8.27,12.83-7.96,28.37-8.92,42.65-4.14,6.41,2.15,12.74,4.27,17.04,9.04"/><path class="f" d="M68.94,191.61c-3.79,1.78-14.99,1.96-18.26-2-2.6-3.14,4.42-19.01,14.79-16.5,5.37,1.3,10.88,15.02,3.48,18.5"/><path class="f" d="M94.77,186.87c-.25.02-.61.11-.85.02-.99-.36-1.71-.94-3.24-1.41-.25,1.94-2.43,2.16-3.14,3.1.05-.23-.11-.56-.02-.77,1.13-2.45,10.43-21.47,13.77-17.62,2.71,3.13-6.03,12.39-6.51,16.68"/><path class="e" d="M472.81,141.83c.28,3.98-.66,7.82-1.11,12.04-.1.94,1.86,1.38,2.31.85,2.6-3.08,2.17-7.61,3.03-12.99,16.22-2.33,25.31-2.34,41.63.91,2.91.58,5.17,2.2,5.67,4.75.61,3.05-1.09,5.24-4.03,6.57-5.66,2.57-11.57,3.76-17.68,4.84l-8.26,1.46c-4.03.71-7.63.97-11.7,1.45l-12.33,1.45-80.92-.03.31-14.76c.05-2.37-.3-4.59-.48-6.59,7.48-.82,14.95-2.25,22.91-1.47,3.94.39,23.55-3.45,38.45-1.45l22.2,2.97Z"/><path class="e" d="M354.77,195.82l-.11-.9c-.02-1.67.15-2.72.22-3.77.57.12,1.17-.08,1.51-.6.2-.31.25-.71.16-1.09.38-.04.6-.02.7-.02l2.45-.07.75-.04c2.88,2.42,6.78,2.12,9.88.76,6.92-3.02,7.49,3.45,15.68.19,1.12-.44,1.81-.76,2.34-.94,1.44-.48,1.8-1.21,2.54-1.7,1.47-.99,2.51-2.24,3.65-2.27,1.67-.04,7.2,2.59,6.83,6.65-.18,1.99-2.11,3-3.81,3.94-12.22,6.77-31.96,7.18-42.78-.16"/><path class="f" d="M378.53,188.04c-7.15,1.82,7.11,2.38,7.47,2.25-8.19,3.26-8.75-3.21-15.68-.19-3.1,1.35-6.99,1.65-9.88-.76.83-.23,1.56-.78,1.75-1.65,8.58,3.91,11.22-4.95,16.33.35"/><path class="f" d="M364.76,174.78c-.34-5.29.09-10.62,0-15.91.52-.54,1.49.19,1.49.98v13.94c0,.79-.96,1.54-1.49.99"/><path class="f" d="M386.04,159.17c.13-3.63.12-7.31,0-10.95,2.26-3.08,2.27,14.04,0,10.95"/><path class="f" d="M385.81,168.72c.21,2.02-.09,4.04,0,6.05-.47.42-.88.1-1.07-.16-.92-1.23-.81-7.31,1.07-5.9"/><path class="f" d="M323.77,99.07c-1.75-.04-3.46-.02-5.21,0-.41-1.79,1.68-1.63,3.01-1.62.95.01,2.69.1,2.2,1.62"/><path class="f" d="M343.44,102.36c-1.84-.13-3.88-.2-5.22-1.58,1.59-.91,4.98-.49,5.22,1.58"/><path class="f" d="M385.9,143.63c-1.25-1.44-1.37-3.39-1.51-5.24,2.07.24,2.55,3.69,1.51,5.24"/><path class="f" d="M295.08,102.41c-.95,1.46-2.76,1.49-4.39,1.62-.31-1.2.9-1.51,1.96-1.88.71-.25,1.72-.53,2.42.26"/><path class="f" d="M307.37,99.29c-.33,2.21-2.69,1.36-4.39,1.43-.49-1.23.82-1.58,1.49-1.59.97-.02,2.09.06,2.9.16"/><path class="f" d="M336.07,100.71c-.65-.02-1.3.18-2.15.14-.64-.03-1.97-.41-1.43-1.56.69.02,1.92-.31,2.81-.04.46.14,1.27.63.77,1.46"/><path class="f" d="M385.84,166.53c-1.19-.63-1.03-2.92.06-3.59-.02.65,1.26,1.2.9,2.16-.19.52-.75.97-.97,1.43"/><path class="f" d="M387.49,182.13c-.73.48-1.3-.26-1.44-.7-.26-.81.02-1.44-.01-2.04.73-.48,1.27.26,1.45.7.32.78-.09,1.46,0,2.04"/><path class="f" d="M312.32,99.14c-.39.23-.84.73-1.39.81-.59.09-.94-.72-1.39-.71-.19-.77.84-.86,1.37-.86.49,0,1.49.02,1.41.77"/><path class="f" d="M362.06,183.5c.03.92.03,1.84-.04,2.76-.96-.03-1.54-.51-1.58-1.39-.04-.98.65-1.91,1.61-1.37"/><path class="f" d="M349.18,104.02c-.61-.05-1.24.23-2.03-.03-.44-.14-1.21-.69-.71-1.42.6.04,1.31-.25,2.01-.02.48.16,1.21.75.73,1.47"/><path class="f" d="M299.1,100.89c-.07,1.28-1.62,1.43-2.68,1.47-.49-.71.24-1.28.71-1.43.75-.24,1.38,0,1.97-.03"/><path class="f" d="M288.52,104.21c.41.44.14.77-.16,1.06-.55.54-1.23.3-1.77.39-.46-.64.15-1.25.67-1.41.46-.14.89,0,1.26-.04"/><path class="f" d="M353.28,105.65c-.37-.03-.79.08-1.25-.07-.51-.17-1.15-.75-.67-1.39.57.05,1.23-.15,1.77.38.3.29.52.66.16,1.09"/><path class="f" d="M357.39,107.37c-.34-.13-.82.02-1.24-.17-.47-.21-1.22-.68-.7-1.35.59.05,1.26-.2,1.79.41.28.33.57.7.15,1.11"/><path class="f" d="M275.35,110.66c.41.41.14.79-.13,1.09-.52.59-1.18.51-1.77.53-.52-.63.27-1.12.7-1.41.36-.25.88-.04,1.2-.21"/><path class="f" d="M364.73,157.51c-.34-.28-.72-.67-.68-1.14.03-.32.54-.55.53-.78.53-.25.62.19.77.61.19.55.16,1.56-.62,1.31"/><path class="f" d="M367.99,113.94c-.27-.19-.85-.03-1.23-.24-.48-.26-.94-.76-.62-1.41.43.24,1.31-.1,1.73.56.19.3.34.67.12,1.09"/><path class="f" d="M271.19,113.17c.02.35-.04.74-.21,1.09-.28.59-1.04.3-1.5.5-.07-.56.06-1.18.55-1.47.34-.2.94.05,1.16-.12"/><path class="f" d="M364.51,153.44c-.65.49-1.25-.16-1.38-.68-.12-.48-.03-.9-.02-1.27.44-.41.8-.18,1.07.16.47.58.31,1.23.33,1.79"/><path class="f" d="M267.99,115.58c.19.4.1.82-.13,1.09-.47.54-1.13.63-1.71.56.07-.52.17-1.21.65-1.42.42-.19.84-.19,1.19-.23"/><path class="f" d="M359.69,141.91c-.62.53-1.39-.16-1.45-.64l-.17-1.26c.44-.45.72-.05,1.04.18.66.47.39,1.22.58,1.72"/><path class="f" d="M381.01,128.84c-.44.47-.74.04-1.04-.17-.69-.49-.36-1.3-.58-1.78.63-.52,1.18.27,1.43.71.23.41.1.88.19,1.24"/><path class="f" d="M384.18,135.41c-.43.4-.79.16-1.06-.17-.47-.57-.38-1.21-.37-1.77.64-.47,1.24.15,1.4.67.14.47,0,.9.03,1.27"/><path class="f" d="M359.7,189.39l-2.45.07c.63-.89,1.23-1.02,1.76-.81.31.13.51.48.69.74"/><path class="f" d="M354.89,191.16c.06-.93.72-1.58,1.66-1.68.09.37.05.77-.16,1.09-.33.51-.94.71-1.51.6"/><path class="f" d="M390.88,187.65c-.74.5-1.11,1.23-2.54,1.7.38-1.09,1.43-1.64,2.54-1.7"/><path class="f" d="M354.77,195.82c-.75-.07-.68-.56-.11-.9l.11.9Z"/><path class="f" d="M385.03,187.55l.91.07c-.15.89-.66.7-.91-.07"/><path class="f" d="M362.09,182.8c.12-.39.25-1.21.82-.88-.09.4-.48.7-.82.88"/><path class="f" d="M278.46,109.73c.23-.34.55-.6.91-.79.23.52-.53.73-.91.79"/><path class="h" d="M271.2,175.41l.02,5.02-.14,14.53c.01-1.12-2.11,23.6,0,24.08l.14,14.48v18.29c0,.71-.34,1.71-.11,2.37-1.22.74-2.52,1.64-2.61,3.16l-.58.05c-2.1.17-4.24,1-5.79,2.49-.72-.17-1.63.21-2.38.2-1.77-.05-3.63.3-5.02,1.44l-3.29.12c-1.76.06-4.58.8-6.2-.51-1.44-1.17-1.79-4.23-1.8-6.1l-.09-10.83-.08-25.2c0-1.12.22-2.4,0-3.49-.69-3.52,1.06-7.78.05-11.22.51.21.64-.41.65-1.02l.19-17.11c.04-3.47,1.03-6.63.71-9.75,10.27.11,19.34-3.67,26.31-.99"/><path class="f" d="M244.88,176.4c.32,3.13-.67,6.28-.71,9.75l-.19,17.11c0,.61-.14,1.23-.65,1.02-2.45-8.37.65-18.33-.75-27.91l2.3.02Z"/><path class="f" d="M276.97,176.18c-1.07.08-2.38-.17-3.35.45-1.35.86-.58,4.16-2.39,3.8l-.02-5.02c1.61.07,4.56-1.23,5.77.76"/><path class="f" d="M540.21,152.89c-.62,4.2-3.48,6.15-6.92,5.16-6.53-1.87-2.32-11.18-2.42-11.08.98-1.01,2.66-1.15,4.18-1.01,3.77.33,5.75,2.87,5.16,6.93"/><path class="f" d="M460.74,245.82c-.82,6.83-1.24,16.78-1.58,23.97-.22,4.6-.98,9.22-.57,13.78-.74.18-1.54.69-2.22,1.03.7-1.67,1.93-3.62,1.28-5.86-.65-2.22.12-3.88.2-5.95l.67-17.73c.18-4.72,1.22-13.76,1.27-17.38.97,2.29,1.27,5.55.96,8.14"/><path class="f" d="M459.78,229.62c-.79-1.61-.89-4.5-2.42-5.83-2.85-2.5-6.99-1.74-10.05-.73-2.22-1.26,8.28-4.76,12.03,2.03.85,1.54,2.07,3.19.44,4.53"/><path class="f" d="M446.49,223.16c-1.44,1.83-3.49,3.29-5.75,3.88.15-.62.39-1.21.74-1.74,1.76-.57,3.13-2.04,5.01-2.15"/><path class="f" d="M459.83,234.6v-1.9c.35.22,1.37.07,1.53.63.13.46-.01.85-.41,1.02-.31.14-.7.19-1.12.25"/><path class="e" d="M238.41,226.34l.08,1.54c.31,7.78,4.5,30.57.66,36.05-8.71,2.07-17.14,3.75-25.46,4.22l-1.51.08-32.15,4c-6.25.78-12.22,1.02-17.99,2.47-.73.18-1.17.02-1.44.05l-12.5,1.58c-1.43.18-2.26.04-3.06-.01-.4-2.04,1.69-2.82,3.07-4.16,5.58-5.41,10.79-10.8,15.7-16.39,1.78-1.46,2.73-2.71,3.95-4.07,2.74-3.04,5.51-5.34,7.58-8.23.31-.44.53-.65.67-.79.4-.16.7-.47.87-.86l.77-.78c.37-.2.66-.51.85-.89.41-.39.6-.63.76-.77,2.35-1.97,3.57-4.37,5.8-5.8.47-.3.63-.63.77-.77.38-.19.68-.5.85-.88.44-.35.6-.71.79-.77,2.94-.86,4.3-3.54,6.85-4.63,6.09-2.59,12.62-3.14,18.92-4.93l7.61-2.17c5.48-1.56,10.92-2.36,16.34-4.05,1.52,4.05,1.06,7.5,1.23,10.94"/><path class="f" d="M273.92,214.12c.23,1.62.22,3.58-.06,5.55-.41,2.9.82,5.09,1.04,7.72l1.25,14.73c.4,4.77,1.21,9.29,1.34,14.08.27.47,1.51.27,1.98.32.18.01.53-.07.68.03,2.41,1.58,13.65.5,12.45-1.45.45-.05,1-.19,1.44-.06-3.89,1.3,18.31.14,17.23.23,8.66-.7,21.81-.01,30.48,1.63,8.07,1.53,16.29,3.48,23.77,1.4l3.09.05c-.32.41-.17.85.13,1.09.35.27.89.63,1.59.55,9.32-1.09,14.19,2.86,15.46-2.38.3-.33.61-.64.92-.94l.9-.88.78-.76.9-.02c1.11.45,2.03,1.25,2.66,2.27-2.06,4.58-5.81,8.64-6.19,14.16-.36,5.28-.85,10.89.36,15.72,1,3.96,1.03,7.72,1.76,11.82,1.14,6.4.56,12.83,1.32,19.02l-2.63.21c.19-1.69-.41-4.38-2.09-4.88l-.19-2.75c.05.7,1-12.31-1.44-11.14.12-.8-.24-1.66-.16-2.47,1.36-1.34,1.2-3.87-.15-5.21v-1.37s.2-14.18.2-14.18c.02-1.17-.57-1.95-1.04-2.47.03-3.2-2.92-6.15-5.69-7.38.61-2.6-9.53-1.98-9.01-1.6-.43-.1-1.14-.2-1.57-.11,1.59-2.29-13.7-2.06-12.47-1.52-.36-.19-1.21-.17-1.63-.17.06-.81-1.08-1.51-2.25-1.54-5.89-.13-44.05-.75-45.98.6-.32.22-.4.7-.11,1.07l-2.1.08c1.35-.75-17.74-1.01-15.84,1.53-.47-.06-1.01.2-1.46.07-5.04-1.39-20,1.49-26.48,2.77-4.06.8-8.06.3-12.18,1.71-1.75.6-10.24-1.2-10.52,1.94l-1.97.18c-3.55.33-7.31.64-11.29,1.16-2.79.36-20-.39-17.37,2.04-.9-.06-2.11.34-2.97.05-2.39-.81-16.02-1.23-15.07,1.58-.97-.19-2.12.36-3.07.1-2.4-.65-4.94-.21-7.42-.07l-.1-2.14c7.51-.84,11.08-1.58,18.99-2.23,5.46-.45,10.48-2.38,16.02-1.86,1.07.1,2.11-1.07,2.01-1.77l1.51-.08c-2.43,2.4,22.16-2.37,22.3-2.41,3.04-.81,5.68-.74,7.02-4.89,2.14,1.74,2.95,2.92,4.71,2.75,1.46-.14,3.41-.12,3.74-1.95l3.29-.12c1.85-.06,4.62.88,5.02-1.44.75.02,1.65-.36,2.38-.2,2.09.48,5.03-.37,5.79-2.49l.58-.05c.79-.06,1.63-.34,2.44-1.18.45-.47.49-1.12.17-1.98-.23-.66.12-1.66.12-2.37.48.45,1.56-.14,1.56-.93v-16.44c0-.79-1.08-1.37-1.56-.93l-.14-14.48c.45-.56.96-1.38.96-2.52l-.07-15.67c2.88-1.51,1.07,7.19,1.95,13.27"/><path class="f" d="M212.17,268.23c.1.7-.93,1.86-2.01,1.77-5.54-.51-10.55,1.42-16.02,1.87-7.91.65-11.47,1.38-18.98,2.23l-4.09.46c-3.05.34-6.58,1.65-9.04.16,5.77-1.45,11.75-1.7,17.99-2.48l32.15-4Z"/><path class="f" d="M160.28,279.57c-1.01.98-14.34,3.14-14.49,3.09.2-1.93,2.5-1.19,4.05-1.67,3.69-1.15,6.95-2.3,10.44-1.42"/><path class="f" d="M182.68,276.3c-3.18.92-6.68,1.42-10,1.54,0-1.21,1.56-1.56,2.58-1.61,2.48-.13,5.02-.58,7.42.07"/><path class="f" d="M160.59,274.76c1.72,3-14.09,2.87-12.5,1.58l12.5-1.58Z"/><path class="f" d="M170.12,277.93c-2.42.63-4.75,1.86-7.29,1.55-.67-2.61,7.02-1.54,7.29-1.55"/><path class="f" d="M145.03,276.32c-.5,1.47-1.23.2-1.15-.94,6.38-7.15,12.83-13.8,19.92-19.62-4.92,5.59-10.13,10.98-15.7,16.39-1.38,1.34-3.47,2.12-3.07,4.16"/><path class="f" d="M167.75,251.71c1.02-3.61,4.66-5.98,7.58-8.23-2.07,2.89-4.84,5.19-7.58,8.23"/><path class="f" d="M185.05,233.59c-2.23,1.43-3.45,3.83-5.8,5.8,1.26-2.48,2.96-5.23,5.8-5.8"/><path class="f" d="M185.82,232.82c.47-.46.65-.73.85-.88-.17.39-.47.69-.85.88"/><path class="f" d="M177.64,241.04c.46-.47.67-.71.85-.89-.19.38-.48.69-.85.89"/><path class="f" d="M176,242.68l.87-.86c-.16.39-.47.7-.87.86"/><path class="e" d="M397.28,248.27c-.37.13-.84.07-1.19.24-2.21,1.09-4.29,2.55-5.37,4.81l-1.42.8c-.37.2-.61.6-.91.89l-.78.76c-.37.21-.68.51-.9.88-.31.31-.63.62-.92.94-.79.46-1.8.75-3.08.75h-14.11s-3.09-.06-3.09-.06c-8.82-.15-17.46-.85-26.4-2.97-4.32-1.02-8.73-.98-13.16-1.57-9.72-1.29-32.32,1.17-31.93,1.29-.44-.13-.99,0-1.44.06l-12.45,1.45c-.15-.1-.5-.01-.68-.03-.72-2.43-1.16-4.97-1.43-7.82l-1.93-20.73c-.37-4.01.16-7.94-.72-11.74,14.48-.34,19.99-1.95,33.97,1.35,5.09,1.2,9.93,1.11,15.13,1.43,5.14.31,9.94,1.43,15.1.29,5.79-1.28,11.83-.07,17.58,1.26,13.08,3.04,27.4-5.27,44.92-2.96,2.92.38,4.96.43,7.87.04l11.71-1.58c8.21-1.11,16.47-3.07,24.67-1.7,1.7,1.3-1,4.19-2.52,5.08-6.01,3.51-11.98,6.31-17.72,10.14-3.24,2.16-6.53,3.77-9.84,5.87l-15.47,9.86c-1.42.91-3.12,1.55-3.52,2.97"/><path class="f" d="M64.44,311.4l-13.87-6.42c-1.97-.91-4.23-1.03-5.56-2.45,1.3-.75,2.78-.31,4.31.42l12.86,6.15c1.2.57,1.54,1.82,2.26,2.3"/><path class="f" d="M98.75,346.09c-1.35.39-10.79-13.67-11.34-14.83l1.31.46c4.84,1.7,7.2,9.37,10.03,14.37"/><path class="f" d="M86.47,329.67c-3.98-2.56-6.75-6.88-10.27-9.9,2.78-.13,9.72,8.05,10.27,9.9"/><path class="f" d="M75.06,318.79c-1.39-.23-2.53-1.12-3.17-2.37,1.17.67,3.09.47,3.17,2.37"/><path class="f" d="M243.36,244.2l.09,10.83c.01,1.87.36,4.92,1.8,6.1,1.62,1.32,4.44.58,6.2.51-.33,1.83-2.28,1.81-3.74,1.95-1.76.17-2.57-1.01-4.71-2.75-1.34,4.15-3.98,4.08-7.02,4.89-.14.04-24.73,4.81-22.3,2.41,8.32-.46,16.75-2.15,25.46-4.22,3.84-5.48-.34-28.27-.66-36.05,2.76-1.7,1.42,15.02,3.16,18.05,1.03-.05.99-1.4,1.71-1.73"/><path class="f" d="M243.28,219c-.8.19-.8-.94-.84-1.39-.05-.68-.12-2.11.84-2.1.21,1.09,0,2.37,0,3.49"/><path class="f" d="M271.97,200.85l.07,15.67c0,1.15-.51,1.97-.96,2.52-2.11-.49,0-25.2,0-24.08,1.51,1.43.88,3.92.89,5.89"/><path class="f" d="M513.04,254.25c-1.73-.01-3.63-1.33-5.65-.88-8.84,1.98-15.14,7.79-22.25,12.28-.41-1.61,1.37-1.7,2.45-2.49l10.02-7.34c7.97-2.48,3.82-4.13,15.21-3.12.41.07.23,1.45.21,1.55"/><path class="f" d="M484.32,266.38c-2.6,2.16-4.86,4.98-8.19,5.87v-1.78c3.37.17,5.07-3.42,8.19-4.09"/><path class="f" d="M460.63,284.46c-1.41,4.17-20.42,19.73-23.94,22.12-.33-.56-.57-1.17-.76-1.79.82-2.9,4.22-2.53,5.8-6.46.29-.17.54-.47.79-.69l.89-.85c.25-.24.54-.47.77-.74.21.71,1.15.31,1.62.2.27.48.9.71,1.19.47.5-.42.3-1.39.38-1.73,2.04-2.13,4.5-4.57,5.8-7.27.65-1.36,1.87-2.46,3.2-3.12.68-.34,1.48-.86,2.22-1.03l2.04.9Z"/><path class="f" d="M463,282.1c.34-1.47,2.14-2.07,3.4-2.54-.45,1.59-1.66,2.97-3.4,2.54"/><path class="f" d="M475.37,272.95c-2.41,2.07-4.68,4.32-7.52,5.77,1.55-2.82,4.6-4.57,7.52-5.77"/><path class="f" d="M256.21,302.58c-1.03,1.15,17.14,1.2,15.94-.09,1.02.01,2.05.21,3.07.12-1.11,2.37,6.16,1.77,7.26,1.59.58-.1,1.35.18,1.94.26.12,1.29,1.27,1.21,2.49,1.46,12.81,2.56,23.83,8.56,34.38,15.45.46.3.96.61,1.44.88,4.36,6.28,7.71,7.67,11.04,16.25.22.56,1.01.6,1.16.38.1.36.23,1.1.15,1.46-.69,2.25.73,4.62.97,7.28.26,3-1.11,6.23.73,8.38-.22.67-.06,1.5-.14,2.19-2.01.35-1.86,3.05-2.15,5.21-1.26,9.71-2.21-8.54-2.61-4.33.05-.47.08-1,.05-1.48,2.27,1.44,1.54-5.64,1.43-6.09-.11-.47-.62-1.19-1.44-.74.03-.44.06-1.01-.05-1.44,2.07-2.31.34-5.17-.66-7.89-1.75-4.73-3.06-10.19-7.44-12.55-.57-.31-1.54-1.1-1.7-1.76-.23-.95-.53-1.77-1.72-1.72-.29-.22-.56-.46-.81-.72-.04-1.41-1.23-2.22-2.55-2.44-.57-.1-1.07-.6-1.57-.77-.5-.93-1.45-1.59-2.47-1.64l-.74-.04c.16-1.89-1.89-2.45-3.49-2.41-.23,0-.47,0-.7-.02-.61-1.76-2.5-2.47-4.27-2.36-.23.01-.47-.05-.7-.06,4.07-.08-22.37-9.06-18.87-5.92-.45-.17-1.08.11-1.51-.09.96-2.97-17.96-2.45-20.84-1.79-12.52,2.86-24.35,7.47-34.13,15.7-2.5,2.1-5.43,3.68-5.95,6.75-.23.23-.4.53-.65.74-.34.28-.58.71-.94.97-5.05,3.76-6.82,10.55-9.21,16.75-2.33,6.04-1.6,16.65-.2,23.15,1.61,7.45,4.25,13.84,9,19.72,1.15,1.42,1.84,3.34,3.76,3.17.15.2.22.67.25.93.37,4.18,11.74,9.61,11.58,11.67-1.45-.41-3,.03-4.56-1.41-1.37-1.27-3.15-2.06-4.7-2.58-.3-.1-.64-.29-.95-.31,0-1.31-1.1-1.92-2.27-2.13-.6-.11-1.1-.76-1.68-.95-.87-2.51-3.33-4.51-5.7-5.63-.15-.31-.48-.65-.74-.88-1.45-4.88-5.74-7.33-7.34-14.63-.28-1.26-.4-2.44-1.61-2.53-.07-.77-.05-1.7-.28-2.43.46.27.8-.41.8-1.02l.02-18.81c0-.62-.25-1.26-.73-1,.06-.5.25-1.12.24-1.63,1.84-.12,1.43-5.06,4.34-11.64.77-1.75,2.03-3.05,1.84-4.77-.05-.63.59-1.01.79-1.49,1.22-.19,1.79-1.34,1.7-2.51.54-.29.47-1.12.82-1.49,8.55-8.92,17.7-17.28,29.39-22.59,8.09-3.68,10.13-.63,10.05-3.72.41-.01,1.07-.09,1.43.03"/><path class="f" d="M312.17,395.18l-.14,2.36c-.48.26-.9.66-1.38.95-7.75,4.71-15.19,10.12-24.52,12.12-3.21.69-5.88,2.15-9.32,1.83-.91-.08-1.84.94-1.64,1.53-.89.09-2.21-.2-3.02.1,2.81-1.24-16.79-1.25-14.29-.07l-2.43-.15-.04-1.39c.52-2.25,14.26.26,14.12-3.16.5.14,1.1-.24,1.62-.19-1.76.69,8.76.73,7.54-1.49.39-.03,1.08-.23,1.43-.08,3.4,1.48,24.42-6.4,27.07-10.53l.83-.24c1.42-.4,2.67-1.43,4.18-1.59"/><path class="f" d="M336.65,358.19c-.99,8.79-4.8,17.59-10.35,24.9-4.25,5.6-8.4,11.3-14.26,14.45l.14-2.36-.08-1.76c.29-.14.6-.48.81-.72.99.1,1.79-.62,2.68-.81,2.46-.52,6.5-5.62,4.62-5.55,5.69-8.24,10.57-17.27,11.69-27.26.4-4.21,1.34,14.04,2.61,4.33.28-2.17.13-4.86,2.15-5.21M331.21,367.58c-.51.87-.35,1.92.2,2.18.61.29,1.2-.14,1.25-.69.03-.31-.01-.82-.03-1.34-.02-.4-1.01-.86-1.43-.15"/><path class="f" d="M351.34,262.95l-48.34.14c-.3-.37-.21-.85.11-1.07,1.93-1.35,40.09-.73,45.98-.6,1.17.03,2.31.72,2.25,1.54"/><path class="f" d="M283.59,264.77c-6.7,1.68-17.54,2.29-25.99,3.73-13.09,2.23-11.48,1.62-23.19,2.69.28-3.14,8.77-1.34,10.53-1.94,4.12-1.41,8.11-.9,12.18-1.71,6.48-1.28,21.44-4.17,26.48-2.77"/><path class="f" d="M254.78,302.55c.08,3.09-1.96.04-10.05,3.72-11.69,5.31-20.83,13.67-29.39,22.59,2.17-6.39,13.91-14.75,19.95-18.84,6.02-4.07,12.48-7.26,19.48-7.47"/><path class="f" d="M321.29,321.37c-10.55-6.89-21.57-12.88-34.38-15.45-1.22-.24-2.37-.17-2.49-1.46,11.36,1.62,22.59,6.44,32.61,12.65,1.91,1.18,3.75,2.49,4.25,4.26"/><path class="f" d="M310.66,398.49c-.36,1.56-1.79,2.38-3.31,3.46-9.62,6.78-20.81,10.88-32.18,12.03-.2-.6.73-1.62,1.64-1.53,3.44.32,6.12-1.15,9.32-1.83,9.33-2,16.77-7.41,24.52-12.12"/><path class="f" d="M235.34,406.7c4.58,1.3,8.91,3.73,13.67,4.19l.76-.02c.57.59,1.61.94,2.39.69.4.59,1.08.8,1.77.83l1.46.07.04,1.39c-8.34-.53-24.37-4.48-29.35-11.14,1.55.52,3.33,1.31,4.7,2.58,1.56,1.45,3.11,1,4.56,1.41"/><path class="f" d="M232.44,271.37c-4.95,2.36-23.16,3.56-28.66,3.2-2.63-2.43,14.58-1.68,17.37-2.04,3.98-.52,7.73-.83,11.29-1.16"/><path class="f" d="M389.2,317.98c.56,4.51,1.52,8.96.46,13.85-3.26-.16-.49-6.12-3.68-5.56.05-.85-.14-1.74-.04-2.57l.63-5.51,2.63-.21Z"/><path class="f" d="M334.93,338.88c-.15.22-.94.18-1.16-.38-3.33-8.58-6.68-9.98-11.04-16.25,6.01,3.28,10.39,10.03,12.2,16.63"/><path class="f" d="M205.51,373.21c-1.88-5.97-.13-12.46-.9-19.05-.1-.85.94-1.36.99-1.77.49-.27.73.38.73,1l-.03,18.81c0,.61-.34,1.28-.8,1.02"/><path class="f" d="M214.75,392.8c-4.78-4.36-8.39-10.71-8.95-17.16,1.21.09,1.33,1.27,1.61,2.53,1.61,7.3,5.9,9.74,7.34,14.63"/><path class="f" d="M300.9,263.17c-3.21.98-12.45,1.95-15.84,1.53-1.9-2.54,17.19-2.29,15.84-1.53"/><path class="f" d="M386.02,388.62c.33-11.98,1.05-8.86,1.53-15.76.71-2.48.84,19.68-1.53,15.76"/><path class="f" d="M200.82,274.62c-.99,1.56-3.26.42-5.11.63-3.61.41-6.76,1.59-9.96.95-.95-2.81,12.68-2.39,15.07-1.58"/><path class="f" d="M212.03,334.35c.19,1.72-1.07,3.03-1.84,4.77-2.91,6.58-2.5,11.52-4.34,11.64-.11-3.04,3.59-16.5,6.19-16.42"/><path class="f" d="M382.54,290.38c-.52.52-1.5-.18-1.5-.96l.02-14.73c0-.62.13-1.26.65-.95.47.51,1.06,1.3,1.04,2.46l-.21,14.18Z"/><path class="f" d="M272.15,302.49c1.2,1.29-16.97,1.24-15.94.09-.27-.49.39-.78,1.02-.79l13.15-.1c.85,0,1.75.2,1.78.79"/><path class="f" d="M336.78,356c-1.85-2.15-.47-5.38-.73-8.38-.24-2.66-1.66-5.04-.97-7.28,2.81,4.41,3.31,10.72,1.7,15.66"/><path class="f" d="M272.15,414.07c.88,1.17-15.31,1.21-14.29-.07-2.5-1.19,17.1-1.18,14.29.07"/><path class="f" d="M365.44,264.64c-2.93.62-9.48-.73-12.47-1.52-1.24-.54,14.06-.77,12.47,1.52"/><path class="f" d="M384.29,310.56c-1.35-3.55-2.02-7.37-1.44-11.14,2.43-1.17,1.49,11.84,1.44,11.14"/><path class="f" d="M386.57,318.19l-.63,5.51c-1.25-3.31-1.23-6.92-1.46-10.39,1.68.5,2.28,3.19,2.09,4.88"/><path class="f" d="M376.01,266.35c-3.05.02-6.06-.88-9.01-1.6-.52-.38,9.62-1,9.01,1.6"/><path class="f" d="M282.48,304.2c-1.1.19-8.37.79-7.26-1.59,2.53-.2,5.19.03,7.26,1.59"/><path class="f" d="M221.19,399.32c-2.56-.82-4.55-3.25-5.7-5.63,2.37,1.12,4.83,3.13,5.7,5.63"/><path class="f" d="M382.7,296.95c-1.17-1.41-1.46-3.87-.15-5.21,1.35,1.34,1.51,3.87.15,5.21"/><path class="f" d="M225.13,402.4c-1.22-.09-2.15-.9-2.27-2.13,1.17.21,2.27.83,2.27,2.13"/><path class="f" d="M214.52,330.35c.09,1.17-.48,2.32-1.7,2.51.22-.52-.18-1.28.23-1.9.29-.43.82-.73,1.46-.62"/><path class="f" d="M56.46,361.74c-1.23,3.6-3.35-.9-8.97-2.75-.41-.13-.7-.57-1.06-.79-.55-2.66-5.6-2.97-5.81-8.1l1.06-.08c1.05-.81,14.78,11.73,14.77,11.72"/><path class="f" d="M33.27,344.98c2.65-.11,4.5,2.14,6.63,3.45-.04.62.57,1.19.73,1.68.21,5.13,5.26,5.44,5.81,8.1-6.54-3.73-12-9.24-18.16-13.64.36-.01.72-.19,1.08-.22.97,1.29,2.55.69,3.92.64"/><path class="f" d="M56.46,361.74c.34.41,1.28.67,1.42,1.32-.53.81-.87,1.88-.47,2.64,1.76,3.38,6.31,1.77,7.06,5.97,6.13,3.61,12.3,7.1,17.19,11.93-3.95-.86-19.87-12.9-24.5-16.4-3.52-2.66-7.26-4.86-9.66-8.21,5.61,1.85,7.73,6.35,8.97,2.75"/><path class="f" d="M99.79,393.44c-3.18-1.1-7.19-1.98-9.12-4.78,3.28.61,6.66,2.52,9.12,4.78"/><path class="f" d="M90.01,388.53c-2.6-.49-4.96-2.05-6.68-4.07.65-.22,1.31-.71,1.86-.43-1.45-.73,6.26,4.9,4.82,4.51"/><path class="f" d="M33.27,344.98c-1.36.05-2.94.65-3.92-.64l.73-1.65c1.32.35,2.97.79,3.19,2.29"/><path class="f" d="M95.84,387.68c-.6.07-1.28.21-1.78-.39-.28-.32-.5-.73-.13-1.13.36.02.78.02,1.22.17.49.18,1.23.68.7,1.34"/><path class="f" d="M99.11,389.33c-.58-.05-1.26.2-1.76-.43-.26-.32-.51-.69-.14-1.1.37-.02.79,0,1.21.16.49.19,1.19.74.69,1.38"/><path class="f" d="M89.28,384.39c-.57,0-1.28.22-1.78-.39-.27-.32-.49-.72-.13-1.12.5.17,1.2-.05,1.73.48.3.29.61.57.17,1.03"/><path class="f" d="M103.28,391.68c-.56.15-1.39.33-1.85-.23-.24-.29-.13-.88-.04-1.22l1.13.26c.42.1,1.27.54.75,1.2"/><path class="f" d="M41.7,350.03l-1.06.08c-.17-.49-.78-1.07-.73-1.68.7.43,1.79.47,1.8,1.6"/><path class="f" d="M35.83,317.69c0,.23-.18.41-.41.41s-.41-.18-.41-.41.18-.41.41-.41.41.18.41.41"/><path class="f" d="M389.97,350.83c-1.05.26-1.4-3.19.1-3.26,1.03-.05,1.6,2.84-.1,3.26"/><path class="f" d="M459.62,340.26c.11.57.2,1.25-.06,1.73-.35.65-1.11.73-1.92,1.08l-22.44,9.63c-3.61,1.55-9.23-3.49-9.82-.42-1.34,7.04-.91,13.95-.79,20.74,0,.27,0,.55-.03.82-9.14,8.31-2.71-15.31-5.77-17.27-.11-1.26-.02-2.65.05-3.91,1.65,1.09.9-5.05,3.11-5.22.46.44,1,.78,1.59,1.01-.03,1.76,1.58,1.78,2.98,1.73,1.25-.04,3.39.22,3.01-1.66l3.83-.17c.87.99,2.13,1.15,3.45.6.82-.34,1.85-.89,1.74-2.08.66-.17,1.52-.09,2.19-.16.29.03.52.66.78.78.43.19.87.06,1.03-.3.22-.5.34-.87.06-1.22l4.6-1.16c4.44-1.11,8.3-3.32,12.41-4.55"/><path class="f" d="M424.57,373.84c-.06.61.12,1.44-.16,2-.43.85-4.79.76-5.53.01-2.49-2.51.15-16.57-.08-19.28,3.07,1.97-3.37,25.58,5.77,17.27"/><path class="f" d="M447.37,294.99c-.83-.16-1.41.51-1.58,1.27-.47.11-1.41.51-1.62-.2,2.6-3.12,5.59-6.13,9-8.34-1.3,2.71-3.75,5.14-5.8,7.27"/><path class="f" d="M442.52,297.65c.31-.27.59-.57.89-.85l-.89.85Z"/><path class="f" d="M435.92,304.8c.19.62.43,1.23.76,1.79-.25.17-.48.47-.68.7-1.03.47-2.2,1.07-3.25.41.5-1.45,1.72-2.46,3.17-2.9"/><path class="f" d="M429.53,348.52c.38,1.88-1.76,1.62-3.01,1.66-1.39.05-3.01.02-2.98-1.73,2-.06,4,.16,5.99.08"/><path class="f" d="M438.55,346.87c.11,1.19-.92,1.75-1.74,2.08-1.32.54-2.58.39-3.45-.6,1.39-1.19,3.46-1.03,5.19-1.48"/><path class="f" d="M442.6,345.97c.28.35.16.71-.06,1.22-.16.37-.59.49-1.03.3-.27-.12-.5-.75-.78-.78.22-.87,1.25-.59,1.87-.74"/><path class="f" d="M271.23,251.82v-18.29c.48-.45,1.56.14,1.56.93v16.44c0,.79-1.07,1.39-1.56.93"/><path class="f" d="M259.76,260.09c-.4,2.32-3.17,1.37-5.02,1.44,1.38-1.14,3.25-1.48,5.02-1.44"/><path class="f" d="M267.92,257.4c-.76,2.12-3.7,2.97-5.79,2.49,1.55-1.49,3.68-2.32,5.79-2.49"/><path class="f" d="M268.5,257.35c.1-1.52,1.4-2.43,2.61-3.16.32.86.28,1.51-.17,1.98-.81.85-1.64,1.12-2.44,1.18"/><path class="f" d="M433.64,230.28c-6.77,4.73-13.81,9.26-21.39,12.54-.31-.85-.92-2.36.22-3.21,6.13-4.58,12.59-8.28,19.47-11.65,1.21-.59,2,1.72,1.7,2.33"/><path class="f" d="M365.51,258.29c-7.48,2.08-15.71.13-23.77-1.4-8.67-1.64-21.81-2.33-30.48-1.63,1.08-.09-21.12,1.07-17.23-.23-.4-.12,22.21-2.57,31.93-1.28,4.43.59,8.84.54,13.16,1.57,8.94,2.12,17.57,2.82,26.4,2.97"/><path class="f" d="M401.68,249.34c-2.46,3.16-6.83,5.21-9.73,7.93-.63-1.02-1.55-1.82-2.66-2.27v-.87s1.42-.8,1.42-.8c2.09-1.18,4.78-2.31,5.37-4.81.35-.17.82-.12,1.19-.24.92-.31,1.92-.66,2.91-.6.89.05,1.4.79,1.49,1.66"/><path class="f" d="M368.6,258.34h14.11c1.27.01,2.28-.28,3.08-.74-1.28,5.24-6.14,1.29-15.46,2.38-.7.08-1.24-.28-1.59-.55-.3-.23-.45-.68-.13-1.09"/><path class="f" d="M292.59,255.09c1.2,1.94-10.04,3.03-12.45,1.45l12.45-1.45Z"/><path class="f" d="M389.29,254.99l-.9.02c.3-.29.54-.69.91-.9v.87Z"/><path class="f" d="M386.71,256.66c.22-.37.53-.67.9-.88l-.9.88Z"/><path class="f" d="M390.71,253.32c1.08-2.26,3.16-3.71,5.37-4.81-.59,2.49-3.28,3.63-5.37,4.81"/><path class="f" d="M447.37,294.99c-.09.34.12,1.32-.38,1.73-.29.24-.93.01-1.19-.47.17-.76.75-1.42,1.58-1.27"/><path class="e" d="M282.69,308.94c.43.19,1.06-.08,1.51.09,3.69,1.61,7.63,2.75,11.83,3.84,2.35,1.26,4.69,2.03,7.05,2.08.23,0,.47.07.7.06.17,2,2.58,2.2,4.27,2.37.23.02.47.03.7.02-.1,1.81,2.02,2.33,3.49,2.41l.74.04c.29,1.16,1.41,1.48,2.47,1.64.5.17.99.68,1.57.77.41,1.21,1.1,2.59,2.55,2.44.25.26.52.5.81.72.23.85.89,1.46,1.72,1.72.16.66,1.14,1.46,1.7,1.76,1.67,3.94,4.7,7.23,6.31,11.66,1.07,2.95,1.12,6.03,1.79,8.78.1.43.08,1,.05,1.44-.15,2.28-.16,4.55.01,6.83.04.48,0,1-.05,1.48-1.12,9.99-6,19.02-11.69,27.26-1.14,1.64-4.19,2.34-4.6,4.72-1.04.3-1.97.85-2.69,1.64-.22.24-.53.57-.81.72-1.58.79-3.16,1.82-4.1,3.35l-.83.24-11.53,5.61c-5.08,2.47-10.5,3.19-15.54,4.92-.35-.15-1.03.05-1.43.08-2.59.17-4.89,1.73-7.54,1.49-.51-.05-1.12.33-1.62.19-1.24-.34-14.27,3.48-31.93-4.09-3.33-1.43-6.39-3.81-9.14-5.96-1.81-1.42-2.53-3.8-4.67-4.21-.02-.26-.09-.72-.25-.92-8.93-11.73-15.02-25.79-12.55-40.8,1.39-8.4,3.83-16.45,9.2-22l.94-.97c.25-.21.42-.51.65-.74,13.57-13.7,31.14-22.09,50.98-21.43,3.58.12,6.83-.62,9.94.78M289.07,389.11c7.74-1.13,13.73-5.85,18.94-11.18,8.13-8.32,12.16-19.39,10.49-31.18-.69-4.87-3.95-8.7-6.86-12.59-4.97-3.93-10.34-7.5-16.6-8.57-13.01-2.34-24.83,2.08-33.65,11.5-6.38,6.81-9.22,15.61-8.31,25.41,1.17,12.58,10.29,24.03,23,26.68,4.1.86,8.98.51,12.98-.07"/><path class="f" d="M220.17,331.31c-5.37,5.55-7.81,13.6-9.2,22-2.48,15.01,3.62,29.07,12.55,40.8-1.92.17-2.61-1.75-3.76-3.17-4.75-5.89-7.39-12.27-9-19.72-1.4-6.5-2.13-17.12.2-23.15,2.39-6.21,4.16-13,9.21-16.75"/><path class="f" d="M269.51,409.3c.14,3.43-13.6.92-14.12,3.16l-1.46-.07c.01-.49.25-1.29-.42-1.64-.58-.3-.96.69-1.35.81-.79.25-1.82-.1-2.39-.69-.17-.67-.57-.62-.76.02-4.75-.46-9.09-2.89-13.67-4.19.16-2.06-11.21-7.49-11.58-11.67,2.15.41,2.86,2.79,4.67,4.21,2.75,2.15,5.81,4.53,9.14,5.96,17.66,7.57,30.69,3.75,31.93,4.09"/><path class="f" d="M282.69,308.94c-3.12-1.4-6.36-.66-9.94-.77-19.84-.66-37.42,7.73-50.98,21.43.52-3.08,3.45-4.65,5.95-6.75,9.79-8.23,21.61-12.83,34.13-15.7,2.88-.66,21.8-1.17,20.84,1.79"/><path class="f" d="M331.88,349.33c-.67-2.75-.72-5.83-1.79-8.78-1.61-4.42-4.64-7.71-6.31-11.66,4.38,2.36,5.69,7.81,7.44,12.55,1.01,2.72,2.74,5.58.66,7.89"/><path class="f" d="M303.07,314.94c-2.36-.05-4.7-.82-7.05-2.08-4.2-1.1-8.14-2.24-11.83-3.85-3.5-3.13,22.94,5.84,18.87,5.92"/><path class="f" d="M331.94,357.6c-.18-2.27-.16-4.55-.01-6.83.81-.45,1.32.27,1.44.74.11.45.85,7.53-1.43,6.09"/><path class="f" d="M308.03,317.37c-1.68-.16-4.09-.36-4.27-2.37,1.77-.1,3.65.61,4.27,2.37"/><path class="f" d="M312.22,319.8c-1.47-.08-3.58-.6-3.49-2.41,1.6-.04,3.65.52,3.49,2.41"/><path class="f" d="M319.54,324.69c-1.45.15-2.14-1.23-2.55-2.44,1.32.22,2.51,1.03,2.55,2.44"/><path class="f" d="M322.07,327.13c-.83-.25-1.49-.87-1.72-1.72,1.19-.05,1.49.77,1.72,1.72"/><path class="f" d="M315.43,321.48c-1.06-.16-2.18-.48-2.47-1.64,1.02.06,1.97.71,2.47,1.64"/><path class="f" d="M220.17,331.31c.35-.26.6-.68.94-.97l-.94.97Z"/><path class="f" d="M307.16,397c-2.65,4.13-23.67,12.02-27.07,10.53,5.04-1.73,10.46-2.45,15.54-4.92l11.53-5.61Z"/><path class="f" d="M278.66,407.61c1.22,2.22-9.29,2.18-7.54,1.49,2.65.24,4.94-1.32,7.54-1.49"/><path class="f" d="M312.09,393.41l.08,1.76c-1.51.16-2.75,1.18-4.17,1.59.93-1.53,2.52-2.56,4.1-3.35"/><path class="f" d="M315.59,391.89v-.83c.42-2.38,3.48-3.07,4.62-4.72,1.89-.07-2.15,5.03-4.62,5.55"/><path class="f" d="M331.21,367.58c.41-.71,1.41-.25,1.43.15.02.51.06,1.03.03,1.34-.05.55-.64.98-1.25.69-.56-.26-.71-1.3-.2-2.18"/><path class="f" d="M315.59,391.89c-.89.19-1.69.91-2.68.81.73-.8,1.66-1.34,2.69-1.64v.83Z"/><path class="f" d="M253.93,412.39c-.69-.03-1.37-.24-1.77-.83.39-.12.77-1.11,1.35-.81.67.35.43,1.15.42,1.64"/><path class="f" d="M249.77,410.87l-.76.02c.18-.64.59-.68.76-.02"/><path class="g" d="M289.07,389.11c-4,.58-8.88.92-12.98.07-12.71-2.65-21.83-14.1-23-26.68-.91-9.8,1.93-18.6,8.31-25.41,8.82-9.41,20.63-13.84,33.65-11.5,6.26,1.06,11.63,4.64,16.6,8.57,2.91,3.89,6.17,7.71,6.86,12.59,1.67,11.79-2.36,22.85-10.49,31.18-5.21,5.33-11.2,10.06-18.94,11.18M303.96,374.57c7.31-6.39,11.04-17.48,8.36-27.22-2.03-7.38-8.35-13.89-15.48-16.27-15.32-5.11-31.07,3.18-36.69,17.93-5.46,14.33,2.43,30.22,17.65,33.83,8.65,2.05,19.12-2.12,26.15-8.27"/><path class="h" d="M303.96,374.57c-7.04,6.15-17.5,10.32-26.15,8.27-15.22-3.61-23.12-19.5-17.65-33.83,5.62-14.75,21.37-23.04,36.69-17.93,7.13,2.38,13.45,8.89,15.48,16.27,2.68,9.74-1.06,20.83-8.36,27.22M306.63,347.3c-3.26-5.92-10.53-6.5-15.33-2.81-4.4,3.38-6.19,10.66-1.79,15.2,3.3,3.41,10.19,2.85,13.31.27,3.59-2.97,6.17-8.38,3.82-12.66"/><path class="f" d="M306.63,347.3c2.35,4.28-.23,9.69-3.82,12.66-3.12,2.58-10.01,3.15-13.31-.27-4.39-4.54-2.6-11.82,1.79-15.2,4.8-3.69,12.08-3.11,15.33,2.81"/></g></g></svg>