<?xml version="1.0" encoding="UTF-8"?><svg id="b" xmlns="http://www.w3.org/2000/svg" viewBox="0 0 115.36 245.99"><defs><style>.d{fill:#c54b4f;}</style></defs><g id="c"><path class="d" d="M115.36,176.54c-.15.17-.31.34-.49.49.13-.18.3-.35.49-.49Z"/><path class="d" d="M115.36,176.54c-2.81,5.16-1.41-6.55-1.46-8.99,1.73,1.59.82,6.37,1.46,8.99Z"/><path class="d" d="M114.45,218.19c1.15,1.15.04,6.29-.49,3.24.23-.72-.57-3.44.49-3.24Z"/><path class="d" d="M114.82,222.42c.21.76-.48,1.85-1.06.83-.29-.85.45-.98,1.06-.83Z"/><path class="d" d="M114.46,167.56c-.84.43-.74-1.44-.94-1.8,1.37-.32.77.91.94,1.8Z"/><path class="d" d="M113.61,186.31c1.13-.55,1.22,2.53-.02,2,0-.65-.14-1.35.02-2Z"/><path class="d" d="M114.45,218.19c-1.04.22-1.56-.5-.88-1.28.73.07.62.85.88,1.28Z"/><path class="d" d="M114.01,162.09c.77,1.06.29,2.43.4,3.67-1.71.4-1.28-2.9-.4-3.67Z"/><path class="d" d="M85.91,191.72c-.74-16.94,6.64-33.33-15.06-30.46-9.09-1.85-37.22-9.08-35.42,7.96-4.35-1.78-8.67,20.14-7.45,22.12-6.5,4.2.48,16.1-4.75,19.55-1.35,4.3.95,6.18.42,10.9-.98,4.15,1.29,4.84-4.07,6.49,1.27,7.18-10.1,18.33-14.31,8.52-7.93-40.3,4.35-89.01,8.11-131.43,10.21-23.38,8.35-67.7,25.14-92.81,5.28-2.94-.27,8.1,9.31-7.17,22.58-20.23,65.16,23.97,50.06,43.86,2.82,4.2,2.71,8.25,3.28,14.77-3.6.95,3.36,2.83.43,6,2.42-.08,1.45,2.06,2.05,3.01,2.22-.58,4.54,3.26,1.06.99-7.02,7.06,3.46,1.27,3.07,7.43,3.4,1.24-.09,3.15-.06,5.67,6,1.59.48,3.3-.92,4.25,11.94,38.72,3.78,88.79,7.16,131.1-.32,19.07-10.6,19.29-27.5,16.15-7.59-14.21.44-31.57-.54-46.91ZM86.15,119.24c11.12-22.14-4.47-47.93-4.09-71.97,4.82-11.63-11.32-18.7-17.51-19.36-10.64-5.14-12.58,23.26-14.38,30.59-6.95,36.76-19.18,82.34,35.98,60.74ZM113.52,182.61c0-.29-.45-.3-.45,0,0,.29.46.28.45,0ZM97.61,230.55c8.55-2.39-.34-3.36-.08-11.56-.41,1.2-3.44,10.96.08,11.56ZM32.88,168.47c.29-.05.39-.6.07-.88-.82-1.17-1.08,1.4-.07.88ZM13.82,231.79c4.6-.63,1.34-10.88,2.05-13.89-6.64-3.79-2.95,10.29-2.05,13.89Z"/><path class="d" d="M114.37,226.31c.05.47.13,1.96-.79,1.52-.02-.45-.24-1.92.79-1.52Z"/><path class="d" d="M114.03,149.59c-.29,2.67,2.4,12.18,0,11.77.47-2.47-2.83-11.98,0-11.77Z"/><path class="d" d="M114,205.73c.29,2.31.06,3.72-1.29,5.37-.37-1.07-.92-6.43,1.29-5.37Z"/><path class="d" d="M113.99,147.82c.28,2.9-2.92-.49-.51-1.04.13.33.03,1.02.51,1.04Z"/><path class="d" d="M113.99,209.69c-.05,1.26.5,2.71-1.3,2.25,0-.72.38-2.43,1.3-2.25Z"/><path class="d" d="M113.91,146.78l.04.47c.28,1.59-1.07-.81-.04-.47Z"/><path class="d" d="M113.5,200.37c.28,1.3,1.28,3.56-.48,4.02.01-1.21-.91-5.28.48-4.02Z"/><path class="d" d="M113.52,142.86c1.74-.37.09,2.22.41,3.19-.8-.83-.29-2.13-.41-3.19Z"/><path class="d" d="M113.98,203.9c-.15.88.45,2.38-.87,1.53-.24-.83.08-1.28.87-1.53Z"/><path class="d" d="M113.97,181.54c-.27.17-.42-.37-.41-.54.3-.18.4.33.41.54Z"/><path class="d" d="M112.69,211.94l1.28.04c.09,1.42-1.61,1.42-1.28-.04Z"/><path class="d" d="M113.96,220.55v.89c-.33-.25-.39-.61,0-.89Z"/><path class="d" d="M112.33,128.09c-.39,2.59,4.24,10.42,1.18,13.87-.47-6.88-2.7-19.23-1.49-21.47-2.79-7.22-.07-27.29-5.25-29.16,7.19-1.94-1.19-3.75,2.67-8.91-4.29-1.38,1.23-3.41-2.06-4.24.72-4.56-.4-4.41-.05-8.51-7.05-.11,3.51-2.06.73-8.44,6.71,20.57,3.76,44.21,4.27,66.86Z"/><path class="d" d="M113.74,214.7c.09.75-.28.2-.68,0-.1-.66.23-.36.68,0Z"/><path class="d" d="M113.55,192.69l-.03.51c-.61.07-.52-.61.03-.51Z"/><path class="d" d="M113.53,194.91v.53c-.58.1-.59-.62,0-.53Z"/><path class="d" d="M113.46,198.91c0,.42-.09,1.06.04,1.45-1.11-.06-1.2-1.84-.04-1.45Z"/><path class="d" d="M113.29,182.38c.29,0,.3.45,0,.45-.29,0-.28-.46,0-.45Z"/><path class="d" d="M113.07,214.26v.45c-.65,1.48-.58-1.97,0-.45Z"/><path class="d" d="M111.35,232.97c.13-.26.49-.63.8-.35.21.84-1.3,1.55-.8.35Z"/><path class="d" d="M107.48,74.52c-.7,3.26.61,3.43,1.2,4.96-5.11-1.52-8.51-1.5-3.99-5.49,3.43,2.34,1.22-1.68-1.06-.99-.05-2.74-2.97-3.11-1.05-6.25-1.42-.25-4.54-2.65-1.44-2.76-.72-5.27-.13-10.84-2.7-13.38-2.87-2.63,5.06-1.77,1.58-4.6,4.83-1.8-.12-9.43-.69-13.29.53-12.75,13.56,30.67,8.21,34.83-6.84.14,3.29,5.5-.06,6.97ZM106.43,54.72c.8-2.08.2-4.15-2.32-3.79.04,1.32.25,5.9,2.32,3.79ZM105.87,56.85c.25-1.79-2.77.19-.68.24.18-.04.51.12.68-.24ZM104.1,48.6c-.02.65,1.53.52,1.74.2-.34-.83-1.73-1.12-1.74-.2ZM104.9,47.3c.34-1.62-1.39-2.73-2.28-1.43.74.55,1.49,1.01,2.28,1.43Z"/><path class="d" d="M106.36,51.43c.53.22.4,2.68.07,3.29-2.41,2.45-3.69-6.22-.07-3.29Z"/><path class="d" d="M105.62,56.19c.61.16.15,1.15-.42.9-1.26.13-.6-1.32.42-.9Z"/><path class="d" d="M105.84,48.79c-.21.33-1.76.46-1.74-.2.01-.92,1.4-.63,1.74.2Z"/><path class="d" d="M104.24,45.45c.36.27.81.99.65,1.85-1.46-.49-3.41-2.34-.65-1.85Z"/><path class="d" d="M98.89,226.15c6.41.99-.57,6.5-2.89,3.07-.28-1.66.86-9.61,1.53-10.24.25.92,1.72,7.4,1.36,7.17Z"/><path class="d" d="M98.72,27.95c-1.1.44-1.04-1.29-.96-1.88.65.4.88,1.15.96,1.88Z"/><path class="d" d="M96.73,24.07c1.28,6.65-11.25-15.49-3.67-5.34,0,0,3.67,5.34,3.67,5.34Z"/><path class="d" d="M90.63,100.95c3.24,15.33-17.31,31.52-3.28,8.72,2.46-5.5-3.18-33.94-.22-28.92,3.97,6.02-1.61,14.93,3.5,20.19ZM82.98,120.18c0-.29-.45-.3-.45,0,0,.29.46.28.45,0Z"/><path class="d" d="M87.88,167.02c1.03,4.86-9.76-6.61-13.03-4.49,3.32-4.33,9.89,1.88,13.03,4.49Z"/><path class="d" d="M86.95,74.84c.17.07.61.3.31.63-.79,1.08-1.82-1.59-.31-.63Z"/><path class="d" d="M87.33,170.7c-.01.21-.09.61-.36.46.08-.17.23-.31.36-.46Z"/><path class="d" d="M86.61,176.31c.02.45-.28,1.04-.87.77-.39-1.32.85-2.88.87-.77Z"/><path class="d" d="M86.2,11.35c1.03.17,1.75,1,1.76,2.04-.76-.52-1.56-1.1-1.76-2.04Z"/><path class="d" d="M81.6,38.62c1.53,2.46,2.03,6.17.47,8.63.38-3.64-1.75-8.71-.47-8.63Z"/><path class="d" d="M75.8,32.41c-.42,0-1.1.22-.99-.45.42-.2.69.4.99.45Z"/><path class="d" d="M74.24,121.76c1.78.26.23,1-.73.88.2-.29.45-.79.73-.88Z"/><path class="d" d="M73.18,31.09c.23.96-.29-.01-.56-.09,0,0,.56.09.56.09Z"/><path class="d" d="M70.85,161.27c4.63-1.08,2.4,2.31,0,0h0Z"/><path class="d" d="M71.87,30.19c1.3.73-.33.96-1.03.84-.37-.93.15-1.08,1.03-.84Z"/><path class="d" d="M70.85,161.27v.45c-.56-.05-.54-.49,0-.45Z"/><path class="d" d="M67.69,160.14c.46-.56,3.04.72,2.34,1.16-.6-.39-3.07-.16-2.34-1.16Z"/><path class="d" d="M66.58,27.41c1.89.38-.36,1.64-1.12.47,0-.6.72-.43,1.12-.47Z"/><path class="d" d="M66.82,160.38c-1.8-.25-3.78.54-5.41-.45,1.81-.51,4.08-1.09,5.41.45Z"/><path class="d" d="M58.6,27.92c11.87-3.37-4.03,4.72-4.42,12.64-.69-2.65,3.11-10.28,4.42-12.64Z"/><path class="d" d="M60.97,159.91c-.75-.05-1.83.38-2.25-.43.76-.23,2.03-.82,2.25.43Z"/><path class="d" d="M58.49,158.57c.68.57.02,1.19-.75.83-.33-.39.26-1,.75-.83Z"/><path class="d" d="M58.29,0c-.28.13-.59.49-.96.51-.03-.46.65-.38.96-.51Z"/><path class="d" d="M56.26,158.13c.72.88.27,1.48-.69,1.35-.05-.43.01-1.59.69-1.35Z"/><path class="d" d="M56.47,0c-7.26,4.31-10.91,7.38-15.35,14.84-3.69-5.12,5.05-12.06,15.35-14.84Z"/><path class="d" d="M55.58,158.58c.64,1.37-2.04,1.05-1.52.14,0,0,1.52-.14,1.52-.14Z"/><path class="d" d="M55.13,44.23c-1.18,1.63-1.19,4.49-3.13,5.24.75-1.97,1.39-10.95,3.13-5.24Z"/><path class="d" d="M53.43,158.82c.81.81-3.82,2.52-4.08,1.64-.12-1.13,2.88-1.36,4.08-1.64Z"/><path class="d" d="M51.95,158.79c-8.26,3.76-10.32-2.91-16.49,9.25-.63-9.16,5.45-9.68,16.49-9.25Z"/><path class="d" d="M51.58,50.35c.51.11.23,6.56-1.32,5.78.03-1.98.42-4.02,1.32-5.78Z"/><path class="d" d="M50.23,57.46c.34.08,1.34-.18,1.32.53-.42.98-1.78.52-1.32-.53Z"/><path class="d" d="M50.25,65.37c-.41,3-1.81-.54-.48-1.63.55.27.4,1.1.48,1.63Z"/><path class="d" d="M48.37,160.44c-2.73.33-5.83,1.55-8.55,2.25-.4-2.79,6.53-3.65,8.55-2.25Z"/><path class="d" d="M35.46,168.04c1.75.03.61-5.62,4.33-5.11-.64,1.87-4.37,9.97-4.33,5.11Z"/><path class="d" d="M38.46,12.97c.18.8-.29,1.14-.89,1.47-.1-.5.1-1.84.89-1.47Z"/><path class="d" d="M36.31,170.18c-6.25,12.43-8.38,25.6-11.12,39.11-1.27-5.92,4.54-44.81,11.12-39.11Z"/><path class="d" d="M35.85,171.13c.16.88-.02,1.66-.52,2.34-.74-.43-.74-2.62.52-2.34Z"/><path class="d" d="M34.94,175.53c-1.32,6.61-3.43,14.43-3.81,17.78,4.73,18.77-11.99,28.41-3.48,6.41.24-2.9-2.75-6.58,2.2-6.65-.35-6.29.48-12.82,5.09-17.54ZM28.89,196.57c1.87,1.09,1.62-2.97,0-2.09-.85.32-1.01,1.75,0,2.09Z"/><path class="d" d="M33.9,22.42c.44,3.76-2.67,7.28-4.37,10.41.35-5.64,2.17-7.81,4.37-10.41Z"/><path class="d" d="M32.94,167.59c.33.28.23.83-.07.88-1.05.5-.74-2.04.07-.88Z"/><path class="d" d="M25.2,239.09c.94,3.53,3.12-2.9,6.01-.91-2.71,2.23-2.94,4.52-5.74,5.75-3.51-1.53-6.03,4.12-8.71-.8-.39,1.51-1.81,4.19-3.48,2.08,1.19-4.22,8.47-13.28,10.46-7.72,1.98-6.89,5.26-2.19,1.46,1.6Z"/><path class="d" d="M30.25,195.67c.05,1.73-2.02,1.05-2.1-.07.13-1.44,2.02-1.81,2.1.07Z"/><path class="d" d="M29.14,215.99c.62.47.26,1.43-.46,1.03.04-.36-.03-1,.46-1.03Z"/><path class="d" d="M29.45,34.08c.22.8-.47,1.22-1.16,1.44.1-.65.4-1.52,1.16-1.44Z"/><path class="d" d="M29.75,212.83c-.69,2.25-.85,6.72-2.6,2.29-4.32,1.79-5.18-.51-3.94-4.26,4.47-3.47-.77,4.87,3.27,3.03-.06-2.72,1.7-2.74,3.27-1.06ZM28.19,213.59c0-.29-.45-.3-.45,0,0,.3.45.29.45,0Z"/><path class="d" d="M28.77,223.64c.81,5.27-3.44.02-1.34-2.68-2.89,3.02-2.01-1.64-3.87-4,4.01-5.73,5.93,3.1,5.21,6.68Z"/><path class="d" d="M27.96,213.36c.3,0,.3.46,0,.46-.28,0-.28-.46,0-.46Z"/><path class="d" d="M25.94,230.22c.18.91-.69.7-1.27.74.08-.75.63-1.46,1.27-.74Z"/><path class="d" d="M24.97,223.69c1.15.09,1.35,5.82.17,5.41.31-2.07-3.3-4.21-.17-5.41Z"/><path class="d" d="M23.56,216.97c4.09,3.12-1.3,11.18.08,4.8,1.23-2.11-1.87-4.45-.08-4.8Z"/><path class="d" d="M24.43,234.66c1.03,1,.72,1.9-.68,2.84-1.27-.54-1.11-4.34-3.16-1.35-2.11-.24-1.69.95-.43,1.87-12.76,10.41-23.95,8.53-18.94-13.01.3,14.45,16.27,22.89,18.35,3.25,6.29-5.54,8.61,6.8,1.37,1.13-1.93,5.7,6.11,1.64,3.49,5.27Z"/><path class="d" d="M24.64,231.79c.21,3.53-7.09-1.21-2.57-2.63,1.45.55.55,2.69,2.57,2.63Z"/><path class="d" d="M20.27,71.24c3.08,1.8-.35.99-.72,4.29-1.57,3.6,2.01,13.57-2.22,13.89-.48-4.33,4.19-30.15,2.94-18.18Z"/><path class="d" d="M20,64.26c.83-.31.76,1.56.08,1.44-.46-.43-.5-1.01-.08-1.44Z"/><path class="d" d="M16.16,227.39c-.75,12.32-7.95-9.19-2.02-10.38,3.25-1.35,1.43,9.36,2.02,10.38Z"/><path class="d" d="M9.78,243.41c.67-.33,1.35-.99,2.3-.51-.21,1.59-2.74,2.24-2.3.51Z"/><path class="d" d="M8.43,243.9c.22.65-.53.44-.9.51.17-.33.76-.27.9-.51Z"/><path class="d" d="M2.43,210.57c-.3,1.06.39,7.79-1.2,8.12-.06-.32-1.07-8.11,1.2-8.12Z"/><path class="d" d="M1.24,219.62c.26.11.45.58,0,.52-.03-.16.02-.36,0-.52Z"/></g></svg>