<?xml version="1.0" encoding="UTF-8"?><svg id="b" xmlns="http://www.w3.org/2000/svg" viewBox="0 0 228.39 257.52"><defs><style>.d{fill:#e36b2e;}</style></defs><g id="c"><path class="d" d="M228.34,17.71c.57,11.03-3.67,18.05-12.71,18.77,2.72,4.42-5.36,2.67-7.6,3.25-8.97-5.57-31.08-3.24-38.74-9.56-21.89,4.66-57.9.15-40.36,45.19-.31,5.25-2.24,2.35-3.24,6.74,4.19,8.46-7.7,24.21-1.98,36.36-3.99,3.45,5.09,1.51-2.55,8.52,3.17,1.24.72,3.93,1.14,5.5,5.15,1.17-.21.87-.25,3.17.79,12.27-4.65,22.82-3.34,35.24,4.08-3.17,5.96,5.67,3.06,5.17.25-5.78-3.12-3.52-3.82.49.92,1.15,5.5,2.28,1.27,2.72-.4,7.8.46,11.18-.13,19.18,5.49,2.61-4.51,3.98-6.72,2.85,1.12-5.17,1.1-9.29,3.01-14.33-7.59-6.54-1.29,19.87-7.17,7.72-.76-.12-2.88.8-2.14-1.46,1.84-.13,2.72-.86.72-2.68,5.64.81-1.43-8.18,3.07-10.59-3.72-4.8,3.11-32.9-4.12-17.05.18,2.38-2.01,12.2-5.63,8.86-12.88,1.61-3.49-18.09-5.82-24.19-2.37-5.08,9.35-6.67.96-6.77.6-3.21,7.92-.04,8.04-3.65-.24-.32-7.84,0-3.05-1.6-2.05-1.2,1.8-25.17-3.63-18.4-.63-5.06,4.47-4.27,2.63-9.96,2.87-4.37-4.7-15.22,2.44-14.49,2.05-1.16-4.05-2.4-1.21-3.46,2.22,2.92.64-2.68,4.14-3.04-7.8-4.78,6.2-3.32-.36-10.33-1.25-.51-1.12,1.09-1.82,1.93C93.42,15.42,59.9,38.56,15.01,32.67c-2.43,2.53-.83-.23-.62-1.28-3.5,3.48-9.99,2.22-11.75-4.1C-9.38-27.21,69.7,18.86,92.94,9.6c26.58,6.7,106.52-18.06,135.39,8.11ZM211.77,37.12c.78.75,1.99.8,2.74-.03-1.13-.68-1.89-.63-2.74.03ZM120.72,140.35c-2.86-7.35,3.1-18.25-2.65-23.3-3.69,8.32,1.75,18.13-2.96,25.13,5.41,5.7,4.75,8.7,5.61-1.83ZM119.95,199.94c0-.3-.46-.29-.45,0,0,.28.45.29.45,0ZM111.17,60.85c1.57-6.77,2.36-2.97-4.36-6.66,1.16-2.83,1.44-14.21-3.38-11.79,2.13,12.43-.14,50.5,7.74,18.45ZM107.82,43.66c0-.3-.46-.29-.45,0,0,.28.45.29.45,0ZM102.04,97.32c.01-.65-1.01-.65-1,0,0,.64,1,.65,1,0ZM101.54,67.91c0-.3-.46-.29-.45,0,0,.28.45.29.45,0ZM100.23,66.79c0-.66-1.01-.66-1.01,0,0,.66,1.02.67,1.01,0ZM78.82,34.46c.57-.04-.31-1.19-.54-.68-.28.69.29.72.54.68Z"/><path class="d" d="M221.93,35.94c-15.98,15.03-48.23-7.59-70.36-1.14,1.56.28-15.22,3.91-8.23-.74,6.64,4.62,4.87-3.25,12.74-.95.24-6.99,8.35,4.62,8.3-4.03,14.29,5.48,32.88,7.72,47.92,10.49,7.2.41-.01-7,9.63-3.63ZM170.77,32.65c0-.36-.57-.37-.57,0,0,.37.58.36.57,0ZM163.96,32.43c0-.3-.46-.29-.45,0,0,.28.45.29.45,0ZM157.67,31.08c0-.29-.46-.28-.45,0,0,.29.45.3.45,0Z"/><path class="d" d="M174.26,6.04c.98-1.04,2.31.1,3.25.07-.8.76-2.29.33-3.25-.07Z"/><path class="d" d="M173.39,6.09c-.34.38-1.48.91-1.39-.02.43-.36.95-.44,1.39.02Z"/><path class="d" d="M170.47,32.37c.38,0,.37.57,0,.56-.36,0-.36-.56,0-.56Z"/><path class="d" d="M160.32,6.17c2.01-.29,3.93.47,5.93.46.02,0-6.42,1.75-5.93-.46Z"/><path class="d" d="M163.74,32.21c.28,0,.29.45,0,.45-.3,0-.29-.46,0-.45Z"/><path class="d" d="M159.11,6.22c.92,1.27-3.75.97-3.22.47.79-.96,2.12-.46,3.22-.47Z"/><path class="d" d="M157.46,30.86c.29,0,.28.46,0,.45-.29,0-.3-.45,0-.45Z"/><path class="d" d="M149.64,6.52c1.29.23-5.58,1.19-5.58,1.29-1.14-.66,5.84-2.2,5.58-1.29Z"/><path class="d" d="M142.91,7.95c.27.28-.1,1.11-.59.82-.81-.51-.1-.87.59-.82Z"/><path class="d" d="M134.99,35.4c4.56.04,7.28.53,1.24.95-3.18,1.53-3.99,2.88-1.24-.95Z"/><path class="d" d="M139.79,8.45c.41,1.26-2.27,1.15-2.37.3.67-.54,1.55-.35,2.37-.3Z"/><path class="d" d="M135.67,8.73c.26,0,.68-.54.94.02,0,.78-1.03.8-.94-.02Z"/><path class="d" d="M132.65,38.13c.18.6-.5.84-.98.89-.29-.74.24-1.13.98-.89Z"/><path class="d" d="M132.98,8.79c-.06,2.65-1.48.88-2.69.11.8-.79,1.8-.35,2.69-.11Z"/><path class="d" d="M129.96,120.36c3.27,18.08-7.66,35.74-5.1,53.65-.56,3.77,1.36,6.02-2.88,3.41-7.68,3.26-.53-11.83-.22-1.36,2.88.38,1.05-8.2-3.06-5.17,1.99-6.96-1.96-15.41,1.67-21.94,4.87-1.39-1.26-15.63,4.3-14.75-5.34-4.09,1.07-3.5-3.52-7.22,1.09-2.3,6.69-6.25,1.27-5.86-.99-13.21,3.37-28.13,4.47-38.31-3.08-3.39,2.71-2.73,2.03-7.45-2-7.85,1.56-3.48.56,2.24-1.38,16.86-5.78,27.39.48,42.76Z"/><path class="d" d="M128.46,41.74c.84-.9,1.39-2.54,2.8-2.61-.55,1.14-1.57,2.23-2.8,2.61Z"/><path class="d" d="M127.15,68.07c.27.62,1.1,1.07.91,1.93-1.15.41-.97-1.35-.91-1.93Z"/><path class="d" d="M122.23,8.89c2.27-.46,4.8-.2,7.1-.05-2.07,1.78-5.06,1.97-7.1.05Z"/><path class="d" d="M124.95,178.63c-.42,10.45-5.29,33.79-6.29,8.12,3.15-1.21-1.98-1.84,1.06-4.05-1.72-6.01,2.47-2.92,5.23-4.07Z"/><path class="d" d="M123.15,177.83c.39.69.66,1.39-.55,1.69-1.76.14-.51-3.97.55-1.69Z"/><path class="d" d="M121.73,221.63c3.29,30.27-39.47,56.21-35.52,11.92-3.12,30.2,26.92,27.39,20.63,13.77,4.09,1.26,3.12-4.05.47-5.78.92-1.36,3.06-2.04,1.58-3.51-4.42.9,4.44-2.41.42-3.52-.78-10.29,4.48-1.09,4.48-7.45,5.4-5.35,8.3.7,6.05-11.93.3-4.29,3.01-13.31-2.63-12.77,9.05-7.89,1.21,13.43,4.52,19.27Z"/><path class="d" d="M120.33,8.85l1.04.08c.13,1.32-1.53.84-1.04-.08Z"/><path class="d" d="M120.03,134.92c.94,9.04,2.05,17.64-4.94,7.27,4.72-7-.72-16.8,2.96-25.13,5.82,3.12,0,12.79,1.98,17.86Z"/><path class="d" d="M97.28,180.48c-2.99-2.87-6.96-8.56,1.04-4.93-2.26-3.52,6.14-4.45,6.66-.56-4.89,2.5,3.55,15.19.47,15.85-.86,3.12-5.53,9.53-2.83,12.84-2.45,1.9-1.83-4.63-2.83-.9-2.49,6.21,2.04.18,4.87,8.53,5.34-2.52-1.77-6.95,7.45-2.48,1.73-13.44,11.6-5.93,7.72,6.32,2.7,16-3.32,4.31-7.28,14.61-5.38-3.99-.21,5.96-5.81,4.57-.03-5.88-3.73-10.96-1.77-15.92-.78-3.79-8.85-1.55-4.28,2.21-4.57,1.41.59,2.06,2.12,3.94-6.17-1.19-1.42,6.39-5.08,4.54.63,5.38-6,3.03-3.11-.33-4.37-.21,3.92-4.78-1.18-4.99-.23-2.71.75-5.5.11-5.99-3.17-.94-1.21,5.9-4.37,2.27-.35-.28-1.28.97-1.78.68,5.62-8.12,4.26.17,3.16-14.61,7.27-1.38-2.76-27.17,6.72-25.65ZM97.3,180.36s-.01.08-.02.11c.01,0,.02-.04.02-.11ZM111.29,209.66c-3.6-.34-3.45,3.43-.47,4.7.46-1.85.35-3.17.47-4.7ZM101.78,197.48c.49-2.33-.69-2.77-2.48-4.13.39,1.06-.03,6.93,2.48,4.13ZM99.99,193.05c-.37.39,2.28-1.67,1.22-3.52-.55,1.22-2.93,2.9-1.22,3.52ZM96.83,187.01c1.01-.76-1.19-2.57-1.57-1.24-.1.66,1.13,1.52,1.57,1.24ZM95.75,191.63c.01-.65-1.01-.65-1,0,0,.64,1,.65,1,0ZM94.63,215.04c1.85-2.21-.93-1.69-1.85-.14.27,1.03,1.38.56,1.85.14Z"/><path class="d" d="M119.73,199.72c.28,0,.29.45,0,.45-.3,0-.29-.46,0-.45Z"/><path class="d" d="M116.58,201.06c.3,0,.3.46,0,.46-.3,0-.3-.46,0-.46Z"/><path class="d" d="M115.37,186.95c-2.28,7.54-3.49,12.49-1.34,19.3-5.59,6.76-7.93-2.88-5.98-8.38-6.61-.96.89,20.71-4.99,10.83.18-3.87-5.5-1.17-3.91-4.18,1.67-1.08.41-5.86,2.12-.68,2.85,1.21-1.55-3.17,1.25-4.65,2.11-1.01-.5-3.58.6-4.66,2.47-.84,1.58-4.62,3.67-4,3.8,2.3-4.52,4.38,1.42,4.14,1.1.97-.31,2.8,1.91,3.15,3.81-2.29-2.37-14.82,5.25-10.87Z"/><path class="d" d="M111.4,55.69c-4.35,35.83-8.39,10.53-7.12-9.24,2.29-14.75,1.37,13.19,7.12,9.24ZM110.07,59.82c0-.3-.45-.29-.45,0,0,.29.45.3.45,0Z"/><path class="d" d="M112.36,8.86c-.38.68-2.31.8-2.29-.14.99-.3,1.38-.49,2.29.14Z"/><path class="d" d="M108.53,212.36c-.67-1.22,1.31-3.38,2.76-2.7-.03,2.67-.03,6.23-2.76,2.7Z"/><path class="d" d="M109.32,234.5c3.98,2.17-3.11,1.72-1.29,4.27,2.44-1.95.88,1.85-.71,2.76,7.43,9.72-4.91,1.61,1.7,10.42-22.1,22.13-27.41-29.95-18.78-13.59-2.72,2.2.56,4.54,2.96,3.89,3.13-3-3.26-11.33,4.28-10,1.67,16.44,7.04,1.12,11.84,2.25Z"/><path class="d" d="M109.85,59.6c.28,0,.28.46,0,.46-.3,0-.3-.46,0-.46Z"/><path class="d" d="M109.85,179.95c-3.89,1.87,1.18,9.06-1.76,10.77-4.29-2.27-3.2-5.04-3.16-8.97-4.46-2.76,2.51-6.88-2.05-9.34,2.03-1.88-.61-3.88,2.32-4.32-.19-2.26,1.01-5.34,2.06-8.37,4.7-11.2-.75,17.33,2.59,20.23Z"/><path class="d" d="M106.26,198.14c4.14-2.15-.09,7.17.66,9.17-3.05,7.14-2.18-6.54-.66-9.17Z"/><path class="d" d="M107.61,43.43c.28,0,.29.45,0,.45-.3,0-.29-.46,0-.45Z"/><path class="d" d="M94.89,8.31c5.29-.4,19.53,1.21,5.72,1.8,1.98,2.06.93,2.37-1.22,2.71-7.23-6.22-23.62,2.79-32.67-4.81-12.99-5.07,24.79-.07,28.17.3ZM86.27,9.8c.65.01.65-1.01,0-1-.64,0-.65,1,0,1Z"/><path class="d" d="M105.77,231.09c4.36,5.12-9.09,14.06-7.26,4.18-1.82-1.24-1.34-4.25-.78-6.19,3.64,1.83-1.08-5.7,5.08-4.54-1.53-1.9-6.69-2.53-2.12-3.94-4.57-3.77,3.51-6,4.28-2.21-2.67,3.38,2.46,9.04.8,12.7ZM102.94,219.03c0-.65-1.01-.65-1,0,0,.65,1,.64,1,0Z"/><path class="d" d="M105.71,78.22c.42,2.67,0,4.9-4.05,3.87.12,1.93,1.06,2.97,2.93,4.07-3.5.35-1.94,5.96-4.14,3.04-3.07.97,5.48,3.69-.68,3.35-3.71,4.37,4.09,18.03-2.85,20.58-1.09-18.68,1.24-41.63-3.29-61.44-2.12-4.16.39-1.88,1.44.78,6.11,8.99,2.13,18.47,7.32,25.29.97-3.07,2.53-1.97,3.32.46Z"/><path class="d" d="M96.09,125.22c1.67.42,2.75-1.98,1.02-2.33-.77.33-1.09,1.58-1.02,2.33ZM96.09,125.23c.24-5.5-2.17-22.28.84-12.07-.97,8.48,2.22-4.3,2.71,8.43-1.38,2.68,2.2,13.25-1.16,14.44,6.19,2.25,6.2,1.03-.17,3.91-2.79-2.31-3.97.67,0,1.21.42,3.01-4.61-.14-3.99,3.83-1.24-2.85-.45-20.55,2.58-13.86,1.95-6.45-2.6-3.05-.81-5.89ZM97.61,121.97c.77-.22-.22-1.41-.46-1.52-1.05-.84-.64,2.67.46,1.52Z"/><path class="d" d="M102.44,218.53c.65,0,.65,1.01,0,1-.65,0-.65-1.01,0-1Z"/><path class="d" d="M99.3,193.35c2.57.76,3.91,5.66.61,4.47,0-.01-.61-4.46-.61-4.47Z"/><path class="d" d="M101.54,96.82c.65,0,.65,1.01,0,1-.65,0-.65-1.01,0-1Z"/><path class="d" d="M101.32,67.68c.28,0,.29.45,0,.45-.3,0-.29-.46,0-.45Z"/><path class="d" d="M101.2,189.53c1.06,1.85-1.59,3.91-1.22,3.52-1.73-.62.68-2.32,1.22-3.52Z"/><path class="d" d="M100.09,171.76c.5,3.14-3.77-.31-1.76,3.77-4.12-3.58-7.56,1.77-2.53,2.34.47.37,1.35,2.74,1.49,2.59-8.63,3.03-2.88-11.64-4.83-16.73.58-15.15-1.42,12.58,7.63,8.03Z"/><path class="d" d="M99.74,66.28c.65,0,.65,1.03,0,1.02-.65,0-.66-1.03,0-1.02Z"/><path class="d" d="M97.11,122.9c1.73.35.65,2.75-1.01,2.33-.07-.76.24-1.99,1.01-2.33Z"/><path class="d" d="M97.8,121.19c.51.92-1.2,1.39-1.2.41-.21-1.3.28-1.82,1.2-.41Z"/><path class="d" d="M96.39,126.51c2.34,1.41.17,2.88.5,4.62-1.23.98-2.7-5-.5-4.62Z"/><path class="d" d="M97.28,180.47s.02-.07.02-.11c0,.07-.01.1-.02.11Z"/><path class="d" d="M96.57,185.62c.23.27.92.99.26,1.39-1.5.54-2.28-2.76-.26-1.39Z"/><path class="d" d="M95.97,125.31s.08-.05.12-.08c0,1.8-.05,1.5-.12.08Z"/><path class="d" d="M95.25,191.13c.65,0,.65,1.01,0,1-.65,0-.65-1.01,0-1Z"/><path class="d" d="M94.82,213.22c1.48,1.14-1.43,3.38-2.03,1.68.33-.55,1.67-1.29,2.03-1.68Z"/><path class="d" d="M95.11,225.12c-3.91,1.46,3.42,23.5-6.57,15.22,2.59-1.54,1.39-2.97-.96-3.62,3.88-.3,1.12-5.34-1.36-3.17-1.29-24.25,1.82-6.69,6.09-15.72,3.4-1.2-.79,3.89,2.8,7.29Z"/><path class="d" d="M94.81,147.86c.01.29-.3.6-.54.73-.9.05.22-1.75.54-.73Z"/><path class="d" d="M94.19,149.21c.68-1.29.34,11.03-.73,7.93.26-.88-.69-7.73.73-7.93Z"/><path class="d" d="M92.96,181.82c.79,3.89,1.4,12.71-.87,16.82,3.51,3.68-1.61,6.74-1.76,11.2-1.6,28.26-7.58-19.78,2.63-28.02Z"/><path class="d" d="M90.28,41.53c3.57,5.63,1.89,5.03-1.57,3.08-21.98-12.74-39.44-3.85-58.17-9.17-3.7-1.24,26.58-3.91,31.11-1.57,10.89-4.88,24.63,6.75,28.63,7.65Z"/><path class="d" d="M86.27,8.8c.65,0,.65,1.01,0,1-.65,0-.65-1.01,0-1Z"/><path class="d" d="M78.89,34.02c.57.6-1.09.74-.62-.22.17-.45.52.19.62.22Z"/><path class="d" d="M76.24,35.83s.01.04.01.07c-.02-.02-.03-.04-.01-.07Z"/><path class="d" d="M62.55,5.3c-5.36.5-4.25-1.04-10.35-2.81,1.35-1.24,7.54,2.05,10.35,2.81Z"/><path class="d" d="M34.94,1.33c2.32.99,6.89.96,6.05,2.13-2.17.26-11.47-3.19-6.05-2.13Z"/><path class="d" d="M31.94,1.12C22.83,1.53,12.79.36,4.04,3.93,9.03-.51,25.48-.79,31.94,1.12Z"/><path class="d" d="M27.42,34.47c-5.13-.71-26.18,3.76-13.04-3.14.67.96-1.34,1.01-.76,2.3.49.91.94-2.03,1.85-.64-1.54,1.74,7.91-1.85,11.95,1.48Z"/><path class="d" d="M2.68,28.98c1.91,3.32,5.73,2.49,5.47,4.16-1.96.28-6.91-3.55-5.47-4.16Z"/><path class="d" d="M2.2,9.35c-.34-.69.65-5.62,1.67-4.98-.47,1.69-.47,3.65-1.67,4.98Z"/><path class="d" d="M1.35,25.01c1.05.11,1.25,1.32,1.28,2.24-1-.21-1.25-1.32-1.28-2.24Z"/><path class="d" d="M2.14,10.59c.53,4.56-1.39,3.8-1.27,8.67-2.34,1.27.75-9.65,1.27-8.67Z"/><path class="d" d="M.92,21.38l.41,3.28c-1.27.1-1.65-2.82-.41-3.28Z"/></g></svg>