<?xml version="1.0" encoding="UTF-8"?><svg id="b" xmlns="http://www.w3.org/2000/svg" viewBox="0 0 125.52 254.42"><defs><style>.d{fill:#ffdf44;}.e{fill:#e36b2e;}</style></defs><g id="c"><path class="e" d="M118.66,176.99c-3.56-1.93.43-2.5,2.14-.56,4.39-.71-1.04-11.44,2.5-11.38,6.41,11.12-2.91,39.87-4.64,11.94Z"/><path class="e" d="M123.25,189.56c1.92,4.54-1.02,35.42-7.04,24.24,2.94.61-.49-3.28,1.67-5.47.73,1.85,3.5,2.56,2.39.02-.42-.04-5.22-3.71-.24-3.46-.07-5.68-4.59-16.26,3.22-15.33Z"/><path class="e" d="M118.89,198.63c3.28,10.3-3.9,2.52,1.29,11.36-6.79-4.93-.04,4.79-3.98,3.81.53,3.35,3.85.54,3.57,4.64-5.21-3.02-3.11,5.62-2.07,7.89-.82,1.39-5.01,4.62-1.11,3.6,1.33,2.54-9.43,5.64-1.21,5.88-1.32,6.9-17.06,22.22-21.74,13.5,1.2-2.43,4.34-2.01,5.11-5.03-1.86-4.18,3.73-2.34,2.62-6.45,1.16,1.33,5.54,1.26,2.36-.76-5.31.82-8.39,5.85-13.65,8.81-2.25,1.64-2.59-.69-2.97-2.24-.53-.78-3.78-.05-3.63-2.27,1.09-3.49-5.9-.34-2.37-4.61,4.89-1.45-1.07-.25.18-3.45-1.97-5.09.87-13.14-4.8-15.37,3.58-20.02-7.97-45.8-4.62-66.02.88-7.26-.58-17.78-3.89-4.83-2.22,2.95-2.54-2.08-5.09.97-10.38-5.93-.51,2.27,4.14,5.47,4.88,16.93-9.59-5.02-19.62.74-18.14,2.66-2.09,61.6-4.93,79.92-.05,7.76-24.98,25.28-19.51,13.3,4.68.3-.33-5.41,5.31-6.83-2.43-1.42-2.59,1.41-2.22-3.13,1.32-1.11-.67-12.87-1.86-9.5,1.17,8.07-2.73,17.96-5.68,25.81-28.32-6.32-10.79-60.07-11.88-83.37C10.31,139.72-14.26-.36,20.71,0c26.39,16.85,18.27,57.04,29.61,83.58,44.48,62.93,33.16-37,36.49-47.31,1.37-.78,3.95-2.92.13-2.48.41-2.21.72-6.21-1.91-6.41,1.95-2.81,6.95-4.79,7.04.98,6.04.03-.34,10.99,5.41,9.49,2.69,1.01.41,11.23,3.88,8.11,2.73,2.67-1.22,14.4,1.41,12.91,2.13-2.88.99,7.13,6.4,2.5-.48-3.42-.31-1.78-3.11-2.16,1.83-2.48,9.22.25,4.06-2.31-1.96-4.25,2.32-3.61,5.04-4.47-5.49-.88,1.4-9.09-1.57-13.38-2.03-4.03-1.19-20.16-7.77-12.98-5.03-2.2,6.83-5.67-.32-4.82-1.4-6.34-4.01-4.35-3.08.83-1.53-1.42-1.93-3.51-3.3-.02-3.08-11.82-10.28-3.65-14.39,2.12-1.28,4.41-1.85-10.41.24-12.92,40.57-29.47,37.27,41.28,38.19,60.76.79,6.75.72,48.34-1.68,32.03,0-.27-.37-.8-.65-.64-2.88,3.21,1.74-2.77-2.31-1.75-3.82,6.25,4.44,5.95-.25,9.77,5.8,3.08.3,8.88,2.92,15.54-1.57,1.03-1.01,5.63.76,6.84-1.12,1.29-4.21-.8-3.05,2.07,3.42,1.67-1.76,3.7,3.75,4.41-5.24,2.87-1.45,5.46-2.93,6.11-2.72.78,2.01,3.89,1.81,5.88-4.69-1.73,1.31,8.16-3.69,3.64-2.74,5.55,4.12,14.58-.39,20.59,3.16,2.23-.67,11.9,5.74,13.03-5.79-.53-4.24,3.99-4.32,9.09ZM118.35,146.42c0-.3-.45-.29-.45,0,0,.29.45.3.45,0ZM117.5,174.04c.01-.65-1.01-.65-1,0,0,.64,1,.65,1,0ZM106.87,188.41c.76-3.14-1.66-5.43-.34-9.71-2.77-4.67,2.83-6.54-1.08-9.53,4.7-4.2-3.51-7.21-2.11.66,3.55,19.82-3.78-2.76-2.65,14.56-.77,4.72,7.79,5.29,1.38,6.13-1.33,6.35.51,18.35-4.25,22.84-5.84,1.44,6.07-.54-1.52,8.55,2.3.03,1.93,3.07.7,1.15-2.44.75.74,3.52,2.31,2.27,2.59-1.04.73-4.73,2.68-3.71.95,5.25,1.65-2.03,1.32-5.34-1.43.2-3.04-1.01-1.97-2.05,3.66,4.9,2.62-6.68,3-8.8-.33-1.77,7.02-3.06,1.68-4.07.01-5.17-.32-7.48.85-12.95ZM102.34,234.96c3.37,4.19,2.89-6.98,1.63-7.13-2.38.37-.31,7.16-1.63,7.13ZM97.65,233.35c.45,5.65,7.69,1.13,1.46,1.15-.76-.44-.43-2.48-1.46-1.15ZM100.18,229.46c-.6-7.24-5.46,3.26-.35,2.69-1.32-2.11-1.98-2.15.35-2.69ZM100.39,193.58c0-.3-.46-.3-.46,0,0,.28.46.28.46,0Z"/><path class="e" d="M123.28,118.64c.75,7.3.46,33.73-4.13,15.58,3.32,2.73,1.99-12.38.06-12.92,2.39-1.73,3.22-8.69-.9-9.84,4.66-3.75-1.59-1.78-.43-7.6-.67-2.34,2.64-3.11,2.7-.98-.58.42-1.4.77-.65,1.54.67.45,1.02-2.15,1.59-.34-1.3,4.29,3.37,7.3,1.76,14.56Z"/><path class="e" d="M123.39,112.03c.06.26-.06,1.03-.37.89-.46-.38-.07-1.12.37-.89Z"/><path class="e" d="M123.31,164.22c-2.1,1.79-.31,7.88-1.11,11.74-5.64,2.05-2.37-7.88-3.56-11.2-.99-.5-3.1-.08-.96-1.32-2.45-15.74,3.54.51,2-11.27,4.9.58-5.08-7.14,3.02-11.84,1.72,6.32-2.12,17.79.61,23.89Z"/><path class="e" d="M123.31,164.22c-.31.18-.41-.34-.42-.54.33-.18.39.33.42.54Z"/><path class="e" d="M123.3,110.78c-.15.15-.33.11-.66-.04-.72-.48.67-.66.66.04Z"/><path class="e" d="M122.45,158.29c.33-.2.39.3.36.52-.29.18-.38-.33-.36-.52Z"/><path class="e" d="M122.81,162.4c-.31.17-.38-.33-.36-.52.35-.2.35.3.36.52Z"/><path class="e" d="M119.77,218.44c.54,22.87-13.61,18.36-3.38,13.35.9-3.38-3.93-.21,1.32-5.46-1.09-2.31-3.08-10.86,2.06-7.89Z"/><path class="e" d="M118.13,146.19c.28,0,.28.46,0,.46-.3,0-.3-.46,0-.46Z"/><path class="e" d="M117,173.54c.65,0,.65,1.01,0,1-.65,0-.65-1.01,0-1Z"/><path class="e" d="M95.25,33.52c1.19-5.56-10.65-12.83-8.5-5.56.23,6.39,2.39,7.13.65,12.28-1.9-.4-.11-1.57-.66-2.64-5.09,3-.97-13.66-2.1-14.24,2.92-1.93,5.02-5.7,8.11-7.37,1.53.08,9.21.94,4.04,3.01-1.45,1.59,1.98.45,2.34,3.12,1.3-3.19,1.87-1.79,3.3.02-.93-4.94,1.68-7.42,3.08-.83,4.09-1.07,2.1,1.66-.39,1.77-1.93,8.42,6.94-6.31,5.72,6.9,1.6,3.37,5.68,13.39,1.45,21.55,7.64,1.01-9.2,2.39-.25,6.07-.17,1.98-4.43-.81-5.97,1.67,4.98-.82,3.22,2.9-.89,3.85.81-2.72-2.95-6.87-2.44-3.59-3.22-1.5,1.96-7.19-.72-10.1.2-4.1-1.12-1.94-2.8-3.36,1.01-2.84-.54-5.97-1.73-8.16-3.53-.01-2.61-1.16-2.24-4.39ZM86.25,33.03c.29,0,.28-.47,0-.46-.3,0-.3.46,0,.46Z"/><path class="e" d="M107.33,185.65c-1.21,6.81-1.57,9.86-1.33,15.71,5.34,1.01-2.01,2.3-1.68,4.07-.37,2.16.66,13.66-3,8.8-1.07,1.07.54,2.22,1.97,2.05.33,3.42-.38,10.43-1.32,5.34-1.05-.61-2.59,7.16-5.76,2.85-.3-1.33.74-2.09,1.37-.56,1.06-.95.06-1.66-1.3-2,8.12-12.44-5.05-3.27,2.51-10.6,5.91-2.82-1.81-21.33,6.46-21.56-5.72-.58-5.29-10.31-3.69-13,6.36,6.89-.77-9.76,3.17-12.35,5.61,3.98-2.09,15.23,2.6,21.25Z"/><path class="e" d="M105.27,235.81c-1.19-.1-4.36-.24-2.29-1.4-.56-9.09,1.77-7.59,2.29,1.4Z"/><path class="e" d="M74.74,190.53c3.35,13.47,3.13,30.53,6.8,44.84,4.84.65-2.99.99-1.08,3.98,1.38.76,3.67-.99,3.05,2.05,3.07,6.58,13.22,2.98,15.72-3.38,1.11-.8,8.78-1.19,4.37,1.03-4.23-3.3-3.55,7.09-7.4,7.62-1.57,2.49-3.36.77-.65,5.51-28.52,8.17-26.99-74.92-20.81-61.65ZM92.98,249.96c-1.71-4.1-4.94-.97-7.66-3.57-.94,3.1,5.46,3.37,7.66,3.57Z"/><path class="e" d="M101.7,236.35c-1.66,1.23-5.98-3.51-3.12-3.15.03,2.69,3.28-.41,3.12,3.15Z"/><path class="e" d="M98.42,226.68c4.8,2.16-1.8,2.88,1.41,5.48-3.37.19-2.07-3.59-1.41-5.48Z"/><path class="e" d="M100.16,193.35c.29,0,.3.45,0,.45-.3,0-.29-.45,0-.45Z"/><path class="e" d="M87.98,248.12c1.9-1.24,4.14-.53,4.99,1.83-3.97,1.67-11.81-5.95-4.99-1.83Z"/><path class="e" d="M86.46,32.8c0,.3-.45.29-.45,0,0-.29.45-.3.45,0Z"/><path class="e" d="M84.62,33.03c.59-.04.6.48.01.45.02-.14-.01-.3-.01-.45Z"/><path class="e" d="M84.5,28.38c.15.38.22,1.5-.62,1.14-.1-.28-.01-1.61.62-1.14Z"/><path class="e" d="M84.43,31.24c.28.35.13.71.1,1-.93.5-.91-1.82-.1-1Z"/><path class="e" d="M72.44,176.47c-.18,23.04-2.47-13.5-5.19-16.5,2.61-7.54-6.81-10.2-9.53-13.82,1.99-2.38,4.67,4.2,7.39.56,2.73,5.46,3.31-5.88,6.3-6.44.48,11.41.45,22.98,1.02,36.2ZM72.1,168.87c0-.29-.47-.28-.46,0,0,.3.46.3.46,0Z"/><path class="e" d="M71.87,168.66c.3,0,.29.45,0,.45-.29,0-.3-.45,0-.45Z"/><path class="d" d="M69.39,165.3c.12.51.11,1.26-.48,1.21-.62-.64-.5-2.35.48-1.21Z"/><path class="d" d="M68.86,162.41c-1.11,5.44-8.53-5.92-13.27-7.69,6.61-.59,8.85,4.09,13.27,7.69Z"/><path class="d" d="M49.85,153.38c1.52.98-1.61,1.42-.66.23.14-.2.37-.37.66-.23Z"/><path class="d" d="M46.95,152.92c.69-.05.43,1.04.49,1.37-.66.35-1.46-1.26-.49-1.37Z"/><path class="d" d="M43.93,156.14c2.66,2.92-6.94,10.31-4.33,2.83.77-.94,4.74.26,4.33-2.83Z"/><path class="d" d="M42.89,226.12c.13.97.37,1.85.34,2.82-1.23.76-.8-3.67-.34-2.82Z"/><path class="d" d="M42.12,234.5c.33-.87.54.42,0,.62,0-.16-.03-.37,0-.62Z"/><path class="d" d="M38.88,241.41c-1.89,9.39-14.71,12.32-22.46,13,8.03-2.26,16.55-7.05,22.46-13Z"/><path class="e" d="M25.95,240.88c6.05-5.33-12.76,25.35-5.92,7.38,4.87-3.4,3.63-15.67,4.21-20.21,2.5-2.41,2.26,10.59,1.71,12.83Z"/><path class="d" d="M8.84,250.7c8.54,7.73-4.65-.39-4.5-4.75,2.23.12,1.86-2.81,1.8-4.19,2.14.88-1.56,7.51,2.7,8.94Z"/><path class="d" d="M6.06,154.26c.28,9.22,2.14,54.11-6.06,51.92.42-19.48,5.82-33.21,5.66-54.2.74-3.53.89.86.39,2.28Z"/><path class="d" d="M6.5,240.31c.11.22-.09.51-.34.68-1.05.22-.38-2.01.34-.68Z"/><path class="d" d="M5.06,236.02c.6.94,1.45,2.19.59,3.22-.17-.66-1.66-2.69-.59-3.22Z"/><path class="d" d="M1.66,211.25c.39.57.33,3.34-.75,2.77-.61-.52.24-2.44.75-2.77Z"/><path class="d" d="M1.53,214.83c.36,1.57-.54,4.85-1.25,1.95,1-.47-.49-2.34,1.25-1.95Z"/></g></svg>