<?xml version="1.0" encoding="UTF-8"?><svg id="a" xmlns="http://www.w3.org/2000/svg" xmlns:xlink="http://www.w3.org/1999/xlink" viewBox="0 0 800 491.39"><defs><style>.d{fill:none;}.e{fill:#ffdf44;}.f{fill:#49a258;}.g{fill:#c54b4f;}.h{fill:#5c97c4;}.i{fill:#e36b2e;}.j{clip-path:url(#c);}.k{clip-path:url(#b);}</style><clipPath id="b"><rect class="d" width="800" height="491.39"/></clipPath><clipPath id="c"><rect class="d" width="800" height="491.39"/></clipPath></defs><g class="k"><g class="j"><path class="h" d="M515.49,199.55c.06.27-.05.55-.02.82-.64.43-.81,1.17-.87,1.83-.09,1.03.67,1.52,1.58,1.17.06.21,0,.45.04.66.16.72.69,1.25,1.36,1.53.92.43,1.72,1.1,2.15,2.03.17.99.43,1.97.82,2.9l-.75.76-1.5-.02c-.06-.27-.57-.41-.66-.68-.11-.3-.05-.7-.23-.99-.29-.45-.87-.52-1.36-.46l-.02-.72c-.03-.86-.77-2.82-1.97-2.9-1.16-.07-1.9,1.88-2.41,2.88l-6.7,13.17,107.63,150.67c.88,1.22,1.56,1.91,2.58,1.93,1.53-.81,1.93-2.77,3.08-4.05-.36-.31-.6-.38-.71-.28.28-.99.64-1.46,1.31-2.18,3.81-4.09,3.81-7.69,5.99-8.77.7-.06,1.4-.07,2.1-.06-.77,1.93-2.94,3.58-2.77,5.94.02.24-.04.49-.06.72-.46,0-1.23-.19-1.54.32-.21.36-.1,1.46.58,1.25-.21.25-.62.82-.67,1.13-.16-1.18-.75.05-.88.39-.23.6-.87,1.19.03,1.25-.31,1.27-.9,2.12-1.9,2.91-2.62,2.03-3.84,5.61-4.99,8.67-.08.22-.02.49-.05.72-1.7-.34-1.76,1.61-2.11,2.9-.06.22.04.52-.06.72-2.88,1.34-4.23,5.04-5.21,8l-.58.68c-2.78,3.29-9.86,12.82-11.04,16.69-.3.34-.45.82-.72,1.19.16-.17.21-.38-.26-.68-1.7,2.53-4.14,4.58-4.82,7.41-.17.17-.52.5-.63.72-2.11.57-3.23,3.2-4.25,5.14-.66,1.25-1.06,2.4-2.19,3.74-22.38,26.39-39.9,45.55-75.1,54.28-15.93,3.95-31.28,7.41-47.85,7.97-22.49.77-44.65.57-67.08.15-8.65-.16-16.89-.88-25.29-1.65-15.15-1.38-39.08-9.22-52.62-16.16-8.53-4.37-16.6-8.41-24.71-13.69-16.31-10.63-31.09-22.39-45.87-35.13-13.75-11.86-27.57-22.55-43.88-30.73-18.15-9.09-37.24-14.8-57.06-18.89-7.11-1.47-13.8-2.83-21.01-3.66l-15.44-1.78c-3.49-.4-7.01-1.1-10.58-1.09l-13.83.04c-11.79.03-32.58,9.4-30.91,2.96,4.75-18.25,23.57-30.32,36.14-40.83,1.03-.86,2.69-1.17,3.5-2.42.66-.12,1.43-.2,2.24-.74l35.02-23.57c11.64-7.84,23.65-13.39,35.91-19.17,1.14-.34,3.23-.37,4.1-1.37,6.62-1.19,14.6-4.34,21.82-4.39,13.15-.09,25.4,3.44,37.26,8.46,23.02,9.73,38.38,21.52,57.22,37.39,5.92,4.99,11.25,9.37,17.87,13.53,16.38,10.29,35.15,17.38,54.9,16.66,13.61-.49,26.02-5.46,37.85-11.49,17.2-8.77,32.86-19.19,46.1-32.82,1.45-1.5,3.23-2.15,1.59-2.21.43-.6.61-1.67,1.37-2.09.25-.27.49-.55.71-.85l.57-.66c.33.02.8-.54.88-.95.04-.21.08-.62-.42-.4.74-.89,1.36-1.88,1.9-2.9.55.2,1.09-.12,1.19-.53l.26-1.05c.1-.41.52-.73.77-1.09-.05.86.7.11,1-.33.16-.23.03-.51-.32-.66,3.24-5.8,6.95-11.35,10.77-16.81-.12.19.13.87.39.79.34-.1.63-.6,1.05-1.1,1.17-.91,2.05.25.62,1.18-.83,2.36.88,4.96,3.01,5.74.21.23.55.77.83.93.63,1.91,1.68,3.97,3.62,4.69.33.18.57.72.85,1-1.01.36,6.76,12.18,7.63,10.69l1.1,2.29c1.14,2.37,2.25,5.38,4.8,6.29.35.78,1.54,1.41,1.49,2.42-.1,2.05,4.45,8.64,5.66,8.56,1.48,3.28,4.62,5.77,5.62,9.27.47,1.62.95,2.65,2.38,3.62.86.58,1.92,2.59,1.95,3.62.05,1.7,3.79,7.48,5.29,8.09,1.1.45,1.78,2.43,1.88,3.47.15,1.58.87,3.18,2.48,3.71.12.45.3.92.47,1.35.47,1.15,8.23,17.02,9.8,16.22.15.36.3.77.38,1.16.32,1.49.89,3.29,2.47,3.74.43,1.2,1.48,2.19,1.54,3.53.01.34-.14.76-.01,1.18.16.53.8.76,1.36.5.06.4.07.87.2,1.25.32.96,5.61,12.28,7.08,11.79.11.38.3.78.34,1.17.17,1.63,1.11,2.84,2.36,3.76,1.17.87,1.63,2.53,2.29,3.75-.75,1.13.54,2.22,1.52,2.76.31.41.62.86.75,1.37.08.33-.11.74.03,1.16.18.52.84.58,1.37.46.26.44.6.98.72,1.47-1.59,1.64,5.59,6.59,4.22,11.44-4.78-4.98-8.36-11.15-11.47-17.31.4-.25.45-.56.27-.75-.32-.33-.82-.64-1.06-.7-1.56-2.83-3.57-5.65-5.03-8.62-.27-.54-.45-.98-.79-1.49-4.55-6.91-8.59-14.25-12.34-21.62-.39-.76,0-2.13-1.32-2.31l-.59-.68c.83-.08.42-.6-.2-.68-.91-.75-1.27-1.89-1.89-2.84.64-1.45-.96-2.64-1.8-3.67-2.83-3.49-4.94-7.63-7.08-11.59.38-.26.45-.6.25-.81-.25-.26-.82-.64-1.06-.69-2.51-4.67-5.77-9.11-8.57-13.7.39-.29.44-.62.23-.79-.35-.29-.95-.56-1.17-.62l-22.21-33.28c.31-.3.39-.63.22-.83-.33-.39-.77-.62-1.06-.7-2.49-4.51-6.28-8.67-10.29-13.18-2.01,2.09-2.77,4.94-4.82,6.69-.55.47-.62.81-.84,1.48-.4,1.23-.18,2.46.6,3.52-.29.34-.33.63-.15.83.34.38.79.64,1.06.72.98,1.66,2.65,3.16,3.52,5.02-.35.28-.42.6-.25.79.33.35.79.62,1.06.68,1.71,1.24,2.31,3.33,3.46,4.98-.4-.27-.71.23-.55.42l.82.94c2.27,2.6,3.16,6.13,5.69,8.12.23.18.46.4.6.64-.86-.16-.64.65-.28.88.49.31.79.56,1.18.64,2.51,4.3,5.95,8.54,8.47,13.03-.33.32-.34.61-.16.8.3.31.8.63,1.05.71,1.71,2.12,9.26,13.78,9.56,15.8.14.92.52,1.75,1.35,2.23.23.13.33.46.55.61-1.07.1-.48,1.13-.29,1.6.34.82,1.51.84,1.92,1.41,2.38,3.28,4.73,6.9,5.88,10.8.31,1.05,0,1.91,1.42,2.23.64.88,1.79,2.46,1.88,3.62.06.81-.37,1.79.96,2.2.63.6.93,1.44,1.13,2.27-.22.73.28,1.72-.91,2.93-1.41-1.36-5.68-12.33-6.82-11.02l-.11-.75c-.25-1.61-1.05-4.03-2.84-4.41-.1-.35-.16-.77-.2-1.13-.04-.35.26-.76.16-1.23-.13-.57-.84-.71-1.4-.47l-.37-1.22c-.45-1.51-3.91-9.5-5.41-8.94-.02-.2-.07-.41-.06-.61.08-1.41-3.79-7.46-4.84-7.23-.1-.22-.06-.5-.12-.73-.78-2.94-2.7-6.05-5.06-7.96-.07-.2-.08-.44-.14-.65-.39-1.53-1.09-3.61-2.83-3.82-.07-.21,0-.45-.05-.66-.13-.75-.71-1.26-1.42-1.47l-.04-.72c-.04-.74-.69-1.24-1.39-1.46-.07-.19-.04-.45-.05-.65-.05-1.27-.76-2.34-1.57-3.55l-8.45-12.52c-.86-1.27-1.66-2.43-2.97-2.82-.25-.39-.39-1.06-.64-1.4,1.7.62-4.54-8.59-5.47-8.69-2.02-.22-6.93,7.73-7.91,9.86,2.14,3.34,5.19,6.07,5.68,9.76-.23.3-.52.54-.87.68l-.93-.04-.59-.7c.32-1.32-1.01-1.55-1.61-2.21-1.05-1.15-1.33-3.21-3.2-3.71-2.54,2.71-4.76,5.11-7.54,7.51l26.48,52.95,52.29,103.24c8.26-2.4,15.72-6.09,22.91-10.86-3.94-7.11-8.17-13.39-11.36-20.24-.39-.83.09-2.11-1.35-2.27-.72-.08-1.25-2.17-2.53-2.71-.54-.22-1.21.53-1.77.44-2.48-.44-4.92.81-6.64-1.31-1.01-1.51-1.81-3.25-2.2-5-.08-.36-.34-.66-.69-.79-5.33-9.95-10.26-20.13-14.93-30.4.7-.86-.17-1.81-1.03-2.18l-23.58-44.15c.76-.71-.36-1.18-.99-1.45l-.06-.72c-.08-.95-.61-1.62-1.33-2.17-1.11-.86-1.68-2.26-2.09-3.57-.18-.59-.32-1.16-.82-1.54-.31-.24-.85-.94-.74-1.34.37-1.35-.71-1.59-1.38-2.29-1.88-1.97-3.37-4.52-4.35-7.07-.53-1.37-.69-2.95-2.21-3.74-.88-.73-1.49-1.7-1.86-2.78l.63-.11c.54-.09,1.05-.34,1.49-.67-1.45-3.02,6.25,10.1,5.55,7.21.03.23.12.46.18.68.67,2.41,2.08,4.92,4.09,6.42l.27.81c.82,2.41,1.98,5.31,4.21,6.61.06.23.15.49.16.73.06,1.26,4.13,10.03,5.69,9.4.05.37.17.77.19,1.15.02.38-.28.8-.16,1.22.15.57.86.91,1.4.51l.18.71c.5,2,5.43,12.22,7.02,12.32.05.27.2.54.21.81.05,1.2.49,2.42,1.76,2.68.12.53.26,1.09.44,1.6.23.66,6.44,15.75,7.68,14.47.14.35.42.84.42,1.21-.04,2.1,3.84,8.52,5.66,13.16.27.67.78,1.04,1.24.88.08.37.27.77.28,1.15.04,1.81.72,3.93,2.55,4.54.05.2.11.46.09.66-.05.56-.19,1.14.01,1.75.18.54.82.7,1.39.47.04.4.22.8.23,1.2.01.36-.25.76-.15,1.23.12.57.83.73,1.39.48.06.4.45.83.43,1.23-.05,1.28.48,2.53,1.72,3.03.01.25.06.55.14.79,1.07,3.07,2.35,6.47,4.4,9.36,1.32,1.85,4.63-.61,5.93-1.76,1.88-1.66,5.16-2.4,5.53-4.94.13-.88-3.61-9.75-4.46-8.48-.14-.7-.73-1.34-.8-2.08-.15-1.48-.42-3.25-2.01-3.7-.06-.22-.04-.46-.12-.67-.12-.35-.31-.89-.76-.78-.4-.7-.47-1.49-.68-2.25-.53-1.94-5.28-13.06-6.58-13.03-.12-.34-.1-.8-.15-1.16-.05-.35.28-.76.15-1.2-.15-.54-.84-.79-1.38-.49-.11-.45.03-1.13-.18-1.54-2.18-4.12-4.06-8.24-6.14-13.08,2.41-.49,2.39,1.43,3.55,1.71.07.2-.02.44.02.65.16.91.61,1.77,1.47,2.17.03.21-.03.47.05.67.11.28.3.58.52.78,1.05.92,1.51,2.26,1.66,3.62.04.36.29.65.65.72l.07.72c.03.36.3.65.66.73.67,1.03,1.53,2.25,1.49,3.55-.04,1.2.22,1.71,1.25,2.31.86.5,1.13,1.93,1.41,2.77-.03.3-.84.63-.57,1.05.34.52,1,.29,1.36.5.36.22.67.97.66,1.35-.3.35-.81.9-.37,1.49.24.31.66.64,1.13.18,4.11,7.39,7.78,15.12,11.02,22.92.18.44-.32,1.52.43,1.57-.96,2.14-2.95,3.24-5.27,5.37l15.01,25.71c11.28-8.08,20.54-17.21,29.19-27.51l-5.35-6.52c-.7-.85-.36-1.76-1.63-2.17-2.15-.7-4.36-5.42-6.25-5.3.26-.19.24-.46-.03-.62.88-.46,1.64.17,2.98.88.62-.77.54-1.61.72-2.34,4.49,3.5,7.83,8.19,12.22,12.93,6.13-6.64,11.24-13.65,16.45-20.97-2.95-3.46-6.28-6.03-7.94-9.86-.02-1.25-.49-2.29-1.51-2.98-.78-.53-1.2-.36-2.03-.11-2.28.68-3.74,2.41-5.92.86-.37-.4-.64-.87-.79-1.39-.44-1.35-.88-2.89-2.15-3.67-1.07-.66-1.3-1.86-1.92-2.85.78.09.58-.52.09-.96-1.15-1.12-1.3-2.74-2.54-3.44-.25-.14-.33-.52-.56-.68-.04-.61-.32-1.18-.82-1.54-.34-.39-.59-.84-.74-1.34-.19-.31-.44-.58-.74-.79-.44-.64-.63-1.37-.8-2.11-.06-.26-.35-.59-.54-.78-.39-.38-.6-.82-.76-1.33-.69-2.15-1.71-4.74-3.69-5.91-.11-.18-.02-.51-.05-.72-.13-.9-.6-1.7-1.35-2.22-.48-.33-.52-.87-.75-1.34-.96-1.96-1.36-5.18-3.47-6.07-.38-.16-.55-.86-.76-1.19-2.29-6.08-9.79-17.82-13.84-23.2-.24-.42-.82-.83-.8-1.39.06-1.9-1.67-3.04-2.81-4.4-.18-.22-.36-.44-.56-.65.97.09.47-.66.25-.85-3.13-2.66-1.77-4.48-4.82-5.75-.07-.21.05-.53-.06-.72-2.41-4.34-5.14-8.72-8.57-12.31-.21-.22-.44-.44-.64-.68-.49-2.03-2.09-3.78-3.65-5.12-.23-.19-.4-.52-.65-.67-.05-.61-.35-1.18-.9-1.48l-.59-.69c.04-1.03-.51-1.91-1.5-2.23-.23-.12-.48-.45-.64-.66-.26-1.85-1.81-3.11-3.08-4.39-.2-.2-.34-.52-.57-.67-1.01-1.84-1.84-4.02-3.69-5.12-.25-.15-.37-.55-.63-.67-.48-1.18-1.01-2.43-2.24-2.97-.26-.12-.44-.47-.65-.66-.03-1.41-1.01-2.51-2.36-2.87-.2-.23-.47-.41-.65-.65.19-1.47-.86-2.6-2.25-2.97-.62-.31-.8-1.05-1.26-1.49.03-1.05-.56-1.91-1.57-2.19-1.08-.29-1.45-1.38-2.04-2.16-.27-2.02-2.1-3.3-3.71-4.39-.16-.26-.45-.44-.65-.67-.27-2-2.03-3.47-3.79-4.3-.2-.22-.42-.48-.65-.65v-1.75c.25-.08.41-.45.66-.57,3.02.96,9.14,11.42,11.81,11.5.19.23.42.48.63.69-.3,1.48,1.02,2.18,1.91,3.32l13.99,17.9,8.37,11.92c11.13,15.86,21.65,31.48,31.42,48.14,2.95,5.03,5.81,9.53,8.46,14.64,3.05,5.87,6.02,11.71,10.15,16.47.16.19.4.56.45.8.64,3.27,3.35,5.63,4.42,9.06.33,1.05.82,1.83,1.78,1.98.7.11,1.71-.09,2.35-.97,2.1-2.9,5.49-4.7,7.2-7.89,1-1.86-1.14-4.03-2.02-5.51l-11.06-18.48-11.63-18.21-12.22-18.86c-8.28-12.77-16.6-25.01-25.16-37.59l-11.76-17.27c-1.34-1.97-15.18-17.34-8.68-15.27l.62.68c-.8-.18-.72.66-.13.95,3.8,3.59,5.93,8.28,9.64,11.44.22.19.42.41.61.63-3.34-2.07,5.57,8.57,5.21,7.37.32.44.74.75.84,1.34.23,1.26.84,2.46,2.06,2.96.27.11.41.5.63.68.11.43.08,1.43.69,1.05.36.28.46.83.79,1.11.37,1.15.79,3.11,2.12,3.2.17.43.58.84.8,1.26,3.21,5.98,7.25,11.93,11.64,17.3.17.21.44.4.55.64-.83-.17-.63.55-.15.98,1.44,1.76,2.45,3.56,3.92,4.89.2.18.42.41.56.65-.41-.34-.79.24-.51.55l2.84,3.15c.19.21.4.42.56.65-.82-.19-.7.72-.01.96,1.93,2.98,3.29,6.24,5.83,8.1l.74,1.13c-.34.28-.41.61-.23.82.25.29.8.66,1.05.67.14.25.45.39.61.63-.84-.18-.66.63-.27.87.45.28.73.56,1.09.67.13.23.37.4.53.61-.82-.02-.46.68-.17.88.46.31.74.56,1.09.68.13.23.36.41.53.62-2.49-2.5,8.03,14.08,6.63,10.5.21.38.63.7.78,1.12.15.42-.02,1.49.66,1.06.37.27.47.83.79,1.12.01.6.28,1.18.81,1.49.17.23.41.41.56.65-.83-.18-.64.58-.3.87.36.31,1.02.31,1.25.62,1.32,1.81,2.55,3.74,3.46,5.79.17.39-.04,1.52.66,1.05.22.37.67.69.79,1.12.16.58.31,1.1.81,1.49.19.14.47.43.57.65-.38-.34-.81.27-.54.63,1.65,1.96,2.35,4.37,4.17,5.53.15.41.56.73.74,1.13-.34.28-.41.61-.24.81.26.31.81.65,1.05.67.14.24.44.41.61.64-1.17,1,1.09,2.09,1.67,2.97.16.24.35.47.54.69-.85-.25-.71.6-.32.84.47.29.75.56,1.11.67.61.6,1.29,1.24,1.38,2.15-.25.26-.5.59-.3.78.42.41.8.6,1.1.68.91.45.9,1.46,1.42,2.13l2.03,5.92c-.23.13-.35.48-.59.6-1.73.84-2.88,2-3.6,3.68-.65,1.51-.59,2.65.13,4.23.37.82.41,1.85,1.42,2.22l7.47,8.13,19.11-29.9-79.59-111.18-29.86-41.92-10.34,16.72c-1.45,1.87-.82,2.54.22,3.91-.34,1.44,1.34,2.29,2.46,2.98.09.26.48.43.64.66.18,2.05,2.32,3.06,3.66,4.41l.64.64c0,.99,1.24,1.54.53,3.58-1.94-1.04-3.07-2.47-4.18-4.25-1.23-1.67-2.64-2.96-4.27-3.78-.47-.36-1.04-.99-1.28-1.54-.21-.49-.81-1.8-1.56-1.57l-3.67,1.13c-2.55.49,5.13-6.54,3.08-7.33l1.16-2.11c.52.1,1.22.08,1.43-.45.15-.39.03-.8.08-1.14.03-.22.11-.51.22-.7,3.1-1.83,4.02-5.5,5.59-8.63.08-.16,0-.42.02-.6.68.05,1.39-.14,1.63-.87.19-.57.11-1.26.17-1.9.02-.27.12-.68.26-.9.37-.09.68-.29,1.22-.66.36-.25.54-.79-.31-.79-.51-1.28,1.2-2.03,1.38-2.9-.13.67.55.91.89.26l4.03-7.72c.21-.41-.09-.91-.48-.59.23-.3.58-.8.68-1.17.12,1.09.82.03,1.11-.25.59-.57.43-1.68-.31-1.5.31-.28.37-.82.66-1.13,1.65-.06,3.17-3.22,2.24-4.65.3-.26.42-.73.7-1.02,2.08-.44,1.76-3.27,3.69-4.81,1.01.75.44,2.02.63,2.89M200.5,283.66c-.24.48.24,1.11,0,2.11-1.74.7.31,15.59.6,19.6l1.52,20.93.74,16.06c.26,5.51-.36,10.8,1.26,16.21,2.12.58,6.93.88,8.5-.41,1.04-.85,1.21-1.89,1.21-3.56l-.06-49.88c-.04-.57-.24-1.16-.65-.85,0-.49.05-1.01.04-2,.43.4,1.35-.13,1.35-.82v-13.8c0-.69-1.05-1.28-1.47-.8,0-.09.01-.26,0-.53.91-1.58-14.03-3.61-12.62-3.68-.52.02-.42,1.01-.41,1.42M201.34,359.73c.43.31.62-.28.62-.81l.03-18.07c0-.66-.88-1.21-1.29-.85l-.18-5.66c1.28,1.21.65-8.22.63-9.45-.72.51-.66,1.3-1.33,1.49-.06-.66.07-1.43.02-2.11.74,2,1.62-10.25-.62-8.14l-.84-10.73c.71,1.64,1.63-7.36-.58-5.93l-.18-3.4c.93-.38.74-1.63.82-2.63.06-.74-.07-2.25-1.35-1.95-.13-2.98-.16-5.42-.63-8.28-9.18-.8-18.22.87-27.07,4.31l22.46,97.42,14.78,7.36,1.4-29.78c-2.34-1.32-5.53.29-6.69-2.79M230.31,407.63l4.31-26.72-7.12-2.98c3.49-27.9,5.2-55.61,6.02-83.6-5.26-2.69-10.12-4.79-15.72-6.41l-.79,71.61c-.47,1.95-3.66,2.03-5.27,2.68-.22,10.85-.19,21.28-1.37,32.32l19.94,13.11ZM158.22,345.62l6.22,29.94,23.29,7.99-22.17-94.51c-6.46,2.38-11.65,4.66-17.5,7.72l7.71,18.7c3.53,8.56,7.56,16.65,9.8,25.47-2.21,2.18-4.63,2.77-7.35,4.69M241.78,378.57l3.56-31.23c.56-4.93,1.01-9.61,1.5-14.5l1.49-15.15c.48-4.85,1.04-9.41,1.32-14.31-3.74-3.1-7.94-5.35-12.56-7.3l-.67,18.28c-.15,4.08-.5,8.1-.76,12.23-.53,8.18-.53,16.1-1.66,24.36-.5,3.63-.04,7.25-.74,10.94-.9,4.71-1.25,9.36-.58,14,3.03,1.06,5.22,1.87,9.11,2.68M161.3,339.26c-2.93-9.17-6.62-17.48-10.53-26.14-2.16-4.79-3.54-9.47-6.23-14.45-3.98,1.85-7.97,3.87-11.25,6.81-.43.92.62,3.03,1.19,3.88,7.23,10.82,12.84,22.1,17.67,34.42,3.46-.79,6.51-2.35,9.17-4.51M246.76,421.18l8.9-27.87c-.94-1.34-3.54-2.27-3.45-4.01l15.46-73.38c-4.75-3.96-9.3-7.23-14.45-10.66l-8.13,76.36c-2.14,1.27-4.68.44-6.98.13l-4.17,28.79,12.82,10.64ZM160.2,374.19l-5.86-26.86c-1.61.18-4.25,1.24-4.92-.26-2.82-6.31-4.56-12.82-8.01-18.83l-11.7-20.41c-4.22,2.62-7.57,4.89-11.22,7.7,3.5,9.79,8.4,18.37,13.54,27.2.8,1.37,1.29,3.11.86,4.58-.3,1.02-2.33,1.83-3.27,3.22l8.52,19.26,22.04,4.4ZM122.59,349.81c3.03-1.07,4.75-2.1,6.8-3.99-5.61-9.17-10.02-18.21-14.28-28.24l-7.92,5.75c1.74,4.25,3.26,8.22,5.7,11.88l9.7,14.61ZM266.22,379.4l8.1-34.17,5.01-20.06c-2.62-2.36-4.6-4.53-8.22-6.54l-6.95,32.88-7.74,36.44c.85,1.97,4.19,2.99,6.31,3.52,1.66-3.9,2.45-7.68,3.49-12.07M456.39,457.18l10.95,23.67c.48,1.26.8,4.52,2.48,5.03,14.4-1.31,28.48-4.14,42.45-8.46l-78.02-154.73c-4.04,3.6-8.14,6.56-12.95,10.02,7.96,16.61,14.57,33.43,19.72,51.28l12.82,44.39,7.36,24.8c.68,2.29-2.6,2.97-4.81,4M133.32,368.48l-7.56-16.26c-1.76,1.23-2.93,1.82-4.82,1.53-6.74-8.64-12.37-17.73-16.93-28.32l-11.25,7.06c5.61,11.23,10.89,21.7,15.79,32.99l24.77,3ZM250.22,424.13l22.19,18.33,33.56-97.75c-8.92-4.78-15.75-10.7-23.43-16.63l-14.08,58.23c-1.29,3-1.08,6.68-3.27,8.97-1.42,1.48-4-.38-5.86-.16l-9.12,29.02ZM103.77,364.54c-4.32-9.99-8.72-19.41-13.93-29.14-.52-.97-2.32.47-2.62,1.19-1.68,3.98,9.46,18.46,8.43,22.6-.22.88-1.69.82-2.67,1.54-.7,4.65,6.24,3.66,10.78,3.81M456.28,449.21c-3.95-11.95-6.81-23.82-10.38-35.88l-4.35-14.69c-6.49-21.9-13.88-43.14-23.51-64.04l-9.05,5.67,8.64,23.75,18.22,59.31,10.23,34.2c7-3.2,12.05-2.7,10.19-8.34M90.4,355.41c-2.15-5.96-4.95-10.38-6.5-15.81-1.8-.35-4.52,1.33-3.97,3.27,1.27,4.49,3.06,9.1,4.74,13.18.88,1.3,6.25,1.18,5.73-.65M465.35,486.46c-3.73-10-7.93-18.57-12.42-27.43-2.46.34-4,1.86-5.96,2.88-1.71.78-3.32.21-3.9-1.73l-24.27-80.43-12.9-37.57c-2.17,1.19-4.4,1.6-5.28,3.36-.86,1.69-.02,4.1.45,6.16l23.69,103.58c1.1,4.79-4.69,3.47-6.85,5.72l7.1,26.16c13.57.14,26.75.81,40.35-.7M89.01,364.03c.52-7.43-5.65-.17-8.03-6.39-1.65-4.31-2.48-8.61-4.73-12.91-6.84,5.3-17.71,16.67-19.41,24.5,11.09-2.69,21.1-5.35,32.18-5.2M305,436.51c-2.06-.16-3.48-1.79-2.98-3.71,6.4-24.6,9.64-57.59,12.44-83.19-1.52-1.54-3.18-2.52-5.21-2.07l-33.48,97.26c9.04,6.58,18.28,12.69,28.5,18.57l3.63-24.83c-.04-1.55-1.23-1.89-2.92-2.03M409.64,458.35c4.51-1.03,7.59-1.17,11.23-2.48-2.8-16.6-6.54-32.13-10.38-48.36l-14.12-59.79c-4.29,1.19-7.38,3.26-11.19,4.99,1.27,9.97,3.83,19.1,6.14,29.01l14.51,62.17c1.18,5.04,1.72,9.71,3.8,14.47M318.1,423.23l3.98-34.6,3.62-34.51c-2.39-1.84-4.91-3.03-7.6-3.07l-3.96,34.6c-1.83,16.01-4.51,31.26-8.16,47.41,3.23.6,6.26.92,9.87,1.2,1.84-3.21,1.78-7,2.25-11.05M413.99,461.67c-3.24-.04-7.31,2.49-8.29-1.73l-24.41-105.86c-1.89.26-3.37.95-5.66,1.6l1.26,36.65,3.84,94.38,40.2.23-6.95-25.26ZM336.88,478.06l2.63-30.79c-2.02-.5-5.34.17-6.45-1.55-1.27-4.37-.03-9.15.54-13.92,2.96-24.6,6.17-48.61,7.72-73.75l-11.91-3.23-6.72,61.97c-.78,7.24-1.29,14.05-3.57,20.79l-7.15.3-4.24,27.11c8.9,5.03,18.41,9.57,29.14,13.07M343.08,448.39l-2.32,31.04c12.09,3.85,23.81,6.27,36.1,6.66l-5.08-129.39c-5.4,1.51-10.09,2.19-15.26,2.56l-6.57,87.41c-2.02,1.53-4.65.59-6.88,1.72M336.92,443.37c3.86.38,6.37.37,9.8.1-.46-4.91.84-9.49,1.24-14.3l1.39-16.67c.59-7.08,1.12-13.85,1.53-20.97l.8-13.78c.36-6.16,1.08-11.82.75-18.21-1.72-.78-4.88-1.88-6.94-.93-.87,2.74-1.43,6.53-1.42,9.67,0,5.11-.8,9.65-1.3,14.62l-1.52,15.13-1.4,11.64c-.36,3.02-2.42,22.22-2.61,22.95-.94,3.48-.74,7.09-.32,10.76"/><path class="h" d="M654.48,297.73c-2.63.34-2.95,9.03-6.02,9.82.22-1.04,4.74-13.22,5.8-13l.21,3.18Z"/><path class="h" d="M652.34,90.53c.25.1.1,1.04-.34,1.12l-12.15,2.17c-7.82,1.39-34.67,7.79-38.72,12.39-.31.35.34,1.15.5,1.6-1.88,2.37-5.38,2.43-7.69,4.79-.66.67.23,2.72.69,3.63l16.93,33.76,12.87,26.24c6.87,14.01,13.95,27.38,22.18,40.64.95,1.53,1.6,2.83,3.47,2.33-.22,1.24-2.27,1.48-2.95,2.3.18,3.02,4.21-.87,6.69.05,1.21.45,6.18,13.44,11.16,14.02l-9.83-15.71c-.31-.5,1.3-.77,1.55-.61.03.16-.04.42-.08.76,3.4,7.72,9.31,13.42,13.78,20.17-1.57,1.11-2.72-5.49-6.21-3.8,3.07,5.31,6,6.49,8.23,11.33,5.02-15.39,7.74-31.45,16.32-45.61l6.79-11.21c.67-1.1,1.2-2.21,2.42-1.99l-2.7,4.58c-9.23,15.65-13.11,21.55-17.97,40.93-4.73,18.85-9.92,36.98-17.27,55.1-9.85,24.28-20.49,47.55-32.71,70.56-1.01,1.9-1.31,3.85-3.11,4.66-.16-2.36,2-4.01,2.77-5.94l3.87-9.64-5.4,6.32,3.86-8.65c-1.03-1.9-2.6-2.98-3.05-4.67l3.59,2.41c.33-.77.36-1.48.53-2.13.78-.21,1.56-.48,2.25-.9.35,1.31-1.44,2.48.35,4.09,3.61-6.7,7.4-12.82,9.87-20.53-2.37-.52-7.67,14.19-10.22,16.44l10.06-21.63-2.86-8c2.69,1.84,2.12,5.2,5.08,7.94,3.93-4.87,5.61-10.2,7.69-15.7.85-2.25,2.08-4.13,1.92-6.41,1.54-.2,1.43-1.93,2.08-3.23-.36.72,6.07-12.71,2.6-10.54-.3,1.06-4,11.67-4.89,9.98l4.55-12.7c.66-1.84-1.79-3.27-1.48-5,1.63,1.58,2.36,3.69,3.58,6.25,3.26-5.22,4.32-10.55,6-15.97.05-.15,7.26-20.41,3.8-18.11-.84,2.95-8.05,29.72-9.71,26.7,3.91-9.47,6.69-19.37,9.42-29.74-6.87-7.35-12.36-15.1-17.72-23.34-1.57,1.18-5.19,2.79-6.38,1.02-7.38-10.97-13.68-22.02-19.61-33.99l-36.79-74.31c-5.12,3.04-9.95,6.06-13.98,10.23l65.93,117.31,12.82,22.33c1.04,1.81,1.91,3.6,2.62,5.28-1.22.58-6.05-8.87-6.5-11.03-.16-.8-1.27-.44-1.79-.33-.42.09-.61,1.29-.23,1.88,2.33,3.62,4.27,7.18,6.23,11.01.37.73.99,1.66,1.82,1.41.5-.15.92-.84,1.18-1.43,1.23.87,2.03,2.2,2.16,3.7-.63-.53-1.16-1.39-1.94-1.6-.91-.24-1.45.73-1.68,1.47l-37.05-64.19-46.89-83.31c-7.89,6.05-14.17,12.75-21.18,19.74,10.16,9.5,23.47,32.21,29.93,45.03,14.21,28.16,29.61,54.98,46.24,81.73l11.41,18.35c1.87,3.01.34,5.64-1.32,8.06,1.39,3.54,4.4,6.56,5.21,10.07-2.54-1.41-2.93-7.1-5.46-6.3-.91,3.45,3.16,4.06,2.24,7.02l-5.18-7.99c-1.31.75-2.4,2.14-3.77,3.13-2.03,1.48-4.07,1.41-5.67-.76-24.83-33.55-46.67-68.7-68.46-104.37l-19.42-31.78c2.03-1.14,7.91,12.99,10.16,12.43l-9.69-15.76c-.33-.46.3-.84.28-1.08,7.52,9.68,13.71,20.14,20.13,31.12,21.61,36.97,44.32,72.65,70.18,107.1,3.12-2.33,5.56-4.95,7.97-7.88l-16.07-26.08c-13.91-22.58-26.8-45.03-38.92-68.68-6.36-12.41-12.78-24.04-20.33-35.61-2.88-4.41-6.26-8.04-9.4-12.25-.77-1.03-3.04-2.38-3.98-1.2l-9.68,12.04c-1.25-1.9,1.71-2.73,2.02-5.69-.73-1.65-10.5,11.52-10.08,13.18,1.34.55,1.93-.94,3.03-1.01l-5.77,10.18c-.35-.26-.83-.64-.78-1.11.11-1,1.1-.75,1.17-2.78.15-4.07-10.3,11.88-4.13,8.83-.37,2-1.44,3.82-2.95,5.16-.46-.5-.21-1.33-1.61-1.99-.99,3.02-3.27,4.8-3.54,8.23,3.2-.52,2.06-3.98,4.41-4.78-.83,2.73-2.06,5.82-4.17,7.77-.19-.88.38-2.14-.63-2.89-1.93,1.54-1.61,4.37-3.69,4.81-.41-1.53.87-2.49,1.6-3.91,16.88-32.7,29.75-49.21,57.34-73.36,13.89-12.15,31.55-21.78,49.39-26.64,10.98-2.99,21.72-5.91,32.83-7.02M521.31,186.6c-.61-1.21-1.61-.82-1.67.33.13,1.83,1.8,1.63,1.67-.33"/><path class="h" d="M611.09,113.56c.06.22.06.49.07.72.36,7.24,8.67,14.97,6.26,18.41l-3.63-6.81c-.37-.7-.98-1.06-1.49-1.3-.67-1.74-1.76-3.27-2.15-5.12.47.18.74-.23.81-.52.13-.53-.07-.94-.38-1.06-.41-.15-.78-.16-1.13,0l-.05-.68c-.04-.53.22-1.13.04-1.74-.17-.57-.84-.68-1.41-.47-.2-.74-.84-1.4-.81-2.23.36-.64.7-1.29.88-2,1.71.83.91,2.99,2.99,2.79"/><path class="h" d="M736.91,86.64c1.5,1.82,4.15.47,6.54.82,4.06.59,7.85,1.3,11.56.49.42-.09,1.07.38,1.45.19-.09,1.56,11.4,1.54,12.31,1.31.22-.06.5.11.72.08-1.11,1.02,16.51,2.56,14.48.88.56.41,1.78-.03,2.32.51,2.42,2.42,5.26-.29,7.77,3.78-.37,1-1.42,1.24-2.55,1.7-4.6,1.87-8.49,4.54-12.55,6.81-1.45-.95-3.61.9-3.64,2.52-.27.07-.59.13-.84.25-4.01,1.98-7.57,5.23-10.63,8.51-.2.15-.59.48-.75.68-2.55.28-3.86,2.94-5.17,4.96-.25.17-.47.43-.69.64-.29.24-.56.5-.81.78l-.68.67c-1.87.26-3.41,1.8-3.68,3.67-.2.24-.45.45-.67.68-.27.24-.52.5-.76.77-.24.2-.45.48-.72.64-2.1,1.28-4.31,2.78-4.9,5.25-.26.16-.39.64-.68.74-.58.2-.98.65-.96,1.3-.32.14-.53.67-.87.75-1.89.44-7.35,6.79-7.81,8.67-.28.25-.59.74-.95.87-.95.36-7.2,5.89-6.29,7.12-.43.42-1.27,1.06-1.59,1.52-2.29.88-4.05,2.85-5.28,5.26-3.26,3-10.63,11.5-11.96,14.9-.32.21-.56.59-.91.75-2.17,1.02-9.31,11.17-9.73,13.18-.04.18.04.46-.05.61-1.22-.23-1.75.89-2.42,1.99l-6.79,11.21c-8.58,14.17-11.3,30.22-16.32,45.61-2.22-4.84-5.15-6.02-8.23-11.33,3.49-1.69,4.64,4.9,6.21,3.8.39.19.84.33,1.19.6.2.15,1.01.25,1.17-.29,2.17-7.74,4.23-15.1,6.95-22.72-1.56-1.93-2.04-4.27-3.68-5.78-.43-.39-.57-.82-.74-1.36-.35-1.15-3.26-8.2-4.07-8.56-.26-.11-.8,0-1.07.07-.18.04-.41-.03-.6-.05-1.66-.12-4.6,1.47-6.06.18-1.15-1.44-7-13.8-5.63-14.8l5.06,7.95c0,.24.19.53.23.75.23,1.34.97,4.52,2.99,4.39,2.88-.17,5.61-3.15,7.21-5.21v-.73c.74-.6.31-1.47.15-2.04-.27-1.01-.75-1.94-1.76-1.64-.06-.2-.02-.44-.03-.66-.02-.35-1.34-7.11-2.87-5.86-.05-.25-.18-.54-.16-.8.3-3.36-4.68-8.95-1.8-9.76,2.02,4.47,9.54,19.56,9.21,22.38-.14,1.22-2.56,1.8-3.59,3,.81,4.29,3.83,8.76,6.56,12.05.2.24.42.46.59.72.17.8.66.73.8-.1l.62-.02c1.77-1.23,4.22-8.71,5.77-11.55.33-.42.4-.98.83-1.38,2.73-2.54,3.85-6.44,6.49-9.43,1.64-1.85,2.41-3.76,1.84-6.33-.26-1.15-.81-1.87-1.9-1.62l-.06-.72-1.84-4.51c-.4-.99-.86-1.26-1.64-1.3l-1.33-.07c-.25-.65-.65-.49-.75.13-1.07,1.4-3.63,3.14-5.47,1.87-2.41-1.67-2.69-4.97-4.02-6.96,4.31-.45,2.62,1.73,5.66,4.31,1.65-.94,3.44-1.18,3.79-2.73.12-.33.7-.5.91-.8.78-.2,6.74-3.07,4.72-4.3-.16-.52.11-1.21-.09-1.71-2.2-5.41-4.63-10.77-7.9-15.61.11-.26-.19-.66-.13-.94.08-1.23-.46-2.41-1.21-3.66-2.15-3.53-2.95-7.47-4.68-11.18-3.22-6.92-5.32-13.97-8.03-21.05l-6.41-16.75c-.6-1.57-.95-2.97-2.65-3.83-2.46,1.42-13.46.43-12.61,4.36.94,4.36,2.9,8.48,5.37,11.71.12.46.47.91.52,1.39.52,4.5,3.35,8.21,5.18,12.64l17.49,42.38c.24.59-.03,1.24-.09,1.62-.08.56-.91.51-1.45.48-3.05-5.2-5.07-10.83-7.63-16.78l-23.3-54.09c.14-.58-.68-.97-1.45-.82l-7.34,1.4c-.58.11-1.09.15-1.3.5-.17.3.07.73.08,1.04.02.48.1.97.07,1.45-.18,2.64,3.86,6.72,3.07,11.17-2.74-2.32-5.04-12.49-8.09-13.13,1.14.24-11.61,1.98-11.25,4.13.03.2-.08.47.02.67-.67.41-.76,1.2-1.16,2.25-.75-.68-1.34-1.38-2.26-1.62-.25-.06-.56.11-.8.03-.99-.33-8.33.95-8,3.12.03.18.01.45,0,.63-1.14,1.3.42,2.94.07,4.43-1.49-.02-1.72-1.81-3.05-2.1-.09-.27-.4-.72-.64-.85.2-.34.22-.77.03-1.13-.19-.37-.66-.6-1.06-.36-.48.28-.99.96-.53,1.45l-1.22.02c-.16-.45-.81-1.25-.5-1.6,4.05-4.6,30.9-10.99,38.72-12.39l12.15-2.17c.44-.08.59-1.01.34-1.12.38-.04.99.07,1.33-.08-1.47,1.66,11.52-.26,9.41-.91.24.01.49-.11.72-.08,3.09.4,15.12.16,15.95-1.37.35-.65,1.62-.3,2.15-.53.45,1.83,20.64-.4,22.44-.78.23-.05.49,0,.72,0,8.12-.17,22.35.52,29.68-.66.56-.09,1.8.08,2.17.53M701.35,91.69c.75,2.07,2.13,4.47,2.63,6.61-.31.59-.33,1.35-1.67,1.67-.21-2.12-1.58-3.02-2.37-4.46-1.06-1.94-1.49-4.25-3.57-5.02-.21-.08-.5-.04-.72-.02,1.92-.86-10.04-1.9-7.92.73l-.49.72c-.25,2.91,1.88,5.26,3.27,7.92l5.41,10.38c.97,1.86,3.15,9.61,4.91,8.4l.07.72,6.02,12.68c1.32,2.78,3.09,5.35,4.78,7.59.09.2.05.51.07.72.04.38.25.69.65.72.04.23.08.49.07.72-.08,1.01,3.82,10.37,5.69,11.58.49.32.75,1,1.02,1.43.49.8,1.09.59,1.75.03,2.45-2.09,5.53-4.19,6.61-7.25.19-.25.46-.45.66-.68.24-.27.54-.5.75-.79.17-.24.45-.44.58-.7,1.7-.83,3.42-2.27,4.46-4.15.61-1.1-.46-2.67-1.21-3.24-.27-.2-.72-.31-.91-.58-.9-1.8-1.66-4.33-3.73-5.05-.28-.1-.42-.5-.64-.67.4-4.99-3.8,3.77-7.35,0-1.86-1.97-2.8-4.95-4.15-6.84,1.26-.84,2.37-1.15,2.77-.57,0,2.27,2.39,4.15,4.25,5.1.17.21.24.72.49.8.55.17.86,0,1.01-.43.09-.26-.13-.87.07-1.13.69-.93,1.83-1.33,2.91-1.62.47-.12.97-.11,1.55-.6.44-.37,0-.69-.17-1.18-.36-1,.04-2.81-.79-3.67-.01-1.05-1.07-2.03.09-4.09,1.64.78,1.57,2.42,2.86,2.65.54,1.21.96,2.46,1.65,3.49-.11,1.23-.16,2.47-.14,3.71-.92.65-2.04,1.68-1.98,2.87.06,1.23.91,2.4,1.99,2.9.88,1.27,1.47,2.99,2.93,3.62.59.25,1.41-.09,2.02-.04,1.69-1.37,3.57-3.04,4.5-5.05,1.09-2.35,4.17-3.63,5.02-6.41.62-2.03-1.93-4.68-2.88-6.62-1.64,1.34-5.28,3.25-6.57.89-5.15-9.42-8.79-19.41-12.63-29.58-1.23-.44-6.93-.64-7.49.16-.17.25.06.7-.03,1-.4,1.38.49,2.54,1.12,3.94l3.56,8.02c.51,1.15.59,2.49,1.89,2.59.09.21.01.5.07.72.09.34.32.61.65.72.05.23.06.49.07.72.14,5.29,6.46,10.39,2.47,10.9-.67-1.36-.83-2.56-1.92-2.73-.06-.47-.26-.94-.3-1.41-.03-.35.24-.75.16-1.23-.1-.58-.79-.7-1.36-.46l-.23-1.2c-.07-.34.24-.75.16-1.23-.1-.57-.81-.7-1.37-.46l-.23-1.2c-.07-.34.24-.76.16-1.23-.1-.57-.81-.71-1.37-.47-.23-.64-.86-1.28-.78-2.03.03-.27.58-.48.69-.71.16-.36.09-.8-.26-.88-.44-.1-.79-.1-1.09.02-.03-.4-.24-.8-.25-1.2,0-.36.25-.75.17-1.25-.09-.58-.81-.67-1.38-.46-.14-.57-1.06-1.51-.81-2.14.66-1.52-.67-3.38-2.03-4.16l-2.19-4.41c-.14-.29.12-.84-.08-1.16-.84-1.42-17.89-.01-11.58,3.04M748.67,111.15l-6.8-20.59c-4.43-.57-8.3-.91-12.97-.87l11.18,26.79c3.11-1.98,5.81-3.14,8.59-5.34M746.33,90.45c-.09,1.14.19,2.34.64,3.66l4.79,14.1c.55,1.62.84,3.53.07,5.19-.49,1.06-2.77,1.34-3.62,2.85-.86,1.54,1.64,3.85,2.43,5.46l7.9-6.77c.26-.22.55-.43.79-.66.18-.17.61-.29.72-.49,1.08-.23,4.29-1.52,3.92-3.11-.69-3.01-3.45-17.81-3.71-18.39-1.06-2.31-15.47-3.42-13.93-1.84M668.13,92.66l12.65,34.92c4.87,13.44,11.08,25.66,17.54,38.41,1.31,2.58-2.86,4.94-4.67,5.52-.5.16-1.17.07-.95,1.05.12.57.06,1.03.84,1.07.24.17.36.54.6.69.06.6.36,1.14.87,1.48.37.4.63.88.79,1.39.5,1.32.75,3,2.14,3.61l1.28.06c1.31.06,1.71-1.8,2.25-2.92.26-.12.37-.59.64-.67.93-.29,5.61-5.87,5.15-6.57.18-.2.39-.57.64-.67,1.25-.52,2.24-1.55,2.28-2.95.22-.21.44-.43.64-.66,1.79-.89,2.92-2.6,3.71-4.4.25-.16.38-.53.65-.66.68-.33,1.42-.48,1.79-.89,1.07-1.22-.13-6.55-1.9-5.64.04-.23-.13-.51-.06-.72.55-1.66-4.34-10.23-5.71-11.61-.39-.39-.42-.96-.72-1.36-1.17-5.02-3.89-9.58-6.78-14.17-3.21-5.11-5.88-13.62-8.44-14.84-.09-.17-.07-.52-.07-.72.05-1.38-3.74-9.7-5-9.41-.09-.17-.06-.52-.06-.72-.02-1.74-3.45-11.98-7.77-10.91-7.79,1.93-13.42-.74-12.32,2.31M763.68,92.66c-.31,1.27,1.8,15.27,3.56,14.86.62.4.61-.05.77-.52.12-.27.52-.42.71-.65,1.3-.54,2.96-.62,2.92-2.29-.01-.64,1.06-.98,1.44-1.3,2.59-1.06,5.11-2.69,7.24-4.52,3.34-2.87,6.2-2.88,5.02-4.09-2.22-2.28-6.1-1.26-9.37-1.59-1.78-.18-12.85-1.82-12.29.1"/><path class="g" d="M610.82,26.77c11.21,9.53,27.81,17.38,42.9,19.55,5.48.79,10.95,2.16,16.55,2.11,4.05-.04,7.66.19,11.66.53,3.29.28,6.66-1.21,10.11-.56,4.16.79,16.47-.96,20.98-1.2l7.5-.41,9.12-1.02c3.67-.41,17.3-.95,21.03-.67l9.4.7c7.79.58,17.27,3.52,24.44,7.42,7.52,4.09,12.75,11.58,14.9,20.08,1.29,5.08.75,16.8-4.69,19.98-1.31-.03-1.64-1.7-2.73-2.18,8.39-12.81,2.45-27.98-11.3-35.22-11.46-6.04-26.62-6.69-39.46-6.22l-13.04.48-7.96.9-8.78.54-9.31.91-14.42.79c-3.39.19-19.6-.56-22.81-.95-8.24-.98-15.94-2.1-23.71-4.56-11.57-3.66-22.09-8.53-31.24-16.53-1.04-.9-2.29-1.55-3.38-1.62,1.3-1.59,2.72-2.45,4.26-2.85"/><path class="i" d="M610.82,26.77c-1.54.4-2.96,1.26-4.26,2.85-6.51,3.17-14.21,2.05-19.21-2.96-5.27-5.28-6.99-13.53-3.02-20.16,3.47-5.81,10.35-7.49,16.64-5.97,5.48,1.33,9.36,5.31,11.37,9.38,2.96,6.01,1.13,11.05-1.52,16.85"/><path class="h" d="M474.08,269.92c15.96,19.21,29.24,40.58,43.27,61.65,5.76,8.65,10.71,16.75,15.54,25.97,10.12,19.35,20.82,37.87,32.5,56.43.99,1.85-2.54,3.64-3.34,4.31l-.29-1.46c1.4.34,1.8-.61,2.03-1.96.17-1-.24-1.93-1.51-2.66-.25,1.49-.83,3.08-.52,4.63-2.48-.59-4.59,1.96-5.21,4.2-2.18.28-4.26,1.43-6.89,1.95,2.16,3.27,4.28.87,6.34.38-.61,1.27-2.25,1.47-3.49,1.96-1.65.65-2.18-1.05-3.14-2.05,1.38-4.85-5.81-9.79-4.22-11.44,2.54.88,5.48,11.51,9.09,8.36,2.27-1.98,4.21-3.77,6.93-5.89-11.61-17.83-21.65-36.09-31.65-54.86-4.53-8.5-9.02-16.13-14.36-24.14l-24.9-37.31-18.25-25.03c-2.64,3.21-4.75,6.01-6.73,9.22-.11,1.62,1.44,3.19,1.6,4.38-2.13-.77-3.85-3.37-3.01-5.74,1.43-.93.54-2.09-.62-1.18-.42.5-.71,1-1.05,1.1-.26.07-.51-.6-.39-.79l7.88-11.25c.17.46.29.36.6.06-.43.84.46,1.83,1.34,1.88.77.04,1.65-.39,2.45-.71"/><path class="h" d="M558.28,421.07c.28.17.3.43.03.62-.52.38-1.1.69-1.66,1,.09-.53-.24-1.17-.1-1.68.51-.07,1.29.29,1.73.06"/><path class="f" d="M194.21,197.54c-.82,1.82-2.49,3.16-4.15,4.75-24,22.84-31.93,49.26-21.55,80.85-.87.99-2.96,1.03-4.1,1.37-11.48-38.19-.39-64.97,28.32-90.49.25,1.05,1.19,1.93,1.48,3.53"/><path class="f" d="M91.24,328c-.81,1.26-2.47,1.56-3.5,2.42l-13.96-22.72c-11.37-18.51-30.66-37.61-48.36-49.45.11-1.44,1.09-2.6,2.65-3.33,11.59,8.12,22.15,17.36,32.04,28.05,12.63,13.67,21.56,29.54,31.13,45.03"/><path class="h" d="M194.21,197.54c-.28-1.6-1.22-2.48-1.48-3.53-2.53-10.38,2.96-20.25,11.47-23.01,9.61-3.11,20.89,1.67,22.51,11.54,1.4,8.56-3.52,16.24-10.92,19.58-7.68,3.47-15.2.54-21.59-4.58M214.05,198.48c7.21-2.99,11.37-11.43,7.5-18.35-3.92-7-13.87-8.16-19.8-3.2-4.73,3.95-7.38,10.32-4.74,16.01,2.89,6.24,10.59,8.21,17.05,5.54"/><path class="h" d="M28.07,254.92c-1.56.73-2.53,1.89-2.65,3.33-1.94.59-3.21,1.69-4.84,2.37-7.17,3-14.93.51-18.37-6.55-2.92-6.01-2.93-13.07-.15-19.11,2.67-5.8,8.84-7.73,14.43-5.27,7.72,3.4,13.06,10.24,13.01,19.01-.01,2.12-1.81,4.18-1.43,6.22M25.17,244.92c-1.59-6.96-7.72-11.4-14.17-12.77-6.55,1.97-7.71,9.55-6.83,15.36,1,6.61,5.6,10.94,12.11,10.03,5.71-.8,10.42-5.9,8.89-12.63"/><path class="h" d="M490.96,248.66c-1.43-1.01-2.98.02-4,1.6l-5.15,7.99,11.98,14.46c-2.67-.08-8.8-10.54-11.81-11.5-1.28-1.14-.58-4.1-2.7-4.22l-.24-1c.44-.74.81-2.16,1.77-2.56,2.74-.09,4.88-2.55,4.91-5.21l3.67-1.13c.75-.23,1.36,1.08,1.56,1.57"/><path class="h" d="M734.74,86.11c-7.32,1.18-21.56.5-29.68.67,9.57-2.27,19.78-1.68,29.68-.67"/><path class="h" d="M704.33,86.78c-1.8.38-21.99,2.6-22.44.78,2.08-.89,4.25-.41,6.5-.49,5.48-.19,10.71-.89,15.94-.28"/><path class="h" d="M755,87.95c-3.71.81-7.5.1-11.56-.49-2.39-.35-5.04,1.01-6.54-.82,7.97-.29,2.94-1.15,12.45.43,2.06-.31,4.09-.23,5.64.88"/><path class="h" d="M783.96,90.41c2.03,1.68-15.59.15-14.48-.88,2.56-.95,5.06-.36,7.94.1,2.36.37,4.73-.54,6.54.78"/><path class="h" d="M679.74,88.08c-.83,1.53-12.85,1.77-15.95,1.37,1.47-1.24,13.86-2.17,15.95-1.37"/><path class="h" d="M768.76,89.45c-.9.23-12.4.25-12.31-1.31,1.61-.79,3.32.43,5.18.44,2.51,0,5.09-.52,7.12.87"/><path class="h" d="M485.73,248.22c-.03,2.66-2.17,5.12-4.91,5.21,1.9-4.38,5.68-8.33,7.99-12.53,2.05.78-5.63,7.82-3.08,7.33"/><path class="h" d="M663.08,89.53c2.11.65-10.88,2.58-9.41.91-.73-.51,10.11-1.81,9.41-.91"/><path class="h" d="M791.99,91.1c1.09.48,1.42,2.15,2.73,2.18-.07.54-.49.93-.67,1.41-2.51-4.07-5.35-1.35-7.77-3.77,1.89-.1,3.91-.61,5.71.18"/><path class="h" d="M614.74,381.38c1.15-3.06,2.38-6.64,4.99-8.67,1.07.03-4.51,9.4-4.99,8.67"/><path class="h" d="M725.87,154.19c-3.89,5.61-9.11,10.16-13.45,15.78-1.27,1.65-2.23,3.34-3.79,4.38,1.33-3.4,8.7-11.9,11.96-14.9,1.24-2.41,2.99-4.38,5.28-5.26"/><path class="h" d="M742.49,136.01c-1.96,3.32-4.94,6.09-7.81,8.67.46-1.88,5.92-8.23,7.81-8.67"/><path class="h" d="M745.01,133.22c.59-2.47,2.8-3.98,4.9-5.26-1.25,2.05-2.86,3.97-4.9,5.26"/><path class="h" d="M763.08,115.15c-1.21,1.99-3.21,3.65-5.17,4.96,1.32-2.02,2.62-4.69,5.17-4.96"/><path class="h" d="M479.05,255.98l.24,1c-3.19,3.78-5.41,8.36-8.99,11.76-.31.3-.43.4-.6-.06,1.78-2.54,4.12-4.69,5.55-7.86.88-1.95,2.52-3.52,3.81-4.85"/><path class="h" d="M733.74,145.55c-1.46,2.8-4.02,4.94-6.29,7.12-.91-1.23,5.34-6.76,6.29-7.12"/><path class="h" d="M508.23,207.14c.11-1.79.87-3.49,2.24-4.65.93,1.44-.6,4.6-2.24,4.65"/><path class="h" d="M707.71,175.1c-1.88,3.95-5.42,6.8-7.67,10.87-.57,1.04-.87,2.38-2.06,2.31.41-2.01,7.56-12.16,9.73-13.18"/><path class="h" d="M491.69,236.5l3.22-5.8c.69-1.25,1.21-2.43,2.37-2.83-1.57,3.13-2.49,6.8-5.59,8.63"/><path class="h" d="M501.66,219.24c.31-1.46.83-2.4,2.1-3.74,1.17-1.22,1.43-3.11,2.34-4.31.39-.32.69.18.48.59l-4.03,7.72c-.34.65-1.02.41-.89-.26"/><path class="h" d="M499.1,224.49c-.05.65.03,1.34-.17,1.91-.25.73-.96.92-1.63.87.1-1.19.91-2.05,1.8-2.78"/><path class="h" d="M612.52,385.73c-1.29,2.89-3.17,5.59-5.21,8,.98-2.96,2.32-6.66,5.21-8"/><path class="h" d="M595.7,411.1c1.18-3.86,8.26-13.39,11.04-16.69-.31,2.44-9.54,14.98-11.04,16.69"/><path class="h" d="M774.46,105.97c-.48,1.37-1.92,2.01-3.2,2.97l-7.43,5.53c3.07-3.27,6.62-6.53,10.63-8.51"/><path class="h" d="M594.98,412.29c-1.65,2.24-2.57,5.46-5.07,6.73.68-2.83,3.12-4.88,4.82-7.41.47.3.42.51.26.68"/><path class="h" d="M778.95,103.2c-1.26.71-2.15,2.14-3.64,2.52.04-1.62,2.19-3.47,3.64-2.52"/><path class="h" d="M614.69,382.11c-.19,1.26-.98,2.32-2.11,2.9.35-1.29.41-3.23,2.11-2.9"/><path class="h" d="M506.78,210.02c.17-.67.26-1.27.8-1.75.74-.18.9.94.31,1.5-.29.28-.99,1.33-1.11.25"/><path class="h" d="M622.48,368.16c.12.7-.72,1.13-.85,1.64-.9-.06-.26-.66-.03-1.25.13-.34.72-1.57.88-.39"/><path class="h" d="M624.11,365.46c-.06.67-.58,1.11-.95,1.57-.68.22-.8-.89-.58-1.25.31-.51,1.08-.31,1.54-.32"/><path class="h" d="M589.27,419.74c-1.02,1.94-2.64,3.67-4.25,5.14,1.02-1.94,2.14-4.57,4.25-5.14"/><path class="h" d="M491.48,237.2c-.05.34.07.75-.09,1.14-.2.53-.91.55-1.43.45.22-.4.05-1.1.56-1.43.27-.18.61-.26.95-.16"/><path class="h" d="M448.14,300.4c.22-.73.69-1.38,1.45-1.58l-.26,1.05c-.1.42-.64.73-1.19.53"/><path class="h" d="M755.73,122.2c-1.23,1.22-2.57,2.33-3.68,3.67.27-1.87,1.8-3.41,3.68-3.67"/><path class="h" d="M743.36,135.27c-.02-.65.38-1.1.96-1.3-.02.61-.42,1.07-.96,1.3"/><path class="h" d="M441.53,310.46c-.17-1.16.74-1.73,1.59-2.21,1.64.06-.13.72-1.59,2.21"/><path class="h" d="M445.77,304.65c.13-.46.28-.91.47-1.35.5-.22.46.19.42.4-.08.41-.55.97-.88.95"/><path class="h" d="M444.49,306.16c.3-.16.48-.59.71-.85-.22.3-.45.59-.71.85"/><path class="h" d="M450.37,297.73l.68-.98c.35.15.48.42.32.66-.3.44-1.05,1.19-1,.33"/><path class="h" d="M750.63,127.32c.24-.27.49-.53.76-.77-.25.26-.48.54-.76.77"/><path class="h" d="M756.41,121.53c.25-.28.52-.53.81-.78l-.81.78Z"/><path class="h" d="M499.36,223.59l.91-1.45c.85,0,.67.54.31.79-.53.37-.84.57-1.22.66"/><path class="f" d="M527.72,187.48c.29.31.39.97.64,1.36,4.2,6.39,8.42,12.88,13.18,18.8.19.23.38.54.62.72-.07,1.02.54,1.89,1.47,2.29.09.52.44.91.73,1.32.17.24,0,.74.16,1.06.22.44.65.73,1.21.58v.57c2.11,3.2,3.41,7.19,6.47,9.5.14.5.46.95.78,1.36.23,1.3.63,3.07,2.19,3.02.81,2.1,2.21,3.95,3.64,5.68.23.28.45.56.74.78.16.5.41.98.77,1.37.15.31.38.58.67.78.11.24.12.52.21.76,1.39,3.84,4.48,6.82,6.81,10.46.53.83.49,2.15,1.65,1.79l.69,1.38c1.33,2.66,3,5.28,5.14,7.36l.75,1.31c1.22,2.12,2.26,4.57,4.29,6,.72,1.56.74,2.61,2.3,3.56,1.4,2.55,3.16,4.93,4.97,7.19.53.66.83,1.42,1.48,2.04,1.09,1.06,1.23,3.05,2.77,3.68.06.22-.07.53.03.72.5.93,1.24,1.72,2.2,2.17.06.19,0,.44.02.63.02.34.01.72.2,1.08.21.4.72,1.07,1.28.66.04.49.45.86.69,1.25.16.26.03.72.19,1.04.21.43.64.74,1.2.56-.01.18-.05.44.02.61.14.35.31,1.06.8.8.14.5.51.83.77,1.25.66,1.06,1.13,2.27,2.14,3.06,0,.54.57.89.74,1.32.4,1.02.74,2.37,2.03,2.36.08,1.4,1.5,2.41,2.28,3.42.96,1.23,1.38,2.97,2.84,3.66.06.19,0,.46.1.63,1.47,2.33,2.76,4.98,4.94,6.69l.77,1.33c.54.94,1.91,2.42,2.06,3.61-.68,1.61-3.08,2.01-3.32,3.7-1.43.31-3.33,2.19-3.74,3.6-1.39.57-2.5-.49-3.56-1.33-.29-.23-.53-.58-.75-.87-.19-.25-.64-.53-.7-.82-.09-.49-.68-.82-.8-1.23-1.28-4.39-6.97-10-10.08-13.88-.02-.16.1-.44,0-.56-.85-1.17-1.27-3.02-2.86-3.16-.21-.42-.57-.85-.73-1.27-.51-1.36-1.37-2.59-2.8-3.06-.62-2.9-2.94-5.31-5.15-7.23l-.05-.61c-.06-.71-.77-1.28-1.46-1.58-.14-.47-.42-.9-.77-1.24-.22-.7-.66-1.33-1.36-1.59-.14-.59-.68-.95-.92-1.46-.67-1.39-1.28-2.91-2.69-3.68-.11-.5-.56-.84-.78-1.27-1.96-3.65-4.44-7.18-7.37-10.12-.19-.19-.35-.6-.59-.7-.95-2.85-3.28-5-5.07-7.38-.5-.66-.64-1.59-1.44-2.05-.26-.15-.56-.58-.73-.83-.41-.59-.68-2.03-1.54-2.22-1.93-3.8-10.08-14.31-13-17.32-.2-.2-.34-.53-.58-.68.02-.66-.49-1.03-.88-1.49l-.6-.69c.39-1.26-.99-1.54-1.53-2.21-.78-.95-1.43-3.07-2.77-3.51-2.39-4.17-5.2-8.41-8.82-11.58-1.38-3.1-3.92-5.69-6.38-8.02.02-.65-.43-1.06-.87-1.48l-.8-.77c-.33-1.2-.89-2.39-2.07-2.9-.42-.94-1.23-1.6-2.15-2.03-.26-.66-.71-1.23-1.36-1.53-.05-.21.02-.46-.04-.66-.3-.98-.57-1.98-.71-2.99-.03-.27.08-.56.02-.82,2.11-1.95,3.33-5.03,4.17-7.77.49-.17.41-1.18.73-1.47,1.51-1.34,2.58-3.16,2.95-5.16.05-.26.21-.49.28-.74,1.9,0,2.87,1.78,4.1,3.07"/><path class="g" d="M545.15,411.82c-.12-.49-.46-1.03-.72-1.47-.23-.38,0-1.05-.49-1.47-.26-.23-.51-.43-.91-.14-.13-.51-.44-.96-.75-1.37.03-1.15-.44-2.28-1.52-2.76-.66-1.21-1.12-2.88-2.29-3.74-.21-1.52-.82-3.22-2.36-3.76-.04-.39-.24-.79-.34-1.17-.29-1.03-5.89-12.76-7.08-11.79-.13-.38-.14-.85-.2-1.25-.08-.49-.09-1-.46-1.51-.24-.33-.46-.61-.89-.17-.06-1.34-1.11-2.33-1.54-3.53-.52-1.43-.92-3.14-2.47-3.74-.08-.38-.23-.79-.38-1.15-.53-1.33-8.27-16.27-9.8-16.22-.18-.43-.35-.9-.47-1.35-.39-1.48-.86-3.27-2.48-3.71-.1-1.04-.78-3.03-1.88-3.48-.9-3.04-2.87-6.06-5.29-8.09-.03-1.04-1.09-3.04-1.95-3.62-.4-1.43-.88-3.09-2.38-3.62-1.01-3.5-4.14-5.99-5.62-9.27-1.38-3.07-3.11-6.29-5.66-8.56.05-1.01-1.13-1.64-1.49-2.42-1.08-2.4-2.6-4.82-4.8-6.29l-1.1-2.29c-1.88-3.9-4.5-7.64-7.63-10.69-.28-.27-.52-.82-.85-1-.65-1.9-1.89-3.66-3.62-4.69-.28-.16-.61-.7-.83-.93-.16-1.19-1.71-2.76-1.6-4.38,1.98-3.21,4.09-6.01,6.73-9.22l18.25,25.03,24.9,37.31c5.34,8,9.84,15.64,14.36,24.14,10,18.77,20.04,37.04,31.65,54.86-2.72,2.12-4.66,3.91-6.93,5.89-3.61,3.14-6.54-7.48-9.09-8.36"/><path class="e" d="M490.96,248.66c.23.55.8,1.18,1.27,1.54.13,1.8,2.14,2.72,3.28,4.17l13.02,16.68,8.12,11.56,26.78,39.62,6.51,10.17c1.94,3.03,3.83,5.76,5.76,8.79l18.57,29.19,10.5,17.6c-2.92,3.43-5.84,5.93-9.15,8.73-3.1-3.51-4.8-9.46-6.45-10.14-.05-.24-.28-.61-.45-.8-.03-2.03-1.56-3.4-2.61-5.25l-9.72-17.01-5.15-8.67c-11.53-19.44-23.59-38.05-37.07-56.17l-10.49-14.09c-2.99-4.02-5.91-7.88-9.27-11.2-.21-.21-.45-.46-.63-.69l-11.98-14.46,5.15-7.99c1.02-1.58,2.56-2.61,4-1.6"/><path class="i" d="M459.69,307.57c.25.33.39,1.01.64,1.4,4.11,6.42,8.03,13.16,12.99,18.9,0,.21-.02.46.05.65.24.66.73,1.21,1.38,1.46l.04.72c.28.65.76,1.2,1.42,1.47.04.21-.02.46.05.66.48,1.49,1.11,3.57,2.83,3.82.05.21.06.44.14.65,1.05,2.91,2.77,5.88,5.06,7.96.06.23.02.51.12.73,1.15,2.56,2.45,5.73,4.84,7.23-.01.2.03.41.06.61.13,1.13,4.45,9.05,5.41,8.94l.37,1.22c.19.64.28,2.11,1.24,1.7.04.36.11.78.2,1.13.47,1.7,1.22,3.58,2.84,4.41l.11.75,10.91,22.4c.44.91,1.2,1.39,1.91,1.35.22.41.08,1.08.18,1.54.11.46.04.96.43,1.49.18.25.39.61.8.21.05.36.03.82.15,1.16,1.53,4.58,3.65,9.22,6.58,13.03.21.76.28,1.55.68,2.25.19.33.29.77.76.78.07.21.05.46.12.67.38,1.37.82,2.84,2.01,3.7.07.74.66,1.37.8,2.08.88,4.28,5.72,8.11.72,11-2.28,1.32-4.12,3.57-7.01,3.58l-3.71-7.48c-.36-.72-.85-1.17-1.41-1.27-.08-.24-.13-.54-.14-.79-.05-1.23-.53-2.52-1.72-3.03.02-.41-.38-.83-.43-1.23-.09-.66-.28-2.12-1.24-1.71-.01-.4-.19-.81-.23-1.2-.1-.91-.31-2.14-1.4-2.23.02-.2-.04-.46-.09-.66-.41-1.69-.92-3.7-2.55-4.54,0-.38-.2-.78-.28-1.15-.4-1.76-5.4-13.44-6.9-14.04,0-.37-.28-.86-.42-1.21-2-5.02-4.21-10.36-7.68-14.47-.18-.51-.32-1.07-.44-1.6-.25-1.09-.67-2.22-1.76-2.68-.01-.27-.17-.54-.21-.81-.33-1.88-5.46-11.7-7.02-12.32l-.18-.71c-.17-.66-.27-2.14-1.24-1.73-.01-.38-.13-.77-.19-1.15-.14-1-4.46-9.29-5.69-9.4-.01-.24-.1-.5-.16-.73-.68-2.52-2.11-5.04-4.21-6.61l-.27-.81c-.81-2.39-1.97-5.01-4.09-6.42-.06-.23-.15-.45-.18-.68-.38-2.56-2.32-4.57-3.8-6.97l-13.1-21.28c1.88-2.95,3.79-5.61,5.95-8.22l5.95,7.5Z"/><path class="f" d="M456.28,449.21c1.86,5.64-3.19,5.14-10.19,8.34l-10.23-34.2-18.22-59.31-8.64-23.75,9.05-5.67c9.63,20.9,17.02,42.13,23.51,64.04l4.35,14.69c3.57,12.06,6.43,23.93,10.38,35.88"/><path class="e" d="M409.64,458.35c-2.08-4.76-2.62-9.43-3.8-14.47l-14.51-62.17c-2.31-9.91-4.87-19.04-6.14-29.01,3.81-1.73,6.9-3.79,11.19-4.99l14.12,59.79c3.84,16.24,7.58,31.76,10.38,48.36-3.64,1.31-6.72,1.45-11.23,2.48"/><path class="i" d="M241.78,378.57c-3.89-.81-6.07-1.62-9.11-2.68-.67-4.64-.31-9.29.58-14,.7-3.69.25-7.31.74-10.94,1.13-8.26,1.13-16.18,1.66-24.36.27-4.14.61-8.15.76-12.23l.67-18.28c4.61,1.94,8.82,4.2,12.56,7.3-.28,4.9-.85,9.46-1.32,14.31l-1.49,15.15c-.48,4.89-.93,9.57-1.5,14.5l-3.56,31.23Z"/><path class="g" d="M336.92,443.37c-.42-3.67-.63-7.28.32-10.76.2-.72,2.25-19.93,2.61-22.95l1.4-11.64,1.52-15.13c.5-4.96,1.31-9.51,1.3-14.62,0-3.14.55-6.93,1.42-9.67,2.06-.95,5.23.15,6.94.93.33,6.4-.39,12.05-.75,18.21l-.8,13.78c-.42,7.12-.94,13.9-1.53,20.97l-1.39,16.67c-.4,4.81-1.69,9.39-1.24,14.3-3.42.27-5.93.29-9.8-.1"/><path class="e" d="M213.53,285.92c.02.27,0,.45,0,.53l.12,15.42c0,.99-.04,1.51-.04,2l-.43,52.52c-.44,2.31-7.07,2.78-7.98.85l-.65-18.42c-.11-3.19-.34-5.8-.57-8.88l-.88-12.23-.65-8.02-.79-10.04c-.12-1.56-1.13-14.08-1.18-13.88.24-1-.23-1.63,0-2.11l13.03,2.26Z"/><path class="i" d="M318.1,423.23c-.47,4.05-.41,7.84-2.25,11.05-3.61-.29-6.64-.6-9.87-1.2,3.64-16.16,6.33-31.4,8.16-47.41l3.96-34.61c2.69.03,5.2,1.22,7.6,3.07l-3.62,34.51-3.98,34.59Z"/><path class="f" d="M266.22,379.4c-1.04,4.39-1.83,8.18-3.49,12.07-2.12-.53-5.46-1.56-6.31-3.52l7.74-36.44,6.95-32.88c3.62,2.01,5.6,4.18,8.22,6.54l-5.01,20.06-8.1,34.17Z"/><path class="g" d="M161.3,339.26c-2.66,2.16-5.7,3.73-9.17,4.51-4.83-12.32-10.43-23.6-17.67-34.42-.57-.85-1.62-2.95-1.19-3.88,3.28-2.93,7.28-4.96,11.25-6.81,2.7,4.98,4.07,9.66,6.23,14.45,3.91,8.66,7.6,16.98,10.53,26.14"/><path class="e" d="M122.59,349.81l-9.7-14.61c-2.44-3.67-3.95-7.64-5.7-11.88l7.92-5.75c4.26,10.03,8.68,19.08,14.28,28.24-2.05,1.89-3.77,2.93-6.8,3.99"/><path class="h" d="M213.62,303.87c.42-.3.61.28.65.85l.06,49.88c0,1.67-.18,2.71-1.21,3.56-1.57,1.29-6.37.99-8.5.41-1.63-5.41-1.01-10.7-1.26-16.21l-.74-16.06-1.52-20.93c-.29-4.01-2.34-18.9-.6-19.6.05-.2,1.06,12.32,1.18,13.88l.79,10.04.65,8.02.88,12.22c.22,3.08.45,5.69.57,8.88l.65,18.42c.91,1.94,7.54,1.46,7.98-.85l.43-52.52Z"/><path class="f" d="M90.4,355.41c.52,1.82-4.85,1.95-5.73.65-1.69-4.08-3.48-8.69-4.74-13.18-.55-1.94,2.17-3.62,3.97-3.27,1.56,5.43,4.35,9.84,6.5,15.81"/><path class="h" d="M459.69,307.57l-5.95-7.5c-2.16,2.61-4.07,5.27-5.95,8.22l13.1,21.28c1.48,2.4,3.42,4.4,3.8,6.97.7,2.89-7-10.23-5.55-7.21-1.84-3.85-4.16-7.67-7.13-10.83-.49-3.69-3.54-6.42-5.68-9.76.98-2.13,5.89-10.08,7.91-9.86.92.1,7.16,9.31,5.47,8.69"/><path class="h" d="M500.15,254.65c.89.89,2.11,1.59,2.25,2.93-6.5-2.08,7.34,13.3,8.68,15.27l11.76,17.27c8.56,12.58,16.89,24.81,25.16,37.59l12.22,18.86,11.63,18.21,11.06,18.48c.89,1.48,3.02,3.65,2.02,5.51-1.71,3.19-5.11,4.99-7.2,7.89-.64.88-1.65,1.08-2.35.97-.96-.15-1.45-.93-1.78-1.98-1.07-3.43-3.78-5.79-4.42-9.06,1.65.68,3.34,6.63,6.45,10.14,3.31-2.8,6.22-5.3,9.15-8.73l-10.5-17.6-18.57-29.19c-1.93-3.03-3.82-5.77-5.76-8.79l-6.51-10.17-26.78-39.62-8.12-11.56-13.02-16.68c-1.13-1.45-3.14-2.37-3.28-4.17,1.63.82,3.04,2.1,4.27,3.78,1.1,1.78,2.23,3.2,4.18,4.25.71-2.04-.54-2.59-.53-3.58"/><path class="h" d="M481.98,261.21c-.24.12-.41.48-.67.57-.43.14-.92.12-1.37.18-.24.03-.48-.04-.72-.02-1.3-1.02-1.35,1.79-2.17,2.18l-.03.76c-.2.23-.36.48-.59.69-1.65-.11-1.86,1.56-2.1,2.9l-.26,1.46c-.8.32-1.67.75-2.45.71-.88-.05-1.77-1.03-1.34-1.88,3.58-3.4,5.8-7.99,8.99-11.76,2.12.12,1.42,3.08,2.7,4.22"/><path class="h" d="M521.81,210.49l.8.77c-.09.72.43,1.07.87,1.48,2.46,2.33,5,4.91,6.38,8.02-.18.38-.14,1.74-.62,1.96-1.71.81-3.99-4.62-5.57-5.93-1.89-1.57-3.15-3.43-3.87-5.54l.75-.76h1.25Z"/><path class="h" d="M507.22,380.06c1.41,1,1.93,2.71,2.5,4.29-1.16-.28-1.14-2.2-3.55-1.71,2.08,4.84,3.96,8.96,6.14,13.08-.72.04-1.47-.44-1.91-1.35l-10.91-22.4c1.14-1.31,5.42,9.65,6.82,11.02,1.19-1.21.69-2.2.91-2.93"/><path class="h" d="M473.32,327.87c-4.96-5.74-8.88-12.48-12.99-18.9,1.31.4,2.11,1.55,2.97,2.82l8.45,12.52c.82,1.21,1.52,2.29,1.57,3.55"/><path class="h" d="M568.73,385.79c-4.14-4.76-7.1-10.6-10.15-16.47-2.65-5.11-5.51-9.61-8.46-14.64-9.77-16.66-20.29-32.29-31.42-48.14l-8.37-11.92-13.99-17.9c-.9-1.15-2.21-1.84-1.91-3.32,3.35,3.31,6.28,7.18,9.27,11.2l10.49,14.09c13.48,18.12,25.54,36.73,37.07,56.17l5.15,8.67,9.72,17.01c1.05,1.84,2.58,3.21,2.61,5.25"/><path class="h" d="M459.14,329.32c-.44.33-.95.58-1.49.67-1.36-1.19-1.59-3.35-3.19-4.3-.9-.53-.86-1.42-1.34-2.16-.2-.91-.69-1.74-1.5-2.23l-.58-.68.1-1.45c.35-.15.64-.39.87-.68,2.97,3.16,5.29,6.98,7.13,10.83"/><path class="h" d="M522.75,372.78c-1.57.81-9.32-15.06-9.8-16.22,1.52-.05,9.26,14.89,9.8,16.22"/><path class="h" d="M513.41,428.45c.57.11,1.06.56,1.41,1.27l3.71,7.48c2.89,0,4.73-2.26,7.01-3.58,5-2.89.16-6.72-.72-11,.85-1.27,4.59,7.6,4.46,8.48-.38,2.54-3.66,3.29-5.53,4.94-1.3,1.15-4.61,3.62-5.93,1.76-2.05-2.89-3.33-6.29-4.4-9.36"/><path class="h" d="M498.01,396.65c-1.24,1.28-7.44-13.8-7.68-14.47,3.47,4.11,5.67,9.44,7.68,14.47"/><path class="h" d="M213.66,301.87l-.12-15.42c.42-.48,1.48.1,1.48.8v13.8c0,.7-.93,1.23-1.36.82"/><path class="h" d="M505.33,411.9c-.46.16-.98-.21-1.24-.88-1.83-4.64-5.7-11.06-5.66-13.16,1.5.6,6.5,12.28,6.9,14.04"/><path class="h" d="M626.94,358.79c-.7-.02-1.4,0-2.1.06.17-.92.39-1.84.5-2.78l.07-.6,5.4-6.33-3.87,9.64Z"/><path class="h" d="M487.92,377.1c-1.59-.1-6.51-10.32-7.02-12.32,1.56.62,6.69,10.44,7.02,12.32"/><path class="h" d="M479.82,303.86c-.87,1.5-8.65-10.33-7.63-10.69,3.13,3.04,5.75,6.79,7.63,10.69"/><path class="h" d="M535.77,395.92c-1.47.49-6.76-10.83-7.08-11.79,1.19-.97,6.79,10.76,7.08,11.79"/><path class="h" d="M520.45,413.15c-2.93-3.82-5.05-8.46-6.58-13.03,1.3-.02,6.05,11.1,6.58,13.03"/><path class="h" d="M561.76,416.81c-.31-1.54.27-3.14.52-4.63,1.27.73,1.68,1.67,1.51,2.66-.24,1.36-.63,2.3-2.03,1.97"/><path class="h" d="M556.55,421.01c-.14.51.2,1.15.1,1.68-.24.13-.37.59-.65.65-2.06.48-4.18,2.88-6.34-.38,2.63-.52,4.7-1.67,6.89-1.95"/><path class="h" d="M561.76,416.81l.29,1.46c.08.41.03.91-.07,1.33-.17.73-.1,1.57-.72,2.34-1.35-.71-2.1-1.34-2.98-.88-.44.23-1.23-.13-1.73-.06.62-2.24,2.73-4.79,5.21-4.2"/><path class="h" d="M201.34,359.73l-.08-9.47c0-1.67.2-3.41,0-5.07-.26-2.18-.51-3.56-.57-5.2.41-.36,1.29.19,1.29.85l-.03,18.07c0,.53-.19,1.12-.62.81"/><path class="h" d="M213.53,285.92l-13.03-2.26c0-.41-.11-1.39.41-1.42-1.41.06,13.52,2.1,12.62,3.68"/><path class="h" d="M479.29,361.19c-1.56.63-5.63-8.14-5.69-9.4,1.23.1,5.55,8.4,5.69,9.4"/><path class="h" d="M492.87,323.43c-1.21.08-5.76-6.51-5.66-8.56,2.55,2.28,4.28,5.49,5.66,8.56"/><path class="h" d="M494.72,362.76c-.96.11-5.28-7.81-5.41-8.94,1.49-.56,4.95,7.43,5.41,8.94"/><path class="h" d="M508.12,348.03c-1.5-.61-5.24-6.4-5.29-8.09,2.42,2.03,4.39,5.06,5.29,8.09"/><path class="h" d="M489.26,353.22c-2.39-1.5-3.69-4.67-4.84-7.23,1.05-.24,4.92,5.82,4.84,7.23"/><path class="h" d="M468.96,343.64c-2.01-1.5-3.42-4.01-4.09-6.42,2.13,1.41,3.28,4.04,4.09,6.42"/><path class="h" d="M484.3,345.26c-2.29-2.08-4.01-5.05-5.06-7.96,2.36,1.9,4.29,5.01,5.06,7.96"/><path class="h" d="M473.44,351.06c-2.23-1.31-3.39-4.2-4.21-6.61,2.1,1.57,3.53,4.09,4.21,6.61"/><path class="h" d="M200.51,334.33l-.7-7.96c.67-.19.62-.98,1.33-1.49.02,1.23.65,10.67-.63,9.45"/><path class="h" d="M199.83,324.26c-.24-3.22-.42-5.57-.62-8.14,2.24-2.11,1.36,10.14.62,8.14"/><path class="h" d="M471.33,292.18c-1.95-.72-3-2.78-3.62-4.69,1.74,1.03,2.97,2.79,3.62,4.69"/><path class="h" d="M485.73,312.44c-2.56-.91-3.66-3.92-4.8-6.29,2.21,1.47,3.72,3.9,4.8,6.29"/><path class="h" d="M508.16,417.6c-1.83-.62-2.51-2.73-2.55-4.54,1.63.84,2.14,2.85,2.55,4.54"/><path class="h" d="M521.93,440.6c-.76,1.11-2.36,1.62-3.98,1.58-1.05-.03-1.95-1.83-2.66-2.89,1.72,2.13,4.15.87,6.64,1.31"/><path class="h" d="M499.37,371.23c-1.62-.84-2.37-2.72-2.84-4.41,1.79.38,2.59,2.8,2.84,4.41"/><path class="h" d="M500.88,336.31c-1.43-.96-1.92-2-2.38-3.62,1.5.53,1.98,2.19,2.38,3.62"/><path class="h" d="M512.48,355.21c-1.62-.52-2.34-2.12-2.48-3.71,1.62.44,2.09,2.22,2.48,3.71"/><path class="h" d="M538.47,400.86c-1.25-.92-2.19-2.13-2.36-3.76,1.54.54,2.14,2.24,2.36,3.76"/><path class="h" d="M525.6,377.67c-1.59-.45-2.15-2.25-2.47-3.74,1.56.6,1.96,2.31,2.47,3.74"/><path class="h" d="M198.38,305.39l-.58-5.93c2.21-1.43,1.29,7.57.58,5.93"/><path class="h" d="M524.02,420.54c-1.18-.86-1.63-2.33-2.01-3.7,1.59.45,1.86,2.22,2.01,3.7"/><path class="h" d="M624.83,358.85c-2.18,1.09-2.18,4.69-5.99,8.77,1.11-3.05,4.26-9.17,6.49-11.55-.11.94-.32,1.85-.5,2.78"/><path class="h" d="M579.17,398.62c-.87,1.02-1.89,1.92-3.21,2.88-1.46.22-2.65-.75-2.7-2.02,2.17,1.55,3.64-.18,5.92-.86"/><path class="h" d="M519.8,211.25c.71,2.11,1.98,3.97,3.87,5.54,1.57,1.31,3.86,6.74,5.57,5.93.48-.23.44-1.58.62-1.96,3.62,3.17,6.43,7.41,8.82,11.58-1.8-.23-2.35-1.35-4.18-2.98,1,5.87,10.56,13.51,12.09,18.82l-24.5-31.95c-1.4-1.83-3.29-2.93-3.77-5l1.5.02Z"/><path class="h" d="M542.28,407.36c-.98-.54-2.26-1.63-1.52-2.76,1.08.48,1.55,1.61,1.52,2.76"/><path class="h" d="M489.89,380.58c-1.28-.25-1.71-1.48-1.76-2.68,1.09.46,1.51,1.59,1.76,2.68"/><path class="h" d="M197.62,296.06c-.1-1.97-.47-3.24-.53-4.58,1.28-.3,1.41,1.21,1.35,1.95-.08,1,.1,2.24-.82,2.62"/><path class="h" d="M521.81,210.49h-1.25c-.39-.93-.65-1.91-.82-2.9,1.18.52,1.74,1.71,2.07,2.9"/><path class="h" d="M513.27,427.66c-1.24-.5-1.77-1.75-1.72-3.03,1.19.51,1.67,1.8,1.72,3.03"/><path class="h" d="M495.94,358.94c-.41-.56-1.57-.59-1.92-1.41-.2-.47-.78-1.5.29-1.6.99.7,1.55,1.81,1.63,3.01"/><path class="h" d="M588.38,389.45l-2.03-5.92c1.74,2.26,4,4.84,2.03,5.92"/><path class="h" d="M516.19,203.37c-.91.35-1.67-.14-1.58-1.17.06-.66.22-1.4.87-1.83.14,1.02.42,2.01.71,2.99"/><path class="h" d="M563.1,346.19c1.4,3.58-9.12-13-6.63-10.5,2.62,3.22,4.66,6.85,6.63,10.5"/><path class="h" d="M537.92,307.55c-4.4-5.37-8.44-11.31-11.64-17.3,2.64,3.07,4.52,6.74,7.14,10.16,1.79,2.34,4.06,4.37,4.5,7.13"/><path class="h" d="M521.16,407.62c-.46.46-.89.13-1.13-.18-.45-.59.07-1.14.37-1.49.83-.08.64,1.13.76,1.67"/><path class="h" d="M555.13,368.42c-1.53-1.77-2.74-3.85-3.47-6.07,2.11.89,2.51,4.11,3.47,6.07"/><path class="h" d="M550.9,361.16c-4.84-7.59-9.45-15.34-13.84-23.2,4.05,5.38,11.55,17.12,13.84,23.2"/><path class="h" d="M509.65,420.49c-.57.23-1.22.07-1.39-.47-.2-.61-.06-1.2-.01-1.75,1.09.08,1.3,1.31,1.4,2.23"/><path class="h" d="M479.1,336.66c-1.73-.25-2.35-2.33-2.83-3.82,1.75.21,2.44,2.29,2.83,3.82"/><path class="h" d="M518.33,278.64c.36,1.2-8.55-9.44-5.21-7.37,1.97,2.26,3.43,4.94,5.21,7.37"/><path class="h" d="M584.19,393.74c.72-1.68,1.87-2.85,3.6-3.68-.84,1.54-1.86,3.15-3.6,3.68"/><path class="h" d="M551.52,328.1c-2.55-1.86-3.9-5.12-5.83-8.1-.68-.24-.81-1.15.01-.96,2.09,2.91,3.87,6.05,5.82,9.05"/><path class="h" d="M511.12,423.4c-.56.25-1.27.09-1.39-.48-.1-.47.16-.87.15-1.23.95-.41,1.15,1.05,1.24,1.71"/><path class="h" d="M513.72,398.95c-.41.4-.61.04-.8-.21-.4-.53-.33-1.03-.43-1.49.55-.3,1.23-.04,1.38.49.13.44-.2.85-.15,1.2"/><path class="h" d="M496.33,365.68c-.96.41-1.05-1.06-1.24-1.7.56-.23,1.28-.1,1.4.47.1.47-.2.88-.16,1.23"/><path class="h" d="M480.72,364.07c-.54.4-1.25.05-1.4-.51-.12-.43.18-.84.16-1.22.97-.41,1.08,1.08,1.24,1.73"/><path class="h" d="M519.74,404.6c-.35-.21-1.02.02-1.36-.5-.27-.41.55-.75.57-1.05.79-.12.65,1.03.78,1.54"/><path class="h" d="M544.43,410.34c-.53.12-1.19.06-1.37-.46-.14-.41.06-.83-.03-1.16.4-.29.65-.08.91.14.49.42.26,1.09.49,1.47"/><path class="h" d="M528.49,382.88c-.56.26-1.19.03-1.36-.5-.13-.41.02-.83.01-1.18.42-.44.65-.17.89.17.37.52.38,1.02.46,1.51"/><path class="h" d="M472,320.58c-2.53-1.99-3.42-5.51-5.69-8.12l-.82-.94c-.16-.19.15-.69.55-.42,2.12,3.04,4.09,6.25,5.96,9.47"/><path class="h" d="M481.31,261.78v1.75c-.56-.42-1.08-.91-1.37-1.57.45-.06.94-.04,1.37-.18"/><path class="h" d="M512.52,270.65c-3.71-3.16-5.84-7.85-9.64-11.44-.59-.29-.67-1.13.13-.95,3.51,3.85,6.7,7.99,9.5,12.38"/><path class="h" d="M495.2,248.93c-1.12-.69-2.8-1.54-2.46-2.98,1.09.75,1.99,1.73,2.46,2.98"/><path class="h" d="M517.65,210.55c-.73-.21-1.57-.75-1.59-1.45.49-.06,1.07.01,1.36.46.19.29.13.69.23.99"/><path class="h" d="M527.59,445.14c-.82-.47-.99-1.47-1.35-2.27,1.44.16.97,1.44,1.35,2.27"/><path class="h" d="M532.61,432.11c-.75-.05-.25-1.13-.43-1.57.67-.07.62,1.16.43,1.57"/><path class="h" d="M499.51,254.01c-1.35-1.36-3.49-2.36-3.66-4.41,1.13,1.55,2.67,2.77,3.66,4.41"/><path class="h" d="M566.2,429.16c-.83-.46-1.36-1.27-1.63-2.17,1.27.41.93,1.31,1.63,2.17"/><path class="h" d="M497.46,403.1c-.57-.61-.65-1.48-1.03-2.18.86.36,1.72,1.31,1.03,2.18"/><path class="h" d="M582.71,401.71c-.41-.96-1.79-1.65-1.51-2.97,1.02.69,1.49,1.72,1.51,2.97"/><path class="h" d="M585.74,400.19c-1.02-.38-1.06-1.4-1.43-2.22.98.25,1.34,1.29,1.43,2.22"/><path class="h" d="M517.55,400.29c-1.03-.6-1.28-1.11-1.24-2.31.92.3.81,1.57,1.24,2.31"/><path class="h" d="M572.46,398.1c-1.24-.83-1.91-2.22-2.15-3.67,1.27.79,1.71,2.33,2.15,3.67"/><path class="h" d="M532.06,395.87c-.74.13-.63-1.01-.79-1.49.34.51.52.95.79,1.49"/><path class="h" d="M568.39,391.58c-.89-1.44-2.32-2.61-2.45-4.4,1.24.7,1.39,2.32,2.54,3.44.49.44.69,1.05-.09.96"/><path class="h" d="M511.2,387.18c-.86-.4-1.31-1.26-1.47-2.17.97.28,1.33,1.25,1.47,2.17"/><path class="h" d="M565.38,386.5c-.53-.35-.8-.91-.82-1.54.5.37.78.93.82,1.54"/><path class="h" d="M560.98,378.61c-1.63-1.69-2.49-3.92-3.69-5.91,1.98,1.18,3,3.76,3.69,5.91"/><path class="h" d="M506.08,377.79c-1.33-.41-.9-1.39-.96-2.2.52.63.83,1.4.96,2.2"/><path class="h" d="M581.4,375.59c-.58-.89-2.84-1.97-1.67-2.97.69.92,1.55,1.78,1.67,2.97"/><path class="h" d="M485.77,268.49l-3.79-4.3c1.76.84,3.52,2.3,3.79,4.3"/><path class="h" d="M615.17,374.14c.19-1.73,1.91-2.73,2.37-4.34.1-.1.34-.03.71.28-1.14,1.29-1.54,3.25-3.08,4.05"/><path class="h" d="M518.94,372.76c-.92-.35-.94-1.52-1.32-2.31,1.32.18.93,1.56,1.32,2.31"/><path class="h" d="M557.23,371.97c-.95-.31-1.32-1.28-1.35-2.22.75.52,1.22,1.32,1.35,2.22"/><path class="h" d="M503.24,371.98c-1.43-.32-1.11-1.19-1.42-2.23.72.56.99,1.46,1.42,2.23"/><path class="h" d="M577.57,369.36c-1.82-1.17-2.52-3.57-4.17-5.53-.27-.36.16-.97.54-.63.95,2.22,2.79,3.89,3.63,6.16"/><path class="h" d="M514.94,366.24c-.75-1.15-1.69-2.24-1.8-3.67.84,1.03,2.44,2.22,1.8,3.67"/><path class="h" d="M490.13,273.55c-1.16-1.52-2.69-2.76-3.71-4.39,1.61,1.09,3.44,2.37,3.71,4.39"/><path class="h" d="M573.38,362.56c-.5-.38-.65-.9-.81-1.49.75-.11.67.99.81,1.49"/><path class="h" d="M571.78,359.95c-.71.47-.49-.66-.66-1.05.59-.22.51.72.66,1.05"/><path class="h" d="M493.74,277.9c-.65-.64-1.32-1.26-1.57-2.18,1.01.28,1.61,1.13,1.57,2.18"/><path class="h" d="M493.77,355.32c-.84-.47-1.21-1.31-1.35-2.23,1,.21,1.29,1.32,1.35,2.23"/><path class="h" d="M471.8,354.6c-.92-.32-1.32-1.24-1.33-2.17.71.55,1.24,1.22,1.33,2.17"/><path class="h" d="M566.14,350.98c-.53-.31-.8-.89-.81-1.49.44.41.86.83.81,1.49"/><path class="h" d="M497.25,282.36c-.75-.99-1.41-2.04-2.25-2.97,1.38.37,2.44,1.49,2.25,2.97"/><path class="h" d="M521.24,282.94c-1.22-.5-1.83-1.7-2.06-2.96,1.14.57,1.54,1.87,2.06,2.96"/><path class="h" d="M564.55,348.36c-.68.43-.51-.64-.66-1.06.6-.24.51.73.66,1.06"/><path class="h" d="M468.39,348.86c-.75.06-.64-1.04-.82-1.54.51.39.64.95.82,1.54"/><path class="h" d="M466.82,345.98c-.84-.45-1.01-1.47-1.38-2.29.67.7,1.75.94,1.38,2.29"/><path class="h" d="M522.56,284.67c-.62.38-.59-.62-.7-1.05.57-.1.59.67.7,1.05"/><path class="h" d="M500.26,285.88c-.93-.83-1.54-1.94-2.36-2.87,1.35.36,2.33,1.46,2.36,2.87"/><path class="h" d="M525.47,288.99c-1.33-.09-1.75-2.05-2.12-3.2,1,.87,1.64,1.99,2.12,3.2"/><path class="h" d="M516.03,208.38c-1.13-.54-1.63-1.75-1.97-2.9,1.2.08,1.94,2.04,1.97,2.9"/><path class="h" d="M503.15,289.51c-1.2-.56-1.8-1.76-2.24-2.97,1.22.54,1.75,1.78,2.24,2.97"/><path class="h" d="M536.27,336.57c-.91-1.5-2.65-2.6-2.81-4.4,1.14,1.37,2.88,2.5,2.81,4.4"/><path class="h" d="M461.08,336.63c-1.03-1.04-1.87-2.3-2.21-3.74,1.51.79,1.68,2.37,2.21,3.74"/><path class="h" d="M507.47,295.29c-1.76-1.2-2.66-3.29-3.69-5.12,1.85,1.1,2.68,3.28,3.69,5.12"/><path class="h" d="M532.9,331.52c-1.9-1.96-2.87-4.51-4.57-6.6,3.05,1.27,1.69,3.09,4.82,5.75.23.19.73.94-.25.85"/><path class="h" d="M456.74,294.56c.21-.66.28-1.01.84-1.48-.16.5-.1,1.56-.84,1.48"/><path class="h" d="M528.26,324.2c-3.25-3.77-5.92-8.09-8.57-12.31,3.43,3.59,6.16,7.98,8.57,12.31"/><path class="h" d="M511.12,300.36c-1.1-1.41-2.78-2.56-3.08-4.39,1.26,1.27,2.81,2.54,3.08,4.39"/><path class="h" d="M451.03,320.63c-.47-.36-.72-.92-.83-1.49l.93.04-.1,1.45Z"/><path class="h" d="M545.14,318.4l-2.84-3.15c-.28-.31.09-.89.51-.55.74,1.31,2.37,2.1,2.33,3.7"/><path class="h" d="M449.6,318.44c-.72-.59-1.23-1.37-1.61-2.21.6.66,1.94.88,1.61,2.21"/><path class="h" d="M542.25,314.06c-1.47-1.33-2.49-3.14-3.92-4.89-.48-.43-.68-1.15.15-.98.99,2.15,3.28,3.52,3.77,5.87"/><path class="h" d="M519.06,311.21c-1.36-1.6-2.94-3.12-3.65-5.12,1.56,1.34,3.16,3.1,3.65,5.12"/><path class="h" d="M513.27,303.25c-.74-.55-1.23-1.35-1.5-2.22.99.31,1.55,1.19,1.5,2.22"/><path class="h" d="M514.76,305.41c-.54-.33-.9-.83-.9-1.48.55.3.85.87.9,1.48"/><path class="h" d="M462.58,306.13c-.27-.07-.73-.33-1.06-.68-.18-.19-.1-.51.25-.79.4.33.41,1.18.81,1.47"/><path class="h" d="M473.53,301.09l-.84-1.53c.29.08.73.31,1.06.7.18.2.09.53-.22.83"/><path class="h" d="M458.26,299.64c-.28-.09-.72-.35-1.06-.72-.18-.2-.14-.5.15-.83l.92,1.56Z"/><path class="h" d="M473.5,322.75c-.38-.08-.69-.33-1.17-.64-.36-.23-.58-1.04.28-.88l.89,1.52Z"/><path class="h" d="M517.59,205.56c-.67-.28-1.2-.81-1.36-1.53.65.3,1.1.87,1.36,1.53"/><path class="h" d="M474.76,329.98c-.66-.25-1.14-.8-1.38-1.46.69.22,1.34.72,1.38,1.46"/><path class="h" d="M457.64,330l-.63.11c-1.06-1.35-2.29-2.67-2.56-4.41,1.6.94,1.83,3.11,3.19,4.3"/><path class="h" d="M553.07,330.72c-.24-.02-.8-.38-1.05-.67-.18-.2-.1-.54.23-.82.31.47.54.99.82,1.49"/><path class="h" d="M476.22,332.17c-.66-.28-1.14-.82-1.43-1.47.71.21,1.3.72,1.43,1.47"/><path class="h" d="M554.49,332.9c-.36-.12-.64-.4-1.09-.68-.39-.24-.57-1.05.27-.87.31.49.54,1.04.82,1.55"/><path class="h" d="M555.94,335.07c-.36-.12-.63-.37-1.09-.68-.3-.2-.65-.89.17-.88.35.49.63,1.03.93,1.55"/><path class="h" d="M496.68,335.78l-.94-1.41c.22.05.82.33,1.17.62.21.17.16.49-.23.79"/><path class="h" d="M482.85,337.29c-.25-.08-.74-.4-1.04-.71-.19-.19-.17-.48.16-.8.39.43.53,1.06.89,1.51"/><path class="h" d="M506.06,350.98l-.81-1.5c.24.05.81.43,1.06.69.2.21.13.54-.25.81"/><path class="h" d="M567.66,353.11c-.23-.31-.89-.31-1.25-.62-.34-.29-.53-1.05.3-.87.31.5.61,1.01.95,1.49"/><path class="h" d="M472.85,356.77l-.99-1.45c.63.27,1.75.73.99,1.45"/><path class="h" d="M517.03,369.77c-.15-.17-.09-.48-.2-.68.61.09,1.02.6.2.68"/><path class="h" d="M579.13,371.98c-.25-.02-.79-.36-1.05-.67-.17-.2-.1-.54.24-.81.31.47.53,1,.82,1.48"/><path class="h" d="M582.74,377.79c-.36-.11-.64-.39-1.11-.67-.39-.24-.53-1.08.32-.84.36.41.41,1.13.79,1.51"/><path class="h" d="M562.28,380.72c-.52.29-.48-.45-.54-.78.19.18.48.52.54.78"/><path class="h" d="M584.92,381.4c-.3-.08-.68-.28-1.1-.68-.2-.19.05-.52.3-.78.39.29.39,1.26.8,1.47"/><path class="h" d="M563.82,383.62c-.33-.18-.53-.49-.74-.79.3.21.55.48.74.79"/><path class="h" d="M511.78,388.62c-.23-.2-.41-.5-.52-.78.53-.29.47.45.52.78"/><path class="h" d="M514.09,392.96c-.36-.08-.6-.36-.65-.72.31.14.52.41.65.72"/><path class="h" d="M514.81,394.42c-.35-.08-.62-.37-.66-.73.22.24.48.46.66.73"/><path class="h" d="M537.9,405.94l-.8-1.45c.25.07.74.38,1.06.7.19.19.14.49-.27.75"/><path class="h" d="M521.9,416.17c-.48,0-.57-.45-.76-.78.46-.11.64.43.76.78"/><path class="h" d="M513.08,434.28c-.29-.2-.52-.48-.69-.79.35.13.61.42.69.79"/><path class="i" d="M537.98,164.99c-.04-.36.1-1.13-.09-1.44l9.68-12.04c.95-1.18,3.21.17,3.98,1.2,3.14,4.2,6.52,7.83,9.4,12.25,7.56,11.57,13.98,23.2,20.33,35.61,12.12,23.65,25.01,46.1,38.92,68.68l16.07,26.08c-2.41,2.93-4.85,5.55-7.97,7.88-25.87-34.45-48.57-70.13-70.18-107.1-6.42-10.98-12.61-21.44-20.13-31.12"/><path class="g" d="M602.85,107.78c.51,0,1.07-.04,1.56.04.24.13.56.58.64.85.48,1.5.66,3.33,2.16,4.1-.03.82.61,1.49.81,2.23.24.89.29,1.95,1.37,2.21l.05.68c.05.62.59,1.07.7,1.59.38,1.84,1.48,3.38,2.15,5.12,1.43,3.7,2.89,7.67,5.45,10.71.23.35.25,1.06.37,1.49.44,1.57.6,3.44,2.15,4.27.03.81.54,1.45.79,2.18.18.56.44,1.06.68,1.58.3.65.31,1.42.77,2.02.18.24.04.7.22,1.01.18.32.39,1.22.99.7l.23,1.2c.06.3.05.63.2.99.15.34.44,1.2,1.02.69l.23,1.22c.12.61.48,1.06.69,1.59.26.66.34,1.39.76,2,.17.25.04.69.22,1.02.18.32.39,1.21.99.69.11.39-.03.88.13,1.26.64,1.5.74,3.54,2.24,4.34.17.41.43,1.02.74,1.35-.02,2.4,1.42,4.59,2.56,7.01,6.38,13.55,12.32,26.98,20.26,39.68,1.24,1.99,1.79,4.13-.19,5.33l-3.74,2.26c-1.87.5-2.52-.8-3.47-2.33-8.23-13.27-15.31-26.63-22.18-40.64l-12.87-26.24-16.93-33.76c-.46-.92-1.35-2.96-.69-3.63,2.31-2.35,5.81-2.41,7.69-4.78l1.22-.02Z"/><path class="h" d="M654.48,297.73l-.21-3.18c-.01-.18-.05-.44,0-.61.89,1.69,4.59-8.93,4.89-9.98,3.46-2.17-2.96,11.26-2.6,10.54-.64,1.3-.54,3.03-2.08,3.23"/><path class="h" d="M639.79,311.89c.03-.22-.13-.51-.07-.72.92-2.96-3.15-3.58-2.24-7.02,2.53-.8,2.92,4.89,5.46,6.3-.04.2.16.56.07.72-1.04,1.22,1.02,4.77,2.27,4.06,2.38-1.34,3.11-4.83,3.11-6.96,0-.23.03-.5.07-.72,3.07-.79,3.39-9.49,6.02-9.82.15,2.29-1.07,4.16-1.92,6.41-2.08,5.5-3.76,10.83-7.69,15.7-2.97-2.75-2.39-6.1-5.08-7.95"/><path class="h" d="M656.71,218.57l-.02.66c-.25-.16-1.86.11-1.55.61l9.83,15.71c-4.98-.59-9.95-13.58-11.16-14.02-2.48-.92-6.51,2.97-6.69-.05.68-.82,2.73-1.06,2.95-2.3l3.74-2.26c1.24-.12,2.37.52,2.9,1.66"/><path class="h" d="M537.89,163.55c.19.31.05,1.08.09,1.44.02.25-.6.62-.28,1.08l9.69,15.76c-2.26.57-8.14-13.56-10.16-12.43-.17-.28-.53-.56-.77-.8,0-.21,0-.52-.05-1.07-.04-.49-.8-.58-.78.27-.2.03-.4.04-.61.03-.31-.01-.73-.05-1.07.12-.46.23-.52.89-.49,1.38-.14.18-.48.49-.6.69-1.09.07-1.68,1.56-3.03,1.01-.43-1.66,9.35-14.83,10.08-13.18-.31,2.96-3.27,3.79-2.02,5.69"/><path class="h" d="M657.32,269.89c.32.46.52.99.71,1.52-.26.59-.68,1.28-1.18,1.43-.83.25-1.45-.68-1.82-1.41-1.97-3.83-3.9-7.39-6.23-11.01-.38-.59-.18-1.79.23-1.88.52-.11,1.63-.48,1.79.33.44,2.17,5.27,11.61,6.5,11.03"/><path class="e" d="M641.32,117.11c-.04.24.24.48.23.72-.03.69,2.72,9.44,3.98,9.38.04.24.09.5.08.74-.03,1.23.21,2.73,1.61,2.95-.01.21.07.45.02.66-.27,1.24,0,2.75,1.42,2.99,0,.23.05.5,0,.72-.25,1.21.06,2.67,1.44,2.87,0,.21,0,.44.03.66.17,1.05.09,2.73,1.33,3.03l.24.69c2.55,7.27,7.44,21.53,11.37,27.52.06.19.08.4.12.6.15.75,4.17,12.9,5.46,13-.02.25.1.55.16.8.45,2.16,1.24,4.32,2.87,5.86.01.21-.03.45.03.66.38,1.3.37,2.91,1.6,3.68v.73s-7.41,4.4-7.41,4.4c-1.46-.93-1.33-3-2.78-3.58-.04-.22-.23-.51-.23-.75.05-1.89-1.03-3.37-1.89-5.28l-20.67-45.99-20.1-42.23c-.09-.19.02-.47-.02-.67l12.34-3.21,7.72,18.21c.24.56.69.78,1.05.85"/><path class="f" d="M685.94,148.27c-.06.28.23.68.13.94-.61,1.51.69,2.48,1.41,3.82,2.21,4.1,3.52,8.5,6.49,11.79.2.5-.07,1.19.09,1.71-1.58,1.41-3.48,2.57-4.72,4.3-.21.29-.79.47-.91.8-1.36.38-2.33,1.44-4.34,1.23-.79-2.81-2.33-4.93-3.41-7.49l-22.09-52.31c-.66-1.56-1.27-3.04-2.34-3.8-.06-.48-.4-.92-.52-1.38-.94-3.51-2.27-6.9-4.12-10.41-2.32-4.42,9.49-3.98,12.05-4.08l18.25,47.07c1.14,2.95,1.95,5.91,4.03,7.83"/><path class="g" d="M713.01,89.81l2.19,4.41c.69,1.38.38,3.5,2.03,4.16-.25.63.67,1.57.81,2.14.16.63.22,2.14,1.21,1.7,0,.4.21.81.24,1.2.05.58.09,1.27.67,1.57-.08.75.55,1.39.78,2.03.23.62.18,2.14,1.22,1.7l.23,1.2c.09.46.11.93.44,1.47.17.28.35.68.77.22l.23,1.2c.09.45.12.93.44,1.47.17.28.34.69.77.22.03.47.24.94.3,1.41.27,2.18,1.24,4.1,2.74,5.65.84.86.43,2.67.79,3.67-.77.29-1.29.96-1.37,1.78-1.08.29-2.22.69-2.91,1.62-.61.02-1.32.14-1.57.76-1.86-.95-4.25-2.83-4.25-5.1,0-.61-.3-1.27-.64-1.86-.29-.49-.85-.11-1.36-.2l-.1-1.47c-.02-.31-.07-.63-.2-.99-.14-.36-.44-1.22-1.02-.7.1-.76-.21-2.15-.95-2.71-.07-1.12-.77-2.3-2.01-2.1-.18-.97-.09-2.41-.94-3.12-.18-1.02-.78-2.12-1.94-1.94-.13-.52.04-1.2-.18-1.68-1.48-3.27-2.87-6.8-5.46-9.25-.5-2.14-1.88-4.54-2.63-6.61-1.6-1.89,11.06-2.26,11.66-1.88"/><path class="h" d="M662.9,195.43l-5.06-7.95c-1.37.99,4.48,13.35,5.63,14.8,1.46,1.28,4.4-.3,6.06-.18-.99,1.25-4.76,3.14-6.12,1.67l-10.76-22.7-30.13-66.01c-2.03-4.45-4.44-8.16-5.7-12.48.92.24,1.5.93,2.25,1.62.4-1.06.48-1.85,1.16-2.26l20.1,42.23,20.67,45.99c.86,1.92,1.94,3.39,1.89,5.28"/><path class="e" d="M748.67,111.15c-2.78,2.2-5.47,3.35-8.59,5.34l-11.18-26.79c4.66-.04,8.53.3,12.97.87l6.8,20.59Z"/><path class="h" d="M688.42,171.63c-.36,1.54-2.15,1.79-3.79,2.73-3.04-2.59-1.35-4.76-5.66-4.31-.78-1.16-1.05-2.53-1.6-3.66.54.02,1.37.07,1.45-.48.06-.38.33-1.03.09-1.62l-17.49-42.38c-1.83-4.43-4.66-8.14-5.18-12.64,1.07.77,1.69,2.24,2.34,3.8l22.09,52.31c1.08,2.56,2.62,4.68,3.41,7.49,2.01.21,2.99-.85,4.34-1.23"/><path class="h" d="M685.94,148.27c-2.08-1.92-2.89-4.88-4.03-7.83l-18.25-47.07c-2.57.11-14.37-.33-12.05,4.08,1.84,3.52,3.18,6.9,4.12,10.41-2.47-3.23-4.43-7.34-5.37-11.71-.85-3.93,10.15-2.94,12.61-4.36,1.7.86,2.05,2.26,2.65,3.83l6.41,16.75c2.71,7.08,4.81,14.12,8.03,21.05,1.72,3.71,2.53,7.65,4.68,11.18.76,1.24,1.29,2.43,1.21,3.66"/><path class="h" d="M703.98,98.3c2.59,2.45,3.97,5.98,5.46,9.25-.97-.04-1.19-1.26-2.57-1.89-.8,1.54.6,2.8.29,4.26-4.38-5.95-7.17-12.96-10.79-19.43,2.08.77,2.51,3.08,3.57,5.02.79,1.44,2.15,2.34,2.37,4.46,1.34-.32,1.36-1.08,1.67-1.67"/><path class="h" d="M679.05,211.31c-2.73-3.29-5.75-7.76-6.56-12.05,1.02-1.21,3.45-1.78,3.59-3,.32-2.82-7.19-17.9-9.21-22.38-2.89.81,2.1,6.4,1.8,9.76-1.29-.1-5.31-12.25-5.46-13,1.35.26,1.39,1.91,2.5,2.89,1.25-2.26-.59-3.81-1.23-5.68-2.23-6.52-5.57-12.43-6.97-18.83l13.78,32.28,4.44,9.45c.77,1.63,1.34,3.62,1.12,5.4-.14,1.13-2.82,2.11-2.77,3.47l4.97,11.69Z"/><path class="h" d="M671.58,240.77c1.45-7.72,4.29-15.15,6.82-22.99l-2.39-5.8c1.64,1.51,2.12,3.85,3.68,5.78-2.72,7.62-4.78,14.98-6.95,22.72-.15.54-.97.45-1.17.29"/><path class="h" d="M636.49,99.08c2.9,5.02,5.01,10.56,7.12,15.98l-3.34-3.86c-.95,2.33,1.38,3.81,1.04,5.91-.36-.07-.81-.3-1.05-.85l-7.72-18.21-12.34,3.21c-.36-2.15,12.38-3.9,11.25-4.13,3.06.64,5.35,10.81,8.09,13.13.79-4.45-3.25-8.52-3.07-11.17"/><path class="h" d="M760.05,113.79l2.61-3.31c1.23-1.56-.92-4.1-1.35-6.16-.87-4.13-.85-8.35-1.93-12.19l-13.05-1.68c-1.53-1.58,12.88-.48,13.93,1.84.26.58,3.02,15.39,3.71,18.39.36,1.58-2.84,2.88-3.92,3.11"/><path class="h" d="M693.96,164.82c-2.98-3.3-4.28-7.7-6.49-11.79-.72-1.34-2.02-2.31-1.41-3.82,3.27,4.84,5.69,10.2,7.9,15.61"/><path class="h" d="M785.35,94.15c-6.69-.07-15.09-1.59-21.66-1.49-.56-1.92,10.51-.28,12.29-.1,3.27.33,7.15-.68,9.37,1.59"/><path class="h" d="M713.01,89.81c-.6-.39-13.26-.01-11.66,1.88-6.31-3.05,10.75-4.46,11.58-3.04.19.32-.07.87.08,1.16"/><path class="h" d="M688.23,101.26c-2.18-2.62-3.45-5.91-5.07-9.24-5.23-.78-10.12.26-15.02.64-1.1-3.04,4.53-.37,12.32-2.31,4.32-1.07,7.75,9.17,7.77,10.91"/><path class="h" d="M731.04,120.14c-1.3-.23-1.22-1.87-2.86-2.65-1.15,2.05-.1,3.04-.08,4.09-1.51-1.54-2.47-3.47-2.74-5.65,1.09.17,1.25,1.37,1.92,2.73,3.99-.5-2.33-5.6-2.47-10.9,2.86,3.64,4.35,8.16,6.24,12.37"/><path class="h" d="M687.65,198.98c.62-2.36,1.95-4.35,3.4-6.56l4.72-7.18-1.69-3.64c1.09-.25,1.64.47,1.9,1.62.57,2.57-.2,4.48-1.84,6.33-2.64,2.98-3.76,6.89-6.49,9.43"/><path class="h" d="M663.13,196.17c1.45.59,1.32,2.65,2.78,3.58l7.42-4.4c-1.59,2.06-4.32,5.03-7.21,5.21-2.02.12-2.76-3.05-2.99-4.39"/><path class="h" d="M646.44,95.52c-3.36.54-6.81.95-10.01,2.12-.01-.31-.26-.74-.08-1.04.2-.35.72-.39,1.3-.5l7.34-1.41c.77-.15,1.59.23,1.45.82"/><path class="h" d="M708.58,141.13c-2.77-3.7-8.53-16.59-12.37-23.06-1.21-2.05-1.62-4.2-2.85-5.96,2.57,1.22,5.23,9.73,8.44,14.84,2.89,4.59,5.62,9.16,6.78,14.17"/><path class="h" d="M695.65,90.48l-7.92.73c-2.12-2.63,9.84-1.59,7.92-.73"/><path class="h" d="M729.55,145.41c1.93-3.75,5.49-3.55,3.25-7.39.76.57,1.82,2.14,1.21,3.24-1.04,1.88-2.76,3.33-4.46,4.15"/><path class="h" d="M616.03,102.59c-2.4,1.59-5.28,2.22-8,3.12-.33-2.17,7.01-3.45,8-3.12"/><path class="h" d="M716.78,122.26c.51.09,1.08-.3,1.36.2.34.59.63,1.24.64,1.86-.4-.58-1.51-.26-2.77.58,1.36,1.89,2.3,4.87,4.15,6.84,3.55,3.76,7.75-5,7.35,0-2.77-.49-3.89,2.75-6.01,2-2.46-.87-9.32-14.21-9.34-14.37,2.13-.4,1.49,2.35,3.65,5.07.73-.66.79-1.44.96-2.16"/><path class="h" d="M608.1,110.77c-.18.71-.53,1.37-.88,2-1.51-.77-1.69-2.6-2.16-4.1,1.33.29,1.56,2.08,3.05,2.1"/><path class="h" d="M611.09,113.56c-2.08.2-1.27-1.96-2.99-2.79.35-1.48-1.21-3.13-.07-4.43.87,2.47,2.35,4.68,3.06,7.22"/><path class="h" d="M700.84,118.63c-1.76,1.21-3.94-6.54-4.91-8.4l-5.41-10.38c-1.39-2.67-3.53-5.01-3.27-7.92,1.83,2.03,2.57,4.74,3.89,7.38l9.7,19.32Z"/><path class="h" d="M718.18,153.37c-1.87-1.21-5.77-10.57-5.69-11.58,1.36,2.96,5.97,9.35,5.69,11.58"/><path class="h" d="M717.24,98.38c-1.65-.66-1.35-2.77-2.03-4.16,1.36.78,2.69,2.64,2.03,4.16"/><path class="h" d="M689.34,170.83c1.24-1.73,3.14-2.89,4.72-4.3,2.02,1.24-3.94,4.1-4.72,4.3"/><path class="h" d="M671.68,190.29c-1.63-1.53-2.42-3.69-2.87-5.86,1.53-1.26,2.84,5.51,2.87,5.86"/><path class="h" d="M715.01,154.1c-1.08-.86-5.66-10.05-5.71-11.61,1.37,1.37,6.26,9.95,5.71,11.61"/><path class="h" d="M673.31,194.63c-1.23-.77-1.23-2.38-1.6-3.68,1.01-.29,1.49.63,1.76,1.64.16.57.59,1.44-.16,2.04"/><path class="h" d="M711.7,139.62c-1.69-2.24-3.46-4.8-4.78-7.59l-6.02-12.68c4.12,6.39,7.59,13.34,10.79,20.27"/><path class="h" d="M715.18,161.36c1.83-2.17,1.43-4.26-.11-6.54,1.77-.91,2.97,4.42,1.9,5.64-.37.42-1.11.56-1.79.89"/><path class="h" d="M727.51,127.03c.09-.82.61-1.49,1.37-1.78.18.49.61.81.17,1.18-.58.49-1.08.47-1.55.6"/><path class="h" d="M732.55,127.34c-.02-1.24.03-2.48.14-3.71l1.3,1.97c.52.79-.73,1.23-1.44,1.74"/><path class="h" d="M675.28,210.62c-2.15-2.54-3.33-5.71-5.14-8.49.27-.06.81-.18,1.07-.07.81.35,3.72,7.41,4.07,8.56"/><path class="h" d="M681.05,211.91c1.12-4.07,3.18-8.22,5.77-11.55-1.55,2.84-4,10.32-5.77,11.55"/><path class="h" d="M771.64,104.06c.04,1.67-1.62,1.75-2.92,2.29.56-1.2,1.54-2.26,2.92-2.29"/><path class="h" d="M731.89,137.44c-1.23-1.7-3.42-2.93-3.73-5.05,2.07.72,2.83,3.26,3.73,5.05"/><path class="h" d="M694.03,180.88c-1.62-1.5-2.73-3.74-3.49-5.81.78.04,1.24.31,1.64,1.3l1.84,4.51Z"/><path class="h" d="M723.61,111.62c-.42.46-.6.06-.77-.22-.33-.54-.35-1.02-.44-1.47.57-.24,1.27-.11,1.37.46.08.48-.23.89-.16,1.23"/><path class="h" d="M725.05,114.52c-.42.46-.6.06-.77-.22-.32-.54-.35-1.02-.44-1.47.57-.24,1.27-.12,1.37.46.08.48-.18.88-.16,1.23"/><path class="h" d="M719.26,102.23c-.98.44-1.05-1.08-1.21-1.7.57-.21,1.29-.13,1.38.46.07.49-.18.89-.17,1.25"/><path class="h" d="M720.17,105c-.58-.3-.63-.98-.67-1.57.3-.12.66-.12,1.09-.02.35.08.43.52.26.88-.11.23-.66.44-.69.71"/><path class="h" d="M722.17,108.73c-1.04.44-.99-1.09-1.22-1.7.57-.24,1.27-.1,1.37.47.09.48-.22.89-.16,1.23"/><path class="h" d="M604.41,107.82c-.49-.08-1.05-.05-1.56-.04-.46-.48.05-1.17.53-1.45.4-.23.87,0,1.06.36.19.36.17.79-.03,1.13"/><path class="h" d="M724.6,128.65c-.2.26.02.87-.07,1.13-.15.43-.47.6-1.01.43-.25-.08-.33-.59-.49-.8.26-.62.96-.74,1.57-.76"/><path class="h" d="M724.01,105.6c-1.3-.1-1.37-1.43-1.89-2.59l-3.56-8.02c-.62-1.4-1.51-2.55-1.12-3.94l6.57,14.54Z"/><path class="h" d="M737.51,136.68c1.02-2.04,2.52-3.9,4.5-5.05-.94,2.01-2.82,3.69-4.5,5.05"/><path class="h" d="M693.54,173.63c-.78-.04-.71-.51-.84-1.07-.21-.99.45-.89.95-1.05l-.12,2.12Z"/><path class="h" d="M720.95,154.83c1.67-2.89,4.62-4.6,6.61-7.25-1.08,3.06-4.16,5.16-6.61,7.25"/><path class="h" d="M780.33,98.24c-2.13,1.83-4.65,3.46-7.24,4.52,1.65-1.38,4.88-4.1,7.24-4.52"/><path class="h" d="M693.29,111.39l-5-9.41c1.26-.29,5.05,8.03,5,9.41"/><path class="h" d="M732.56,133.1c-1.08-.49-1.93-1.67-1.99-2.9,1.22.5,1.32,1.93,1.99,2.9"/><path class="h" d="M735.5,136.72c-1.46-.62-2.05-2.35-2.93-3.62,1.49.68,2.35,2.13,2.93,3.62"/><path class="h" d="M710.82,166.42c1.26-1.45,2.05-3.35,3.71-4.4-.79,1.8-1.92,3.51-3.71,4.4"/><path class="h" d="M707.9,170.03c.62-1.08,1.37-2.09,2.28-2.95-.04,1.4-1.02,2.43-2.28,2.95"/><path class="h" d="M702.11,177.27c1.42-2.41,3.33-4.45,5.15-6.57.46.69-4.22,6.27-5.15,6.57"/><path class="h" d="M695.01,175.81c-.5-.34-.8-.88-.87-1.48.54.32.87.83.87,1.48"/><path class="h" d="M697.94,180.81c-1.39-.62-1.64-2.3-2.14-3.61,1.21.83,1.88,2.19,2.14,3.61"/><path class="h" d="M699.22,180.87c.47-1.17,1.06-2.37,2.25-2.92-.54,1.12-.94,2.98-2.25,2.92"/><path class="h" d="M689.21,175l-.75.13c.1-.62.5-.78.75-.13"/><path class="h" d="M728.22,146.9c.15-.35.4-.64.75-.79-.21.3-.52.52-.75.79"/><path class="h" d="M712.42,141.07c-.4-.04-.62-.35-.65-.72.32.11.59.39.65.72"/><path class="h" d="M679.64,212.03l.8-.1c-.14.83-.63.89-.8.1"/><path class="h" d="M758.54,114.94c-.17-.49.44-.59.79-.66-.25.24-.53.44-.79.66"/><path class="h" d="M767.24,107.52c-.29-.52.45-.47.77-.52-.16.47-.15.92-.77.52"/><path class="h" d="M724.73,107.05c-.33-.12-.56-.39-.65-.72.32.11.58.39.65.72"/><path class="e" d="M214.05,198.48c-6.45,2.68-14.15.71-17.05-5.54-2.64-5.69.02-12.06,4.74-16.01,5.93-4.96,15.89-3.8,19.8,3.2,3.87,6.92-.29,15.36-7.5,18.35"/><path class="g" d="M25.17,244.92c1.53,6.73-3.18,11.83-8.89,12.63-6.51.91-11.11-3.42-12.11-10.03-.88-5.81.28-13.39,6.83-15.36,6.45,1.37,12.58,5.81,14.17,12.77"/><path class="h" d="M657.34,276.24c-.34-.33-.53-.85-.77-1.26.23-.74.77-1.71,1.68-1.47.78.21,1.31,1.07,1.94,1.6h.82c1.65,3.02,8.87-23.75,9.71-26.7,3.46-2.3-3.76,17.96-3.8,18.11-1.68,5.42-2.74,10.75-6,15.97-1.22-2.57-1.95-4.68-3.58-6.25"/><path class="h" d="M632.59,341.52c2.55-2.24,7.85-16.95,10.22-16.44-2.47,7.71-6.26,13.83-9.87,20.53-1.79-1.61,0-2.78-.35-4.09"/><path class="h" d="M629.77,341.57l.56.85c-.17.66-.2,1.36-.53,2.13l-3.59-2.41c-.17-.2-.47-.62-.55-.88-.41-1.4-1.83-2.15-1.87-4.26,2.86-.31,3.37,4.08,5.98,4.57"/><path class="h" d="M527.09,180.21l-.05.73c-.05.85.08,2.56-1.23,2.53-.67-.01-1.24-.38-1.81-.22-.41.11-.44.71-.38,1.16-.06.25-.23.49-.28.74-6.16,3.06,4.28-12.9,4.13-8.83-.07,2.03-1.06,1.77-1.17,2.78-.05.46.44.85.78,1.11"/><path class="h" d="M520.39,190.31c-.32.28-.24,1.3-.73,1.47-2.35.79-1.21,4.26-4.41,4.78.26-3.43,2.55-5.21,3.54-8.23,1.4.66,1.15,1.49,1.61,1.99"/><path class="h" d="M521.31,186.6c.13,1.95-1.54,2.16-1.67.33.06-1.14,1.06-1.54,1.67-.33"/><path class="h" d="M621.14,329.99c.22.1.36.48.52.67-.08,2.18,2.11,3.3,2.56,6.17-3.56.49-3.83-5.84-6.08-5.38l-.61-.7c-.04-.63-.38-1.13-.88-1.49-.24-.17-.37-.49-.59-.69.19-1.34-.75-1.63-1.86-1.58-2.73.1-1.31,2.09-5.08,2.9-1,.21-2.14-.96-1.73-1.86,1.84-.36,2.46-.28,2.85-1.66.4-1.41,2.3-3.29,3.74-3.6,2.13-.47,4.47-2.11,3.99-4.96-.22-1.32-1.88-1.89-2.73-2.36l-.77-1.33c-.87-1.51-1.63-3.23-2.48-4.85,1.56-.83,1.91-.39,2.47.35l3.76,5.02c1.32,1.77,2.54,3.1,2.17,5.5-.26,1.69-1.78,2.62-4.2,4.11,2.05,1.95,2.81,4.78,4.95,5.73"/><path class="h" d="M574.78,281.53c.23.42.67.77.78,1.27.34,1.55,1.35,2.84,2.69,3.68.24.51.78.88.92,1.46.17.71.72,1.28,1.36,1.59.35.34.63.77.77,1.24.22.73.69,1.38,1.45,1.58l.05.61c.1,1.2.72,2.39.58,3.63-.41.02-.82.01-1.23-.02-.24-.23-.63-.34-.84-.6-.89-1.82-1.5-4.74-3.69-5.06-.09-.22-.42-.56-.62-.7-.05-.63-.4-1.13-.91-1.48-.24-.17-.38-.48-.59-.68-.06-1.9-4.07-5.16-3.64-7.28,1.02,0,2,.31,2.91.77"/><path class="h" d="M558.03,258.23c.86.19,1.13,1.63,1.54,2.22.22.3.46.57.73.83.81.46.95,1.39,1.44,2.05-.38,1.12,4.25,7.04,5.07,7.38.24.1.4.51.59.7,1.2,3.6,4.98,6.77,4.47,9.35h-1.55c-.07-.23-.42-.5-.59-.69.57-1.33-.83-1.88-1.49-2.9-2.78-4.3-5.43-8.35-8.79-12.26-.76-.88-.7-2.51-2.13-2.25-.22-.28-.62-.52-.74-.87-2.09-6.33-3.85-4.6-3.5-6.73.52-3.13,2.98,2.72,4.94,3.16"/><path class="h" d="M583.39,296.59c.56.03,2.22-.1,2.13.46-.1.63-.03,1.66-.44,1.74-.71.14-1.64.37-1.82-.49-.09-.45-.01-1.1.12-1.72"/><path class="h" d="M538.68,232.34c1.34.44,1.99,2.56,2.77,3.51-.03.51-.14,1.11.14,1.71.2.42.88.52,1.39.5l.6.69c.03.64.36,1.15.88,1.49.24.15.38.48.58.68-.18,1.59,5.68,6.78,2.21,7.71l-.66-.44c-1.52-5.31-11.08-12.96-12.09-18.82,1.83,1.62,2.38,2.75,4.18,2.98"/><path class="h" d="M587.96,300.19c-.58.22-1.02-.01-1.28.14-.4.24-.53.79-.33,1.07.31.44.75.55,1.08.35.42-.25.55-.69.53-1.56,1.43.47,2.29,1.7,2.8,3.06-.88-.2-1.64-1.14-3.18-.52,1.96,4.27,4.93,8.11,8.66,11.06.67-2.8-1.65-3.71-1.9-5.55,3.11,3.88,8.8,9.49,10.08,13.88-.52,0-1.2-.16-1.6-.02-2.65.89,2.41,3.16,1.64,5.06-5.44-6.12-10.05-12.96-15.04-19.83-2.64-3.64-5.79-6.77-7.27-10.75.41.03.82.04,1.23.02-.14.62-.22,1.27-.12,1.72.18.86,1.11.63,1.82.49.4-.08.34-1.12.44-1.74.09-.56-1.58-.43-2.13-.46.14-1.24-.48-2.44-.58-3.63,2.21,1.92,4.53,4.33,5.15,7.23M596.37,314.5c.09,1.16.77,1.24,1.19,1.02.39-.21.56-.67.37-1.08-.2-.42-.81-.8-1.56.06M599.46,316.96c0-.45-.36-.81-.81-.81s-.81.36-.81.81.36.81.81.81.81-.36.81-.81"/><path class="h" d="M558.03,258.23c-1.96-.44-4.42-6.29-4.94-3.16-.35,2.13,1.4.4,3.5,6.73-2.14-2.49-4.07-5.06-5.6-7.91.51-.31,1.04.18,1.73-.03.03-1.55-1.1-2.45-2.2-3.31-.11,1.04.31,1.6.46,3.34-.91-1.7-3.75-2.83-3.74-5.27,3.47-.93-2.39-6.11-2.21-7.71,2.92,3,11.07,13.52,13,17.32"/><path class="h" d="M610.24,326.37c-.4,1.38-1.02,1.3-2.85,1.66-.41.9.73,2.07,1.73,1.86,3.77-.81,2.35-2.8,5.08-2.9,1.11-.04,2.05.24,1.86,1.58-3.29-2.46-4.35,3.55-8.02,2.32-1.31-.44-2.05-2.02-2.97-3.07,1.29-.26,1.79-1.56,1.61-2.78,1.07.84,2.17,1.9,3.56,1.33"/><path class="h" d="M629.77,341.57c-2.61-.48-3.12-4.88-5.98-4.57.04,2.11,1.46,2.87,1.87,4.26-.9.07-7.78-9.17-7.53-9.82,2.25-.45,2.52,5.87,6.08,5.38-.46-2.87-2.64-3.99-2.56-6.17,2.83,3.52,5.65,7.14,8.11,10.91"/><path class="h" d="M604.43,322.12c.12.41.71.75.8,1.23.13.35.37.64.7.82.22.29.47.65.75.87.18,1.22-.32,2.53-1.61,2.78l-.6-.67c.76-1.9-4.3-4.17-1.64-5.06.4-.13,1.08.03,1.6.02"/><path class="h" d="M569.73,280.08c-4.79-5.25-8.34-11.59-12.41-17.41,1.43-.26,1.37,1.37,2.13,2.25,3.36,3.91,6.01,7.96,8.79,12.26.66,1.02,2.06,1.57,1.49,2.9"/><path class="h" d="M571.87,280.77c-.42,2.12,3.58,5.38,3.64,7.28-1.86-2.35-4.33-4.37-5.2-7.28h1.55Z"/><path class="h" d="M574.78,281.53c-.91-.45-1.89-.77-2.91-.77.52-2.59-3.26-5.75-4.47-9.35,2.93,2.94,5.42,6.47,7.38,10.12"/><path class="h" d="M581.32,295.97c-1.32-1.6-2.89-3.12-3.69-5.06,2.2.32,2.81,3.24,3.69,5.06"/><path class="h" d="M577.01,290.21c-.49-.37-.91-.82-.91-1.48.51.35.85.85.91,1.48"/><path class="h" d="M617.53,330.75c-.39-.45-.87-.84-.88-1.49.5.35.84.86.88,1.49"/><path class="h" d="M453.11,323.54c-.46-.71-1.83-1-1.5-2.23.81.49,1.3,1.31,1.5,2.23"/><path class="h" d="M476.44,265.57c-.09,1.3-.99,2.29-2.1,2.9.24-1.33.45-3.01,2.1-2.9"/><path class="h" d="M479.22,261.94l-1.45,2.18h-.72c.82-.38.87-3.2,2.17-2.18"/><path class="h" d="M477.02,264.88l.03-.76h.72c-.2.3-.52.5-.75.76"/><path class="h" d="M553.07,219.31c.29.41.49.97.81,1.31-.4.83,6.87,11.22,7.5,11.98,1.73,2.1,2.35,5.04,4.69,6.25.3.42.56.78.78,1.26.63,1.39,7.98,14.54,9.42,13.87.09.41.63.95.82,1.39.33.79,8.16,13.48,9.38,13.09l.06.72c.09.96,3.99,7.05,5.61,7.99.24.14.48.46.65.68.6,3.06,3.53,5.14,6.04,9.94.53,1.01.96,1.87,2.03,1.64.15.24.4.5.61.7,2.64,4.87,5.9,9.63,9.55,13.79l.63.72c.13,1.19,1.16,2,.78,4.25-1.63.11-1.91-1.31-2.92-1.48-.1-.17-.04-.44-.1-.63-.5-1.52-1.37-2.95-2.84-3.66-.78-1.01-2.21-2.02-2.28-3.42-.07-1.32-.65-2.02-2.03-2.36-.17-.43-.74-.77-.74-1.32,0-1.39-.95-2.44-2.14-3.06-.26-.42-.63-.75-.77-1.25-.1-.35-.58-.54-.8-.8-.07-.17-.03-.43-.02-.61.03-.46.18-1.2-.29-1.54-.29-.21-.82-.05-1.1-.07-.24-.38-.66-.76-.69-1.25-.04-.53.03-1.13-.5-1.61-.24-.22-.6-.4-.98-.12-.01-.2.04-.45-.02-.63-.33-1.05-1.22-1.74-2.2-2.17-.1-.19.03-.51-.03-.72-.42-1.54-1.34-2.93-2.77-3.68-.65-.63-.94-1.38-1.48-2.04-1.1-2.53-2.52-5.69-4.97-7.19-1.56-.95-1.57-2-2.3-3.56-1.02-2.2-2.55-4.4-4.29-6l-.75-1.31c-1.48-2.56-2.66-5.68-5.14-7.36l-.69-1.38c-.59-1.18-6.98-12.39-8.46-12.25-.09-.24-.1-.52-.21-.76-.15-.31-.41-.56-.67-.78-.36-.39-.6-.87-.77-1.37-.2-.3-.44-.57-.74-.78-1.42-1.73-2.83-3.58-3.64-5.68-.01-1.39-1.12-2.27-2.19-3.02-.31-.41-.63-.85-.78-1.36-.33-1.17-5.33-10.51-6.46-9.5v-.57c0-.46.13-1.17-.32-1.55-.24-.21-.78-.07-1.05-.08-.29-.41-.64-.8-.73-1.32-.24-.91-.71-1.73-1.47-2.29-.24-.18-.43-.48-.62-.72.15-1.31-.63-2.49-1.91-3.36l-7.24-11.54c-1.1-1.75-2.27-3.24-4.02-3.9-.26-.39-.35-1.06-.64-1.36.12-.54-.17-1.33.03-1.9.26-.74,1.44-.49,1.87.14l23.44,33.6Z"/><path class="h" d="M590.76,303.25c.16.42.52.85.73,1.27.64,1.31,1.25,3.05,2.86,3.16.09.13-.03.4,0,.56.24,1.84,2.57,2.75,1.9,5.55-3.73-2.96-6.7-6.8-8.66-11.06,1.54-.62,2.3.32,3.18.52"/><path class="h" d="M553.07,219.31l-23.44-33.6c-.44-.62-1.61-.88-1.87-.14-.2.57.09,1.36-.03,1.9-1.23-1.29-2.2-3.07-4.1-3.07-.06-.45-.03-1.05.38-1.16.57-.15,1.14.21,1.81.22,1.31.03,1.18-1.68,1.23-2.53,2.97,2.46,4.69,6.13,6.98,9.59l19.05,28.78Z"/><path class="h" d="M541.54,207.65c-4.76-5.92-8.97-12.41-13.18-18.8,1.75.66,2.93,2.15,4.02,3.9l7.24,11.55c1.28.87,2.06,2.05,1.91,3.36"/><path class="h" d="M621.14,329.99c-2.15-.95-2.91-3.79-4.95-5.73,2.42-1.49,3.94-2.41,4.2-4.11.37-2.4-.85-3.73-2.17-5.5l-3.76-5.02c-.56-.75-.91-1.18-2.47-.35.85,1.62,1.61,3.34,2.48,4.85-2.18-1.7-3.47-4.36-4.94-6.69,1,.17,1.29,1.59,2.91,1.48.38-2.25-.64-3.07-.78-4.26l8.93,11.84c.82,1.08,1.56,2.2,1.13,3.53-.57,1.79-3.89,2.66-3.59,5.21.26,2.25,3,2.3,3,4.74"/><path class="h" d="M569.65,249.68c-1.16.36-1.12-.96-1.65-1.79-2.33-3.64-5.42-6.62-6.81-10.46,1.48-.14,7.87,11.07,8.46,12.25"/><path class="h" d="M552.19,223.68c-3.06-2.31-4.35-6.29-6.46-9.5,1.13-1.01,6.13,8.33,6.46,9.5"/><path class="h" d="M575.47,258.42c-2.14-2.08-3.81-4.7-5.13-7.36,2.47,1.68,3.65,4.8,5.13,7.36"/><path class="h" d="M613.98,322.77c.24-1.7,2.64-2.09,3.32-3.7-.15-1.19-1.51-2.67-2.06-3.61.85.47,2.51,1.04,2.73,2.36.48,2.84-1.86,4.49-3.99,4.96"/><path class="h" d="M566.81,270.71c-.81-.34-5.45-6.26-5.06-7.38,1.78,2.38,4.11,4.53,5.06,7.38"/><path class="h" d="M578.25,286.48c-1.34-.84-2.35-2.12-2.69-3.68,1.41.76,2.02,2.29,2.69,3.68"/><path class="h" d="M587.78,276.48c-1.82-2.26-3.58-4.63-4.97-7.19,2.45,1.49,3.87,4.65,4.97,7.19"/><path class="h" d="M542.98,238.06c-.51.02-1.19-.07-1.39-.5-.28-.6-.17-1.21-.14-1.71.54.67,1.92.95,1.53,2.21"/><path class="h" d="M545.73,213.61c-.55.15-.99-.14-1.21-.58-.16-.31.01-.81-.16-1.06.28.01.81-.12,1.05.08.45.38.31,1.09.31,1.55"/><path class="h" d="M555.16,228.06c-1.56.05-1.95-1.72-2.18-3.02,1.06.75,2.17,1.63,2.18,3.02"/><path class="h" d="M595.74,287.47c-.56.41-1.06-.25-1.28-.66-.19-.36-.18-.74-.2-1.08.38-.27.74-.1.98.12.53.48.46,1.09.5,1.61"/><path class="h" d="M597.82,290.32c-.55.18-.99-.13-1.2-.56-.16-.33-.03-.79-.19-1.04.28.02.81-.14,1.1.07.46.33.31,1.07.29,1.54"/><path class="h" d="M604.32,299.73c-1.29,0-1.64-1.34-2.03-2.36,1.38.35,1.96,1.05,2.03,2.36"/><path class="h" d="M594.35,307.68c-1.61-.11-2.22-1.85-2.86-3.16,1.6.14,2.02,1.99,2.86,3.16"/><path class="h" d="M544.46,240.23c-.52-.34-.85-.85-.88-1.49.39.45.9.83.88,1.49"/><path class="h" d="M580.52,265.73c-2.03-1.44-3.07-3.88-4.29-6,1.74,1.6,3.27,3.8,4.29,6"/><path class="h" d="M592.02,282.21c-1.54-.63-1.67-2.62-2.77-3.68,1.43.76,2.35,2.14,2.77,3.68"/><path class="h" d="M523.48,212.74c-.44-.42-.96-.76-.87-1.48.44.42.89.83.87,1.48"/><path class="h" d="M543.63,210.65c-.93-.4-1.54-1.27-1.47-2.29.76.56,1.23,1.38,1.47,2.29"/><path class="h" d="M601.55,296.05c-1.01-.78-1.48-2-2.14-3.06,1.19.62,2.14,1.67,2.14,3.06"/><path class="h" d="M609.43,306.81c-1.46-.7-1.88-2.44-2.84-3.66,1.47.71,2.34,2.14,2.84,3.66"/><path class="h" d="M605.93,324.17c-.32-.18-.56-.47-.7-.82.06.29.51.57.7.82"/><path class="h" d="M582.76,292.35c-.77-.21-1.23-.85-1.45-1.58.69.3,1.39.87,1.45,1.58"/><path class="h" d="M598.64,291.74c-.49.25-.66-.46-.8-.81.21.26.7.46.8.81"/><path class="h" d="M580.54,289.53c-.64-.31-1.19-.88-1.36-1.59.7.26,1.14.89,1.36,1.59"/><path class="h" d="M594.25,285.1c-.96-.45-1.7-1.24-2.2-2.17.98.43,1.87,1.12,2.2,2.17"/><path class="h" d="M559.53,234.52c-.29-.22-.51-.5-.74-.78.3.21.54.48.74.78"/><path class="h" d="M560.3,261.28c-.26-.26-.51-.53-.73-.83.17.25.47.68.73.83"/><path class="h" d="M560.97,236.67c-.29-.19-.52-.46-.67-.78.26.21.53.46.67.78"/><path class="h" d="M201.26,350.26c-1.24-1.16-1.24-3.91,0-5.07.2,1.65,0,3.4,0,5.07"/><path class="h" d="M643.01,311.17c.58.13,1.05.72,1.12,1.78.35,5.54,3.37-5.65,4.27-4.68,0,2.13-.74,5.62-3.11,6.96-1.25.71-3.31-2.84-2.27-4.06"/><path class="h" d="M566.07,238.85c-2.34-1.2-2.96-4.14-4.69-6.25-.63-.77-7.9-11.15-7.5-11.98,4.94,5.35,7.93,12.27,12.2,18.23"/><path class="h" d="M576.27,253.98c-1.44.67-8.79-12.48-9.42-13.87,1.52,1.16,9.14,12.58,9.42,13.87"/><path class="h" d="M592.15,277.18c-1.63-.95-5.53-7.03-5.61-7.99,2.12,2.48,4.49,4.9,5.61,7.99"/><path class="h" d="M600.88,289.45c-1.07.22-1.5-.63-2.03-1.64-2.52-4.8-5.45-6.88-6.04-9.94,2.84,3.76,5.62,7.57,8.07,11.58"/><path class="h" d="M611.04,303.94c-3.65-4.16-6.91-8.92-9.55-13.79,2.16,2.09,7.62,10.73,9.55,13.79"/><path class="h" d="M586.47,268.46c-1.22.39-9.05-12.31-9.38-13.09,1.14,1.08,2.21,2.43,3.24,3.96l6.15,9.14Z"/><path class="h" d="M535.01,167.84c-.22.75-.92,1.16-1.56,1.5-.03-.49.03-1.15.49-1.38.34-.17.75-.13,1.07-.12"/><path class="h" d="M536.45,168.61c-.27-.27-.72-.37-.83-.8-.02-.85.74-.76.78-.27.04.56.06.86.05,1.07"/><path class="h" d="M658.88,215.66c-.76-1.22-.77-2.87-2.37-3.88-.89,1.24.1,3.14,2.37,3.88-.37,1.22-.75,2.52-2.17,2.91-.53-1.13-1.66-1.78-2.9-1.66,1.97-1.2,1.43-3.34.19-5.33-7.93-12.7-13.88-26.13-20.26-39.68-1.14-2.43-2.58-4.61-2.56-7.01.97.07,1.51-.69,1.45-1.77-.03-.61-.95-1.25-1.41-1.78-.3-3.51-2.62-6.92-4.09-10.36l-4.85-11.33c-.32-.75-2.1.55-2.02,1.4-1.55-.82-1.72-2.7-2.15-4.27.6-.13.96.29,1.12.63.11.23-.07,1.57.74,1.59,2.4.07.84-2.68-.05-4.13-.4-.65-.92-1.29-1.38-1.03-.63.35-1.01.9-.81,1.44-2.56-3.04-4.02-7.01-5.45-10.71.51.23,1.12.59,1.49,1.3l3.63,6.81c2.41-3.44-5.9-11.17-6.26-18.41,1.2.42,1.28,1.8,1.84,3.02l13.61,29.85,23.58,50.1c2.66,5.66,5.84,10.56,9.18,15.74.79,1.23-.29,2.02-.49,2.67"/><path class="h" d="M631.23,161.34c-.41.7-.06,1.84-.79,2.2-1.5-.8-1.61-2.84-2.24-4.34l3.03,2.14Z"/><path class="h" d="M631.23,161.34l-3.03-2.14c-.16-.38-.01-.87-.13-1.26.15-.48.38-1.22-.11-1.68-.25-.24-.79-.17-1.1-.03-.42-.61-.5-1.33-.76-2,.47.2.72-.24.79-.53.14-.58-.03-.92-.38-1.07-.37-.16-.76-.14-1.1,0l-.23-1.22c.14-.47.36-1.21-.12-1.67-.23-.22-.81-.08-1.1-.01l-.23-1.2c.15-.5.35-1.24-.12-1.68-.25-.24-.79-.14-1.09-.03-.46-.59-.47-1.37-.77-2.02.47.19.73-.24.8-.52.14-.58-.04-.92-.38-1.07-.37-.16-.76-.13-1.11,0-.24-.73-.76-1.37-.79-2.18-.08-.86,1.7-2.15,2.02-1.4l4.85,11.33c1.47,3.44,3.79,6.85,4.09,10.36"/><path class="h" d="M631.18,164.9c-.31-.34-.58-.94-.74-1.35.73-.37.39-1.5.79-2.2.46.53,1.38,1.18,1.41,1.78.06,1.08-.48,1.85-1.45,1.77"/><path class="h" d="M618.12,136.79c-.12-.43-.14-1.14-.37-1.49-.2-.54.18-1.1.81-1.44.46-.25.98.39,1.38,1.03.89,1.44,2.45,4.2.05,4.13-.81-.03-.64-1.37-.74-1.59-.16-.34-.52-.76-1.12-.63"/><path class="h" d="M609.39,117.2c-1.08-.26-1.13-1.32-1.37-2.21.57-.21,1.24-.1,1.41.47.18.61-.08,1.21-.04,1.74"/><path class="h" d="M626.09,154.24c-.21-.53-.57-.98-.69-1.59.35-.14.73-.17,1.1,0,.34.15.52.49.38,1.07-.07.29-.32.73-.79.53"/><path class="h" d="M628.06,157.95c-.6.52-.81-.37-.99-.69-.18-.32-.05-.77-.22-1.02.31-.14.85-.21,1.1.03.48.46.25,1.2.11,1.68"/><path class="h" d="M625.17,151.43c-.58.51-.87-.35-1.02-.69-.15-.36-.14-.69-.2-.99.29-.07.86-.21,1.1.01.48.46.26,1.2.12,1.67"/><path class="h" d="M623.72,148.54c-.6.53-.81-.37-.99-.7-.18-.32-.04-.77-.22-1.01.31-.12.84-.21,1.09.03.47.45.27,1.19.12,1.68"/><path class="h" d="M621.74,144.82c-.24-.52-.5-1.03-.68-1.58.35-.14.73-.16,1.11,0,.34.15.52.48.38,1.07-.07.28-.33.71-.8.52"/><path class="h" d="M610.15,119.47c-.11-.52-.65-.97-.7-1.59.35-.16.73-.15,1.13,0,.32.12.51.54.38,1.06-.07.28-.35.7-.81.52"/><path class="h" d="M643.61,115.06c-.02.23.1.49.05.72-.36,1.76.78,3.28,2.17,4.29.08.17.1.55.08.72-.55,1.44.13,3.02,1.09,4.47,2.91,4.37,5.35,14.85,7.52,15.8.07.18.1.53.07.72-.11.68-.31,1.44.12,2.16.22.37.75.62,1.26.73.02.23.11.5.07.72-.13.77-.38,1.6-.15,2.45.16.63.96.52,1.53.45.02.24.03.49.08.72,1.4,6.39,4.74,12.31,6.97,18.83.64,1.87,2.48,3.42,1.23,5.68-1.11-.97-1.16-2.63-2.5-2.89-.04-.2-.06-.41-.12-.6-2.57-8.49-6.5-16.55-9.75-25.16-.38-1.01-.96-1.97-1.62-2.36l-.24-.69c.06-.77.18-1.51-.08-2.43-.11-.39-.59-.88-1.25-.6-.03-.21-.03-.44-.03-.66.03-1.16-.21-2.5-1.44-2.87.05-.23-.01-.49,0-.72.02-.7.07-1.45-.18-2.38-.1-.39-.57-.88-1.25-.61.04-.21-.04-.45-.02-.66.06-1.21-.25-2.71-1.61-2.95,0-.24-.05-.51-.08-.74-.53-3.27-1.78-6.9-3.98-9.38.01-.24-.26-.48-.23-.72.34-2.1-1.99-3.58-1.04-5.91l3.34,3.86Z"/><path class="h" d="M654.52,141.07c-2.17-.95-4.61-11.43-7.52-15.8-.96-1.44-1.64-3.02-1.09-4.47,1.25.58,1.39,2.21,1.95,3.61l6.65,16.66Z"/><path class="h" d="M657.42,148.3c-.57.08-1.37.19-1.53-.45-.22-.85.02-1.68.15-2.45,1.17.43,1.28,1.79,1.38,2.9"/><path class="h" d="M645.84,120.08c-1.39-1.01-2.53-2.53-2.17-4.29,1.65.65,1.49,2.82,2.17,4.29"/><path class="h" d="M655.97,144.69c-.51-.11-1.04-.36-1.26-.73-.44-.73-.23-1.48-.12-2.16,1.17.43,1.3,1.79,1.38,2.9"/><path class="h" d="M663.08,170.05c-3.93-5.99-8.82-20.26-11.37-27.52.66.4,1.24,1.36,1.62,2.37,3.25,8.61,7.17,16.67,9.75,25.16"/><path class="h" d="M645.52,127.21c-1.26.06-4.01-8.68-3.98-9.38,2.19,2.48,3.45,6.11,3.98,9.38"/><path class="h" d="M648.66,134.55c-1.41-.24-1.69-1.74-1.42-2.99.67-.27,1.14.22,1.25.61.25.93.2,1.68.18,2.38"/><path class="h" d="M647.22,130.91c-1.4-.22-1.64-1.72-1.61-2.95,1.36.24,1.67,1.74,1.61,2.95"/><path class="h" d="M651.47,141.83c-1.24-.3-1.16-1.98-1.33-3.03.66-.28,1.14.21,1.25.6.25.92.14,1.66.08,2.43"/><path class="h" d="M650.11,138.14c-1.39-.19-1.69-1.66-1.44-2.87,1.23.37,1.48,1.71,1.44,2.87"/><path class="h" d="M709.44,107.55c.22.48.06,1.16.18,1.68.25,1.03,1.24,1.35,1.95,1.94.84.71.76,2.16.94,3.12.21,1.13,1.22,1.52,2.01,2.1.74.55,1.05,1.95.95,2.71l-.16,1.23c-.08.58.81.73,1.38.45l.1,1.47c-.17.72-.23,1.51-.96,2.16-2.16-2.73-1.52-5.48-3.65-5.07l-.07-.72c-.24-2.59-1.89-5.63-4.17-7.26-.25-.4-.9-.88-.78-1.44.31-1.47-1.09-2.72-.29-4.26,1.38.63,1.6,1.84,2.57,1.89"/><path class="h" d="M712.11,118.63c-2.16-1.86-2.66-4.9-4.17-7.26,2.28,1.63,3.93,4.67,4.17,7.26"/><path class="h" d="M711.56,111.18c-.71-.6-1.69-.91-1.95-1.95,1.17-.17,1.76.92,1.95,1.95"/><path class="h" d="M714.51,116.4c-.79-.59-1.8-.98-2.01-2.1,1.24-.19,1.94.98,2.01,2.1"/><path class="h" d="M716.68,120.79c-.58.28-1.46.13-1.38-.45l.17-1.23c.58-.52.88.34,1.02.7.14.35.18.68.2.99"/><path class="h" d="M599.46,316.96c0,.45-.36.81-.81.81s-.81-.36-.81-.81.36-.81.81-.81.81.36.81.81"/><path class="h" d="M596.37,314.5c.75-.86,1.37-.48,1.56-.06.19.41.03.87-.37,1.08-.43.23-1.11.14-1.19-1.02"/><path class="h" d="M587.96,300.19c.02.87-.11,1.31-.53,1.56-.33.2-.78.09-1.09-.35-.19-.28-.06-.83.33-1.07.26-.16.7.08,1.28-.14"/><path class="h" d="M550.99,253.89c-.15-1.74-.57-2.3-.46-3.34,1.1.86,2.23,1.76,2.2,3.31-.7.21-1.22-.28-1.73.03"/><path class="h" d="M658.88,215.66c-2.27-.74-3.26-2.64-2.37-3.88,1.6,1.01,1.61,2.67,2.37,3.88"/></g></g></svg>