<?xml version="1.0" encoding="UTF-8"?><svg id="b" xmlns="http://www.w3.org/2000/svg" viewBox="0 0 109.37 267.62"><defs><style>.d{fill:#ffdf44;}.e{fill:#e36b2e;}</style></defs><g id="c"><path class="e" d="M109.37,11c.45,6.28-33.15,26.95-20.64,14.17,7.35-3.25,9.48-17.77,20.64-14.17Z"/><path class="e" d="M107.59,54.24c-2.14,3.67-14.89.74-18.85,1.97.99-6.34,10.54-8.97,18.85-1.97Z"/><path class="e" d="M94.2,81.29c10.42,7.16-11.03,5.61-13.96-.97.56-8.67,10.29-1.94,13.96.97Z"/><path class="d" d="M83.71,36.49c7.78,4.06,2.33,18.36.29,20.95,14.5,10.79-26.97,24.67-36.72,18.68C9.53,58.99,61.04,10.43,83.71,36.49Z"/><path class="d" d="M87.18,55.28c.85,4.1-1.28.39-3.18,2.16-.45-1.62,2.65-1.47,3.18-2.16Z"/><path class="e" d="M81.28,149.93c.48.52.59,2.31-.49,1.9-.05-.65-.41-1.8.49-1.9Z"/><path class="e" d="M81.55,140.42c-.16,1.72.93,8.64-.79,7.68.32-.44-.88-8.68.79-7.68Z"/><path class="e" d="M81.13,134.13c.62.16.41,1.01.42,1.51-1.02.4-1.01-1.07-.42-1.51Z"/><path class="e" d="M81.55,135.64c-.7,11.99-2.14,25.23-3.11,37.73-4.44-1.63-.76,4.96-6.06,2.74-.13,8.27.7,9.95-.76,15.08,1.1.21,2.42-3.02,3.33-.13-.46,5.03.02-1.1-5.15,3.87-2.25.65-3.58-4.24-1.39-1.97,2.34-.51-2.16-5.15,1.05-7.22.69-2.62,1.85-3.62-1.72-2.4-.76,1.55.23,6.09-2.54,4.74-.73-1.57-.02-9.06-4.23-4.59,1.46,2.02.19,4.95-2.6,4.86,1.25,1.47,6.34-.11,2.11,5.83-6.62-9.67-2.59,8.01-10.71-4.16-1.71,8.5,5.31,4.81.67,10.27,5.59,4.46-2.75-2.4-2.08,9.19-3.24-5.32-.11-3.79-2.31-9.77-.65-.92,4.75-8.41-2.15-8.37,2.43-5.46,3.76,3.08,3.97-7.82-.45-5.25.13-19.33-.15-20.93,8.39.62,6.22-3.61.63-1.64-.57-1.4-.52-7.65,2.29-5.3,1.36-.76-.17-2.17-1.31-2.5-1.93-4.43,4.87.85,4.24-3.19-1.64-.03-2.48-1.99-4.38.39-4.15-5.7,12.26-3.14,2.82-6.27-7.37-8.84-.47-1.8,1.61-6.91-2.47-.43-1.09-2.3.83-1.86.54-3.08-8.05-7.97-.73-8.37,1.72-2.4-3.7-.88-3.13-3.29,3.42-9.04,4.41-20.54,7.25-27.05-3.63-.84-6.06-8.17-5.02-10.46-1.34,6.33,7.78-.17,5.51,5.1,1.34,1.66,1.66-3.59,4.18-2.08,1.26-.65-1.35-2.17.47-2.52.91.81,1.61,4.25,4.54,1.61.06,1.38-2.33,1.9.32,1.83,1.27,2.85-3.4,5.54-2.47,6.11,4.01.64-1.81,1.9,1.03,4.59,7.78-2.9,3.18-16.06-3.67-17.92,25.99-3.57,13.01,38.14,18.82,52.78ZM71.28,192.82c0-.29-.45-.3-.45,0,0,.29.46.28.45,0ZM57.29,186.78c-.05,1.21,1.1,1.21,1.04,0-.03-.67-1.01-.67-1.04,0ZM58.26,190.12c0-.29-.46-.28-.45,0,0,.29.45.3.45,0ZM54.53,192.53c-1.8-1.95-.7-3.42-.3-6.4-1.85-.24-3.54,8.63.3,6.4ZM45.24,190.12c0-.28-.46-.28-.46,0,0,.3.46.3.46,0Z"/><path class="e" d="M81.55,138.17v1.06c-1.09.55-1.11-1.64,0-1.06Z"/><path class="e" d="M81.2,126.47c1.01,1.09.23,2.27-.05,3.33-.71-.88-.73-2.5.05-3.33Z"/><path class="e" d="M80.77,153.01c.58.31.28,1.5-.34,1.08-.01-.34-.13-1.09.34-1.08Z"/><path class="e" d="M80.41,154.87c.89.52-.5,4.71-.58,5.04-1.03,1.02.16-6.57.58-5.04Z"/><path class="e" d="M79.95,121.53c1.1-.59.5,2,1.21,4.28-1.51-.61-1.17-2.84-1.21-4.28Z"/><path class="e" d="M80.21,120.1c.09.2-.02.47-.28.63-1.04.19-.27-2.09.28-.63Z"/><path class="e" d="M79.84,116.65c.27.12.41.6-.03.52l.03-.52Z"/><path class="e" d="M79.86,108.08c.62-.58.61,8.15-.05,6.92-.66.56-.65-8.08.05-6.92Z"/><path class="e" d="M79.76,104.46c.12.29-.08.85-.02,1.09-1.48.6-.65-2.97.02-1.09Z"/><path class="e" d="M79.46,163.39c.67.66.01,1.49-.11,2.26-.54.78-.71-2.83.11-2.26Z"/><path class="e" d="M78.94,101.32c.49.53.63,1.34.12,1.9-.27-.58-.92-1.54-.12-1.9Z"/><path class="e" d="M78.54,171.93c-.04-.63-.51-5.02.79-4.11-.09,1.37-.11,2.92-.79,4.11Z"/><path class="e" d="M78.95,95.8c-.54,1.46-1.09.13-.79-.78.49-.28.73.29.79.78Z"/><path class="e" d="M78.53,98.24c.59.12.35.98.36,1.42-.56-.12-.36-.98-.36-1.42Z"/><path class="e" d="M78.46,173.36c-5.4,8.99.14,95.23-18.33,93.3-2.93-2.21,1.31-1.43-.52-3.8-.04-1.69,2.28-1.66,3.24-3.04-5.03-2.17-8.85,6.06-12.63-3.82-14.89,4.98-6.36-14.85-8.24-24.36,2.3-13.21-2-35.43,4.22-40.22,2.46,7.56-1.63,11.87,1.2,13.91-.35,1.3-.4,3.59.99,4.15,1.04-.93-.65-8.15,2.41-7.55,2.79,2.34,2.01-1-.33-1.64-.84-.81,4.1-3.55,1.65-3.47-3.35-1.19-5.71-10.61,3.19-1.5-.13-3,2.04-5.93,4.64-2.5-2.09,4.43,6.89-3-1.55-4.47,2.81.05,4.03-2.76,2.6-4.86,6.33-5.9,1.55,7.49,5.97,4.29-.36-4.48,4.87-7.6,2.52-2.04-1.21,1.16-2.12,5.34.02,5.84-.05,1.96-1.3,1.06-1.9.6-1.17,1.39.86,2.8,2.22,2.75,2.54-.24,2.38-4.47,4.25-1.67,2.59-2.09-.13-4.59-2.43-2.07,1.44-5.11.64-6.83.76-15.08,5.29,2.25,1.62-4.39,6.06-2.75ZM74.83,184.2c.77-.76,1.26-1.99.67-2.72-.64,1.26-1.57,1.82-.67,2.72ZM74.88,186.08c0-.29-.45-.3-.45,0,0,.3.45.29.45,0ZM52.04,195.28c0-.37-.57-.36-.57,0,0,.36.57.37.57,0Z"/><path class="e" d="M78.45,174.65c.08,1.86-.77,2.06-1.2,4.01.15-1.41-1.37-4.65,1.2-4.01Z"/><path class="e" d="M75.51,181.47c.59.74.1,1.96-.67,2.72-.9-.9.03-1.47.67-2.72Z"/><path class="e" d="M74.65,185.85c.3,0,.3.46,0,.46-.28,0-.28-.46,0-.46Z"/><path class="e" d="M71.06,192.59c.29,0,.3.45,0,.45-.29,0-.28-.46,0-.45Z"/><path class="e" d="M59.11,90.08c-10.78-1.65-5.68-7.93,3.61-7.19,6.67,1.69,11.58,14.92,3.67,17.92-2.84-2.69,2.97-3.95-1.03-4.59-1.24.08,5.82-6.04,1.09-6.14,2.38-3.09-.2-.47-1.57-.83-2.84-3.38-2.01-3.57-2.38-.06-1.98-1.6-5.25,5.81-3.39.89ZM61.86,86.69c.18-1.65-3.34-.78-2.91.25.92.72,2.54,1.11,2.91-.25Z"/><path class="e" d="M68.71,18.27c-1.59,24.72-13.66-10.47-5.01-18.27,6.36.85,3.65,13.16,5.01,18.27Z"/><path class="e" d="M59.36,260.55c5.31-3.01,1.81.37.23,2.32,3.37,5.37-15.03,7-19.6-.38.06-15.69,12.93.9,17.69-1.9,1.01-2.76,1.01-3.83,1.68-.04Z"/><path class="e" d="M60.15,85.83c.46-.25,1.94.01,1.72.86-.47,2.09-4.92.03-1.72-.86Z"/><path class="e" d="M58.33,186.78c.05,1.21-1.1,1.21-1.04,0,.03-.67,1.01-.67,1.04,0Z"/><path class="e" d="M58.04,189.9c.29,0,.28.46,0,.45-.29,0-.3-.45,0-.45Z"/><path class="e" d="M54.12,90.47c-1.47,1.86,1.85,6.3,3.73,6.14-2.33,1.4-.41,2.5.68,3.26-6.78,2.28-.69,11.23-6.11,13.76,1.57,4.72-4.8,11.4,1.4,12.19.95,1.57-2.08,2.44-3.1.93-.64,4.52,4.35,5.77,3.74,8.57-1.92-.4-3.3,1.4-.83,1.86.34,3.37-7.98.26-3.74,4.68,11.46,6.82-3.25,1.49-.69,8.5,1.26-2.04,4.85-.87,4.18.61-.55,2.4-5.76-2.14-4.04,2.19,5.2,3.58-2.28-.34-1.34,6.89.42,3.31,3.36-2.33,6.39,1.92-2.71-.22-4.24,1.52-6.66.63-.24,86.89-7.39-83.84,6.39-72.13Z"/><path class="e" d="M56.34,266.84c.66.03,1.62-.49,2.03.29-.44.48-2.22.91-2.03-.29Z"/><path class="e" d="M53.11,191.03c2.52.82,1.03,2.92-.72,1.16-1.28-5.08,3.76-8.74.72-1.16Z"/><path class="e" d="M51.07,267.18c.78-.51,1.26-.58,2.25-.42-.51.66-1.51.31-2.25.42Z"/><path class="e" d="M51.75,195c.36,0,.36.57,0,.56-.37,0-.38-.56,0-.56Z"/><path class="e" d="M45.92,185.43c.38.5.02,1.11-.35,1.87-1.86,1.64-1.42-4.34.35-1.87Z"/><path class="e" d="M45.01,189.9c.3,0,.29.45,0,.45-.29,0-.3-.45,0-.45Z"/><path class="e" d="M44.71,197.25c1.2,1.08-1.47,1.99-1.7.74-.31-1.18.84-1.31,1.7-.74Z"/><path class="e" d="M44.66,185.37c-.03.2-.05.65-.36.5.07-.2.03-.67.36-.5Z"/><path class="e" d="M44.21,189.44c-.03.2-.04.65-.34.49.02-.22.09-.46.34-.49Z"/><path class="e" d="M31.31,79.07c11.24,6.4-5.24,13.21-10.01,18.38-13.5-2.4,2.97-18.14,10.01-18.38Z"/><path class="e" d="M32.2,18.24c-1.97,5.33-1.97-3.59-3.33-5.54C25.15,9.85,15.62,3.53,21.6.05c2.75-.31,3.25,5.31,4.65,7.15,1.66,6.71,4.04.78,5.95,11.04Z"/><path class="e" d="M28.87,12.7c5.72,14.69-10.55,3.31-10.83-4.88,1.79-8.52,6.78,4.31,10.83,4.88ZM27.72,13.17c0-.29-.46-.28-.45,0,0,.29.45.3.45,0Z"/><path class="e" d="M27.5,12.95c.29,0,.28.46,0,.45-.29,0-.3-.45,0-.45Z"/><path class="e" d="M24.47,31.44c6.29,7.52-23.6-1.07-20.37-5.87,4.26-3.18,19.16.33,20.37,5.87Z"/><path class="e" d="M20.93,58.85c-2.04,5.33-15.25,14.8-20.93,6.52,8.11-3.72,13.59-18.72,20.93-6.52Z"/></g></svg>