<?xml version="1.0" encoding="UTF-8"?><svg id="b" xmlns="http://www.w3.org/2000/svg" viewBox="0 0 79.55 237.56"><defs><style>.d{fill:#ffdf44;}.e{fill:#e36b2e;}</style></defs><g id="c"><path class="d" d="M77.5,229.79c-4.11,10.57-24.48,5.36-34.19,6.1-14.4,3.61-46.55,3.25-43.05-20.5C1.91,148.13,1.95,82.59,3.88,14.37c67.42-71.32,7.42,175.7,40.77,185.5,25.47,1.51,30.45-4.93,34.9,20.36-2.26,4.82-14.57,12.97-2.05,9.56ZM72.88,224.7c.5-3.97-1.96-2.05-1.96.67-2.68,4.02-8.83-.16-8.98,2.25,4.67,2.27,8.57,1.16,10.94-2.92Z"/><path class="e" d="M17.16.01c3.8,2.22-2.66,1.14-5.36,1.24C12.95-.62,15.3.23,17.16.01Z"/><path class="d" d="M72.04,222.08c3.46,4.84-5.74,8.66-10.09,5.54,1.12-1.72,9.98,1.46,10.09-5.54Z"/></g></svg>