<?xml version="1.0" encoding="UTF-8"?>
<svg xmlns="http://www.w3.org/2000/svg" version="1.1" viewBox="0 0 1887.8 280.9">
  <!-- Generator: Adobe Illustrator 30.1.0, SVG Export Plug-In . SVG Version: 2.1.1 Build 136)  -->
  <defs>
    <style>
      .st0 {
        fill: #ffdf44;
      }

      .st1 {
        fill: #03d;
      }

      .st2 {
        fill: #057c12;
      }

      .st3 {
        fill: #c54b4f;
      }

      .st4 {
        fill: #740077;
      }

      .st5 {
        fill: #e36b2e;
      }
    </style>
  </defs>
  <g id="G">
    <g>
      <path class="st5" d="M1887.4,170.7c0,2.5-1.2.6-.8-.9.6-.3.7.5.8.9Z"/>
      <path class="st5" d="M1887,174.1c2.2,7.4-11.7,37.8-14.8,31.8,7.5-8.1,3.8-24.9,14.8-31.8Z"/>
      <path class="st5" d="M1867.6,137.6c-8.8-8-22.1-8.8-33.4-9.9,1.1,1.4,4.4,3.3-.6,2,8.6,3.7,19.2,5,26.7,8.7-1.7,6.4,15.7,8.5,7.2-.8ZM1737,144c-.4,0,2.2-1.5,1-1.8-.8-.6-2.3,1.7-1,1.8ZM1887.1,172.3c-8.2,9.7-9.7,20.5-13.3,33.5-1.7,3.9-.7,4.6-7.9,8.1,8.7,1.3-4.3,9.5-7.6,9.3,4.2.8-3.7,13.4-6.3,10.4-1,1.3-.7,1.8-2.1.7-.7,0-1.1,2.5-1.9.8-1.3-4.5-.6,1.9-.6,2.1-7.6,4.3-23.5,10.9-26.5,21.4-16.6,2.7-36.4,6.3-51.1-1.7-19.6-5.8,6.1,6.1-14.9.4-17.7-8.4-38.2-23-41.9-45.2-2.6-9.2,1.8-18.3,2.7-21-3.9-5.5,1.8-10.9-1.2-17,2.2.2.8-5.5,1.8-5.8,1.3-.7,2,3.5,2.9-.9,6-.9-1.9-2.8-3.4-5.1,4-2.8,5.5,2.5,7.5,3.2,3.8-3.6,1.2,1.1,1.8,3.1.8,1.6,2-5,5.2-2.1,2.3-1-4.8-6.1.2-3.6-.7-4.9,3.8-8.3,1-10.4-1.3-.3,2.4-2.4-.4-2.1-.6-.2-.4-.7.2-.9,3.6,3.6.3-7.6,3.8-10.5,5.4-.5.9,6.8,7.3-.5,3.3,2.2,1.4,10.9-2.4,5.4-6.2.9-3,4.9-2.1,8.2,4.4-2.2,6.9,4.7-2,1.5-2.3.9,3.8,4.8,0,5-1.9,5.1,2.1,11.5.3,5.5,3.5-.9,2.5-3.5,2.4-6,3.1.7-.5-.8-.7-1.7,11.6-2.9,1.1,1.3,3.3,7.3-.9.9-3,1.8-1.7,3.3,3.3-4.4,2,3.7-3.5.6-6.2,6.5,4.4,3.3,3.1,7.4-8.5-3.6-3.7,9-6,16.3,1.4,9.3-.7,10.5,1.5,19.9,1,2.7,4.9,6-.8,5.6,1.3.9,5.6,1.9,4.1,4.1-4.8,2.1,2.9.9,3,2.4-2.3,4.3-4.8-.4-7.2-2.4-1.9,3.1,3.1,14.8,6.3,9.8-3.1-2.4-3.3-6.1,1.1-4.2,9.5,12.7-6,3,3.1,10.9,1.9.7.9-1.1,0-1.5,1.2-3,6.2,1,6,2.9,4-.4,7.2-9.5,4.4,2.6,9.5-1.7,6.2,3.8,1.3-7.5-11.3-7.6-1.7-6.8-12.2-11.2,0-4,6.6,3.8,8.8-1.5,3.4,3.8,9.2,7.9,9,12.9,27.2,15.1,75.8-3.6,90.5-35.8,5.3-9.3,7.5-20.4,6.7-31.7-.6-2,1.3,0,1.9-1,2.4-2.6.2-1.3-1.2-1.7-1.1-12.8-7-13.7-14.8-18.9-2-3-5,.9-7.1.9-1.4-.5,1-3.2-2.6-2.9-1.4,0-26.8-2.7-28.6,3.2-.2,1.8-2.4-.4-3.3.2,0,1-2.1,3.3-4.1,1.7-1.1,1.2.4,5.4-2.5,1.8-1.4,1-3.9,1.4-5.4,1.7-.6,3.1,2.5-.9,4.2,1.9-13.2,5.7-10.6-.9-17.5-3.8-3.8-49.1,120.5-40.2,109.4,22.4ZM1790.7,145.5c2.8-.1,5.6-1,6.8-3.7-2.5.4-6.7,1-6.8,3.7ZM1765.4,241.4c.7-.3-.4-1.7-.9-1.1-.5.9.1,1.5.9,1.1ZM1760.8,239.3c.8-.1-.7-1.4-.8-.7-.2.7.5.8.8.7ZM1759,234.2c0-.6-1-.6-1,0,0,.7,1,.6,1,0ZM1754.5,228.4c0-.7-1-.7-1,0,0,.7,1,.6,1,0ZM1753.4,227.4c.4-.3.3-1.6,0-2-1.7-.6-2,2.3,0,2ZM1747.7,236.7c0-.3-.5-.3-.4,0,0,.3.5.3.4,0ZM1746.9,223.5c0-.6-1-.6-1,0,0,.6,1,.7,1,0ZM1741.4,143.1c0,1.2,1.1,1.2,1,0,0-.7-1-.7-1,0ZM1732.9,215.6c.3-.3-.4-.5-.6-.7-.9-.9-.2,1.8.6.7ZM1726.6,175.5c.8,1.2,2.6-2.2.1-1.7,0,0-.1,1.7-.1,1.7ZM1727.4,172.5c.2-1.2-1.9-1.1-2.1-.3-.2.9,1.8,1,2.1.3ZM1724.3,173c-1.1-2.9-2.3-4-4.5-3.5,2.5,5-.4,6,4.5,3.5ZM1718.8,163.3c.3,0,.3-.5,0-.5-.3,0-.3.5,0,.5ZM1718.7,172.5c.5-.6-.5-.8-.8-.7-1.6.5-.3,2.2.8.7ZM1717.2,176.3c0-.6-1-.6-1,0,0,.6,1,.7,1,0Z"/>
      <path class="st0" d="M1884.1,77.1c5.6,12.6-11.6,27.7-22.8,20.6-12.6-21.9-28.1-39.9-56.2-31.2,46.7-22,44.5,50.2,76.2,25.3,14.5-57.5-75.7-67.8-102.2-50.1,35.5-20.9,95.3-11.1,105,35.5Z"/>
      <path class="st5" d="M1763.4,93.7c2.9,1.7-5.9,7.6-7.1,11.4-4,.5-.9,9.4-6,7.7-2.1,3.3,2,1.5-2.2,7.3-5.3,8.7-2.3,13.6-8.5,7.1,0,2.8-5.5,9.2-.4,10.9-3.4.9-5.3,1.1-4.7-3.6-6.9,1.6,0-.4-2.3,5.5-7.4,4.8-4.7,17.9-13.1,11.1,4.8-1,7.7-1.2,2.1-3.7,1-1.9,3.1-4.2-.3-5.3,4.8-2.3,4.5,1.2,2.5-4,2.4-7.7-3.1-2.3,2.5-8.3-3.3-.8,1-7.7-2.9-7.2-10.6,10.1-6.4-16-.2-23.4,21.5-23,58-75.1,85.4-61.8,13.6,4,22.1-12.8,34.8.3,25,.6,58.9,46.4,28,60.8-21-.2-21.1-37.6-45.2-35.3-24.2-7.2-63.1,42.3-65.6,44,.4-8.4,27.9-28.3,15.6-26.9-6.1.9,2,6.5-4.7,5.2-3,3.2-3.6,9.4-7.7,8.2ZM1806.1,37.6c.6,0,.6-1,0-1-.6,0-.6,1,0,1ZM1729.9,135.9c1.7-.8-1.2-1.4-1.1-.5,0,.6.8.5,1.1.5Z"/>
      <path class="st5" d="M1869.1,212.4c7.4-7-.1,4.5.3,2.6-3.5-.8-4.5-2.7-.3-2.6Z"/>
      <path class="st5" d="M1867.6,137.6c5.2,5.3,0,3.2,1.7,6.4-3.9,2.6-4.9-4.3-7.3-1.8-2.2.1-2.3-2.1-1.7-3.9-4,1.9-4.7-3.9-7.2-2.7-3.5-4-23-2.7-17-6.3-7.5-3.8,13.9-.3,17.3,1.7,6.6-1.1,2.1,3,7.7.3-1.4,4.6,4.5,2.9,6.3,6.2Z"/>
      <path class="st5" d="M1861.4,163.3c-1.4,7.1-4.6-2.7-4.1-5.9,2.8-.2.5,9.2,4.1,5.9Z"/>
      <path class="st5" d="M1864,221.3c-2.5,2.9-3.4,7.5-6.7,9.8,2.9-6.5,0-8.4,6.7-9.8Z"/>
      <path class="st5" d="M1859.2,168.1c-.5,2.3-1.6-.6-.6-1.5.4.3.6.9.6,1.5Z"/>
      <path class="st5" d="M1858.6,170.1c1.4,1.3-.4,7.7-.3,7.1-.9-2.2-.8-5,.3-7.1Z"/>
      <path class="st5" d="M1852.5,148.3c12.2,15-8-3.3-15-2.4,6.4-5.9,12.3,6.1,15,2.4Z"/>
      <path class="st5" d="M1856.8,184.9c-.6,0-.5-.6,0-.5,0,.1,0,.4,0,.5Z"/>
      <path class="st5" d="M1856.4,187.2c0-.2,0-.8.4-.6,0,.2,0,.7-.4.6Z"/>
      <path class="st5" d="M1856.3,188.8c.9.5.3,1.3-.5,1.4,0-.5,0-1.3.5-1.4Z"/>
      <path class="st5" d="M1855.7,231.2c1.7-.4.9,1.3-.2,1.7.2-.5-.2-1.2.2-1.7Z"/>
      <path class="st5" d="M1855.1,194c-.9,2-1.7-1.2-.2-1.7.1.5.1,1,.2,1.7Z"/>
      <path class="st5" d="M1854.7,233.8c-8.3,18.1-54.9,32.6-18.3,9.7,4.7-1.9,6.3-6.4,10.9-6.4,0-.2-.7-6.6.6-2.1.9,1.7,1.1-.9,1.9-.8,1.5,1.1,2.5-.7,4.9-.5Z"/>
      <path class="st5" d="M1851.9,198.3c.6,0,.5.6,0,.4v-.4Z"/>
      <path class="st5" d="M1852.3,196.9c-.1.2,0,.6-.4.5,0-.2.3-.4.4-.5Z"/>
      <path class="st5" d="M1850.1,200.5c0,.2-.3.3-.5.5,0-.2.2-.4.5-.5Z"/>
      <path class="st5" d="M1848.3,202.8l-.2.5c-.5,0-.2-.4.2-.5Z"/>
      <path class="st5" d="M1844.8,209.1c.4.2.3.6-.1.4v-.4Z"/>
      <path class="st5" d="M1842.9,211.3c.2.7,0,1.4-.9,1.4,0-.6.3-1.2.9-1.4Z"/>
      <path class="st5" d="M1840.7,247.3c.2.3-.2.4-.4.5.1-.1.2-.4.4-.5Z"/>
      <path class="st5" d="M1839.9,247.8c.4.7-.6.9-1,.8-.4-.6.6-1,1-.8Z"/>
      <path class="st5" d="M1839.3,215.8c.2-.2.3-.4.5-.5,0,.2-.4.4-.5.5Z"/>
      <path class="st5" d="M1837.5,145.9c-12.3-6-36,8.8-46.4,5.8,1.4-.2,4-.9,5.4-1.7,2.9,3.6,1.3-.6,2.5-1.8,7-2,34.2-11.9,38.5-2.2Z"/>
      <path class="st5" d="M1837.4,248.7c-1.2,2.7-5.2,4.2-7.9,5.3,1.5-2.4,5.6-3.9,7.9-5.3Z"/>
      <path class="st5" d="M1837.5,218c-1,.8-1.1,2.2-2.3,2.7,0-1.2,1.1-2.5,2.3-2.7Z"/>
      <path class="st5" d="M1834.9,220.7c0,.4-.2.7-.5.9,0-.4.1-.8.5-.9Z"/>
      <path class="st5" d="M1833.4,223c0-.2,0-.8.4-.5,0,.2-.3.4-.4.5Z"/>
      <path class="st5" d="M1828.2,32.9c7.1,1.7-18,5.9-19.9,4.5,1.8-7.5,13.8-1.5,19.9-4.5Z"/>
      <path class="st5" d="M1829.2,254.1c-.6,1.5-3.3,2.9-4.7,3.6.7-1.9,2.7-3.1,4.7-3.6Z"/>
      <path class="st5" d="M1820.8,258.5c7.2-1.8-2,3.4-3.3.5,1.4-.4,2.4.8,3.3-.5Z"/>
      <path class="st5" d="M1815.6,259.1c.4.7-.7.8-1.1.7-.4-.8.6-.9,1.1-.7Z"/>
      <path class="st5" d="M1812.4,259.9c0,.4-.4.5-.4,0h.4Z"/>
      <path class="st5" d="M1811.1,260c.7,1.2-2.9.7-3.8.8-.8-1.4,3.1-.8,3.8-.8Z"/>
      <path class="st5" d="M1806.6,260.8c0,.5-1.4.6-1.4.1.4-.4,1-.8,1.4-.1Z"/>
      <path class="st5" d="M1806.1,36.6c.6,0,.6,1,0,1-.6,0-.6-1,0-1Z"/>
      <path class="st5" d="M1804.4,260.9c-4.9,2.3-13.2,1.7-19,1.3,3.5-1.3,14.3-.2,19-1.3Z"/>
      <path class="st5" d="M1800.2,122.9c.2-.8,1.1-1,1.8-1-.6.4-1.1.8-1.8,1Z"/>
      <path class="st0" d="M1801.8,68.4c-1.5,0-2.8.3-4.3.6,2.1-2.2,9.6-3.8,4.3-.6Z"/>
      <path class="st5" d="M1799.8,123.3c-.1.3-.5,1.2-1,.5.1-.4.7-.5,1-.5Z"/>
      <path class="st0" d="M1795.2,71.2c1-.6.6,1.3-.3.9.2-.2,0-.7.3-.9Z"/>
      <path class="st5" d="M1797.5,141.8c-1.2,2.6-4,3.5-6.8,3.7.1-2.7,4.3-3.2,6.8-3.7Z"/>
      <path class="st5" d="M1784.1,262.2c.9.5-6.4.8-5-.5,1.7.1,3.7-.7,5,.5Z"/>
      <path class="st5" d="M1783.7,154.3c-.2,0-.5-.3-.5-.5.1.2.3.3.5.5Z"/>
      <path class="st5" d="M1781.9,132.3c-.2,0-.3.4-.5.4-.2-.3.3-.4.5-.4Z"/>
      <path class="st5" d="M1779.9,151.2c.9.2,1.7.8,1.9,1.8-1-.1-1.8-.8-1.9-1.8Z"/>
      <path class="st5" d="M1779.6,79.7c-15,21.7-34.9,44.7-34.6,74.7,1.2,1.7-11,1-4.9,3.5-3.2.2.9,5.2-3.8,6,3,4.6-2.2,1.6-1.1-1.7,1.5-1.7,1.1-2.2.8-3.8,3.7-.2-2.3-4,0-5,3.5.9,0-1.9,4.9,1.3,3.1-1.5-.7-4.5-2.9-2.9-8.1-15.7,12.1,1.3,4.5-13.6-4.4,4.3-3.1,4.5-5.3.4.2-1.2,4.1.4.4-1.4,1.1-18.7,4.9,2.2,10.7-17.3,4.2-5.8.1-4,2.2-7.3,2.7,1.7,4.4-4.1,3.6-6,3.1-3.3,11.7-10.9,9.5-13,1.7-.3,3.6,1.6,3.4-3,2.2,1.6,2.5-4.5,4.2-5.1,8.1.3-4.3-4.1,8.4-5.8Z"/>
      <path class="st5" d="M1778.7,261.7c-9.9-.4-15.6-1.1-17.6-6.4,4.9.8,16.3,1.1,17.6,6.4Z"/>
      <path class="st5" d="M1777.8,149.8c.4-.1.8.1.9.6-.4,0-.7-.2-.9-.6Z"/>
      <path class="st5" d="M1777.7,135.8c.2.5.3,2-.8,1.5,0-.4,0-1.9.8-1.5Z"/>
      <path class="st5" d="M1772.7,237c11.1,4.5-.3,2.2-4.8,1.4.8-3.2-4-4.2-5.7-5.8.2.9.6,2-.7,1.4,0-6.5,7.3,2.5,11.3,2.9Z"/>
      <path class="st5" d="M1776.6,140.7c-.4,3.9-2-2,.3-3-.1.9-.6,1.9-.3,3Z"/>
      <path class="st5" d="M1776.5,144.2c-.3,2.2-1.8-.6-.5-1.1.4.3.5.7.5,1.1Z"/>
      <path class="st5" d="M1776,147.7c.6.4,1.2.9,1.3,1.6-.8,0-1.7-.7-1.3-1.6Z"/>
      <path class="st0" d="M1774.3,46.1c0,1-1.1,1.3-1.9,1.3,0-1.1,1.1-1.1,1.9-1.3Z"/>
      <path class="st0" d="M1770.2,48.8c.4.6-.6,1-1,.9-.4-.6.6-.9,1-.9Z"/>
      <path class="st0" d="M1767.9,49.7c2-.1-.4,1.7-1.4,1.8.5-.6.6-1.7,1.4-1.8Z"/>
      <path class="st0" d="M1766.1,51.6c-1.8,1.7-9,10.5-11.2,9.4,4.6-2.9,5.5-7,11.2-9.4Z"/>
      <path class="st5" d="M1765.4,240.6c1.1,1.3-2,1.3-.9-.2.4-.5.7.1.9.2Z"/>
      <path class="st5" d="M1760.8,238.8c.8.7-1.3.8-.9-.2.1-.5.7,0,.9.2Z"/>
      <path class="st5" d="M1760.7,258.9s0,0-.1,0c0,0,0,0,.1,0Z"/>
      <path class="st5" d="M1733.9,222.7c-1.2-5.7,4.5,6.6,7.1.4,0-1.5-7.9-.2-3-2.4,1.4-2.3-2.8-3.2-4.1-4.1,8.1,1-5.7-15,.4-16.6-1.1-6.4-1.5-19.4.5-23.2-3.7-3.8,8-.8,3.5-4.2-7.4-.3-4.2-5.2,2.7-5.1,2.7-4.4-5.2,1.3.3-3.9,5.2-27.3,0,50.9,12.4,58.5-6.5.3-16-.3-3.3,3.8-5.9.2,14.8,17.2,9.1,15.2-10.3,3.4.8-7.4-5.9-5.8,1,5.6-4.3,3.2-5.3.2-2.9-1-4.9-.6-2.9,1.9-.9.8-5.3-3-3.8-3.5,7.3.9-1.2-10.5-4.2-7,7.6,10.5-6.9,2.1-3.3-3.9ZM1744.6,219.4c0-.4-.6-.4-.6,0,0,.4.6.4.6,0Z"/>
      <path class="st5" d="M1758.7,226.9c4.2,4.3-.5,2.1-2.2,0-.4-2.8,1.3-.6,2.2,0Z"/>
      <path class="st5" d="M1758.5,233.7c.6,0,.6,1,0,1-.6,0-.6-1,0-1Z"/>
      <path class="st5" d="M1758.5,258.9c-4-.1-23.1-4.7-16.1-7.1,2.9,6,12.1,3.3,16.1,7.1Z"/>
      <path class="st5" d="M1758.2,111.6c-.6,1.7-1.5,3.3-2.4,5-1.3.5.7-4.5,2.4-5Z"/>
      <path class="st5" d="M1755,223c.7.1,1.1.5,1.3,1.2-.6-.2-1.2-.5-1.3-1.2Z"/>
      <path class="st5" d="M1748.7,254.4c.2,0,7.1,1.4,6.1,2.8-5.7.7-18.9-8.3-6.1-2.8Z"/>
      <path class="st0" d="M1754.5,62.2c.3,1.3-.6,2.5-1.8,2.8.6-.9.9-2.1,1.8-2.8Z"/>
      <path class="st5" d="M1754,227.9c.6,0,.6,1,0,1-.6,0-.6-1,0-1Z"/>
      <path class="st5" d="M1753.3,225.5c.4.4.5,1.6,0,2-2.1.3-1.8-2.6,0-2Z"/>
      <path class="st0" d="M1751.8,66.2c-.5.9-3.1,4.6-3.2,2.3.6-.7,2.1-1.6,3.2-2.3Z"/>
      <path class="st5" d="M1750.4,238.8c0,.1,0,.1-.2,0,0,0,.1,0,.2,0Z"/>
      <path class="st0" d="M1748,69.9c1-.6.3,1-.3.5,0-.2.1-.4.3-.5Z"/>
      <path class="st0" d="M1747.7,70.7c.1.6-.3,1.1-.9,1,0-.5.3-1.2.9-1Z"/>
      <path class="st5" d="M1747.5,236.5c.3,0,.3.5,0,.4-.3,0-.3-.5,0-.4Z"/>
      <path class="st5" d="M1746.4,223c.7,0,.6,1,0,1-.6,0-.7-1,0-1Z"/>
      <path class="st0" d="M1745.9,72.1c.7,0,.3.1,0,.5,0,0,0-.5,0-.5Z"/>
      <path class="st0" d="M1745.8,73c.2.3,0,.4-.3.5,0-.3,0-.5.3-.5Z"/>
      <path class="st0" d="M1745.1,73.5c-1.1,3.6-5.4,6.8-7.7,9.8,1.2-4,4.9-6.4,7.7-9.8Z"/>
      <path class="st5" d="M1744.3,219.1c.4,0,.4.6,0,.6-.4,0-.4-.6,0-.6Z"/>
      <path class="st5" d="M1740.9,250.1c4.9,4-5.8,2.2-3.8-3-4.6-4-8.5-.4-12.8-7.9-9.4-14.4,11.5,6.6,16.6,11Z"/>
      <path class="st5" d="M1742.4,143.1c0,1.2-1.1,1.2-1,0,0-.7,1-.7,1,0Z"/>
      <path class="st5" d="M1737.3,250.1c5.6,5.8-8.9-5.5-9.4-6.3,3.8,2.4,10.3-.3,9.4,6.3Z"/>
      <path class="st5" d="M1738,142.2c1.2.4-1.4,1.8-1,1.8-1.3,0,.2-2.4,1-1.8Z"/>
      <path class="st5" d="M1737.6,225.3c0,.1,0,.2,0,.2-.3,0-.2,0,0-.2Z"/>
      <path class="st5" d="M1735,138.9c-1.4,2.7-3.6,9.5-1.2,11.8-.8-.4-3.8-2.3-2.7-.4,3.1,0-2.4,2.5,1.6,2.3-.3,4.6-5.1,11.6-2,11.8.7,2.9-1.3,1.1-2.6,1.3-2.5.9-1.6,4.4-2.9,2.8-.5-2,1.9-6.8-1.8-3.1-1.9-.7-4-6-7.5-3.2,1.5,2.3,9.4,4.3,3.4,5.1.3,1.4-1.9,3.3-1.9.8,3.2-2.3-4.6-4.5-1.3-8.1-1-1.9.8-5.7,2.7-5.9,1.2-1.3-1.8-1.9,1-1.9,9,6.9,13.2-28.5,15.3-13.3Z"/>
      <path class="st5" d="M1732.3,214.9c1,.2.7,1.1,0,.9-.2-.1-.8-1.8,0-.9Z"/>
      <path class="st5" d="M1730.5,135.1c.3.7-1.6,1.3-1.7.3,0-.6.9-.6,1.7-.3Z"/>
      <path class="st5" d="M1728,174.8c-.9,2.2-1.8.5-1.3-.9,1-.2,1.2.4,1.3.9Z"/>
      <path class="st5" d="M1726.2,171.5s1.6.4,1.2,1c-.9,1.2-3.4-.3-1.2-1Z"/>
      <path class="st5" d="M1726,129.7c-1.3,2-5.1,8.6,0,11.4-4.9,0-3.9,0-3.2,3.5-4.6,5.8,9.8,3-4.9,7.4-6.4-.8,3.4-2.8.9-4.9-6.2,2.1,1.4-17.7.1-22.5.9-4.2.9,2.1,2.8.1,5.3-7.3,1.4,4,4.3,4.9ZM1721.9,132.3c.3,0,.3-.5,0-.4-.3,0-.3.5,0,.4Z"/>
      <path class="st5" d="M1727.5,243.3c-1.7-.7-3-2.4-3.2-4.2.3-1.1,3.2,4,3.2,4.2Z"/>
      <path class="st5" d="M1723.3,169.7c1.2,4.8-2.1,7.3-3.4-.2,1.4-1.7,1.8,2,3.4.2Z"/>
      <path class="st5" d="M1722.7,236.4c.9.4,1.5,1.4,1.6,2.4-1.2-.1-1.9-1.3-1.6-2.4Z"/>
      <path class="st5" d="M1722.7,236c-2.5,1.1-5.9-12.7-6.5-13.9,2.7,3.6,3.6,9.9,6.5,13.9Z"/>
      <path class="st5" d="M1722.1,132.1c0,.3-.5.3-.4,0,0-.3.5-.3.4,0Z"/>
      <path class="st5" d="M1718.8,162.8c.3,0,.3.5,0,.5-.3,0-.3-.5,0-.5Z"/>
      <path class="st5" d="M1718.9,107.5c.2.5-.1,1.5-.8,1.1,0-.4.2-1.4.8-1.1Z"/>
      <path class="st5" d="M1718.8,124.7c1.3,4.6-6.3,24.6-.1,22.5,1.9,2.7-3,1.4-3.2,4.9,2.9-1.1,5,2.2,1.4,2.6-1.6,5.6-2.5,8.3,1.5,12.8-6.3,3.3-2.8,14-4.8,20.2-2.9-10.1-8.1-56.6,5.3-62.8Z"/>
      <path class="st5" d="M1717.8,171.8c1.9-.2.4,1.6-.4,1.3-.8-.5-.2-1.2.4-1.3Z"/>
      <path class="st5" d="M1717.7,110.6c1.4,1.7-1,4.1-.6,6-2.1.4.3-4.7.6-6Z"/>
      <path class="st5" d="M1716.6,120.2c1.1,0-.2,2.1,0,2.8-1.5,1.4-.2-2.1,0-2.8Z"/>
      <path class="st5" d="M1716.7,175.8c.6,0,.6,1,0,1-.6,0-.6-1,0-1Z"/>
      <path class="st5" d="M1717.2,117.5c-1.2,4.6-2,12.2-5.3,15.7,1.1-.2,2.3-11.3,5.3-15.7Z"/>
      <path class="st5" d="M1715.8,172.7c.2.6-.8,1.6-1.3,1.4-.1-.9.3-1.7,1.3-1.4Z"/>
      <path class="st5" d="M1715.6,191c.6,1.2-1,2.9-1.4,1.1-1.3-.1,2.5,5.1-.9,3.6-2,2.3-3.6-15.6-2-18.4,2,3.3-.9,10.6,4.3,13.7ZM1713.8,191.1c.7-.4,0-1.5-.7-.6,0,.7.5.8.7.6Z"/>
      <path class="st5" d="M1714.1,219c1.1.1,1.2,1.4,1.7,2.3-1.2,0-1.6-1.3-1.7-2.3Z"/>
      <path class="st5" d="M1714.4,182.5c.7.5.6,1.4,0,1.9-.6-.4-.6-1.6,0-1.9Z"/>
      <path class="st5" d="M1715.7,177.2c0-.1-.3,5.3-1.3,4.1.2-.9-1.5-7.9,1.3-4.1Z"/>
      <path class="st5" d="M1714.3,185.7c1.1.7.3,1.9-.8,1.9.1-.6,0-1.8.8-1.9Z"/>
      <path class="st5" d="M1714,190.5c.3.7-.9,1.2-1,0,.5-.5.8-.3,1,0Z"/>
      <path class="st5" d="M1713.5,216.2c.7.1.4,1,.4,1.5-.9.5-1.1-1.1-.4-1.5Z"/>
      <path class="st5" d="M1712.9,212c1.8,9.4-4.3-10.4-.3-10.2,0,3.4-1,6.8.3,10.2Z"/>
      <path class="st5" d="M1712.7,197.8c.9.9.3,2.2-.1,3.2-.5-.9-.7-2.4.1-3.2Z"/>
      <path class="st5" d="M1711.8,135.4c.6,0,.6,1.7,0,1.5-.6-.5-.4-1.1,0-1.5Z"/>
      <path class="st5" d="M1711.7,137.8c.5,1.4.1,3.1-.4,4.4-.5-1.4-.6-3.2.4-4.4Z"/>
      <path class="st5" d="M1711.3,170.9c.3,11.9-1.3-4-1.3-8.6,1.4-1.6,1.3,8.2,1.3,8.6Z"/>
      <path class="st5" d="M1711.2,143.6c.4.9.3,2.8-.9,3.1.2-1.1,0-2.4.9-3.1Z"/>
      <path class="st5" d="M1710.3,151.1c.2,1.3.2,2.6,0,3.8-1,1.1-1.2-4.7,0-3.8Z"/>
      <path class="st5" d="M1710.3,155.5c.4.8,0,1.7,0,2.5-1.1.3-1.1-2.8,0-2.5Z"/>
      <path class="st5" d="M1710.4,147.5v1.1c-1.1,0-1-1.1,0-1.1Z"/>
    </g>
  </g>
  <g id="N">
    <path class="st1" d="M1657.1,171c-9,98.1-35.7,135.2-64.3,13.3-7.4-16.9-6.6-37.6-15.1-53.3-8.9,36,1.5,82.1,3.5,115.2,2.4,25.6-45,24.6-38-2.6-1.6-85,9.4-339,62.3-104.6,37,81.9,19.3-79.4,22.4-102.2,52.6-20.4,40.3,104.6,29.3,134.2Z"/>
  </g>
  <g id="I">
    <g>
      <path class="st5" d="M1533,11.3c.5,6.3-33.2,26.9-20.6,14.2,7.3-3.3,9.5-17.8,20.6-14.2Z"/>
      <path class="st5" d="M1531.2,54.6c-2.1,3.7-14.9.7-18.8,2,1-6.3,10.5-9,18.8-2Z"/>
      <path class="st5" d="M1517.8,81.6c10.4,7.2-11,5.6-14-1,.6-8.7,10.3-1.9,14,1Z"/>
      <path class="st0" d="M1507.3,36.8c7.8,4.1,2.3,18.4.3,20.9,14.5,10.8-27,24.7-36.7,18.7-37.7-17.1,13.8-65.7,36.4-39.6Z"/>
      <path class="st0" d="M1510.8,55.6c.9,4.1-1.3.4-3.2,2.2-.4-1.6,2.7-1.5,3.2-2.2Z"/>
      <path class="st5" d="M1504.9,150.3c.5.5.6,2.3-.5,1.9,0-.7-.4-1.8.5-1.9Z"/>
      <path class="st5" d="M1505.1,140.8c-.2,1.7.9,8.6-.8,7.7.3-.4-.9-8.7.8-7.7Z"/>
      <path class="st5" d="M1504.7,134.5c.6.2.4,1,.4,1.5-1,.4-1-1.1-.4-1.5Z"/>
      <path class="st5" d="M1505.1,136c-.7,12-2.1,25.2-3.1,37.7-4.4-1.6-.8,5-6.1,2.7-.1,8.3.7,10-.8,15.1,1.1.2,2.4-3,3.3-.1-.5,5,0-1.1-5.1,3.9-2.3.7-3.6-4.2-1.4-2,2.3-.5-2.2-5.1,1.1-7.2.7-2.6,1.8-3.6-1.7-2.4-.8,1.5.2,6.1-2.5,4.7-.7-1.6,0-9.1-4.2-4.6,1.5,2,.2,4.9-2.6,4.9,1.2,1.5,6.3-.1,2.1,5.8-6.6-9.7-2.6,8-10.7-4.2-1.7,8.5,5.3,4.8.7,10.3,5.6,4.5-2.8-2.4-2.1,9.2-3.2-5.3-.1-3.8-2.3-9.8-.7-.9,4.8-8.4-2.2-8.4,2.4-5.5,3.8,3.1,4-7.8-.4-5.2.1-19.3-.1-20.9,8.4.6,6.2-3.6.6-1.6-.6-1.4-.5-7.6,2.3-5.3,1.4-.8-.2-2.2-1.3-2.5-1.9-4.4,4.9.8,4.2-3.2-1.6,0-2.5-2-4.4.4-4.1-5.7,12.3-3.1,2.8-6.3-7.4-8.8-.5-1.8,1.6-6.9-2.5-.4-1.1-2.3.8-1.9.5-3.1-8-8-.7-8.4,1.7-2.4-3.7-.9-3.1-3.3,3.4-9,4.4-20.5,7.3-27.1-3.6-.8-6.1-8.2-5-10.5-1.3,6.3,7.8-.2,5.5,5.1,1.3,1.7,1.7-3.6,4.2-2.1,1.3-.7-1.3-2.2.5-2.5.9.8,1.6,4.2,4.5,1.6,0,1.4-2.3,1.9.3,1.8,1.3,2.9-3.4,5.5-2.5,6.1,4,.6-1.8,1.9,1,4.6,7.8-2.9,3.2-16.1-3.7-17.9,26-3.6,13,38.1,18.8,52.8ZM1494.9,193.2c0-.3-.5-.3-.4,0,0,.3.5.3.4,0ZM1480.9,187.1c0,1.2,1.1,1.2,1,0,0-.7-1-.7-1,0ZM1481.8,190.5c0-.3-.5-.3-.4,0,0,.3.5.3.4,0ZM1478.1,192.9c-1.8-2-.7-3.4-.3-6.4-1.8-.2-3.5,8.6.3,6.4ZM1468.8,190.5c0-.3-.5-.3-.5,0,0,.3.5.3.5,0Z"/>
      <path class="st5" d="M1505.1,138.5v1.1c-1.1.5-1.1-1.6,0-1.1Z"/>
      <path class="st5" d="M1504.8,126.8c1,1.1.2,2.3,0,3.3-.7-.9-.7-2.5,0-3.3Z"/>
      <path class="st5" d="M1504.4,153.3c.6.3.3,1.5-.3,1.1,0-.3-.1-1.1.3-1.1Z"/>
      <path class="st5" d="M1504,155.2c.9.5-.5,4.7-.6,5-1,1,.2-6.6.6-5Z"/>
      <path class="st5" d="M1503.5,121.9c1.1-.6.5,2,1.2,4.3-1.5-.6-1.2-2.8-1.2-4.3Z"/>
      <path class="st5" d="M1503.8,120.4c0,.2,0,.5-.3.6-1,.2-.3-2.1.3-.6Z"/>
      <path class="st5" d="M1503.4,117c.3.1.4.6,0,.5v-.5Z"/>
      <path class="st5" d="M1503.4,108.4c.6-.6.6,8.2,0,6.9-.7.6-.6-8.1,0-6.9Z"/>
      <path class="st5" d="M1503.3,104.8c.1.3,0,.8,0,1.1-1.5.6-.6-3,0-1.1Z"/>
      <path class="st5" d="M1503.1,163.7c.7.7,0,1.5-.1,2.3-.5.8-.7-2.8.1-2.3Z"/>
      <path class="st5" d="M1502.5,101.7c.5.5.6,1.3.1,1.9-.3-.6-.9-1.5-.1-1.9Z"/>
      <path class="st5" d="M1502.1,172.3c0-.6-.5-5,.8-4.1,0,1.4-.1,2.9-.8,4.1Z"/>
      <path class="st5" d="M1502.5,96.1c-.5,1.5-1.1.1-.8-.8.5-.3.7.3.8.8Z"/>
      <path class="st5" d="M1502.1,98.6c.6.1.3,1,.4,1.4-.6-.1-.4-1-.4-1.4Z"/>
      <path class="st5" d="M1502.1,173.7c-5.4,9,.1,95.2-18.3,93.3-2.9-2.2,1.3-1.4-.5-3.8,0-1.7,2.3-1.7,3.2-3-5-2.2-8.8,6.1-12.6-3.8-14.9,5-6.4-14.8-8.2-24.4,2.3-13.2-2-35.4,4.2-40.2,2.5,7.6-1.6,11.9,1.2,13.9-.4,1.3-.4,3.6,1,4.2,1-.9-.6-8.1,2.4-7.5,2.8,2.3,2-1-.3-1.6-.8-.8,4.1-3.6,1.6-3.5-3.4-1.2-5.7-10.6,3.2-1.5-.1-3,2-5.9,4.6-2.5-2.1,4.4,6.9-3-1.6-4.5,2.8,0,4-2.8,2.6-4.9,6.3-5.9,1.6,7.5,6,4.3-.4-4.5,4.9-7.6,2.5-2-1.2,1.2-2.1,5.3,0,5.8,0,2-1.3,1.1-1.9.6-1.2,1.4.9,2.8,2.2,2.8,2.5-.2,2.4-4.5,4.2-1.7,2.6-2.1-.1-4.6-2.4-2.1,1.4-5.1.6-6.8.8-15.1,5.3,2.3,1.6-4.4,6.1-2.7ZM1498.4,184.5c.8-.8,1.3-2,.7-2.7-.6,1.3-1.6,1.8-.7,2.7ZM1498.5,186.4c0-.3-.5-.3-.4,0,0,.3.5.3.4,0ZM1475.6,195.6c0-.4-.6-.4-.6,0,0,.4.6.4.6,0Z"/>
      <path class="st5" d="M1502,175c0,1.9-.8,2.1-1.2,4,.1-1.4-1.4-4.7,1.2-4Z"/>
      <path class="st5" d="M1499.1,181.8c.6.7,0,2-.7,2.7-.9-.9,0-1.5.7-2.7Z"/>
      <path class="st5" d="M1498.2,186.2c.3,0,.3.5,0,.5-.3,0-.3-.5,0-.5Z"/>
      <path class="st5" d="M1494.7,192.9c.3,0,.3.5,0,.4-.3,0-.3-.5,0-.4Z"/>
      <path class="st5" d="M1482.7,90.4c-10.8-1.7-5.7-7.9,3.6-7.2,6.7,1.7,11.6,14.9,3.7,17.9-2.8-2.7,3-4-1-4.6-1.2,0,5.8-6,1.1-6.1,2.4-3.1-.2-.5-1.6-.8-2.8-3.4-2-3.6-2.4,0-2-1.6-5.3,5.8-3.4.9ZM1485.4,87c.2-1.7-3.3-.8-2.9.2.9.7,2.5,1.1,2.9-.2Z"/>
      <path class="st5" d="M1492.3,18.6c-1.6,24.7-13.7-10.5-5-18.3,6.4.8,3.7,13.2,5,18.3Z"/>
      <path class="st5" d="M1482.9,260.9c5.3-3,1.8.4.2,2.3,3.4,5.4-15,7-19.6-.4,0-15.7,12.9.9,17.7-1.9,1-2.8,1-3.8,1.7,0Z"/>
      <path class="st5" d="M1483.7,86.2c.5-.2,1.9,0,1.7.9-.5,2.1-4.9,0-1.7-.9Z"/>
      <path class="st5" d="M1481.9,187.1c0,1.2-1.1,1.2-1,0,0-.7,1-.7,1,0Z"/>
      <path class="st5" d="M1481.6,190.2c.3,0,.3.5,0,.4-.3,0-.3-.5,0-.4Z"/>
      <path class="st5" d="M1477.7,90.8c-1.5,1.9,1.8,6.3,3.7,6.1-2.3,1.4-.4,2.5.7,3.3-6.8,2.3-.7,11.2-6.1,13.8,1.6,4.7-4.8,11.4,1.4,12.2,1,1.6-2.1,2.4-3.1.9-.6,4.5,4.3,5.8,3.7,8.6-1.9-.4-3.3,1.4-.8,1.9.3,3.4-8,.3-3.7,4.7,11.5,6.8-3.3,1.5-.7,8.5,1.3-2,4.9-.9,4.2.6-.6,2.4-5.8-2.1-4,2.2,5.2,3.6-2.3-.3-1.3,6.9.4,3.3,3.4-2.3,6.4,1.9-2.7-.2-4.2,1.5-6.7.6-.2,86.9-7.4-83.8,6.4-72.1Z"/>
      <path class="st5" d="M1479.9,267.2c.7,0,1.6-.5,2,.3-.4.5-2.2.9-2-.3Z"/>
      <path class="st5" d="M1476.7,191.4c2.5.8,1,2.9-.7,1.2-1.3-5.1,3.8-8.7.7-1.2Z"/>
      <path class="st5" d="M1474.7,267.5c.8-.5,1.3-.6,2.2-.4-.5.7-1.5.3-2.2.4Z"/>
      <path class="st5" d="M1475.3,195.3c.4,0,.4.6,0,.6-.4,0-.4-.6,0-.6Z"/>
      <path class="st5" d="M1469.5,185.8c.4.5,0,1.1-.3,1.9-1.9,1.6-1.4-4.3.3-1.9Z"/>
      <path class="st5" d="M1468.6,190.2c.3,0,.3.5,0,.4-.3,0-.3-.5,0-.4Z"/>
      <path class="st5" d="M1468.3,197.6c1.2,1.1-1.5,2-1.7.7-.3-1.2.8-1.3,1.7-.7Z"/>
      <path class="st5" d="M1468.2,185.7c0,.2,0,.6-.4.5,0-.2,0-.7.4-.5Z"/>
      <path class="st5" d="M1467.8,189.8c0,.2,0,.6-.3.5,0-.2,0-.5.3-.5Z"/>
      <path class="st5" d="M1454.9,79.4c11.2,6.4-5.2,13.2-10,18.4-13.5-2.4,3-18.1,10-18.4Z"/>
      <path class="st5" d="M1455.8,18.6c-2,5.3-2-3.6-3.3-5.5-3.7-2.8-13.2-9.2-7.3-12.6,2.8-.3,3.2,5.3,4.7,7.1,1.7,6.7,4,.8,5.9,11Z"/>
      <path class="st5" d="M1452.5,13c5.7,14.7-10.5,3.3-10.8-4.9,1.8-8.5,6.8,4.3,10.8,4.9ZM1451.3,13.5c0-.3-.5-.3-.4,0,0,.3.5.3.4,0Z"/>
      <path class="st5" d="M1451.1,13.3c.3,0,.3.5,0,.4-.3,0-.3-.5,0-.4Z"/>
      <path class="st5" d="M1448.1,31.8c6.3,7.5-23.6-1.1-20.4-5.9,4.3-3.2,19.2.3,20.4,5.9Z"/>
      <path class="st5" d="M1444.5,59.2c-2,5.3-15.2,14.8-20.9,6.5,8.1-3.7,13.6-18.7,20.9-6.5Z"/>
    </g>
  </g>
  <g id="L">
    <g>
      <path class="st0" d="M1443.3,263.3c-4.1,10.6-24.5,5.4-34.2,6.1-14.4,3.6-46.6,3.2-43-20.5,1.6-67.3,1.7-132.8,3.6-201,67.4-71.3,7.4,175.7,40.8,185.5,25.5,1.5,30.4-4.9,34.9,20.4-2.3,4.8-14.6,13-2,9.6ZM1438.7,258.2c.5-4-2-2.1-2,.7-2.7,4-8.8-.2-9,2.2,4.7,2.3,8.6,1.2,10.9-2.9Z"/>
      <path class="st5" d="M1383,33.5c3.8,2.2-2.7,1.1-5.4,1.2,1.1-1.9,3.5-1,5.4-1.2Z"/>
      <path class="st0" d="M1437.9,255.6c3.5,4.8-5.7,8.7-10.1,5.5,1.1-1.7,10,1.5,10.1-5.5Z"/>
    </g>
  </g>
  <g id="L1" data-name="L">
    <g>
      <path class="st4" d="M1353,260c-9.2,7.8,10.9,10.7-15.7,11.5-1.2-1.5-2.1,1.4-3.6,1.3.5-1.4-2.7-2.2-3.5-1,.6,2.7,1.7,3.2-4.6,1.9,0-2.2-5.1.5-5.7-3.8,0,2.8-6.9,3-4.9-.2-2.7-5.7-16.8,6.3-14.5-2-1.1-2.5-2.1-.3-2.1,1.4-1,1.9-1.8-5.3-3.1-1.2-1.8,4-6.7-3.4-8.6,3.4-2.1,0,.4-3-.9-3.7-11.7,11.4-25.8-5.5-18-20.2,4.3-65.6-4-130.7-.4-197.7,46.1-58.9,28.4,79.2,29.4,100.3-3.1,43.4-14.2,99.2,50.2,87.6,2.2,4.3-3.6,12,2.9,12.7-2.7,5.8-2.7,7.8,3,9.5ZM1335.8,270.3c7.1.1,4.1-3,1.7-3.3.6,1.8-4.3.3-1.7,3.3ZM1305.1,238.5c11.8,2.9-6.5-5.4-10-7.2,1.3,4.7,6,3.5,3.6,6.3,4.2,3.7,3.4,0,6.4.9ZM1282.3,268.9c1.9-2.4-1.1-3.8-2.7-2.2,1.2.7,1.9,1.4,2.7,2.2ZM1277.3,266.8c3.2-.1-2.2-5.9-2.3-2.6.7.8,1.8,1.2,2.3,2.6Z"/>
      <path class="st4" d="M1340.1,268.8c1.8,1.2-6.3,2.7-4.9-.5,2.4-.1,2.8-3.1,4.9.5Z"/>
      <path class="st4" d="M1337.4,267s0,0,0,0c0,0,0,0,0,0Z"/>
      <path class="st4" d="M1310.4,238.7c-8.8.6-10.5,1-15.4-7.4,6.1,2.3,8.3,5.6,15.4,7.4Z"/>
      <path class="st4" d="M1282.1,266.2c.9.3,1.3,1.2.2,2.6-1.6-1.3-4-3.5-.2-2.6Z"/>
      <path class="st4" d="M1275.9,263.1c.8.3,3.9,3.6,1.3,3.7-.3-1.7-4-2.8-1.3-3.7Z"/>
    </g>
  </g>
  <g id="A">
    <g>
      <path class="st2" d="M1242.9,250.3c0,20.1-9.4,15.9-4.3,5.3,3.6,6.8.2-12.9,4.3-5.3Z"/>
      <path class="st2" d="M1233.5,179.3c-4.1-1.3-.5-8.8-3.4-9.2-.1,7.8-.8,7.6.2,13.7,3.6,15.7,7.9,31.2,6.9,49.4,1.8,4,6.6,25.8,1.4,22.3-1.7,7.6-23.2,14.9-23.7,3.6,3.4-21.8-9.1-44.6,1.3-63.4-6.1-1.1-20.4-12.8-20.7-6.7-8-6.6-5,3.2-18.5,3.5-10.2.9-21.9-5-26,5.7-8.1-3.5,3,54.9-10.2,64.3-12.3-2.7-.8-16.3-6.5-24-6.1.2-.4-12-2.9-16.2-6.2,14,2.6-20.5-11.3-15.8-.2-11.1-7.3-49.1,8.4-42.8,2.9-1.4.8-8.1,2.1-10.8,4.2-6.6-2.1-4.7.9-11-.6-2.8,3.1-5.1,1.5-8.5-13.7-3.6,9.8-105.1-3.8-57.4-1.8,1,.9,3.4-2,6.2-.9-5.3-1.9-11.1,2.7-13.6-1.2-12.2,13.1-40.4,30.4-34.3,12.2.2,14.9,2.7,27,7.9,7.5,3.5,2.2.4,3.2-4.3,4.9,2.4,34.3,40.2,24.2,34.8-5.6,6.5,17.7,29.2,14.9,48.9-4.2,1.9-3.1,8.9,0,10-1.8,1.7-3.4,2.5-1.5,4.8-.8.8-2.5,10.2,1.4,9.9-.8,3.1-2.8,11.7,1.1,14.8.1,9.9,3.8,13.3,5.2,24.3-1.6,12.2-2.1-4-2.2-6.4ZM1218.9,253.1c7.5,15.2,14.3-9.9,11.9-19.2-.6-5.9-3.9-6.3.3-10.9-6.4-13.8-4.4-25.5-8.1-38.5-1.9,24-2.5,42.5-4.1,68.6ZM1207.4,121.2c-.2-10.7-7.5-22.5-4.4-30.9-4-.7-14.8-20.7-11.2-19.8,1.3.7,1.1-.9.9-1.6.7-1.6,3.4,3.4,3.5.6,0-1.8-2.4-.2-2.8-2.9-.3-8.2-7.5-1.8-.7-.1-2.3,2.4-5.7,2.9-3.9-1.2-10.6-.2-19.6-10.5-29.7-5.2,3.9,6.7-8.5-2.9-4.1,2.4-.5,3.8-5.3,8.1-6.2,12.7,4.7,7.5-7.8,23.7-5.8,35.4,5,.2,2,10.5.8,14.2-.4,11.9,5.5,33.1,2.7,43,6.7,12.2,38.4-7.2,43.8,9.5,17.6.6,12,5.2.5,2.1-9.1-6.3-6.5,6.1-5.5,1.2,3.6-1.6,5.5,7.3,10.2,1.5,2.3,1.2,13.9,8.3,10.3,3.8,5.3-3.3,11.3-3,15.2-6.1,1.3-5.7-8.4,1-8.8-1.1,3.6-4.8,4-2.7,7.4-3.2-1.3-6.4-1.7-3.3.6-8.4-.4-6.2-2.5-7.5-1.3-12.2-4.5-1.6-.7,5.1-3.3,6.3-6-.9.8-14.7-3.4-18-.3-6.7-1.5-12-3-18.2,3.5-1.2-2.5-1-1.9-3.9ZM1134.8,100c.2,8.2,1.5,6.1,4.3.1-1.9-2.8,1.1-3,1.5-4.7-4.1-.2-5.2-1.1-5.7,4.6ZM1225.3,113.8c-2.3-5.6-5.2,4.9-1.3,3.8.8-1.4-.6-2.8,1.3-3.8ZM1220,161.3c0-.3-.5-.3-.4,0,0,.3.5.3.4,0ZM1208.3,186.9c0-.3-.5-.3-.4,0,0,.3.5.3.4,0ZM1196,54.5c.6-3.5-2.9-4.7-6.2-4.9-2.9,1.1-3.9-4.8-4.4.1-1-.4-.7-1.3-.5-2.3-4.8,1.1-1.6-6.9-6.5-3-3.7,3.2-8.4-1.4-7.6,3.1,5.3,6.3,3.8,3.2,8.8,0,0,9,13.2,4,16.4,7ZM1195.3,187.3c0-.3-.5-.3-.5,0,0,.3.5.3.5,0ZM1142.1,75.9c1-1.7-.4-3.2-2.2-2.1-1.8,2.5.6,11.1,2.2,2.1ZM1139,159.7c.5-2.8-3.1-.3-1.3.7.6.2,1.3-.1,1.3-.7ZM1138.7,193.9c-2.1-3.2-2.3,0-2.9,1.6-6.6,9.2,2.6,9.4,2.9-1.6ZM1136.6,214.5c2.3-4.4-3.1-14.8-.9-7-3.7,1.9-1.4,24,.9,7ZM1122.2,203.4c3.9-.2,2.4,1.1,7.2,0-.8-4-9.7-3.1-7.2,0Z"/>
      <path class="st2" d="M1240.7,247.2c.3-.2.4.3.4.5-.2-.1-.3-.4-.4-.5Z"/>
      <path class="st2" d="M1235.8,208.1v.6c-.4,0-.2-.4,0-.6Z"/>
      <path class="st2" d="M1233.3,190.2c4.4-3.2.2,11.4.6,3.5,0-.7-1.4,0-1.9,0-7.4-20.8,2.9-28.9,1.3-3.4Z"/>
      <path class="st2" d="M1234.9,199.6c.6,1,.3,2.1.4,3.3-1.3-.4-.9-2.3-.4-3.3Z"/>
      <path class="st2" d="M1233.4,174.6l.6,2.6c-2,.5-1.5-4.5-.6-2.6Z"/>
      <path class="st2" d="M1232.6,155.5c-4.1,17.8-5.2-7.3-3.3-8.9-3.9-.3-1.5-2.9-2.6-5.6,2.2-1.8-2-6.3,2.7-9.1-5.5-4.6,2.1-17.7-2.5-27.1,4.4,9,6.2,36.4,5.7,50.7ZM1229.5,137c0-.3-.5-.3-.5,0,0,.3.5.3.5,0Z"/>
      <path class="st2" d="M1232.6,170.3c0,.4.2,1.1-.4,1.1-.6-.5-.7-2.5.4-1.1Z"/>
      <path class="st2" d="M1231.7,168.2c0,.5,0,.9,0,1.4-.9.2-.4-1.1,0-1.4Z"/>
      <path class="st2" d="M1229.6,218.8c8.9,44.7-19.7,55.3-7.3,3.6-6.1-3.4,1.9-22.7,1.2-25-1.6,2-.7-12.1-.4-12.9,2.1,4.1,3.4,21.9,3.2,27,3.1,5,3-2.5,3.3,7.3ZM1228.9,223.1c.5,0,.7-.3.2-.6-1.2,0-1.3.5-.2.6Z"/>
      <path class="st2" d="M1230.4,162.3c.6.2.2,1.1,0,1.4-.6-.4-.5-1.1,0-1.4Z"/>
      <path class="st2" d="M1229.2,136.8c.3,0,.3.5,0,.4-.3,0-.3-.5,0-.4Z"/>
      <path class="st2" d="M1229.2,222.5c.5.3.3.5-.2.6-1,0-.9-.6.2-.6Z"/>
      <path class="st2" d="M1227.6,103.9c-3.6-5.2-1.1-7.5-7.2-11.9,1.4-6.6-11.9-14.3-7.1-19.5.7,5.6,0-1.2,4.3,2.9-13.1-31,10.8,15.9,10.1,28.5Z"/>
      <path class="st2" d="M1223.8,112.4c3.2,0-.1,3.4.2,5.2-1.6,1.4-3.5-5.5-.2-5.2Z"/>
      <path class="st2" d="M1220.2,177.6c4.4,4.5-6.6,4.5-10,6.5-5.9,1.2-1.2,4.6-7.2,2.8-1-2.7-7.4-5.7-10.3-2.7-3.3.7-6.4-8.1-7.2-1.8-5.4-4.7,4.4-6.2,5.7-2.1,2-1.1,11.7,2.2,10.3-2.1-6.9-.1-10.8.9-13.1-5.8-1.6-.2-14.9-3.3-8.1-3.1,17.8-5.7,36.1,6.3,32.1-26.2,4.1,3.4-2.6,17.1,3.4,18,2.5-1.2-1.2-7.8,3.3-6.3-1.2,4.7.9,6,1.3,12.2-2.5,5.4-1.8,1.9-.6,8.4-7.6-.5-10,5.7.5,2Z"/>
      <path class="st2" d="M1219.8,161c.3,0,.3.5,0,.4-.3,0-.3-.5,0-.4Z"/>
      <path class="st2" d="M1214.8,259.3c-4.9-36.2,11.2-74.8-60.5-66.9,7.1-2,15.3,1.3,22.5.2,13.5-.3,10.5-10.1,18.5-3.5.5-3.6,5-4.6,2.5-.7,8.1,3.4,24.1,5.5,14.6,14-2.9,17.2,4.8,38,2.3,56.8Z"/>
      <path class="st2" d="M1211.9,141.2c.6.2.3,1.1.4,1.6-.9.4-1.1-1.1-.4-1.6Z"/>
      <path class="st2" d="M1210.5,130.2c2.1,1,1.4,2.4,1,4.4-1.9-.7-3.2-10.7-4.1-13.1,6.1,6.3-.5-.5,3.1,8.7Z"/>
      <path class="st2" d="M1211.4,135.8c.7,1.3.6,2.8.6,4.2-.5.9-1.9-4.6-.6-4.2Z"/>
      <path class="st2" d="M1210.6,60.8c-1.3,0-1.6-1-1.6-2.1.8.5,1.5,1.2,1.6,2.1Z"/>
      <path class="st2" d="M1208.1,186.6c.3,0,.3.5,0,.4-.3,0-.3-.5,0-.4Z"/>
      <path class="st2" d="M1207.4,121.2s0,0,0,0c0,0,0,0,0,0Z"/>
      <path class="st2" d="M1207.4,121.2c-.8,1.3-2.4-6.6-1.7-6.8.7-1.3,1.6,6.3,1.7,6.8Z"/>
      <path class="st2" d="M1207.5,56.8c-1.2.2-1.3-.9-1.4-1.8.9,0,1.3,1,1.4,1.8Z"/>
      <path class="st2" d="M1204.8,110.2c1.2-.5,1.2,1.7.4,2-.4-.6-.7-1.2-.4-2Z"/>
      <path class="st2" d="M1202.6,99.1c.9-2.1,3.3,11.2,2.1,9.9-.9-3.2-1.7-6.5-2.1-9.9Z"/>
      <path class="st2" d="M1203.9,52.8c.2,0,.4.2.5.5-.2,0-.4-.3-.5-.5Z"/>
      <path class="st2" d="M1203,90.3c-4.1.8.8,6.4-.5,7.8-3.3-4.8-2.3-6.4-2.8-7.4l-2.1-5.1c3.3,3.7,3.1,3.9,5.4,4.7Z"/>
      <path class="st2" d="M1202.2,51.4c-.4.6-.6.2-.6-.4.2,0,.4.2.6.4Z"/>
      <path class="st2" d="M1199.4,49.6c.4,0,.8.2.8.6-.4,0-.8,0-.8-.6Z"/>
      <path class="st2" d="M1198.5,46.9c-.3,1.4-1.1-1.7-.4-1.8.2.5.2,1.2.4,1.8Z"/>
      <path class="st2" d="M1197.6,44.3c.5,2.7-5-5.6-7.1-6.1,5.4,15.4-32.6-16.2-46.6-.2,10.7-12.5,44.8-8.9,53.7,6.3Z"/>
      <path class="st2" d="M1197.5,83.7c.2.4,0,.8,0,1.1-1.2.4-1.1-2.5,0-1.1Z"/>
      <path class="st2" d="M1193.4,66.6c.4,2.7,2.9,1.1,2.8,2.9-.1,2.8-2.8-2.2-3.5-.7.5,1.7-.5,2.2-1.6.8,1,6.5,5,13.8-3.6,2.2-8.2-9,.2-8.5,2.5-3,.9-1.2,4.7-3.7.8-2.8-3.2-5.1,3.1-4.7,2.7.6Z"/>
      <path class="st2" d="M1196.2,81.4c.2.3,0,.8,0,1.1-1.3.3-1.1-2.4,0-1.1Z"/>
      <path class="st2" d="M1194.7,50.1c1.8,2.5,1.3,7.4-.6,2.9-4.2.8-14.7,1.7-14.5-5.5-5,3.2-3.6,6.2-8.8,0-.8-4.6,3.9,0,7.6-3.1,1-.8,1.6-1.4,2.9-.7.8,4.9,2.4,1.9,4.1,5.9.4-4.9,1.4,1,4.4-.1,2-.7,3.3,2.5,4.9.5Z"/>
      <path class="st2" d="M1195.1,187.1c.3,0,.3.5,0,.4-.3,0-.3-.5,0-.4Z"/>
      <path class="st2" d="M1187.8,167c5.1,4.3-28.7.2-9.1-.1,2.1.6,5.7-.3,9.1.1Z"/>
      <path class="st2" d="M1183.7,166.9c.1.7-1.1.6-.9,0,0,0,.9,0,.9,0Z"/>
      <path class="st2" d="M1181.9,64.5c-.1,0-.3-.2-.4-.3.1.1.3.2.4.3Z"/>
      <path class="st2" d="M1181.4,64c0,0,0,.1.2.2,0,0-.1,0-.2-.2Z"/>
      <path class="st2" d="M1181.4,166.9c-.2.3-1.1.5-1,0,.3,0,.7,0,1,0Z"/>
      <path class="st2" d="M1179.2,166.9c0,.6-.6.6-.5,0,.2,0,.3,0,.5,0Z"/>
      <path class="st2" d="M1178.4,169.4c-16.5,3.7-35.2,7.8-31.4-12.9,7.5,12.9,23,8.3,31.4,12.9Z"/>
      <path class="st2" d="M1178.7,62.7c-13.3,8-14.9-4.2-27.7,15.7-.1-3.8-2.9-5.6,1.2-10.9,5.2-1.5-.3-9,3.8-6.4,5,4.4,2.2-2.9,7.7-2.3.6-1.2,14.8,1.5,15,3.8ZM1151.8,73.9c0-.6-1-.6-1,0,0,.6,1,.7,1,0Z"/>
      <path class="st2" d="M1175.6,166.9c.2.8-1.6.5-1.4,0,0,0,1.4,0,1.4,0Z"/>
      <path class="st2" d="M1154.4,192.4c-5.6,22.5.7,53.3-13.7,70.2,10-17.9,8-41,7.1-60.9-3.8-1.5,3.4-7.4,3.1-3.4,3.5.4,1.1-4.9,3.5-6Z"/>
      <path class="st2" d="M1152.6,137.5c-10.1,44.1-10.5-36.2-4.6-52.3,2.7-11.8-.7,44.4,4.6,52.3Z"/>
      <path class="st2" d="M1151.3,73.4c.6,0,.6,1,0,1-.6,0-.6-1,0-1Z"/>
      <path class="st2" d="M1142,73.7c.8,1-1,7.7-2.1,6.2-1.4-2.6-.9-7.8,2.1-6.2Z"/>
      <path class="st2" d="M1141.3,263.2c-42.6,20.4-20.2-62.5-23.9-84.3,1,40.7,7.9,15.9,12,42.2-1.2,1.8-1.6,8.1.9,4.4,2.2-8.1,1.1,9.2,1.4,13.4,11.2,1.5-4.7,22.6,9.6,24.3Z"/>
      <path class="st2" d="M1140.5,95.4c-.3,1.7-3.4,1.9-1.5,4.7-5.4,15.4-7.1-9.1,1.5-4.7Z"/>
      <path class="st2" d="M1138.5,158.4c1.1.2.4,2.6-.9,2-1-.3-.1-2.4.9-2Z"/>
      <path class="st2" d="M1137.2,192.6c5.8,1.7-5.7,15.4-3.7,9,1.7-2-1.1-5.4,2.2-6.1,1.4-.9-.7-3.1,1.4-2.9Z"/>
      <path class="st2" d="M1136.7,205.3c.3,3.6,0,16-2.6,14.8-.3-4.7-.5-16.7,2.6-14.8Z"/>
      <path class="st2" d="M1133.8,52.8c-.9,1.3-2.3,8-4.1,8.1-.4-1.8,2.6-7.2,4.1-8.1Z"/>
      <path class="st2" d="M1132.8,61.3c1.3,18.3-5.8,46.5-5.2,63.8-4.1-13.3-4.9-25.8-2.2-45,.2-6.4,1.4-2,1.6,2.3,2.9-2.8.2-5.1,2-6.2.8,1.4,2,.4,1.6-1.1-.9-3.6.3-7.7,2.1-13.8Z"/>
      <path class="st2" d="M1132.9,133.6c1.6,3.4-2.1,5.7-1.5,8.5-3.1,6.2,3.3,4.4-.9,11-1.3,24.3-4.4-8.9-13.8,25.9,3.3-6.9,6.6-68.6,16.2-45.3Z"/>
      <path class="st2" d="M1129.8,63.3c.1.6-1.3,7.6-3.1,9.4-.1-3.3.4-7.8,3.1-9.4Z"/>
      <path class="st2" d="M1129.4,203.4c-4.7,1.1-3.2-.1-7.2,0-2.5-3.2,6.4-4,7.2,0Z"/>
    </g>
  </g>
  <g id="H">
    <g>
      <path class="st5" d="M1092.8,190c-3.6-1.9.4-2.5,2.1-.6,4.4-.7-1-11.4,2.5-11.4,6.4,11.1-2.9,39.9-4.6,11.9Z"/>
      <path class="st5" d="M1097.4,202.6c1.9,4.5-1,35.4-7,24.2,2.9.6-.5-3.3,1.7-5.5.7,1.9,3.5,2.6,2.4,0-.4,0-5.2-3.7-.2-3.5,0-5.7-4.6-16.3,3.2-15.3Z"/>
      <path class="st5" d="M1093,211.7c3.3,10.3-3.9,2.5,1.3,11.4-6.8-4.9,0,4.8-4,3.8.5,3.3,3.9.5,3.6,4.6-5.2-3-3.1,5.6-2.1,7.9-.8,1.4-5,4.6-1.1,3.6,1.3,2.5-9.4,5.6-1.2,5.9-1.3,6.9-17.1,22.2-21.7,13.5,1.2-2.4,4.3-2,5.1-5-1.9-4.2,3.7-2.3,2.6-6.5,1.2,1.3,5.5,1.3,2.4-.8-5.3.8-8.4,5.8-13.7,8.8-2.3,1.6-2.6-.7-3-2.2-.5-.8-3.8,0-3.6-2.3,1.1-3.5-5.9-.3-2.4-4.6,4.9-1.4-1.1-.3.2-3.5-2-5.1.9-13.1-4.8-15.4,3.6-20-8-45.8-4.6-66,.9-7.3-.6-17.8-3.9-4.8-2.2,2.9-2.5-2.1-5.1,1-10.4-5.9-.5,2.3,4.1,5.5,4.9,16.9-9.6-5-19.6.7-18.1,2.7-2.1,61.6-4.9,79.9,0,7.8-25,25.3-19.5,13.3,4.7.3-.3-5.4,5.3-6.8-2.4-1.4-2.6,1.4-2.2-3.1,1.3-1.1-.7-12.9-1.9-9.5,1.2,8.1-2.7,18-5.7,25.8-28.3-6.3-10.8-60.1-11.9-83.4,3.7-30.7-20.9-170.8,14.1-170.5,26.4,16.8,18.3,57,29.6,83.6,44.5,62.9,33.2-37,36.5-47.3,1.4-.8,3.9-2.9.1-2.5.4-2.2.7-6.2-1.9-6.4,2-2.8,7-4.8,7,1,6,0-.3,11,5.4,9.5,2.7,1,.4,11.2,3.9,8.1,2.7,2.7-1.2,14.4,1.4,12.9,2.1-2.9,1,7.1,6.4,2.5-.5-3.4-.3-1.8-3.1-2.2,1.8-2.5,9.2.3,4.1-2.3-2-4.2,2.3-3.6,5-4.5-5.5-.9,1.4-9.1-1.6-13.4-2-4-1.2-20.2-7.8-13-5-2.2,6.8-5.7-.3-4.8-1.4-6.3-4-4.3-3.1.8-1.5-1.4-1.9-3.5-3.3,0-3.1-11.8-10.3-3.7-14.4,2.1-1.3,4.4-1.9-10.4.2-12.9,40.6-29.5,37.3,41.3,38.2,60.8.8,6.8.7,48.3-1.7,32,0-.3-.4-.8-.6-.6-2.9,3.2,1.7-2.8-2.3-1.7-3.8,6.2,4.4,6-.3,9.8,5.8,3.1.3,8.9,2.9,15.5-1.6,1-1,5.6.8,6.8-1.1,1.3-4.2-.8-3,2.1,3.4,1.7-1.8,3.7,3.8,4.4-5.2,2.9-1.5,5.5-2.9,6.1-2.7.8,2,3.9,1.8,5.9-4.7-1.7,1.3,8.2-3.7,3.6-2.7,5.6,4.1,14.6-.4,20.6,3.2,2.2-.7,11.9,5.7,13-5.8-.5-4.2,4-4.3,9.1ZM1092.5,159.5c0-.3-.5-.3-.4,0,0,.3.5.3.4,0ZM1091.6,187.1c0-.6-1-.6-1,0,0,.6,1,.7,1,0ZM1081,201.5c.8-3.1-1.7-5.4-.3-9.7-2.8-4.7,2.8-6.5-1.1-9.5,4.7-4.2-3.5-7.2-2.1.7,3.6,19.8-3.8-2.8-2.6,14.6-.8,4.7,7.8,5.3,1.4,6.1-1.3,6.3.5,18.3-4.3,22.8-5.8,1.4,6.1-.5-1.5,8.5,2.3,0,1.9,3.1.7,1.2-2.4.8.7,3.5,2.3,2.3,2.6-1,.7-4.7,2.7-3.7,1,5.3,1.6-2,1.3-5.3-1.4.2-3-1-2-2,3.7,4.9,2.6-6.7,3-8.8-.3-1.8,7-3.1,1.7-4.1,0-5.2-.3-7.5.9-12.9ZM1076.5,248c3.4,4.2,2.9-7,1.6-7.1-2.4.4-.3,7.2-1.6,7.1ZM1071.8,246.4c.4,5.7,7.7,1.1,1.5,1.1-.8-.4-.4-2.5-1.5-1.1ZM1074.3,242.5c-.6-7.2-5.5,3.3-.3,2.7-1.3-2.1-2-2.1.3-2.7ZM1074.5,206.6c0-.3-.5-.3-.5,0,0,.3.5.3.5,0Z"/>
      <path class="st5" d="M1097.4,131.7c.8,7.3.5,33.7-4.1,15.6,3.3,2.7,2-12.4,0-12.9,2.4-1.7,3.2-8.7-.9-9.8,4.7-3.8-1.6-1.8-.4-7.6-.7-2.3,2.6-3.1,2.7-1-.6.4-1.4.8-.7,1.5.7.4,1-2.2,1.6-.3-1.3,4.3,3.4,7.3,1.8,14.6Z"/>
      <path class="st5" d="M1097.5,125.1c0,.3,0,1-.4.9-.5-.4,0-1.1.4-.9Z"/>
      <path class="st5" d="M1097.4,177.3c-2.1,1.8-.3,7.9-1.1,11.7-5.6,2-2.4-7.9-3.6-11.2-1-.5-3.1,0-1-1.3-2.4-15.7,3.5.5,2-11.3,4.9.6-5.1-7.1,3-11.8,1.7,6.3-2.1,17.8.6,23.9Z"/>
      <path class="st5" d="M1097.4,177.3c-.3.2-.4-.3-.4-.5.3-.2.4.3.4.5Z"/>
      <path class="st5" d="M1097.4,123.8c-.2.2-.3.1-.7,0-.7-.5.7-.7.7,0Z"/>
      <path class="st5" d="M1096.6,171.3c.3-.2.4.3.4.5-.3.2-.4-.3-.4-.5Z"/>
      <path class="st5" d="M1096.9,175.4c-.3.2-.4-.3-.4-.5.3-.2.3.3.4.5Z"/>
      <path class="st5" d="M1093.9,231.5c.5,22.9-13.6,18.4-3.4,13.3.9-3.4-3.9-.2,1.3-5.5-1.1-2.3-3.1-10.9,2.1-7.9Z"/>
      <path class="st5" d="M1092.3,159.2c.3,0,.3.5,0,.5-.3,0-.3-.5,0-.5Z"/>
      <path class="st5" d="M1091.1,186.6c.6,0,.6,1,0,1-.6,0-.6-1,0-1Z"/>
      <path class="st5" d="M1069.4,46.6c1.2-5.6-10.6-12.8-8.5-5.6.2,6.4,2.4,7.1.7,12.3-1.9-.4-.1-1.6-.7-2.6-5.1,3-1-13.7-2.1-14.2,2.9-1.9,5-5.7,8.1-7.4,1.5,0,9.2.9,4,3-1.4,1.6,2,.5,2.3,3.1,1.3-3.2,1.9-1.8,3.3,0-.9-4.9,1.7-7.4,3.1-.8,4.1-1.1,2.1,1.7-.4,1.8-1.9,8.4,6.9-6.3,5.7,6.9,1.6,3.4,5.7,13.4,1.5,21.5,7.6,1-9.2,2.4-.3,6.1-.2,2-4.4-.8-6,1.7,5-.8,3.2,2.9-.9,3.9.8-2.7-2.9-6.9-2.4-3.6-3.2-1.5,2-7.2-.7-10.1.2-4.1-1.1-1.9-2.8-3.4,1-2.8-.5-6-1.7-8.2-3.5,0-2.6-1.2-2.2-4.4ZM1060.4,46.1c.3,0,.3-.5,0-.5-.3,0-.3.5,0,.5Z"/>
      <path class="st5" d="M1081.5,198.7c-1.2,6.8-1.6,9.9-1.3,15.7,5.3,1-2,2.3-1.7,4.1-.4,2.2.7,13.7-3,8.8-1.1,1.1.5,2.2,2,2,.3,3.4-.4,10.4-1.3,5.3-1.1-.6-2.6,7.2-5.8,2.8-.3-1.3.7-2.1,1.4-.6,1.1-.9,0-1.7-1.3-2,8.1-12.4-5-3.3,2.5-10.6,5.9-2.8-1.8-21.3,6.5-21.6-5.7-.6-5.3-10.3-3.7-13,6.4,6.9-.8-9.8,3.2-12.3,5.6,4-2.1,15.2,2.6,21.2Z"/>
      <path class="st5" d="M1079.4,248.9c-1.2,0-4.4-.2-2.3-1.4-.6-9.1,1.8-7.6,2.3,1.4Z"/>
      <path class="st5" d="M1048.9,203.6c3.3,13.5,3.1,30.5,6.8,44.8,4.8.7-3,1-1.1,4,1.4.8,3.7-1,3,2.1,3.1,6.6,13.2,3,15.7-3.4,1.1-.8,8.8-1.2,4.4,1-4.2-3.3-3.5,7.1-7.4,7.6-1.6,2.5-3.4.8-.6,5.5-28.5,8.2-27-74.9-20.8-61.7ZM1067.1,263c-1.7-4.1-4.9-1-7.7-3.6-.9,3.1,5.5,3.4,7.7,3.6Z"/>
      <path class="st5" d="M1075.8,249.4c-1.7,1.2-6-3.5-3.1-3.2,0,2.7,3.3-.4,3.1,3.2Z"/>
      <path class="st5" d="M1072.6,239.7c4.8,2.2-1.8,2.9,1.4,5.5-3.4.2-2.1-3.6-1.4-5.5Z"/>
      <path class="st5" d="M1074.3,206.4c.3,0,.3.5,0,.4-.3,0-.3-.5,0-.4Z"/>
      <path class="st5" d="M1062.1,261.2c1.9-1.2,4.1-.5,5,1.8-4,1.7-11.8-6-5-1.8Z"/>
      <path class="st5" d="M1060.6,45.8c0,.3-.5.3-.4,0,0-.3.5-.3.4,0Z"/>
      <path class="st5" d="M1058.8,46.1c.6,0,.6.5,0,.5,0-.1,0-.3,0-.5Z"/>
      <path class="st5" d="M1058.6,41.4c.2.4.2,1.5-.6,1.1-.1-.3,0-1.6.6-1.1Z"/>
      <path class="st5" d="M1058.6,44.3c.3.3.1.7,0,1-.9.5-.9-1.8,0-1Z"/>
      <path class="st5" d="M1046.6,189.5c-.2,23-2.5-13.5-5.2-16.5,2.6-7.5-6.8-10.2-9.5-13.8,2-2.4,4.7,4.2,7.4.6,2.7,5.5,3.3-5.9,6.3-6.4.5,11.4.5,23,1,36.2ZM1046.2,181.9c0-.3-.5-.3-.5,0,0,.3.5.3.5,0Z"/>
      <path class="st5" d="M1046,181.7c.3,0,.3.5,0,.4-.3,0-.3-.5,0-.4Z"/>
      <path class="st0" d="M1043.5,178.3c.1.5.1,1.3-.5,1.2-.6-.6-.5-2.3.5-1.2Z"/>
      <path class="st0" d="M1043,175.5c-1.1,5.4-8.5-5.9-13.3-7.7,6.6-.6,8.9,4.1,13.3,7.7Z"/>
      <path class="st0" d="M1024,166.4c1.5,1-1.6,1.4-.7.2.1-.2.4-.4.7-.2Z"/>
      <path class="st0" d="M1021.1,166c.7,0,.4,1,.5,1.4-.7.3-1.5-1.3-.5-1.4Z"/>
      <path class="st0" d="M1018.1,169.2c2.7,2.9-6.9,10.3-4.3,2.8.8-.9,4.7.3,4.3-2.8Z"/>
      <path class="st0" d="M1017,239.2c.1,1,.4,1.9.3,2.8-1.2.8-.8-3.7-.3-2.8Z"/>
      <path class="st0" d="M1016.2,247.5c.3-.9.5.4,0,.6,0-.2,0-.4,0-.6Z"/>
      <path class="st0" d="M1013,254.5c-1.9,9.4-14.7,12.3-22.5,13,8-2.3,16.5-7,22.5-13Z"/>
      <path class="st5" d="M1000.1,253.9c6-5.3-12.8,25.3-5.9,7.4,4.9-3.4,3.6-15.7,4.2-20.2,2.5-2.4,2.3,10.6,1.7,12.8Z"/>
      <path class="st0" d="M983,263.7c8.5,7.7-4.7-.4-4.5-4.8,2.2.1,1.9-2.8,1.8-4.2,2.1.9-1.6,7.5,2.7,8.9Z"/>
      <path class="st0" d="M980.2,167.3c.3,9.2,2.1,54.1-6.1,51.9.4-19.5,5.8-33.2,5.7-54.2.7-3.5.9.9.4,2.3Z"/>
      <path class="st0" d="M980.6,253.4c.1.2,0,.5-.3.7-1,.2-.4-2,.3-.7Z"/>
      <path class="st0" d="M979.2,249.1c.6.9,1.5,2.2.6,3.2-.2-.7-1.7-2.7-.6-3.2Z"/>
      <path class="st0" d="M975.8,224.3c.4.6.3,3.3-.7,2.8-.6-.5.2-2.4.7-2.8Z"/>
      <path class="st0" d="M975.7,227.9c.4,1.6-.5,4.9-1.3,2,1-.5-.5-2.3,1.3-2Z"/>
    </g>
  </g>
  <g id="S">
    <g>
      <path class="st0" d="M882.9,40.2c40.7,40.1.6,87.4-15.2,34.6-15.6-43.2-55.1-15.3-52.4,20.3,2.2,64.9,173.5,102,27,183.6-113.9,30-95.1-153.2-53.8-76.9,0,36.2,29.8,63.1,53.8,26.2,19.4-50.9-42.5-75.8-60.3-115.6-22.8-59.8,53.6-122.5,100.9-72.2ZM862.9,42.1c3.7-3.5-7.1-12.3-10.3-9,5.8,1.5,7.6,4.2,10.3,9Z"/>
      <path class="st0" d="M862.7,36.4c2.5,12.4-3.5-3.6-10.2-3.3,5.5-2.9,4.2,2.3,10.2,3.3Z"/>
      <path class="st0" d="M806.4,33.5c0,0,.1,0,.1,0,0,0,0,0-.1,0Z"/>
    </g>
  </g>
  <g id="A1" data-name="A">
    <g>
      <path class="st3" d="M740.9,201.9c-.2.2-.3.3-.5.5.1-.2.3-.4.5-.5Z"/>
      <path class="st3" d="M740.9,201.9c-2.8,5.2-1.4-6.6-1.5-9,1.7,1.6.8,6.4,1.5,9Z"/>
      <path class="st3" d="M740,243.6c1.1,1.2,0,6.3-.5,3.2.2-.7-.6-3.4.5-3.2Z"/>
      <path class="st3" d="M740.3,247.8c.2.8-.5,1.9-1.1.8-.3-.9.4-1,1.1-.8Z"/>
      <path class="st3" d="M740,192.9c-.8.4-.7-1.4-.9-1.8,1.4-.3.8.9.9,1.8Z"/>
      <path class="st3" d="M739.1,211.7c1.1-.6,1.2,2.5,0,2,0-.7-.1-1.4,0-2Z"/>
      <path class="st3" d="M740,243.6c-1,.2-1.6-.5-.9-1.3.7,0,.6.9.9,1.3Z"/>
      <path class="st3" d="M739.5,187.5c.8,1.1.3,2.4.4,3.7-1.7.4-1.3-2.9-.4-3.7Z"/>
      <path class="st3" d="M711.4,217.1c-.7-16.9,6.6-33.3-15.1-30.5-9.1-1.8-37.2-9.1-35.4,8-4.3-1.8-8.7,20.1-7.5,22.1-6.5,4.2.5,16.1-4.7,19.6-1.4,4.3.9,6.2.4,10.9-1,4.2,1.3,4.8-4.1,6.5,1.3,7.2-10.1,18.3-14.3,8.5-7.9-40.3,4.4-89,8.1-131.4,10.2-23.4,8.3-67.7,25.1-92.8,5.3-2.9-.3,8.1,9.3-7.2,22.6-20.2,65.2,24,50.1,43.9,2.8,4.2,2.7,8.2,3.3,14.8-3.6,1,3.4,2.8.4,6,2.4,0,1.4,2.1,2.1,3,2.2-.6,4.5,3.3,1.1,1-7,7.1,3.5,1.3,3.1,7.4,3.4,1.2,0,3.1,0,5.7,6,1.6.5,3.3-.9,4.2,11.9,38.7,3.8,88.8,7.2,131.1-.3,19.1-10.6,19.3-27.5,16.2-7.6-14.2.4-31.6-.5-46.9ZM711.7,144.6c11.1-22.1-4.5-47.9-4.1-72,4.8-11.6-11.3-18.7-17.5-19.4-10.6-5.1-12.6,23.3-14.4,30.6-6.9,36.8-19.2,82.3,36,60.7ZM739,208c0-.3-.5-.3-.4,0,0,.3.5.3.4,0ZM723.1,255.9c8.6-2.4-.3-3.4,0-11.6-.4,1.2-3.4,11,0,11.6ZM658.4,193.8c.3,0,.4-.6,0-.9-.8-1.2-1.1,1.4,0,.9ZM639.3,257.2c4.6-.6,1.3-10.9,2.1-13.9-6.6-3.8-2.9,10.3-2.1,13.9Z"/>
      <path class="st3" d="M739.9,251.7c0,.5.1,2-.8,1.5,0-.4-.2-1.9.8-1.5Z"/>
      <path class="st3" d="M739.6,175c-.3,2.7,2.4,12.2,0,11.8.5-2.5-2.8-12,0-11.8Z"/>
      <path class="st3" d="M739.5,231.1c.3,2.3,0,3.7-1.3,5.4-.4-1.1-.9-6.4,1.3-5.4Z"/>
      <path class="st3" d="M739.5,173.2c.3,2.9-2.9-.5-.5-1,.1.3,0,1,.5,1Z"/>
      <path class="st3" d="M739.5,235.1c0,1.3.5,2.7-1.3,2.2,0-.7.4-2.4,1.3-2.2Z"/>
      <path class="st3" d="M739.4,172.1v.5c.3,1.6-1-.8,0-.5Z"/>
      <path class="st3" d="M739,225.7c.3,1.3,1.3,3.6-.5,4,0-1.2-.9-5.3.5-4Z"/>
      <path class="st3" d="M739,168.2c1.7-.4,0,2.2.4,3.2-.8-.8-.3-2.1-.4-3.2Z"/>
      <path class="st3" d="M739.5,229.3c-.2.9.5,2.4-.9,1.5-.2-.8,0-1.3.9-1.5Z"/>
      <path class="st3" d="M739.5,206.9c-.3.2-.4-.4-.4-.5.3-.2.4.3.4.5Z"/>
      <path class="st3" d="M738.2,237.3h1.3c0,1.5-1.6,1.5-1.3,0Z"/>
      <path class="st3" d="M739.5,245.9v.9c-.3-.2-.4-.6,0-.9Z"/>
      <path class="st3" d="M737.9,153.5c-.4,2.6,4.2,10.4,1.2,13.9-.5-6.9-2.7-19.2-1.5-21.5-2.8-7.2,0-27.3-5.3-29.2,7.2-1.9-1.2-3.8,2.7-8.9-4.3-1.4,1.2-3.4-2.1-4.2.7-4.6-.4-4.4,0-8.5-7-.1,3.5-2.1.7-8.4,6.7,20.6,3.8,44.2,4.3,66.9Z"/>
      <path class="st3" d="M739.3,240.1c0,.8-.3.2-.7,0-.1-.7.2-.4.7,0Z"/>
      <path class="st3" d="M739.1,218.1v.5c-.6,0-.6-.6,0-.5Z"/>
      <path class="st3" d="M739.1,220.3v.5c-.6.1-.6-.6,0-.5Z"/>
      <path class="st3" d="M739,224.3c0,.4,0,1.1,0,1.4-1.1,0-1.2-1.8,0-1.4Z"/>
      <path class="st3" d="M738.8,207.7c.3,0,.3.5,0,.4-.3,0-.3-.5,0-.4Z"/>
      <path class="st3" d="M738.6,239.6v.4c-.6,1.5-.6-2,0-.4Z"/>
      <path class="st3" d="M736.9,258.3c.1-.3.5-.6.8-.4.2.8-1.3,1.6-.8.4Z"/>
      <path class="st3" d="M733,99.9c-.7,3.3.6,3.4,1.2,5-5.1-1.5-8.5-1.5-4-5.5,3.4,2.3,1.2-1.7-1.1-1,0-2.7-3-3.1-1.1-6.3-1.4-.2-4.5-2.6-1.4-2.8-.7-5.3-.1-10.8-2.7-13.4-2.9-2.6,5.1-1.8,1.6-4.6,4.8-1.8-.1-9.4-.7-13.3.5-12.8,13.6,30.7,8.2,34.8-6.8.1,3.3,5.5,0,7ZM732,80.1c.8-2.1.2-4.1-2.3-3.8,0,1.3.2,5.9,2.3,3.8ZM731.4,82.2c.2-1.8-2.8.2-.7.2.2,0,.5.1.7-.2ZM729.6,74c0,.7,1.5.5,1.7.2-.3-.8-1.7-1.1-1.7-.2ZM730.4,72.7c.3-1.6-1.4-2.7-2.3-1.4.7.5,1.5,1,2.3,1.4Z"/>
      <path class="st3" d="M731.9,76.8c.5.2.4,2.7,0,3.3-2.4,2.4-3.7-6.2,0-3.3Z"/>
      <path class="st3" d="M731.2,81.6c.6.2.1,1.1-.4.9-1.3.1-.6-1.3.4-.9Z"/>
      <path class="st3" d="M731.4,74.2c-.2.3-1.8.5-1.7-.2,0-.9,1.4-.6,1.7.2Z"/>
      <path class="st3" d="M729.8,70.8c.4.3.8,1,.7,1.8-1.5-.5-3.4-2.3-.7-1.8Z"/>
      <path class="st3" d="M724.4,251.5c6.4,1-.6,6.5-2.9,3.1-.3-1.7.9-9.6,1.5-10.2.3.9,1.7,7.4,1.4,7.2Z"/>
      <path class="st3" d="M724.2,53.3c-1.1.4-1-1.3-1-1.9.6.4.9,1.1,1,1.9Z"/>
      <path class="st3" d="M722.3,49.4c1.3,6.7-11.3-15.5-3.7-5.3,0,0,3.7,5.3,3.7,5.3Z"/>
      <path class="st3" d="M716.2,126.3c3.2,15.3-17.3,31.5-3.3,8.7,2.5-5.5-3.2-33.9-.2-28.9,4,6-1.6,14.9,3.5,20.2ZM708.5,145.5c0-.3-.5-.3-.4,0,0,.3.5.3.4,0Z"/>
      <path class="st3" d="M713.4,192.4c1,4.9-9.8-6.6-13-4.5,3.3-4.3,9.9,1.9,13,4.5Z"/>
      <path class="st3" d="M712.5,100.2c.2,0,.6.3.3.6-.8,1.1-1.8-1.6-.3-.6Z"/>
      <path class="st3" d="M712.9,196.1c0,.2,0,.6-.4.5,0-.2.2-.3.4-.5Z"/>
      <path class="st3" d="M712.1,201.7c0,.4-.3,1-.9.8-.4-1.3.9-2.9.9-.8Z"/>
      <path class="st3" d="M711.7,36.7c1,.2,1.8,1,1.8,2-.8-.5-1.6-1.1-1.8-2Z"/>
      <path class="st3" d="M707.1,64c1.5,2.5,2,6.2.5,8.6.4-3.6-1.8-8.7-.5-8.6Z"/>
      <path class="st3" d="M701.3,57.8c-.4,0-1.1.2-1-.5.4-.2.7.4,1,.5Z"/>
      <path class="st3" d="M699.8,147.1c1.8.3.2,1-.7.9.2-.3.5-.8.7-.9Z"/>
      <path class="st3" d="M698.7,56.5c.2,1-.3,0-.6,0,0,0,.6,0,.6,0Z"/>
      <path class="st3" d="M696.4,186.6c4.6-1.1,2.4,2.3,0,0h0Z"/>
      <path class="st3" d="M697.4,55.6c1.3.7-.3,1-1,.8-.4-.9.2-1.1,1-.8Z"/>
      <path class="st3" d="M696.4,186.6v.4c-.6,0-.5-.5,0-.4Z"/>
      <path class="st3" d="M693.2,185.5c.5-.6,3,.7,2.3,1.2-.6-.4-3.1-.2-2.3-1.2Z"/>
      <path class="st3" d="M692.1,52.8c1.9.4-.4,1.6-1.1.5,0-.6.7-.4,1.1-.5Z"/>
      <path class="st3" d="M692.3,185.7c-1.8-.2-3.8.5-5.4-.4,1.8-.5,4.1-1.1,5.4.4Z"/>
      <path class="st3" d="M684.1,53.3c11.9-3.4-4,4.7-4.4,12.6-.7-2.6,3.1-10.3,4.4-12.6Z"/>
      <path class="st3" d="M686.5,185.3c-.8,0-1.8.4-2.2-.4.8-.2,2-.8,2.2.4Z"/>
      <path class="st3" d="M684,183.9c.7.6,0,1.2-.7.8-.3-.4.3-1,.7-.8Z"/>
      <path class="st3" d="M683.8,25.4c-.3.1-.6.5-1,.5,0-.5.7-.4,1-.5Z"/>
      <path class="st3" d="M681.8,183.5c.7.9.3,1.5-.7,1.3,0-.4,0-1.6.7-1.3Z"/>
      <path class="st3" d="M682,25.4c-7.3,4.3-10.9,7.4-15.3,14.8-3.7-5.1,5-12.1,15.3-14.8Z"/>
      <path class="st3" d="M681.1,183.9c.6,1.4-2,1-1.5.1,0,0,1.5-.1,1.5-.1Z"/>
      <path class="st3" d="M680.7,69.6c-1.2,1.6-1.2,4.5-3.1,5.2.8-2,1.4-11,3.1-5.2Z"/>
      <path class="st3" d="M679,184.2c.8.8-3.8,2.5-4.1,1.6-.1-1.1,2.9-1.4,4.1-1.6Z"/>
      <path class="st3" d="M677.5,184.2c-8.3,3.8-10.3-2.9-16.5,9.3-.6-9.2,5.5-9.7,16.5-9.3Z"/>
      <path class="st3" d="M677.1,75.7c.5.1.2,6.6-1.3,5.8,0-2,.4-4,1.3-5.8Z"/>
      <path class="st3" d="M675.8,82.8c.3,0,1.3-.2,1.3.5-.4,1-1.8.5-1.3-.5Z"/>
      <path class="st3" d="M675.8,90.7c-.4,3-1.8-.5-.5-1.6.5.3.4,1.1.5,1.6Z"/>
      <path class="st3" d="M673.9,185.8c-2.7.3-5.8,1.5-8.5,2.3-.4-2.8,6.5-3.6,8.5-2.3Z"/>
      <path class="st3" d="M661,193.4c1.8,0,.6-5.6,4.3-5.1-.6,1.9-4.4,10-4.3,5.1Z"/>
      <path class="st3" d="M664,38.3c.2.8-.3,1.1-.9,1.5-.1-.5,0-1.8.9-1.5Z"/>
      <path class="st3" d="M661.8,195.5c-6.2,12.4-8.4,25.6-11.1,39.1-1.3-5.9,4.5-44.8,11.1-39.1Z"/>
      <path class="st3" d="M661.4,196.5c.2.9,0,1.7-.5,2.3-.7-.4-.7-2.6.5-2.3Z"/>
      <path class="st3" d="M660.5,200.9c-1.3,6.6-3.4,14.4-3.8,17.8,4.7,18.8-12,28.4-3.5,6.4.2-2.9-2.8-6.6,2.2-6.6-.3-6.3.5-12.8,5.1-17.5ZM654.4,221.9c1.9,1.1,1.6-3,0-2.1-.9.3-1,1.8,0,2.1Z"/>
      <path class="st3" d="M659.4,47.8c.4,3.8-2.7,7.3-4.4,10.4.3-5.6,2.2-7.8,4.4-10.4Z"/>
      <path class="st3" d="M658.5,193c.3.3.2.8,0,.9-1.1.5-.7-2,0-.9Z"/>
      <path class="st3" d="M650.7,264.5c.9,3.5,3.1-2.9,6-.9-2.7,2.2-2.9,4.5-5.7,5.7-3.5-1.5-6,4.1-8.7-.8-.4,1.5-1.8,4.2-3.5,2.1,1.2-4.2,8.5-13.3,10.5-7.7,2-6.9,5.3-2.2,1.5,1.6Z"/>
      <path class="st3" d="M655.8,221c0,1.7-2,1-2.1,0,.1-1.4,2-1.8,2.1,0Z"/>
      <path class="st3" d="M654.7,241.4c.6.5.3,1.4-.5,1,0-.4,0-1,.5-1Z"/>
      <path class="st3" d="M655,59.4c.2.8-.5,1.2-1.2,1.4,0-.7.4-1.5,1.2-1.4Z"/>
      <path class="st3" d="M655.3,238.2c-.7,2.2-.9,6.7-2.6,2.3-4.3,1.8-5.2-.5-3.9-4.3,4.5-3.5-.8,4.9,3.3,3,0-2.7,1.7-2.7,3.3-1.1ZM653.7,239c0-.3-.5-.3-.4,0,0,.3.5.3.4,0Z"/>
      <path class="st3" d="M654.3,249c.8,5.3-3.4,0-1.3-2.7-2.9,3-2-1.6-3.9-4,4-5.7,5.9,3.1,5.2,6.7Z"/>
      <path class="st3" d="M653.5,238.7c.3,0,.3.5,0,.5-.3,0-.3-.5,0-.5Z"/>
      <path class="st3" d="M651.5,255.6c.2.9-.7.7-1.3.7,0-.8.6-1.5,1.3-.7Z"/>
      <path class="st3" d="M650.5,249.1c1.2,0,1.3,5.8.2,5.4.3-2.1-3.3-4.2-.2-5.4Z"/>
      <path class="st3" d="M649.1,242.3c4.1,3.1-1.3,11.2,0,4.8,1.2-2.1-1.9-4.4,0-4.8Z"/>
      <path class="st3" d="M650,260c1,1,.7,1.9-.7,2.8-1.3-.5-1.1-4.3-3.2-1.3-2.1-.2-1.7,1-.4,1.9-12.8,10.4-23.9,8.5-18.9-13,.3,14.4,16.3,22.9,18.4,3.2,6.3-5.5,8.6,6.8,1.4,1.1-1.9,5.7,6.1,1.6,3.5,5.3Z"/>
      <path class="st3" d="M650.2,257.2c.2,3.5-7.1-1.2-2.6-2.6,1.5.6.6,2.7,2.6,2.6Z"/>
      <path class="st3" d="M645.8,96.6c3.1,1.8-.3,1-.7,4.3-1.6,3.6,2,13.6-2.2,13.9-.5-4.3,4.2-30.1,2.9-18.2Z"/>
      <path class="st3" d="M645.5,89.6c.8-.3.8,1.6,0,1.4-.5-.4-.5-1,0-1.4Z"/>
      <path class="st3" d="M641.7,252.8c-.7,12.3-7.9-9.2-2-10.4,3.3-1.3,1.4,9.4,2,10.4Z"/>
      <path class="st3" d="M635.3,268.8c.7-.3,1.3-1,2.3-.5-.2,1.6-2.7,2.2-2.3.5Z"/>
      <path class="st3" d="M634,269.3c.2.7-.5.4-.9.5.2-.3.8-.3.9-.5Z"/>
      <path class="st3" d="M628,235.9c-.3,1.1.4,7.8-1.2,8.1,0-.3-1.1-8.1,1.2-8.1Z"/>
      <path class="st3" d="M626.8,245c.3.1.5.6,0,.5,0-.2,0-.4,0-.5Z"/>
    </g>
  </g>
  <g id="M">
    <g>
      <path class="st2" d="M594,85.6c-.3,17.8.6,41.1-3.4,43.5-.9-1-5.4-7.2-1.2-7-.8-2.9-6.9-7.3-3.2-10.1-5.6-8.3,3.8-42.6.6-21.1,8.6,18.1,2.7-35.5,1.3-40.9,7.1,7.8,3.7,24.5,5.8,35.6ZM592.6,117.2c.3-1.8-2.8.2-.7.2.2,0,.5.1.7-.2ZM592.1,120.9c.9-.3.7-2.5,0-2.5-1.1.1-1.4,2.9,0,2.5Z"/>
      <path class="st2" d="M593.4,134.2c-3.7,25.8,3.9,177-14.8,94.6-1.5-16-6.7-45.7,3.2-52.4,2.2.3-2,7.1,2.9,5.6.6,3.9-2.8,0-2,2.9,9.9.8-4.2-48.8,10.6-50.7ZM587.7,238.9c.5-5.7-6.6-13.5-2-19.7-.8,0-.4,2.1-1.6.9-1.6-4.8-.6,18-.2,19.8,1.4,1.4,1.4-8.7,3.8-.9ZM585.2,189.2c.5-.3,1.1-1.2.7-2.4-2-2.2-4.6,4.5-.7,2.4ZM584.3,196.9c1.5,1.3,2-7.3-.8-4.4,2,1.4-.3,3.5.8,4.4ZM585.5,243.5c0-.3-.5-.3-.4,0,0,.3.5.3.4,0Z"/>
      <path class="st2" d="M571.5,220.6c-20.2-28.8,3.8-79.7,2.3-121.4-1.2-9.1-.3-21.6-1.3-30.4.6-7.2-3.8-17.4,4.4-8.2.5-4.5-4.4-9.9,1.8-10.2-9.6-11.8,5.7-5.4,6.2,3.2-4.3,3.2,5.1,7.8,2.5,2.7-3.3-.6.4-2.2-.9-4.6,2.6-14.8,9.6,59.4.5,39,3.4-.9,1.1-5.8.2-7.7-3.6,7-1.9,16-2.7,23.4,6.1,2.4-3,8.3,2.7,10.1-1.3,2.5,2.5,4,2.4,5.5-4.2-.7.4,6.8,1.3,6.8.7-16,6.1,5.7-2,8.9-5.3,10.4-.7,34.1-3.2,47.1-2.4,2.1-4.3-2.9-1.3-.6,1.2-1.6.7-3.4-1.4-1.9-1.5-12.4-.4,1.1-4.7-5.2-7.2,30,4.5,58.8,8.1,85.4-3.7.8,0-18.2-5.1-6.9-2.2-1.9.8-10.6-2.8-9.8-2.1,5.6,9.4,18.8-.6,15.1-.4-3.3.1-8.1-3.8-8.2,4.1-2.6,2.8-11.1-1.8-5.6,5.5,2.2.5,2.5,0,6.5-1.5.5-4.8-.8-1.9,1.7,9.2-.9-1.9,13.3-4.2,2.1,5.1-5.3-.4-16.1,6.8-17.9,0-3.6-.4-5.4.7-9-7.6-7.6,1,1.5-1.5-8.7-9.5,1.3-8-5.5-.4-1.3ZM584.1,58.9c0-.3-.5-.3-.4,0,0,.3.5.3.4,0ZM582.1,173.7c-1.6-4.9-3.6.2-4.1,2.5,2.4-2.1,3.3.5,4.1-2.5ZM581.1,70.7c.9-2.3-1.9-3-2.6-1.2-.1,1,2.2,1.9,2.6,1.2ZM571.6,213.9c.3-.3-.2-1-.4-1.3-2-1.6-2.1,3.2.4,1.3ZM571.9,250.9c0-.5-.8-.5-.8,0,0,.5.8.5.8,0ZM569,213.6c-1.4-2-2.7-1.2-2.7.7.9-.4,1.9.3,2.7-.7Z"/>
      <path class="st2" d="M593.2,136.8c0,1-.6,1.1-1.3,1.8-.9-1.8-.5-3,1.3-1.8Z"/>
      <path class="st2" d="M592.4,116.6c.6.2.1,1.1-.4.9-1.3.1-.6-1.3.4-.9Z"/>
      <path class="st2" d="M592.2,118.4c.6,0,.9,2.2,0,2.5-1.3.4-1-2.4,0-2.5Z"/>
      <path class="st2" d="M589.4,50c-1.9.7-1.9-2.1-4-.9,3.4,2.5-1.5,6.7,2,7.4,1.5,4.2-4.9,2.5-2.9-4.6-4-2.1-1.9-5-4.4-8.2-5.6,1-3.5-3.4-8.6-3.6-16.4-25.2-26.3,20.3-41,25-2.2.9-1.9,7.4-5.9,2.5-4.9,4.9,2.6,11.5.1,15.4-9-1.9-6-17.2-18.1-19.3,29.9-10.4,55.5-67.6,82.8-13.8ZM584.9,45.5c0-1,.4-1.8-.3-2.9-1,.9-.5,2,.3,2.9ZM584.3,48.3c.4,0,.3-1.4,0-1.3-.9.3-1,1.5,0,1.3ZM537.8,47.9c-2-4.4-27.5,20.7-19.9,23.6.9-6.5,7.2-3.6,10.7-7.5,3.3-3.6,1.6-9.5-.5-2.2-4.5-2,2.2-6.8,3.5-8.7,4,1-4.7,2.7,3.4,3.8-1.3-4.1-1.2-6.9,2.8-8.9Z"/>
      <path class="st2" d="M586.1,233.9c3.5,1.4,1.9,8.1.6,2.1-2.7.1-1.4,5.2-2.8,3.9.3-2.5-3-23.5,1.4-19.8-.7-1-1.5,10.8.9,13.8Z"/>
      <path class="st2" d="M585.9,186.7c.7,2-1.1,3.3-2.6,2.5-1-1.1,1.7-4.2,2.6-2.5Z"/>
      <path class="st2" d="M585.5,263c-.9,5.4-.9,0-5.1,0-3,6.3-16.4.3-15.6-5.4,3.2,5.7,12.2,3.5,17.7,3.6-1-.7-7.5-19.1-2.7-14.4.5,18.3,3.3-4.7,5.6,16.2ZM585,263.7c0-.3-.5-.3-.5,0,0,.3.5.3.5,0Z"/>
      <path class="st2" d="M585.3,192.3c.2.8.4,5.8-1,4.6,0-.7-1.2-6.4,1-4.6Z"/>
      <path class="st2" d="M585.2,243.2c.3,0,.3.5,0,.4-.3,0-.3-.5,0-.4Z"/>
      <path class="st2" d="M584.6,42.7c.7,1,.3,1.9.3,2.9-.8-.9-1.3-2-.3-2.9Z"/>
      <path class="st2" d="M584.8,263.4c.3,0,.3.5,0,.5-.3,0-.3-.5,0-.5Z"/>
      <path class="st2" d="M584.4,47.1c.3-.1.3,1.2,0,1.3-1,.2-.8-1,0-1.3Z"/>
      <path class="st2" d="M583.9,58.6c.3,0,.3.5,0,.4-.3,0-.3-.5,0-.4Z"/>
      <path class="st2" d="M581.3,171.9c2.6,3.1-.9,2.8-3.3,4.2,1.7-1.8-.4-5.2,3.3-4.2Z"/>
      <path class="st2" d="M580.3,68.4c.5.1,1.4,1.1.8,2.2-1.8,1.3-4-2.3-.8-2.2Z"/>
      <path class="st2" d="M574.4,45.4c7.7,8-1.4,1.2,2.4,15.5-6-6.5-12.1-12.2-21.1-4.7,1.8-3.5,7.5-5.4,11.4-5.6-6.5-17.2,3.1-3.4,5.9.7.6-3.3-5.5-11.6,1.3-5.9ZM576.5,49.9c0-.3-.5-.3-.5,0,0,.3.5.3.5,0Z"/>
      <path class="st2" d="M577,258.4c3.7,2.1-3.7,4.8-3.6,1-2.3-.9,3.9-4.2-3.4-4.1-2.8-2.6.9-.8,2.2-1.7.4-1.8.8-3.5,2.8-4.5-7.4-4.2,3.7-5.7,1.6,1.3-5.9,1.6,1.4,4,.4,8Z"/>
      <path class="st2" d="M576.8,254.1c.4.9,0,1.8,0,2.6-1.1,0-1.4-3.4,0-2.6Z"/>
      <path class="st2" d="M576.8,43.4c-2.7,3.6-2.9,0-6.1-.2,3.4,9.7,3.6,8.8-3,1.1-3.4-5.5-3.7-1.4-.4,6.3-8.1-.7-19.9,12.8-19.4,16.4-7.2.7-3.9,16.8-14.2,22.5,3.4-3.6,1.2,5.1-.5,4.6-5-8.3.4,3.6-3.4,4.4-2.2,4.3-11.2,1.2-9.8,4.3-9.9,8.1-19.3-19.8-22.3-23.8-2.9-4.2-22.7-25.3-21.1-14.8,1.3,5.4,2.1,8.3.2,12.3,5-4,1.4,28.8-.4,32.3,0,.5-1,.9-1.2,1.4,6.5,5.1-2.5,2.3-1.2,6.8,2.1,1.8,14.4-1.1,9.4,2.4-8-2.2-18,2.4-7.6,2-.8,4.1-6.1.3-6,3.8,2.1.2,7.7,1.2,3.1,1.8,1.6,3.9-1.5.4-2.2,3.7,3.2,3.5,8.3,14.6,7.4,3.9,1.6-2,.4,2.5,2.5,2.6,5.8-2.4,4.2,2.8-.8,1.1,0,4.9,2.4,17-4.6,9.8.5,2.9-.2,7,3.7,4.1,0,.6-.8.5-.9.9,7.1,4.8-12.3.7-3.3,4.1,8,17.6,9.7,46.4,4.9,68-1.7,3.5,5,17.7,0,10.7-5.4,4.7,5.6,4.1,1.6,9.2-3.4.9-.6-.9-1.3-2.4-2.6-2.6-2.6,5.9,1.4,4.4-5.8,1.3-10.5,18.2-2.9,8.5,4.8.3-7.6,19.6-6.7,9.3-14.1,2-17.7-.1-16.5-15.6,2.1-2.9,4.7.4,2,2.2,11,7.3-.6-18,6.6-19.5.5-1.6-.9-2.9-2.8-3.2,4.8-13.7-5.7,1.5-3.9-14.3-.7-6.1.3-5.8,2-12.5,6.6,1.7.6-20.3,3.2-24.6,1.8-5.1,8.6-4,8.3-10.1-5.4.2,2.8-3.3.2-6.6-4.9,6.1-8-2.4-5.5,8.1-15.8-18.9-1.9-77.6-8.1-107.1-10.4-63.3,32.1-2.7,56.6,4.8,3.2,4.9,4.4,15.2,10.9,16.3,2.5-3.5-7.3-17.7,3.5-13.9,18-13.5,25.8-54.4,48.5-25.8ZM522,88.8c2.2-11-11.8,4-3.6,5.2,3.2-.8.2-6.8,3.6-5.2ZM476.8,78.5c.6,0,.6-1,0-1-.6,0-.6,1,0,1ZM475.7,251.6c-1.9-5.6,3-5.7-4.3-5.5,0,4.9-.9,11,4.3,5.5ZM465.2,259.3c-.6-2.1,2.4-5.4-1.5-4.2-1,.2-1.2,6.2,1.5,4.2Z"/>
      <path class="st2" d="M576.2,49.7c.3,0,.3.5,0,.4-.3,0-.3-.5,0-.4Z"/>
      <path class="st2" d="M573.4,95.8c1.1-.8,1.1,2.8.4,3.3-1.1-.2-.5-2.4-.4-3.3Z"/>
      <path class="st2" d="M573.8,100.1c.2,12.5-1.2,25.3-5,38.9,1-14.4-2.7-32.4,5-38.9ZM570.6,122.7c.7-.4.3-1-.3-.6-.4.5.1,1,.3.6Z"/>
      <path class="st2" d="M573.2,91.8c.4.4.7,1,0,1.5,0-.5-.6-1.2,0-1.5Z"/>
      <path class="st2" d="M573.4,230.8c0,6.9-3.1,8.5-4.9,14,2.3,1.1-1.5,13.1-3.7,12.8,2.2-8.6-2.4-51,7.3-30.8-4.2,1.2-1.3,0,1.3,4ZM568.4,247.5c0-.3-.5-.3-.4,0,0,.3.5.3.4,0Z"/>
      <path class="st2" d="M573.3,94.1c.4,0,.2.4,0,.5v-.5Z"/>
      <path class="st2" d="M572.5,88.2c1.3-.3.8,1.4.7,2-1,0-.8-1.3-.7-2Z"/>
      <path class="st2" d="M573.3,86.7c.2.6-.4.7-.8.7-.1-.8.1-1.4.8-.7Z"/>
      <path class="st2" d="M573.3,85c.2.5-.4.7-.8.7-.1-.8,0-1.5.8-.7Z"/>
      <path class="st2" d="M572.3,61.2c2,.3.5,1.4-.7,1.1-.7-2.2-.3-4.9.7-1.1Z"/>
      <path class="st2" d="M572.5,68.9c1.8-2,0,10.6,0,11.3-2.5-6.3,0-4.6,0-11.3Z"/>
      <path class="st2" d="M571.6,63.5c.8-1,1.9,4.2.9,4.6-.8-1.4-.9-3.1-.9-4.6Z"/>
      <path class="st2" d="M571.2,212.6c.9,1.2.1,1.7-1,1.7-1.2,0-.2-3.3,1-1.7Z"/>
      <path class="st2" d="M571.5,250.5c.5,0,.5.8,0,.8-.5,0-.5-.8,0-.8Z"/>
      <path class="st2" d="M571.6,218.4c2.3,5.7-6.6-2.5-6.7,2-1.3-1.6-.2-6.6-.6-8.6,3.3,5.2-2.4,5.2,7.3,6.6Z"/>
      <path class="st2" d="M571.1,122.2c0,.1-.4.4-.5.5-1,.6-.2-1.5.5-.5Z"/>
      <path class="st2" d="M568.7,143.9c.2.4,0,1.5-.7,1.1,0-.4,0-1.4.7-1.1Z"/>
      <path class="st2" d="M567.8,146.6c1.3.5,0,2.7-.3,1,0-.3-.3-1.2.3-1Z"/>
      <path class="st2" d="M568.2,247.3c.3,0,.3.5,0,.5-.3,0-.3-.5,0-.5Z"/>
      <path class="st2" d="M566.8,212.3c.7.4,1.6,0,2.2,1.2-1.6,1.2-3.4.8-2.2-1.2Z"/>
      <path class="st2" d="M567.5,149.7c1,.8,0,1.7,0,2.4-.7-.5-.7-1.9,0-2.4Z"/>
      <path class="st2" d="M565.8,165.4c2.5.6-.8,4.4,0,0h0Z"/>
      <path class="st2" d="M565.7,170.4c.7.4.3,1.4-.4,1.1,0-.4,0-1,.4-1.1Z"/>
      <path class="st2" d="M565.3,172.6c.6.5.6,1.5-.1,1.9-.7-.1-.5-1.9.1-1.9Z"/>
      <path class="st2" d="M565.5,180.3c.2.1.3.3.2.6-.9,1.2-1.2-1.4-.2-.6Z"/>
      <path class="st2" d="M565.1,182.1c.5-1.4.9,4.7,0,4.1-.7-1.1-.5-2.8,0-4.1Z"/>
      <path class="st2" d="M564.8,190.1c.4.3.4.8,0,1.1-.6.2-.5-1.3,0-1.1Z"/>
      <path class="st2" d="M564.7,195.6c1.1.3.6,2.7-.3,2.7-.2-.9,0-1.9.3-2.7Z"/>
      <path class="st2" d="M538,86.4c5.6-13.9,7.3-21.5,17.8-30.1-13.7,13.8-16,56.1-39.3,49.2,3.6-5.8,17.1-2.3,14.4-13.9,3.7,4.2,3.4,2.5,4.6-3.1-4.5,2.2,0-2.2,2.5-2.1Z"/>
      <path class="st2" d="M536.2,46.1c3.6,2.4-5.1,5.4-1.2,10.7-3.1-1.3-5-.2-2.1-3.2-1.3-2.1-6.6,5-6.2,6.5,1.5,4,1.9-1.3,3.3-2.3,2.6,4.1-4.7,9.8-8.8,9.2-15.7,9.1,10.3-17,15-21Z"/>
      <path class="st2" d="M520.5,83.5c1.1,1.9,4,6.1-.4,5,.4,1.4.3,5.2-1.6,5.6-7.4-3.3,1.5-6.4,2-10.5Z"/>
      <path class="st2" d="M516.1,105.5c-12.7,4.4-23.8-27.3-32.4-35.5-3.4-2.1.8,5.7-4.6,3.6-10.5-38.3,29,26.1,37,31.9Z"/>
      <path class="st2" d="M507.8,62.3c-11.6,1.7-19.8-15.1-28.3-22.1-39.4-22.6-17.2,23.2-22.4,47.9,2.4,50.7-4.4-38-6.4-58.2,17.9-21.7,45.9,22.6,57.1,32.4Z"/>
      <path class="st2" d="M486.1,118.4c-1.5,9.7,1.8,25.8-8,16.3.9,10.7-4.2-.4-7.4-3.9,9-8.9-7.2-2,5-9.3-12.3-1.5,5.5-2.5,10.4-3.2ZM480.1,124.5c2.5-2.1-1.6-4-2-1.4.2,1.2,2.5,1.6,2,1.4Z"/>
      <path class="st2" d="M486.1,118c-2.8,0-20.3,1.2-8.2-5.1-7-3.3,2.6-5.7-.2-11.6,3-6.7-.9-18.9,1.6-25.1-1.1-1.3-4.3,1.9-2.4-1.8,12.8-3.4,5.8,35,9.1,43.6Z"/>
      <path class="st2" d="M481.3,241c-3.1-.3-4.2-2.7-1.6-4.9,1.8,4.7,3.4,1.2,1-1.6-4.4-8.9,3.6-14.5,1.1-18.6.7-5-2.4-43,2.2-31.1.4,26.1,5.9,58.1-7.6,81-3.9,6.2,2.3-6.6,3.7-8.2-2.9-6.6-4,9.6-6.4-2.5,4.2-1.6,3.7-6.1,7.8-7.6-3.5.3-3.3-2.2-3-4.8.9-1.6,3.1,2.1.7,2.2,2.8,3.3,3.5-3.1,2.2-3.8ZM480.7,255c3.5-1.9.6-5.8-2.4-3.7,1.1,1.2,1.8,2.1,2.4,3.7Z"/>
      <path class="st2" d="M485.2,137.8c-3.1,13.8-2.8,30.9-3.8,43.6-1.5-7.6.9-14.2-6.1-17.6-.5-2.3,1.4-7.3-2.7-6.9-1.5-3.4,6.1.9,6.9-2-2.3-5-3.9,3-4.4-6.7,10.2,8.5-.8-12.3,10.1-10.4ZM479.8,164.9c0-.4-.6-.4-.6,0,0,.4.6.4.6,0Z"/>
      <path class="st2" d="M481.7,251.3c1.1,1.1.5,3-1.1,3.7-1.6-2.6-3.3-5.6,1.1-3.7Z"/>
      <path class="st2" d="M480.7,122.3c1.2,4.1-5.4.8-1.4-.4.7-.2.9,0,1.4.4Z"/>
      <path class="st2" d="M480.1,124.5c.2,0,.3,0,0,.2-.1,0-.1,0,0-.2Z"/>
      <path class="st2" d="M479.5,164.6c.4,0,.4.6,0,.6-.4,0-.4-.6,0-.6Z"/>
      <path class="st2" d="M477.2,269.9c-4.7,3.1-20-6.3-5.4-4.8-.8,4,3.2,3.6,5.4,4.8Z"/>
      <path class="st2" d="M476.8,77.5c.6,0,.6,1,0,1-.6,0-.6-1,0-1Z"/>
      <path class="st2" d="M475,249c2.4,3.1-1.3,5.6-4.2,4,.1-3.4,1.8-2.6.6-6.9,4.1.5,5-1.6,3.6,3Z"/>
      <path class="st2" d="M470.9,161c1.9,3.5-2.3,4.4-2.1,6.5,6.4,2.7-5.5,6.3-6.5,10.2-2.7,4.4,3.5,26.3-3.2,24.6-6.4,50.7-1.7-72.6-1.2-91.8,5.4,12.2-5.9,54,6.5,59.2,2.8-.7-4-9.6,3.9-5.6,1.5-.4.5-4.1,2.5-3.1Z"/>
      <path class="st2" d="M466,255.4c-.6,1.3-1.1,2.3-.8,3.9-3.8,2-2.3-7.2.8-3.9Z"/>
      <path class="st2" d="M461.1,229c5.5,1.1-1.2,7.3.4,11.5-.8,1.2,2.9,14.5-.7,11.5-4.3,7.5-6.7-24.4-4.3-30.2,1.7,4.7,8.9-6.1,4.5,7.2ZM457.2,225.3c.5,1.5,2,.4,3.8.8-.7-1.6-2.8-1.9-3.8-.8ZM459.8,236.8c-3.3-1-3.4,7.1-.5,5.9,1.2-1.1-.6-3.4.5-5.9ZM457.5,230.3c1.2-.4,0-2-.8-1.3-.7,1,.5,1.4.8,1.3Z"/>
      <path class="st2" d="M463.4,266.2c1.8.7-1.7,1.5-1.1,0,.3,0,.8,0,1.1,0Z"/>
      <path class="st2" d="M460.9,226.1c-1.8-.4-3.3.7-3.8-.8.9-1.1,3-.8,3.8.8Z"/>
      <path class="st2" d="M457.6,237.9c2.5-4.1,2.4,4.2,1.7,4.7-2.5,1.1-2-3.3-1.7-4.7Z"/>
      <path class="st2" d="M458,229.5c.2,1.3-2.2,1.1-1.3-.4.3-.5,1.3.1,1.3.4Z"/>
      <path class="st2" d="M456,261.6c.3.4.7.9.6,1.4-.8,0-1.8-1.4-.6-1.4Z"/>
      <path class="st2" d="M455.2,252.6c.7.4.5,1.4-.3,1.1,0-.3-.1-1,.3-1.1Z"/>
    </g>
  </g>
  <g id="O">
    <g>
      <path class="st0" d="M241.5,113.6c-26.5,99.7,65.2,185.9,127.5,74.9,47.7-113.6-75.1-205.1-127.5-74.9ZM408.6,133.1c1.9,51.6-29.1,110.5-78.2,130.8-29,7.5-12.2-3-31.1-8.4-11.8,3.3-33.8-3.4-36.6,6.9-1.4.3-6.9.9-6.3-3-45.2-29-56.3-118.1-34.8-166.4-5,2.5-13,51.3-6,24.6,0-7.1,3.6-18,7.6-24.2-.4-1.9-3-.4-.8-2.6.6,1.5,1.5-1.9,2.9-.4.5-1.4,2.1-5.1-.3-4.2-4.6,9.3.6-3.2,2-7,35.1-96.6,188.8-61.2,181.5,53.8ZM237.8,63.7c.6-2.2-3.1,0-1.4.8.7.1,1.2-.3,1.4-.8ZM234.8,138.1c1-15.4-3.2,2.1-3,8.4,3.2,5.8,3.3-5.8,3-8.4ZM234,126.8c1.7-3.2-2.2-1.7-1.1,2.9,2.4,1.9,1.8-2.2,1.1-2.9ZM229.2,78c1.2-1.2,2.9-3.9,1.4-5.6-.8,1.9-1.1,3.5-1.4,5.6ZM216.2,181.8c0,1.1.6.9.6-.2-.3-.5-.5-.3-.6.2Z"/>
      <path class="st0" d="M237.2,62.8c1.3,0,.4,2.2-.8,1.7-1.1-.4,0-1.4.8-1.7Z"/>
      <path class="st0" d="M235.8,132.9c0,5.5-1.7,10-1.4,15.3-3.6,2.5-2.5-23.1,1.4-15.3Z"/>
      <path class="st0" d="M234.7,125.6c-1.5,1.5.8,2.6-.3,4.3-2.9,1-1.5-7.3.3-4.3Z"/>
      <path class="st0" d="M233.8,66.8c1.9,1.1.4,1.6-1.1,3.5-1-1.7.9-1.8,1.1-3.5Z"/>
      <path class="st0" d="M230.6,72.4c1.4,1.7-.2,4.3-1.4,5.6.3-2.1.7-3.6,1.4-5.6Z"/>
      <path class="st0" d="M226.5,86.9c.4,2.1-2.8,4.9-4,4,1.7-.4,2.2-6.7,4-4Z"/>
      <path class="st5" d="M223.1,39.2c1-1.3,1.1,1.1,0,1.1,0-.3,0-.7,0-1.1Z"/>
      <path class="st0" d="M223.3,93.5c-6.9,10.2-7.7,23.7-9.3,34.5-4.3-7.6,4.4-34.4,9.3-34.5Z"/>
      <path class="st0" d="M216.8,181.6c0,1.1-.5,1.3-.6.2,0-.5.3-.7.6-.2Z"/>
      <path class="st5" d="M214.8,41.5c-.8.8-1.9.8-2.7,0,.9-.7,1.6-.7,2.7,0Z"/>
    </g>
  </g>
  <g id="T">
    <g>
      <path class="st5" d="M228.6,22.1c.6,11-3.7,18-12.7,18.8,2.7,4.4-5.4,2.7-7.6,3.3-9-5.6-31.1-3.2-38.7-9.6-21.9,4.7-57.9.1-40.4,45.2-.3,5.3-2.2,2.3-3.2,6.7,4.2,8.5-7.7,24.2-2,36.4-4,3.4,5.1,1.5-2.5,8.5,3.2,1.2.7,3.9,1.1,5.5,5.2,1.2-.2.9-.2,3.2.8,12.3-4.7,22.8-3.3,35.2,4.1-3.2,6,5.7,3.1,5.2.2-5.8-3.1-3.5-3.8.5.9,1.1,5.5,2.3,1.3,2.7-.4,7.8.5,11.2-.1,19.2,5.5,2.6-4.5,4-6.7,2.8,1.1-5.2,1.1-9.3,3-14.3-7.6-6.5-1.3,19.9-7.2,7.7-.8-.1-2.9.8-2.1-1.5,1.8-.1,2.7-.9.7-2.7,5.6.8-1.4-8.2,3.1-10.6-3.7-4.8,3.1-32.9-4.1-17.1.2,2.4-2,12.2-5.6,8.9-12.9,1.6-3.5-18.1-5.8-24.2-2.4-5.1,9.4-6.7,1-6.8.6-3.2,7.9,0,8-3.6-.2-.3-7.8,0-3.1-1.6-2.1-1.2,1.8-25.2-3.6-18.4-.6-5.1,4.5-4.3,2.6-10,2.9-4.4-4.7-15.2,2.4-14.5,2.1-1.2-4.1-2.4-1.2-3.5,2.2,2.9.6-2.7,4.1-3-7.8-4.8,6.2-3.3-.4-10.3-1.2-.5-1.1,1.1-1.8,1.9C93.7,19.9,60.2,43,15.3,37.1c-2.4,2.5-.8-.2-.6-1.3-3.5,3.5-10,2.2-11.8-4.1C-9.1-22.8,70,23.3,93.2,14c26.6,6.7,106.5-18.1,135.4,8.1ZM212,41.6c.8.8,2,.8,2.7,0-1.1-.7-1.9-.6-2.7,0ZM121,144.8c-2.9-7.4,3.1-18.2-2.6-23.3-3.7,8.3,1.8,18.1-3,25.1,5.4,5.7,4.7,8.7,5.6-1.8ZM120.2,204.4c0-.3-.5-.3-.5,0,0,.3.5.3.5,0ZM111.4,65.3c1.6-6.8,2.4-3-4.4-6.7,1.2-2.8,1.4-14.2-3.4-11.8,2.1,12.4-.1,50.5,7.7,18.5ZM108.1,48.1c0-.3-.5-.3-.5,0,0,.3.5.3.5,0ZM102.3,101.8c0-.6-1-.6-1,0,0,.6,1,.7,1,0ZM101.8,72.3c0-.3-.5-.3-.5,0,0,.3.5.3.5,0ZM100.5,71.2c0-.7-1-.7-1,0,0,.7,1,.7,1,0ZM79.1,38.9c.6,0-.3-1.2-.5-.7-.3.7.3.7.5.7Z"/>
      <path class="st5" d="M222.2,40.4c-16,15-48.2-7.6-70.4-1.1,1.6.3-15.2,3.9-8.2-.7,6.6,4.6,4.9-3.2,12.7-.9.2-7,8.3,4.6,8.3-4,14.3,5.5,32.9,7.7,47.9,10.5,7.2.4,0-7,9.6-3.6ZM171,37.1c0-.4-.6-.4-.6,0,0,.4.6.4.6,0ZM164.2,36.9c0-.3-.5-.3-.4,0,0,.3.5.3.4,0ZM157.9,35.5c0-.3-.5-.3-.4,0,0,.3.5.3.4,0Z"/>
      <path class="st5" d="M174.5,10.5c1-1,2.3.1,3.2,0-.8.8-2.3.3-3.2,0Z"/>
      <path class="st5" d="M173.6,10.5c-.3.4-1.5.9-1.4,0,.4-.4,1-.4,1.4,0Z"/>
      <path class="st5" d="M170.7,36.8c.4,0,.4.6,0,.6-.4,0-.4-.6,0-.6Z"/>
      <path class="st5" d="M160.6,10.6c2-.3,3.9.5,5.9.5,0,0-6.4,1.8-5.9-.5Z"/>
      <path class="st5" d="M164,36.6c.3,0,.3.5,0,.4-.3,0-.3-.5,0-.4Z"/>
      <path class="st5" d="M159.4,10.7c.9,1.3-3.8,1-3.2.5.8-1,2.1-.5,3.2-.5Z"/>
      <path class="st5" d="M157.7,35.3c.3,0,.3.5,0,.4-.3,0-.3-.5,0-.4Z"/>
      <path class="st5" d="M149.9,11c1.3.2-5.6,1.2-5.6,1.3-1.1-.7,5.8-2.2,5.6-1.3Z"/>
      <path class="st5" d="M143.2,12.4c.3.3,0,1.1-.6.8-.8-.5,0-.9.6-.8Z"/>
      <path class="st5" d="M135.2,39.8c4.6,0,7.3.5,1.2,1-3.2,1.5-4,2.9-1.2-1Z"/>
      <path class="st5" d="M140,12.9c.4,1.3-2.3,1.1-2.4.3.7-.5,1.5-.4,2.4-.3Z"/>
      <path class="st5" d="M135.9,13.2c.3,0,.7-.5.9,0,0,.8-1,.8-.9,0Z"/>
      <path class="st5" d="M132.9,42.6c.2.6-.5.8-1,.9-.3-.7.2-1.1,1-.9Z"/>
      <path class="st5" d="M133.2,13.2c0,2.7-1.5.9-2.7.1.8-.8,1.8-.3,2.7-.1Z"/>
      <path class="st5" d="M130.2,124.8c3.3,18.1-7.7,35.7-5.1,53.6-.6,3.8,1.4,6-2.9,3.4-7.7,3.3-.5-11.8-.2-1.4,2.9.4,1-8.2-3.1-5.2,2-7-2-15.4,1.7-21.9,4.9-1.4-1.3-15.6,4.3-14.8-5.3-4.1,1.1-3.5-3.5-7.2,1.1-2.3,6.7-6.3,1.3-5.9-1-13.2,3.4-28.1,4.5-38.3-3.1-3.4,2.7-2.7,2-7.5-2-7.9,1.6-3.5.6,2.2-1.4,16.9-5.8,27.4.5,42.8Z"/>
      <path class="st5" d="M128.7,46.2c.8-.9,1.4-2.5,2.8-2.6-.6,1.1-1.6,2.2-2.8,2.6Z"/>
      <path class="st5" d="M127.4,72.5c.3.6,1.1,1.1.9,1.9-1.1.4-1-1.3-.9-1.9Z"/>
      <path class="st5" d="M122.5,13.3c2.3-.5,4.8-.2,7.1,0-2.1,1.8-5.1,2-7.1,0Z"/>
      <path class="st5" d="M125.2,183.1c-.4,10.4-5.3,33.8-6.3,8.1,3.1-1.2-2-1.8,1.1-4.1-1.7-6,2.5-2.9,5.2-4.1Z"/>
      <path class="st5" d="M123.4,182.3c.4.7.7,1.4-.6,1.7-1.8.1-.5-4,.6-1.7Z"/>
      <path class="st5" d="M122,226.1c3.3,30.3-39.5,56.2-35.5,11.9-3.1,30.2,26.9,27.4,20.6,13.8,4.1,1.3,3.1-4.1.5-5.8.9-1.4,3.1-2,1.6-3.5-4.4.9,4.4-2.4.4-3.5-.8-10.3,4.5-1.1,4.5-7.5,5.4-5.4,8.3.7,6-11.9.3-4.3,3-13.3-2.6-12.8,9.1-7.9,1.2,13.4,4.5,19.3Z"/>
      <path class="st5" d="M120.6,13.3h1c.1,1.4-1.5.9-1,0Z"/>
      <path class="st5" d="M120.3,139.4c.9,9,2.1,17.6-4.9,7.3,4.7-7-.7-16.8,3-25.1,5.8,3.1,0,12.8,2,17.9Z"/>
      <path class="st5" d="M97.5,184.9c-3-2.9-7-8.6,1-4.9-2.3-3.5,6.1-4.4,6.7-.6-4.9,2.5,3.5,15.2.5,15.9-.9,3.1-5.5,9.5-2.8,12.8-2.4,1.9-1.8-4.6-2.8-.9-2.5,6.2,2,.2,4.9,8.5,5.3-2.5-1.8-6.9,7.5-2.5,1.7-13.4,11.6-5.9,7.7,6.3,2.7,16-3.3,4.3-7.3,14.6-5.4-4-.2,6-5.8,4.6,0-5.9-3.7-11-1.8-15.9-.8-3.8-8.9-1.6-4.3,2.2-4.6,1.4.6,2.1,2.1,3.9-6.2-1.2-1.4,6.4-5.1,4.5.6,5.4-6,3-3.1-.3-4.4-.2,3.9-4.8-1.2-5-.2-2.7.7-5.5.1-6-3.2-.9-1.2,5.9-4.4,2.3-.4-.3-1.3,1-1.8.7,5.6-8.1,4.3.2,3.2-14.6,7.3-1.4-2.8-27.2,6.7-25.6ZM97.6,184.8s0,0,0,.1c0,0,0,0,0-.1ZM111.5,214.1c-3.6-.3-3.5,3.4-.5,4.7.5-1.8.3-3.2.5-4.7ZM102,201.9c.5-2.3-.7-2.8-2.5-4.1.4,1.1,0,6.9,2.5,4.1ZM100.2,197.5c-.4.4,2.3-1.7,1.2-3.5-.6,1.2-2.9,2.9-1.2,3.5ZM97.1,191.4c1-.8-1.2-2.6-1.6-1.2-.1.7,1.1,1.5,1.6,1.2ZM96,196.1c0-.6-1-.6-1,0,0,.6,1,.7,1,0ZM94.9,219.5c1.9-2.2-.9-1.7-1.8-.1.3,1,1.4.6,1.8.1Z"/>
      <path class="st5" d="M120,204.2c.3,0,.3.5,0,.4-.3,0-.3-.5,0-.4Z"/>
      <path class="st5" d="M116.8,205.5c.3,0,.3.5,0,.5-.3,0-.3-.5,0-.5Z"/>
      <path class="st5" d="M115.6,191.4c-2.3,7.5-3.5,12.5-1.3,19.3-5.6,6.8-7.9-2.9-6-8.4-6.6-1,.9,20.7-5,10.8.2-3.9-5.5-1.2-3.9-4.2,1.7-1.1.4-5.9,2.1-.7,2.8,1.2-1.6-3.2,1.3-4.7,2.1-1-.5-3.6.6-4.7,2.5-.8,1.6-4.6,3.7-4,3.8,2.3-4.5,4.4,1.4,4.1,1.1,1-.3,2.8,1.9,3.1,3.8-2.3-2.4-14.8,5.2-10.9Z"/>
      <path class="st5" d="M111.7,60.1c-4.3,35.8-8.4,10.5-7.1-9.2,2.3-14.7,1.4,13.2,7.1,9.2ZM110.3,64.3c0-.3-.5-.3-.5,0,0,.3.5.3.5,0Z"/>
      <path class="st5" d="M112.6,13.3c-.4.7-2.3.8-2.3-.1,1-.3,1.4-.5,2.3.1Z"/>
      <path class="st5" d="M108.8,216.8c-.7-1.2,1.3-3.4,2.8-2.7,0,2.7,0,6.2-2.8,2.7Z"/>
      <path class="st5" d="M109.6,238.9c4,2.2-3.1,1.7-1.3,4.3,2.4-2,.9,1.9-.7,2.8,7.4,9.7-4.9,1.6,1.7,10.4-22.1,22.1-27.4-29.9-18.8-13.6-2.7,2.2.6,4.5,3,3.9,3.1-3-3.3-11.3,4.3-10,1.7,16.4,7,1.1,11.8,2.2Z"/>
      <path class="st5" d="M110.1,64c.3,0,.3.5,0,.5-.3,0-.3-.5,0-.5Z"/>
      <path class="st5" d="M110.1,184.4c-3.9,1.9,1.2,9.1-1.8,10.8-4.3-2.3-3.2-5-3.2-9-4.5-2.8,2.5-6.9-2.1-9.3,2-1.9-.6-3.9,2.3-4.3-.2-2.3,1-5.3,2.1-8.4,4.7-11.2-.8,17.3,2.6,20.2Z"/>
      <path class="st5" d="M106.5,202.6c4.1-2.2,0,7.2.7,9.2-3,7.1-2.2-6.5-.7-9.2Z"/>
      <path class="st5" d="M107.9,47.9c.3,0,.3.5,0,.4-.3,0-.3-.5,0-.4Z"/>
      <path class="st5" d="M95.1,12.7c5.3-.4,19.5,1.2,5.7,1.8,2,2.1.9,2.4-1.2,2.7-7.2-6.2-23.6,2.8-32.7-4.8-13-5.1,24.8,0,28.2.3ZM86.5,14.2c.6,0,.6-1,0-1-.6,0-.7,1,0,1Z"/>
      <path class="st5" d="M106,235.5c4.4,5.1-9.1,14.1-7.3,4.2-1.8-1.2-1.3-4.3-.8-6.2,3.6,1.8-1.1-5.7,5.1-4.5-1.5-1.9-6.7-2.5-2.1-3.9-4.6-3.8,3.5-6,4.3-2.2-2.7,3.4,2.5,9,.8,12.7ZM103.2,223.5c0-.6-1-.6-1,0,0,.7,1,.6,1,0Z"/>
      <path class="st5" d="M106,82.7c.4,2.7,0,4.9-4.1,3.9.1,1.9,1.1,3,2.9,4.1-3.5.4-1.9,6-4.1,3-3.1,1,5.5,3.7-.7,3.3-3.7,4.4,4.1,18-2.9,20.6-1.1-18.7,1.2-41.6-3.3-61.4-2.1-4.2.4-1.9,1.4.8,6.1,9,2.1,18.5,7.3,25.3,1-3.1,2.5-2,3.3.5Z"/>
      <path class="st5" d="M96.3,129.7c1.7.4,2.8-2,1-2.3-.8.3-1.1,1.6-1,2.3ZM96.3,129.7c.2-5.5-2.2-22.3.8-12.1-1,8.5,2.2-4.3,2.7,8.4-1.4,2.7,2.2,13.3-1.2,14.4,6.2,2.3,6.2,1-.2,3.9-2.8-2.3-4,.7,0,1.2.4,3-4.6-.1-4,3.8-1.2-2.9-.5-20.6,2.6-13.9,1.9-6.5-2.6-3-.8-5.9ZM97.9,126.4c.8-.2-.2-1.4-.5-1.5-1-.8-.6,2.7.5,1.5Z"/>
      <path class="st5" d="M102.7,223c.6,0,.6,1,0,1-.6,0-.6-1,0-1Z"/>
      <path class="st5" d="M99.6,197.8c2.6.8,3.9,5.7.6,4.5,0,0-.6-4.5-.6-4.5Z"/>
      <path class="st5" d="M101.8,101.3c.6,0,.6,1,0,1-.6,0-.6-1,0-1Z"/>
      <path class="st5" d="M101.6,72.1c.3,0,.3.5,0,.5-.3,0-.3-.5,0-.5Z"/>
      <path class="st5" d="M101.4,194c1.1,1.9-1.6,3.9-1.2,3.5-1.7-.6.7-2.3,1.2-3.5Z"/>
      <path class="st5" d="M100.3,176.2c.5,3.1-3.8-.3-1.8,3.8-4.1-3.6-7.6,1.8-2.5,2.3.5.4,1.4,2.7,1.5,2.6-8.6,3-2.9-11.6-4.8-16.7.6-15.2-1.4,12.6,7.6,8Z"/>
      <path class="st5" d="M100,70.7c.6,0,.6,1,0,1-.7,0-.7-1,0-1Z"/>
      <path class="st5" d="M97.4,127.3c1.7.3.7,2.7-1,2.3,0-.8.2-2,1-2.3Z"/>
      <path class="st5" d="M98.1,125.6c.5.9-1.2,1.4-1.2.4-.2-1.3.3-1.8,1.2-.4Z"/>
      <path class="st5" d="M96.6,130.9c2.3,1.4.2,2.9.5,4.6-1.2,1-2.7-5-.5-4.6Z"/>
      <path class="st5" d="M97.5,184.9s0,0,0-.1c0,0,0,.1,0,.1Z"/>
      <path class="st5" d="M96.8,190.1c.2.3.9,1,.3,1.4-1.5.5-2.3-2.8-.3-1.4Z"/>
      <path class="st5" d="M96.2,129.7s0,0,.1,0c0,1.8,0,1.5-.1,0Z"/>
      <path class="st5" d="M95.5,195.6c.6,0,.6,1,0,1-.6,0-.6-1,0-1Z"/>
      <path class="st5" d="M95.1,217.7c1.5,1.1-1.4,3.4-2,1.7.3-.6,1.7-1.3,2-1.7Z"/>
      <path class="st5" d="M95.4,229.6c-3.9,1.5,3.4,23.5-6.6,15.2,2.6-1.5,1.4-3-1-3.6,3.9-.3,1.1-5.3-1.4-3.2-1.3-24.3,1.8-6.7,6.1-15.7,3.4-1.2-.8,3.9,2.8,7.3Z"/>
      <path class="st5" d="M95.1,152.3c0,.3-.3.6-.5.7-.9,0,.2-1.7.5-.7Z"/>
      <path class="st5" d="M94.4,153.6c.7-1.3.3,11-.7,7.9.3-.9-.7-7.7.7-7.9Z"/>
      <path class="st5" d="M93.2,186.3c.8,3.9,1.4,12.7-.9,16.8,3.5,3.7-1.6,6.7-1.8,11.2-1.6,28.3-7.6-19.8,2.6-28Z"/>
      <path class="st5" d="M90.5,46c3.6,5.6,1.9,5-1.6,3.1-22-12.7-39.4-3.9-58.2-9.2-3.7-1.2,26.6-3.9,31.1-1.6,10.9-4.9,24.6,6.8,28.6,7.7Z"/>
      <path class="st5" d="M86.5,13.2c.6,0,.6,1,0,1-.6,0-.6-1,0-1Z"/>
      <path class="st5" d="M79.1,38.5c.6.6-1.1.7-.6-.2.2-.4.5.2.6.2Z"/>
      <path class="st5" d="M76.5,40.3s0,0,0,0c0,0,0,0,0,0Z"/>
      <path class="st5" d="M62.8,9.7c-5.4.5-4.2-1-10.3-2.8,1.4-1.2,7.5,2.1,10.3,2.8Z"/>
      <path class="st5" d="M35.2,5.8c2.3,1,6.9,1,6,2.1-2.2.3-11.5-3.2-6-2.1Z"/>
      <path class="st5" d="M32.2,5.6c-9.1.4-19.1-.8-27.9,2.8,5-4.4,21.4-4.7,27.9-2.8Z"/>
      <path class="st5" d="M27.7,38.9c-5.1-.7-26.2,3.8-13-3.1.7,1-1.3,1-.8,2.3.5.9.9-2,1.8-.6-1.5,1.7,7.9-1.9,12,1.5Z"/>
      <path class="st5" d="M2.9,33.4c1.9,3.3,5.7,2.5,5.5,4.2-2,.3-6.9-3.5-5.5-4.2Z"/>
      <path class="st5" d="M2.5,13.8c-.3-.7.6-5.6,1.7-5-.5,1.7-.5,3.6-1.7,5Z"/>
      <path class="st5" d="M1.6,29.4c1.1.1,1.2,1.3,1.3,2.2-1-.2-1.2-1.3-1.3-2.2Z"/>
      <path class="st5" d="M2.4,15c.5,4.6-1.4,3.8-1.3,8.7-2.3,1.3.8-9.6,1.3-8.7Z"/>
      <path class="st5" d="M1.2,25.8l.4,3.3c-1.3,0-1.7-2.8-.4-3.3Z"/>
    </g>
  </g>
</svg>