<?xml version="1.0" encoding="UTF-8"?><svg id="b" xmlns="http://www.w3.org/2000/svg" viewBox="0 0 87.3 239"><defs><style>.d{fill:#740077;}</style></defs><g id="c"><path class="d" d="M87.3,224.66c-9.22,7.8,10.86,10.73-15.69,11.46-1.2-1.52-2.12,1.44-3.58,1.35.47-1.44-2.75-2.22-3.52-1.04.56,2.69,1.73,3.15-4.57,1.91.08-2.18-5.13.45-5.7-3.77.04,2.77-6.89,3.04-4.86-.18-2.65-5.74-16.85,6.27-14.48-1.97-1.11-2.53-2.08-.26-2.1,1.36-1.02,1.92-1.83-5.34-3.07-1.17-1.78,4-6.74-3.44-8.58,3.44-2.08.1.41-3-.88-3.68-11.69,11.45-25.8-5.5-18.04-20.19C6.51,146.56-1.78,81.53,1.78,14.52c46.12-58.93,28.44,79.16,29.35,100.32-3.14,43.39-14.25,99.19,50.18,87.62,2.2,4.27-3.59,12,2.95,12.69-2.65,5.77-2.65,7.78,3.04,9.51ZM70.05,234.97c7.11.13,4.1-2.98,1.66-3.34.6,1.78-4.29.27-1.66,3.34ZM39.33,203.17c11.79,2.86-6.52-5.38-10.04-7.16,1.31,4.73,6.05,3.45,3.64,6.26,4.2,3.7,3.38-.1,6.4.9ZM16.58,233.54c1.89-2.45-1.1-3.75-2.71-2.24,1.22.67,1.89,1.35,2.71,2.24ZM11.54,231.42c3.2-.12-2.23-5.89-2.27-2.6.74.83,1.77,1.18,2.27,2.6Z"/><path class="d" d="M74.41,233.47c1.76,1.22-6.27,2.68-4.89-.47,2.39-.15,2.8-3.08,4.89.47Z"/><path class="d" d="M71.71,231.64s-.07.03-.1.07c-.08,0-.06-.02.1-.07Z"/><path class="d" d="M44.69,203.4c-8.81.59-10.47,1-15.38-7.39,6.08,2.27,8.27,5.58,15.38,7.39Z"/><path class="d" d="M16.33,230.89c.92.28,1.26,1.22.25,2.65-1.59-1.34-3.96-3.5-.25-2.65Z"/><path class="d" d="M10.23,227.75c.84.27,3.92,3.56,1.31,3.67-.34-1.68-3.98-2.78-1.31-3.67Z"/></g></svg>