<?xml version="1.0" encoding="UTF-8"?><svg id="b" xmlns="http://www.w3.org/2000/svg" viewBox="0 0 128.13 236"><defs><style>.d{fill:#057c12;}</style></defs><g id="c"><path class="d" d="M128.13,219.97c.08,20.08-9.43,15.87-4.32,5.3,3.6,6.83.18-12.92,4.32-5.3Z"/><path class="d" d="M118.74,148.95c-4.1-1.29-.45-8.84-3.43-9.16-.14,7.83-.8,7.56.17,13.74,3.64,15.68,7.85,31.19,6.92,49.43,1.77,3.96,6.61,25.79,1.4,22.32-1.7,7.64-23.23,14.85-23.71,3.64,3.42-21.78-9.05-44.64,1.3-63.43-6.12-1.1-20.43-12.8-20.73-6.68-7.96-6.58-4.95,3.22-18.48,3.52-10.21.92-21.89-5.01-26.02,5.7-8.06-3.54,3.04,54.86-10.23,64.25-12.28-2.66-.76-16.26-6.51-23.97-6.11.25-.35-12-2.94-16.2-6.2,14.05,2.65-20.51-11.28-15.84-.24-11.07-7.3-49.06,8.36-42.84,2.94-1.39.81-8.11,2.15-10.81,4.2-6.6-2.12-4.74.94-10.96-.57-2.82,3.08-5.06,1.48-8.46-13.74-3.63,9.82-105.1-3.82-57.37-1.77,1.02.89,3.39-2.01,6.16-.94-5.29-1.89-11.08,2.68-13.59C13.83,26.25,28.13-1.98,45.41,4.14c12.25.18,14.86,2.67,27.01,7.93,7.47,3.45,2.24.4,3.25-4.3,4.86,2.42,34.27,40.24,24.17,34.83-5.63,6.48,17.7,29.19,14.89,48.95-4.17,1.88-3.06,8.86-.04,10.03-1.79,1.69-3.36,2.52-1.55,4.81-.85.75-2.48,10.23,1.43,9.9-.77,3.06-2.81,11.71,1.11,14.76.14,9.93,3.8,13.3,5.22,24.26-1.58,12.23-2.12-3.97-2.17-6.36ZM104.19,222.75c7.48,15.19,14.31-9.91,11.9-19.2-.59-5.88-3.87-6.26.33-10.91-6.44-13.83-4.42-25.51-8.1-38.47-1.91,24-2.52,42.53-4.13,68.58ZM92.65,90.79c-.22-10.73-7.53-22.47-4.43-30.88-4-.74-14.79-20.75-11.17-19.83,1.33.7,1.09-.88.93-1.56.69-1.56,3.38,3.4,3.5.65.08-1.78-2.43-.23-2.79-2.92-.25-8.17-7.48-1.79-.66-.15-2.29,2.44-5.69,2.87-3.92-1.16-10.57-.16-19.58-10.48-29.74-5.25,3.85,6.65-8.51-2.93-4.11,2.43-.53,3.83-5.31,8.15-6.2,12.74,4.72,7.5-7.77,23.73-5.79,35.43,5.01.18,2.02,10.55.82,14.24-.41,11.89,5.54,33.13,2.7,43.02,6.69,12.22,38.44-7.15,43.84,9.48,17.62.57,11.97,5.25.51,2.07-9.12-6.26-6.54,6.13-5.51,1.22,3.57-1.62,5.47,7.27,10.2,1.51,2.27,1.18,13.91,8.3,10.31,3.84,5.27-3.31,11.31-3.03,15.2-6.09,1.27-5.72-8.4.97-8.79-1.08,3.57-4.78,4.05-2.7,7.37-3.24-1.31-6.43-1.74-3.31.61-8.41-.44-6.18-2.53-7.48-1.33-12.2-4.48-1.62-.74,5.09-3.26,6.26-5.96-.91.77-14.68-3.35-18.04-.3-6.67-1.45-12.04-3.02-18.22,3.53-1.22-2.52-1.04-1.94-3.86ZM20.01,69.58c.21,8.15,1.48,6.1,4.27.15-1.88-2.84,1.13-3.05,1.47-4.72-4.09-.17-5.16-1.13-5.74,4.57ZM110.61,83.41c-2.34-5.65-5.16,4.95-1.31,3.82.8-1.39-.63-2.84,1.31-3.82ZM105.29,130.88c0-.28-.45-.29-.45,0,0,.3.46.29.45,0ZM93.61,156.48c0-.29-.46-.28-.45,0,0,.29.45.3.45,0ZM81.23,24.12c.58-3.47-2.94-4.69-6.2-4.93-2.94,1.11-3.95-4.8-4.36.11-.98-.38-.66-1.3-.54-2.29-4.77,1.05-1.65-6.89-6.47-2.98-3.69,3.17-8.4-1.43-7.61,3.14,5.3,6.25,3.8,3.16,8.81-.05.02,8.96,13.16,4,16.37,7ZM80.59,156.94c0-.3-.46-.3-.46,0,0,.28.46.28.46,0ZM27.32,45.54c1.03-1.68-.43-3.18-2.21-2.09-1.76,2.47.61,11.06,2.21,2.09ZM24.26,129.31c.52-2.8-3.12-.35-1.35.71.59.22,1.26-.14,1.35-.71ZM23.92,163.53c-2.09-3.22-2.28.09-2.94,1.61-6.56,9.15,2.55,9.41,2.94-1.61ZM21.82,184.08c2.29-4.4-3.06-14.79-.94-7-3.72,1.94-1.36,23.95.94,7ZM7.51,173.06c3.93-.21,2.42,1.06,7.15-.07-.82-3.96-9.69-3.15-7.15.07Z"/><path class="d" d="M125.98,216.81c.34-.2.37.31.37.53-.21-.13-.26-.35-.37-.53Z"/><path class="d" d="M121.01,177.76v.56c-.45.07-.2-.41,0-.56Z"/><path class="d" d="M118.61,159.85c4.41-3.23.2,11.35.59,3.48,0-.73-1.4-.05-1.9-.05-7.35-20.8,2.9-28.89,1.31-3.43Z"/><path class="d" d="M120.14,169.18c.56,1.02.34,2.13.43,3.29-1.29-.41-.93-2.31-.43-3.29Z"/><path class="d" d="M118.68,144.26l.58,2.58c-2.01.51-1.54-4.54-.58-2.58Z"/><path class="d" d="M117.86,125.15c-4.09,17.84-5.22-7.28-3.28-8.88-3.87-.31-1.49-2.93-2.55-5.62,2.18-1.84-1.95-6.31,2.67-9.09-5.46-4.61,2.1-17.71-2.51-27.09,4.37,9.04,6.18,36.45,5.66,50.68ZM114.72,106.64c0-.3-.46-.3-.46,0,0,.28.46.28.46,0Z"/><path class="d" d="M117.84,139.92c.1.41.17,1.15-.36,1.13-.56-.5-.7-2.48.36-1.13Z"/><path class="d" d="M116.97,137.79c0,.46.03.92.07,1.38-.92.17-.44-1.05-.07-1.38Z"/><path class="d" d="M114.83,188.43c8.9,44.72-19.68,55.26-7.26,3.62-6.13-3.41,1.92-22.67,1.19-24.97-1.63,1.98-.68-12.07-.41-12.89,2.06,4.11,3.4,21.94,3.18,26.95,3.11,4.99,2.97-2.52,3.3,7.29ZM114.16,192.7c.52-.05.72-.29.25-.55-1.15-.05-1.29.49-.25.55Z"/><path class="d" d="M115.69,131.95c.62.22.2,1.05-.05,1.44-.6-.4-.5-1.06.05-1.44Z"/><path class="d" d="M114.49,106.41c.29,0,.3.45,0,.45-.3,0-.29-.45,0-.45Z"/><path class="d" d="M114.41,192.14c.47.26.27.5-.25.55-1.04-.07-.9-.61.25-.55Z"/><path class="d" d="M112.81,73.49c-3.62-5.23-1.11-7.46-7.24-11.92,1.37-6.57-11.91-14.34-7.09-19.46.73,5.62.04-1.21,4.26,2.85-13.09-31,10.78,15.86,10.07,28.53Z"/><path class="d" d="M109.09,82.01c3.16-.08-.12,3.38.22,5.22-1.57,1.41-3.5-5.55-.22-5.22Z"/><path class="d" d="M105.51,147.19c4.42,4.48-6.57,4.48-9.99,6.52-5.94,1.18-1.23,4.6-7.15,2.83-1.04-2.67-7.37-5.72-10.35-2.67-3.35.68-6.39-8.05-7.23-1.8-5.42-4.69,4.42-6.15,5.69-2.06,1.99-1.13,11.73,2.21,10.3-2.06-6.87-.12-10.84.86-13.1-5.81-1.62-.22-14.95-3.27-8.13-3.12,17.82-5.72,36.06,6.31,32.14-26.18,4.13,3.44-2.64,17.06,3.35,18.04,2.52-1.23-1.2-7.83,3.26-6.26-1.22,4.71.9,6.03,1.33,12.2-2.55,5.35-1.84,1.85-.61,8.41-7.6-.45-10.01,5.71.49,1.96Z"/><path class="d" d="M105.06,130.67c.3,0,.29.46,0,.45-.28,0-.29-.45,0-.45Z"/><path class="d" d="M100.1,228.91c-4.9-36.23,11.25-74.77-60.47-66.85,7.13-2.04,15.33,1.27,22.54.24,13.49-.3,10.47-10.07,18.48-3.52.48-3.57,4.99-4.63,2.52-.68,8.15,3.37,24.09,5.54,14.61,14.04-2.89,17.19,4.83,38.04,2.32,56.77Z"/><path class="d" d="M97.17,110.82c.61.2.33,1.06.41,1.55-.91.4-1.08-1.14-.41-1.55Z"/><path class="d" d="M95.76,99.86c2.12.95,1.39,2.45.97,4.38-1.91-.75-3.24-10.71-4.07-13.07,6.1,6.33-.53-.49,3.1,8.69Z"/><path class="d" d="M96.62,105.38c.73,1.26.56,2.8.55,4.21-.48.92-1.88-4.6-.55-4.21Z"/><path class="d" d="M95.88,30.43c-1.32-.02-1.6-1.02-1.64-2.11.83.45,1.54,1.15,1.64,2.11Z"/><path class="d" d="M93.39,156.26c.29,0,.28.46,0,.45-.29,0-.3-.45,0-.45Z"/><path class="d" d="M92.65,90.79s0,.07-.01,0c0,0,.01,0,.01,0Z"/><path class="d" d="M92.64,90.8c-.76,1.29-2.39-6.6-1.69-6.82.66-1.35,1.56,6.3,1.69,6.82Z"/><path class="d" d="M92.8,26.43c-1.21.15-1.26-.95-1.43-1.82.94,0,1.28,1.01,1.43,1.82Z"/><path class="d" d="M90.02,79.83c1.16-.5,1.22,1.74.44,1.99-.35-.63-.66-1.22-.44-1.99Z"/><path class="d" d="M87.85,68.75c.93-2.13,3.34,11.21,2.11,9.87-.87-3.19-1.66-6.52-2.11-9.87Z"/><path class="d" d="M89.13,22.41c.25.02.45.21.47.46-.16-.07-.38-.31-.47-.46Z"/><path class="d" d="M88.23,59.93c-4.06.85.79,6.4-.52,7.79-3.32-4.83-2.33-6.44-2.76-7.45l-2.13-5.08c3.35,3.67,3.11,3.87,5.41,4.74Z"/><path class="d" d="M87.42,21.05c-.37.61-.59.16-.55-.41.22.09.42.22.55.41Z"/><path class="d" d="M84.69,19.19c.39,0,.77.18.85.59-.4-.1-.76-.1-.85-.59Z"/><path class="d" d="M83.73,16.57c-.33,1.39-1.15-1.74-.45-1.77.23.54.17,1.24.45,1.77Z"/><path class="d" d="M82.81,13.88c.46,2.67-4.97-5.62-7.11-6.11,5.4,15.41-32.63-16.2-46.63-.22,10.68-12.47,44.76-8.93,53.74,6.33Z"/><path class="d" d="M82.75,53.29c.16.4-.03.83-.03,1.13-1.16.36-1.06-2.51.03-1.13Z"/><path class="d" d="M78.71,36.26c.36,2.69,2.87,1.14,2.79,2.92-.12,2.75-2.8-2.21-3.5-.65.54,1.71-.48,2.23-1.64.77,1.02,6.46,4.98,13.82-3.62,2.17-8.23-9.01.19-8.51,2.49-2.96.87-1.23,4.65-3.74.8-2.84-3.17-5.06,3.15-4.66,2.68.59Z"/><path class="d" d="M81.43,51.01c.21.34-.08.77.04,1.07-1.34.29-1.12-2.37-.04-1.07Z"/><path class="d" d="M79.97,19.71c1.76,2.49,1.31,7.38-.59,2.88-4.15.76-14.73,1.69-14.53-5.46-4.97,3.23-3.59,6.25-8.81.05-.79-4.57,3.92.03,7.61-3.14.98-.84,1.61-1.39,2.93-.68.84,4.87,2.38,1.94,4.08,5.95.41-4.91,1.42,1,4.36-.11,1.97-.74,3.29,2.45,4.95.51Z"/><path class="d" d="M80.36,156.71c.29,0,.3.45,0,.45-.3,0-.29-.45,0-.45Z"/><path class="d" d="M73.01,136.62c5.14,4.34-28.65.23-9.07-.12,2.08.63,5.67-.26,9.07.12Z"/><path class="d" d="M68.91,136.51c.14.68-1.07.6-.9,0,0,0,.9,0,.9,0Z"/><path class="d" d="M67.14,34.12c-.13-.1-.26-.21-.37-.33.14.11.33.18.37.33Z"/><path class="d" d="M66.62,33.64c.04.05.1.11.15.15-.07-.04-.12-.09-.15-.15Z"/><path class="d" d="M66.69,136.55c-.2.34-1.14.51-.97-.08.33,0,.65.01.97.08Z"/><path class="d" d="M64.46,136.48c.08.59-.61.58-.52,0,.17,0,.35,0,.52,0Z"/><path class="d" d="M63.65,139.04c-16.45,3.72-35.18,7.79-31.36-12.92,7.53,12.85,22.97,8.32,31.36,12.92Z"/><path class="d" d="M63.92,32.36c-13.28,8.04-14.87-4.19-27.73,15.74-.11-3.76-2.9-5.62,1.23-10.86,5.18-1.53-.32-8.98,3.83-6.44,5,4.36,2.15-2.86,7.7-2.28.56-1.23,14.82,1.48,14.97,3.84ZM37.08,43.53c0-.65-1-.65-1,0-.01.64,1.01.65,1,0Z"/><path class="d" d="M60.83,136.52c.24.77-1.55.51-1.39,0,0,0,1.39,0,1.39,0Z"/><path class="d" d="M39.65,162.06c-5.61,22.52.7,53.34-13.69,70.22,9.99-17.93,8-41.02,7.07-60.87-3.85-1.46,3.44-7.43,3.14-3.39,3.49.43,1.08-4.87,3.48-5.96Z"/><path class="d" d="M37.82,107.12c-10.11,44.09-10.52-36.18-4.64-52.28,2.72-11.85-.66,44.43,4.64,52.28Z"/><path class="d" d="M36.58,43.03c.65,0,.65,1.01,0,1-.65,0-.65-1.01,0-1Z"/><path class="d" d="M27.28,43.37c.82.96-.99,7.71-2.08,6.18-1.44-2.59-.91-7.84,2.08-6.18Z"/><path class="d" d="M26.57,232.79c-42.64,20.4-20.23-62.46-23.93-84.29.96,40.66,7.93,15.87,12.02,42.23-1.16,1.83-1.55,8.08.87,4.41,2.2-8.05,1.09,9.22,1.41,13.37,11.25,1.52-4.74,22.55,9.63,24.28Z"/><path class="d" d="M25.77,65.02c-.34,1.67-3.36,1.87-1.47,4.72-5.35,15.42-7.08-9.15,1.47-4.72Z"/><path class="d" d="M23.77,128.05c1.14.2.39,2.56-.86,1.98-.99-.29-.14-2.41.86-1.98Z"/><path class="d" d="M22.42,162.26c5.76,1.75-5.7,15.36-3.66,8.96,1.69-1.97-1.11-5.45,2.24-6.09,1.37-.86-.65-3.06,1.42-2.87Z"/><path class="d" d="M21.96,174.97c.33,3.61.04,16.01-2.57,14.81-.35-4.66-.51-16.69,2.57-14.81Z"/><path class="d" d="M19.01,22.41c-.94,1.26-2.32,8.03-4.06,8.14-.38-1.82,2.63-7.18,4.06-8.14Z"/><path class="d" d="M18.05,30.93c1.33,18.34-5.83,46.51-5.2,63.78-4.11-13.29-4.9-25.79-2.17-45.03.2-6.44,1.37-1.98,1.64,2.32,2.9-2.77.24-5.13,2.01-6.16.83,1.41,1.98.44,1.58-1.14-.85-3.6.35-7.71,2.14-13.77Z"/><path class="d" d="M18.15,103.21c1.59,3.38-2.05,5.66-1.48,8.46-3.06,6.22,3.26,4.36-.94,10.96-1.25,24.29-4.37-8.85-13.76,25.87,3.31-6.91,6.64-68.57,16.18-45.29Z"/><path class="d" d="M15.05,32.88c.13.63-1.27,7.59-3.11,9.39-.14-3.34.4-7.84,3.11-9.39Z"/><path class="d" d="M14.66,172.99c-4.73,1.13-3.22-.14-7.15.07-2.54-3.23,6.36-3.99,7.15-.07Z"/></g></svg>